<?xml version="1.0" encoding="UTF-8" standalone="no"?><!DOCTYPE svg PUBLIC "-//W3C//DTD SVG 1.1//EN" "http://www.w3.org/Graphics/SVG/1.1/DTD/svg11.dtd"><svg width="100%" height="100%" viewBox="0 0 120 380" version="1.1" xmlns="http://www.w3.org/2000/svg" xmlns:xlink="http://www.w3.org/1999/xlink" xml:space="preserve" xmlns:serif="http://www.serif.com/" style="fill-rule:evenodd;clip-rule:evenodd;stroke-linejoin:round;stroke-miterlimit:1.5;"><rect id="Collider" x="-0" y="0" width="120" height="379.559" style="fill:none;"/><clipPath id="_clip1"><rect x="-0" y="0" width="120" height="379.559"/></clipPath><g clip-path="url(#_clip1)"><g id="Layer1"><rect id="background" x="-14.15" y="-7.016" width="418.63" height="393.592" style="fill:#e6e6e6;"/><path d="M404.479,-7.016l-418.629,-0l-0,393.591l418.629,0l0,-393.591Zm-1,1l0,391.591c0,0 -416.629,0 -416.629,0c-0,0 -0,-369.825 -0,-391.591c-0,-0 416.629,-0 416.629,-0l0,-0Z" style="fill:#646464;"/><rect x="12.88" y="273.719" width="97.23" height="43.932" style="fill-opacity:0.1;"/><path d="M29.354,106.002l30.646,-28.555" style="fill:none;stroke:#000;stroke-width:1px;"/><g id="logo"><g><circle cx="53.704" cy="331.826" r="1.627" style="fill:#8000db;"/><path d="M53.704,331.826l5.554,0" style="fill:none;stroke:#8000db;stroke-width:1.35px;stroke-linejoin:miter;"/><path d="M59.258,329.046c0,-1.533 -1.244,-2.777 -2.777,-2.777l-5.554,0c-1.532,0 -2.777,1.244 -2.777,2.777l0,5.561c0,1.532 1.245,2.777 2.777,2.777l5.554,-0c1.533,-0 2.777,-1.245 2.777,-2.777l0,-5.561Z" style="fill:none;stroke:#8000db;stroke-width:1.35px;stroke-miterlimit:3;"/></g><g><circle cx="66.302" cy="343.944" r="1.627" style="fill:#f00;"/><path d="M69.079,338.386l-5.554,0c-1.532,0 -2.777,0.802 -2.777,1.79l0,7.535c0,0.988 1.245,1.79 2.777,1.79l5.554,-0c1.533,-0 2.777,-0.802 2.777,-1.79l0,-3.767l-5.554,-0" style="fill:none;stroke:#f00;stroke-width:1.35px;stroke-linecap:round;stroke-miterlimit:3;"/></g><g><circle cx="66.302" cy="331.826" r="1.627" style="fill:#2600ff;"/><path d="M71.856,337.384l0,-8.982c0,-1.177 -1.244,-2.133 -2.777,-2.133l-5.554,0c-1.532,0 -2.777,0.956 -2.777,2.133l0,8.982" style="fill:none;stroke:#2600ff;stroke-width:1.35px;stroke-linecap:round;stroke-miterlimit:3;"/></g><g><circle cx="53.701" cy="343.944" r="1.627" style="fill:#0ef;"/><path d="M48.144,349.501l-0,-11.115l11.114,11.115l0,-11.115" style="fill:none;stroke:#0ef;stroke-width:1.35px;stroke-linecap:round;"/></g></g><g><path d="M54.478,283.864c-0.563,0.413 -1.186,0.62 -1.87,0.62c-0.895,-0 -1.574,-0.304 -2.036,-0.911c-0.462,-0.607 -0.694,-1.495 -0.694,-2.663c0,-1.13 0.224,-2.009 0.672,-2.637c0.447,-0.628 1.133,-0.943 2.058,-0.943c0.332,0 0.661,0.043 0.986,0.127c0.326,0.085 0.588,0.197 0.786,0.337l-0.263,0.63c-0.459,-0.26 -0.962,-0.39 -1.509,-0.39c-0.632,-0 -1.103,0.231 -1.414,0.693c-0.311,0.462 -0.466,1.19 -0.466,2.183c0,1.914 0.627,2.871 1.88,2.871c0.472,-0 0.828,-0.1 1.069,-0.298l0,-1.699l-1.24,-0l0,-0.694l2.041,0l0,2.774Z" style="fill-rule:nonzero;"/><path d="M61.001,284.352l-0.839,-0l-0.762,-2.412l-2.261,-0l-0.771,2.412l-0.83,-0l2.251,-6.89l0.961,0l2.251,6.89Zm-1.831,-3.11l-0.903,-2.852l-0.898,2.852l1.801,-0Z" style="fill-rule:nonzero;"/><path d="M66.792,278.112l-2.124,-0l0,6.24l-0.795,-0l-0,-6.24l-2.134,-0l-0,-0.65l5.053,0l0,0.65Z" style="fill-rule:nonzero;"/><path d="M72.11,284.352l-3.599,-0l0,-6.89l3.57,0l-0,0.698l-2.769,0l0,2.134l2.661,0l0,0.699l-2.661,-0l0,2.661l2.798,-0l-0,0.698Z" style="fill-rule:nonzero;"/></g><g><path d="M90.723,277.33l-2.246,6.89l-0.962,0l-2.251,-6.89l0.84,0l1.889,5.962l1.9,-5.962l0.83,0Z" style="fill-rule:nonzero;"/><path d="M95.854,284.22l-3.598,0l-0,-6.89l3.569,0l0,0.699l-2.768,-0l-0,2.133l2.661,0l-0,0.699l-2.661,-0l-0,2.661l2.797,-0l0,0.698Z" style="fill-rule:nonzero;"/><path d="M102.007,284.22l-3.75,0l-0,-6.89l0.801,0l-0,6.192l2.949,-0l-0,0.698Z" style="fill-rule:nonzero;"/></g><g><path d="M21.674,277.33l-2.246,6.89l-0.962,0l-2.251,-6.89l0.84,0l1.89,5.962l1.899,-5.962l0.83,0Z" style="fill-rule:nonzero;"/><path d="M25.968,277.199l-2.993,7.153l-0.718,-0l2.979,-7.153l0.732,-0Z" style="fill-rule:nonzero;"/><path d="M29.447,277.199c0.771,-0 1.36,0.305 1.765,0.915c0.405,0.61 0.608,1.498 0.608,2.664c-0,1.159 -0.202,2.044 -0.606,2.656c-0.403,0.612 -0.992,0.918 -1.767,0.918c-0.768,-0 -1.355,-0.305 -1.76,-0.916c-0.406,-0.61 -0.608,-1.496 -0.608,-2.658c-0,-1.162 0.201,-2.049 0.605,-2.661c0.404,-0.612 0.991,-0.918 1.763,-0.918Zm-0,6.45c1.015,-0 1.523,-0.957 1.523,-2.871c0,-1.918 -0.508,-2.876 -1.523,-2.876c-0.495,-0 -0.872,0.248 -1.131,0.744c-0.258,0.497 -0.388,1.207 -0.388,2.132c0,0.934 0.129,1.646 0.386,2.136c0.257,0.49 0.635,0.735 1.133,0.735Z" style="fill-rule:nonzero;"/><path d="M36.939,283.79c-0.54,0.375 -1.167,0.562 -1.88,0.562c-0.892,-0 -1.57,-0.306 -2.034,-0.918c-0.463,-0.612 -0.695,-1.497 -0.695,-2.656c-0,-1.12 0.224,-1.997 0.673,-2.63c0.45,-0.633 1.135,-0.949 2.056,-0.949c0.332,-0 0.661,0.042 0.986,0.127c0.326,0.084 0.588,0.196 0.787,0.336l-0.264,0.63c-0.459,-0.26 -0.962,-0.39 -1.509,-0.39c-0.635,-0 -1.107,0.23 -1.416,0.691c-0.309,0.46 -0.464,1.189 -0.464,2.185c0,1.914 0.627,2.871 1.88,2.871c0.531,-0 1.074,-0.163 1.631,-0.489l0.249,0.63Z" style="fill-rule:nonzero;"/><path d="M42.493,277.98l-2.124,-0l-0,6.24l-0.796,0l-0,-6.24l-2.134,-0l-0,-0.65l5.054,0l-0,0.65Z" style="fill-rule:nonzero;"/></g><g id="original-text" serif:id="original text"><path d="M90.176,206.092l-1.001,-0l-2.022,-3.13l-0.888,-0l-0,3.13l-0.801,-0l-0,-6.89l1.948,0c0.654,0 1.171,0.159 1.55,0.476c0.38,0.318 0.569,0.759 0.569,1.326c0,0.42 -0.138,0.793 -0.415,1.12c-0.276,0.328 -0.657,0.55 -1.142,0.667l2.202,3.301Zm-3.911,-3.828l1.01,-0c0.424,-0 0.767,-0.115 1.031,-0.345c0.263,-0.229 0.395,-0.518 0.395,-0.866c0,-0.769 -0.469,-1.153 -1.406,-1.153l-1.03,0l-0,2.364Z" style="fill-rule:nonzero;"/><path d="M95.522,206.092l-0.888,-0l-2.471,-5.44l0,5.44l-0.801,-0l0,-6.89l0.894,0l2.48,5.391l0,-5.391l0.786,0l0,6.89Z" style="fill-rule:nonzero;"/><path d="M97.466,199.202l1.357,0c0.902,0 1.625,0.307 2.168,0.921c0.544,0.613 0.816,1.455 0.816,2.526c-0,1.094 -0.276,1.941 -0.828,2.542c-0.552,0.6 -1.259,0.901 -2.122,0.901l-1.391,-0l-0,-6.89Zm0.801,6.192l0.566,-0c0.654,-0 1.172,-0.243 1.553,-0.728c0.381,-0.485 0.571,-1.157 0.571,-2.017c0,-0.853 -0.191,-1.524 -0.574,-2.014c-0.382,-0.49 -0.899,-0.735 -1.55,-0.735l-0.566,0l-0,5.494Z" style="fill-rule:nonzero;"/></g><path d="M31.659,206.053c-0.541,0.374 -1.167,0.561 -1.88,0.561c-0.892,0 -1.57,-0.306 -2.034,-0.918c-0.464,-0.612 -0.696,-1.497 -0.696,-2.656c0,-1.12 0.225,-1.996 0.674,-2.63c0.449,-0.633 1.135,-0.949 2.056,-0.949c0.332,-0 0.661,0.042 0.986,0.127c0.326,0.084 0.588,0.197 0.786,0.337l-0.263,0.63c-0.459,-0.261 -0.962,-0.391 -1.509,-0.391c-0.635,-0 -1.107,0.23 -1.416,0.691c-0.309,0.46 -0.464,1.189 -0.464,2.185c-0,1.914 0.627,2.871 1.88,2.871c0.53,-0 1.074,-0.163 1.631,-0.488l0.249,0.63Z" style="fill-rule:nonzero;"/><g><path d="M90.723,134.776l-2.246,6.89l-0.962,-0l-2.251,-6.89l0.84,0l1.889,5.962l1.9,-5.962l0.83,0Z" style="fill-rule:nonzero;"/><path d="M95.854,141.666l-3.598,-0l-0,-6.89l3.569,0l0,0.698l-2.768,0l-0,2.134l2.661,0l-0,0.699l-2.661,-0l-0,2.661l2.797,-0l0,0.698Z" style="fill-rule:nonzero;"/><path d="M102.007,141.666l-3.75,-0l-0,-6.89l0.801,0l-0,6.192l2.949,-0l-0,0.698Z" style="fill-rule:nonzero;"/></g><g><path d="M21.022,134.896l-2.039,6.253l-0.873,0l-2.043,-6.253l0.762,-0l1.716,5.411l1.724,-5.411l0.753,-0Z" style="fill-rule:nonzero;"/><path d="M25.6,134.776l-2.717,6.493l-0.651,0l2.703,-6.493l0.665,0Z" style="fill-rule:nonzero;"/><path d="M29.438,134.776c0.7,0 1.235,0.277 1.602,0.831c0.368,0.554 0.552,1.36 0.552,2.418c0,1.052 -0.183,1.855 -0.549,2.411c-0.367,0.555 -0.902,0.833 -1.605,0.833c-0.697,0 -1.23,-0.277 -1.598,-0.831c-0.367,-0.554 -0.551,-1.358 -0.551,-2.413c-0,-1.055 0.183,-1.86 0.549,-2.416c0.367,-0.555 0.9,-0.833 1.6,-0.833Zm0,5.855c0.922,-0 1.383,-0.869 1.383,-2.606c-0,-1.74 -0.461,-2.611 -1.383,-2.611c-0.449,0 -0.791,0.226 -1.026,0.676c-0.235,0.451 -0.352,1.096 -0.352,1.935c-0,0.848 0.117,1.494 0.35,1.939c0.233,0.444 0.576,0.667 1.028,0.667Z" style="fill-rule:nonzero;"/><path d="M36.919,140.759c-0.49,0.34 -1.059,0.51 -1.706,0.51c-0.81,0 -1.425,-0.278 -1.846,-0.833c-0.421,-0.556 -0.631,-1.359 -0.631,-2.411c-0,-1.017 0.203,-1.812 0.611,-2.387c0.408,-0.574 1.03,-0.862 1.866,-0.862c0.301,0 0.6,0.039 0.895,0.115c0.296,0.077 0.534,0.179 0.714,0.306l-0.24,0.572c-0.416,-0.236 -0.873,-0.355 -1.369,-0.355c-0.576,0 -1.005,0.209 -1.285,0.628c-0.281,0.418 -0.421,1.079 -0.421,1.983c-0,1.737 0.568,2.606 1.706,2.606c0.482,-0 0.975,-0.148 1.48,-0.443l0.226,0.571Z" style="fill-rule:nonzero;"/><path d="M42.641,135.485l-1.928,0l0,5.664l-0.722,0l-0,-5.664l-1.937,0l-0,-0.589l4.587,-0l-0,0.589Z" style="fill-rule:nonzero;"/></g><g><path d="M35.621,223.769l1.748,0c0.66,0 1.189,0.166 1.587,0.498c0.397,0.332 0.595,0.789 0.595,1.372c0,0.586 -0.197,1.054 -0.593,1.404c-0.396,0.35 -0.914,0.525 -1.555,0.525l-0.982,-0l0,3.091l-0.8,-0l-0,-6.89Zm0.8,3.101l0.87,-0c0.94,-0 1.411,-0.394 1.411,-1.182c-0,-0.365 -0.128,-0.659 -0.384,-0.884c-0.255,-0.224 -0.585,-0.337 -0.988,-0.337l-0.909,0l0,2.403Z" style="fill-rule:nonzero;"/><path d="M46.114,230.659l-0.84,-0l-0.762,-2.412l-2.261,-0l-0.771,2.412l-0.83,-0l2.251,-6.89l0.962,0l2.251,6.89Zm-1.831,-3.111l-0.904,-2.851l-0.898,2.851l1.802,0Z" style="fill-rule:nonzero;"/><path d="M52.105,230.659l-1.001,-0l-2.021,-3.13l-0.889,-0l-0,3.13l-0.801,-0l0,-6.89l1.948,0c0.655,0 1.171,0.159 1.551,0.476c0.379,0.318 0.568,0.759 0.568,1.326c0,0.42 -0.138,0.793 -0.415,1.12c-0.276,0.328 -0.657,0.55 -1.142,0.667l2.202,3.301Zm-3.911,-3.828l1.011,-0c0.423,-0 0.766,-0.115 1.03,-0.345c0.264,-0.229 0.395,-0.518 0.395,-0.866c0,-0.769 -0.468,-1.153 -1.406,-1.153l-1.03,0l-0,2.364Z" style="fill-rule:nonzero;"/><path d="M57.906,224.418l-2.124,0l-0,6.241l-0.796,-0l-0,-6.241l-2.134,0l0,-0.649l5.054,0l-0,0.649Z" style="fill-rule:nonzero;"/><path d="M62.906,230.659l-3.13,-0l-0,-0.699l1.186,0l0,-5.493l-1.186,0l-0,-0.698l3.13,0l-0,0.698l-1.143,0l0,5.493l1.143,0l-0,0.699Z" style="fill-rule:nonzero;"/><path d="M69.605,230.229c-0.54,0.374 -1.167,0.562 -1.88,0.562c-0.892,-0 -1.57,-0.306 -2.034,-0.918c-0.463,-0.612 -0.695,-1.498 -0.695,-2.657c-0,-1.119 0.224,-1.996 0.673,-2.629c0.45,-0.633 1.135,-0.95 2.056,-0.95c0.332,0 0.661,0.043 0.986,0.127c0.326,0.085 0.588,0.197 0.787,0.337l-0.264,0.63c-0.459,-0.26 -0.962,-0.391 -1.509,-0.391c-0.635,0 -1.107,0.231 -1.416,0.691c-0.309,0.461 -0.464,1.189 -0.464,2.185c0,1.914 0.627,2.871 1.88,2.871c0.531,0 1.074,-0.162 1.631,-0.488l0.249,0.63Z" style="fill-rule:nonzero;"/><path d="M75.376,230.659l-3.75,-0l0,-6.89l0.801,0l0,6.191l2.949,0l0,0.699Z" style="fill-rule:nonzero;"/><path d="M81.226,230.659l-3.599,-0l0,-6.89l3.57,0l-0,0.698l-2.769,0l0,2.134l2.661,0l0,0.698l-2.661,0l0,2.661l2.798,0l0,0.699Z" style="fill-rule:nonzero;"/><path d="M86.846,224.531c-0.41,-0.14 -0.799,-0.21 -1.167,-0.21c-0.416,-0 -0.756,0.095 -1.018,0.285c-0.262,0.191 -0.393,0.462 -0.393,0.813c0,0.417 0.343,0.783 1.03,1.099c0.508,0.234 0.844,0.397 1.009,0.488c0.164,0.092 0.331,0.217 0.5,0.376c0.169,0.16 0.305,0.348 0.408,0.564c0.102,0.217 0.154,0.46 0.154,0.73c-0,0.671 -0.226,1.191 -0.677,1.56c-0.45,0.37 -0.982,0.555 -1.594,0.555c-0.592,-0 -1.112,-0.118 -1.557,-0.352l0.166,-0.688c0.524,0.237 0.981,0.356 1.372,0.356c0.455,-0 0.821,-0.118 1.096,-0.354c0.275,-0.236 0.412,-0.561 0.412,-0.974c0,-0.306 -0.089,-0.566 -0.268,-0.779c-0.179,-0.213 -0.51,-0.43 -0.991,-0.652c-0.495,-0.228 -0.815,-0.383 -0.96,-0.466c-0.145,-0.083 -0.289,-0.198 -0.432,-0.344c-0.143,-0.147 -0.254,-0.311 -0.332,-0.494c-0.078,-0.182 -0.117,-0.38 -0.117,-0.595c-0,-0.57 0.205,-1.014 0.615,-1.333c0.41,-0.319 0.929,-0.479 1.558,-0.479c0.459,0 0.914,0.07 1.367,0.21l-0.181,0.684Z" style="fill-rule:nonzero;"/></g><path d="M29.354,184.332l0,-28.404" style="fill:none;stroke:#000;stroke-width:1px;"/><path d="M61.495,184.465l-0,-28.537" style="fill:none;stroke:#000;stroke-width:1px;"/><g><path d="M47.725,200.354c-0.41,-0.14 -0.799,-0.21 -1.167,-0.21c-0.417,0 -0.756,0.096 -1.018,0.286c-0.262,0.19 -0.393,0.461 -0.393,0.813c-0,0.417 0.343,0.783 1.03,1.099c0.508,0.234 0.844,0.397 1.009,0.488c0.164,0.091 0.331,0.216 0.5,0.376c0.169,0.159 0.305,0.347 0.408,0.564c0.102,0.216 0.154,0.46 0.154,0.73c-0,0.67 -0.226,1.19 -0.677,1.56c-0.451,0.369 -0.982,0.554 -1.594,0.554c-0.592,0 -1.112,-0.117 -1.558,-0.351l0.166,-0.689c0.525,0.238 0.982,0.357 1.373,0.357c0.455,-0 0.821,-0.118 1.096,-0.354c0.275,-0.236 0.412,-0.561 0.412,-0.975c0,-0.306 -0.089,-0.565 -0.268,-0.778c-0.179,-0.214 -0.51,-0.431 -0.991,-0.652c-0.495,-0.228 -0.815,-0.384 -0.96,-0.467c-0.145,-0.083 -0.289,-0.197 -0.432,-0.344c-0.143,-0.146 -0.254,-0.311 -0.332,-0.493c-0.078,-0.182 -0.117,-0.381 -0.117,-0.596c-0,-0.569 0.205,-1.014 0.615,-1.333c0.41,-0.319 0.929,-0.478 1.558,-0.478c0.459,-0 0.914,0.07 1.367,0.21l-0.181,0.683Z" style="fill-rule:nonzero;"/><path d="M50.508,199.593l1.748,-0c0.661,-0 1.19,0.166 1.587,0.498c0.397,0.332 0.596,0.789 0.596,1.372c-0,0.586 -0.198,1.054 -0.593,1.404c-0.396,0.349 -0.914,0.524 -1.555,0.524l-0.982,0l0,3.091l-0.801,0l0,-6.889Zm0.801,3.1l0.869,0c0.941,0 1.411,-0.394 1.411,-1.181c0,-0.365 -0.127,-0.66 -0.383,-0.884c-0.255,-0.225 -0.585,-0.337 -0.989,-0.337l-0.908,-0l0,2.402Z" style="fill-rule:nonzero;"/><path d="M60.992,206.482l-1.001,0l-2.022,-3.13l-0.888,0l-0,3.13l-0.801,0l-0,-6.889l1.948,-0c0.654,-0 1.171,0.158 1.55,0.476c0.38,0.317 0.569,0.759 0.569,1.325c0,0.42 -0.138,0.794 -0.415,1.121c-0.277,0.327 -0.657,0.549 -1.142,0.666l2.202,3.301Zm-3.911,-3.828l1.01,0c0.423,0 0.767,-0.115 1.031,-0.344c0.263,-0.23 0.395,-0.518 0.395,-0.867c0,-0.768 -0.469,-1.152 -1.406,-1.152l-1.03,-0l-0,2.363Z" style="fill-rule:nonzero;"/><path d="M66.109,206.482l-3.599,0l0,-6.889l3.57,-0l-0,0.698l-2.769,-0l0,2.134l2.661,-0l0,0.698l-2.661,-0l0,2.661l2.798,0l-0,0.698Z" style="fill-rule:nonzero;"/><path d="M73.003,206.482l-0.839,0l-0.762,-2.412l-2.261,0l-0.771,2.412l-0.83,0l2.251,-6.889l0.961,-0l2.251,6.889Zm-1.831,-3.11l-0.903,-2.852l-0.898,2.852l1.801,-0Z" style="fill-rule:nonzero;"/><path d="M74.283,199.593l1.357,-0c0.902,-0 1.624,0.306 2.168,0.92c0.544,0.614 0.816,1.456 0.816,2.527c-0,1.094 -0.276,1.941 -0.828,2.541c-0.552,0.601 -1.259,0.901 -2.122,0.901l-1.391,0l-0,-6.889Zm0.8,6.191l0.567,0c0.654,0 1.172,-0.242 1.553,-0.728c0.38,-0.485 0.571,-1.157 0.571,-2.016c-0,-0.853 -0.191,-1.524 -0.574,-2.014c-0.382,-0.49 -0.899,-0.735 -1.55,-0.735l-0.567,-0l0,5.493Z" style="fill-rule:nonzero;"/></g><g><path d="M50.036,108.526c-0.377,-0.323 -0.761,-0.559 -1.153,-0.708c-0.444,-0.17 -0.846,-0.2 -1.206,-0.093c-0.36,0.107 -0.616,0.358 -0.766,0.752c-0.178,0.467 0.031,1.017 0.628,1.65c0.44,0.469 0.728,0.788 0.864,0.956c0.137,0.169 0.261,0.378 0.373,0.625c0.112,0.248 0.176,0.514 0.193,0.798c0.016,0.284 -0.033,0.578 -0.148,0.881c-0.287,0.752 -0.749,1.243 -1.387,1.475c-0.638,0.231 -1.283,0.223 -1.934,-0.025c-0.631,-0.241 -1.134,-0.583 -1.508,-1.027l0.471,-0.704c0.456,0.479 0.892,0.798 1.308,0.956c0.485,0.185 0.925,0.201 1.318,0.048c0.394,-0.153 0.679,-0.462 0.856,-0.925c0.131,-0.343 0.146,-0.671 0.047,-0.982c-0.1,-0.312 -0.359,-0.69 -0.777,-1.133c-0.429,-0.457 -0.703,-0.761 -0.822,-0.913c-0.119,-0.151 -0.223,-0.339 -0.313,-0.561c-0.09,-0.222 -0.138,-0.451 -0.143,-0.688c-0.005,-0.236 0.038,-0.474 0.13,-0.715c0.243,-0.639 0.652,-1.054 1.225,-1.245c0.573,-0.192 1.193,-0.16 1.862,0.095c0.489,0.186 0.944,0.45 1.366,0.79l-0.484,0.693Z" style="fill-rule:nonzero;"/><path d="M55.144,117.209l-0.898,-0.162l0.728,-4.037l-2.644,-0.476l-0.728,4.036l-0.898,-0.161l1.467,-8.137l0.898,0.162l-0.59,3.269l2.645,0.477l0.589,-3.269l0.898,0.161l-1.467,8.137Z" style="fill-rule:nonzero;"/><path d="M63.357,117.446l-0.957,0.007l-0.888,-2.888l-2.576,0.018l-0.858,2.901l-0.946,0.007l2.506,-8.286l1.095,-0.008l2.624,8.249Zm-2.113,-3.717l-1.053,-3.414l-1,3.429l2.053,-0.015Z" style="fill-rule:nonzero;"/><path d="M70.986,116.044l-1.125,0.243l-3.448,-3.406l-0.61,1.103l0.653,3.036l-0.892,0.192l-1.739,-8.083l0.891,-0.192l0.834,3.872l2.571,-4.605l1.028,-0.221l-2.262,4.059l4.099,4.002Z" style="fill-rule:nonzero;"/><path d="M76.581,113.941l-3.805,1.527l-3.08,-7.672l3.774,-1.515l0.312,0.777l-2.927,1.175l0.953,2.376l2.814,-1.129l0.312,0.778l-2.813,1.129l1.189,2.964l2.958,-1.188l0.313,0.778Z" style="fill-rule:nonzero;"/></g><g id="title"><path d="M29.068,61.253c0.727,2.1 0.744,4.283 0.051,6.548c-0.867,2.834 -2.55,4.675 -5.049,5.522c-2.499,0.848 -5.688,0.678 -9.566,-0.509c-3.748,-1.146 -6.463,-2.757 -8.146,-4.833c-1.682,-2.076 -2.075,-4.577 -1.18,-7.504c0.323,-1.056 0.784,-2.057 1.384,-3.005c0.6,-0.947 1.23,-1.665 1.892,-2.153l1.852,1.483c-1.318,1.192 -2.243,2.657 -2.775,4.394c-0.617,2.017 -0.305,3.753 0.936,5.207c1.241,1.455 3.529,2.692 6.862,3.712c6.407,1.96 10.219,0.948 11.437,-3.034c0.516,-1.686 0.5,-3.58 -0.049,-5.682l2.351,-0.146Z" style="fill:#2600ff;fill-rule:nonzero;"/><path d="M19.893,45.991c1.443,-1.824 3.26,-2.745 5.453,-2.763c2.192,-0.017 4.383,0.84 6.573,2.571c2.207,1.745 3.56,3.69 4.057,5.835c0.498,2.145 0.025,4.129 -1.417,5.953c-1.449,1.833 -3.271,2.754 -5.464,2.764c-2.194,0.01 -4.399,-0.861 -6.616,-2.614c-2.198,-1.738 -3.539,-3.674 -4.023,-5.808c-0.484,-2.134 -0.005,-4.114 1.437,-5.938Zm12.843,10.155c0.952,-1.205 1.168,-2.579 0.645,-4.123c-0.522,-1.544 -1.547,-2.92 -3.076,-4.128c-1.608,-1.272 -3.203,-1.975 -4.783,-2.107c-1.58,-0.132 -2.853,0.412 -3.819,1.634c-0.973,1.23 -1.216,2.59 -0.729,4.077c0.486,1.488 1.547,2.879 3.183,4.172c1.555,1.23 3.133,1.919 4.736,2.07c1.602,0.15 2.883,-0.382 3.843,-1.595Z" style="fill:#2600ff;fill-rule:nonzero;"/><path d="M48.42,45.816l-5.907,3.59l-11.323,-18.637l-3.772,2.292l-1.198,-1.972l5.935,-3.606l11.323,18.636l3.744,-2.274l1.198,1.971Z" style="fill:#2600ff;fill-rule:nonzero;"/><path d="M61.188,42.99l-6.802,1.226l-3.868,-21.461l-4.344,0.783l-0.409,-2.271l6.835,-1.232l3.868,21.461l4.311,-0.777l0.409,2.271Z" style="fill:#2600ff;fill-rule:nonzero;"/><path d="M86.592,51.928l-2.161,-1.318l1.334,-2.189c-0.9,0.479 -1.912,0.71 -3.035,0.692c-1.123,-0.018 -2.142,-0.305 -3.056,-0.863c-1.653,-1.007 -2.487,-2.58 -2.502,-4.717c-0.014,-2.137 0.705,-4.398 2.158,-6.781c1.358,-2.228 2.985,-3.768 4.88,-4.621c1.894,-0.853 3.668,-0.776 5.321,0.232c1.82,1.109 2.809,2.78 2.969,5.012l4.483,-7.354l2.161,1.318l-12.552,20.589Zm0.676,-5.973l3.853,-6.318c0.033,-2.382 -0.68,-4.017 -2.14,-4.907c-1.191,-0.726 -2.473,-0.744 -3.844,-0.052c-1.372,0.691 -2.577,1.888 -3.615,3.591c-1.067,1.751 -1.624,3.396 -1.67,4.936c-0.046,1.54 0.5,2.656 1.636,3.349c0.544,0.332 1.189,0.512 1.933,0.538c0.744,0.027 1.55,-0.122 2.419,-0.446c0.869,-0.324 1.345,-0.555 1.428,-0.691Z" style="fill:#2600ff;fill-rule:nonzero;"/><path d="M101.988,57.537l-6.976,-9.269c-1.611,1.212 -2.607,2.655 -2.987,4.329c-0.381,1.674 -0.086,3.155 0.883,4.443c0.923,1.227 2.108,2.318 3.555,3.274l-1.444,1.635c-1.462,-0.768 -2.791,-1.948 -3.988,-3.538c-1.509,-2.005 -2.047,-4.132 -1.614,-6.38c0.433,-2.248 1.801,-4.238 4.104,-5.972c2.258,-1.699 4.473,-2.502 6.645,-2.411c2.172,0.092 3.915,1.01 5.228,2.756c1.171,1.556 1.526,3.326 1.066,5.31c-0.46,1.985 -1.728,3.758 -3.803,5.32l-0.669,0.503Zm0.075,-3.509c1.111,-0.835 1.799,-1.868 2.065,-3.097c0.266,-1.229 0.093,-2.249 -0.518,-3.062c-0.787,-1.045 -1.804,-1.638 -3.049,-1.777c-1.245,-0.139 -2.484,0.194 -3.717,1l5.219,6.936Z" style="fill:#2600ff;fill-rule:nonzero;"/><path d="M115.08,70.891l-2.736,-0.36c0.222,-1.206 0.234,-2.202 0.034,-2.989c-0.183,-0.723 -0.581,-1.375 -1.193,-1.956c-0.612,-0.582 -1.398,-1.06 -2.357,-1.436c-0.96,-0.376 -1.489,-0.551 -1.588,-0.526l-11.165,2.836l-0.619,-2.438l17.26,-4.383l0.619,2.437l-3.495,0.888c2.939,0.649 4.673,2.016 5.203,4.102c0.314,1.238 0.327,2.512 0.037,3.825Z" style="fill:#2600ff;fill-rule:nonzero;"/><circle cx="74.047" cy="22.202" r="2.32" style="fill:#0ef;"/><path d="M67.014,34.604l6.021,-8.062l2.837,9.654l-8.858,-1.592Z" style="fill:#0ef;"/><path d="M68.927,49.406c-0,-0 1.628,-9.064 2.834,-15.778" style="fill:none;stroke:#0ef;stroke-width:3px;"/></g><path d="M45.418,245.8l32.141,0" style="fill:none;stroke:#000;stroke-width:1px;"/></g></g></svg>