<?xml version="1.0" encoding="UTF-8" standalone="no"?>
<svg
   width="100%"
   height="100%"
   viewBox="0 0 540 380"
   version="1.1"
   xml:space="preserve"
   style="fill-rule:evenodd;clip-rule:evenodd;stroke-linecap:round;stroke-linejoin:round;stroke-miterlimit:1.5;"
   id="svg103"
   sodipodi:docname="Cosmosis-dark.svg"
   inkscape:version="1.3 (0e150ed6c4, 2023-07-21)"
   xmlns:inkscape="http://www.inkscape.org/namespaces/inkscape"
   xmlns:sodipodi="http://sodipodi.sourceforge.net/DTD/sodipodi-0.dtd"
   xmlns="http://www.w3.org/2000/svg"
   xmlns:svg="http://www.w3.org/2000/svg"
   xmlns:serif="http://www.serif.com/"><defs
     id="defs103" /><sodipodi:namedview
     id="namedview103"
     pagecolor="#ffffff"
     bordercolor="#999999"
     borderopacity="1"
     inkscape:showpageshadow="2"
     inkscape:pageopacity="0"
     inkscape:pagecheckerboard="0"
     inkscape:deskcolor="#d1d1d1"
     inkscape:zoom="2.951889"
     inkscape:cx="169.38306"
     inkscape:cy="298.62234"
     inkscape:window-width="1920"
     inkscape:window-height="1051"
     inkscape:window-x="-9"
     inkscape:window-y="-9"
     inkscape:window-maximized="1"
     inkscape:current-layer="svg103" /><rect
     id="Cosmosis"
     x="0"
     y="0"
     width="540"
     height="379.559"
     style="fill:none;" /><clipPath
     id="_clip1"><rect
       x="0"
       y="0"
       width="540"
       height="379.559"
       id="rect1" /></clipPath><g
     clip-path="url(#_clip1)"
     id="g103"><g
       id="Layer1"><rect
         id="background"
         x="-9.15"
         y="-7.016"
         width="557.155"
         height="393.592"
         style="fill:#080033;fill-opacity:1" /><path
         d="M548.005,-7.016l-557.155,-0l-0,393.591l557.155,0l-0,-393.591Zm-1,1l-0,391.591c-0,0 -555.155,0 -555.155,0c-0,0 -0,-391.591 -0,-391.591l555.155,-0Z"
         style="fill:#646464;"
         id="path1" /><rect
         id="rect"
         x="161.2"
         y="0.78"
         width="378"
         height="378"
         style="fill:#1a1a1a;fill-opacity:1" /><rect
         x="11.307"
         y="304.183"
         width="73.932"
         height="54.388"
         style="fill:#ffffff;fill-opacity:0.25"
         id="rect2" /><g
         id="g8"><path
           d="M39.452,27.778c-1.2,0.748 -2.591,1.123 -4.173,1.123c-1.98,-0 -3.485,-0.612 -4.515,-1.836c-1.03,-1.224 -1.545,-2.995 -1.545,-5.313c0,-2.239 0.499,-3.992 1.496,-5.259c0.997,-1.266 2.518,-1.899 4.564,-1.899c0.737,-0 1.467,0.085 2.189,0.254c0.723,0.169 1.305,0.394 1.745,0.674l-0.585,1.259c-1.019,-0.52 -2.135,-0.781 -3.349,-0.781c-1.41,0 -2.457,0.461 -3.144,1.382c-0.686,0.921 -1.03,2.378 -1.03,4.37c0,3.828 1.391,5.742 4.174,5.742c1.178,0 2.384,-0.325 3.62,-0.976l0.553,1.26Z"
           style="fill:#2600ff;fill-rule:nonzero;"
           id="path2" /><path
           d="M64.34,19.916c-0.946,-0.28 -1.839,-0.42 -2.677,-0.42c-0.918,0 -1.644,0.139 -2.179,0.415c-0.535,0.277 -0.802,0.647 -0.802,1.109c-0,0.293 0.123,0.548 0.368,0.766c0.246,0.218 0.737,0.422 1.475,0.611l1.615,0.42c0.744,0.188 1.351,0.415 1.821,0.678c0.47,0.264 0.822,0.583 1.057,0.957c0.235,0.375 0.352,0.809 0.352,1.304c0,0.97 -0.452,1.737 -1.355,2.3c-0.903,0.563 -2.052,0.845 -3.447,0.845c-1.388,-0 -2.533,-0.189 -3.436,-0.567l0.325,-1.318c0.947,0.404 1.962,0.605 3.046,0.605c0.939,0 1.704,-0.158 2.293,-0.473c0.589,-0.316 0.883,-0.734 0.883,-1.255c0,-0.352 -0.146,-0.666 -0.439,-0.943c-0.293,-0.276 -0.981,-0.564 -2.065,-0.864c-0.874,-0.241 -1.518,-0.421 -1.929,-0.542c-0.412,-0.12 -0.795,-0.298 -1.15,-0.532c-0.354,-0.234 -0.623,-0.514 -0.807,-0.84c-0.184,-0.325 -0.276,-0.69 -0.276,-1.094c-0,-0.879 0.426,-1.575 1.279,-2.089c0.852,-0.515 1.983,-0.772 3.392,-0.772c0.911,0 1.923,0.14 3.036,0.42l-0.38,1.279Z"
           style="fill:#2600ff;fill-rule:nonzero;"
           id="path3" /><path
           d="M79.733,28.637l-1.691,-0l-0,-6.68c-0,-1.614 -0.333,-2.422 -0.997,-2.422c-0.34,0 -0.714,0.279 -1.122,0.835c-0.409,0.557 -0.613,0.865 -0.613,0.923l0,7.344l-1.68,-0l-0,-6.68c-0,-1.614 -0.336,-2.422 -1.008,-2.422c-0.333,0 -0.703,0.279 -1.111,0.835c-0.409,0.557 -0.613,0.865 -0.613,0.923l0,7.344l-1.691,-0l0,-10.176l1.626,0l0,1.533c0.318,-0.54 0.696,-0.971 1.133,-1.294c0.437,-0.322 0.873,-0.483 1.306,-0.483c0.456,0 0.864,0.161 1.225,0.483c0.361,0.323 0.611,0.754 0.748,1.294c0.318,-0.54 0.697,-0.971 1.138,-1.294c0.441,-0.322 0.875,-0.483 1.301,-0.483c1.366,0 2.049,1.1 2.049,3.301l-0,7.119Z"
           style="fill:#2600ff;fill-rule:nonzero;"
           id="path4" /><path
           d="M87.787,18.217c1.554,0 2.789,0.488 3.707,1.465c0.918,0.976 1.377,2.262 1.377,3.857c-0,1.608 -0.459,2.904 -1.377,3.887c-0.918,0.983 -2.153,1.475 -3.707,1.475c-1.561,-0 -2.799,-0.49 -3.713,-1.47c-0.914,-0.98 -1.371,-2.277 -1.371,-3.892c-0,-1.601 0.459,-2.889 1.377,-3.862c0.917,-0.973 2.153,-1.46 3.707,-1.46Zm-0,9.355c1.026,0 1.835,-0.39 2.428,-1.171c0.593,-0.782 0.889,-1.729 0.889,-2.842c-0,-1.172 -0.293,-2.136 -0.878,-2.891c-0.586,-0.755 -1.399,-1.133 -2.439,-1.133c-1.048,0 -1.861,0.373 -2.439,1.119c-0.578,0.745 -0.867,1.713 -0.867,2.905c-0,1.133 0.292,2.085 0.878,2.856c0.585,0.772 1.394,1.157 2.428,1.157Z"
           style="fill:#2600ff;fill-rule:nonzero;"
           id="path5" /><path
           d="M104.307,19.916c-0.947,-0.28 -1.839,-0.42 -2.678,-0.42c-0.917,0 -1.644,0.139 -2.179,0.415c-0.534,0.277 -0.802,0.647 -0.802,1.109c0,0.293 0.123,0.548 0.369,0.766c0.246,0.218 0.737,0.422 1.474,0.611l1.615,0.42c0.745,0.188 1.352,0.415 1.821,0.678c0.47,0.264 0.822,0.583 1.057,0.957c0.235,0.375 0.353,0.809 0.353,1.304c-0,0.97 -0.452,1.737 -1.355,2.3c-0.904,0.563 -2.053,0.845 -3.448,0.845c-1.387,-0 -2.532,-0.189 -3.436,-0.567l0.325,-1.318c0.947,0.404 1.962,0.605 3.046,0.605c0.94,0 1.704,-0.158 2.293,-0.473c0.589,-0.316 0.884,-0.734 0.884,-1.255c-0,-0.352 -0.147,-0.666 -0.44,-0.943c-0.292,-0.276 -0.981,-0.564 -2.064,-0.864c-0.875,-0.241 -1.518,-0.421 -1.93,-0.542c-0.412,-0.12 -0.795,-0.298 -1.149,-0.532c-0.354,-0.234 -0.623,-0.514 -0.808,-0.84c-0.184,-0.325 -0.276,-0.69 -0.276,-1.094c0,-0.879 0.426,-1.575 1.279,-2.089c0.853,-0.515 1.984,-0.772 3.393,-0.772c0.911,0 1.922,0.14 3.035,0.42l-0.379,1.279Z"
           style="fill:#2600ff;fill-rule:nonzero;"
           id="path6" /><path
           d="M115.168,14.614c0.318,-0 0.589,0.102 0.813,0.307c0.224,0.205 0.336,0.451 0.336,0.737c0,0.3 -0.11,0.551 -0.33,0.752c-0.221,0.202 -0.494,0.303 -0.819,0.303c-0.296,0 -0.558,-0.106 -0.786,-0.317c-0.227,-0.212 -0.341,-0.458 -0.341,-0.738c-0,-0.28 0.114,-0.524 0.341,-0.732c0.228,-0.208 0.49,-0.312 0.786,-0.312Zm0.824,14.023l-1.691,-0l0,-8.857l-3.328,-0l0,-1.319l5.019,0l0,10.176Z"
           style="fill:#2600ff;fill-rule:nonzero;"
           id="path7" /><path
           d="M130.951,19.916c-0.947,-0.28 -1.839,-0.42 -2.677,-0.42c-0.918,0 -1.644,0.139 -2.179,0.415c-0.535,0.277 -0.802,0.647 -0.802,1.109c-0,0.293 0.123,0.548 0.368,0.766c0.246,0.218 0.737,0.422 1.474,0.611l1.616,0.42c0.744,0.188 1.351,0.415 1.821,0.678c0.469,0.264 0.822,0.583 1.057,0.957c0.234,0.375 0.352,0.809 0.352,1.304c-0,0.97 -0.452,1.737 -1.355,2.3c-0.903,0.563 -2.052,0.845 -3.447,0.845c-1.388,-0 -2.533,-0.189 -3.436,-0.567l0.325,-1.318c0.946,0.404 1.962,0.605 3.046,0.605c0.939,0 1.703,-0.158 2.292,-0.473c0.589,-0.316 0.884,-0.734 0.884,-1.255c-0,-0.352 -0.146,-0.666 -0.439,-0.943c-0.293,-0.276 -0.981,-0.564 -2.065,-0.864c-0.875,-0.241 -1.518,-0.421 -1.93,-0.542c-0.412,-0.12 -0.795,-0.298 -1.149,-0.532c-0.354,-0.234 -0.623,-0.514 -0.807,-0.84c-0.185,-0.325 -0.277,-0.69 -0.277,-1.094c0,-0.879 0.427,-1.575 1.279,-2.089c0.853,-0.515 1.984,-0.772 3.393,-0.772c0.911,0 1.923,0.14 3.035,0.42l-0.379,1.279Z"
           style="fill:#2600ff;fill-rule:nonzero;"
           id="path8" /><g
           id="TinyBlueButton"><circle
             id="BlueButton"
             cx="48.274"
             cy="23.559"
             r="5.04"
             style="fill:#fff;stroke:#2600ff;stroke-width:1px;" /><circle
             id="BlueButton1"
             serif:id="BlueButton"
             cx="48.274"
             cy="23.559"
             r="3.1"
             style="fill:#2600ff;" /></g></g><g
         transform="matrix(0.900901,0,0,0.959619,-1723.27,-308.277)"
         id="g11"><g
           transform="matrix(1.11,0,0,1,-237.738,0)"
           id="g9"><text
             x="2161.25px"
             y="509.739px"
             style="font-family:'AndaleMono', 'Andale Mono', monospace;font-size:10px;"
             id="text8">TODO:</text></g><g
           transform="matrix(1.11,0,0,1,-231.51,0)"
           id="g10"><text
             x="2104.63px"
             y="519.739px"
             style="font-family:'AndaleMono', 'Andale Mono', monospace;font-size:10px;"
             id="text9">make RND for particles</text></g></g><g
         id="g13"
         style="fill:#ffffff"><path
           d="M126.799,48.478c-0.54,0.359 -1.166,0.539 -1.879,0.539c-0.892,-0 -1.57,-0.294 -2.034,-0.881c-0.464,-0.588 -0.696,-1.437 -0.696,-2.549c0,-1.075 0.225,-1.916 0.674,-2.524c0.449,-0.607 1.134,-0.911 2.056,-0.911c0.332,0 0.66,0.041 0.986,0.122c0.325,0.081 0.588,0.189 0.786,0.323l-0.264,0.605c-0.459,-0.25 -0.962,-0.375 -1.508,-0.375c-0.635,-0 -1.107,0.221 -1.416,0.663c-0.31,0.442 -0.464,1.141 -0.464,2.097c-0,1.836 0.626,2.755 1.88,2.755c0.53,-0 1.074,-0.156 1.63,-0.469l0.249,0.605Z"
           style="fill-rule:nonzero;fill:#ffffff"
           id="path11" /><path
           d="M132.571,48.89l-3.75,0l-0,-6.611l0.801,-0l-0,5.941l2.949,0l-0,0.67Z"
           style="fill-rule:nonzero;fill:#ffffff"
           id="path12" /><path
           d="M139.304,48.89l-1.001,0l-2.021,-3.003l-0.889,-0l0,3.003l-0.801,0l0,-6.611l1.949,-0c0.654,-0 1.171,0.152 1.55,0.456c0.379,0.305 0.569,0.729 0.569,1.273c-0,0.403 -0.138,0.761 -0.415,1.075c-0.277,0.314 -0.658,0.527 -1.143,0.64l2.202,3.167Zm-3.911,-3.673l1.011,-0c0.423,-0 0.767,-0.111 1.03,-0.331c0.264,-0.22 0.396,-0.497 0.396,-0.832c-0,-0.737 -0.469,-1.105 -1.406,-1.105l-1.031,-0l0,2.268Z"
           style="fill-rule:nonzero;fill:#ffffff"
           id="path13" /></g><g
         id="g18"
         style="fill:#ffffff"><path
           d="M56.769,319.775l-2.246,6.611l-0.962,0l-2.251,-6.611l0.84,0l1.889,5.721l1.9,-5.721l0.83,0Z"
           style="fill-rule:nonzero;fill:#ffffff"
           id="path14" /><path
           d="M61.063,319.649l-2.993,6.864l-0.718,-0l2.978,-6.864l0.733,-0Z"
           style="fill-rule:nonzero;fill:#ffffff"
           id="path15" /><path
           d="M64.541,319.649c0.772,-0 1.36,0.292 1.765,0.878c0.406,0.586 0.608,1.438 0.608,2.556c0,1.112 -0.201,1.962 -0.605,2.549c-0.404,0.587 -0.993,0.881 -1.768,0.881c-0.768,-0 -1.355,-0.293 -1.76,-0.879c-0.405,-0.585 -0.608,-1.436 -0.608,-2.551c0,-1.115 0.202,-1.966 0.606,-2.554c0.403,-0.587 0.991,-0.88 1.762,-0.88Zm0,6.189c1.016,0 1.524,-0.918 1.524,-2.755c-0,-1.84 -0.508,-2.76 -1.524,-2.76c-0.494,0 -0.871,0.238 -1.13,0.715c-0.259,0.476 -0.388,1.158 -0.388,2.045c-0,0.897 0.128,1.58 0.385,2.05c0.258,0.47 0.635,0.705 1.133,0.705Z"
           style="fill-rule:nonzero;fill:#ffffff"
           id="path16" /><path
           d="M72.033,325.974c-0.54,0.359 -1.167,0.539 -1.879,0.539c-0.892,-0 -1.57,-0.294 -2.034,-0.881c-0.464,-0.587 -0.696,-1.437 -0.696,-2.549c0,-1.074 0.225,-1.916 0.674,-2.523c0.449,-0.608 1.134,-0.911 2.056,-0.911c0.332,-0 0.66,0.04 0.986,0.121c0.325,0.082 0.587,0.189 0.786,0.324l-0.264,0.604c-0.459,-0.25 -0.962,-0.375 -1.508,-0.375c-0.635,0 -1.107,0.221 -1.416,0.663c-0.31,0.442 -0.464,1.141 -0.464,2.097c-0,1.837 0.626,2.755 1.88,2.755c0.53,0 1.074,-0.156 1.63,-0.468l0.249,0.604Z"
           style="fill-rule:nonzero;fill:#ffffff"
           id="path17" /><path
           d="M77.587,320.398l-2.124,0l0,5.988l-0.796,0l0,-5.988l-2.134,0l0,-0.623l5.054,0l0,0.623Z"
           style="fill-rule:nonzero;fill:#ffffff"
           id="path18" /></g><g
         id="g22"
         style="fill:#ffffff"><path
           d="M15.267,42.279l1.748,-0c0.66,-0 1.189,0.159 1.587,0.478c0.397,0.318 0.595,0.757 0.595,1.316c0,0.563 -0.198,1.012 -0.593,1.347c-0.396,0.336 -0.914,0.504 -1.555,0.504l-0.982,0l0,2.966l-0.8,0l-0,-6.611Zm0.8,2.975l0.869,0c0.941,0 1.412,-0.378 1.412,-1.134c-0,-0.35 -0.128,-0.632 -0.384,-0.848c-0.255,-0.216 -0.585,-0.323 -0.988,-0.323l-0.909,-0l0,2.305Z"
           style="fill-rule:nonzero;fill:#ffffff"
           id="path19" /><path
           d="M25.018,48.89l-3.75,0l-0,-6.611l0.8,-0l0,5.941l2.95,0l-0,0.67Z"
           style="fill-rule:nonzero;fill:#ffffff"
           id="path20" /><path
           d="M31.761,48.89l-0.84,0l-0.762,-2.315l-2.261,0l-0.771,2.315l-0.83,0l2.251,-6.611l0.962,-0l2.251,6.611Zm-1.831,-2.985l-0.904,-2.736l-0.898,2.736l1.802,0Z"
           style="fill-rule:nonzero;fill:#ffffff"
           id="path21" /><path
           d="M37.581,42.279l-2.153,3.781l-0,2.83l-0.796,0l-0,-2.83l-2.154,-3.781l0.904,-0l1.645,2.975l1.651,-2.975l0.903,-0Z"
           style="fill-rule:nonzero;fill:#ffffff"
           id="path22" /></g><g
         id="g27"
         style="fill:#ffffff"><path
           d="M50.429,43.01c-0.41,-0.135 -0.799,-0.202 -1.167,-0.202c-0.416,0 -0.756,0.091 -1.018,0.274c-0.262,0.183 -0.393,0.443 -0.393,0.78c0,0.4 0.344,0.752 1.03,1.055c0.508,0.225 0.844,0.381 1.009,0.468c0.164,0.088 0.331,0.208 0.5,0.361c0.169,0.153 0.305,0.333 0.408,0.541c0.102,0.208 0.154,0.441 0.154,0.701c-0,0.643 -0.226,1.142 -0.677,1.497c-0.45,0.354 -0.982,0.532 -1.594,0.532c-0.592,-0 -1.111,-0.113 -1.557,-0.338l0.166,-0.66c0.524,0.228 0.981,0.342 1.372,0.342c0.455,-0 0.821,-0.114 1.096,-0.34c0.275,-0.227 0.412,-0.538 0.412,-0.935c0,-0.294 -0.089,-0.543 -0.268,-0.747c-0.179,-0.205 -0.51,-0.413 -0.991,-0.626c-0.495,-0.218 -0.815,-0.368 -0.96,-0.447c-0.145,-0.08 -0.289,-0.19 -0.432,-0.331c-0.143,-0.14 -0.254,-0.298 -0.332,-0.473c-0.078,-0.175 -0.117,-0.365 -0.117,-0.571c-0,-0.547 0.205,-0.974 0.615,-1.28c0.41,-0.306 0.929,-0.459 1.558,-0.459c0.459,0 0.914,0.067 1.367,0.202l-0.181,0.656Z"
           style="fill-rule:nonzero;fill:#ffffff"
           id="path23" /><path
           d="M53.212,42.279l1.748,-0c0.661,-0 1.19,0.159 1.587,0.478c0.398,0.318 0.596,0.757 0.596,1.316c0,0.563 -0.198,1.012 -0.593,1.347c-0.396,0.336 -0.914,0.504 -1.555,0.504l-0.982,0l0,2.966l-0.801,0l0,-6.611Zm0.801,2.975l0.869,0c0.941,0 1.411,-0.378 1.411,-1.134c0,-0.35 -0.127,-0.632 -0.383,-0.848c-0.255,-0.216 -0.585,-0.323 -0.989,-0.323l-0.908,-0l0,2.305Z"
           style="fill-rule:nonzero;fill:#ffffff"
           id="path24" /><path
           d="M62.812,48.89l-3.599,0l0,-6.611l3.57,-0l-0,0.67l-2.769,-0l0,2.047l2.661,0l0,0.67l-2.661,0l0,2.554l2.798,0l0,0.67Z"
           style="fill-rule:nonzero;fill:#ffffff"
           id="path25" /><path
           d="M68.813,48.89l-3.599,0l0,-6.611l3.57,-0l-0,0.67l-2.769,-0l0,2.047l2.661,0l0,0.67l-2.661,0l0,2.554l2.798,0l0,0.67Z"
           style="fill-rule:nonzero;fill:#ffffff"
           id="path26" /><path
           d="M70.986,42.279l1.357,-0c0.902,-0 1.625,0.294 2.168,0.883c0.544,0.589 0.816,1.397 0.816,2.425c-0,1.049 -0.276,1.862 -0.828,2.439c-0.552,0.576 -1.259,0.864 -2.122,0.864l-1.391,0l-0,-6.611Zm0.801,5.941l0.566,0c0.654,0 1.172,-0.233 1.553,-0.698c0.381,-0.466 0.571,-1.111 0.571,-1.935c0,-0.819 -0.191,-1.463 -0.574,-1.933c-0.382,-0.47 -0.899,-0.705 -1.55,-0.705l-0.566,-0l-0,5.271Z"
           style="fill-rule:nonzero;fill:#ffffff"
           id="path27" /></g><g
         id="g31"
         style="fill:#ffffff"><path
           d="M84.83,42.405l1.748,0c0.661,0 1.19,0.159 1.587,0.478c0.397,0.319 0.596,0.758 0.596,1.317c-0,0.562 -0.198,1.011 -0.593,1.347c-0.396,0.336 -0.914,0.504 -1.556,0.504l-0.981,-0l-0,2.966l-0.801,-0l0,-6.612Zm0.801,2.976l0.869,-0c0.941,-0 1.411,-0.378 1.411,-1.134c0,-0.35 -0.128,-0.633 -0.383,-0.848c-0.256,-0.216 -0.585,-0.324 -0.989,-0.324l-0.908,0l-0,2.306Z"
           style="fill-rule:nonzero;fill:#ffffff"
           id="path28" /><path
           d="M95.323,49.017l-0.839,-0l-0.762,-2.315l-2.261,-0l-0.771,2.315l-0.831,-0l2.251,-6.612l0.962,0l2.251,6.612Zm-1.831,-2.985l-0.903,-2.737l-0.898,2.737l1.801,-0Z"
           style="fill-rule:nonzero;fill:#ffffff"
           id="path29" /><path
           d="M101.114,43.028l-2.124,0l0,5.989l-0.796,-0l0,-5.989l-2.133,0l-0,-0.623l5.053,0l0,0.623Z"
           style="fill-rule:nonzero;fill:#ffffff"
           id="path30" /><path
           d="M107.115,43.028l-2.124,0l0,5.989l-0.796,-0l0,-5.989l-2.133,0l-0,-0.623l5.053,0l0,0.623Z"
           style="fill-rule:nonzero;fill:#ffffff"
           id="path31" /></g><rect
         x="11.307"
         y="223.797"
         width="30.233"
         height="68.774"
         style="fill:none;stroke:#ffffff;stroke-opacity:0.1;stroke-width:1px;stroke-linecap:butt;stroke-linejoin:miter"
         id="rect31" /><g
         id="g35"
         style="fill:#ffffff"><path
           d="M19.798,234.151l-0.772,0l0,-5.669l-1.04,2.713l-0.757,-0l-1.04,-2.713l0,5.669l-0.771,0l-0,-6.611l1.04,-0l1.152,3.013l1.148,-3.013l1.04,-0l-0,6.611Z"
           style="fill-rule:nonzero;fill:#ffffff"
           id="path32" /><path
           d="M23.567,227.413c0.772,0 1.36,0.293 1.765,0.879c0.406,0.586 0.608,1.438 0.608,2.556c0,1.112 -0.201,1.962 -0.605,2.549c-0.404,0.587 -0.993,0.881 -1.768,0.881c-0.768,-0 -1.355,-0.293 -1.76,-0.879c-0.405,-0.585 -0.608,-1.436 -0.608,-2.551c0,-1.115 0.202,-1.966 0.606,-2.554c0.403,-0.587 0.991,-0.881 1.762,-0.881Zm0,6.19c1.016,0 1.524,-0.918 1.524,-2.755c-0,-1.84 -0.508,-2.76 -1.524,-2.76c-0.494,0 -0.871,0.238 -1.13,0.715c-0.259,0.476 -0.388,1.158 -0.388,2.045c-0,0.896 0.128,1.58 0.386,2.05c0.257,0.47 0.634,0.705 1.132,0.705Z"
           style="fill-rule:nonzero;fill:#ffffff"
           id="path33" /><path
           d="M27.601,227.54l1.357,-0c0.902,-0 1.624,0.294 2.168,0.883c0.544,0.589 0.815,1.397 0.815,2.425c0,1.05 -0.276,1.863 -0.827,2.439c-0.552,0.576 -1.259,0.864 -2.122,0.864l-1.391,0l-0,-6.611Zm0.8,5.941l0.567,0c0.654,0 1.172,-0.232 1.552,-0.698c0.381,-0.465 0.572,-1.11 0.572,-1.935c-0,-0.818 -0.191,-1.463 -0.574,-1.933c-0.382,-0.47 -0.899,-0.705 -1.55,-0.705l-0.567,-0l0,5.271Z"
           style="fill-rule:nonzero;fill:#ffffff"
           id="path34" /><path
           d="M37.43,234.151l-3.599,0l0,-6.611l3.569,-0l0,0.67l-2.768,-0l-0,2.048l2.661,-0l-0,0.67l-2.661,-0l-0,2.553l2.798,0l-0,0.67Z"
           style="fill-rule:nonzero;fill:#ffffff"
           id="path35" /></g><rect
         x="51.217"
         y="223.861"
         width="90.11"
         height="68.736"
         style="fill:none;stroke:#ffffff;stroke-opacity:0.1;stroke-width:1px;stroke-linecap:butt;stroke-linejoin:miter"
         id="rect35" /><rect
         x="11.307"
         y="108.878"
         width="130.02"
         height="59.007"
         style="fill:none;stroke:#ffffff;stroke-opacity:0.1;stroke-width:1px;stroke-linecap:butt;stroke-linejoin:miter"
         id="rect36" /><g
         id="g39"
         style="fill:#ffffff"><path
           d="M37.678,308.36l1.748,-0c0.661,-0 1.19,0.159 1.587,0.478c0.397,0.318 0.596,0.757 0.596,1.316c-0,0.563 -0.198,1.012 -0.594,1.347c-0.395,0.336 -0.914,0.504 -1.555,0.504l-0.981,0l-0,2.966l-0.801,0l-0,-6.611Zm0.801,2.975l0.869,0c0.941,0 1.411,-0.378 1.411,-1.134c-0,-0.35 -0.128,-0.632 -0.383,-0.848c-0.256,-0.215 -0.585,-0.323 -0.989,-0.323l-0.908,-0l-0,2.305Z"
           style="fill-rule:nonzero;fill:#ffffff"
           id="path36" /><path
           d="M45.417,308.233c0.772,0 1.36,0.293 1.765,0.879c0.406,0.586 0.608,1.438 0.608,2.556c0,1.112 -0.202,1.962 -0.605,2.549c-0.404,0.587 -0.993,0.881 -1.768,0.881c-0.768,-0 -1.355,-0.293 -1.76,-0.879c-0.405,-0.586 -0.608,-1.436 -0.608,-2.551c-0,-1.115 0.202,-1.967 0.605,-2.554c0.404,-0.587 0.992,-0.881 1.763,-0.881Zm0,6.19c1.016,-0 1.524,-0.918 1.524,-2.755c-0,-1.84 -0.508,-2.76 -1.524,-2.76c-0.495,-0 -0.871,0.238 -1.13,0.715c-0.259,0.476 -0.388,1.158 -0.388,2.045c-0,0.896 0.128,1.58 0.385,2.05c0.258,0.47 0.635,0.705 1.133,0.705Z"
           style="fill-rule:nonzero;fill:#ffffff"
           id="path37" /><path
           d="M53.43,314.971l-3.75,0l-0,-6.611l0.801,-0l-0,5.941l2.949,0l-0,0.67Z"
           style="fill-rule:nonzero;fill:#ffffff"
           id="path38" /><path
           d="M59.992,308.36l-2.153,3.781l0,2.83l-0.796,0l0,-2.83l-2.153,-3.781l0.903,-0l1.646,2.975l1.65,-2.975l0.903,-0Z"
           style="fill-rule:nonzero;fill:#ffffff"
           id="path39" /></g><g
         id="g48"
         style="fill:#ffffff"><path
           d="M62.246,279.435l-0,1.001l-3.004,2.022l0,0.889l3.004,-0l-0,0.8l-6.612,0l0,-1.948c0,-0.654 0.152,-1.171 0.457,-1.55c0.305,-0.379 0.729,-0.569 1.272,-0.569c0.403,-0 0.762,0.138 1.075,0.415c0.314,0.277 0.528,0.658 0.64,1.143l3.168,-2.203Zm-3.674,3.912l0,-1.011c0,-0.423 -0.11,-0.767 -0.33,-1.03c-0.221,-0.264 -0.498,-0.396 -0.832,-0.396c-0.737,0 -1.106,0.469 -1.106,1.406l0,1.031l2.268,-0Z"
           style="fill-rule:nonzero;fill:#ffffff"
           id="path40" /><path
           d="M62.246,273.425l-0,0.84l-2.315,0.761l-0,2.261l2.315,0.771l-0,0.831l-6.612,-2.251l0,-0.962l6.612,-2.251Zm-2.985,1.831l-2.737,0.903l2.737,0.899l-0,-1.802Z"
           style="fill-rule:nonzero;fill:#ffffff"
           id="path41" /><path
           d="M62.246,268.088l-0,0.888l-5.22,2.471l5.22,0l-0,0.801l-6.612,-0l0,-0.894l5.173,-2.48l-5.173,-0l0,-0.786l6.612,-0Z"
           style="fill-rule:nonzero;fill:#ffffff"
           id="path42" /><path
           d="M55.634,266.144l0,-1.357c0,-0.902 0.295,-1.624 0.883,-2.168c0.589,-0.544 1.397,-0.815 2.425,-0.815c1.05,-0 1.863,0.275 2.439,0.827c0.576,0.552 0.865,1.259 0.865,2.122l-0,1.391l-6.612,0Zm5.942,-0.8l-0,-0.567c-0,-0.654 -0.233,-1.172 -0.699,-1.552c-0.465,-0.381 -1.11,-0.572 -1.935,-0.572c-0.818,0 -1.463,0.191 -1.933,0.574c-0.47,0.382 -0.705,0.899 -0.705,1.55l0,0.567l5.272,-0Z"
           style="fill-rule:nonzero;fill:#ffffff"
           id="path43" /><path
           d="M55.508,258.176c-0,-0.772 0.292,-1.36 0.878,-1.765c0.586,-0.406 1.438,-0.608 2.556,-0.608c1.112,-0 1.962,0.201 2.549,0.605c0.587,0.404 0.881,0.993 0.881,1.768c0,0.768 -0.293,1.355 -0.878,1.76c-0.586,0.405 -1.437,0.608 -2.552,0.608c-1.115,-0 -1.966,-0.202 -2.553,-0.606c-0.588,-0.403 -0.881,-0.991 -0.881,-1.762Zm6.189,-0c0,-1.016 -0.918,-1.524 -2.755,-1.524c-1.84,0 -2.76,0.508 -2.76,1.524c0,0.494 0.239,0.871 0.715,1.13c0.476,0.259 1.158,0.388 2.045,0.388c0.897,0 1.58,-0.128 2.05,-0.386c0.47,-0.257 0.705,-0.634 0.705,-1.132Z"
           style="fill-rule:nonzero;fill:#ffffff"
           id="path44" /><path
           d="M62.246,249.943l-0,0.772l-5.67,-0l2.713,1.04l-0,0.757l-2.713,1.04l5.67,-0l-0,0.771l-6.612,0l0,-1.04l3.013,-1.152l-3.013,-1.148l0,-1.04l6.612,0Z"
           style="fill-rule:nonzero;fill:#ffffff"
           id="path45" /><path
           d="M62.246,244.631l-0,3.13l-0.67,-0l-0,-1.187l-5.272,0l0,1.187l-0.67,-0l0,-3.13l0.67,-0l0,1.142l5.272,0l-0,-1.142l0.67,-0Z"
           style="fill-rule:nonzero;fill:#ffffff"
           id="path46" /><path
           d="M56.182,238.083l5.394,3.276l-0,-3.217l0.67,-0l-0,4.13l-0.539,0l-5.403,-3.261l0,3.12l-0.67,-0l0,-4.048l0.548,-0Z"
           style="fill-rule:nonzero;fill:#ffffff"
           id="path47" /><path
           d="M62.246,232.311l-0,3.599l-6.612,0l0,-3.569l0.67,-0l0,2.768l2.048,0l-0,-2.661l0.67,0l-0,2.661l2.554,0l-0,-2.798l0.67,0Z"
           style="fill-rule:nonzero;fill:#ffffff"
           id="path48" /></g><path
         d="M26.424,195.252l-0,-18.968l104.323,0l0,18.968"
         style="fill:none;stroke:#ffffff;stroke-opacity:0.1;stroke-width:1px;stroke-linecap:butt;stroke-linejoin:miter"
         id="path49" /><g
         id="g56"
         style="stroke:none"><rect
           x="59.792"
           y="170.884"
           width="42.007"
           height="10.796"
           style="fill:#080033;fill-rule:nonzero;stroke:none;fill-opacity:1"
           id="rect49" /><path
           d="M62.78,172.852c0.772,0 1.36,0.293 1.765,0.879c0.406,0.585 0.608,1.437 0.608,2.556c0,1.112 -0.202,1.961 -0.605,2.549c-0.404,0.587 -0.993,0.881 -1.768,0.881c-0.768,-0 -1.355,-0.293 -1.76,-0.879c-0.405,-0.586 -0.608,-1.436 -0.608,-2.551c0,-1.116 0.202,-1.967 0.605,-2.554c0.404,-0.587 0.992,-0.881 1.763,-0.881Zm0,6.19c1.016,-0 1.524,-0.919 1.524,-2.755c-0,-1.84 -0.508,-2.76 -1.524,-2.76c-0.495,-0 -0.871,0.238 -1.13,0.714c-0.259,0.477 -0.388,1.159 -0.388,2.046c-0,0.896 0.128,1.579 0.385,2.05c0.258,0.47 0.635,0.705 1.133,0.705Z"
           style="fill-rule:nonzero;stroke:none;fill:#ffffff"
           id="path50" /><path
           d="M71.022,179.178c-0.54,0.359 -1.167,0.539 -1.88,0.539c-0.891,-0 -1.569,-0.294 -2.033,-0.881c-0.464,-0.588 -0.696,-1.437 -0.696,-2.549c-0,-1.075 0.225,-1.916 0.674,-2.524c0.449,-0.607 1.134,-0.911 2.055,-0.911c0.333,0 0.661,0.041 0.987,0.122c0.325,0.081 0.587,0.189 0.786,0.323l-0.264,0.605c-0.459,-0.25 -0.962,-0.375 -1.509,-0.375c-0.634,-0 -1.106,0.221 -1.416,0.663c-0.309,0.442 -0.463,1.141 -0.463,2.097c-0,1.836 0.626,2.755 1.879,2.755c0.531,-0 1.075,-0.156 1.631,-0.469l0.249,0.605Z"
           style="fill-rule:nonzero;stroke:none;fill:#ffffff"
           id="path51" /><path
           d="M77.326,173.602l-2.124,-0l0,5.988l-0.796,0l0,-5.988l-2.134,-0l0,-0.623l5.054,-0l0,0.623Z"
           style="fill-rule:nonzero;stroke:none;fill:#ffffff"
           id="path52" /><path
           d="M83.537,179.59l-0.84,0l-0.762,-2.315l-2.26,0l-0.772,2.315l-0.83,0l2.251,-6.611l0.962,-0l2.251,6.611Zm-1.831,-2.985l-0.903,-2.736l-0.899,2.736l1.802,0Z"
           style="fill-rule:nonzero;stroke:none;fill:#ffffff"
           id="path53" /><path
           d="M89.514,172.979l-2.247,6.611l-0.961,0l-2.251,-6.611l0.839,-0l1.89,5.721l1.899,-5.721l0.831,-0Z"
           style="fill-rule:nonzero;stroke:none;fill:#ffffff"
           id="path54" /><path
           d="M94.645,179.59l-3.598,0l-0,-6.611l3.569,-0l0,0.67l-2.768,-0l-0,2.047l2.661,0l-0,0.67l-2.661,0l-0,2.554l2.797,-0l0,0.67Z"
           style="fill-rule:nonzero;stroke:none;fill:#ffffff"
           id="path55" /><path
           d="M100.266,173.71c-0.411,-0.135 -0.8,-0.202 -1.167,-0.202c-0.417,0 -0.756,0.091 -1.019,0.274c-0.262,0.183 -0.393,0.443 -0.393,0.78c0,0.4 0.344,0.752 1.031,1.055c0.507,0.225 0.844,0.381 1.008,0.468c0.164,0.088 0.331,0.208 0.5,0.361c0.17,0.153 0.306,0.333 0.408,0.541c0.103,0.208 0.154,0.441 0.154,0.701c-0,0.643 -0.225,1.142 -0.676,1.497c-0.451,0.354 -0.983,0.532 -1.595,0.532c-0.592,-0 -1.111,-0.113 -1.557,-0.338l0.166,-0.661c0.524,0.229 0.981,0.343 1.372,0.343c0.456,-0 0.821,-0.114 1.096,-0.34c0.275,-0.227 0.413,-0.538 0.413,-0.935c-0,-0.294 -0.09,-0.543 -0.269,-0.747c-0.179,-0.205 -0.509,-0.413 -0.991,-0.626c-0.495,-0.219 -0.815,-0.368 -0.959,-0.447c-0.145,-0.08 -0.289,-0.19 -0.433,-0.331c-0.143,-0.14 -0.254,-0.298 -0.332,-0.473c-0.078,-0.175 -0.117,-0.365 -0.117,-0.572c0,-0.546 0.205,-0.973 0.615,-1.279c0.411,-0.306 0.93,-0.459 1.558,-0.459c0.459,0 0.915,0.067 1.367,0.202l-0.18,0.656Z"
           style="fill-rule:nonzero;stroke:none;fill:#ffffff"
           id="path56" /></g><g
         id="g59"
         style="fill:#ffffff"><path
           d="M118.78,240.704l1.457,0c0.551,0 0.992,0.133 1.323,0.399c0.331,0.265 0.497,0.631 0.497,1.097c-0,0.469 -0.165,0.844 -0.495,1.123c-0.329,0.28 -0.762,0.42 -1.296,0.42l-0.818,0l-0,2.473l-0.668,0l0,-5.512Zm0.668,2.481l0.724,-0c0.784,-0 1.177,-0.315 1.177,-0.946c-0,-0.291 -0.107,-0.527 -0.32,-0.707c-0.213,-0.179 -0.488,-0.269 -0.824,-0.269l-0.757,-0l-0,1.922Z"
           style="fill-rule:nonzero;fill:#ffffff"
           id="path57" /><path
           d="M125.232,240.599c0.643,-0 1.134,0.244 1.471,0.732c0.338,0.489 0.507,1.199 0.507,2.131c0,0.927 -0.168,1.636 -0.504,2.125c-0.337,0.49 -0.828,0.735 -1.474,0.735c-0.64,-0 -1.13,-0.245 -1.467,-0.733c-0.338,-0.488 -0.507,-1.197 -0.507,-2.127c-0,-0.93 0.168,-1.639 0.504,-2.129c0.337,-0.489 0.827,-0.734 1.47,-0.734Zm-0,5.16c0.847,0 1.27,-0.766 1.27,-2.297c0,-1.534 -0.423,-2.301 -1.27,-2.301c-0.413,0 -0.727,0.199 -0.942,0.596c-0.216,0.397 -0.324,0.966 -0.324,1.705c0,0.748 0.107,1.317 0.322,1.709c0.214,0.392 0.529,0.588 0.944,0.588Z"
           style="fill-rule:nonzero;fill:#ffffff"
           id="path58" /><path
           d="M131.468,241.314c-0.342,-0.112 -0.666,-0.168 -0.973,-0.168c-0.347,-0 -0.63,0.076 -0.848,0.228c-0.219,0.153 -0.328,0.369 -0.328,0.651c-0,0.333 0.286,0.626 0.859,0.879c0.423,0.187 0.703,0.317 0.84,0.39c0.137,0.073 0.276,0.173 0.418,0.301c0.141,0.128 0.254,0.278 0.339,0.451c0.086,0.173 0.129,0.368 0.129,0.584c-0,0.537 -0.188,0.953 -0.564,1.248c-0.376,0.296 -0.819,0.444 -1.329,0.444c-0.494,-0 -0.927,-0.094 -1.299,-0.282l0.139,-0.551c0.437,0.191 0.818,0.286 1.144,0.286c0.38,-0 0.684,-0.095 0.913,-0.284c0.23,-0.188 0.344,-0.448 0.344,-0.779c0,-0.245 -0.074,-0.452 -0.223,-0.623c-0.15,-0.17 -0.425,-0.344 -0.827,-0.521c-0.412,-0.183 -0.679,-0.307 -0.8,-0.373c-0.12,-0.067 -0.241,-0.159 -0.36,-0.276c-0.119,-0.117 -0.212,-0.249 -0.277,-0.394c-0.065,-0.146 -0.097,-0.305 -0.097,-0.477c-0,-0.456 0.171,-0.811 0.512,-1.066c0.342,-0.256 0.775,-0.383 1.299,-0.383c0.383,-0 0.763,0.056 1.14,0.168l-0.151,0.547Z"
           style="fill-rule:nonzero;fill:#ffffff"
           id="path59" /></g><g
         id="logo"><g
           id="g61"><circle
             cx="123.176"
             cy="336.934"
             r="1.627"
             style="fill:#8000db;"
             id="circle59" /><path
             d="M123.176,336.934l5.554,-0"
             style="fill:none;stroke:#8000db;stroke-width:1.35px;stroke-linecap:butt;stroke-linejoin:miter;"
             id="path60" /><path
             d="M128.73,334.154c-0,-1.533 -1.245,-2.777 -2.777,-2.777l-5.554,-0c-1.533,-0 -2.777,1.244 -2.777,2.777l-0,5.56c-0,1.533 1.244,2.777 2.777,2.777l5.554,0c1.532,0 2.777,-1.244 2.777,-2.777l-0,-5.56Z"
             style="fill:none;stroke:#8000db;stroke-width:1.35px;stroke-linecap:butt;stroke-miterlimit:3;"
             id="path61" /></g><g
           id="g62"><circle
             cx="135.773"
             cy="349.051"
             r="1.627"
             style="fill:#f00;"
             id="circle61" /><path
             d="M138.55,343.494l-5.554,-0c-1.532,-0 -2.776,0.802 -2.776,1.789l-0,7.536c-0,0.987 1.244,1.789 2.776,1.789l5.554,0c1.533,0 2.777,-0.802 2.777,-1.789l0,-3.768l-5.554,0"
             style="fill:none;stroke:#f00;stroke-width:1.35px;stroke-miterlimit:3;"
             id="path62" /></g><g
           id="g63"><circle
             cx="135.773"
             cy="336.934"
             r="1.627"
             style="fill:#2600ff;"
             id="circle62" /><path
             d="M141.327,342.491l0,-8.981c0,-1.178 -1.244,-2.133 -2.777,-2.133l-5.554,-0c-1.532,-0 -2.776,0.955 -2.776,2.133l-0,8.981"
             style="fill:none;stroke:#2600ff;stroke-width:1.35px;stroke-miterlimit:3;"
             id="path63" /></g><g
           id="g64"><circle
             cx="123.172"
             cy="349.051"
             r="1.627"
             style="fill:#0ef;"
             id="circle63" /><path
             d="M117.615,354.608l-0,-11.114l11.115,11.114l-0,-11.114"
             style="fill:none;stroke:#0ef;stroke-width:1.35px;"
             id="path64" /></g></g><path
         d="M26.424,90.726l-0,-25.461"
         style="fill:#ffffff;stroke:#ffffff;stroke-width:1px"
         id="path65" /><path
         d="M61.198,90.726l0,-25.461"
         style="fill:#ffffff;stroke:#ffffff;stroke-width:1px"
         id="path66" /><g
         id="g71"
         style="fill:#ffffff"><path
           d="M95.444,94.032l-1.001,-0l-2.022,-3.004l-0.889,0l0,3.004l-0.8,-0l-0,-6.612l1.948,0c0.654,0 1.171,0.152 1.55,0.457c0.379,0.304 0.569,0.729 0.569,1.272c0,0.403 -0.138,0.761 -0.415,1.075c-0.277,0.314 -0.658,0.528 -1.143,0.64l2.203,3.168Zm-3.912,-3.674l1.011,-0c0.423,-0 0.767,-0.11 1.03,-0.33c0.264,-0.221 0.396,-0.498 0.396,-0.832c-0,-0.737 -0.469,-1.106 -1.406,-1.106l-1.031,0l0,2.268Z"
           style="fill-rule:nonzero;fill:#ffffff"
           id="path67" /><path
           d="M100.561,94.032l-3.599,-0l0,-6.612l3.569,0l0,0.67l-2.768,0l-0,2.048l2.661,-0l0,0.67l-2.661,-0l-0,2.553l2.798,0l-0,0.671Z"
           style="fill-rule:nonzero;fill:#ffffff"
           id="path68" /><path
           d="M106.181,88.151c-0.41,-0.134 -0.799,-0.201 -1.167,-0.201c-0.417,-0 -0.756,0.091 -1.018,0.274c-0.262,0.182 -0.393,0.442 -0.393,0.78c-0,0.4 0.343,0.751 1.03,1.054c0.508,0.225 0.844,0.381 1.008,0.469c0.165,0.087 0.332,0.207 0.501,0.36c0.169,0.154 0.305,0.334 0.407,0.542c0.103,0.207 0.154,0.441 0.154,0.7c0,0.644 -0.225,1.143 -0.676,1.497c-0.451,0.355 -0.982,0.532 -1.594,0.532c-0.593,0 -1.112,-0.112 -1.558,-0.337l0.166,-0.661c0.524,0.228 0.982,0.342 1.372,0.342c0.456,0 0.821,-0.113 1.096,-0.34c0.276,-0.226 0.413,-0.538 0.413,-0.934c0,-0.294 -0.089,-0.543 -0.268,-0.748c-0.18,-0.204 -0.51,-0.413 -0.992,-0.625c-0.495,-0.219 -0.814,-0.368 -0.959,-0.448c-0.145,-0.079 -0.289,-0.19 -0.432,-0.33c-0.144,-0.141 -0.254,-0.298 -0.332,-0.473c-0.078,-0.175 -0.118,-0.366 -0.118,-0.572c0,-0.547 0.206,-0.973 0.616,-1.279c0.41,-0.306 0.929,-0.459 1.557,-0.459c0.459,-0 0.915,0.067 1.368,0.201l-0.181,0.656Z"
           style="fill-rule:nonzero;fill:#ffffff"
           id="path69" /><path
           d="M112.563,94.032l-3.599,-0l0,-6.612l3.569,0l0,0.67l-2.768,0l-0,2.048l2.661,-0l-0,0.67l-2.661,-0l-0,2.553l2.798,0l-0,0.671Z"
           style="fill-rule:nonzero;fill:#ffffff"
           id="path70" /><path
           d="M119.247,88.043l-2.124,0l0,5.989l-0.796,-0l0,-5.989l-2.133,0l-0,-0.623l5.053,0l0,0.623Z"
           style="fill-rule:nonzero;fill:#ffffff"
           id="path71" /></g><g
         id="Andromeda"><g
           id="g72"><circle
             cx="188.424"
             cy="124.578"
             r="11.644"
             style="fill:#fff;fill-opacity:0.35;"
             id="circle71" /><circle
             cx="188.424"
             cy="124.578"
             r="2.386"
             style="fill:#fff;"
             id="circle72" /></g><g
           id="g74"><circle
             cx="303.797"
             cy="94.14"
             r="7.257"
             style="fill:#fff;fill-opacity:0.35;"
             id="circle73" /><circle
             cx="303.797"
             cy="94.14"
             r="2.436"
             style="fill:#fff;"
             id="circle74" /></g><g
           id="g76"><circle
             cx="364.075"
             cy="201.883"
             r="7.243"
             style="fill:#fff;fill-opacity:0.35;"
             id="circle75" /><circle
             cx="364.075"
             cy="201.883"
             r="2.502"
             style="fill:#fff;"
             id="circle76" /></g><g
           id="g78"><circle
             cx="326.555"
             cy="241.935"
             r="11.826"
             style="fill:#fff;fill-opacity:0.35;"
             id="circle77" /><circle
             cx="326.555"
             cy="241.935"
             r="2.476"
             style="fill:#fff;"
             id="circle78" /></g><g
           id="g80"><circle
             cx="421.064"
             cy="269.63"
             r="9.523"
             style="fill:#fff;fill-opacity:0.35;"
             id="circle79" /><circle
             cx="421.064"
             cy="269.63"
             r="2.329"
             style="fill:#fff;"
             id="circle80" /></g><g
           id="g82"><circle
             cx="417.619"
             cy="310.516"
             r="10.384"
             style="fill:#fff;fill-opacity:0.35;"
             id="circle81" /><circle
             cx="417.619"
             cy="310.516"
             r="2.342"
             style="fill:#fff;"
             id="circle82" /></g><g
           id="g84"><circle
             cx="286.07"
             cy="71.453"
             r="7.325"
             style="fill:#fff;fill-opacity:0.35;"
             id="circle83" /><circle
             cx="286.07"
             cy="71.453"
             r="2.432"
             style="fill:#fff;"
             id="circle84" /></g><g
           id="g86"><circle
             cx="269.831"
             cy="47.521"
             r="9.447"
             style="fill:#fff;fill-opacity:0.35;"
             id="circle85" /><circle
             cx="269.831"
             cy="47.521"
             r="2.368"
             style="fill:#fff;"
             id="circle86" /></g><g
           id="g88"><circle
             cx="514.791"
             cy="333.486"
             r="11.412"
             style="fill:#fff;fill-opacity:0.35;"
             id="circle87" /><circle
             cx="514.791"
             cy="333.486"
             r="2.451"
             style="fill:#fff;"
             id="circle88" /></g></g><g
         id="g91"
         style="fill:#ffffff"><path
           d="M121.581,270.571c-0.342,-0.112 -0.667,-0.168 -0.973,-0.168c-0.348,0 -0.631,0.077 -0.849,0.229c-0.218,0.152 -0.328,0.369 -0.328,0.65c0,0.334 0.287,0.627 0.859,0.879c0.424,0.188 0.704,0.318 0.841,0.391c0.137,0.073 0.276,0.173 0.417,0.301c0.141,0.127 0.254,0.278 0.34,0.451c0.085,0.173 0.128,0.368 0.128,0.584c0,0.536 -0.188,0.952 -0.564,1.248c-0.375,0.295 -0.818,0.443 -1.329,0.443c-0.494,0 -0.926,-0.094 -1.298,-0.281l0.138,-0.551c0.437,0.19 0.818,0.285 1.144,0.285c0.38,0 0.685,-0.094 0.914,-0.283c0.229,-0.189 0.344,-0.448 0.344,-0.779c-0,-0.245 -0.075,-0.453 -0.224,-0.623c-0.149,-0.171 -0.425,-0.345 -0.826,-0.522c-0.413,-0.182 -0.679,-0.306 -0.8,-0.373c-0.121,-0.066 -0.241,-0.158 -0.36,-0.275c-0.12,-0.117 -0.212,-0.249 -0.277,-0.395c-0.065,-0.146 -0.098,-0.304 -0.098,-0.476c0,-0.456 0.171,-0.811 0.513,-1.067c0.342,-0.255 0.775,-0.382 1.298,-0.382c0.383,-0 0.763,0.056 1.14,0.167l-0.15,0.547Z"
           style="fill-rule:nonzero;fill:#ffffff"
           id="path88" /><path
           d="M126.636,275.474l-2.609,-0l0,-0.559l0.989,0l0,-4.394l-0.989,-0l0,-0.559l2.609,-0l0,0.559l-0.952,-0l-0,4.394l0.952,0l0,0.559Z"
           style="fill-rule:nonzero;fill:#ffffff"
           id="path89" /><path
           d="M132.095,270.419l-2.731,4.496l2.682,0l0,0.559l-3.444,-0l0,-0.45l2.72,-4.503l-2.602,-0l0,-0.559l3.375,-0l0,0.457Z"
           style="fill-rule:nonzero;fill:#ffffff"
           id="path90" /><path
           d="M136.907,275.474l-3.001,-0l0,-5.512l2.976,-0l0,0.559l-2.308,-0l0,1.707l2.219,-0l-0,0.558l-2.219,0l0,2.129l2.333,0l-0,0.559Z"
           style="fill-rule:nonzero;fill:#ffffff"
           id="path91" /></g><g
         id="g95"
         style="fill:#ffffff"><path
           d="M25.804,320.272l-2.124,-0l-0,5.988l-0.796,-0l-0,-5.988l-2.134,-0l0,-0.623l5.054,-0l-0,0.623Z"
           style="fill-rule:nonzero;fill:#ffffff"
           id="path92" /><path
           d="M32.005,326.26l-1.001,-0l-2.022,-3.004l-0.888,0l-0,3.004l-0.801,-0l0,-6.611l1.948,-0c0.655,-0 1.171,0.152 1.551,0.456c0.379,0.305 0.568,0.729 0.568,1.273c0,0.402 -0.138,0.761 -0.415,1.075c-0.276,0.314 -0.657,0.527 -1.142,0.639l2.202,3.168Zm-3.911,-3.674l1.011,0c0.423,0 0.766,-0.11 1.03,-0.33c0.263,-0.22 0.395,-0.497 0.395,-0.832c0,-0.737 -0.468,-1.105 -1.406,-1.105l-1.03,-0l-0,2.267Z"
           style="fill-rule:nonzero;fill:#ffffff"
           id="path93" /><path
           d="M36.805,326.26l-3.13,-0l-0,-0.67l1.186,-0l0,-5.271l-1.186,-0l-0,-0.67l3.13,-0l-0,0.67l-1.143,-0l0,5.271l1.143,-0l-0,0.67Z"
           style="fill-rule:nonzero;fill:#ffffff"
           id="path94" /><path
           d="M43.494,325.791c-0.563,0.397 -1.186,0.595 -1.87,0.595c-0.895,0 -1.574,-0.291 -2.036,-0.873c-0.462,-0.583 -0.693,-1.435 -0.693,-2.556c-0,-1.084 0.223,-1.928 0.671,-2.531c0.448,-0.603 1.134,-0.904 2.058,-0.904c0.332,0 0.661,0.041 0.986,0.122c0.326,0.081 0.588,0.189 0.787,0.323l-0.264,0.605c-0.459,-0.25 -0.962,-0.375 -1.509,-0.375c-0.631,-0 -1.103,0.222 -1.413,0.665c-0.311,0.444 -0.467,1.142 -0.467,2.095c0,1.836 0.627,2.755 1.88,2.755c0.472,-0 0.829,-0.096 1.069,-0.286l0,-1.631l-1.24,0l0,-0.665l2.041,-0l0,2.661Z"
           style="fill-rule:nonzero;fill:#ffffff"
           id="path95" /></g><g
         id="g98"
         style="fill:#ffffff"><path
           d="M112.01,114.393l1.457,-0c0.551,-0 0.992,0.132 1.323,0.398c0.331,0.266 0.496,0.632 0.496,1.098c0,0.468 -0.164,0.843 -0.494,1.123c-0.33,0.28 -0.762,0.42 -1.297,0.42l-0.818,-0l0,2.472l-0.667,0l-0,-5.511Zm0.667,2.48l0.725,0c0.784,0 1.176,-0.315 1.176,-0.945c0,-0.292 -0.106,-0.528 -0.319,-0.707c-0.213,-0.18 -0.488,-0.27 -0.825,-0.27l-0.757,0l0,1.922Z"
           style="fill-rule:nonzero;fill:#ffffff"
           id="path96" /><path
           d="M118.461,114.287c0.644,0 1.134,0.244 1.472,0.733c0.338,0.488 0.507,1.198 0.507,2.13c-0,0.927 -0.168,1.636 -0.505,2.125c-0.336,0.49 -0.828,0.735 -1.474,0.735c-0.64,-0 -1.129,-0.244 -1.467,-0.733c-0.338,-0.488 -0.507,-1.197 -0.507,-2.127c0,-0.929 0.168,-1.639 0.505,-2.129c0.336,-0.489 0.826,-0.734 1.469,-0.734Zm0,5.16c0.847,0 1.27,-0.765 1.27,-2.297c0,-1.533 -0.423,-2.3 -1.27,-2.3c-0.412,-0 -0.726,0.198 -0.942,0.595c-0.216,0.397 -0.324,0.966 -0.324,1.705c0,0.748 0.108,1.317 0.322,1.709c0.214,0.392 0.529,0.588 0.944,0.588Z"
           style="fill-rule:nonzero;fill:#ffffff"
           id="path97" /><path
           d="M124.698,115.002c-0.342,-0.112 -0.667,-0.168 -0.973,-0.168c-0.348,-0 -0.63,0.076 -0.849,0.228c-0.218,0.153 -0.328,0.37 -0.328,0.651c0,0.333 0.287,0.626 0.859,0.879c0.424,0.187 0.704,0.317 0.841,0.39c0.137,0.073 0.276,0.174 0.417,0.301c0.141,0.128 0.255,0.278 0.34,0.451c0.085,0.174 0.128,0.368 0.128,0.584c0,0.537 -0.188,0.953 -0.564,1.248c-0.375,0.296 -0.818,0.444 -1.329,0.444c-0.494,-0 -0.926,-0.094 -1.298,-0.282l0.138,-0.55c0.437,0.19 0.818,0.285 1.144,0.285c0.38,-0 0.685,-0.095 0.914,-0.283c0.229,-0.189 0.344,-0.449 0.344,-0.78c-0,-0.244 -0.075,-0.452 -0.224,-0.623c-0.149,-0.17 -0.425,-0.344 -0.826,-0.521c-0.413,-0.182 -0.679,-0.307 -0.8,-0.373c-0.121,-0.067 -0.241,-0.158 -0.36,-0.276c-0.12,-0.117 -0.212,-0.248 -0.277,-0.394c-0.065,-0.146 -0.098,-0.305 -0.098,-0.477c0,-0.455 0.171,-0.811 0.513,-1.066c0.342,-0.255 0.775,-0.383 1.298,-0.383c0.383,0 0.763,0.056 1.14,0.168l-0.15,0.547Z"
           style="fill-rule:nonzero;fill:#ffffff"
           id="path98" /></g><g
         id="g102"
         style="fill:#ffffff"><path
           d="M114.81,126.279c-0.342,-0.112 -0.666,-0.168 -0.973,-0.168c-0.347,0 -0.63,0.076 -0.848,0.229c-0.219,0.152 -0.328,0.369 -0.328,0.65c-0,0.334 0.286,0.627 0.859,0.879c0.423,0.188 0.703,0.318 0.84,0.391c0.137,0.073 0.276,0.173 0.418,0.301c0.141,0.127 0.254,0.278 0.339,0.451c0.086,0.173 0.129,0.368 0.129,0.584c-0,0.536 -0.188,0.952 -0.564,1.248c-0.376,0.295 -0.819,0.443 -1.329,0.443c-0.494,0 -0.927,-0.094 -1.299,-0.281l0.139,-0.551c0.437,0.19 0.818,0.285 1.144,0.285c0.379,0 0.684,-0.094 0.913,-0.283c0.23,-0.189 0.344,-0.449 0.344,-0.779c0,-0.245 -0.074,-0.453 -0.224,-0.623c-0.149,-0.171 -0.424,-0.345 -0.826,-0.522c-0.412,-0.182 -0.679,-0.306 -0.8,-0.373c-0.12,-0.066 -0.241,-0.158 -0.36,-0.275c-0.119,-0.117 -0.212,-0.249 -0.277,-0.395c-0.065,-0.146 -0.097,-0.304 -0.097,-0.476c-0,-0.456 0.17,-0.812 0.512,-1.067c0.342,-0.255 0.775,-0.383 1.299,-0.383c0.383,0 0.763,0.056 1.14,0.168l-0.151,0.547Z"
           style="fill-rule:nonzero;fill:#ffffff"
           id="path99" /><path
           d="M119.866,131.182l-2.609,-0l-0,-0.559l0.989,0l-0,-4.395l-0.989,0l-0,-0.558l2.609,-0l-0,0.558l-0.953,0l0,4.395l0.953,0l-0,0.559Z"
           style="fill-rule:nonzero;fill:#ffffff"
           id="path100" /><path
           d="M125.325,126.127l-2.732,4.496l2.683,0l-0,0.559l-3.444,-0l-0,-0.45l2.719,-4.504l-2.601,0l-0,-0.558l3.375,-0l-0,0.457Z"
           style="fill-rule:nonzero;fill:#ffffff"
           id="path101" /><path
           d="M130.136,131.182l-3,-0l-0,-5.512l2.976,-0l-0,0.558l-2.308,0l-0,1.708l2.218,-0l0,0.558l-2.218,0l-0,2.129l2.332,0l0,0.559Z"
           style="fill-rule:nonzero;fill:#ffffff"
           id="path102" /></g></g></g></svg>
