<?xml version="1.0" encoding="UTF-8" standalone="no"?><!DOCTYPE svg PUBLIC "-//W3C//DTD SVG 1.1//EN" "http://www.w3.org/Graphics/SVG/1.1/DTD/svg11.dtd"><svg width="100%" height="100%" viewBox="0 0 540 380" version="1.1" xmlns="http://www.w3.org/2000/svg" xmlns:xlink="http://www.w3.org/1999/xlink" xml:space="preserve" xmlns:serif="http://www.serif.com/" style="fill-rule:evenodd;clip-rule:evenodd;stroke-linecap:round;stroke-linejoin:round;stroke-miterlimit:1.5;"><rect id="Cosmosis" x="0" y="0" width="540" height="379.559" style="fill:none;"/><clipPath id="_clip1"><rect x="0" y="0" width="540" height="379.559"/></clipPath><g clip-path="url(#_clip1)"><g id="Layer1"><rect id="background" x="-9.15" y="-7.016" width="557.155" height="393.592" style="fill:#e6e6e6;"/><path d="M548.005,-7.016l-557.155,-0l-0,393.591l557.155,0l-0,-393.591Zm-556.155,1l-0,391.591l555.155,0l-0,-391.591l-555.155,-0Z" style="fill:#646464;"/><rect id="rect" x="161.2" y="0.78" width="378" height="378" style="fill:#333;"/><rect x="11.307" y="175.39" width="73.932" height="183.181" style="fill:#282828;fill-opacity:0.1;"/><g><path d="M39.452,27.778c-1.2,0.748 -2.591,1.123 -4.173,1.123c-1.98,-0 -3.485,-0.612 -4.515,-1.836c-1.03,-1.224 -1.545,-2.995 -1.545,-5.313c0,-2.239 0.499,-3.992 1.496,-5.259c0.997,-1.266 2.518,-1.899 4.564,-1.899c0.737,-0 1.467,0.085 2.189,0.254c0.723,0.169 1.305,0.394 1.745,0.674l-0.585,1.259c-1.019,-0.52 -2.135,-0.781 -3.349,-0.781c-1.41,0 -2.457,0.461 -3.144,1.382c-0.686,0.921 -1.03,2.378 -1.03,4.37c0,3.828 1.391,5.742 4.174,5.742c1.178,0 2.384,-0.325 3.62,-0.976l0.553,1.26Z" style="fill:#2600ff;fill-rule:nonzero;"/><path d="M64.34,19.916c-0.946,-0.28 -1.839,-0.42 -2.677,-0.42c-0.918,0 -1.644,0.139 -2.179,0.415c-0.535,0.277 -0.802,0.647 -0.802,1.109c-0,0.293 0.123,0.548 0.368,0.766c0.246,0.218 0.737,0.422 1.475,0.611l1.615,0.42c0.744,0.188 1.351,0.415 1.821,0.678c0.47,0.264 0.822,0.583 1.057,0.957c0.235,0.375 0.352,0.809 0.352,1.304c0,0.97 -0.452,1.737 -1.355,2.3c-0.903,0.563 -2.052,0.845 -3.447,0.845c-1.388,-0 -2.533,-0.189 -3.436,-0.567l0.325,-1.318c0.947,0.404 1.962,0.605 3.046,0.605c0.939,0 1.704,-0.158 2.293,-0.473c0.589,-0.316 0.883,-0.734 0.883,-1.255c0,-0.352 -0.146,-0.666 -0.439,-0.943c-0.293,-0.276 -0.981,-0.564 -2.065,-0.864c-0.874,-0.241 -1.518,-0.421 -1.929,-0.542c-0.412,-0.12 -0.795,-0.298 -1.15,-0.532c-0.354,-0.234 -0.623,-0.514 -0.807,-0.84c-0.184,-0.325 -0.276,-0.69 -0.276,-1.094c-0,-0.879 0.426,-1.575 1.279,-2.089c0.852,-0.515 1.983,-0.772 3.392,-0.772c0.911,0 1.923,0.14 3.036,0.42l-0.38,1.279Z" style="fill:#2600ff;fill-rule:nonzero;"/><path d="M79.733,28.637l-1.691,-0l-0,-6.68c-0,-1.614 -0.333,-2.422 -0.997,-2.422c-0.34,0 -0.714,0.279 -1.122,0.835c-0.409,0.557 -0.613,0.865 -0.613,0.923l0,7.344l-1.68,-0l-0,-6.68c-0,-1.614 -0.336,-2.422 -1.008,-2.422c-0.333,0 -0.703,0.279 -1.111,0.835c-0.409,0.557 -0.613,0.865 -0.613,0.923l0,7.344l-1.691,-0l0,-10.176l1.626,0l0,1.533c0.318,-0.54 0.696,-0.971 1.133,-1.294c0.437,-0.322 0.873,-0.483 1.306,-0.483c0.456,0 0.864,0.161 1.225,0.483c0.361,0.323 0.611,0.754 0.748,1.294c0.318,-0.54 0.697,-0.971 1.138,-1.294c0.441,-0.322 0.875,-0.483 1.301,-0.483c1.366,0 2.049,1.1 2.049,3.301l-0,7.119Z" style="fill:#2600ff;fill-rule:nonzero;"/><path d="M87.787,18.217c1.554,0 2.789,0.488 3.707,1.465c0.918,0.976 1.377,2.262 1.377,3.857c-0,1.608 -0.459,2.904 -1.377,3.887c-0.918,0.983 -2.153,1.475 -3.707,1.475c-1.561,-0 -2.799,-0.49 -3.713,-1.47c-0.914,-0.98 -1.371,-2.277 -1.371,-3.892c-0,-1.601 0.459,-2.889 1.377,-3.862c0.917,-0.973 2.153,-1.46 3.707,-1.46Zm-0,9.355c1.026,0 1.835,-0.39 2.428,-1.171c0.593,-0.782 0.889,-1.729 0.889,-2.842c-0,-1.172 -0.293,-2.136 -0.878,-2.891c-0.586,-0.755 -1.399,-1.133 -2.439,-1.133c-1.048,0 -1.861,0.373 -2.439,1.119c-0.578,0.745 -0.867,1.713 -0.867,2.905c-0,1.133 0.292,2.085 0.878,2.856c0.585,0.772 1.394,1.157 2.428,1.157Z" style="fill:#2600ff;fill-rule:nonzero;"/><path d="M104.307,19.916c-0.947,-0.28 -1.839,-0.42 -2.678,-0.42c-0.917,0 -1.644,0.139 -2.179,0.415c-0.534,0.277 -0.802,0.647 -0.802,1.109c0,0.293 0.123,0.548 0.369,0.766c0.246,0.218 0.737,0.422 1.474,0.611l1.615,0.42c0.745,0.188 1.352,0.415 1.821,0.678c0.47,0.264 0.822,0.583 1.057,0.957c0.235,0.375 0.353,0.809 0.353,1.304c-0,0.97 -0.452,1.737 -1.355,2.3c-0.904,0.563 -2.053,0.845 -3.448,0.845c-1.387,-0 -2.532,-0.189 -3.436,-0.567l0.325,-1.318c0.947,0.404 1.962,0.605 3.046,0.605c0.94,0 1.704,-0.158 2.293,-0.473c0.589,-0.316 0.884,-0.734 0.884,-1.255c-0,-0.352 -0.147,-0.666 -0.44,-0.943c-0.292,-0.276 -0.981,-0.564 -2.064,-0.864c-0.875,-0.241 -1.518,-0.421 -1.93,-0.542c-0.412,-0.12 -0.795,-0.298 -1.149,-0.532c-0.354,-0.234 -0.623,-0.514 -0.808,-0.84c-0.184,-0.325 -0.276,-0.69 -0.276,-1.094c0,-0.879 0.426,-1.575 1.279,-2.089c0.853,-0.515 1.984,-0.772 3.393,-0.772c0.911,0 1.922,0.14 3.035,0.42l-0.379,1.279Z" style="fill:#2600ff;fill-rule:nonzero;"/><path d="M115.168,14.614c0.318,-0 0.589,0.102 0.813,0.307c0.224,0.205 0.336,0.451 0.336,0.737c0,0.3 -0.11,0.551 -0.33,0.752c-0.221,0.202 -0.494,0.303 -0.819,0.303c-0.296,0 -0.558,-0.106 -0.786,-0.317c-0.227,-0.212 -0.341,-0.458 -0.341,-0.738c-0,-0.28 0.114,-0.524 0.341,-0.732c0.228,-0.208 0.49,-0.312 0.786,-0.312Zm0.824,14.023l-1.691,-0l0,-8.857l-3.328,-0l0,-1.319l5.019,0l0,10.176Z" style="fill:#2600ff;fill-rule:nonzero;"/><path d="M130.951,19.916c-0.947,-0.28 -1.839,-0.42 -2.677,-0.42c-0.918,0 -1.644,0.139 -2.179,0.415c-0.535,0.277 -0.802,0.647 -0.802,1.109c-0,0.293 0.123,0.548 0.368,0.766c0.246,0.218 0.737,0.422 1.474,0.611l1.616,0.42c0.744,0.188 1.351,0.415 1.821,0.678c0.469,0.264 0.822,0.583 1.057,0.957c0.234,0.375 0.352,0.809 0.352,1.304c-0,0.97 -0.452,1.737 -1.355,2.3c-0.903,0.563 -2.052,0.845 -3.447,0.845c-1.388,-0 -2.533,-0.189 -3.436,-0.567l0.325,-1.318c0.946,0.404 1.962,0.605 3.046,0.605c0.939,0 1.703,-0.158 2.292,-0.473c0.589,-0.316 0.884,-0.734 0.884,-1.255c-0,-0.352 -0.146,-0.666 -0.439,-0.943c-0.293,-0.276 -0.981,-0.564 -2.065,-0.864c-0.875,-0.241 -1.518,-0.421 -1.93,-0.542c-0.412,-0.12 -0.795,-0.298 -1.149,-0.532c-0.354,-0.234 -0.623,-0.514 -0.807,-0.84c-0.185,-0.325 -0.277,-0.69 -0.277,-1.094c0,-0.879 0.427,-1.575 1.279,-2.089c0.853,-0.515 1.984,-0.772 3.393,-0.772c0.911,0 1.923,0.14 3.035,0.42l-0.379,1.279Z" style="fill:#2600ff;fill-rule:nonzero;"/><g id="TinyBlueButton"><circle id="BlueButton" cx="48.274" cy="23.559" r="5.04" style="fill:#fff;stroke:#2600ff;stroke-width:1px;"/><circle id="BlueButton1" serif:id="BlueButton" cx="48.274" cy="23.559" r="3.1" style="fill:#2600ff;"/></g></g><g><path d="M93.902,179.84c0.771,-0 1.36,0.293 1.765,0.878c0.405,0.586 0.608,1.438 0.608,2.556c-0,1.113 -0.202,1.962 -0.606,2.549c-0.403,0.588 -0.992,0.881 -1.767,0.881c-0.768,0 -1.355,-0.292 -1.76,-0.878c-0.406,-0.586 -0.608,-1.436 -0.608,-2.552c-0,-1.115 0.202,-1.966 0.605,-2.553c0.404,-0.587 0.991,-0.881 1.763,-0.881Zm-0,6.19c1.015,-0 1.523,-0.919 1.523,-2.756c0,-1.839 -0.508,-2.759 -1.523,-2.759c-0.495,-0 -0.872,0.238 -1.131,0.714c-0.258,0.477 -0.388,1.158 -0.388,2.045c0,0.897 0.129,1.58 0.386,2.05c0.257,0.471 0.635,0.706 1.133,0.706Z" style="fill-rule:nonzero;"/><path d="M101.993,186.578l-0.889,-0l-2.471,-5.22l0,5.22l-0.8,-0l-0,-6.612l0.893,0l2.481,5.173l-0,-5.173l0.786,0l-0,6.612Z" style="fill-rule:nonzero;"/></g><g><path d="M44.899,326.513l-0.839,-0l-0.762,-2.315l-2.261,0l-0.771,2.315l-0.83,-0l2.251,-6.611l0.961,-0l2.251,6.611Zm-1.831,-2.985l-0.903,-2.736l-0.898,2.736l1.801,0Z" style="fill-rule:nonzero;"/><path d="M50.158,326.513l-3.75,-0l0,-6.611l0.801,-0l-0,5.941l2.949,-0l0,0.67Z" style="fill-rule:nonzero;"/><path d="M56.159,326.513l-3.75,-0l0,-6.611l0.801,-0l-0,5.941l2.949,-0l0,0.67Z" style="fill-rule:nonzero;"/></g><g><path d="M123.272,179.84c0.771,-0 1.36,0.293 1.765,0.878c0.405,0.586 0.608,1.438 0.608,2.556c-0,1.113 -0.202,1.962 -0.606,2.549c-0.403,0.588 -0.993,0.881 -1.767,0.881c-0.769,0 -1.355,-0.292 -1.761,-0.878c-0.405,-0.586 -0.607,-1.436 -0.607,-2.552c-0,-1.115 0.201,-1.966 0.605,-2.553c0.404,-0.587 0.991,-0.881 1.763,-0.881Zm-0,6.19c1.015,-0 1.523,-0.919 1.523,-2.756c0,-1.839 -0.508,-2.759 -1.523,-2.759c-0.495,-0 -0.872,0.238 -1.131,0.714c-0.258,0.477 -0.388,1.158 -0.388,2.045c0,0.897 0.129,1.58 0.386,2.05c0.257,0.471 0.635,0.706 1.133,0.706Z" style="fill-rule:nonzero;"/><path d="M131.514,186.166c-0.54,0.359 -1.167,0.538 -1.88,0.538c-0.892,0 -1.57,-0.293 -2.034,-0.881c-0.464,-0.587 -0.695,-1.436 -0.695,-2.549c-0,-1.074 0.224,-1.915 0.673,-2.523c0.45,-0.607 1.135,-0.911 2.056,-0.911c0.332,-0 0.661,0.04 0.986,0.122c0.326,0.081 0.588,0.189 0.786,0.323l-0.263,0.604c-0.459,-0.249 -0.962,-0.374 -1.509,-0.374c-0.635,-0 -1.107,0.221 -1.416,0.663c-0.309,0.442 -0.464,1.141 -0.464,2.096c0,1.837 0.627,2.756 1.88,2.756c0.531,-0 1.074,-0.157 1.631,-0.469l0.249,0.605Z" style="fill-rule:nonzero;"/><path d="M137.818,180.59l-2.124,-0l-0,5.988l-0.796,-0l-0,-5.988l-2.134,-0l-0,-0.624l5.054,0l-0,0.624Z" style="fill-rule:nonzero;"/></g><g><path d="M36.839,46.188c0.459,0.103 0.819,0.303 1.079,0.6c0.26,0.297 0.391,0.65 0.391,1.059c-0,0.6 -0.228,1.078 -0.682,1.434c-0.454,0.356 -1,0.534 -1.638,0.534l-1.958,-0l0,-6.612l1.909,0c0.664,0 1.184,0.14 1.558,0.42c0.374,0.279 0.562,0.674 0.562,1.183c-0,0.312 -0.109,0.59 -0.325,0.834c-0.217,0.244 -0.515,0.42 -0.896,0.529l-0,0.019Zm-2.007,-0.356l0.937,0c0.98,0 1.47,-0.336 1.47,-1.007c0,-0.306 -0.12,-0.542 -0.361,-0.706c-0.241,-0.164 -0.594,-0.246 -1.06,-0.246l-0.986,0l-0,1.959Zm-0,3.313l0.908,-0c0.531,-0 0.952,-0.116 1.262,-0.347c0.311,-0.231 0.467,-0.548 0.467,-0.951c-0,-0.428 -0.153,-0.759 -0.459,-0.993c-0.306,-0.235 -0.749,-0.352 -1.328,-0.352l-0.85,0l-0,2.643Z" style="fill-rule:nonzero;"/><path d="M40.262,43.203l1.748,0c0.661,0 1.189,0.16 1.587,0.478c0.397,0.319 0.595,0.758 0.595,1.317c0,0.562 -0.197,1.011 -0.593,1.347c-0.395,0.336 -0.914,0.504 -1.555,0.504l-0.982,-0l0,2.966l-0.8,-0l-0,-6.612Zm0.8,2.976l0.87,-0c0.94,-0 1.411,-0.378 1.411,-1.134c-0,-0.35 -0.128,-0.633 -0.384,-0.848c-0.255,-0.216 -0.585,-0.324 -0.988,-0.324l-0.909,0l0,2.306Z" style="fill-rule:nonzero;"/><path d="M50.232,49.815l-0.771,-0l-0,-5.67l-1.04,2.713l-0.757,0l-1.04,-2.713l-0,5.67l-0.772,-0l0,-6.612l1.041,0l1.152,3.013l1.147,-3.013l1.04,0l0,6.612Z" style="fill-rule:nonzero;"/></g><g><path d="M81.75,39.898l1.748,-0c0.661,-0 1.19,0.159 1.587,0.478c0.397,0.318 0.596,0.757 0.596,1.316c-0,0.563 -0.198,1.012 -0.593,1.347c-0.396,0.336 -0.914,0.504 -1.556,0.504l-0.981,0l-0,2.966l-0.801,0l0,-6.611Zm0.801,2.975l0.869,0c0.941,0 1.411,-0.378 1.411,-1.134c0,-0.35 -0.128,-0.632 -0.383,-0.848c-0.256,-0.215 -0.585,-0.323 -0.989,-0.323l-0.908,-0l-0,2.305Z" style="fill-rule:nonzero;"/><path d="M91.501,46.509l-3.75,0l0,-6.611l0.801,-0l-0,5.941l2.949,0l0,0.67Z" style="fill-rule:nonzero;"/><path d="M98.244,46.509l-0.84,0l-0.761,-2.315l-2.261,0l-0.771,2.315l-0.831,0l2.251,-6.611l0.962,-0l2.251,6.611Zm-1.831,-2.985l-0.903,-2.736l-0.898,2.736l1.801,0Z" style="fill-rule:nonzero;"/><path d="M104.065,39.898l-2.154,3.781l0,2.83l-0.796,0l0,-2.83l-2.153,-3.781l0.903,-0l1.646,2.975l1.65,-2.975l0.904,-0Z" style="fill-rule:nonzero;"/></g><text x="14.302px" y="146.256px" style="font-family:'AndaleMono', 'Andale Mono', monospace;font-size:9.596px;">R<tspan x="20.303px 26.304px 32.305px " y="146.256px 146.256px 146.256px ">OOT</tspan></text><text x="43.77px" y="146.256px" style="font-family:'AndaleMono', 'Andale Mono', monospace;font-size:9.596px;">S<tspan x="49.771px 55.772px 61.773px 67.774px " y="146.256px 146.256px 146.256px 146.256px ">CALE</tspan></text><text x="75.959px" y="146.256px" style="font-family:'AndaleMono', 'Andale Mono', monospace;font-size:9.596px;">P<tspan x="81.96px 87.961px 93.962px 99.963px " y="146.256px 146.256px 146.256px 146.256px ">ITCH</tspan></text><g transform="matrix(0.900901,0,0,0.959619,-1723.27,-308.277)"><g transform="matrix(1.11,0,0,1,-237.738,0)"><text x="2161.25px" y="509.739px" style="font-family:'AndaleMono', 'Andale Mono', monospace;font-size:10px;">TODO:</text></g><g transform="matrix(1.11,0,0,1,-231.51,0)"><text x="2104.63px" y="519.739px" style="font-family:'AndaleMono', 'Andale Mono', monospace;font-size:10px;">make RND for particles</text></g></g><text x="121.57px" y="61.866px" style="font-family:'AndaleMono', 'Andale Mono', monospace;font-size:9.596px;">R<tspan x="127.571px 133.572px " y="61.866px 61.866px ">ND</tspan></text><text x="121.57px" y="105.614px" style="font-family:'AndaleMono', 'Andale Mono', monospace;font-size:9.596px;">C<tspan x="127.571px 133.572px " y="105.614px 105.614px ">LR</tspan></text><g><path d="M22.727,94.506l-0.771,-0l-0,-5.67l-1.04,2.713l-0.757,0l-1.04,-2.713l-0,5.67l-0.772,-0l0,-6.611l1.04,-0l1.153,3.012l1.147,-3.012l1.04,-0l0,6.611Z" style="fill-rule:nonzero;"/><path d="M26.497,87.768c0.771,0 1.36,0.293 1.765,0.879c0.405,0.585 0.608,1.437 0.608,2.556c-0,1.112 -0.202,1.961 -0.606,2.549c-0.403,0.587 -0.992,0.88 -1.767,0.88c-0.768,0 -1.355,-0.292 -1.76,-0.878c-0.406,-0.586 -0.608,-1.436 -0.608,-2.551c-0,-1.116 0.201,-1.967 0.605,-2.554c0.404,-0.587 0.991,-0.881 1.763,-0.881Zm-0,6.19c1.015,-0 1.523,-0.919 1.523,-2.755c0,-1.84 -0.508,-2.76 -1.523,-2.76c-0.495,-0 -0.872,0.238 -1.131,0.714c-0.258,0.477 -0.388,1.158 -0.388,2.046c0,0.896 0.129,1.579 0.386,2.05c0.257,0.47 0.635,0.705 1.133,0.705Z" style="fill-rule:nonzero;"/><path d="M35.227,87.895l-2.246,6.611l-0.962,-0l-2.251,-6.611l0.84,-0l1.89,5.721l1.899,-5.721l0.83,-0Z" style="fill-rule:nonzero;"/><path d="M40.359,94.506l-3.599,-0l0,-6.611l3.57,-0l-0,0.67l-2.769,-0l0,2.047l2.661,0l0,0.67l-2.661,0l0,2.554l2.798,-0l0,0.67Z" style="fill-rule:nonzero;"/></g><g><path d="M24.035,186.109c-0.563,0.397 -1.187,0.595 -1.87,0.595c-0.896,0 -1.574,-0.291 -2.037,-0.874c-0.462,-0.582 -0.693,-1.434 -0.693,-2.556c0,-1.083 0.224,-1.927 0.672,-2.53c0.447,-0.603 1.133,-0.904 2.058,-0.904c0.332,-0 0.66,0.04 0.986,0.122c0.325,0.081 0.588,0.189 0.786,0.323l-0.264,0.604c-0.459,-0.249 -0.962,-0.374 -1.508,-0.374c-0.632,-0 -1.103,0.221 -1.414,0.665c-0.311,0.444 -0.466,1.142 -0.466,2.094c-0,1.837 0.626,2.756 1.88,2.756c0.472,-0 0.828,-0.096 1.069,-0.286l-0,-1.631l-1.24,0l-0,-0.665l2.041,-0l-0,2.661Z" style="fill-rule:nonzero;"/><path d="M29.808,186.578l-0.84,-0l-0.761,-2.315l-2.261,0l-0.772,2.315l-0.83,-0l2.251,-6.612l0.962,0l2.251,6.612Zm-1.831,-2.985l-0.903,-2.736l-0.899,2.736l1.802,0Z" style="fill-rule:nonzero;"/><path d="M34.849,180.59l-2.124,-0l0,5.988l-0.796,-0l0,-5.988l-2.134,-0l0,-0.624l5.054,0l0,0.624Z" style="fill-rule:nonzero;"/><path d="M39.417,186.578l-3.599,-0l-0,-6.612l3.569,0l0,0.67l-2.768,0l-0,2.048l2.661,0l-0,0.67l-2.661,0l-0,2.554l2.798,-0l-0,0.67Z" style="fill-rule:nonzero;"/><path d="M44.287,180.697c-0.41,-0.134 -0.799,-0.201 -1.167,-0.201c-0.417,-0 -0.756,0.091 -1.018,0.274c-0.262,0.183 -0.393,0.443 -0.393,0.78c-0,0.4 0.343,0.751 1.03,1.054c0.508,0.225 0.844,0.382 1.008,0.469c0.165,0.087 0.331,0.208 0.501,0.361c0.169,0.153 0.305,0.333 0.407,0.541c0.103,0.208 0.154,0.441 0.154,0.7c0,0.644 -0.225,1.143 -0.676,1.498c-0.451,0.354 -0.982,0.531 -1.594,0.531c-0.593,0 -1.112,-0.112 -1.558,-0.337l0.166,-0.661c0.524,0.228 0.981,0.342 1.372,0.342c0.456,0 0.821,-0.113 1.096,-0.339c0.275,-0.227 0.413,-0.538 0.413,-0.935c-0,-0.294 -0.09,-0.543 -0.269,-0.747c-0.179,-0.205 -0.509,-0.414 -0.991,-0.626c-0.495,-0.219 -0.814,-0.368 -0.959,-0.448c-0.145,-0.079 -0.289,-0.189 -0.432,-0.33c-0.144,-0.14 -0.254,-0.298 -0.333,-0.473c-0.078,-0.175 -0.117,-0.366 -0.117,-0.572c0,-0.546 0.205,-0.973 0.616,-1.279c0.41,-0.306 0.929,-0.459 1.557,-0.459c0.459,-0 0.915,0.067 1.367,0.201l-0.18,0.656Z" style="fill-rule:nonzero;"/></g><g><path d="M56.769,179.966l-2.246,6.612l-0.962,-0l-2.251,-6.612l0.84,0l1.889,5.722l1.9,-5.722l0.83,0Z" style="fill-rule:nonzero;"/><path d="M61.063,179.84l-2.993,6.864l-0.718,0l2.978,-6.864l0.733,-0Z" style="fill-rule:nonzero;"/><path d="M64.541,179.84c0.772,-0 1.36,0.293 1.765,0.878c0.406,0.586 0.608,1.438 0.608,2.556c0,1.113 -0.201,1.962 -0.605,2.549c-0.404,0.588 -0.993,0.881 -1.768,0.881c-0.768,0 -1.355,-0.292 -1.76,-0.878c-0.405,-0.586 -0.608,-1.436 -0.608,-2.552c0,-1.115 0.202,-1.966 0.606,-2.553c0.403,-0.587 0.991,-0.881 1.762,-0.881Zm0,6.19c1.016,-0 1.524,-0.919 1.524,-2.756c-0,-1.839 -0.508,-2.759 -1.524,-2.759c-0.494,-0 -0.871,0.238 -1.13,0.714c-0.259,0.477 -0.388,1.158 -0.388,2.045c-0,0.897 0.128,1.58 0.385,2.05c0.258,0.471 0.635,0.706 1.133,0.706Z" style="fill-rule:nonzero;"/><path d="M72.033,186.166c-0.54,0.359 -1.167,0.538 -1.879,0.538c-0.892,0 -1.57,-0.293 -2.034,-0.881c-0.464,-0.587 -0.696,-1.436 -0.696,-2.549c0,-1.074 0.225,-1.915 0.674,-2.523c0.449,-0.607 1.134,-0.911 2.056,-0.911c0.332,-0 0.66,0.04 0.986,0.122c0.325,0.081 0.587,0.189 0.786,0.323l-0.264,0.604c-0.459,-0.249 -0.962,-0.374 -1.508,-0.374c-0.635,-0 -1.107,0.221 -1.416,0.663c-0.31,0.442 -0.464,1.141 -0.464,2.096c-0,1.837 0.626,2.756 1.88,2.756c0.53,-0 1.074,-0.157 1.63,-0.469l0.249,0.605Z" style="fill-rule:nonzero;"/><path d="M77.587,180.59l-2.124,-0l0,5.988l-0.796,-0l0,-5.988l-2.134,-0l0,-0.624l5.054,0l0,0.624Z" style="fill-rule:nonzero;"/></g></g></g></svg>