<?xml version="1.0" encoding="UTF-8" standalone="no"?><!DOCTYPE svg PUBLIC "-//W3C//DTD SVG 1.1//EN" "http://www.w3.org/Graphics/SVG/1.1/DTD/svg11.dtd"><svg width="100%" height="100%" viewBox="0 0 540 380" version="1.1" xmlns="http://www.w3.org/2000/svg" xmlns:xlink="http://www.w3.org/1999/xlink" xml:space="preserve" xmlns:serif="http://www.serif.com/" style="fill-rule:evenodd;clip-rule:evenodd;stroke-linecap:round;stroke-linejoin:round;stroke-miterlimit:1.5;"><rect id="Cosmosis" x="0" y="0" width="540" height="379.559" style="fill:none;"/><clipPath id="_clip1"><rect x="0" y="0" width="540" height="379.559"/></clipPath><g clip-path="url(#_clip1)"><g id="Layer1"><rect id="background" x="-9.15" y="-7.016" width="557.155" height="393.592" style="fill:#e6e6e6;"/><path d="M548.005,-7.016l-557.155,-0l-0,393.591l557.155,0l-0,-393.591Zm-556.155,1l-0,391.591l555.155,0l-0,-391.591l-555.155,-0Z" style="fill:#646464;"/><rect id="rect" x="161.2" y="0.78" width="378" height="378" style="fill:#333;"/><rect x="11.307" y="304.183" width="73.932" height="54.388" style="fill:#282828;fill-opacity:0.1;"/><g><path d="M39.452,27.778c-1.2,0.748 -2.591,1.123 -4.173,1.123c-1.98,-0 -3.485,-0.612 -4.515,-1.836c-1.03,-1.224 -1.545,-2.995 -1.545,-5.313c0,-2.239 0.499,-3.992 1.496,-5.259c0.997,-1.266 2.518,-1.899 4.564,-1.899c0.737,-0 1.467,0.085 2.189,0.254c0.723,0.169 1.305,0.394 1.745,0.674l-0.585,1.259c-1.019,-0.52 -2.135,-0.781 -3.349,-0.781c-1.41,0 -2.457,0.461 -3.144,1.382c-0.686,0.921 -1.03,2.378 -1.03,4.37c0,3.828 1.391,5.742 4.174,5.742c1.178,0 2.384,-0.325 3.62,-0.976l0.553,1.26Z" style="fill:#2600ff;fill-rule:nonzero;"/><path d="M64.34,19.916c-0.946,-0.28 -1.839,-0.42 -2.677,-0.42c-0.918,0 -1.644,0.139 -2.179,0.415c-0.535,0.277 -0.802,0.647 -0.802,1.109c-0,0.293 0.123,0.548 0.368,0.766c0.246,0.218 0.737,0.422 1.475,0.611l1.615,0.42c0.744,0.188 1.351,0.415 1.821,0.678c0.47,0.264 0.822,0.583 1.057,0.957c0.235,0.375 0.352,0.809 0.352,1.304c0,0.97 -0.452,1.737 -1.355,2.3c-0.903,0.563 -2.052,0.845 -3.447,0.845c-1.388,-0 -2.533,-0.189 -3.436,-0.567l0.325,-1.318c0.947,0.404 1.962,0.605 3.046,0.605c0.939,0 1.704,-0.158 2.293,-0.473c0.589,-0.316 0.883,-0.734 0.883,-1.255c0,-0.352 -0.146,-0.666 -0.439,-0.943c-0.293,-0.276 -0.981,-0.564 -2.065,-0.864c-0.874,-0.241 -1.518,-0.421 -1.929,-0.542c-0.412,-0.12 -0.795,-0.298 -1.15,-0.532c-0.354,-0.234 -0.623,-0.514 -0.807,-0.84c-0.184,-0.325 -0.276,-0.69 -0.276,-1.094c-0,-0.879 0.426,-1.575 1.279,-2.089c0.852,-0.515 1.983,-0.772 3.392,-0.772c0.911,0 1.923,0.14 3.036,0.42l-0.38,1.279Z" style="fill:#2600ff;fill-rule:nonzero;"/><path d="M79.733,28.637l-1.691,-0l-0,-6.68c-0,-1.614 -0.333,-2.422 -0.997,-2.422c-0.34,0 -0.714,0.279 -1.122,0.835c-0.409,0.557 -0.613,0.865 -0.613,0.923l0,7.344l-1.68,-0l-0,-6.68c-0,-1.614 -0.336,-2.422 -1.008,-2.422c-0.333,0 -0.703,0.279 -1.111,0.835c-0.409,0.557 -0.613,0.865 -0.613,0.923l0,7.344l-1.691,-0l0,-10.176l1.626,0l0,1.533c0.318,-0.54 0.696,-0.971 1.133,-1.294c0.437,-0.322 0.873,-0.483 1.306,-0.483c0.456,0 0.864,0.161 1.225,0.483c0.361,0.323 0.611,0.754 0.748,1.294c0.318,-0.54 0.697,-0.971 1.138,-1.294c0.441,-0.322 0.875,-0.483 1.301,-0.483c1.366,0 2.049,1.1 2.049,3.301l-0,7.119Z" style="fill:#2600ff;fill-rule:nonzero;"/><path d="M87.787,18.217c1.554,0 2.789,0.488 3.707,1.465c0.918,0.976 1.377,2.262 1.377,3.857c-0,1.608 -0.459,2.904 -1.377,3.887c-0.918,0.983 -2.153,1.475 -3.707,1.475c-1.561,-0 -2.799,-0.49 -3.713,-1.47c-0.914,-0.98 -1.371,-2.277 -1.371,-3.892c-0,-1.601 0.459,-2.889 1.377,-3.862c0.917,-0.973 2.153,-1.46 3.707,-1.46Zm-0,9.355c1.026,0 1.835,-0.39 2.428,-1.171c0.593,-0.782 0.889,-1.729 0.889,-2.842c-0,-1.172 -0.293,-2.136 -0.878,-2.891c-0.586,-0.755 -1.399,-1.133 -2.439,-1.133c-1.048,0 -1.861,0.373 -2.439,1.119c-0.578,0.745 -0.867,1.713 -0.867,2.905c-0,1.133 0.292,2.085 0.878,2.856c0.585,0.772 1.394,1.157 2.428,1.157Z" style="fill:#2600ff;fill-rule:nonzero;"/><path d="M104.307,19.916c-0.947,-0.28 -1.839,-0.42 -2.678,-0.42c-0.917,0 -1.644,0.139 -2.179,0.415c-0.534,0.277 -0.802,0.647 -0.802,1.109c0,0.293 0.123,0.548 0.369,0.766c0.246,0.218 0.737,0.422 1.474,0.611l1.615,0.42c0.745,0.188 1.352,0.415 1.821,0.678c0.47,0.264 0.822,0.583 1.057,0.957c0.235,0.375 0.353,0.809 0.353,1.304c-0,0.97 -0.452,1.737 -1.355,2.3c-0.904,0.563 -2.053,0.845 -3.448,0.845c-1.387,-0 -2.532,-0.189 -3.436,-0.567l0.325,-1.318c0.947,0.404 1.962,0.605 3.046,0.605c0.94,0 1.704,-0.158 2.293,-0.473c0.589,-0.316 0.884,-0.734 0.884,-1.255c-0,-0.352 -0.147,-0.666 -0.44,-0.943c-0.292,-0.276 -0.981,-0.564 -2.064,-0.864c-0.875,-0.241 -1.518,-0.421 -1.93,-0.542c-0.412,-0.12 -0.795,-0.298 -1.149,-0.532c-0.354,-0.234 -0.623,-0.514 -0.808,-0.84c-0.184,-0.325 -0.276,-0.69 -0.276,-1.094c0,-0.879 0.426,-1.575 1.279,-2.089c0.853,-0.515 1.984,-0.772 3.393,-0.772c0.911,0 1.922,0.14 3.035,0.42l-0.379,1.279Z" style="fill:#2600ff;fill-rule:nonzero;"/><path d="M115.168,14.614c0.318,-0 0.589,0.102 0.813,0.307c0.224,0.205 0.336,0.451 0.336,0.737c0,0.3 -0.11,0.551 -0.33,0.752c-0.221,0.202 -0.494,0.303 -0.819,0.303c-0.296,0 -0.558,-0.106 -0.786,-0.317c-0.227,-0.212 -0.341,-0.458 -0.341,-0.738c-0,-0.28 0.114,-0.524 0.341,-0.732c0.228,-0.208 0.49,-0.312 0.786,-0.312Zm0.824,14.023l-1.691,-0l0,-8.857l-3.328,-0l0,-1.319l5.019,0l0,10.176Z" style="fill:#2600ff;fill-rule:nonzero;"/><path d="M130.951,19.916c-0.947,-0.28 -1.839,-0.42 -2.677,-0.42c-0.918,0 -1.644,0.139 -2.179,0.415c-0.535,0.277 -0.802,0.647 -0.802,1.109c-0,0.293 0.123,0.548 0.368,0.766c0.246,0.218 0.737,0.422 1.474,0.611l1.616,0.42c0.744,0.188 1.351,0.415 1.821,0.678c0.469,0.264 0.822,0.583 1.057,0.957c0.234,0.375 0.352,0.809 0.352,1.304c-0,0.97 -0.452,1.737 -1.355,2.3c-0.903,0.563 -2.052,0.845 -3.447,0.845c-1.388,-0 -2.533,-0.189 -3.436,-0.567l0.325,-1.318c0.946,0.404 1.962,0.605 3.046,0.605c0.939,0 1.703,-0.158 2.292,-0.473c0.589,-0.316 0.884,-0.734 0.884,-1.255c-0,-0.352 -0.146,-0.666 -0.439,-0.943c-0.293,-0.276 -0.981,-0.564 -2.065,-0.864c-0.875,-0.241 -1.518,-0.421 -1.93,-0.542c-0.412,-0.12 -0.795,-0.298 -1.149,-0.532c-0.354,-0.234 -0.623,-0.514 -0.807,-0.84c-0.185,-0.325 -0.277,-0.69 -0.277,-1.094c0,-0.879 0.427,-1.575 1.279,-2.089c0.853,-0.515 1.984,-0.772 3.393,-0.772c0.911,0 1.923,0.14 3.035,0.42l-0.379,1.279Z" style="fill:#2600ff;fill-rule:nonzero;"/><g id="TinyBlueButton"><circle id="BlueButton" cx="48.274" cy="23.559" r="5.04" style="fill:#fff;stroke:#2600ff;stroke-width:1px;"/><circle id="BlueButton1" serif:id="BlueButton" cx="48.274" cy="23.559" r="3.1" style="fill:#2600ff;"/></g></g><g transform="matrix(0.900901,0,0,0.959619,-1723.27,-308.277)"><g transform="matrix(1.11,0,0,1,-237.738,0)"><text x="2161.25px" y="509.739px" style="font-family:'AndaleMono', 'Andale Mono', monospace;font-size:10px;">TODO:</text></g><g transform="matrix(1.11,0,0,1,-231.51,0)"><text x="2104.63px" y="519.739px" style="font-family:'AndaleMono', 'Andale Mono', monospace;font-size:10px;">make RND for particles</text></g></g><g><path d="M126.799,61.327c-0.54,0.359 -1.166,0.539 -1.879,0.539c-0.892,-0 -1.57,-0.294 -2.034,-0.881c-0.464,-0.588 -0.696,-1.437 -0.696,-2.549c0,-1.075 0.225,-1.916 0.674,-2.524c0.449,-0.607 1.134,-0.911 2.056,-0.911c0.332,0 0.66,0.041 0.986,0.122c0.325,0.081 0.588,0.189 0.786,0.323l-0.264,0.605c-0.459,-0.25 -0.962,-0.375 -1.508,-0.375c-0.635,-0 -1.107,0.221 -1.416,0.663c-0.31,0.442 -0.464,1.141 -0.464,2.097c-0,1.836 0.626,2.755 1.88,2.755c0.53,-0 1.074,-0.156 1.63,-0.469l0.249,0.605Z" style="fill-rule:nonzero;"/><path d="M132.571,61.739l-3.75,0l-0,-6.611l0.801,-0l-0,5.941l2.949,-0l-0,0.67Z" style="fill-rule:nonzero;"/><path d="M139.304,61.739l-1.001,0l-2.021,-3.003l-0.889,-0l0,3.003l-0.801,0l0,-6.611l1.949,-0c0.654,-0 1.171,0.152 1.55,0.456c0.379,0.305 0.569,0.729 0.569,1.273c-0,0.403 -0.138,0.761 -0.415,1.075c-0.277,0.314 -0.658,0.527 -1.143,0.64l2.202,3.167Zm-3.911,-3.674l1.011,0c0.423,0 0.767,-0.11 1.03,-0.33c0.264,-0.22 0.396,-0.497 0.396,-0.832c-0,-0.737 -0.469,-1.105 -1.406,-1.105l-1.031,-0l0,2.267Z" style="fill-rule:nonzero;"/></g><g><path d="M24.035,325.918c-0.563,0.397 -1.187,0.595 -1.87,0.595c-0.896,-0 -1.574,-0.291 -2.037,-0.874c-0.462,-0.582 -0.693,-1.434 -0.693,-2.556c0,-1.084 0.224,-1.927 0.672,-2.53c0.447,-0.603 1.133,-0.904 2.058,-0.904c0.332,-0 0.66,0.04 0.986,0.121c0.325,0.082 0.588,0.189 0.786,0.324l-0.264,0.604c-0.459,-0.25 -0.962,-0.375 -1.508,-0.375c-0.632,0 -1.103,0.222 -1.414,0.666c-0.311,0.443 -0.466,1.141 -0.466,2.094c-0,1.837 0.626,2.755 1.88,2.755c0.472,0 0.828,-0.095 1.069,-0.286l-0,-1.63l-1.24,-0l-0,-0.666l2.041,0l-0,2.662Z" style="fill-rule:nonzero;"/><path d="M29.808,326.386l-0.84,0l-0.761,-2.314l-2.261,-0l-0.772,2.314l-0.83,0l2.251,-6.611l0.962,0l2.251,6.611Zm-1.831,-2.984l-0.903,-2.737l-0.899,2.737l1.802,-0Z" style="fill-rule:nonzero;"/><path d="M34.849,320.398l-2.124,0l0,5.988l-0.796,0l0,-5.988l-2.134,0l0,-0.623l5.054,0l0,0.623Z" style="fill-rule:nonzero;"/><path d="M39.417,326.386l-3.599,0l-0,-6.611l3.569,0l0,0.67l-2.768,0l-0,2.048l2.661,-0l-0,0.67l-2.661,-0l-0,2.553l2.798,0l-0,0.67Z" style="fill-rule:nonzero;"/><path d="M44.287,320.506c-0.41,-0.134 -0.799,-0.201 -1.167,-0.201c-0.417,-0 -0.756,0.091 -1.018,0.274c-0.262,0.182 -0.393,0.442 -0.393,0.78c-0,0.4 0.343,0.751 1.03,1.054c0.508,0.225 0.844,0.381 1.008,0.469c0.165,0.087 0.331,0.207 0.501,0.36c0.169,0.153 0.305,0.334 0.407,0.542c0.103,0.207 0.154,0.441 0.154,0.7c0,0.644 -0.225,1.143 -0.676,1.497c-0.451,0.355 -0.982,0.532 -1.594,0.532c-0.593,-0 -1.112,-0.112 -1.558,-0.337l0.166,-0.661c0.524,0.228 0.981,0.342 1.372,0.342c0.456,0 0.821,-0.113 1.096,-0.34c0.275,-0.226 0.413,-0.538 0.413,-0.934c-0,-0.294 -0.09,-0.543 -0.269,-0.748c-0.179,-0.204 -0.509,-0.413 -0.991,-0.625c-0.495,-0.219 -0.814,-0.368 -0.959,-0.448c-0.145,-0.08 -0.289,-0.19 -0.432,-0.33c-0.144,-0.141 -0.254,-0.299 -0.333,-0.473c-0.078,-0.175 -0.117,-0.366 -0.117,-0.572c0,-0.547 0.205,-0.973 0.616,-1.279c0.41,-0.306 0.929,-0.459 1.557,-0.459c0.459,-0 0.915,0.067 1.367,0.201l-0.18,0.656Z" style="fill-rule:nonzero;"/></g><g><path d="M56.769,319.775l-2.246,6.611l-0.962,0l-2.251,-6.611l0.84,0l1.889,5.721l1.9,-5.721l0.83,0Z" style="fill-rule:nonzero;"/><path d="M61.063,319.649l-2.993,6.864l-0.718,-0l2.978,-6.864l0.733,-0Z" style="fill-rule:nonzero;"/><path d="M64.541,319.649c0.772,-0 1.36,0.292 1.765,0.878c0.406,0.586 0.608,1.438 0.608,2.556c0,1.112 -0.201,1.962 -0.605,2.549c-0.404,0.587 -0.993,0.881 -1.768,0.881c-0.768,-0 -1.355,-0.293 -1.76,-0.879c-0.405,-0.585 -0.608,-1.436 -0.608,-2.551c0,-1.115 0.202,-1.966 0.606,-2.554c0.403,-0.587 0.991,-0.88 1.762,-0.88Zm0,6.189c1.016,0 1.524,-0.918 1.524,-2.755c-0,-1.84 -0.508,-2.76 -1.524,-2.76c-0.494,0 -0.871,0.238 -1.13,0.715c-0.259,0.476 -0.388,1.158 -0.388,2.045c-0,0.897 0.128,1.58 0.385,2.05c0.258,0.47 0.635,0.705 1.133,0.705Z" style="fill-rule:nonzero;"/><path d="M72.033,325.974c-0.54,0.359 -1.167,0.539 -1.879,0.539c-0.892,-0 -1.57,-0.294 -2.034,-0.881c-0.464,-0.587 -0.696,-1.437 -0.696,-2.549c0,-1.074 0.225,-1.916 0.674,-2.523c0.449,-0.608 1.134,-0.911 2.056,-0.911c0.332,-0 0.66,0.04 0.986,0.121c0.325,0.082 0.587,0.189 0.786,0.324l-0.264,0.604c-0.459,-0.25 -0.962,-0.375 -1.508,-0.375c-0.635,0 -1.107,0.221 -1.416,0.663c-0.31,0.442 -0.464,1.141 -0.464,2.097c-0,1.837 0.626,2.755 1.88,2.755c0.53,0 1.074,-0.156 1.63,-0.468l0.249,0.604Z" style="fill-rule:nonzero;"/><path d="M77.587,320.398l-2.124,0l0,5.988l-0.796,0l0,-5.988l-2.134,0l0,-0.623l5.054,0l0,0.623Z" style="fill-rule:nonzero;"/></g><g><path d="M15.267,55.128l1.748,-0c0.66,-0 1.189,0.159 1.587,0.478c0.397,0.318 0.595,0.757 0.595,1.316c0,0.562 -0.198,1.012 -0.593,1.347c-0.396,0.336 -0.914,0.504 -1.555,0.504l-0.982,0l0,2.966l-0.8,0l-0,-6.611Zm0.8,2.975l0.869,-0c0.941,-0 1.412,-0.378 1.412,-1.134c-0,-0.35 -0.128,-0.633 -0.384,-0.848c-0.255,-0.216 -0.585,-0.323 -0.988,-0.323l-0.909,-0l0,2.305Z" style="fill-rule:nonzero;"/><path d="M25.018,61.739l-3.75,0l-0,-6.611l0.8,-0l0,5.941l2.95,-0l-0,0.67Z" style="fill-rule:nonzero;"/><path d="M31.761,61.739l-0.84,0l-0.762,-2.315l-2.261,0l-0.771,2.315l-0.83,0l2.251,-6.611l0.962,-0l2.251,6.611Zm-1.831,-2.985l-0.904,-2.736l-0.898,2.736l1.802,0Z" style="fill-rule:nonzero;"/><path d="M37.581,55.128l-2.153,3.781l-0,2.83l-0.796,0l-0,-2.83l-2.154,-3.781l0.904,-0l1.645,2.975l1.651,-2.975l0.903,-0Z" style="fill-rule:nonzero;"/></g><g><path d="M50.429,55.859c-0.41,-0.135 -0.799,-0.202 -1.167,-0.202c-0.416,0 -0.756,0.091 -1.018,0.274c-0.262,0.183 -0.393,0.443 -0.393,0.78c0,0.4 0.344,0.752 1.03,1.055c0.508,0.225 0.844,0.381 1.009,0.468c0.164,0.088 0.331,0.208 0.5,0.361c0.169,0.153 0.305,0.333 0.408,0.541c0.102,0.208 0.154,0.441 0.154,0.701c-0,0.643 -0.226,1.142 -0.677,1.497c-0.45,0.354 -0.982,0.532 -1.594,0.532c-0.592,-0 -1.111,-0.113 -1.557,-0.338l0.166,-0.66c0.524,0.228 0.981,0.342 1.372,0.342c0.455,-0 0.821,-0.114 1.096,-0.34c0.275,-0.227 0.412,-0.538 0.412,-0.935c0,-0.294 -0.089,-0.543 -0.268,-0.747c-0.179,-0.205 -0.51,-0.413 -0.991,-0.626c-0.495,-0.218 -0.815,-0.368 -0.96,-0.447c-0.145,-0.08 -0.289,-0.19 -0.432,-0.331c-0.143,-0.14 -0.254,-0.298 -0.332,-0.473c-0.078,-0.175 -0.117,-0.365 -0.117,-0.572c-0,-0.546 0.205,-0.973 0.615,-1.279c0.41,-0.306 0.929,-0.459 1.558,-0.459c0.459,0 0.914,0.067 1.367,0.202l-0.181,0.656Z" style="fill-rule:nonzero;"/><path d="M53.212,55.128l1.748,-0c0.661,-0 1.19,0.159 1.587,0.478c0.398,0.318 0.596,0.757 0.596,1.316c0,0.562 -0.198,1.012 -0.593,1.347c-0.396,0.336 -0.914,0.504 -1.555,0.504l-0.982,0l0,2.966l-0.801,0l0,-6.611Zm0.801,2.975l0.869,-0c0.941,-0 1.411,-0.378 1.411,-1.134c0,-0.35 -0.127,-0.633 -0.383,-0.848c-0.255,-0.216 -0.585,-0.323 -0.989,-0.323l-0.908,-0l0,2.305Z" style="fill-rule:nonzero;"/><path d="M62.812,61.739l-3.599,0l0,-6.611l3.57,-0l-0,0.67l-2.769,-0l0,2.047l2.661,0l0,0.67l-2.661,0l0,2.554l2.798,-0l0,0.67Z" style="fill-rule:nonzero;"/><path d="M68.813,61.739l-3.599,0l0,-6.611l3.57,-0l-0,0.67l-2.769,-0l0,2.047l2.661,0l0,0.67l-2.661,0l0,2.554l2.798,-0l0,0.67Z" style="fill-rule:nonzero;"/><path d="M70.986,55.128l1.357,-0c0.902,-0 1.625,0.294 2.168,0.883c0.544,0.589 0.816,1.397 0.816,2.425c-0,1.049 -0.276,1.862 -0.828,2.439c-0.552,0.576 -1.259,0.864 -2.122,0.864l-1.391,0l-0,-6.611Zm0.801,5.941l0.566,-0c0.654,-0 1.172,-0.233 1.553,-0.698c0.381,-0.466 0.571,-1.111 0.571,-1.935c0,-0.819 -0.191,-1.463 -0.574,-1.933c-0.382,-0.47 -0.899,-0.705 -1.55,-0.705l-0.566,-0l-0,5.271Z" style="fill-rule:nonzero;"/></g><g><path d="M84.83,55.254l1.748,0c0.661,0 1.19,0.159 1.587,0.478c0.397,0.319 0.596,0.758 0.596,1.317c-0,0.562 -0.198,1.011 -0.593,1.347c-0.396,0.336 -0.914,0.504 -1.556,0.504l-0.981,-0l-0,2.966l-0.801,-0l0,-6.612Zm0.801,2.975l0.869,0c0.941,0 1.411,-0.377 1.411,-1.133c0,-0.35 -0.128,-0.633 -0.383,-0.849c-0.256,-0.215 -0.585,-0.323 -0.989,-0.323l-0.908,0l-0,2.305Z" style="fill-rule:nonzero;"/><path d="M95.323,61.866l-0.839,-0l-0.762,-2.315l-2.261,-0l-0.771,2.315l-0.831,-0l2.251,-6.612l0.962,0l2.251,6.612Zm-1.831,-2.985l-0.903,-2.737l-0.898,2.737l1.801,-0Z" style="fill-rule:nonzero;"/><path d="M101.114,55.877l-2.124,0l0,5.989l-0.796,-0l0,-5.989l-2.133,0l-0,-0.623l5.053,0l0,0.623Z" style="fill-rule:nonzero;"/><path d="M107.115,55.877l-2.124,0l0,5.989l-0.796,-0l0,-5.989l-2.133,0l-0,-0.623l5.053,0l0,0.623Z" style="fill-rule:nonzero;"/></g><g><path d="M69.38,102.895l1.748,0c0.661,0 1.19,0.16 1.587,0.478c0.397,0.319 0.595,0.758 0.595,1.317c0,0.562 -0.197,1.011 -0.593,1.347c-0.395,0.336 -0.914,0.504 -1.555,0.504l-0.982,-0l0,2.966l-0.8,-0l-0,-6.612Zm0.8,2.976l0.87,-0c0.94,-0 1.411,-0.378 1.411,-1.134c-0,-0.35 -0.128,-0.633 -0.384,-0.848c-0.255,-0.216 -0.585,-0.324 -0.988,-0.324l-0.909,0l0,2.306Z" style="fill-rule:nonzero;"/><path d="M78.662,109.507l-3.13,-0l0,-0.67l1.187,-0l-0,-5.272l-1.187,0l0,-0.67l3.13,0l-0,0.67l-1.143,0l0,5.272l1.143,-0l-0,0.67Z" style="fill-rule:nonzero;"/><path d="M85.664,103.518l-2.124,0l-0,5.989l-0.796,-0l-0,-5.989l-2.134,0l0,-0.623l5.054,0l-0,0.623Z" style="fill-rule:nonzero;"/><path d="M91.362,109.094c-0.54,0.36 -1.167,0.539 -1.88,0.539c-0.892,0 -1.57,-0.293 -2.033,-0.881c-0.464,-0.587 -0.696,-1.437 -0.696,-2.549c-0,-1.074 0.224,-1.915 0.674,-2.523c0.449,-0.607 1.134,-0.911 2.055,-0.911c0.332,-0 0.661,0.04 0.987,0.122c0.325,0.081 0.587,0.189 0.786,0.323l-0.264,0.604c-0.459,-0.25 -0.962,-0.374 -1.509,-0.374c-0.635,-0 -1.107,0.221 -1.416,0.663c-0.309,0.442 -0.464,1.14 -0.464,2.096c0,1.837 0.627,2.756 1.88,2.756c0.531,-0 1.074,-0.157 1.631,-0.469l0.249,0.604Z" style="fill-rule:nonzero;"/><path d="M97.114,109.507l-0.801,-0l0,-3.28l-2.358,-0l-0,3.28l-0.801,-0l0,-6.612l0.801,0l-0,2.657l2.358,0l0,-2.657l0.801,0l0,6.612Z" style="fill-rule:nonzero;"/></g><g><circle cx="65.367" cy="120.139" r="2.689" style="fill:#2600ff;"/><circle cx="68.364" cy="124.101" r="2.086" style="fill:#2600ff;"/><circle cx="63.897" cy="125.463" r="1.735" style="fill:#2600ff;"/></g><path d="M105.505,118.818l-2.25,-3l-2.25,3l4.5,-0Z" style="fill:#2600ff;"/><path d="M105.505,126.787l-2.25,3l-2.25,-3l4.5,0Z" style="fill:#2600ff;"/><path d="M103.255,118.218l-0,9.169" style="fill:none;stroke:#2600ff;stroke-width:1px;stroke-linecap:butt;stroke-linejoin:miter;"/><path d="M107.24,125.053l3,-2.25l-3,-2.25l-0,4.5Z" style="fill:#2600ff;"/><path d="M99.27,125.053l-3,-2.25l3,-2.25l0,4.5Z" style="fill:#2600ff;"/><path d="M107.84,122.803l-9.17,-0" style="fill:none;stroke:#2600ff;stroke-width:1px;stroke-linecap:butt;stroke-linejoin:miter;"/><g><path d="M19.798,234.151l-0.772,0l0,-5.669l-1.04,2.713l-0.757,-0l-1.04,-2.713l0,5.669l-0.771,0l-0,-6.611l1.04,-0l1.152,3.013l1.148,-3.013l1.04,-0l-0,6.611Z" style="fill-rule:nonzero;"/><path d="M23.567,227.413c0.772,0 1.36,0.293 1.765,0.879c0.406,0.586 0.608,1.438 0.608,2.556c0,1.112 -0.201,1.962 -0.605,2.549c-0.404,0.587 -0.993,0.881 -1.768,0.881c-0.768,-0 -1.355,-0.293 -1.76,-0.879c-0.405,-0.585 -0.608,-1.436 -0.608,-2.551c0,-1.115 0.202,-1.966 0.606,-2.554c0.403,-0.587 0.991,-0.881 1.762,-0.881Zm0,6.19c1.016,0 1.524,-0.918 1.524,-2.755c-0,-1.84 -0.508,-2.76 -1.524,-2.76c-0.494,0 -0.871,0.238 -1.13,0.715c-0.259,0.476 -0.388,1.158 -0.388,2.045c-0,0.896 0.128,1.58 0.386,2.05c0.257,0.47 0.634,0.705 1.132,0.705Z" style="fill-rule:nonzero;"/><path d="M27.601,227.54l1.357,-0c0.902,-0 1.624,0.294 2.168,0.883c0.544,0.589 0.815,1.397 0.815,2.425c0,1.05 -0.276,1.863 -0.827,2.439c-0.552,0.576 -1.259,0.864 -2.122,0.864l-1.391,0l-0,-6.611Zm0.8,5.941l0.567,0c0.654,0 1.172,-0.232 1.552,-0.698c0.381,-0.465 0.572,-1.11 0.572,-1.935c-0,-0.818 -0.191,-1.463 -0.574,-1.933c-0.382,-0.47 -0.899,-0.705 -1.55,-0.705l-0.567,-0l0,5.271Z" style="fill-rule:nonzero;"/><path d="M37.43,234.151l-3.599,0l0,-6.611l3.569,-0l0,0.67l-2.768,-0l-0,2.048l2.661,-0l-0,0.67l-2.661,-0l-0,2.553l2.798,0l-0,0.67Z" style="fill-rule:nonzero;"/></g><rect x="11.307" y="223.797" width="30.233" height="68.774" style="fill:none;stroke:#000;stroke-opacity:0.1;stroke-width:1px;stroke-linecap:butt;stroke-linejoin:miter;"/><rect x="51.217" y="223.861" width="90.11" height="68.736" style="fill:none;stroke:#000;stroke-opacity:0.1;stroke-width:1px;stroke-linecap:butt;stroke-linejoin:miter;"/><g><path d="M37.678,308.36l1.748,-0c0.661,-0 1.19,0.159 1.587,0.478c0.397,0.318 0.596,0.757 0.596,1.316c-0,0.563 -0.198,1.012 -0.594,1.347c-0.395,0.336 -0.914,0.504 -1.555,0.504l-0.981,0l-0,2.966l-0.801,0l-0,-6.611Zm0.801,2.975l0.869,0c0.941,0 1.411,-0.378 1.411,-1.134c-0,-0.35 -0.128,-0.632 -0.383,-0.848c-0.256,-0.215 -0.585,-0.323 -0.989,-0.323l-0.908,-0l-0,2.305Z" style="fill-rule:nonzero;"/><path d="M45.417,308.233c0.772,0 1.36,0.293 1.765,0.879c0.406,0.586 0.608,1.438 0.608,2.556c0,1.112 -0.202,1.962 -0.605,2.549c-0.404,0.587 -0.993,0.881 -1.768,0.881c-0.768,-0 -1.355,-0.293 -1.76,-0.879c-0.405,-0.586 -0.608,-1.436 -0.608,-2.551c-0,-1.115 0.202,-1.967 0.605,-2.554c0.404,-0.587 0.992,-0.881 1.763,-0.881Zm0,6.19c1.016,-0 1.524,-0.918 1.524,-2.755c-0,-1.84 -0.508,-2.76 -1.524,-2.76c-0.495,-0 -0.871,0.238 -1.13,0.715c-0.259,0.476 -0.388,1.158 -0.388,2.045c-0,0.896 0.128,1.58 0.385,2.05c0.258,0.47 0.635,0.705 1.133,0.705Z" style="fill-rule:nonzero;"/><path d="M53.43,314.971l-3.75,0l-0,-6.611l0.801,-0l-0,5.941l2.949,0l-0,0.67Z" style="fill-rule:nonzero;"/><path d="M59.992,308.36l-2.153,3.781l0,2.83l-0.796,0l0,-2.83l-2.153,-3.781l0.903,-0l1.646,2.975l1.65,-2.975l0.903,-0Z" style="fill-rule:nonzero;"/></g><g><path d="M62.246,279.435l-0,1.001l-3.004,2.022l0,0.889l3.004,-0l-0,0.8l-6.612,0l0,-1.948c0,-0.654 0.152,-1.171 0.457,-1.55c0.305,-0.379 0.729,-0.569 1.272,-0.569c0.403,-0 0.762,0.138 1.075,0.415c0.314,0.277 0.528,0.658 0.64,1.143l3.168,-2.203Zm-3.674,3.912l0,-1.011c0,-0.423 -0.11,-0.767 -0.33,-1.03c-0.221,-0.264 -0.498,-0.396 -0.832,-0.396c-0.737,0 -1.106,0.469 -1.106,1.406l0,1.031l2.268,-0Z" style="fill-rule:nonzero;"/><path d="M62.246,273.425l-0,0.84l-2.315,0.761l-0,2.261l2.315,0.771l-0,0.831l-6.612,-2.251l0,-0.962l6.612,-2.251Zm-2.985,1.831l-2.737,0.903l2.737,0.899l-0,-1.802Z" style="fill-rule:nonzero;"/><path d="M62.246,268.088l-0,0.888l-5.22,2.471l5.22,0l-0,0.801l-6.612,-0l0,-0.894l5.173,-2.48l-5.173,-0l0,-0.786l6.612,-0Z" style="fill-rule:nonzero;"/><path d="M55.634,266.144l0,-1.357c0,-0.902 0.295,-1.624 0.883,-2.168c0.589,-0.544 1.397,-0.815 2.425,-0.815c1.05,-0 1.863,0.275 2.439,0.827c0.576,0.552 0.865,1.259 0.865,2.122l-0,1.391l-6.612,0Zm5.942,-0.8l-0,-0.567c-0,-0.654 -0.233,-1.172 -0.699,-1.552c-0.465,-0.381 -1.11,-0.572 -1.935,-0.572c-0.818,0 -1.463,0.191 -1.933,0.574c-0.47,0.382 -0.705,0.899 -0.705,1.55l0,0.567l5.272,-0Z" style="fill-rule:nonzero;"/><path d="M55.508,258.176c-0,-0.772 0.292,-1.36 0.878,-1.765c0.586,-0.406 1.438,-0.608 2.556,-0.608c1.112,-0 1.962,0.201 2.549,0.605c0.587,0.404 0.881,0.993 0.881,1.768c0,0.768 -0.293,1.355 -0.878,1.76c-0.586,0.405 -1.437,0.608 -2.552,0.608c-1.115,-0 -1.966,-0.202 -2.553,-0.606c-0.588,-0.403 -0.881,-0.991 -0.881,-1.762Zm6.189,-0c0,-1.016 -0.918,-1.524 -2.755,-1.524c-1.84,0 -2.76,0.508 -2.76,1.524c0,0.494 0.239,0.871 0.715,1.13c0.476,0.259 1.158,0.388 2.045,0.388c0.897,0 1.58,-0.128 2.05,-0.386c0.47,-0.257 0.705,-0.634 0.705,-1.132Z" style="fill-rule:nonzero;"/><path d="M62.246,249.943l-0,0.772l-5.67,-0l2.713,1.04l-0,0.757l-2.713,1.04l5.67,-0l-0,0.771l-6.612,0l0,-1.04l3.013,-1.152l-3.013,-1.148l0,-1.04l6.612,0Z" style="fill-rule:nonzero;"/><path d="M62.246,244.631l-0,3.13l-0.67,-0l-0,-1.187l-5.272,0l0,1.187l-0.67,-0l0,-3.13l0.67,-0l0,1.142l5.272,0l-0,-1.142l0.67,-0Z" style="fill-rule:nonzero;"/><path d="M56.182,238.083l5.394,3.276l-0,-3.217l0.67,-0l-0,4.13l-0.539,0l-5.403,-3.261l0,3.12l-0.67,-0l0,-4.048l0.548,-0Z" style="fill-rule:nonzero;"/><path d="M62.246,232.311l-0,3.599l-6.612,0l0,-3.569l0.67,-0l0,2.768l2.048,0l-0,-2.661l0.67,0l-0,2.661l2.554,0l-0,-2.798l0.67,0Z" style="fill-rule:nonzero;"/></g><path d="M26.424,195.252l-0,-18.968l104.323,0l0,18.968" style="fill:none;stroke:#000;stroke-opacity:0.1;stroke-width:1px;stroke-linecap:butt;stroke-linejoin:miter;"/><g><rect x="59.792" y="170.884" width="42.007" height="10.796" style="fill:#e6e6e6;fill-rule:nonzero;"/><path d="M62.78,172.852c0.772,0 1.36,0.293 1.765,0.879c0.406,0.585 0.608,1.437 0.608,2.556c0,1.112 -0.202,1.961 -0.605,2.549c-0.404,0.587 -0.993,0.881 -1.768,0.881c-0.768,-0 -1.355,-0.293 -1.76,-0.879c-0.405,-0.586 -0.608,-1.436 -0.608,-2.551c0,-1.116 0.202,-1.967 0.605,-2.554c0.404,-0.587 0.992,-0.881 1.763,-0.881Zm0,6.19c1.016,-0 1.524,-0.919 1.524,-2.755c-0,-1.84 -0.508,-2.76 -1.524,-2.76c-0.495,-0 -0.871,0.238 -1.13,0.714c-0.259,0.477 -0.388,1.159 -0.388,2.046c-0,0.896 0.128,1.579 0.385,2.05c0.258,0.47 0.635,0.705 1.133,0.705Z" style="fill-rule:nonzero;"/><path d="M71.022,179.178c-0.54,0.359 -1.167,0.539 -1.88,0.539c-0.891,-0 -1.569,-0.294 -2.033,-0.881c-0.464,-0.588 -0.696,-1.437 -0.696,-2.549c-0,-1.075 0.225,-1.916 0.674,-2.524c0.449,-0.607 1.134,-0.911 2.055,-0.911c0.333,0 0.661,0.041 0.987,0.122c0.325,0.081 0.587,0.189 0.786,0.323l-0.264,0.605c-0.459,-0.25 -0.962,-0.375 -1.509,-0.375c-0.634,-0 -1.106,0.221 -1.416,0.663c-0.309,0.442 -0.463,1.141 -0.463,2.097c-0,1.836 0.626,2.755 1.879,2.755c0.531,-0 1.075,-0.156 1.631,-0.469l0.249,0.605Z" style="fill-rule:nonzero;"/><path d="M77.326,173.602l-2.124,-0l0,5.988l-0.796,0l0,-5.988l-2.134,-0l0,-0.623l5.054,-0l0,0.623Z" style="fill-rule:nonzero;"/><path d="M83.537,179.59l-0.84,0l-0.762,-2.315l-2.26,0l-0.772,2.315l-0.83,0l2.251,-6.611l0.962,-0l2.251,6.611Zm-1.831,-2.985l-0.903,-2.736l-0.899,2.736l1.802,0Z" style="fill-rule:nonzero;"/><path d="M89.514,172.979l-2.247,6.611l-0.961,0l-2.251,-6.611l0.839,-0l1.89,5.721l1.899,-5.721l0.831,-0Z" style="fill-rule:nonzero;"/><path d="M94.645,179.59l-3.598,0l-0,-6.611l3.569,-0l0,0.67l-2.768,-0l-0,2.047l2.661,0l-0,0.67l-2.661,0l-0,2.554l2.797,-0l0,0.67Z" style="fill-rule:nonzero;"/><path d="M100.266,173.71c-0.411,-0.135 -0.8,-0.202 -1.167,-0.202c-0.417,0 -0.756,0.091 -1.019,0.274c-0.262,0.183 -0.393,0.443 -0.393,0.78c0,0.4 0.344,0.752 1.031,1.055c0.507,0.225 0.844,0.381 1.008,0.468c0.164,0.088 0.331,0.208 0.5,0.361c0.17,0.153 0.306,0.333 0.408,0.541c0.103,0.208 0.154,0.441 0.154,0.701c-0,0.643 -0.225,1.142 -0.676,1.497c-0.451,0.354 -0.983,0.532 -1.595,0.532c-0.592,-0 -1.111,-0.113 -1.557,-0.338l0.166,-0.661c0.524,0.229 0.981,0.343 1.372,0.343c0.456,-0 0.821,-0.114 1.096,-0.34c0.275,-0.227 0.413,-0.538 0.413,-0.935c-0,-0.294 -0.09,-0.543 -0.269,-0.747c-0.179,-0.205 -0.509,-0.413 -0.991,-0.626c-0.495,-0.219 -0.815,-0.368 -0.959,-0.447c-0.145,-0.08 -0.289,-0.19 -0.433,-0.331c-0.143,-0.14 -0.254,-0.298 -0.332,-0.473c-0.078,-0.175 -0.117,-0.365 -0.117,-0.572c0,-0.546 0.205,-0.973 0.615,-1.279c0.411,-0.306 0.93,-0.459 1.558,-0.459c0.459,0 0.915,0.067 1.367,0.202l-0.18,0.656Z" style="fill-rule:nonzero;"/></g><g><path d="M122.657,240.704l1.458,0c0.55,0 0.991,0.133 1.323,0.399c0.331,0.265 0.496,0.631 0.496,1.097c0,0.469 -0.165,0.844 -0.494,1.123c-0.33,0.28 -0.762,0.42 -1.297,0.42l-0.818,0l-0,2.473l-0.668,0l0,-5.512Zm0.668,2.481l0.724,-0c0.785,-0 1.177,-0.315 1.177,-0.946c-0,-0.291 -0.107,-0.527 -0.32,-0.707c-0.213,-0.179 -0.487,-0.269 -0.824,-0.269l-0.757,-0l-0,1.922Z" style="fill-rule:nonzero;"/><path d="M129.109,240.599c0.643,-0 1.134,0.244 1.472,0.732c0.338,0.489 0.507,1.199 0.507,2.131c-0,0.927 -0.169,1.636 -0.505,2.125c-0.337,0.49 -0.828,0.735 -1.474,0.735c-0.64,-0 -1.129,-0.245 -1.467,-0.733c-0.338,-0.488 -0.507,-1.197 -0.507,-2.127c-0,-0.93 0.168,-1.639 0.505,-2.129c0.336,-0.489 0.826,-0.734 1.469,-0.734Zm0,5.16c0.847,0 1.27,-0.766 1.27,-2.297c0,-1.534 -0.423,-2.301 -1.27,-2.301c-0.412,0 -0.726,0.199 -0.942,0.596c-0.216,0.397 -0.324,0.966 -0.324,1.705c0,0.748 0.107,1.317 0.322,1.709c0.214,0.392 0.529,0.588 0.944,0.588Z" style="fill-rule:nonzero;"/><path d="M135.345,241.314c-0.341,-0.112 -0.666,-0.168 -0.972,-0.168c-0.348,-0 -0.631,0.076 -0.849,0.228c-0.219,0.153 -0.328,0.369 -0.328,0.651c0,0.333 0.286,0.626 0.859,0.879c0.423,0.187 0.704,0.317 0.841,0.39c0.137,0.073 0.276,0.173 0.417,0.301c0.141,0.128 0.254,0.278 0.34,0.451c0.085,0.173 0.128,0.368 0.128,0.584c-0,0.537 -0.188,0.953 -0.564,1.248c-0.376,0.296 -0.819,0.444 -1.329,0.444c-0.494,-0 -0.927,-0.094 -1.298,-0.282l0.138,-0.551c0.437,0.191 0.818,0.286 1.144,0.286c0.38,-0 0.684,-0.095 0.914,-0.284c0.229,-0.188 0.344,-0.448 0.344,-0.779c-0,-0.245 -0.075,-0.452 -0.224,-0.623c-0.149,-0.17 -0.425,-0.344 -0.827,-0.521c-0.412,-0.183 -0.679,-0.307 -0.799,-0.373c-0.121,-0.067 -0.241,-0.159 -0.361,-0.276c-0.119,-0.117 -0.211,-0.249 -0.276,-0.394c-0.066,-0.146 -0.098,-0.305 -0.098,-0.477c-0,-0.456 0.171,-0.811 0.513,-1.066c0.342,-0.256 0.775,-0.383 1.298,-0.383c0.383,-0 0.763,0.056 1.14,0.168l-0.151,0.547Z" style="fill-rule:nonzero;"/></g><g><path d="M126.585,275.474l-0.834,-0l-1.685,-2.504l-0.741,-0l-0,2.504l-0.668,-0l0,-5.512l1.624,-0c0.546,-0 0.977,0.127 1.293,0.381c0.316,0.254 0.474,0.607 0.474,1.06c0,0.336 -0.115,0.635 -0.346,0.897c-0.231,0.262 -0.548,0.439 -0.952,0.533l1.835,2.641Zm-3.26,-3.063l0.842,0c0.353,0 0.64,-0.092 0.859,-0.275c0.22,-0.184 0.33,-0.415 0.33,-0.694c0,-0.614 -0.391,-0.921 -1.172,-0.921l-0.859,-0l-0,1.89Z" style="fill-rule:nonzero;"/><path d="M131.596,275.474l-0.7,-0l-0.635,-1.93l-1.884,0l-0.644,1.93l-0.692,-0l1.877,-5.512l0.802,-0l1.876,5.512Zm-1.526,-2.489l-0.753,-2.281l-0.749,2.281l1.502,0Z" style="fill-rule:nonzero;"/><path d="M132.663,269.962l1.132,-0c0.751,-0 1.354,0.245 1.807,0.736c0.453,0.491 0.68,1.165 0.68,2.022c-0,0.875 -0.23,1.553 -0.69,2.033c-0.46,0.48 -1.05,0.721 -1.769,0.721l-1.16,-0l-0,-5.512Zm0.667,4.953l0.473,0c0.545,0 0.977,-0.194 1.294,-0.582c0.318,-0.388 0.476,-0.926 0.476,-1.613c0,-0.682 -0.159,-1.22 -0.478,-1.612c-0.319,-0.391 -0.75,-0.587 -1.292,-0.587l-0.473,-0l0,4.394Z" style="fill-rule:nonzero;"/></g><g><path d="M127.467,338.529l1.257,0c0.206,0 0.382,-0.065 0.528,-0.197c0.146,-0.132 0.219,-0.29 0.219,-0.475c0,-1.474 -0.579,-2.733 -1.737,-3.776c-1.158,-1.043 -2.555,-1.565 -4.191,-1.565l-5.181,-0c-0.206,-0 -0.381,0.066 -0.528,0.198c-0.146,0.131 -0.219,0.29 -0.219,0.475l-0,9.346c-0,0.178 0.073,0.333 0.219,0.465c0.147,0.131 0.322,0.197 0.528,0.197l10.362,0c0.206,0 0.382,-0.066 0.528,-0.197c0.146,-0.132 0.219,-0.287 0.219,-0.465c0,-1.602 -0.668,-2.937 -2.004,-4.006Zm-0.782,-3.503c0.672,0.605 1.087,1.325 1.245,2.158l-2.312,-0c-0.158,-0.378 -0.427,-0.686 -0.806,-0.924c-0.38,-0.239 -0.803,-0.358 -1.269,-0.358c-0.616,-0 -1.14,0.196 -1.571,0.587c-0.431,0.392 -0.646,0.862 -0.646,1.41c-0,0.556 0.215,1.029 0.646,1.421c0.431,0.392 0.955,0.587 1.571,0.587c0.846,0 1.486,-0.331 1.921,-0.993c0.45,0.199 0.857,0.459 1.221,0.78c0.672,0.605 1.087,1.328 1.245,2.168l-8.833,0l-0,-8.011l4.446,0c1.225,0 2.273,0.392 3.142,1.175Z" style="fill:#8000db;fill-rule:nonzero;"/><path d="M139.585,334.118c-1.154,-1.047 -2.55,-1.57 -4.186,-1.57c-1.636,-0 -3.033,0.522 -4.191,1.565c-1.158,1.043 -1.737,2.302 -1.737,3.776l0,4.678c0,0.178 0.073,0.333 0.22,0.465c0.146,0.131 0.318,0.197 0.515,0.197c0.206,0 0.382,-0.066 0.528,-0.197c0.146,-0.132 0.219,-0.287 0.219,-0.465l0,-4.678c0,-1.104 0.435,-2.048 1.304,-2.831c0.87,-0.783 1.917,-1.175 3.142,-1.175c1.225,0 2.273,0.392 3.142,1.175c0.87,0.783 1.304,1.727 1.304,2.831l0,3.065l-2.442,-2.2c0.142,-0.271 0.213,-0.559 0.213,-0.865c0,-0.556 -0.215,-1.028 -0.646,-1.416c-0.431,-0.388 -0.954,-0.582 -1.571,-0.582c-0.616,0 -1.142,0.194 -1.577,0.582c-0.434,0.388 -0.652,0.86 -0.652,1.416c0,0.555 0.218,1.027 0.652,1.415c0.435,0.388 0.961,0.582 1.577,0.582c0.34,0 0.66,-0.064 0.961,-0.192l3.699,3.343c0.15,0.128 0.324,0.192 0.521,0.192c0.206,0 0.382,-0.066 0.528,-0.197c0.146,-0.132 0.219,-0.287 0.219,-0.465l0,-4.678c0,-1.474 -0.581,-2.731 -1.742,-3.771Z" style="fill:#2600ff;fill-rule:nonzero;"/><path d="M127.728,344.767c-1.154,-1.046 -2.549,-1.57 -4.185,-1.57l-5.193,0c-0.198,0 -0.369,0.066 -0.516,0.198c-0.146,0.132 -0.219,0.29 -0.219,0.475l-0,9.336c-0,0.185 0.073,0.343 0.219,0.475c0.147,0.132 0.318,0.197 0.516,0.197c0.206,0 0.381,-0.065 0.528,-0.197c0.146,-0.132 0.219,-0.29 0.219,-0.475l-0,-8.674l4.446,0c1.225,0 2.273,0.392 3.142,1.175c0.869,0.784 1.304,1.727 1.304,2.831l0,3.065l-2.442,-2.2c0.142,-0.271 0.213,-0.559 0.213,-0.865c0,-0.556 -0.215,-1.029 -0.646,-1.421c-0.431,-0.391 -0.954,-0.587 -1.571,-0.587c-0.616,-0 -1.142,0.196 -1.577,0.587c-0.435,0.392 -0.652,0.865 -0.652,1.421c0,0.555 0.217,1.027 0.652,1.415c0.435,0.388 0.961,0.582 1.577,0.582c0.34,0 0.66,-0.064 0.96,-0.192l3.7,3.343c0.15,0.128 0.324,0.192 0.521,0.192c0.206,0 0.382,-0.065 0.528,-0.197c0.146,-0.132 0.219,-0.29 0.219,-0.475l0,-4.668c0,-1.474 -0.581,-2.731 -1.743,-3.771Z" style="fill:#0ef;fill-rule:nonzero;"/><path d="M140.58,347.876l-3.047,-0c-0.166,-0.385 -0.436,-0.695 -0.812,-0.93c-0.375,-0.235 -0.796,-0.352 -1.262,-0.352c-0.617,-0 -1.143,0.194 -1.577,0.582c-0.435,0.388 -0.652,0.86 -0.652,1.415c-0,0.556 0.217,1.029 0.652,1.421c0.434,0.392 0.96,0.587 1.577,0.587c0.49,0 0.928,-0.13 1.316,-0.39c0.387,-0.259 0.652,-0.596 0.794,-1.009l2.276,0l0,3.343l-4.446,0c-1.225,0 -2.272,-0.391 -3.142,-1.175c-0.869,-0.783 -1.304,-1.726 -1.304,-2.83c0,-1.104 0.435,-2.047 1.304,-2.831c0.87,-0.783 1.917,-1.175 3.142,-1.175l5.181,0c0.206,0 0.382,-0.066 0.528,-0.197c0.146,-0.132 0.219,-0.287 0.219,-0.465c0,-0.185 -0.073,-0.343 -0.219,-0.475c-0.146,-0.132 -0.322,-0.198 -0.528,-0.198l-5.181,0c-1.636,0 -3.033,0.522 -4.191,1.565c-1.158,1.043 -1.737,2.302 -1.737,3.776c0,1.474 0.579,2.732 1.737,3.776c1.158,1.043 2.555,1.564 4.191,1.564l5.181,0c0.206,0 0.382,-0.065 0.528,-0.197c0.146,-0.132 0.219,-0.29 0.219,-0.475l0,-4.668c0,-0.185 -0.073,-0.342 -0.219,-0.47c-0.146,-0.128 -0.322,-0.192 -0.528,-0.192Z" style="fill:#f00;fill-rule:nonzero;"/></g></g></g></svg>