<?xml version="1.0" encoding="UTF-8" standalone="no"?>
<svg
   width="100%"
   height="100%"
   viewBox="0 0 60 380"
   version="1.1"
   xml:space="preserve"
   style="fill-rule:evenodd;clip-rule:evenodd;stroke-miterlimit:1.5;"
   id="svg60"
   sodipodi:docname="JeremyBlankPanel-dark.svg"
   inkscape:version="1.3 (0e150ed6c4, 2023-07-21)"
   xmlns:inkscape="http://www.inkscape.org/namespaces/inkscape"
   xmlns:sodipodi="http://sodipodi.sourceforge.net/DTD/sodipodi-0.dtd"
   xmlns="http://www.w3.org/2000/svg"
   xmlns:svg="http://www.w3.org/2000/svg"
   xmlns:serif="http://www.serif.com/"><defs
     id="defs60" /><sodipodi:namedview
     id="namedview60"
     pagecolor="#ffffff"
     bordercolor="#999999"
     borderopacity="1"
     inkscape:showpageshadow="2"
     inkscape:pageopacity="0"
     inkscape:pagecheckerboard="0"
     inkscape:deskcolor="#d1d1d1"
     inkscape:zoom="2.25"
     inkscape:cx="28.444444"
     inkscape:cy="341.11111"
     inkscape:window-width="1920"
     inkscape:window-height="1051"
     inkscape:window-x="-9"
     inkscape:window-y="-9"
     inkscape:window-maximized="1"
     inkscape:current-layer="svg60" /><rect
     id="JeremyBlankPanel"
     x="0"
     y="0"
     width="60"
     height="379.559"
     style="fill:none;" /><clipPath
     id="_clip1"><rect
       x="0"
       y="0"
       width="60"
       height="379.559"
       id="rect1" /></clipPath><g
     clip-path="url(#_clip1)"
     id="g60"><g
       id="Layer1"><rect
         id="background"
         x="-0"
         y="0"
         width="60"
         height="379.559"
         style="fill:#000000;fill-opacity:1" /><g
         id="illustration"><path
           d="M15.002,197.216c0.887,-3.365 2.229,-6.369 3.644,-9.063c1.184,-2.255 3.29,-4.957 4.518,-6.161c0.722,-0.71 1.925,-0.644 2.844,-1.069c1.582,-0.733 5.716,-1.986 6.644,-3.327c0.919,-1.327 -0.614,-3.174 -1.074,-4.722c-0.562,-1.892 -1.787,-4.349 -2.298,-6.632c-0.545,-2.433 -0.869,-5.828 -0.971,-7.965c-0.078,-1.621 -0.481,-3.465 0.356,-4.855c0.959,-1.593 4,-3.723 5.395,-4.701c0.873,-0.611 2.155,-0.971 2.977,-1.166c0.634,-0.149 1.414,0.151 1.954,0c0.504,-0.14 0.775,-1.028 1.284,-0.905c0.903,0.218 2.993,1.771 4.136,2.216c0.856,0.333 1.873,0.092 2.718,0.454c0.863,0.37 1.924,0.909 2.459,1.764c0.715,1.144 1.527,3.579 1.833,5.098c0.264,1.313 -0,2.996 -0,4.017c-0,0.703 -0.217,1.44 -0,2.109c0.266,0.82 1.594,1.544 1.598,2.812c0.005,1.795 -1.021,5.137 -2.918,5.983c-1.234,0.551 -0.342,2.427 0.372,4.148c0.424,1.02 2.265,0.708 3.063,1.522c1.016,1.035 1.818,3.478 3.034,4.689c1.177,1.172 2.914,1.609 4.264,2.577c1.449,1.04 2.979,2.409 4.43,3.661c2.123,1.83 6.447,4.782 8.305,7.321c1.656,2.264 0.404,-0.723 0.975,2.023l-59.542,0.172Z"
           style="fill:#f00;"
           id="path1" /><g
           id="white"><path
             id="face"
             d="M32.913,155.79c-0.505,0.401 -0.72,0.896 -1.111,1.44c-0.555,0.771 -0.483,1.932 -0.706,2.336c-0.173,0.315 -0.767,-1.327 -0.855,-0.936c-0.485,2.156 0.365,6.007 0.678,10.355c0.07,0.973 -0.421,-2.219 -0.618,-2.861c-0.111,-0.362 -0.405,-1.051 -0.566,-0.987c-0.16,0.064 -0.496,0.906 -0.398,1.372c0.416,1.973 1.881,7.7 3.158,9.97c0.149,0.265 0.554,0.61 0.576,0.67c0.392,1.088 0.584,1.546 1.325,2.426c0.808,0.96 2.229,2.257 3.448,2.398c1.22,0.141 2.859,-0.921 3.868,-1.549c4.922,-3.061 5.513,-5.64 6.803,-7.14c0.453,-0.527 0.759,-1.429 0.938,-1.864c0.095,-0.233 -0.045,-0.62 0.131,-0.745c0.176,-0.124 0.715,0.227 0.925,0c0.481,-0.521 1.577,-2.124 1.964,-3.123c0.349,-0.901 0.52,-2.043 0.36,-2.875c-0.156,-0.817 -0.818,-2.084 -1.317,-2.118c-0.499,-0.034 -1.333,1.136 -1.675,1.911c-0.406,0.919 -0.554,3.002 -0.762,3.603c-0.053,0.153 -0.48,0.163 -0.485,0.002c-0.055,-1.75 -0.415,-3.356 -0.565,-5.039c-0.179,-2.011 0.266,-1.524 -0.261,-2.576c-0.549,-1.092 -0.532,-3.094 -1.107,-4.114c-0.504,-0.897 -1.351,-1.732 -2.341,-2.011c-1.017,-0.286 -2.757,0.233 -3.759,0.292c-0.75,0.045 -1.608,-0.029 -2.252,0.065c-0.558,0.08 -1.107,0.391 -1.615,0.494c-0.472,0.096 -0.982,-0.023 -1.438,0.128c-0.55,0.182 -1.466,0.883 -1.857,0.962c-0.225,0.046 -0.307,-0.629 -0.486,-0.486Z"
             style="fill:#000000;fill-opacity:1" /><path
             id="body"
             d="M74.781,197.765c-0.714,-2.582 -2.488,-3.976 -4.268,-5.86c-1.766,-1.869 -4.053,-3.166 -6.132,-4.678c-2.278,-1.658 -5.672,-3.51 -7.539,-5.269c-1.562,-1.471 -2.647,-4.262 -3.667,-5.288c-0.612,-0.616 -1.918,-0.186 -2.453,-0.868c-0.639,-0.815 -0.712,-4.615 -1.38,-4.017c-0.667,0.598 -1.429,5.289 -2.626,7.602c-1.188,2.296 -3.545,5.161 -4.557,6.276c-0.35,0.387 -1.421,0.77 -1.51,0.413c-0.09,-0.356 1.381,-1.862 0.971,-2.55c-0.41,-0.689 -2.462,-0.776 -3.431,-1.581c-1.431,-1.189 -3.799,-5.096 -5.158,-5.554c-1.296,-0.437 -1.806,2.128 -2.994,2.807c-1.576,0.9 -4.976,0.808 -6.458,2.593c-2.495,3.006 -7.106,11.647 -8.798,15.974l60,-0Z"
             style="fill:#000000;fill-opacity:1" /></g><g
           id="black"><path
             d="M36.314,164.857c-0.25,-0.242 -1.017,-0.457 -1.416,-0.554c-0.318,-0.076 -0.753,-0.032 -0.98,-0.024c-0.13,0.005 -0.253,0.065 -0.382,0.075c-0.241,0.018 -0.784,0.037 -1.063,0.037c-0.204,-0 -0.444,-0.157 -0.609,-0.039c-0.176,0.127 -0.373,0.597 -0.447,0.798c-0.048,0.128 -0.088,0.362 -0,0.409c0.087,0.047 0.344,-0.126 0.524,-0.128c0.369,-0.004 1.569,-0.001 1.69,0.104c0.12,0.104 -0.74,0.283 -0.965,0.524c-0.224,0.241 -0.378,0.761 -0.385,0.921c-0.004,0.116 0.253,0.104 0.348,0.037c0.201,-0.141 0.564,-0.74 0.858,-0.881c0.271,-0.13 0.865,-0.007 0.902,0.038c0.037,0.045 -0.549,0.14 -0.679,0.232c-0.092,0.066 -0.133,0.222 -0.101,0.321c0.032,0.099 0.164,0.236 0.292,0.276c0.152,0.047 0.416,0.044 0.62,0.008c0.236,-0.041 0.662,-0.275 0.795,-0.256c0.122,0.018 -0.077,0.339 -0,0.371c0.076,0.032 0.329,-0.074 0.456,-0.177c0.162,-0.129 0.407,-0.4 0.512,-0.599c0.094,-0.179 0.111,-0.393 0.115,-0.596c0.005,-0.249 0.131,-0.688 -0.085,-0.897Z"
             style="fill:#f00;"
             id="path2" /><path
             d="M40.139,167.374c-0.304,0.008 -0.719,-0.518 -0.9,-0.902c-0.202,-0.432 -0.474,-1.182 -0.317,-1.686c0.156,-0.505 0.737,-1.034 1.257,-1.341c0.52,-0.308 1.264,-0.414 1.862,-0.505c0.57,-0.085 1.277,-0.107 1.728,-0.037c0.356,0.056 0.691,0.242 0.975,0.463c0.292,0.226 0.646,0.669 0.775,0.893c0.075,0.13 0.151,0.451 -0,0.451c-0.299,0 -1.295,-0.434 -1.796,-0.451c-0.419,-0.014 -1.235,0.269 -1.208,0.351c0.027,0.083 0.974,-0.036 1.368,0.145c0.394,0.181 0.864,0.717 0.994,0.94c0.076,0.131 -0.082,0.348 -0.215,0.4c-0.133,0.053 -0.388,-0.105 -0.583,-0.085c-0.416,0.041 -1.508,0.443 -1.908,0.335c-0.355,-0.097 -0.308,-1.001 -0.493,-0.988c-0.185,0.014 -0.366,0.741 -0.615,1.068c-0.256,0.336 -0.62,0.942 -0.924,0.949Z"
             style="fill:#f00;"
             id="path3" /><path
             d="M38.258,172.748c-0.052,-0.216 0.352,-0.483 0.617,-0.581c0.409,-0.152 1.787,-0.547 1.838,-0.332c0.051,0.216 -1.121,1.473 -1.53,1.625c-0.365,0.136 -0.874,-0.497 -0.925,-0.712Z"
             style="fill:#f00;"
             id="path4" /><path
             d="M41.128,171.773c-0.1,-0.109 -0.1,-0.959 -0,-1.021c0.099,-0.061 0.594,0.482 0.594,0.652c0,0.171 -0.495,0.477 -0.594,0.369Z"
             style="fill:#f00;"
             id="path5" /><path
             d="M37.848,177.65c0.172,-0.139 3.122,-0.645 3.54,-0.607c0.418,0.037 -0.596,0.759 -1.032,0.834c-0.59,0.102 -2.68,-0.088 -2.508,-0.227Z"
             style="fill:#f00;"
             id="path6" /><path
             d="M35.298,175.733c0.31,-0.169 1.564,-0.451 2.104,-0.53c0.374,-0.055 0.765,0.138 1.135,0.057c0.552,-0.122 1.56,-0.735 2.177,-0.791c0.529,-0.047 1.272,0.462 1.527,0.454c0.167,-0.005 -0.134,-0.559 -0,-0.501c0.133,0.059 1.174,0.737 0.801,0.852c-0.664,0.205 -3.757,0.305 -4.789,0.379c-0.467,0.034 -0.953,-0.026 -1.405,0.067c-0.451,0.095 -1.046,0.495 -1.304,0.497c-0.181,0.002 -0.405,-0.397 -0.246,-0.484Z"
             style="fill:#f00;"
             id="path7" /><path
             d="M42.241,166.6c-0.137,0.122 0.734,0.403 0.881,0.532c0.061,0.054 -0.06,0.296 0,0.242c0.136,-0.122 0.965,-0.845 0.818,-0.974c-0.147,-0.129 -1.563,0.078 -1.699,0.2Z"
             style="fill:#f00;"
             id="path8" /><path
             d="M49.976,165.695c0.006,0.251 0.403,0.719 0.523,0.776c0.119,0.057 0.093,-0.411 0.194,-0.432c0.1,-0.021 0.381,0.43 0.41,0.307c0.03,-0.123 -0.128,-0.816 -0.235,-1.046c-0.074,-0.158 -0.258,-0.397 -0.407,-0.331c-0.148,0.066 -0.491,0.476 -0.485,0.726Z"
             style="fill:#f00;"
             id="path9" /><path
             d="M51.336,163.197c0.034,-0.044 0.458,-0.167 0.562,-0.103c0.105,0.064 0.098,0.442 0.065,0.487c-0.034,0.044 -0.169,-0.161 -0.268,-0.222c-0.104,-0.063 -0.392,-0.118 -0.359,-0.162Z"
             style="fill:#f00;"
             id="path10" /><path
             d="M34.524,179.696c0.463,1.095 1.554,5.927 2.154,7.57c0.308,0.845 0.773,1.696 1.442,2.283c0.669,0.586 1.63,1.096 2.571,1.235c1.238,0.184 4.039,0.035 4.858,-0.138c0.294,-0.061 -0.056,-0.62 0.058,-0.898c0.134,-0.33 0.403,-0.812 0.75,-1.08c1.704,-1.316 4.196,-4.187 4.437,-6.814c0.206,-2.232 -0.501,-5.642 -0.463,-6.538c0.009,-0.208 2.205,1.221 2.854,1.719c0.434,0.332 1.021,0.721 1.043,1.267c0.169,4.212 -4.863,9.034 -8.094,12.638c-0.25,0.28 -0.742,0.16 -1.074,0.334c-1.072,0.56 -4.933,3.057 -5.356,3.027c-0.98,-0.07 -3.022,-5.55 -3.891,-6.282c-0.589,-0.495 -1.331,3.073 -1.324,1.891c0.016,-2.67 0.678,-3.611 -0.588,-9.209c-0.087,-0.384 0.47,-1.368 0.623,-1.005Z"
             style="fill:#f00;"
             id="path11" /></g></g><g
         id="illustration1"
         serif:id="illustration"><path
           d="M11.307,200.911c0.886,-3.365 2.229,-6.369 3.644,-9.063c1.183,-2.255 3.29,-4.956 4.517,-6.161c0.723,-0.71 1.926,-0.643 2.845,-1.069c1.582,-0.733 5.716,-1.985 6.644,-3.327c0.919,-1.327 -0.614,-3.174 -1.074,-4.722c-0.562,-1.892 -1.787,-4.348 -2.298,-6.631c-0.545,-2.433 -0.869,-5.828 -0.971,-7.965c-0.078,-1.622 -0.481,-3.465 0.356,-4.856c0.959,-1.592 4,-3.722 5.395,-4.7c0.873,-0.612 2.155,-0.972 2.977,-1.166c0.634,-0.15 1.414,0.151 1.954,-0c0.504,-0.141 0.775,-1.029 1.284,-0.906c0.903,0.219 2.993,1.772 4.135,2.217c0.856,0.333 1.874,0.091 2.718,0.453c0.863,0.37 1.925,0.909 2.46,1.765c0.715,1.144 1.527,3.578 1.832,5.098c0.265,1.312 0,2.995 0,4.016c0,0.703 -0.217,1.441 0,2.109c0.267,0.821 1.595,1.545 1.599,2.812c0.005,1.796 -1.021,5.137 -2.918,5.983c-1.234,0.551 -0.342,2.427 0.372,4.148c0.424,1.02 2.264,0.709 3.063,1.522c1.016,1.035 1.818,3.478 3.034,4.689c1.177,1.172 2.914,1.609 4.264,2.577c1.448,1.04 2.979,2.41 4.43,3.661c2.123,1.831 6.446,4.782 8.305,7.322c1.656,2.264 0.403,-0.724 0.975,2.022l-59.542,0.172Z"
           style="fill:#0ef;"
           id="path12" /><g
           id="white1"
           serif:id="white"><path
             id="face1"
             serif:id="face"
             d="M29.217,159.485c-0.504,0.402 -0.719,0.896 -1.11,1.44c-0.555,0.772 -0.483,1.932 -0.706,2.337c-0.173,0.314 -0.767,-1.328 -0.855,-0.937c-0.485,2.156 0.365,6.007 0.678,10.355c0.07,0.973 -0.421,-2.219 -0.618,-2.86c-0.112,-0.363 -0.405,-1.052 -0.566,-0.988c-0.161,0.064 -0.496,0.907 -0.398,1.372c0.415,1.973 1.881,7.701 3.157,9.97c0.149,0.265 0.555,0.61 0.576,0.67c0.393,1.088 0.584,1.546 1.326,2.426c0.808,0.96 2.229,2.257 3.448,2.398c1.219,0.142 2.859,-0.921 3.868,-1.549c4.922,-3.061 5.512,-5.64 6.803,-7.14c0.453,-0.527 0.759,-1.429 0.937,-1.863c0.096,-0.234 -0.045,-0.621 0.131,-0.745c0.176,-0.125 0.716,0.226 0.925,-0c0.482,-0.521 1.577,-2.124 1.965,-3.124c0.349,-0.901 0.52,-2.043 0.36,-2.875c-0.156,-0.816 -0.819,-2.083 -1.317,-2.118c-0.499,-0.034 -1.333,1.136 -1.676,1.911c-0.406,0.919 -0.553,3.002 -0.761,3.603c-0.053,0.154 -0.481,0.164 -0.486,0.002c-0.054,-1.749 -0.415,-3.355 -0.564,-5.039c-0.179,-2.011 0.266,-1.524 -0.262,-2.576c-0.548,-1.091 -0.531,-3.093 -1.106,-4.114c-0.505,-0.897 -1.352,-1.731 -2.342,-2.01c-1.016,-0.286 -2.756,0.232 -3.758,0.291c-0.75,0.045 -1.608,-0.028 -2.253,0.065c-0.557,0.08 -1.106,0.391 -1.615,0.494c-0.471,0.097 -0.981,-0.023 -1.438,0.128c-0.549,0.182 -1.466,0.883 -1.856,0.963c-0.225,0.045 -0.307,-0.63 -0.487,-0.487Z"
             style="fill:#000000;fill-opacity:1" /><path
             id="body1"
             serif:id="body"
             d="M71.086,201.46c-0.714,-2.582 -2.488,-3.976 -4.269,-5.86c-1.765,-1.868 -4.052,-3.165 -6.131,-4.678c-2.279,-1.658 -5.672,-3.509 -7.539,-5.269c-1.562,-1.471 -2.647,-4.262 -3.667,-5.288c-0.612,-0.616 -1.918,-0.186 -2.454,-0.868c-0.638,-0.814 -0.712,-4.615 -1.379,-4.017c-0.668,0.598 -1.429,5.289 -2.626,7.603c-1.188,2.295 -3.546,5.16 -4.557,6.275c-0.351,0.387 -1.421,0.77 -1.511,0.414c-0.09,-0.356 1.381,-1.862 0.971,-2.551c-0.409,-0.688 -2.462,-0.776 -3.43,-1.58c-1.431,-1.189 -3.799,-5.097 -5.158,-5.555c-1.296,-0.436 -1.807,2.128 -2.995,2.807c-1.575,0.9 -4.975,0.809 -6.457,2.594c-2.496,3.005 -7.106,11.646 -8.798,15.973l60,-0Z"
             style="fill:#000000;fill-opacity:1" /></g><g
           id="black1"
           serif:id="black"><path
             d="M32.619,168.552c-0.25,-0.242 -1.017,-0.457 -1.417,-0.553c-0.317,-0.077 -0.752,-0.033 -0.979,-0.025c-0.13,0.005 -0.253,0.065 -0.382,0.075c-0.241,0.018 -0.785,0.038 -1.063,0.037c-0.204,0 -0.444,-0.157 -0.61,-0.038c-0.176,0.126 -0.372,0.596 -0.447,0.797c-0.047,0.128 -0.087,0.362 0,0.41c0.088,0.046 0.345,-0.126 0.525,-0.129c0.369,-0.004 1.568,-0.001 1.689,0.104c0.121,0.105 -0.739,0.283 -0.964,0.524c-0.225,0.241 -0.379,0.761 -0.385,0.921c-0.004,0.117 0.252,0.104 0.348,0.037c0.201,-0.14 0.564,-0.74 0.857,-0.88c0.272,-0.13 0.866,-0.008 0.903,0.037c0.037,0.045 -0.55,0.141 -0.68,0.233c-0.091,0.065 -0.132,0.221 -0.1,0.32c0.032,0.1 0.164,0.236 0.291,0.276c0.152,0.047 0.417,0.044 0.621,0.009c0.236,-0.042 0.662,-0.276 0.794,-0.256c0.123,0.017 -0.076,0.338 0,0.37c0.076,0.033 0.33,-0.074 0.457,-0.176c0.161,-0.13 0.407,-0.4 0.511,-0.599c0.094,-0.179 0.111,-0.394 0.115,-0.596c0.005,-0.249 0.132,-0.689 -0.084,-0.898Z"
             style="fill:#0ef;"
             id="path13" /><path
             d="M36.443,171.07c-0.304,0.007 -0.718,-0.518 -0.899,-0.902c-0.203,-0.432 -0.474,-1.182 -0.317,-1.687c0.156,-0.505 0.737,-1.033 1.257,-1.341c0.519,-0.307 1.263,-0.414 1.862,-0.504c0.569,-0.086 1.277,-0.108 1.728,-0.038c0.355,0.057 0.691,0.243 0.975,0.463c0.292,0.226 0.646,0.669 0.775,0.894c0.075,0.129 0.15,0.451 -0,0.451c-0.3,-0 -1.295,-0.435 -1.796,-0.451c-0.419,-0.015 -1.235,0.268 -1.208,0.35c0.026,0.083 0.974,-0.036 1.368,0.145c0.393,0.181 0.864,0.717 0.994,0.941c0.076,0.131 -0.082,0.348 -0.216,0.4c-0.133,0.053 -0.387,-0.106 -0.583,-0.086c-0.415,0.041 -1.507,0.443 -1.907,0.335c-0.355,-0.097 -0.309,-1.001 -0.493,-0.987c-0.185,0.013 -0.366,0.741 -0.615,1.067c-0.257,0.336 -0.621,0.942 -0.925,0.95Z"
             style="fill:#0ef;"
             id="path14" /><path
             d="M34.562,176.443c-0.051,-0.216 0.353,-0.482 0.618,-0.581c0.409,-0.152 1.786,-0.547 1.837,-0.332c0.052,0.216 -1.12,1.474 -1.53,1.626c-0.364,0.135 -0.874,-0.497 -0.925,-0.713Z"
             style="fill:#0ef;"
             id="path15" /><path
             d="M37.432,175.468c-0.099,-0.109 -0.099,-0.959 0,-1.02c0.099,-0.062 0.595,0.482 0.595,0.652c0,0.17 -0.496,0.476 -0.595,0.368Z"
             style="fill:#0ef;"
             id="path16" /><path
             d="M34.152,181.346c0.172,-0.14 3.122,-0.646 3.54,-0.608c0.419,0.037 -0.595,0.76 -1.031,0.835c-0.59,0.101 -2.681,-0.088 -2.509,-0.227Z"
             style="fill:#0ef;"
             id="path17" /><path
             d="M31.603,179.429c0.309,-0.169 1.563,-0.451 2.103,-0.53c0.375,-0.055 0.765,0.138 1.135,0.056c0.552,-0.122 1.561,-0.734 2.178,-0.79c0.529,-0.048 1.272,0.461 1.526,0.453c0.167,-0.005 -0.133,-0.559 0,-0.501c0.134,0.059 1.174,0.737 0.802,0.852c-0.665,0.206 -3.757,0.305 -4.789,0.379c-0.468,0.034 -0.953,-0.026 -1.405,0.068c-0.451,0.094 -1.046,0.495 -1.304,0.497c-0.181,0.001 -0.405,-0.397 -0.246,-0.484Z"
             style="fill:#0ef;"
             id="path18" /><path
             d="M38.545,170.295c-0.136,0.122 0.735,0.403 0.882,0.532c0.061,0.054 -0.06,0.297 -0,0.243c0.136,-0.122 0.964,-0.846 0.817,-0.975c-0.147,-0.129 -1.563,0.078 -1.699,0.2Z"
             style="fill:#0ef;"
             id="path19" /><path
             d="M46.281,169.391c0.006,0.251 0.403,0.718 0.522,0.775c0.12,0.058 0.094,-0.411 0.194,-0.432c0.101,-0.02 0.382,0.431 0.411,0.308c0.029,-0.124 -0.128,-0.816 -0.235,-1.046c-0.074,-0.159 -0.258,-0.398 -0.407,-0.332c-0.148,0.066 -0.492,0.476 -0.485,0.727Z"
             style="fill:#0ef;"
             id="path20" /><path
             d="M47.641,166.892c0.034,-0.044 0.458,-0.167 0.562,-0.103c0.104,0.064 0.098,0.443 0.065,0.487c-0.034,0.044 -0.169,-0.161 -0.268,-0.221c-0.104,-0.064 -0.393,-0.118 -0.359,-0.163Z"
             style="fill:#0ef;"
             id="path21" /><path
             d="M30.829,183.392c0.463,1.094 1.554,5.927 2.153,7.569c0.309,0.845 0.774,1.697 1.443,2.283c0.669,0.586 1.63,1.097 2.57,1.236c1.239,0.183 4.04,0.034 4.859,-0.138c0.293,-0.062 -0.056,-0.62 0.057,-0.899c0.135,-0.329 0.404,-0.812 0.751,-1.08c1.704,-1.315 4.195,-4.187 4.437,-6.814c0.205,-2.232 -0.501,-5.641 -0.463,-6.537c0.008,-0.209 2.205,1.22 2.854,1.718c0.434,0.332 1.02,0.721 1.042,1.268c0.169,4.212 -4.862,9.033 -8.093,12.638c-0.25,0.279 -0.742,0.16 -1.074,0.333c-1.072,0.56 -4.934,3.057 -5.357,3.027c-0.979,-0.07 -3.021,-5.55 -3.89,-6.282c-0.589,-0.495 -1.331,3.074 -1.324,1.891c0.016,-2.67 0.678,-3.611 -0.588,-9.208c-0.087,-0.385 0.47,-1.368 0.623,-1.005Z"
             style="fill:#0ef;"
             id="path22" /></g></g><g
         id="illustration2"
         serif:id="illustration"><path
           d="M7.611,204.606c0.887,-3.364 2.229,-6.369 3.644,-9.063c1.184,-2.254 3.291,-4.956 4.518,-6.161c0.723,-0.709 1.926,-0.643 2.845,-1.069c1.581,-0.733 5.715,-1.985 6.644,-3.327c0.918,-1.327 -0.615,-3.174 -1.074,-4.721c-0.562,-1.893 -1.787,-4.349 -2.298,-6.632c-0.545,-2.433 -0.869,-5.828 -0.972,-7.965c-0.077,-1.621 -0.48,-3.465 0.357,-4.856c0.958,-1.592 3.999,-3.722 5.395,-4.7c0.872,-0.612 2.155,-0.971 2.976,-1.166c0.634,-0.15 1.415,0.151 1.954,0c0.505,-0.141 0.775,-1.029 1.284,-0.906c0.904,0.219 2.994,1.772 4.136,2.217c0.856,0.333 1.874,0.092 2.718,0.454c0.863,0.369 1.924,0.909 2.459,1.764c0.716,1.144 1.528,3.579 1.833,5.098c0.264,1.312 0,2.995 0,4.016c0,0.703 -0.217,1.441 0,2.109c0.267,0.821 1.594,1.545 1.598,2.813c0.006,1.795 -1.02,5.136 -2.918,5.983c-1.234,0.551 -0.342,2.426 0.373,4.147c0.424,1.02 2.264,0.709 3.062,1.523c1.017,1.035 1.818,3.477 3.034,4.688c1.177,1.172 2.915,1.61 4.264,2.578c1.449,1.039 2.98,2.409 4.431,3.66c2.123,1.831 6.446,4.782 8.304,7.322c1.657,2.264 0.404,-0.724 0.975,2.023l-59.542,0.171Z"
           style="fill:#2600ff;"
           id="path23" /><g
           id="white2"
           serif:id="white"><path
             id="face2"
             serif:id="face"
             d="M25.522,163.18c-0.504,0.402 -0.719,0.897 -1.111,1.44c-0.555,0.772 -0.483,1.932 -0.705,2.337c-0.173,0.314 -0.768,-1.328 -0.856,-0.937c-0.485,2.157 0.365,6.008 0.678,10.355c0.07,0.974 -0.42,-2.219 -0.617,-2.86c-0.112,-0.363 -0.406,-1.051 -0.566,-0.987c-0.161,0.064 -0.496,0.906 -0.398,1.372c0.415,1.973 1.881,7.7 3.157,9.97c0.149,0.265 0.554,0.609 0.576,0.669c0.392,1.089 0.584,1.547 1.325,2.427c0.809,0.959 2.229,2.256 3.449,2.398c1.219,0.141 2.859,-0.922 3.868,-1.549c4.922,-3.062 5.512,-5.64 6.802,-7.141c0.453,-0.527 0.76,-1.428 0.938,-1.863c0.096,-0.233 -0.045,-0.621 0.131,-0.745c0.176,-0.124 0.716,0.226 0.925,-0c0.482,-0.521 1.577,-2.124 1.965,-3.124c0.348,-0.9 0.519,-2.043 0.36,-2.875c-0.157,-0.816 -0.819,-2.083 -1.318,-2.118c-0.498,-0.034 -1.333,1.137 -1.675,1.911c-0.406,0.92 -0.554,3.003 -0.761,3.604c-0.053,0.153 -0.481,0.163 -0.486,0.001c-0.054,-1.749 -0.415,-3.355 -0.565,-5.039c-0.178,-2.011 0.267,-1.524 -0.261,-2.575c-0.548,-1.092 -0.532,-3.094 -1.106,-4.115c-0.505,-0.896 -1.352,-1.731 -2.342,-2.01c-1.017,-0.286 -2.757,0.232 -3.758,0.291c-0.75,0.045 -1.608,-0.028 -2.253,0.065c-0.557,0.081 -1.106,0.391 -1.615,0.494c-0.472,0.097 -0.981,-0.023 -1.438,0.129c-0.549,0.181 -1.466,0.883 -1.856,0.962c-0.225,0.045 -0.307,-0.63 -0.487,-0.487Z"
             style="fill:#000000;fill-opacity:1" /><path
             id="body2"
             serif:id="body"
             d="M67.391,205.155c-0.714,-2.582 -2.488,-3.975 -4.269,-5.859c-1.766,-1.869 -4.053,-3.166 -6.132,-4.678c-2.278,-1.658 -5.671,-3.51 -7.539,-5.27c-1.561,-1.47 -2.646,-4.262 -3.667,-5.288c-0.611,-0.615 -1.917,-0.185 -2.453,-0.868c-0.639,-0.814 -0.712,-4.614 -1.379,-4.017c-0.668,0.598 -1.429,5.289 -2.626,7.603c-1.189,2.296 -3.546,5.161 -4.557,6.276c-0.351,0.386 -1.421,0.769 -1.511,0.413c-0.09,-0.356 1.381,-1.862 0.971,-2.551c-0.41,-0.688 -2.462,-0.775 -3.43,-1.58c-1.432,-1.189 -3.8,-5.096 -5.158,-5.554c-1.297,-0.437 -1.807,2.128 -2.995,2.806c-1.575,0.9 -4.976,0.809 -6.458,2.594c-2.495,3.005 -7.105,11.646 -8.797,15.973l60,0Z"
             style="fill:#000000;fill-opacity:1" /></g><g
           id="black2"
           serif:id="black"><path
             d="M28.924,172.247c-0.251,-0.241 -1.018,-0.456 -1.417,-0.553c-0.318,-0.077 -0.753,-0.033 -0.98,-0.024c-0.129,0.004 -0.252,0.064 -0.382,0.075c-0.241,0.018 -0.784,0.037 -1.063,0.036c-0.203,0 -0.444,-0.157 -0.609,-0.038c-0.176,0.126 -0.372,0.596 -0.447,0.797c-0.047,0.128 -0.087,0.363 0,0.41c0.088,0.046 0.345,-0.126 0.525,-0.128c0.369,-0.004 1.568,-0.002 1.689,0.103c0.121,0.105 -0.739,0.284 -0.964,0.525c-0.225,0.24 -0.379,0.761 -0.385,0.92c-0.005,0.117 0.252,0.105 0.348,0.038c0.2,-0.141 0.564,-0.74 0.857,-0.881c0.272,-0.13 0.865,-0.007 0.903,0.037c0.037,0.045 -0.55,0.141 -0.68,0.233c-0.091,0.065 -0.132,0.221 -0.1,0.321c0.031,0.099 0.163,0.236 0.291,0.275c0.152,0.048 0.417,0.045 0.621,0.009c0.235,-0.042 0.662,-0.275 0.794,-0.256c0.122,0.018 -0.076,0.339 -0,0.371c0.076,0.032 0.329,-0.075 0.457,-0.177c0.161,-0.129 0.407,-0.4 0.511,-0.599c0.094,-0.179 0.111,-0.393 0.115,-0.596c0.005,-0.249 0.132,-0.689 -0.084,-0.898Z"
             style="fill:#2600ff;"
             id="path24" /><path
             d="M32.748,174.765c-0.304,0.007 -0.719,-0.518 -0.899,-0.902c-0.203,-0.432 -0.474,-1.182 -0.318,-1.687c0.157,-0.505 0.737,-1.033 1.257,-1.34c0.52,-0.308 1.264,-0.415 1.862,-0.505c0.57,-0.086 1.278,-0.108 1.728,-0.037c0.356,0.056 0.691,0.242 0.976,0.463c0.291,0.226 0.645,0.669 0.774,0.893c0.075,0.13 0.151,0.451 0,0.451c-0.299,-0 -1.295,-0.435 -1.795,-0.451c-0.42,-0.014 -1.235,0.268 -1.209,0.351c0.027,0.082 0.975,-0.036 1.368,0.145c0.394,0.181 0.865,0.716 0.995,0.94c0.076,0.131 -0.083,0.348 -0.216,0.4c-0.133,0.053 -0.387,-0.105 -0.583,-0.086c-0.415,0.042 -1.508,0.444 -1.908,0.335c-0.355,-0.096 -0.308,-1 -0.493,-0.987c-0.184,0.013 -0.365,0.741 -0.614,1.068c-0.257,0.336 -0.621,0.941 -0.925,0.949Z"
             style="fill:#2600ff;"
             id="path25" /><path
             d="M30.867,180.138c-0.051,-0.215 0.353,-0.482 0.618,-0.58c0.409,-0.152 1.786,-0.547 1.837,-0.332c0.051,0.215 -1.121,1.473 -1.53,1.625c-0.365,0.136 -0.874,-0.497 -0.925,-0.713Z"
             style="fill:#2600ff;"
             id="path26" /><path
             d="M33.737,179.163c-0.099,-0.109 -0.099,-0.959 -0,-1.02c0.099,-0.061 0.595,0.482 0.595,0.652c-0,0.17 -0.496,0.477 -0.595,0.368Z"
             style="fill:#2600ff;"
             id="path27" /><path
             d="M30.457,185.041c0.172,-0.14 3.122,-0.646 3.54,-0.608c0.418,0.038 -0.595,0.76 -1.031,0.835c-0.59,0.101 -2.681,-0.088 -2.509,-0.227Z"
             style="fill:#2600ff;"
             id="path28" /><path
             d="M27.907,183.124c0.31,-0.169 1.564,-0.451 2.104,-0.53c0.375,-0.055 0.765,0.138 1.135,0.056c0.552,-0.122 1.56,-0.734 2.178,-0.79c0.528,-0.048 1.272,0.462 1.526,0.454c0.167,-0.005 -0.134,-0.56 -0,-0.501c0.134,0.058 1.174,0.736 0.801,0.851c-0.664,0.206 -3.756,0.305 -4.789,0.38c-0.467,0.034 -0.953,-0.027 -1.404,0.067c-0.452,0.094 -1.046,0.495 -1.305,0.497c-0.18,0.002 -0.404,-0.397 -0.246,-0.484Z"
             style="fill:#2600ff;"
             id="path29" /><path
             d="M34.85,173.991c-0.136,0.122 0.735,0.402 0.882,0.532c0.06,0.053 -0.061,0.296 -0,0.242c0.136,-0.122 0.964,-0.845 0.817,-0.974c-0.147,-0.13 -1.563,0.078 -1.699,0.2Z"
             style="fill:#2600ff;"
             id="path30" /><path
             d="M42.585,173.086c0.007,0.251 0.404,0.718 0.523,0.776c0.119,0.057 0.093,-0.412 0.194,-0.433c0.101,-0.02 0.382,0.431 0.411,0.308c0.029,-0.123 -0.129,-0.816 -0.236,-1.046c-0.073,-0.158 -0.257,-0.398 -0.406,-0.331c-0.149,0.066 -0.492,0.476 -0.486,0.726Z"
             style="fill:#2600ff;"
             id="path31" /><path
             d="M43.946,170.588c0.034,-0.045 0.457,-0.168 0.562,-0.104c0.104,0.064 0.098,0.443 0.064,0.487c-0.034,0.044 -0.169,-0.16 -0.267,-0.221c-0.105,-0.064 -0.393,-0.118 -0.359,-0.162Z"
             style="fill:#2600ff;"
             id="path32" /><path
             d="M27.134,187.087c0.463,1.094 1.554,5.927 2.153,7.569c0.309,0.846 0.774,1.697 1.443,2.284c0.668,0.586 1.63,1.096 2.57,1.235c1.238,0.183 4.039,0.035 4.859,-0.138c0.293,-0.062 -0.056,-0.62 0.057,-0.898c0.135,-0.33 0.404,-0.812 0.751,-1.081c1.703,-1.315 4.195,-4.186 4.437,-6.813c0.205,-2.232 -0.502,-5.642 -0.464,-6.538c0.009,-0.209 2.206,1.221 2.855,1.718c0.434,0.333 1.02,0.721 1.042,1.268c0.169,4.212 -4.862,9.034 -8.093,12.638c-0.251,0.279 -0.742,0.16 -1.074,0.334c-1.072,0.56 -4.934,3.056 -5.357,3.026c-0.98,-0.069 -3.022,-5.549 -3.891,-6.281c-0.588,-0.496 -1.33,3.073 -1.323,1.89c0.015,-2.669 0.678,-3.611 -0.589,-9.208c-0.087,-0.385 0.47,-1.368 0.624,-1.005Z"
             style="fill:#2600ff;"
             id="path33" /></g></g><g
         id="illustration3"
         serif:id="illustration"><path
           d="M3.916,208.302c0.887,-3.365 2.229,-6.369 3.644,-9.064c1.184,-2.254 3.291,-4.956 4.518,-6.16c0.722,-0.71 1.925,-0.644 2.844,-1.069c1.582,-0.733 5.716,-1.986 6.644,-3.327c0.919,-1.328 -0.614,-3.175 -1.074,-4.722c-0.562,-1.892 -1.786,-4.349 -2.298,-6.632c-0.545,-2.433 -0.869,-5.828 -0.971,-7.965c-0.078,-1.621 -0.48,-3.465 0.356,-4.855c0.959,-1.593 4,-3.723 5.395,-4.701c0.873,-0.611 2.155,-0.971 2.977,-1.166c0.634,-0.149 1.414,0.151 1.954,0c0.504,-0.14 0.775,-1.028 1.284,-0.905c0.903,0.218 2.993,1.771 4.136,2.216c0.856,0.333 1.874,0.092 2.718,0.454c0.863,0.369 1.924,0.909 2.459,1.764c0.715,1.144 1.527,3.579 1.833,5.098c0.264,1.313 -0,2.996 -0,4.017c-0,0.703 -0.217,1.44 -0,2.109c0.266,0.82 1.594,1.544 1.598,2.812c0.005,1.795 -1.021,5.136 -2.918,5.983c-1.234,0.551 -0.342,2.426 0.373,4.147c0.423,1.021 2.264,0.709 3.062,1.523c1.016,1.035 1.818,3.478 3.034,4.689c1.177,1.171 2.915,1.609 4.264,2.577c1.449,1.04 2.98,2.409 4.43,3.661c2.123,1.83 6.447,4.781 8.305,7.321c1.656,2.264 0.404,-0.724 0.975,2.023l-59.542,0.172Z"
           style="fill:#8000db;"
           id="path34" /><g
           id="white3"
           serif:id="white"><path
             id="face3"
             serif:id="face"
             d="M21.827,166.875c-0.505,0.402 -0.72,0.897 -1.111,1.441c-0.555,0.771 -0.483,1.932 -0.706,2.336c-0.173,0.315 -0.767,-1.327 -0.855,-0.936c-0.485,2.156 0.365,6.007 0.678,10.355c0.07,0.973 -0.42,-2.219 -0.618,-2.861c-0.111,-0.362 -0.405,-1.051 -0.566,-0.987c-0.16,0.064 -0.496,0.906 -0.398,1.372c0.416,1.973 1.882,7.7 3.158,9.97c0.149,0.265 0.554,0.609 0.576,0.67c0.392,1.088 0.584,1.546 1.325,2.426c0.808,0.96 2.229,2.257 3.448,2.398c1.22,0.141 2.859,-0.922 3.868,-1.549c4.922,-3.061 5.513,-5.64 6.803,-7.14c0.453,-0.527 0.759,-1.429 0.938,-1.864c0.095,-0.233 -0.045,-0.621 0.131,-0.745c0.176,-0.124 0.715,0.227 0.925,0c0.481,-0.521 1.577,-2.124 1.964,-3.124c0.349,-0.9 0.52,-2.042 0.361,-2.874c-0.157,-0.817 -0.819,-2.084 -1.318,-2.118c-0.499,-0.035 -1.333,1.136 -1.675,1.911c-0.406,0.919 -0.554,3.002 -0.762,3.603c-0.053,0.153 -0.48,0.163 -0.485,0.002c-0.055,-1.75 -0.415,-3.356 -0.565,-5.039c-0.179,-2.011 0.266,-1.524 -0.261,-2.576c-0.548,-1.092 -0.532,-3.094 -1.107,-4.114c-0.504,-0.897 -1.351,-1.732 -2.341,-2.011c-1.017,-0.286 -2.757,0.233 -3.759,0.292c-0.75,0.045 -1.608,-0.029 -2.252,0.064c-0.558,0.081 -1.107,0.391 -1.615,0.495c-0.472,0.096 -0.982,-0.024 -1.438,0.128c-0.549,0.182 -1.466,0.883 -1.857,0.962c-0.225,0.046 -0.307,-0.63 -0.486,-0.487Z"
             style="fill:#000000;fill-opacity:1" /><path
             id="body3"
             serif:id="body"
             d="M63.695,208.851c-0.714,-2.582 -2.488,-3.976 -4.268,-5.86c-1.766,-1.869 -4.053,-3.166 -6.132,-4.678c-2.278,-1.658 -5.672,-3.51 -7.539,-5.269c-1.562,-1.471 -2.647,-4.262 -3.667,-5.288c-0.612,-0.616 -1.918,-0.186 -2.453,-0.869c-0.639,-0.814 -0.712,-4.614 -1.38,-4.016c-0.667,0.598 -1.429,5.289 -2.626,7.602c-1.188,2.296 -3.545,5.161 -4.557,6.276c-0.35,0.386 -1.42,0.77 -1.51,0.413c-0.09,-0.356 1.381,-1.862 0.971,-2.55c-0.41,-0.689 -2.462,-0.776 -3.431,-1.581c-1.431,-1.189 -3.799,-5.096 -5.158,-5.554c-1.296,-0.437 -1.806,2.128 -2.994,2.807c-1.575,0.9 -4.976,0.808 -6.458,2.593c-2.495,3.006 -7.106,11.647 -8.798,15.974l60,-0Z"
             style="fill:#000000;fill-opacity:1" /></g><g
           id="black3"
           serif:id="black"><path
             d="M25.228,175.943c-0.25,-0.242 -1.017,-0.457 -1.416,-0.554c-0.318,-0.076 -0.753,-0.033 -0.98,-0.024c-0.13,0.005 -0.253,0.065 -0.382,0.075c-0.241,0.018 -0.784,0.037 -1.063,0.037c-0.204,-0 -0.444,-0.157 -0.609,-0.039c-0.176,0.127 -0.373,0.597 -0.447,0.797c-0.048,0.129 -0.088,0.363 -0,0.41c0.087,0.047 0.344,-0.126 0.524,-0.128c0.369,-0.004 1.569,-0.001 1.69,0.104c0.121,0.104 -0.74,0.283 -0.964,0.524c-0.225,0.241 -0.379,0.761 -0.385,0.92c-0.005,0.117 0.252,0.105 0.347,0.038c0.201,-0.141 0.564,-0.74 0.858,-0.881c0.271,-0.13 0.865,-0.007 0.902,0.038c0.037,0.045 -0.549,0.14 -0.679,0.232c-0.092,0.066 -0.133,0.222 -0.101,0.321c0.032,0.099 0.164,0.236 0.292,0.276c0.152,0.047 0.416,0.044 0.62,0.008c0.236,-0.041 0.662,-0.275 0.795,-0.256c0.122,0.018 -0.076,0.339 -0,0.371c0.076,0.032 0.329,-0.074 0.456,-0.177c0.162,-0.129 0.407,-0.4 0.512,-0.599c0.094,-0.179 0.111,-0.393 0.115,-0.596c0.005,-0.249 0.131,-0.689 -0.085,-0.897Z"
             style="fill:#8000db;"
             id="path35" /><path
             d="M29.053,178.46c-0.304,0.008 -0.719,-0.518 -0.9,-0.902c-0.202,-0.432 -0.474,-1.182 -0.317,-1.686c0.157,-0.505 0.737,-1.034 1.257,-1.341c0.52,-0.308 1.264,-0.414 1.862,-0.505c0.57,-0.085 1.277,-0.107 1.728,-0.037c0.356,0.056 0.691,0.242 0.976,0.463c0.291,0.226 0.645,0.669 0.774,0.893c0.075,0.13 0.151,0.451 0,0.451c-0.299,0 -1.295,-0.434 -1.796,-0.451c-0.419,-0.014 -1.235,0.269 -1.208,0.351c0.027,0.083 0.974,-0.036 1.368,0.145c0.394,0.181 0.864,0.717 0.994,0.94c0.076,0.131 -0.082,0.348 -0.215,0.4c-0.133,0.053 -0.388,-0.105 -0.583,-0.085c-0.415,0.041 -1.508,0.443 -1.908,0.334c-0.355,-0.096 -0.308,-1 -0.493,-0.987c-0.185,0.014 -0.366,0.741 -0.615,1.068c-0.256,0.336 -0.62,0.941 -0.924,0.949Z"
             style="fill:#8000db;"
             id="path36" /><path
             d="M27.172,183.834c-0.052,-0.216 0.352,-0.483 0.617,-0.581c0.41,-0.152 1.787,-0.547 1.838,-0.332c0.051,0.216 -1.121,1.473 -1.53,1.625c-0.365,0.136 -0.874,-0.497 -0.925,-0.712Z"
             style="fill:#8000db;"
             id="path37" /><path
             d="M30.042,182.859c-0.1,-0.109 -0.1,-0.959 -0,-1.021c0.099,-0.061 0.594,0.482 0.594,0.652c0,0.171 -0.495,0.477 -0.594,0.369Z"
             style="fill:#8000db;"
             id="path38" /><path
             d="M26.762,188.736c0.172,-0.139 3.122,-0.646 3.54,-0.608c0.418,0.038 -0.596,0.76 -1.032,0.835c-0.59,0.102 -2.68,-0.088 -2.508,-0.227Z"
             style="fill:#8000db;"
             id="path39" /><path
             d="M24.212,186.819c0.31,-0.169 1.564,-0.451 2.104,-0.53c0.374,-0.055 0.765,0.138 1.135,0.057c0.552,-0.122 1.56,-0.735 2.177,-0.791c0.529,-0.048 1.272,0.462 1.527,0.454c0.167,-0.005 -0.134,-0.559 -0,-0.501c0.133,0.058 1.174,0.737 0.801,0.852c-0.664,0.205 -3.757,0.304 -4.789,0.379c-0.467,0.034 -0.953,-0.026 -1.405,0.067c-0.451,0.095 -1.045,0.495 -1.304,0.497c-0.181,0.002 -0.405,-0.397 -0.246,-0.484Z"
             style="fill:#8000db;"
             id="path40" /><path
             d="M31.155,177.686c-0.137,0.122 0.734,0.403 0.881,0.532c0.061,0.053 -0.06,0.296 0,0.242c0.137,-0.122 0.965,-0.845 0.818,-0.974c-0.147,-0.129 -1.563,0.078 -1.699,0.2Z"
             style="fill:#8000db;"
             id="path41" /><path
             d="M38.89,176.781c0.006,0.251 0.403,0.719 0.523,0.776c0.119,0.057 0.093,-0.411 0.194,-0.432c0.1,-0.021 0.381,0.43 0.411,0.307c0.029,-0.123 -0.129,-0.816 -0.236,-1.046c-0.074,-0.158 -0.258,-0.397 -0.406,-0.331c-0.149,0.066 -0.492,0.476 -0.486,0.726Z"
             style="fill:#8000db;"
             id="path42" /><path
             d="M40.251,174.283c0.033,-0.044 0.457,-0.168 0.561,-0.103c0.105,0.064 0.099,0.442 0.065,0.486c-0.034,0.045 -0.169,-0.16 -0.268,-0.221c-0.104,-0.063 -0.392,-0.118 -0.358,-0.162Z"
             style="fill:#8000db;"
             id="path43" /><path
             d="M23.438,190.782c0.463,1.094 1.554,5.927 2.154,7.57c0.308,0.845 0.773,1.696 1.442,2.283c0.669,0.586 1.63,1.096 2.571,1.235c1.238,0.184 4.039,0.035 4.858,-0.138c0.294,-0.062 -0.056,-0.62 0.058,-0.898c0.134,-0.33 0.403,-0.812 0.75,-1.08c1.704,-1.316 4.196,-4.187 4.437,-6.814c0.206,-2.232 -0.501,-5.642 -0.463,-6.538c0.009,-0.208 2.205,1.221 2.854,1.719c0.434,0.332 1.021,0.721 1.043,1.267c0.169,4.212 -4.863,9.034 -8.094,12.638c-0.25,0.279 -0.742,0.16 -1.074,0.334c-1.072,0.56 -4.933,3.057 -5.356,3.027c-0.98,-0.07 -3.022,-5.55 -3.891,-6.282c-0.589,-0.495 -1.331,3.073 -1.324,1.891c0.016,-2.67 0.678,-3.611 -0.588,-9.209c-0.087,-0.384 0.47,-1.368 0.623,-1.005Z"
             style="fill:#8000db;"
             id="path44" /></g></g><g
         id="illustration4"
         serif:id="illustration"><path
           d="M0.221,211.997c0.887,-3.365 2.229,-6.369 3.644,-9.063c1.184,-2.255 3.29,-4.956 4.517,-6.161c0.723,-0.71 1.926,-0.643 2.845,-1.069c1.582,-0.733 5.716,-1.986 6.644,-3.327c0.919,-1.327 -0.614,-3.174 -1.074,-4.722c-0.562,-1.892 -1.787,-4.349 -2.298,-6.631c-0.545,-2.434 -0.869,-5.829 -0.971,-7.966c-0.078,-1.621 -0.481,-3.464 0.356,-4.855c0.959,-1.592 4,-3.723 5.395,-4.7c0.873,-0.612 2.155,-0.972 2.977,-1.166c0.634,-0.15 1.414,0.151 1.954,-0c0.504,-0.141 0.775,-1.029 1.284,-0.906c0.903,0.218 2.993,1.772 4.135,2.216c0.856,0.334 1.874,0.092 2.719,0.454c0.862,0.37 1.924,0.909 2.459,1.765c0.715,1.144 1.527,3.578 1.833,5.097c0.264,1.313 -0,2.996 -0,4.017c-0,0.703 -0.218,1.441 -0,2.109c0.266,0.821 1.594,1.545 1.598,2.812c0.005,1.796 -1.021,5.137 -2.918,5.983c-1.234,0.551 -0.342,2.427 0.372,4.148c0.424,1.02 2.264,0.709 3.063,1.522c1.016,1.035 1.818,3.478 3.034,4.689c1.177,1.172 2.914,1.609 4.264,2.577c1.448,1.04 2.979,2.41 4.43,3.661c2.123,1.831 6.446,4.782 8.305,7.322c1.656,2.264 0.403,-0.724 0.975,2.022l-59.542,0.172Z"
           style="fill:#ffffff;fill-opacity:1"
           id="path45" /><g
           id="white4"
           serif:id="white"><path
             id="face4"
             serif:id="face"
             d="M18.131,170.571c-0.504,0.402 -0.719,0.896 -1.11,1.44c-0.555,0.772 -0.483,1.932 -0.706,2.337c-0.173,0.314 -0.767,-1.328 -0.855,-0.937c-0.485,2.156 0.365,6.007 0.678,10.355c0.07,0.973 -0.421,-2.219 -0.618,-2.86c-0.112,-0.363 -0.405,-1.052 -0.566,-0.988c-0.161,0.064 -0.496,0.906 -0.398,1.372c0.415,1.973 1.881,7.701 3.157,9.97c0.149,0.265 0.555,0.61 0.576,0.67c0.393,1.088 0.584,1.546 1.326,2.426c0.808,0.96 2.229,2.257 3.448,2.398c1.219,0.142 2.859,-0.921 3.868,-1.549c4.922,-3.061 5.513,-5.64 6.803,-7.14c0.453,-0.527 0.759,-1.429 0.937,-1.863c0.096,-0.234 -0.045,-0.621 0.131,-0.745c0.176,-0.125 0.716,0.226 0.926,-0c0.481,-0.521 1.576,-2.124 1.964,-3.124c0.349,-0.901 0.52,-2.043 0.36,-2.875c-0.156,-0.816 -0.819,-2.084 -1.317,-2.118c-0.499,-0.034 -1.333,1.136 -1.676,1.911c-0.406,0.919 -0.553,3.002 -0.761,3.603c-0.053,0.153 -0.48,0.164 -0.485,0.002c-0.055,-1.749 -0.416,-3.355 -0.565,-5.039c-0.179,-2.011 0.266,-1.524 -0.262,-2.576c-0.548,-1.091 -0.531,-3.093 -1.106,-4.114c-0.505,-0.897 -1.352,-1.731 -2.342,-2.011c-1.016,-0.286 -2.756,0.233 -3.758,0.292c-0.75,0.045 -1.608,-0.028 -2.253,0.065c-0.557,0.08 -1.106,0.391 -1.615,0.494c-0.471,0.097 -0.981,-0.023 -1.438,0.128c-0.549,0.182 -1.465,0.883 -1.856,0.963c-0.225,0.045 -0.307,-0.63 -0.487,-0.487Z"
             style="fill:#000000;fill-opacity:1" /><path
             id="body4"
             serif:id="body"
             d="M60,212.546c-0.714,-2.582 -2.488,-3.976 -4.269,-5.86c-1.765,-1.868 -4.052,-3.166 -6.131,-4.678c-2.279,-1.658 -5.672,-3.509 -7.539,-5.269c-1.562,-1.471 -2.647,-4.262 -3.667,-5.288c-0.612,-0.616 -1.918,-0.186 -2.454,-0.868c-0.638,-0.814 -0.711,-4.615 -1.379,-4.017c-0.668,0.598 -1.429,5.289 -2.626,7.602c-1.188,2.296 -3.546,5.161 -4.557,6.276c-0.351,0.387 -1.421,0.77 -1.511,0.413c-0.09,-0.355 1.381,-1.861 0.972,-2.55c-0.41,-0.688 -2.462,-0.776 -3.431,-1.581c-1.431,-1.188 -3.799,-5.096 -5.158,-5.554c-1.296,-0.437 -1.807,2.128 -2.994,2.807c-1.576,0.9 -4.976,0.809 -6.458,2.594c-2.496,3.005 -7.106,11.646 -8.798,15.973l60,-0Z"
             style="fill:#000000;fill-opacity:1" /></g><g
           id="black4"
           serif:id="black"><path
             d="M21.533,179.638c-0.25,-0.242 -1.017,-0.457 -1.417,-0.553c-0.317,-0.077 -0.752,-0.033 -0.979,-0.025c-0.13,0.005 -0.253,0.065 -0.382,0.075c-0.241,0.018 -0.785,0.038 -1.063,0.037c-0.204,0 -0.444,-0.157 -0.61,-0.038c-0.176,0.126 -0.372,0.596 -0.446,0.797c-0.048,0.128 -0.088,0.362 -0,0.409c0.087,0.047 0.344,-0.126 0.524,-0.128c0.369,-0.004 1.568,-0.001 1.689,0.104c0.121,0.104 -0.739,0.283 -0.964,0.524c-0.225,0.241 -0.379,0.761 -0.385,0.921c-0.004,0.117 0.252,0.104 0.348,0.037c0.201,-0.141 0.564,-0.74 0.858,-0.88c0.271,-0.13 0.865,-0.008 0.902,0.037c0.037,0.045 -0.55,0.141 -0.68,0.233c-0.091,0.065 -0.132,0.221 -0.1,0.32c0.032,0.1 0.164,0.236 0.291,0.276c0.152,0.047 0.417,0.044 0.621,0.009c0.236,-0.042 0.662,-0.276 0.794,-0.256c0.123,0.017 -0.076,0.338 0,0.37c0.076,0.033 0.33,-0.074 0.457,-0.176c0.161,-0.13 0.407,-0.4 0.511,-0.6c0.094,-0.178 0.111,-0.393 0.115,-0.595c0.005,-0.249 0.132,-0.689 -0.084,-0.898Z"
             style="fill:#ffffff;fill-opacity:1"
             id="path46" /><path
             d="M25.357,182.156c-0.304,0.007 -0.718,-0.518 -0.899,-0.903c-0.203,-0.431 -0.474,-1.182 -0.317,-1.686c0.156,-0.505 0.737,-1.033 1.257,-1.341c0.52,-0.307 1.263,-0.414 1.862,-0.504c0.569,-0.086 1.277,-0.108 1.728,-0.038c0.355,0.056 0.691,0.243 0.975,0.463c0.292,0.226 0.646,0.669 0.775,0.893c0.075,0.13 0.15,0.452 -0,0.452c-0.3,-0 -1.295,-0.435 -1.796,-0.452c-0.419,-0.014 -1.235,0.269 -1.208,0.351c0.026,0.083 0.974,-0.036 1.368,0.145c0.393,0.181 0.864,0.717 0.994,0.941c0.076,0.131 -0.082,0.347 -0.215,0.4c-0.134,0.052 -0.388,-0.106 -0.584,-0.086c-0.415,0.041 -1.507,0.443 -1.907,0.335c-0.355,-0.097 -0.309,-1.001 -0.493,-0.988c-0.185,0.014 -0.366,0.742 -0.615,1.068c-0.257,0.336 -0.621,0.942 -0.925,0.95Z"
             style="fill:#ffffff;fill-opacity:1"
             id="path47" /><path
             d="M23.476,187.529c-0.051,-0.216 0.353,-0.483 0.618,-0.581c0.409,-0.152 1.786,-0.547 1.838,-0.332c0.051,0.216 -1.121,1.473 -1.53,1.626c-0.365,0.135 -0.874,-0.498 -0.926,-0.713Z"
             style="fill:#ffffff;fill-opacity:1"
             id="path48" /><path
             d="M26.346,186.554c-0.099,-0.109 -0.099,-0.959 0,-1.02c0.099,-0.062 0.595,0.481 0.595,0.652c0,0.17 -0.496,0.476 -0.595,0.368Z"
             style="fill:#ffffff;fill-opacity:1"
             id="path49" /><path
             d="M23.066,192.432c0.172,-0.14 3.122,-0.646 3.541,-0.608c0.418,0.037 -0.596,0.76 -1.032,0.835c-0.59,0.101 -2.681,-0.088 -2.509,-0.227Z"
             style="fill:#ffffff;fill-opacity:1"
             id="path50" /><path
             d="M20.517,190.515c0.309,-0.169 1.564,-0.451 2.103,-0.53c0.375,-0.055 0.766,0.138 1.135,0.056c0.553,-0.122 1.561,-0.734 2.178,-0.791c0.529,-0.047 1.272,0.462 1.526,0.454c0.167,-0.005 -0.133,-0.559 0,-0.501c0.134,0.059 1.174,0.737 0.802,0.852c-0.665,0.205 -3.757,0.305 -4.789,0.379c-0.468,0.034 -0.953,-0.026 -1.405,0.068c-0.451,0.094 -1.046,0.494 -1.304,0.497c-0.181,0.001 -0.405,-0.397 -0.246,-0.484Z"
             style="fill:#ffffff;fill-opacity:1"
             id="path51" /><path
             d="M27.459,181.381c-0.136,0.122 0.735,0.403 0.882,0.532c0.061,0.054 -0.06,0.297 -0,0.243c0.136,-0.122 0.964,-0.846 0.817,-0.975c-0.147,-0.129 -1.562,0.078 -1.699,0.2Z"
             style="fill:#ffffff;fill-opacity:1"
             id="path52" /><path
             d="M35.195,180.477c0.006,0.25 0.403,0.718 0.522,0.775c0.12,0.058 0.094,-0.411 0.194,-0.432c0.101,-0.02 0.382,0.431 0.411,0.308c0.029,-0.124 -0.128,-0.816 -0.235,-1.046c-0.074,-0.159 -0.258,-0.398 -0.407,-0.332c-0.148,0.066 -0.491,0.476 -0.485,0.727Z"
             style="fill:#ffffff;fill-opacity:1"
             id="path53" /><path
             d="M36.555,177.978c0.034,-0.044 0.458,-0.167 0.562,-0.103c0.104,0.064 0.098,0.443 0.065,0.487c-0.034,0.044 -0.169,-0.161 -0.268,-0.222c-0.104,-0.063 -0.393,-0.118 -0.359,-0.162Z"
             style="fill:#ffffff;fill-opacity:1"
             id="path54" /></g></g><g
         id="logo"><g
           id="g56"><circle
             cx="23.704"
             cy="344.694"
             r="1.627"
             style="fill:#8000db;"
             id="circle54" /><path
             d="M23.704,344.694l5.554,0"
             style="fill:none;stroke:#8000db;stroke-width:1.35px;"
             id="path55" /><path
             d="M29.258,341.914c0,-1.533 -1.244,-2.777 -2.777,-2.777l-5.554,-0c-1.532,-0 -2.777,1.244 -2.777,2.777l0,5.56c0,1.533 1.245,2.777 2.777,2.777l5.554,0c1.533,0 2.777,-1.244 2.777,-2.777l0,-5.56Z"
             style="fill:none;stroke:#8000db;stroke-width:1.35px;stroke-linejoin:round;stroke-miterlimit:3;"
             id="path56" /></g><g
           id="g57"><circle
             cx="36.302"
             cy="356.811"
             r="1.627"
             style="fill:#f00;"
             id="circle56" /><path
             d="M39.079,351.254l-5.554,-0c-1.532,-0 -2.777,0.802 -2.777,1.79l0,7.535c0,0.988 1.245,1.79 2.777,1.79l5.554,-0c1.533,-0 2.777,-0.802 2.777,-1.79l0,-3.768l-5.554,0"
             style="fill:none;stroke:#f00;stroke-width:1.35px;stroke-linecap:round;stroke-linejoin:round;stroke-miterlimit:3;"
             id="path57" /></g><g
           id="g58"><circle
             cx="36.302"
             cy="344.694"
             r="1.627"
             style="fill:#2600ff;"
             id="circle57" /><path
             d="M41.856,350.251l0,-8.981c0,-1.177 -1.244,-2.133 -2.777,-2.133l-5.554,-0c-1.532,-0 -2.777,0.956 -2.777,2.133l0,8.981"
             style="fill:none;stroke:#2600ff;stroke-width:1.35px;stroke-linecap:round;stroke-linejoin:round;stroke-miterlimit:3;"
             id="path58" /></g><g
           id="g59"><circle
             cx="23.701"
             cy="356.811"
             r="1.627"
             style="fill:#0ef;"
             id="circle58" /><path
             d="M18.144,362.369l-0,-11.115l11.114,11.115l0,-11.115"
             style="fill:none;stroke:#0ef;stroke-width:1.35px;stroke-linecap:round;stroke-linejoin:round;"
             id="path59" /></g></g></g></g></svg>
