<?xml version="1.0" encoding="UTF-8" standalone="no"?><!DOCTYPE svg PUBLIC "-//W3C//DTD SVG 1.1//EN" "http://www.w3.org/Graphics/SVG/1.1/DTD/svg11.dtd"><svg width="100%" height="100%" viewBox="0 0 45 380" version="1.1" xmlns="http://www.w3.org/2000/svg" xmlns:xlink="http://www.w3.org/1999/xlink" xml:space="preserve" xmlns:serif="http://www.serif.com/" style="fill-rule:evenodd;clip-rule:evenodd;stroke-linejoin:round;stroke-miterlimit:2;"><rect id="JeremyBlankPanel" x="0" y="0" width="45" height="379.559" style="fill:none;"/><clipPath id="_clip1"><rect x="0" y="0" width="45" height="379.559"/></clipPath><g clip-path="url(#_clip1)"><g id="Layer1"><rect id="background" x="0" y="0" width="45" height="379.559" style="fill:#e6e6e6;"/><rect id="Edited" x="0" y="174.201" width="45" height="36.8" style="fill:#e6e6e6;"/><clipPath id="_clip2"><rect x="0" y="174.201" width="45" height="36.8"/></clipPath><g clip-path="url(#_clip2)"><g id="illustration"><path d="M1.972,210.606c0.638,-2.422 1.604,-4.584 2.623,-6.524c0.852,-1.622 2.368,-3.567 3.252,-4.434c0.52,-0.511 1.386,-0.463 2.047,-0.77c1.138,-0.527 4.114,-1.429 4.782,-2.394c0.661,-0.956 -0.442,-2.285 -0.773,-3.399c-0.404,-1.362 -1.286,-3.13 -1.654,-4.773c-0.392,-1.752 -0.625,-4.195 -0.699,-5.733c-0.056,-1.167 -0.346,-2.494 0.257,-3.495c0.69,-1.146 2.879,-2.68 3.883,-3.383c0.628,-0.441 1.551,-0.7 2.142,-0.84c0.457,-0.108 1.018,0.109 1.407,0c0.363,-0.101 0.558,-0.74 0.924,-0.652c0.65,0.158 2.154,1.276 2.977,1.596c0.616,0.239 1.348,0.066 1.956,0.326c0.621,0.266 1.385,0.655 1.77,1.27c0.515,0.824 1.1,2.576 1.32,3.67c0.19,0.944 -0,2.156 -0,2.891c-0,0.506 -0.157,1.037 -0,1.518c0.191,0.59 1.147,1.111 1.15,2.024c0.004,1.292 -0.735,3.697 -2.1,4.306c-0.889,0.397 -0.247,1.747 0.268,2.986c0.305,0.734 1.629,0.51 2.204,1.096c0.732,0.745 1.309,2.503 2.184,3.374c0.847,0.844 2.098,1.159 3.069,1.856c1.043,0.748 2.145,1.734 3.189,2.634c1.528,1.318 4.64,3.442 5.977,5.27c1.193,1.63 0.291,-0.521 0.702,1.456" style="fill:#001322;"/><g id="white"><path id="face" d="M14.864,180.788c-0.363,0.289 -0.518,0.645 -0.8,1.037c-0.399,0.555 -0.347,1.39 -0.508,1.682c-0.124,0.226 -0.552,-0.956 -0.615,-0.675c-0.349,1.552 0.262,4.324 0.488,7.454c0.05,0.7 -0.303,-1.598 -0.445,-2.059c-0.08,-0.261 -0.292,-0.757 -0.407,-0.711c-0.116,0.046 -0.357,0.652 -0.287,0.988c0.299,1.42 1.354,5.542 2.273,7.176c0.107,0.191 0.399,0.439 0.414,0.482c0.283,0.783 0.421,1.113 0.954,1.746c0.582,0.691 1.605,1.625 2.482,1.726c0.878,0.102 2.058,-0.663 2.784,-1.115c3.543,-2.203 3.968,-4.059 4.897,-5.139c0.326,-0.379 0.547,-1.028 0.675,-1.341c0.069,-0.168 -0.033,-0.447 0.094,-0.536c0.127,-0.09 0.515,0.162 0.666,-0c0.347,-0.375 1.135,-1.529 1.414,-2.249c0.251,-0.648 0.374,-1.47 0.259,-2.069c-0.112,-0.588 -0.589,-1.5 -0.948,-1.525c-0.359,-0.024 -0.959,0.818 -1.206,1.376c-0.292,0.662 -0.398,2.161 -0.548,2.593c-0.038,0.111 -0.346,0.118 -0.349,0.002c-0.039,-1.26 -0.299,-2.415 -0.407,-3.627c-0.128,-1.448 0.192,-1.097 -0.188,-1.854c-0.394,-0.786 -0.383,-2.227 -0.796,-2.962c-0.364,-0.645 -0.973,-1.246 -1.686,-1.447c-0.732,-0.206 -1.984,0.168 -2.705,0.21c-0.54,0.032 -1.157,-0.02 -1.621,0.047c-0.401,0.058 -0.797,0.281 -1.163,0.355c-0.339,0.07 -0.706,-0.016 -1.035,0.093c-0.395,0.13 -1.055,0.635 -1.336,0.692c-0.162,0.033 -0.221,-0.453 -0.35,-0.35Z" style="fill:#e6e6e6;"/><path id="body" d="M45,211.001c-0.514,-1.858 -1.791,-2.862 -3.072,-4.218c-1.271,-1.345 -2.917,-2.278 -4.414,-3.367c-1.64,-1.193 -4.082,-2.526 -5.426,-3.793c-1.124,-1.058 -1.905,-3.067 -2.64,-3.806c-0.44,-0.443 -1.38,-0.133 -1.766,-0.625c-0.459,-0.586 -0.512,-3.321 -0.993,-2.891c-0.48,0.431 -1.028,3.807 -1.89,5.472c-0.855,1.653 -2.552,3.715 -3.28,4.518c-0.252,0.278 -1.022,0.553 -1.087,0.297c-0.065,-0.256 0.994,-1.34 0.699,-1.836c-0.295,-0.495 -1.772,-0.558 -2.469,-1.138c-1.031,-0.855 -2.735,-3.668 -3.713,-3.997c-0.933,-0.315 -1.3,1.531 -2.155,2.02c-1.134,0.648 -3.582,0.582 -4.648,1.867c-1.797,2.163 -5.115,8.383 -6.333,11.497" style="fill:#e6e6e6;"/></g><g id="black"><path d="M17.312,187.314c-0.18,-0.174 -0.732,-0.328 -1.02,-0.398c-0.228,-0.055 -0.541,-0.023 -0.705,-0.017c-0.093,0.003 -0.182,0.046 -0.275,0.054c-0.173,0.013 -0.564,0.027 -0.765,0.026c-0.146,0 -0.319,-0.113 -0.438,-0.028c-0.127,0.091 -0.268,0.43 -0.322,0.574c-0.034,0.092 -0.063,0.261 -0,0.295c0.063,0.034 0.248,-0.091 0.377,-0.092c0.266,-0.003 1.129,-0.001 1.216,0.075c0.087,0.075 -0.532,0.203 -0.693,0.377c-0.162,0.173 -0.273,0.548 -0.278,0.662c-0.003,0.085 0.182,0.076 0.251,0.027c0.144,-0.101 0.406,-0.532 0.617,-0.634c0.195,-0.093 0.623,-0.005 0.649,0.027c0.027,0.033 -0.395,0.102 -0.489,0.168c-0.065,0.047 -0.095,0.159 -0.072,0.231c0.023,0.071 0.118,0.17 0.21,0.198c0.109,0.034 0.3,0.032 0.446,0.006c0.17,-0.03 0.477,-0.198 0.572,-0.184c0.088,0.013 -0.055,0.244 0,0.267c0.055,0.023 0.237,-0.054 0.329,-0.127c0.116,-0.093 0.293,-0.288 0.368,-0.432c0.068,-0.128 0.08,-0.283 0.083,-0.428c0.004,-0.18 0.095,-0.496 -0.061,-0.647Z" style="fill:#001322;"/><path d="M20.065,189.127c-0.219,0.005 -0.517,-0.373 -0.647,-0.65c-0.146,-0.311 -0.342,-0.851 -0.229,-1.214c0.113,-0.363 0.531,-0.743 0.905,-0.965c0.374,-0.221 0.909,-0.298 1.34,-0.363c0.41,-0.062 0.92,-0.077 1.244,-0.027c0.256,0.041 0.497,0.175 0.702,0.333c0.21,0.163 0.465,0.482 0.558,0.643c0.054,0.094 0.108,0.325 -0,0.325c-0.216,0 -0.933,-0.313 -1.293,-0.325c-0.302,-0.01 -0.889,0.194 -0.87,0.253c0.019,0.059 0.702,-0.026 0.985,0.104c0.283,0.131 0.622,0.516 0.716,0.677c0.054,0.094 -0.06,0.25 -0.155,0.288c-0.096,0.038 -0.279,-0.076 -0.42,-0.062c-0.299,0.03 -1.085,0.319 -1.373,0.241c-0.256,-0.069 -0.222,-0.72 -0.355,-0.71c-0.133,0.009 -0.263,0.533 -0.443,0.768c-0.184,0.242 -0.446,0.678 -0.665,0.684Z" style="fill:#001322;"/><path d="M18.711,192.994c-0.037,-0.155 0.254,-0.347 0.444,-0.418c0.295,-0.109 1.286,-0.393 1.323,-0.239c0.037,0.156 -0.807,1.061 -1.101,1.17c-0.263,0.098 -0.629,-0.358 -0.666,-0.513Z" style="fill:#001322;"/><path d="M20.777,192.292c-0.072,-0.078 -0.072,-0.69 -0,-0.734c0.071,-0.044 0.428,0.347 0.428,0.469c-0,0.123 -0.357,0.343 -0.428,0.265Z" style="fill:#001322;"/><path d="M18.416,196.523c0.124,-0.1 2.247,-0.465 2.548,-0.437c0.301,0.027 -0.429,0.546 -0.743,0.6c-0.424,0.073 -1.929,-0.063 -1.805,-0.163Z" style="fill:#001322;"/><path d="M16.581,195.143c0.223,-0.121 1.125,-0.324 1.514,-0.381c0.27,-0.04 0.551,0.099 0.817,0.04c0.397,-0.088 1.123,-0.528 1.567,-0.569c0.381,-0.034 0.916,0.333 1.099,0.327c0.12,-0.004 -0.096,-0.403 -0,-0.361c0.096,0.042 0.845,0.531 0.577,0.613c-0.479,0.148 -2.704,0.22 -3.447,0.273c-0.337,0.025 -0.686,-0.018 -1.011,0.049c-0.325,0.068 -0.753,0.356 -0.939,0.358c-0.13,0.001 -0.292,-0.286 -0.177,-0.349Z" style="fill:#001322;"/><path d="M21.578,188.569c-0.098,0.088 0.529,0.29 0.634,0.383c0.044,0.039 -0.043,0.213 0,0.175c0.098,-0.088 0.695,-0.609 0.589,-0.702c-0.106,-0.093 -1.125,0.056 -1.223,0.144Z" style="fill:#001322;"/><path d="M27.146,187.918c0.004,0.181 0.29,0.517 0.376,0.558c0.086,0.042 0.067,-0.296 0.139,-0.311c0.073,-0.015 0.275,0.31 0.296,0.222c0.021,-0.089 -0.092,-0.588 -0.169,-0.753c-0.053,-0.114 -0.186,-0.286 -0.293,-0.239c-0.107,0.048 -0.354,0.343 -0.349,0.523Z" style="fill:#001322;"/><path d="M28.125,186.12c0.024,-0.032 0.329,-0.121 0.404,-0.075c0.075,0.047 0.071,0.319 0.047,0.351c-0.025,0.032 -0.122,-0.116 -0.193,-0.159c-0.075,-0.046 -0.283,-0.085 -0.258,-0.117Z" style="fill:#001322;"/><path d="M16.024,197.996c0.333,0.787 1.118,4.266 1.55,5.448c0.222,0.609 0.556,1.221 1.038,1.643c0.481,0.422 1.173,0.79 1.85,0.89c0.891,0.132 2.907,0.025 3.497,-0.1c0.212,-0.044 -0.04,-0.446 0.042,-0.646c0.097,-0.237 0.29,-0.585 0.54,-0.778c1.226,-0.947 3.02,-3.013 3.194,-4.904c0.148,-1.607 -0.361,-4.061 -0.334,-4.706c0.006,-0.15 1.587,0.879 2.055,1.237c0.312,0.239 0.734,0.519 0.75,0.912c0.122,3.032 -3.5,6.503 -5.826,9.097c-0.18,0.201 -0.534,0.115 -0.773,0.24c-0.771,0.403 -3.551,2.2 -3.855,2.179c-0.705,-0.051 -2.175,-3.995 -2.801,-4.522c-0.423,-0.356 -0.958,2.212 -0.953,1.361c0.012,-1.921 0.489,-2.599 -0.423,-6.628c-0.062,-0.277 0.338,-0.985 0.449,-0.723Z" style="fill:#001322;"/></g></g></g></g></g></svg>