<?xml version="1.0" encoding="UTF-8" standalone="no"?><!DOCTYPE svg PUBLIC "-//W3C//DTD SVG 1.1//EN" "http://www.w3.org/Graphics/SVG/1.1/DTD/svg11.dtd"><svg width="100%" height="100%" viewBox="0 0 60 380" version="1.1" xmlns="http://www.w3.org/2000/svg" xmlns:xlink="http://www.w3.org/1999/xlink" xml:space="preserve" xmlns:serif="http://www.serif.com/" style="fill-rule:evenodd;clip-rule:evenodd;stroke-linejoin:round;stroke-miterlimit:2;"><rect id="JeremyBlankPanel" x="0" y="0" width="60" height="379.559" style="fill:none;"/><clipPath id="_clip1"><rect x="0" y="0" width="60" height="379.559"/></clipPath><g clip-path="url(#_clip1)"><g id="Layer1"><rect id="background" x="-0" y="0" width="60" height="379.559" style="fill:#e6e6e6;"/><g id="illustration"><path d="M0.221,211.997c0.887,-3.365 2.229,-6.369 3.644,-9.063c1.184,-2.255 3.29,-4.956 4.517,-6.161c0.723,-0.71 1.926,-0.643 2.845,-1.069c1.582,-0.733 5.716,-1.986 6.644,-3.327c0.919,-1.327 -0.614,-3.174 -1.074,-4.722c-0.562,-1.892 -1.787,-4.349 -2.298,-6.631c-0.545,-2.434 -0.869,-5.829 -0.971,-7.966c-0.078,-1.621 -0.481,-3.464 0.356,-4.855c0.959,-1.592 4,-3.723 5.395,-4.7c0.873,-0.612 2.155,-0.972 2.977,-1.166c0.634,-0.15 1.414,0.151 1.954,-0c0.504,-0.141 0.775,-1.029 1.284,-0.906c0.903,0.218 2.993,1.772 4.135,2.216c0.856,0.334 1.874,0.092 2.719,0.454c0.862,0.37 1.924,0.909 2.459,1.765c0.715,1.144 1.527,3.578 1.833,5.097c0.264,1.313 -0,2.996 -0,4.017c-0,0.703 -0.218,1.441 -0,2.109c0.266,0.821 1.594,1.545 1.598,2.812c0.005,1.796 -1.021,5.137 -2.918,5.983c-1.234,0.551 -0.342,2.427 0.372,4.148c0.424,1.02 2.264,0.709 3.063,1.522c1.016,1.035 1.818,3.478 3.034,4.689c1.177,1.172 2.914,1.609 4.264,2.577c1.448,1.04 2.979,2.41 4.43,3.661c2.123,1.831 6.446,4.782 8.305,7.322c1.656,2.264 0.403,-0.724 0.975,2.022l-59.542,0.172Z" style="fill:#001322;"/><g id="white"><path id="face" d="M18.131,170.571c-0.504,0.402 -0.719,0.896 -1.11,1.44c-0.555,0.772 -0.483,1.932 -0.706,2.337c-0.173,0.314 -0.767,-1.328 -0.855,-0.937c-0.485,2.156 0.365,6.007 0.678,10.355c0.07,0.973 -0.421,-2.219 -0.618,-2.86c-0.112,-0.363 -0.405,-1.052 -0.566,-0.988c-0.161,0.064 -0.496,0.906 -0.398,1.372c0.415,1.973 1.881,7.701 3.157,9.97c0.149,0.265 0.555,0.61 0.576,0.67c0.393,1.088 0.584,1.546 1.326,2.426c0.808,0.96 2.229,2.257 3.448,2.398c1.219,0.142 2.859,-0.921 3.868,-1.549c4.922,-3.061 5.513,-5.64 6.803,-7.14c0.453,-0.527 0.759,-1.429 0.937,-1.863c0.096,-0.234 -0.045,-0.621 0.131,-0.745c0.176,-0.125 0.716,0.226 0.926,-0c0.481,-0.521 1.576,-2.124 1.964,-3.124c0.349,-0.901 0.52,-2.043 0.36,-2.875c-0.156,-0.816 -0.819,-2.084 -1.317,-2.118c-0.499,-0.034 -1.333,1.136 -1.676,1.911c-0.406,0.919 -0.553,3.002 -0.761,3.603c-0.053,0.153 -0.48,0.164 -0.485,0.002c-0.055,-1.749 -0.416,-3.355 -0.565,-5.039c-0.179,-2.011 0.266,-1.524 -0.262,-2.576c-0.548,-1.091 -0.531,-3.093 -1.106,-4.114c-0.505,-0.897 -1.352,-1.731 -2.342,-2.011c-1.016,-0.286 -2.756,0.233 -3.758,0.292c-0.75,0.045 -1.608,-0.028 -2.253,0.065c-0.557,0.08 -1.106,0.391 -1.615,0.494c-0.471,0.097 -0.981,-0.023 -1.438,0.128c-0.549,0.182 -1.465,0.883 -1.856,0.963c-0.225,0.045 -0.307,-0.63 -0.487,-0.487Z" style="fill:#e6e6e6;"/><path id="body" d="M60,212.546c-0.714,-2.582 -2.488,-3.976 -4.269,-5.86c-1.765,-1.868 -4.052,-3.166 -6.131,-4.678c-2.279,-1.658 -5.672,-3.509 -7.539,-5.269c-1.562,-1.471 -2.647,-4.262 -3.667,-5.288c-0.612,-0.616 -1.918,-0.186 -2.454,-0.868c-0.638,-0.814 -0.711,-4.615 -1.379,-4.017c-0.668,0.598 -1.429,5.289 -2.626,7.602c-1.188,2.296 -3.546,5.161 -4.557,6.276c-0.351,0.387 -1.421,0.77 -1.511,0.413c-0.09,-0.355 1.381,-1.861 0.972,-2.55c-0.41,-0.688 -2.462,-0.776 -3.431,-1.581c-1.431,-1.188 -3.799,-5.096 -5.158,-5.554c-1.296,-0.437 -1.807,2.128 -2.994,2.807c-1.576,0.9 -4.976,0.809 -6.458,2.594c-2.496,3.005 -7.106,11.646 -8.798,15.973l60,-0Z" style="fill:#e6e6e6;"/></g><g id="black"><path d="M21.533,179.638c-0.25,-0.242 -1.017,-0.457 -1.417,-0.553c-0.317,-0.077 -0.752,-0.033 -0.979,-0.025c-0.13,0.005 -0.253,0.065 -0.382,0.075c-0.241,0.018 -0.785,0.038 -1.063,0.037c-0.204,0 -0.444,-0.157 -0.61,-0.038c-0.176,0.126 -0.372,0.596 -0.446,0.797c-0.048,0.128 -0.088,0.362 -0,0.409c0.087,0.047 0.344,-0.126 0.524,-0.128c0.369,-0.004 1.568,-0.001 1.689,0.104c0.121,0.104 -0.739,0.283 -0.964,0.524c-0.225,0.241 -0.379,0.761 -0.385,0.921c-0.004,0.117 0.252,0.104 0.348,0.037c0.201,-0.141 0.564,-0.74 0.858,-0.88c0.271,-0.13 0.865,-0.008 0.902,0.037c0.037,0.045 -0.55,0.141 -0.68,0.233c-0.091,0.065 -0.132,0.221 -0.1,0.32c0.032,0.1 0.164,0.236 0.291,0.276c0.152,0.047 0.417,0.044 0.621,0.009c0.236,-0.042 0.662,-0.276 0.794,-0.256c0.123,0.017 -0.076,0.338 0,0.37c0.076,0.033 0.33,-0.074 0.457,-0.176c0.161,-0.13 0.407,-0.4 0.511,-0.6c0.094,-0.178 0.111,-0.393 0.115,-0.595c0.005,-0.249 0.132,-0.689 -0.084,-0.898Z" style="fill:#001322;"/><path d="M25.357,182.156c-0.304,0.007 -0.718,-0.518 -0.899,-0.903c-0.203,-0.431 -0.474,-1.182 -0.317,-1.686c0.156,-0.505 0.737,-1.033 1.257,-1.341c0.52,-0.307 1.263,-0.414 1.862,-0.504c0.569,-0.086 1.277,-0.108 1.728,-0.038c0.355,0.056 0.691,0.243 0.975,0.463c0.292,0.226 0.646,0.669 0.775,0.893c0.075,0.13 0.15,0.452 -0,0.452c-0.3,-0 -1.295,-0.435 -1.796,-0.452c-0.419,-0.014 -1.235,0.269 -1.208,0.351c0.026,0.083 0.974,-0.036 1.368,0.145c0.393,0.181 0.864,0.717 0.994,0.941c0.076,0.131 -0.082,0.347 -0.215,0.4c-0.134,0.052 -0.388,-0.106 -0.584,-0.086c-0.415,0.041 -1.507,0.443 -1.907,0.335c-0.355,-0.097 -0.309,-1.001 -0.493,-0.988c-0.185,0.014 -0.366,0.742 -0.615,1.068c-0.257,0.336 -0.621,0.942 -0.925,0.95Z" style="fill:#001322;"/><path d="M23.476,187.529c-0.051,-0.216 0.353,-0.483 0.618,-0.581c0.409,-0.152 1.786,-0.547 1.838,-0.332c0.051,0.216 -1.121,1.473 -1.53,1.626c-0.365,0.135 -0.874,-0.498 -0.926,-0.713Z" style="fill:#001322;"/><path d="M26.346,186.554c-0.099,-0.109 -0.099,-0.959 0,-1.02c0.099,-0.062 0.595,0.481 0.595,0.652c0,0.17 -0.496,0.476 -0.595,0.368Z" style="fill:#001322;"/><path d="M23.066,192.432c0.172,-0.14 3.122,-0.646 3.541,-0.608c0.418,0.037 -0.596,0.76 -1.032,0.835c-0.59,0.101 -2.681,-0.088 -2.509,-0.227Z" style="fill:#001322;"/><path d="M20.517,190.515c0.309,-0.169 1.564,-0.451 2.103,-0.53c0.375,-0.055 0.766,0.138 1.135,0.056c0.553,-0.122 1.561,-0.734 2.178,-0.791c0.529,-0.047 1.272,0.462 1.526,0.454c0.167,-0.005 -0.133,-0.559 0,-0.501c0.134,0.059 1.174,0.737 0.802,0.852c-0.665,0.205 -3.757,0.305 -4.789,0.379c-0.468,0.034 -0.953,-0.026 -1.405,0.068c-0.451,0.094 -1.046,0.494 -1.304,0.497c-0.181,0.001 -0.405,-0.397 -0.246,-0.484Z" style="fill:#001322;"/><path d="M27.459,181.381c-0.136,0.122 0.735,0.403 0.882,0.532c0.061,0.054 -0.06,0.297 -0,0.243c0.136,-0.122 0.964,-0.846 0.817,-0.975c-0.147,-0.129 -1.562,0.078 -1.699,0.2Z" style="fill:#001322;"/><path d="M35.195,180.477c0.006,0.25 0.403,0.718 0.522,0.775c0.12,0.058 0.094,-0.411 0.194,-0.432c0.101,-0.02 0.382,0.431 0.411,0.308c0.029,-0.124 -0.128,-0.816 -0.235,-1.046c-0.074,-0.159 -0.258,-0.398 -0.407,-0.332c-0.148,0.066 -0.491,0.476 -0.485,0.727Z" style="fill:#001322;"/><path d="M36.555,177.978c0.034,-0.044 0.458,-0.167 0.562,-0.103c0.104,0.064 0.098,0.443 0.065,0.487c-0.034,0.044 -0.169,-0.161 -0.268,-0.222c-0.104,-0.063 -0.393,-0.118 -0.359,-0.162Z" style="fill:#001322;"/><path d="M19.743,194.478c0.463,1.094 1.554,5.927 2.153,7.569c0.309,0.845 0.774,1.696 1.443,2.283c0.669,0.586 1.63,1.097 2.571,1.236c1.238,0.183 4.039,0.034 4.858,-0.138c0.293,-0.062 -0.056,-0.621 0.057,-0.899c0.135,-0.329 0.404,-0.812 0.751,-1.08c1.704,-1.315 4.195,-4.187 4.437,-6.814c0.206,-2.232 -0.501,-5.641 -0.463,-6.537c0.009,-0.209 2.205,1.22 2.854,1.718c0.434,0.332 1.02,0.721 1.042,1.268c0.17,4.212 -4.862,9.033 -8.093,12.638c-0.25,0.279 -0.742,0.16 -1.074,0.333c-1.072,0.56 -4.934,3.057 -5.356,3.027c-0.98,-0.07 -3.022,-5.55 -3.891,-6.282c-0.589,-0.495 -1.331,3.074 -1.324,1.891c0.016,-2.67 0.678,-3.611 -0.588,-9.208c-0.087,-0.385 0.47,-1.368 0.623,-1.005Z" style="fill:#001322;"/></g></g></g></g></svg>