<?xml version="1.0" encoding="UTF-8" standalone="no"?><!DOCTYPE svg PUBLIC "-//W3C//DTD SVG 1.1//EN" "http://www.w3.org/Graphics/SVG/1.1/DTD/svg11.dtd"><svg width="100%" height="100%" viewBox="0 0 540 380" version="1.1" xmlns="http://www.w3.org/2000/svg" xmlns:xlink="http://www.w3.org/1999/xlink" xml:space="preserve" xmlns:serif="http://www.serif.com/" style="fill-rule:evenodd;clip-rule:evenodd;stroke-linecap:round;stroke-linejoin:round;stroke-miterlimit:1.5;"><rect id="Neutrinode" x="0" y="0" width="540" height="379.559" style="fill:none;"/><clipPath id="_clip1"><rect x="0" y="0" width="540" height="379.559"/></clipPath><g clip-path="url(#_clip1)"><g id="Layer1"><rect id="background" x="-9.15" y="-7.016" width="557.155" height="393.592" style="fill:#e6e6e6;"/><path d="M548.005,-7.016l-557.155,-0l-0,393.591l557.155,0l-0,-393.591Zm-556.155,1l-0,391.591l555.155,0l-0,-391.591l-555.155,-0Z" style="fill:#646464;"/><rect id="rect" x="161.2" y="0.78" width="378" height="378" style="fill:#333;"/><rect x="11.307" y="175.39" width="73.932" height="183.181" style="fill:#282828;fill-opacity:0.1;"/><g><path d="M30.757,28.901l-1.775,-0l-4.937,-9.791l0,9.791l-1.6,-0l0,-12.402l1.786,0l4.956,9.703l-0,-9.703l1.57,0l0,12.402Z" style="fill:#8000db;fill-rule:nonzero;"/><path d="M42.835,24.365l-6.975,0c-0,1.038 0.333,1.893 1,2.567c0.666,0.674 1.484,1.011 2.453,1.011c0.924,-0 1.877,-0.15 2.859,-0.449l0.263,1.099c-0.897,0.363 -1.945,0.545 -3.141,0.545c-1.509,-0 -2.725,-0.437 -3.649,-1.31c-0.924,-0.873 -1.385,-2.05 -1.385,-3.533c-0,-1.453 0.414,-2.612 1.244,-3.476c0.829,-0.864 1.9,-1.296 3.214,-1.296c1.171,-0 2.15,0.401 2.937,1.204c0.787,0.803 1.18,1.872 1.18,3.208l0,0.43Zm-1.658,-1.116c-0,-0.715 -0.248,-1.317 -0.742,-1.806c-0.494,-0.489 -1.047,-0.734 -1.658,-0.734c-0.787,0 -1.439,0.235 -1.956,0.703c-0.517,0.469 -0.805,1.081 -0.864,1.837l5.22,0Z" style="fill:#8000db;fill-rule:nonzero;"/><path d="M54.503,28.901l-1.522,-0l0,-1.354c-1.092,1.049 -2.244,1.573 -3.453,1.573c-1.906,0 -2.859,-1.04 -2.859,-3.12l0,-6.258l1.522,0l0,5.863c0,0.779 0.137,1.361 0.41,1.744c0.273,0.384 0.735,0.576 1.385,0.576c0.93,0 1.929,-0.521 2.995,-1.564l0,-6.619l1.522,0l0,9.159Z" style="fill:#8000db;fill-rule:nonzero;"/><path d="M66.61,28.488c-1.021,0.421 -2.026,0.632 -3.014,0.632c-1.815,0 -2.722,-0.864 -2.722,-2.592l-0,-5.599l-1.952,-0l0,-1.187l1.952,0l-0,-2.504l1.483,-0l-0,2.504l3.453,0l0,1.187l-3.453,-0l-0,5.238c-0,0.557 0.136,0.989 0.409,1.297c0.273,0.307 0.644,0.461 1.112,0.461c0.833,0 1.656,-0.167 2.469,-0.501l0.263,1.064Z" style="fill:#8000db;fill-rule:nonzero;"/><path d="M78.659,19.989l-0.615,1.318c-0.67,-0.264 -1.249,-0.396 -1.737,-0.396c-0.448,0 -0.887,0.116 -1.317,0.348c-0.429,0.231 -0.824,0.562 -1.185,0.993c-0.361,0.43 -0.541,0.672 -0.541,0.725l-0,5.924l-1.513,-0l0,-9.159l1.513,0l-0,1.855c0.813,-1.383 1.866,-2.074 3.16,-2.074c0.768,-0 1.513,0.155 2.235,0.466Z" style="fill:#8000db;fill-rule:nonzero;"/><path d="M87.214,16.28c0.287,-0 0.531,0.092 0.732,0.276c0.202,0.185 0.303,0.406 0.303,0.664c-0,0.269 -0.1,0.495 -0.298,0.677c-0.198,0.181 -0.444,0.272 -0.737,0.272c-0.266,0 -0.502,-0.095 -0.707,-0.285c-0.205,-0.191 -0.307,-0.412 -0.307,-0.664c-0,-0.252 0.102,-0.472 0.307,-0.659c0.205,-0.188 0.441,-0.281 0.707,-0.281Zm0.742,12.621l-1.522,-0l0,-7.972l-2.995,-0l-0,-1.187l4.517,0l-0,9.159Z" style="fill:#8000db;fill-rule:nonzero;"/><path d="M102.482,28.901l-1.522,-0l0,-5.871c0,-0.815 -0.144,-1.405 -0.434,-1.771c-0.289,-0.367 -0.743,-0.55 -1.361,-0.55c-0.93,0 -1.928,0.522 -2.995,1.565l0,6.627l-1.522,-0l0,-9.159l1.522,0l0,1.345c1.093,-1.043 2.244,-1.564 3.454,-1.564c1.906,-0 2.858,1.037 2.858,3.111l0,6.267Z" style="fill:#8000db;fill-rule:nonzero;"/><path d="M110.531,19.523c1.398,-0 2.51,0.439 3.336,1.318c0.826,0.879 1.239,2.036 1.239,3.472c0,1.447 -0.413,2.613 -1.239,3.498c-0.826,0.885 -1.938,1.327 -3.336,1.327c-1.405,-0 -2.519,-0.441 -3.341,-1.323c-0.823,-0.882 -1.235,-2.049 -1.235,-3.502c0,-1.442 0.413,-2.6 1.239,-3.476c0.826,-0.876 1.939,-1.314 3.337,-1.314Zm-0,8.42c0.924,-0 1.652,-0.352 2.185,-1.055c0.534,-0.703 0.8,-1.556 0.8,-2.558c0,-1.054 -0.263,-1.922 -0.79,-2.601c-0.527,-0.68 -1.258,-1.02 -2.195,-1.02c-0.943,0 -1.675,0.336 -2.195,1.007c-0.52,0.67 -0.781,1.542 -0.781,2.614c0,1.02 0.264,1.877 0.791,2.571c0.526,0.694 1.255,1.042 2.185,1.042Z" style="fill:#8000db;fill-rule:nonzero;"/><path d="M126.423,28.901l-1.522,-0l0,-1.319c-0.312,0.451 -0.759,0.824 -1.341,1.116c-0.582,0.293 -1.195,0.44 -1.839,0.44c-1.164,-0 -2.085,-0.467 -2.761,-1.402c-0.676,-0.934 -1.015,-2.12 -1.015,-3.555c0,-1.342 0.353,-2.454 1.059,-3.336c0.706,-0.881 1.641,-1.322 2.805,-1.322c1.281,-0 2.312,0.468 3.092,1.406l0,-4.43l1.522,0l0,12.402Zm-1.522,-2.804l0,-3.806c-0.728,-1.054 -1.606,-1.582 -2.634,-1.582c-0.839,0 -1.502,0.336 -1.99,1.007c-0.488,0.67 -0.732,1.519 -0.732,2.544c0,1.055 0.23,1.926 0.688,2.615c0.459,0.688 1.088,1.032 1.888,1.032c0.384,0 0.771,-0.093 1.161,-0.281c0.39,-0.187 0.758,-0.469 1.102,-0.844c0.345,-0.375 0.517,-0.603 0.517,-0.685Z" style="fill:#8000db;fill-rule:nonzero;"/><path d="M138.755,24.365l-6.976,0c0,1.038 0.334,1.893 1,2.567c0.667,0.674 1.485,1.011 2.454,1.011c0.923,-0 1.876,-0.15 2.858,-0.449l0.264,1.099c-0.898,0.363 -1.945,0.545 -3.142,0.545c-1.509,-0 -2.725,-0.437 -3.648,-1.31c-0.924,-0.873 -1.386,-2.05 -1.386,-3.533c0,-1.453 0.415,-2.612 1.244,-3.476c0.829,-0.864 1.901,-1.296 3.215,-1.296c1.17,-0 2.149,0.401 2.936,1.204c0.787,0.803 1.181,1.872 1.181,3.208l-0,0.43Zm-1.659,-1.116c0,-0.715 -0.247,-1.317 -0.741,-1.806c-0.495,-0.489 -1.047,-0.734 -1.659,-0.734c-0.787,0 -1.439,0.235 -1.956,0.703c-0.517,0.469 -0.805,1.081 -0.863,1.837l5.219,0Z" style="fill:#8000db;fill-rule:nonzero;"/><g id="TinyPurpleButton"><circle id="PurpleButton" cx="110.536" cy="24.33" r="5.04" style="fill:#fff;stroke:#8000db;stroke-width:1px;"/><circle id="PurpleButton1" serif:id="PurpleButton" cx="110.536" cy="24.33" r="3.1" style="fill:#8000db;"/></g></g><g><path d="M93.902,179.84c0.771,-0 1.36,0.293 1.765,0.878c0.405,0.586 0.608,1.438 0.608,2.556c-0,1.113 -0.202,1.962 -0.606,2.549c-0.403,0.588 -0.992,0.881 -1.767,0.881c-0.768,0 -1.355,-0.292 -1.76,-0.878c-0.406,-0.586 -0.608,-1.436 -0.608,-2.552c-0,-1.115 0.202,-1.966 0.605,-2.553c0.404,-0.587 0.991,-0.881 1.763,-0.881Zm-0,6.19c1.015,-0 1.523,-0.919 1.523,-2.756c0,-1.839 -0.508,-2.759 -1.523,-2.759c-0.495,-0 -0.872,0.238 -1.131,0.714c-0.258,0.477 -0.388,1.158 -0.388,2.045c0,0.897 0.129,1.58 0.386,2.05c0.257,0.471 0.635,0.706 1.133,0.706Z" style="fill-rule:nonzero;"/><path d="M101.993,186.578l-0.889,-0l-2.471,-5.22l0,5.22l-0.8,-0l-0,-6.612l0.893,0l2.481,5.173l-0,-5.173l0.786,0l-0,6.612Z" style="fill-rule:nonzero;"/></g><g><path d="M44.899,326.513l-0.839,-0l-0.762,-2.315l-2.261,0l-0.771,2.315l-0.83,-0l2.251,-6.611l0.961,-0l2.251,6.611Zm-1.831,-2.985l-0.903,-2.736l-0.898,2.736l1.801,0Z" style="fill-rule:nonzero;"/><path d="M50.158,326.513l-3.75,-0l0,-6.611l0.801,-0l-0,5.941l2.949,-0l0,0.67Z" style="fill-rule:nonzero;"/><path d="M56.159,326.513l-3.75,-0l0,-6.611l0.801,-0l-0,5.941l2.949,-0l0,0.67Z" style="fill-rule:nonzero;"/></g><g><path d="M123.272,179.84c0.771,-0 1.36,0.293 1.765,0.878c0.405,0.586 0.608,1.438 0.608,2.556c-0,1.113 -0.202,1.962 -0.606,2.549c-0.403,0.588 -0.993,0.881 -1.767,0.881c-0.769,0 -1.355,-0.292 -1.761,-0.878c-0.405,-0.586 -0.607,-1.436 -0.607,-2.552c-0,-1.115 0.201,-1.966 0.605,-2.553c0.404,-0.587 0.991,-0.881 1.763,-0.881Zm-0,6.19c1.015,-0 1.523,-0.919 1.523,-2.756c0,-1.839 -0.508,-2.759 -1.523,-2.759c-0.495,-0 -0.872,0.238 -1.131,0.714c-0.258,0.477 -0.388,1.158 -0.388,2.045c0,0.897 0.129,1.58 0.386,2.05c0.257,0.471 0.635,0.706 1.133,0.706Z" style="fill-rule:nonzero;"/><path d="M131.514,186.166c-0.54,0.359 -1.167,0.538 -1.88,0.538c-0.892,0 -1.57,-0.293 -2.034,-0.881c-0.464,-0.587 -0.695,-1.436 -0.695,-2.549c-0,-1.074 0.224,-1.915 0.673,-2.523c0.45,-0.607 1.135,-0.911 2.056,-0.911c0.332,-0 0.661,0.04 0.986,0.122c0.326,0.081 0.588,0.189 0.786,0.323l-0.263,0.604c-0.459,-0.249 -0.962,-0.374 -1.509,-0.374c-0.635,-0 -1.107,0.221 -1.416,0.663c-0.309,0.442 -0.464,1.141 -0.464,2.096c0,1.837 0.627,2.756 1.88,2.756c0.531,-0 1.074,-0.157 1.631,-0.469l0.249,0.605Z" style="fill-rule:nonzero;"/><path d="M137.818,180.59l-2.124,-0l-0,5.988l-0.796,-0l-0,-5.988l-2.134,-0l-0,-0.624l5.054,0l-0,0.624Z" style="fill-rule:nonzero;"/></g><g><path d="M53.457,45.39c0.459,0.103 0.819,0.303 1.079,0.6c0.261,0.296 0.391,0.649 0.391,1.059c-0,0.599 -0.227,1.077 -0.681,1.433c-0.454,0.357 -1,0.535 -1.638,0.535l-1.958,-0l-0,-6.612l1.909,0c0.664,0 1.183,0.14 1.557,0.42c0.375,0.279 0.562,0.673 0.562,1.183c-0,0.312 -0.108,0.59 -0.325,0.834c-0.216,0.243 -0.515,0.42 -0.896,0.529l0,0.019Zm-2.007,-0.356l0.938,-0c0.98,-0 1.47,-0.336 1.47,-1.008c-0,-0.306 -0.121,-0.541 -0.362,-0.705c-0.241,-0.164 -0.594,-0.246 -1.059,-0.246l-0.987,0l0,1.959Zm0,3.313l0.909,-0c0.53,-0 0.951,-0.116 1.262,-0.347c0.311,-0.231 0.466,-0.548 0.466,-0.951c0,-0.428 -0.153,-0.759 -0.459,-0.994c-0.306,-0.234 -0.749,-0.351 -1.328,-0.351l-0.85,-0l0,2.643Z" style="fill-rule:nonzero;"/><path d="M56.88,42.405l1.748,0c0.661,0 1.19,0.159 1.587,0.478c0.397,0.319 0.596,0.758 0.596,1.317c-0,0.562 -0.198,1.011 -0.594,1.347c-0.395,0.336 -0.913,0.504 -1.555,0.504l-0.981,-0l-0,2.966l-0.801,-0l0,-6.612Zm0.801,2.976l0.869,-0c0.941,-0 1.411,-0.378 1.411,-1.134c0,-0.35 -0.128,-0.633 -0.383,-0.848c-0.256,-0.216 -0.585,-0.324 -0.989,-0.324l-0.908,0l-0,2.306Z" style="fill-rule:nonzero;"/><path d="M66.851,49.017l-0.772,-0l0,-5.67l-1.04,2.713l-0.757,-0l-1.04,-2.713l0,5.67l-0.771,-0l-0,-6.612l1.04,0l1.152,3.013l1.148,-3.013l1.04,0l-0,6.612Z" style="fill-rule:nonzero;"/></g><g><path d="M15.267,42.279l1.748,-0c0.66,-0 1.189,0.159 1.587,0.478c0.397,0.318 0.595,0.757 0.595,1.316c0,0.563 -0.198,1.012 -0.593,1.347c-0.396,0.336 -0.914,0.504 -1.555,0.504l-0.982,0l0,2.966l-0.8,0l-0,-6.611Zm0.8,2.975l0.869,0c0.941,0 1.412,-0.378 1.412,-1.134c-0,-0.35 -0.128,-0.632 -0.384,-0.848c-0.255,-0.216 -0.585,-0.323 -0.988,-0.323l-0.909,-0l0,2.305Z" style="fill-rule:nonzero;"/><path d="M25.018,48.89l-3.75,0l-0,-6.611l0.8,-0l0,5.941l2.95,0l-0,0.67Z" style="fill-rule:nonzero;"/><path d="M31.761,48.89l-0.84,0l-0.762,-2.315l-2.261,0l-0.771,2.315l-0.83,0l2.251,-6.611l0.962,-0l2.251,6.611Zm-1.831,-2.985l-0.904,-2.736l-0.898,2.736l1.802,0Z" style="fill-rule:nonzero;"/><path d="M37.581,42.279l-2.153,3.781l-0,2.83l-0.796,0l-0,-2.83l-2.154,-3.781l0.904,-0l1.645,2.975l1.651,-2.975l0.903,-0Z" style="fill-rule:nonzero;"/></g><text x="41.953px" y="125.629px" style="font-family:'AndaleMono', 'Andale Mono', monospace;font-size:9.596px;">C<tspan x="47.954px " y="125.629px ">#</tspan></text><text x="41.734px" y="155.788px" style="font-family:'AndaleMono', 'Andale Mono', monospace;font-size:9.596px;">M<tspan x="47.735px 53.736px 59.737px 65.737px " y="155.788px 155.788px 155.788px 155.788px ">ajor</tspan></text><g><path d="M120.037,43.136c-0.41,-0.134 -0.799,-0.201 -1.167,-0.201c-0.417,-0 -0.756,0.091 -1.018,0.274c-0.262,0.182 -0.393,0.443 -0.393,0.78c-0,0.4 0.343,0.751 1.03,1.054c0.508,0.225 0.844,0.381 1.008,0.469c0.165,0.087 0.331,0.207 0.501,0.361c0.169,0.153 0.305,0.333 0.407,0.541c0.103,0.207 0.154,0.441 0.154,0.7c0,0.644 -0.225,1.143 -0.676,1.497c-0.451,0.355 -0.982,0.532 -1.594,0.532c-0.593,0 -1.112,-0.112 -1.558,-0.337l0.166,-0.661c0.524,0.228 0.982,0.342 1.372,0.342c0.456,0 0.821,-0.113 1.096,-0.34c0.275,-0.226 0.413,-0.538 0.413,-0.934c0,-0.294 -0.09,-0.543 -0.269,-0.748c-0.179,-0.204 -0.509,-0.413 -0.991,-0.625c-0.495,-0.219 -0.814,-0.368 -0.959,-0.448c-0.145,-0.079 -0.289,-0.19 -0.432,-0.33c-0.144,-0.141 -0.254,-0.298 -0.332,-0.473c-0.079,-0.175 -0.118,-0.366 -0.118,-0.572c0,-0.547 0.206,-0.973 0.616,-1.279c0.41,-0.306 0.929,-0.459 1.557,-0.459c0.459,-0 0.915,0.067 1.367,0.201l-0.18,0.656Z" style="fill-rule:nonzero;"/><path d="M122.82,42.405l1.748,0c0.661,0 1.19,0.159 1.587,0.478c0.397,0.319 0.596,0.758 0.596,1.317c-0,0.562 -0.198,1.011 -0.594,1.347c-0.395,0.336 -0.913,0.504 -1.555,0.504l-0.981,-0l-0,2.966l-0.801,-0l0,-6.612Zm0.801,2.976l0.869,-0c0.941,-0 1.411,-0.378 1.411,-1.134c0,-0.35 -0.128,-0.633 -0.383,-0.848c-0.256,-0.216 -0.585,-0.324 -0.989,-0.324l-0.908,0l-0,2.306Z" style="fill-rule:nonzero;"/><path d="M132.42,49.017l-3.599,-0l-0,-6.612l3.569,0l0,0.67l-2.768,0l-0,2.048l2.661,-0l-0,0.67l-2.661,-0l-0,2.554l2.798,-0l-0,0.67Z" style="fill-rule:nonzero;"/><path d="M138.421,49.017l-3.599,-0l-0,-6.612l3.569,0l0,0.67l-2.768,0l-0,2.048l2.661,-0l-0,0.67l-2.661,-0l-0,2.554l2.798,-0l-0,0.67Z" style="fill-rule:nonzero;"/><path d="M140.593,42.405l1.358,0c0.902,0 1.624,0.295 2.168,0.883c0.543,0.589 0.815,1.397 0.815,2.425c0,1.05 -0.276,1.863 -0.827,2.439c-0.552,0.576 -1.259,0.865 -2.122,0.865l-1.392,-0l0,-6.612Zm0.801,5.942l0.567,-0c0.654,-0 1.172,-0.233 1.552,-0.699c0.381,-0.465 0.572,-1.11 0.572,-1.935c-0,-0.818 -0.192,-1.462 -0.574,-1.933c-0.383,-0.47 -0.899,-0.705 -1.55,-0.705l-0.567,0l0,5.272Z" style="fill-rule:nonzero;"/></g><g><path d="M88.123,49.017l-0.772,-0l0,-5.67l-1.04,2.713l-0.757,-0l-1.04,-2.713l0,5.67l-0.771,-0l-0,-6.612l1.04,0l1.152,3.013l1.148,-3.013l1.04,0l-0,6.612Z" style="fill-rule:nonzero;"/><path d="M91.892,42.279c0.772,-0 1.36,0.292 1.765,0.878c0.406,0.586 0.608,1.438 0.608,2.556c0,1.112 -0.202,1.962 -0.605,2.549c-0.404,0.587 -0.993,0.881 -1.768,0.881c-0.768,0 -1.355,-0.293 -1.76,-0.878c-0.405,-0.586 -0.608,-1.437 -0.608,-2.552c0,-1.115 0.202,-1.966 0.606,-2.553c0.403,-0.588 0.991,-0.881 1.762,-0.881Zm0,6.189c1.016,0 1.524,-0.918 1.524,-2.755c-0,-1.84 -0.508,-2.76 -1.524,-2.76c-0.495,0 -0.871,0.239 -1.13,0.715c-0.259,0.476 -0.388,1.158 -0.388,2.045c-0,0.897 0.128,1.58 0.385,2.05c0.258,0.47 0.635,0.705 1.133,0.705Z" style="fill-rule:nonzero;"/><path d="M100.623,42.405l-2.246,6.612l-0.962,-0l-2.251,-6.612l0.84,0l1.889,5.721l1.9,-5.721l0.83,0Z" style="fill-rule:nonzero;"/><path d="M105.755,49.017l-3.599,-0l-0,-6.612l3.569,0l0,0.67l-2.768,0l-0,2.048l2.661,-0l-0,0.67l-2.661,-0l-0,2.554l2.798,-0l-0,0.67Z" style="fill-rule:nonzero;"/></g><g><path d="M24.035,186.109c-0.563,0.397 -1.187,0.595 -1.87,0.595c-0.896,0 -1.574,-0.291 -2.037,-0.874c-0.462,-0.582 -0.693,-1.434 -0.693,-2.556c0,-1.083 0.224,-1.927 0.672,-2.53c0.447,-0.603 1.133,-0.904 2.058,-0.904c0.332,-0 0.66,0.04 0.986,0.122c0.325,0.081 0.588,0.189 0.786,0.323l-0.264,0.604c-0.459,-0.249 -0.962,-0.374 -1.508,-0.374c-0.632,-0 -1.103,0.221 -1.414,0.665c-0.311,0.444 -0.466,1.142 -0.466,2.094c-0,1.837 0.626,2.756 1.88,2.756c0.472,-0 0.828,-0.096 1.069,-0.286l-0,-1.631l-1.24,0l-0,-0.665l2.041,-0l-0,2.661Z" style="fill-rule:nonzero;"/><path d="M29.808,186.578l-0.84,-0l-0.761,-2.315l-2.261,0l-0.772,2.315l-0.83,-0l2.251,-6.612l0.962,0l2.251,6.612Zm-1.831,-2.985l-0.903,-2.736l-0.899,2.736l1.802,0Z" style="fill-rule:nonzero;"/><path d="M34.849,180.59l-2.124,-0l0,5.988l-0.796,-0l0,-5.988l-2.134,-0l0,-0.624l5.054,0l0,0.624Z" style="fill-rule:nonzero;"/><path d="M39.417,186.578l-3.599,-0l-0,-6.612l3.569,0l0,0.67l-2.768,0l-0,2.048l2.661,0l-0,0.67l-2.661,0l-0,2.554l2.798,-0l-0,0.67Z" style="fill-rule:nonzero;"/><path d="M44.287,180.697c-0.41,-0.134 -0.799,-0.201 -1.167,-0.201c-0.417,-0 -0.756,0.091 -1.018,0.274c-0.262,0.183 -0.393,0.443 -0.393,0.78c-0,0.4 0.343,0.751 1.03,1.054c0.508,0.225 0.844,0.382 1.008,0.469c0.165,0.087 0.331,0.208 0.501,0.361c0.169,0.153 0.305,0.333 0.407,0.541c0.103,0.208 0.154,0.441 0.154,0.7c0,0.644 -0.225,1.143 -0.676,1.498c-0.451,0.354 -0.982,0.531 -1.594,0.531c-0.593,0 -1.112,-0.112 -1.558,-0.337l0.166,-0.661c0.524,0.228 0.981,0.342 1.372,0.342c0.456,0 0.821,-0.113 1.096,-0.339c0.275,-0.227 0.413,-0.538 0.413,-0.935c-0,-0.294 -0.09,-0.543 -0.269,-0.747c-0.179,-0.205 -0.509,-0.414 -0.991,-0.626c-0.495,-0.219 -0.814,-0.368 -0.959,-0.448c-0.145,-0.079 -0.289,-0.189 -0.432,-0.33c-0.144,-0.14 -0.254,-0.298 -0.333,-0.473c-0.078,-0.175 -0.117,-0.366 -0.117,-0.572c0,-0.546 0.205,-0.973 0.616,-1.279c0.41,-0.306 0.929,-0.459 1.557,-0.459c0.459,-0 0.915,0.067 1.367,0.201l-0.18,0.656Z" style="fill-rule:nonzero;"/></g><g><path d="M56.769,179.966l-2.246,6.612l-0.962,-0l-2.251,-6.612l0.84,0l1.889,5.722l1.9,-5.722l0.83,0Z" style="fill-rule:nonzero;"/><path d="M61.063,179.84l-2.993,6.864l-0.718,0l2.978,-6.864l0.733,-0Z" style="fill-rule:nonzero;"/><path d="M64.541,179.84c0.772,-0 1.36,0.293 1.765,0.878c0.406,0.586 0.608,1.438 0.608,2.556c0,1.113 -0.201,1.962 -0.605,2.549c-0.404,0.588 -0.993,0.881 -1.768,0.881c-0.768,0 -1.355,-0.292 -1.76,-0.878c-0.405,-0.586 -0.608,-1.436 -0.608,-2.552c0,-1.115 0.202,-1.966 0.606,-2.553c0.403,-0.587 0.991,-0.881 1.762,-0.881Zm0,6.19c1.016,-0 1.524,-0.919 1.524,-2.756c-0,-1.839 -0.508,-2.759 -1.524,-2.759c-0.494,-0 -0.871,0.238 -1.13,0.714c-0.259,0.477 -0.388,1.158 -0.388,2.045c-0,0.897 0.128,1.58 0.385,2.05c0.258,0.471 0.635,0.706 1.133,0.706Z" style="fill-rule:nonzero;"/><path d="M72.033,186.166c-0.54,0.359 -1.167,0.538 -1.879,0.538c-0.892,0 -1.57,-0.293 -2.034,-0.881c-0.464,-0.587 -0.696,-1.436 -0.696,-2.549c0,-1.074 0.225,-1.915 0.674,-2.523c0.449,-0.607 1.134,-0.911 2.056,-0.911c0.332,-0 0.66,0.04 0.986,0.122c0.325,0.081 0.587,0.189 0.786,0.323l-0.264,0.604c-0.459,-0.249 -0.962,-0.374 -1.508,-0.374c-0.635,-0 -1.107,0.221 -1.416,0.663c-0.31,0.442 -0.464,1.141 -0.464,2.096c-0,1.837 0.626,2.756 1.88,2.756c0.53,-0 1.074,-0.157 1.63,-0.469l0.249,0.605Z" style="fill-rule:nonzero;"/><path d="M77.587,180.59l-2.124,-0l0,5.988l-0.796,-0l0,-5.988l-2.134,-0l0,-0.624l5.054,0l0,0.624Z" style="fill-rule:nonzero;"/></g><g id="logo"><g><circle cx="122.794" cy="336.204" r="1.627" style="fill:#8000db;"/><path d="M122.794,336.204l5.554,0" style="fill:none;stroke:#8000db;stroke-width:1.35px;stroke-linecap:butt;stroke-linejoin:miter;"/><path d="M128.348,333.424c-0,-1.533 -1.244,-2.777 -2.777,-2.777l-5.554,-0c-1.533,-0 -2.777,1.244 -2.777,2.777l0,5.56c0,1.533 1.244,2.777 2.777,2.777l5.554,0c1.533,0 2.777,-1.244 2.777,-2.777l-0,-5.56Z" style="fill:none;stroke:#8000db;stroke-width:1.35px;stroke-linecap:butt;stroke-miterlimit:3;"/></g><g><circle cx="135.392" cy="348.321" r="1.627" style="fill:#f00;"/><path d="M138.169,342.764l-5.554,-0c-1.533,-0 -2.777,0.802 -2.777,1.79l-0,7.535c-0,0.988 1.244,1.789 2.777,1.789l5.554,0c1.532,0 2.777,-0.801 2.777,-1.789l-0,-3.768l-5.554,0" style="fill:none;stroke:#f00;stroke-width:1.35px;stroke-miterlimit:3;"/></g><g><circle cx="135.392" cy="336.204" r="1.627" style="fill:#2600ff;"/><path d="M140.946,341.761l-0,-8.981c-0,-1.177 -1.245,-2.133 -2.777,-2.133l-5.554,-0c-1.533,-0 -2.777,0.956 -2.777,2.133l-0,8.981" style="fill:none;stroke:#2600ff;stroke-width:1.35px;stroke-miterlimit:3;"/></g><g><circle cx="122.791" cy="348.321" r="1.627" style="fill:#0ef;"/><path d="M117.233,353.878l0,-11.114l11.115,11.114l-0,-11.114" style="fill:none;stroke:#0ef;stroke-width:1.35px;"/></g></g><path d="M26.424,90.726l-0,-25.461" style="fill:none;stroke:#000;stroke-width:1px;"/><path d="M61.198,65.265l0,25.461" style="fill:none;stroke:#000;stroke-width:1px;"/><path d="M95.973,65.265l-0,25.461" style="fill:none;stroke:#000;stroke-width:1px;"/><rect x="11.307" y="108.878" width="130.02" height="59.007" style="fill:none;stroke:#000;stroke-opacity:0.1;stroke-width:1px;stroke-linecap:butt;stroke-linejoin:miter;"/><g><path d="M125.816,129.787l-0,-1.457c-0,-0.551 0.132,-0.992 0.398,-1.323c0.266,-0.331 0.631,-0.497 1.098,-0.497c0.468,0 0.843,0.165 1.123,0.495c0.28,0.33 0.42,0.762 0.42,1.296l-0,0.819l2.472,-0l0,0.667l-5.511,0Zm2.48,-0.667l-0,-0.725c-0,-0.784 -0.315,-1.176 -0.945,-1.176c-0.292,-0 -0.528,0.106 -0.707,0.319c-0.18,0.213 -0.27,0.488 -0.27,0.824l0,0.758l1.922,-0Z" style="fill-rule:nonzero;"/><path d="M125.71,123.335c0,-0.643 0.244,-1.134 0.732,-1.471c0.489,-0.338 1.199,-0.507 2.131,-0.507c0.927,-0 1.636,0.168 2.125,0.505c0.49,0.336 0.735,0.827 0.735,1.473c-0,0.641 -0.244,1.13 -0.733,1.468c-0.488,0.337 -1.197,0.506 -2.127,0.506c-0.929,0 -1.639,-0.168 -2.129,-0.504c-0.489,-0.337 -0.734,-0.827 -0.734,-1.47Zm5.16,0c0,-0.847 -0.765,-1.27 -2.297,-1.27c-1.534,0 -2.3,0.423 -2.3,1.27c-0,0.413 0.198,0.727 0.595,0.942c0.397,0.216 0.966,0.324 1.705,0.324c0.748,0 1.317,-0.107 1.709,-0.321c0.392,-0.215 0.588,-0.53 0.588,-0.945Z" style="fill-rule:nonzero;"/><path d="M126.425,117.099c-0.112,0.342 -0.168,0.666 -0.168,0.973c-0,0.347 0.076,0.63 0.228,0.849c0.153,0.218 0.37,0.327 0.651,0.327c0.333,0 0.626,-0.286 0.879,-0.859c0.187,-0.423 0.317,-0.703 0.39,-0.84c0.073,-0.137 0.174,-0.276 0.301,-0.417c0.128,-0.142 0.278,-0.255 0.451,-0.34c0.173,-0.086 0.368,-0.129 0.584,-0.129c0.537,0 0.953,0.188 1.248,0.564c0.296,0.376 0.444,0.819 0.444,1.329c-0,0.494 -0.094,0.927 -0.282,1.299l-0.55,-0.139c0.19,-0.437 0.285,-0.818 0.285,-1.143c-0,-0.38 -0.095,-0.685 -0.283,-0.914c-0.189,-0.23 -0.449,-0.344 -0.78,-0.344c-0.244,-0 -0.452,0.074 -0.623,0.224c-0.17,0.149 -0.344,0.424 -0.521,0.826c-0.183,0.412 -0.307,0.679 -0.373,0.8c-0.067,0.121 -0.158,0.241 -0.276,0.36c-0.117,0.119 -0.248,0.212 -0.394,0.277c-0.146,0.065 -0.305,0.098 -0.477,0.098c-0.455,-0 -0.811,-0.171 -1.066,-0.513c-0.255,-0.342 -0.383,-0.775 -0.383,-1.299c0,-0.383 0.056,-0.762 0.168,-1.14l0.547,0.151Z" style="fill-rule:nonzero;"/></g><g><path d="M92.093,129.05c-0.112,0.342 -0.168,0.666 -0.168,0.973c-0,0.347 0.076,0.63 0.228,0.848c0.153,0.219 0.37,0.328 0.651,0.328c0.333,0 0.626,-0.286 0.879,-0.859c0.187,-0.423 0.317,-0.703 0.39,-0.84c0.073,-0.137 0.174,-0.277 0.301,-0.418c0.128,-0.141 0.278,-0.254 0.451,-0.34c0.173,-0.085 0.368,-0.128 0.584,-0.128c0.537,0 0.953,0.188 1.248,0.564c0.296,0.376 0.444,0.819 0.444,1.329c-0,0.494 -0.094,0.927 -0.282,1.299l-0.55,-0.139c0.19,-0.437 0.285,-0.818 0.285,-1.144c-0,-0.38 -0.095,-0.684 -0.283,-0.914c-0.189,-0.229 -0.449,-0.344 -0.78,-0.344c-0.244,0 -0.452,0.075 -0.623,0.224c-0.17,0.15 -0.344,0.425 -0.521,0.827c-0.182,0.412 -0.307,0.679 -0.373,0.8c-0.067,0.12 -0.158,0.24 -0.276,0.36c-0.117,0.119 -0.248,0.212 -0.394,0.277c-0.146,0.065 -0.305,0.097 -0.477,0.097c-0.455,0 -0.811,-0.171 -1.066,-0.513c-0.255,-0.341 -0.383,-0.774 -0.383,-1.298c0,-0.383 0.056,-0.763 0.168,-1.14l0.547,0.151Z" style="fill-rule:nonzero;"/><path d="M96.995,123.994l0,2.609l-0.558,0l-0,-0.989l-4.395,0l0,0.989l-0.558,0l-0,-2.609l0.558,0l0,0.953l4.395,-0l-0,-0.953l0.558,0Z" style="fill-rule:nonzero;"/><path d="M91.941,118.535l4.496,2.732l-0,-2.683l0.558,0l0,3.444l-0.449,-0l-4.504,-2.719l0,2.601l-0.558,-0l-0,-3.375l0.457,0Z" style="fill-rule:nonzero;"/><path d="M96.995,113.724l0,3l-5.511,-0l-0,-2.976l0.558,0l0,2.308l1.707,0l0,-2.218l0.559,-0l-0,2.218l2.129,0l-0,-2.332l0.558,-0Z" style="fill-rule:nonzero;"/></g></g><g id="Layer2"><path d="M448.509,128.56l34.857,131.862" style="fill:none;stroke:#ac8cff;stroke-opacity:0.5;stroke-width:1px;"/><path d="M448.509,128.56l47.764,-40.146" style="fill:none;stroke:#ac8cff;stroke-opacity:0.75;stroke-width:2px;"/><path d="M448.509,128.56l28.101,-93.118" style="fill:none;stroke:#ac8cff;stroke-opacity:0.7;stroke-width:2px;"/><path d="M448.509,128.56l-12.001,-66.626" style="fill:none;stroke:#ac8cff;stroke-opacity:0.75;stroke-width:2px;"/><path d="M448.509,128.56l-92.463,-55.105" style="fill:none;stroke:#ac8cff;stroke-opacity:0.55;stroke-width:1.5px;"/><path d="M448.509,128.56l-130.855,-57.206" style="fill:none;stroke:#ac8cff;stroke-opacity:0.5;stroke-width:1px;"/><path d="M428.133,281.878l-113.842,-9.03" style="fill:none;stroke:#00f9ff;stroke-opacity:0.7;stroke-width:2px;"/><path d="M428.133,281.878l-121.19,62.124" style="fill:none;stroke:#00f9ff;stroke-opacity:0.5;stroke-width:1.5px;"/><path d="M428.133,281.878l4.376,67.452" style="fill:none;stroke:#00f9ff;stroke-opacity:0.7;stroke-width:2px;"/><path d="M428.133,281.878l55.233,-21.456" style="fill:none;stroke:#00f9ff;stroke-opacity:0.75;stroke-width:2px;"/><path d="M248.974,228.144l-22.991,-70.679" style="fill:none;stroke:#ff6565;stroke-opacity:0.75;stroke-width:2px;"/><path d="M248.974,228.144l-70.207,-49.487" style="fill:none;stroke:#ff6565;stroke-opacity:0.75;stroke-width:2px;"/><path d="M248.974,228.144l-50.156,116.815" style="fill:none;stroke:#ff6565;stroke-opacity:0.55;stroke-width:1.2px;"/><path d="M248.974,228.144l57.969,115.858" style="fill:none;stroke:#ff6565;stroke-opacity:0.5;stroke-width:1px;"/><path d="M248.974,228.144l65.317,44.704" style="fill:none;stroke:#ff6565;stroke-opacity:0.7;stroke-width:2px;"/><path d="M290.031,144.935l66.015,-71.48" style="fill:none;stroke:#d599ff;stroke-opacity:0.55;stroke-width:2px;"/><path d="M290.031,144.8l27.623,-73.446" style="fill:none;stroke:#d599ff;stroke-opacity:0.75;stroke-width:2px;"/><path d="M290.031,144.8l66.015,-71.345" style="fill:none;stroke:#d599ff;stroke-opacity:0.65;stroke-width:1.75px;"/><path d="M290.031,144.8l24.26,128.048" style="fill:none;stroke:#d599ff;stroke-opacity:0.5;stroke-width:1px;"/><path d="M290.031,144.8l-64.048,12.665" style="fill:none;stroke:#d599ff;stroke-opacity:0.75;stroke-width:2px;"/><path d="M290.031,144.8l-111.264,33.857" style="fill:none;stroke:#d599ff;stroke-opacity:0.55;stroke-width:1.2px;"/><path d="M290.031,144.8l-65.643,-120.631" style="fill:none;stroke:#d599ff;stroke-opacity:0.5;stroke-width:1px;"/><g><circle cx="483.366" cy="260.422" r="6.792" style="fill:#fff;fill-opacity:0.35;"/><circle cx="483.366" cy="260.422" r="2.451" style="fill:#fff;"/></g><g><circle cx="432.509" cy="349.33" r="6.792" style="fill:#fff;fill-opacity:0.35;"/><circle cx="432.509" cy="349.33" r="2.451" style="fill:#fff;"/></g><g><circle cx="314.291" cy="272.848" r="9.423" style="fill:#fff;fill-opacity:0.35;"/><circle cx="314.291" cy="272.848" r="2.451" style="fill:#fff;"/></g><g><circle cx="317.654" cy="71.354" r="9.423" style="fill:#fff;fill-opacity:0.35;"/><circle cx="317.654" cy="71.354" r="2.451" style="fill:#fff;"/></g><g><circle cx="224.388" cy="24.169" r="9.423" style="fill:#fff;fill-opacity:0.35;"/><circle cx="224.388" cy="24.169" r="2.451" style="fill:#fff;"/></g><g><circle cx="178.767" cy="178.657" r="7.727" style="fill:#fff;fill-opacity:0.35;"/><circle cx="178.767" cy="178.657" r="2.451" style="fill:#fff;"/></g><g><circle cx="306.943" cy="344.002" r="7.349" style="fill:#fff;fill-opacity:0.35;"/><circle cx="306.943" cy="344.002" r="2.451" style="fill:#fff;"/></g><g><circle cx="198.818" cy="344.959" r="6.235" style="fill:#fff;fill-opacity:0.35;"/><circle cx="198.818" cy="344.959" r="2.451" style="fill:#fff;"/></g><g><circle cx="225.983" cy="157.465" r="6.235" style="fill:#fff;fill-opacity:0.35;"/><circle cx="225.983" cy="157.465" r="2.451" style="fill:#fff;"/></g><g><circle cx="436.508" cy="61.934" r="7.811" style="fill:#fff;fill-opacity:0.35;"/><circle cx="436.508" cy="61.934" r="2.451" style="fill:#fff;"/></g><g><circle cx="496.273" cy="88.414" r="7.811" style="fill:#fff;fill-opacity:0.35;"/><circle cx="496.273" cy="88.414" r="2.451" style="fill:#fff;"/></g><g><circle cx="476.61" cy="35.442" r="6.311" style="fill:#fff;fill-opacity:0.35;"/><circle cx="476.61" cy="35.442" r="2.451" style="fill:#fff;"/></g><g><circle cx="356.046" cy="73.455" r="6.235" style="fill:#fff;fill-opacity:0.35;"/><circle cx="356.046" cy="73.455" r="2.451" style="fill:#fff;"/></g><g id="TinyRedButton"><circle id="RedButton" cx="248.974" cy="228.144" r="16" style="fill:none;stroke:#f00;stroke-width:2.29px;"/><circle id="RedButton1" serif:id="RedButton" cx="248.974" cy="228.144" r="11.311" style="fill:#f00;"/></g><g id="TinyPurpleButton1" serif:id="TinyPurpleButton"><circle id="PurpleButton2" serif:id="PurpleButton" cx="290.031" cy="144.935" r="16" style="fill:none;stroke:#8000db;stroke-width:2.29px;"/><circle id="PurpleButton3" serif:id="PurpleButton" cx="290.031" cy="144.935" r="11.311" style="fill:#8000db;"/></g><g id="TinyBlueButton"><circle id="BlueButton" cx="448.509" cy="128.935" r="16" style="fill:none;stroke:#2600ff;stroke-width:2.29px;"/><circle id="BlueButton1" serif:id="BlueButton" cx="448.509" cy="128.935" r="11.311" style="fill:#2600ff;"/></g><g id="TinyAquaButton"><circle id="AquaButton" cx="428.133" cy="281.878" r="16" style="fill:none;stroke:#0ef;stroke-width:2.29px;"/><circle id="AquaButton1" serif:id="AquaButton" cx="428.133" cy="281.878" r="11.311" style="fill:#0ef;"/></g></g></g></svg>