<?xml version="1.0" encoding="UTF-8" standalone="no"?><!DOCTYPE svg PUBLIC "-//W3C//DTD SVG 1.1//EN" "http://www.w3.org/Graphics/SVG/1.1/DTD/svg11.dtd"><svg width="100%" height="100%" viewBox="0 0 540 380" version="1.1" xmlns="http://www.w3.org/2000/svg" xmlns:xlink="http://www.w3.org/1999/xlink" xml:space="preserve" xmlns:serif="http://www.serif.com/" style="fill-rule:evenodd;clip-rule:evenodd;stroke-linecap:round;stroke-linejoin:round;stroke-miterlimit:1.5;"><rect id="Neutrinode" x="0" y="0" width="540" height="379.559" style="fill:none;"/><clipPath id="_clip1"><rect x="0" y="0" width="540" height="379.559"/></clipPath><g clip-path="url(#_clip1)"><g id="Layer1"><rect id="background" x="-9.15" y="-7.016" width="557.155" height="393.592" style="fill:#e6e6e6;"/><path d="M548.005,-7.016l-557.155,-0l-0,393.591l557.155,0l-0,-393.591Zm-556.155,1l-0,391.591l555.155,0l-0,-391.591l-555.155,-0Z" style="fill:#646464;"/><rect id="rect" x="161.2" y="0.78" width="378" height="378" style="fill:#333;"/><g><path d="M30.757,28.901l-1.775,-0l-4.937,-9.791l0,9.791l-1.6,-0l0,-12.402l1.786,0l4.956,9.703l-0,-9.703l1.57,0l0,12.402Z" style="fill:#8000db;fill-rule:nonzero;"/><path d="M42.835,24.365l-6.975,0c-0,1.038 0.333,1.893 1,2.567c0.666,0.674 1.484,1.011 2.453,1.011c0.924,-0 1.877,-0.15 2.859,-0.449l0.263,1.099c-0.897,0.363 -1.945,0.545 -3.141,0.545c-1.509,-0 -2.725,-0.437 -3.649,-1.31c-0.924,-0.873 -1.385,-2.05 -1.385,-3.533c-0,-1.453 0.414,-2.612 1.244,-3.476c0.829,-0.864 1.9,-1.296 3.214,-1.296c1.171,-0 2.15,0.401 2.937,1.204c0.787,0.803 1.18,1.872 1.18,3.208l0,0.43Zm-1.658,-1.116c-0,-0.715 -0.248,-1.317 -0.742,-1.806c-0.494,-0.489 -1.047,-0.734 -1.658,-0.734c-0.787,0 -1.439,0.235 -1.956,0.703c-0.517,0.469 -0.805,1.081 -0.864,1.837l5.22,0Z" style="fill:#8000db;fill-rule:nonzero;"/><path d="M54.503,28.901l-1.522,-0l0,-1.354c-1.092,1.049 -2.244,1.573 -3.453,1.573c-1.906,0 -2.859,-1.04 -2.859,-3.12l0,-6.258l1.522,0l0,5.863c0,0.779 0.137,1.361 0.41,1.744c0.273,0.384 0.735,0.576 1.385,0.576c0.93,0 1.929,-0.521 2.995,-1.564l0,-6.619l1.522,0l0,9.159Z" style="fill:#8000db;fill-rule:nonzero;"/><path d="M66.61,28.488c-1.021,0.421 -2.026,0.632 -3.014,0.632c-1.815,0 -2.722,-0.864 -2.722,-2.592l-0,-5.599l-1.952,-0l0,-1.187l1.952,0l-0,-2.504l1.483,-0l-0,2.504l3.453,0l0,1.187l-3.453,-0l-0,5.238c-0,0.557 0.136,0.989 0.409,1.297c0.273,0.307 0.644,0.461 1.112,0.461c0.833,0 1.656,-0.167 2.469,-0.501l0.263,1.064Z" style="fill:#8000db;fill-rule:nonzero;"/><path d="M78.659,19.989l-0.615,1.318c-0.67,-0.264 -1.249,-0.396 -1.737,-0.396c-0.448,0 -0.887,0.116 -1.317,0.348c-0.429,0.231 -0.824,0.562 -1.185,0.993c-0.361,0.43 -0.541,0.672 -0.541,0.725l-0,5.924l-1.513,-0l0,-9.159l1.513,0l-0,1.855c0.813,-1.383 1.866,-2.074 3.16,-2.074c0.768,-0 1.513,0.155 2.235,0.466Z" style="fill:#8000db;fill-rule:nonzero;"/><path d="M87.214,16.28c0.287,-0 0.531,0.092 0.732,0.276c0.202,0.185 0.303,0.406 0.303,0.664c-0,0.269 -0.1,0.495 -0.298,0.677c-0.198,0.181 -0.444,0.272 -0.737,0.272c-0.266,0 -0.502,-0.095 -0.707,-0.285c-0.205,-0.191 -0.307,-0.412 -0.307,-0.664c-0,-0.252 0.102,-0.472 0.307,-0.659c0.205,-0.188 0.441,-0.281 0.707,-0.281Zm0.742,12.621l-1.522,-0l0,-7.972l-2.995,-0l-0,-1.187l4.517,0l-0,9.159Z" style="fill:#8000db;fill-rule:nonzero;"/><path d="M102.482,28.901l-1.522,-0l0,-5.871c0,-0.815 -0.144,-1.405 -0.434,-1.771c-0.289,-0.367 -0.743,-0.55 -1.361,-0.55c-0.93,0 -1.928,0.522 -2.995,1.565l0,6.627l-1.522,-0l0,-9.159l1.522,0l0,1.345c1.093,-1.043 2.244,-1.564 3.454,-1.564c1.906,-0 2.858,1.037 2.858,3.111l0,6.267Z" style="fill:#8000db;fill-rule:nonzero;"/><path d="M110.531,19.523c1.398,-0 2.51,0.439 3.336,1.318c0.826,0.879 1.239,2.036 1.239,3.472c0,1.447 -0.413,2.613 -1.239,3.498c-0.826,0.885 -1.938,1.327 -3.336,1.327c-1.405,-0 -2.519,-0.441 -3.341,-1.323c-0.823,-0.882 -1.235,-2.049 -1.235,-3.502c0,-1.442 0.413,-2.6 1.239,-3.476c0.826,-0.876 1.939,-1.314 3.337,-1.314Zm-0,8.42c0.924,-0 1.652,-0.352 2.185,-1.055c0.534,-0.703 0.8,-1.556 0.8,-2.558c0,-1.054 -0.263,-1.922 -0.79,-2.601c-0.527,-0.68 -1.258,-1.02 -2.195,-1.02c-0.943,0 -1.675,0.336 -2.195,1.007c-0.52,0.67 -0.781,1.542 -0.781,2.614c0,1.02 0.264,1.877 0.791,2.571c0.526,0.694 1.255,1.042 2.185,1.042Z" style="fill:#8000db;fill-rule:nonzero;"/><path d="M126.423,28.901l-1.522,-0l0,-1.319c-0.312,0.451 -0.759,0.824 -1.341,1.116c-0.582,0.293 -1.195,0.44 -1.839,0.44c-1.164,-0 -2.085,-0.467 -2.761,-1.402c-0.676,-0.934 -1.015,-2.12 -1.015,-3.555c0,-1.342 0.353,-2.454 1.059,-3.336c0.706,-0.881 1.641,-1.322 2.805,-1.322c1.281,-0 2.312,0.468 3.092,1.406l0,-4.43l1.522,0l0,12.402Zm-1.522,-2.804l0,-3.806c-0.728,-1.054 -1.606,-1.582 -2.634,-1.582c-0.839,0 -1.502,0.336 -1.99,1.007c-0.488,0.67 -0.732,1.519 -0.732,2.544c0,1.055 0.23,1.926 0.688,2.615c0.459,0.688 1.088,1.032 1.888,1.032c0.384,0 0.771,-0.093 1.161,-0.281c0.39,-0.187 0.758,-0.469 1.102,-0.844c0.345,-0.375 0.517,-0.603 0.517,-0.685Z" style="fill:#8000db;fill-rule:nonzero;"/><path d="M138.755,24.365l-6.976,0c0,1.038 0.334,1.893 1,2.567c0.667,0.674 1.485,1.011 2.454,1.011c0.923,-0 1.876,-0.15 2.858,-0.449l0.264,1.099c-0.898,0.363 -1.945,0.545 -3.142,0.545c-1.509,-0 -2.725,-0.437 -3.648,-1.31c-0.924,-0.873 -1.386,-2.05 -1.386,-3.533c0,-1.453 0.415,-2.612 1.244,-3.476c0.829,-0.864 1.901,-1.296 3.215,-1.296c1.17,-0 2.149,0.401 2.936,1.204c0.787,0.803 1.181,1.872 1.181,3.208l-0,0.43Zm-1.659,-1.116c0,-0.715 -0.247,-1.317 -0.741,-1.806c-0.495,-0.489 -1.047,-0.734 -1.659,-0.734c-0.787,0 -1.439,0.235 -1.956,0.703c-0.517,0.469 -0.805,1.081 -0.863,1.837l5.219,0Z" style="fill:#8000db;fill-rule:nonzero;"/><g id="TinyPurpleButton"><circle id="PurpleButton" cx="110.536" cy="24.33" r="5.04" style="fill:#fff;stroke:#8000db;stroke-width:1px;"/><circle id="PurpleButton1" serif:id="PurpleButton" cx="110.536" cy="24.33" r="3.563" style="fill:#8000db;"/></g></g><text x="15.049px" y="108.119px" style="font-family:'AndaleMono', 'Andale Mono', monospace;font-size:9.596px;">O<tspan x="21.05px " y="108.119px ">N</tspan></text></g></g></svg>