<?xml version="1.0" encoding="UTF-8" standalone="no"?><!DOCTYPE svg PUBLIC "-//W3C//DTD SVG 1.1//EN" "http://www.w3.org/Graphics/SVG/1.1/DTD/svg11.dtd"><svg width="100%" height="100%" viewBox="0 0 495 380" version="1.1" xmlns="http://www.w3.org/2000/svg" xmlns:xlink="http://www.w3.org/1999/xlink" xml:space="preserve" xmlns:serif="http://www.serif.com/" style="fill-rule:evenodd;clip-rule:evenodd;stroke-linecap:round;stroke-linejoin:round;stroke-miterlimit:1.5;"><rect id="Neutrinode" x="0" y="0" width="495" height="379.559" style="fill:none;"/><clipPath id="_clip1"><rect x="0" y="0" width="495" height="379.559"/></clipPath><g clip-path="url(#_clip1)"><g id="Layer1"><rect id="background" x="-9.15" y="-7.016" width="513.301" height="393.592" style="fill:#e6e6e6;"/><path d="M504.15,-7.016l-513.3,-0l-0,393.591l513.3,0l0,-393.591Zm-512.3,1l-0,391.591l511.3,0l0,-391.591l-511.3,-0Z" style="fill:#646464;"/><rect id="rect" x="125.365" y="8.78" width="362" height="362" style="fill:#333;"/><circle cx="94.232" cy="57.646" r="1.5" style="fill:#8000db;"/><g><path d="M14.459,62.216l-1.776,-0l-4.936,-9.791l-0,9.791l-1.6,-0l-0,-12.402l1.785,0l4.956,9.704l0,-9.704l1.571,0l-0,12.402Z" style="fill:#8000db;fill-rule:nonzero;"/><path d="M26.537,57.681l-6.976,-0c0,1.037 0.333,1.892 1,2.566c0.667,0.674 1.485,1.011 2.454,1.011c0.923,-0 1.876,-0.15 2.858,-0.448l0.264,1.098c-0.898,0.364 -1.945,0.545 -3.142,0.545c-1.509,0 -2.725,-0.436 -3.648,-1.309c-0.924,-0.873 -1.386,-2.051 -1.386,-3.534c0,-1.453 0.415,-2.611 1.244,-3.476c0.829,-0.864 1.901,-1.296 3.215,-1.296c1.17,-0 2.149,0.401 2.936,1.204c0.787,0.803 1.181,1.872 1.181,3.208l-0,0.431Zm-1.659,-1.117c0,-0.714 -0.247,-1.316 -0.741,-1.806c-0.495,-0.489 -1.048,-0.734 -1.659,-0.734c-0.787,0 -1.439,0.235 -1.956,0.704c-0.517,0.468 -0.805,1.081 -0.863,1.836l5.219,0Z" style="fill:#8000db;fill-rule:nonzero;"/><path d="M38.205,62.216l-1.522,-0l-0,-1.354c-1.093,1.049 -2.244,1.574 -3.454,1.574c-1.906,-0 -2.858,-1.04 -2.858,-3.121l-0,-6.257l1.522,-0l-0,5.862c-0,0.779 0.136,1.361 0.409,1.745c0.273,0.383 0.735,0.575 1.386,0.575c0.93,0 1.928,-0.521 2.995,-1.564l-0,-6.618l1.522,-0l-0,9.158Z" style="fill:#8000db;fill-rule:nonzero;"/><path d="M50.312,61.803c-1.022,0.422 -2.026,0.633 -3.015,0.633c-1.815,-0 -2.722,-0.865 -2.722,-2.593l0,-5.599l-1.951,0l-0,-1.186l1.951,-0l0,-2.505l1.483,-0l0,2.505l3.454,-0l-0,1.186l-3.454,0l0,5.238c0,0.557 0.137,0.989 0.41,1.297c0.273,0.307 0.644,0.461 1.112,0.461c0.832,0 1.655,-0.167 2.468,-0.501l0.264,1.064Z" style="fill:#8000db;fill-rule:nonzero;"/><path d="M62.36,53.304l-0.615,1.318c-0.669,-0.264 -1.248,-0.395 -1.736,-0.395c-0.449,-0 -0.888,0.115 -1.317,0.347c-0.429,0.231 -0.824,0.562 -1.185,0.993c-0.361,0.431 -0.542,0.672 -0.542,0.725l0,5.924l-1.512,-0l-0,-9.158l1.512,-0l0,1.854c0.813,-1.383 1.867,-2.074 3.161,-2.074c0.767,-0 1.512,0.155 2.234,0.466Z" style="fill:#8000db;fill-rule:nonzero;"/><path d="M70.916,49.595c0.286,-0 0.53,0.092 0.732,0.277c0.201,0.184 0.302,0.405 0.302,0.663c0,0.27 -0.099,0.495 -0.297,0.677c-0.199,0.182 -0.444,0.272 -0.737,0.272c-0.267,0 -0.502,-0.095 -0.707,-0.285c-0.205,-0.191 -0.308,-0.412 -0.308,-0.664c0,-0.252 0.103,-0.471 0.308,-0.659c0.205,-0.187 0.44,-0.281 0.707,-0.281Zm0.741,12.621l-1.521,-0l-0,-7.972l-2.996,0l0,-1.186l4.517,-0l0,9.158Z" style="fill:#8000db;fill-rule:nonzero;"/><path d="M86.184,62.216l-1.522,-0l-0,-5.871c-0,-0.815 -0.145,-1.405 -0.434,-1.771c-0.29,-0.366 -0.743,-0.55 -1.361,-0.55c-0.93,0 -1.929,0.522 -2.995,1.565l-0,6.627l-1.522,-0l-0,-9.158l1.522,-0l-0,1.344c1.093,-1.043 2.244,-1.564 3.453,-1.564c1.906,-0 2.859,1.037 2.859,3.111l-0,6.267Z" style="fill:#8000db;fill-rule:nonzero;"/><path d="M94.232,52.838c1.399,-0 2.511,0.439 3.337,1.318c0.826,0.879 1.239,2.036 1.239,3.472c-0,1.447 -0.413,2.613 -1.239,3.498c-0.826,0.885 -1.938,1.327 -3.337,1.327c-1.404,0 -2.518,-0.441 -3.341,-1.323c-0.823,-0.881 -1.234,-2.049 -1.234,-3.502c-0,-1.441 0.413,-2.6 1.239,-3.476c0.826,-0.876 1.938,-1.314 3.336,-1.314Zm0,8.42c0.924,-0 1.652,-0.352 2.186,-1.055c0.533,-0.703 0.8,-1.555 0.8,-2.557c-0,-1.055 -0.264,-1.922 -0.79,-2.602c-0.527,-0.68 -1.259,-1.02 -2.196,-1.02c-0.943,0 -1.674,0.336 -2.195,1.007c-0.52,0.671 -0.78,1.542 -0.78,2.615c-0,1.019 0.263,1.876 0.79,2.57c0.527,0.695 1.255,1.042 2.185,1.042Z" style="fill:#8000db;fill-rule:nonzero;"/><path d="M110.125,62.216l-1.522,-0l-0,-1.318c-0.312,0.451 -0.759,0.823 -1.342,1.116c-0.582,0.293 -1.195,0.439 -1.839,0.439c-1.164,0 -2.084,-0.467 -2.76,-1.402c-0.677,-0.934 -1.015,-2.119 -1.015,-3.555c-0,-1.342 0.353,-2.453 1.058,-3.335c0.706,-0.882 1.641,-1.323 2.805,-1.323c1.282,-0 2.312,0.469 3.093,1.406l-0,-4.43l1.522,0l-0,12.402Zm-1.522,-2.804l-0,-3.806c-0.729,-1.054 -1.607,-1.582 -2.634,-1.582c-0.839,0 -1.503,0.336 -1.99,1.007c-0.488,0.671 -0.732,1.519 -0.732,2.544c-0,1.055 0.229,1.927 0.688,2.615c0.458,0.688 1.087,1.033 1.887,1.033c0.384,-0 0.771,-0.094 1.161,-0.282c0.391,-0.187 0.758,-0.468 1.103,-0.843c0.345,-0.375 0.517,-0.604 0.517,-0.686Z" style="fill:#8000db;fill-rule:nonzero;"/><path d="M122.456,57.681l-6.975,-0c-0,1.037 0.333,1.892 1,2.566c0.666,0.674 1.484,1.011 2.453,1.011c0.924,-0 1.877,-0.15 2.859,-0.448l0.263,1.098c-0.897,0.364 -1.944,0.545 -3.141,0.545c-1.509,0 -2.725,-0.436 -3.649,-1.309c-0.923,-0.873 -1.385,-2.051 -1.385,-3.534c-0,-1.453 0.414,-2.611 1.244,-3.476c0.829,-0.864 1.9,-1.296 3.214,-1.296c1.171,-0 2.15,0.401 2.937,1.204c0.787,0.803 1.18,1.872 1.18,3.208l0,0.431Zm-1.658,-1.117c-0,-0.714 -0.247,-1.316 -0.742,-1.806c-0.494,-0.489 -1.047,-0.734 -1.658,-0.734c-0.787,0 -1.439,0.235 -1.956,0.704c-0.517,0.468 -0.805,1.081 -0.864,1.836l5.22,0Z" style="fill:#8000db;fill-rule:nonzero;"/></g><g id="TinyPurpleButton"><circle id="PurpleButton" cx="94.237" cy="57.646" r="5.04" style="fill:#fff;stroke:#8000db;stroke-width:1px;"/><circle id="PurpleButton1" serif:id="PurpleButton" cx="94.237" cy="57.646" r="3.563" style="fill:#8000db;"/></g></g><g id="components"></g></g></svg>