<?xml version="1.0" encoding="UTF-8" standalone="no"?><!DOCTYPE svg PUBLIC "-//W3C//DTD SVG 1.1//EN" "http://www.w3.org/Graphics/SVG/1.1/DTD/svg11.dtd"><svg width="100%" height="100%" viewBox="0 0 540 380" version="1.1" xmlns="http://www.w3.org/2000/svg" xmlns:xlink="http://www.w3.org/1999/xlink" xml:space="preserve" xmlns:serif="http://www.serif.com/" style="fill-rule:evenodd;clip-rule:evenodd;stroke-linecap:round;stroke-linejoin:round;stroke-miterlimit:1.5;"><rect id="Neutrinode" x="0" y="0" width="540" height="379.559" style="fill:none;"/><clipPath id="_clip1"><rect x="0" y="0" width="540" height="379.559"/></clipPath><g clip-path="url(#_clip1)"><g id="Layer1"><rect id="background" x="-9.15" y="-7.016" width="557.155" height="393.592" style="fill:#e6e6e6;"/><path d="M548.005,-7.016l-557.155,-0l-0,393.591l557.155,0l-0,-393.591Zm-556.155,1l-0,391.591l555.155,0l-0,-391.591l-555.155,-0Z" style="fill:#646464;"/><rect id="rect" x="161.2" y="0.78" width="378" height="378" style="fill:#333;"/><rect x="11.307" y="175.39" width="73.932" height="183.181" style="fill:#282828;fill-opacity:0.1;"/><g><path d="M30.757,28.901l-1.775,-0l-4.937,-9.791l0,9.791l-1.6,-0l0,-12.402l1.786,0l4.956,9.703l-0,-9.703l1.57,0l0,12.402Z" style="fill:#8000db;fill-rule:nonzero;"/><path d="M42.835,24.365l-6.975,0c-0,1.038 0.333,1.893 1,2.567c0.666,0.674 1.484,1.011 2.453,1.011c0.924,-0 1.877,-0.15 2.859,-0.449l0.263,1.099c-0.897,0.363 -1.945,0.545 -3.141,0.545c-1.509,-0 -2.725,-0.437 -3.649,-1.31c-0.924,-0.873 -1.385,-2.05 -1.385,-3.533c-0,-1.453 0.414,-2.612 1.244,-3.476c0.829,-0.864 1.9,-1.296 3.214,-1.296c1.171,-0 2.15,0.401 2.937,1.204c0.787,0.803 1.18,1.872 1.18,3.208l0,0.43Zm-1.658,-1.116c-0,-0.715 -0.248,-1.317 -0.742,-1.806c-0.494,-0.489 -1.047,-0.734 -1.658,-0.734c-0.787,0 -1.439,0.235 -1.956,0.703c-0.517,0.469 -0.805,1.081 -0.864,1.837l5.22,0Z" style="fill:#8000db;fill-rule:nonzero;"/><path d="M54.503,28.901l-1.522,-0l0,-1.354c-1.092,1.049 -2.244,1.573 -3.453,1.573c-1.906,0 -2.859,-1.04 -2.859,-3.12l0,-6.258l1.522,0l0,5.863c0,0.779 0.137,1.361 0.41,1.744c0.273,0.384 0.735,0.576 1.385,0.576c0.93,0 1.929,-0.521 2.995,-1.564l0,-6.619l1.522,0l0,9.159Z" style="fill:#8000db;fill-rule:nonzero;"/><path d="M66.61,28.488c-1.021,0.421 -2.026,0.632 -3.014,0.632c-1.815,0 -2.722,-0.864 -2.722,-2.592l-0,-5.599l-1.952,-0l0,-1.187l1.952,0l-0,-2.504l1.483,-0l-0,2.504l3.453,0l0,1.187l-3.453,-0l-0,5.238c-0,0.557 0.136,0.989 0.409,1.297c0.273,0.307 0.644,0.461 1.112,0.461c0.833,0 1.656,-0.167 2.469,-0.501l0.263,1.064Z" style="fill:#8000db;fill-rule:nonzero;"/><path d="M78.659,19.989l-0.615,1.318c-0.67,-0.264 -1.249,-0.396 -1.737,-0.396c-0.448,0 -0.887,0.116 -1.317,0.348c-0.429,0.231 -0.824,0.562 -1.185,0.993c-0.361,0.43 -0.541,0.672 -0.541,0.725l-0,5.924l-1.513,-0l0,-9.159l1.513,0l-0,1.855c0.813,-1.383 1.866,-2.074 3.16,-2.074c0.768,-0 1.513,0.155 2.235,0.466Z" style="fill:#8000db;fill-rule:nonzero;"/><path d="M87.214,16.28c0.287,-0 0.531,0.092 0.732,0.276c0.202,0.185 0.303,0.406 0.303,0.664c-0,0.269 -0.1,0.495 -0.298,0.677c-0.198,0.181 -0.444,0.272 -0.737,0.272c-0.266,0 -0.502,-0.095 -0.707,-0.285c-0.205,-0.191 -0.307,-0.412 -0.307,-0.664c-0,-0.252 0.102,-0.472 0.307,-0.659c0.205,-0.188 0.441,-0.281 0.707,-0.281Zm0.742,12.621l-1.522,-0l0,-7.972l-2.995,-0l-0,-1.187l4.517,0l-0,9.159Z" style="fill:#8000db;fill-rule:nonzero;"/><path d="M102.482,28.901l-1.522,-0l0,-5.871c0,-0.815 -0.144,-1.405 -0.434,-1.771c-0.289,-0.367 -0.743,-0.55 -1.361,-0.55c-0.93,0 -1.928,0.522 -2.995,1.565l0,6.627l-1.522,-0l0,-9.159l1.522,0l0,1.345c1.093,-1.043 2.244,-1.564 3.454,-1.564c1.906,-0 2.858,1.037 2.858,3.111l0,6.267Z" style="fill:#8000db;fill-rule:nonzero;"/><path d="M110.531,19.523c1.398,-0 2.51,0.439 3.336,1.318c0.826,0.879 1.239,2.036 1.239,3.472c0,1.447 -0.413,2.613 -1.239,3.498c-0.826,0.885 -1.938,1.327 -3.336,1.327c-1.405,-0 -2.519,-0.441 -3.341,-1.323c-0.823,-0.882 -1.235,-2.049 -1.235,-3.502c0,-1.442 0.413,-2.6 1.239,-3.476c0.826,-0.876 1.939,-1.314 3.337,-1.314Zm-0,8.42c0.924,-0 1.652,-0.352 2.185,-1.055c0.534,-0.703 0.8,-1.556 0.8,-2.558c0,-1.054 -0.263,-1.922 -0.79,-2.601c-0.527,-0.68 -1.258,-1.02 -2.195,-1.02c-0.943,0 -1.675,0.336 -2.195,1.007c-0.52,0.67 -0.781,1.542 -0.781,2.614c0,1.02 0.264,1.877 0.791,2.571c0.526,0.694 1.255,1.042 2.185,1.042Z" style="fill:#8000db;fill-rule:nonzero;"/><path d="M126.423,28.901l-1.522,-0l0,-1.319c-0.312,0.451 -0.759,0.824 -1.341,1.116c-0.582,0.293 -1.195,0.44 -1.839,0.44c-1.164,-0 -2.085,-0.467 -2.761,-1.402c-0.676,-0.934 -1.015,-2.12 -1.015,-3.555c0,-1.342 0.353,-2.454 1.059,-3.336c0.706,-0.881 1.641,-1.322 2.805,-1.322c1.281,-0 2.312,0.468 3.092,1.406l0,-4.43l1.522,0l0,12.402Zm-1.522,-2.804l0,-3.806c-0.728,-1.054 -1.606,-1.582 -2.634,-1.582c-0.839,0 -1.502,0.336 -1.99,1.007c-0.488,0.67 -0.732,1.519 -0.732,2.544c0,1.055 0.23,1.926 0.688,2.615c0.459,0.688 1.088,1.032 1.888,1.032c0.384,0 0.771,-0.093 1.161,-0.281c0.39,-0.187 0.758,-0.469 1.102,-0.844c0.345,-0.375 0.517,-0.603 0.517,-0.685Z" style="fill:#8000db;fill-rule:nonzero;"/><path d="M138.755,24.365l-6.976,0c0,1.038 0.334,1.893 1,2.567c0.667,0.674 1.485,1.011 2.454,1.011c0.923,-0 1.876,-0.15 2.858,-0.449l0.264,1.099c-0.898,0.363 -1.945,0.545 -3.142,0.545c-1.509,-0 -2.725,-0.437 -3.648,-1.31c-0.924,-0.873 -1.386,-2.05 -1.386,-3.533c0,-1.453 0.415,-2.612 1.244,-3.476c0.829,-0.864 1.901,-1.296 3.215,-1.296c1.17,-0 2.149,0.401 2.936,1.204c0.787,0.803 1.181,1.872 1.181,3.208l-0,0.43Zm-1.659,-1.116c0,-0.715 -0.247,-1.317 -0.741,-1.806c-0.495,-0.489 -1.047,-0.734 -1.659,-0.734c-0.787,0 -1.439,0.235 -1.956,0.703c-0.517,0.469 -0.805,1.081 -0.863,1.837l5.219,0Z" style="fill:#8000db;fill-rule:nonzero;"/><g id="TinyPurpleButton"><circle id="PurpleButton" cx="110.536" cy="24.33" r="5.04" style="fill:#fff;stroke:#8000db;stroke-width:1px;"/><circle id="PurpleButton1" serif:id="PurpleButton" cx="110.536" cy="24.33" r="3.1" style="fill:#8000db;"/></g></g><g><path d="M93.902,179.84c0.771,-0 1.36,0.293 1.765,0.878c0.405,0.586 0.608,1.438 0.608,2.556c-0,1.113 -0.202,1.962 -0.606,2.549c-0.403,0.588 -0.992,0.881 -1.767,0.881c-0.768,0 -1.355,-0.292 -1.76,-0.878c-0.406,-0.586 -0.608,-1.436 -0.608,-2.552c-0,-1.115 0.202,-1.966 0.605,-2.553c0.404,-0.587 0.991,-0.881 1.763,-0.881Zm-0,6.19c1.015,-0 1.523,-0.919 1.523,-2.756c0,-1.839 -0.508,-2.759 -1.523,-2.759c-0.495,-0 -0.872,0.238 -1.131,0.714c-0.258,0.477 -0.388,1.158 -0.388,2.045c0,0.897 0.129,1.58 0.386,2.05c0.257,0.471 0.635,0.706 1.133,0.706Z" style="fill-rule:nonzero;"/><path d="M101.993,186.578l-0.889,-0l-2.471,-5.22l0,5.22l-0.8,-0l-0,-6.612l0.893,0l2.481,5.173l-0,-5.173l0.786,0l-0,6.612Z" style="fill-rule:nonzero;"/></g><g><path d="M44.899,326.513l-0.839,-0l-0.762,-2.315l-2.261,0l-0.771,2.315l-0.83,-0l2.251,-6.611l0.961,-0l2.251,6.611Zm-1.831,-2.985l-0.903,-2.736l-0.898,2.736l1.801,0Z" style="fill-rule:nonzero;"/><path d="M50.158,326.513l-3.75,-0l0,-6.611l0.801,-0l-0,5.941l2.949,-0l0,0.67Z" style="fill-rule:nonzero;"/><path d="M56.159,326.513l-3.75,-0l0,-6.611l0.801,-0l-0,5.941l2.949,-0l0,0.67Z" style="fill-rule:nonzero;"/></g><g><path d="M123.272,179.84c0.771,-0 1.36,0.293 1.765,0.878c0.405,0.586 0.608,1.438 0.608,2.556c-0,1.113 -0.202,1.962 -0.606,2.549c-0.403,0.588 -0.993,0.881 -1.767,0.881c-0.769,0 -1.355,-0.292 -1.761,-0.878c-0.405,-0.586 -0.607,-1.436 -0.607,-2.552c-0,-1.115 0.201,-1.966 0.605,-2.553c0.404,-0.587 0.991,-0.881 1.763,-0.881Zm-0,6.19c1.015,-0 1.523,-0.919 1.523,-2.756c0,-1.839 -0.508,-2.759 -1.523,-2.759c-0.495,-0 -0.872,0.238 -1.131,0.714c-0.258,0.477 -0.388,1.158 -0.388,2.045c0,0.897 0.129,1.58 0.386,2.05c0.257,0.471 0.635,0.706 1.133,0.706Z" style="fill-rule:nonzero;"/><path d="M131.514,186.166c-0.54,0.359 -1.167,0.538 -1.88,0.538c-0.892,0 -1.57,-0.293 -2.034,-0.881c-0.464,-0.587 -0.695,-1.436 -0.695,-2.549c-0,-1.074 0.224,-1.915 0.673,-2.523c0.45,-0.607 1.135,-0.911 2.056,-0.911c0.332,-0 0.661,0.04 0.986,0.122c0.326,0.081 0.588,0.189 0.786,0.323l-0.263,0.604c-0.459,-0.249 -0.962,-0.374 -1.509,-0.374c-0.635,-0 -1.107,0.221 -1.416,0.663c-0.309,0.442 -0.464,1.141 -0.464,2.096c0,1.837 0.627,2.756 1.88,2.756c0.531,-0 1.074,-0.157 1.631,-0.469l0.249,0.605Z" style="fill-rule:nonzero;"/><path d="M137.818,180.59l-2.124,-0l-0,5.988l-0.796,-0l-0,-5.988l-2.134,-0l-0,-0.624l5.054,0l-0,0.624Z" style="fill-rule:nonzero;"/></g><g><path d="M53.457,58.239c0.459,0.103 0.819,0.303 1.079,0.6c0.261,0.296 0.391,0.649 0.391,1.059c-0,0.599 -0.227,1.077 -0.681,1.433c-0.454,0.356 -1,0.535 -1.638,0.535l-1.958,-0l-0,-6.612l1.909,0c0.664,0 1.183,0.14 1.557,0.419c0.375,0.28 0.562,0.674 0.562,1.184c-0,0.312 -0.108,0.59 -0.325,0.834c-0.216,0.243 -0.515,0.42 -0.896,0.529l0,0.019Zm-2.007,-0.356l0.938,-0c0.98,-0 1.47,-0.336 1.47,-1.008c-0,-0.306 -0.121,-0.541 -0.362,-0.705c-0.241,-0.164 -0.594,-0.246 -1.059,-0.246l-0.987,0l0,1.959Zm0,3.313l0.909,-0c0.53,-0 0.951,-0.116 1.262,-0.347c0.311,-0.231 0.466,-0.548 0.466,-0.951c0,-0.428 -0.153,-0.759 -0.459,-0.994c-0.306,-0.234 -0.749,-0.351 -1.328,-0.351l-0.85,-0l0,2.643Z" style="fill-rule:nonzero;"/><path d="M56.88,55.254l1.748,0c0.661,0 1.19,0.159 1.587,0.478c0.397,0.319 0.596,0.758 0.596,1.317c-0,0.562 -0.198,1.011 -0.594,1.347c-0.395,0.336 -0.913,0.504 -1.555,0.504l-0.981,-0l-0,2.966l-0.801,-0l0,-6.612Zm0.801,2.975l0.869,0c0.941,0 1.411,-0.377 1.411,-1.133c0,-0.35 -0.128,-0.633 -0.383,-0.849c-0.256,-0.215 -0.585,-0.323 -0.989,-0.323l-0.908,0l-0,2.305Z" style="fill-rule:nonzero;"/><path d="M66.851,61.866l-0.772,-0l0,-5.67l-1.04,2.713l-0.757,-0l-1.04,-2.713l0,5.67l-0.771,-0l-0,-6.612l1.04,0l1.152,3.013l1.148,-3.013l1.04,0l-0,6.612Z" style="fill-rule:nonzero;"/></g><g><path d="M15.267,55.128l1.748,-0c0.66,-0 1.189,0.159 1.587,0.478c0.397,0.318 0.595,0.757 0.595,1.316c0,0.562 -0.198,1.012 -0.593,1.347c-0.396,0.336 -0.914,0.504 -1.555,0.504l-0.982,0l0,2.966l-0.8,0l-0,-6.611Zm0.8,2.975l0.869,-0c0.941,-0 1.412,-0.378 1.412,-1.134c-0,-0.35 -0.128,-0.633 -0.384,-0.848c-0.255,-0.216 -0.585,-0.323 -0.988,-0.323l-0.909,-0l0,2.305Z" style="fill-rule:nonzero;"/><path d="M25.018,61.739l-3.75,0l-0,-6.611l0.8,-0l0,5.941l2.95,-0l-0,0.67Z" style="fill-rule:nonzero;"/><path d="M31.761,61.739l-0.84,0l-0.762,-2.315l-2.261,0l-0.771,2.315l-0.83,0l2.251,-6.611l0.962,-0l2.251,6.611Zm-1.831,-2.985l-0.904,-2.736l-0.898,2.736l1.802,0Z" style="fill-rule:nonzero;"/><path d="M37.581,55.128l-2.153,3.781l-0,2.83l-0.796,0l-0,-2.83l-2.154,-3.781l0.904,-0l1.645,2.975l1.651,-2.975l0.903,-0Z" style="fill-rule:nonzero;"/></g><text x="41.953px" y="120.851px" style="font-family:'AndaleMono', 'Andale Mono', monospace;font-size:9.596px;">C</text><text x="41.734px" y="148.425px" style="font-family:'AndaleMono', 'Andale Mono', monospace;font-size:9.596px;">M<tspan x="47.735px 53.736px 59.737px 65.737px " y="148.425px 148.425px 148.425px 148.425px ">ajor</tspan></text><text x="96.795px" y="112.784px" style="font-family:'AndaleMono', 'Andale Mono', monospace;font-size:9.596px;">P<tspan x="102.796px 108.797px 114.798px 120.799px " y="112.784px 112.784px 112.784px 112.784px ">ITCH</tspan></text><g><path d="M94.296,135.087c-0.299,-0.098 -0.582,-0.147 -0.851,-0.147c-0.304,-0 -0.551,0.066 -0.742,0.2c-0.192,0.133 -0.287,0.323 -0.287,0.569c-0,0.291 0.25,0.548 0.751,0.769c0.371,0.164 0.616,0.278 0.736,0.342c0.12,0.063 0.241,0.151 0.365,0.263c0.123,0.111 0.223,0.243 0.297,0.395c0.075,0.151 0.113,0.321 0.113,0.511c-0,0.469 -0.165,0.833 -0.494,1.092c-0.329,0.258 -0.716,0.388 -1.163,0.388c-0.432,-0 -0.811,-0.083 -1.136,-0.247l0.121,-0.482c0.383,0.167 0.716,0.25 1.001,0.25c0.333,-0 0.599,-0.083 0.8,-0.248c0.2,-0.165 0.301,-0.392 0.301,-0.682c-0,-0.214 -0.066,-0.396 -0.196,-0.545c-0.131,-0.149 -0.372,-0.301 -0.723,-0.456c-0.361,-0.16 -0.594,-0.268 -0.7,-0.327c-0.106,-0.058 -0.211,-0.138 -0.315,-0.241c-0.105,-0.102 -0.186,-0.217 -0.243,-0.345c-0.057,-0.127 -0.085,-0.266 -0.085,-0.417c-0,-0.399 0.15,-0.71 0.449,-0.933c0.299,-0.223 0.678,-0.335 1.136,-0.335c0.335,0 0.667,0.049 0.997,0.147l-0.132,0.479Z" style="fill-rule:nonzero;"/><path d="M98.72,139.376l-2.283,0l0,-0.489l0.866,0l-0,-3.845l-0.866,0l0,-0.489l2.283,0l0,0.489l-0.833,0l-0,3.845l0.833,0l0,0.489Z" style="fill-rule:nonzero;"/><path d="M103.497,134.953l-2.39,3.934l2.347,0l-0,0.489l-3.013,0l-0,-0.393l2.379,-3.941l-2.276,0l-0,-0.489l2.953,0l-0,0.4Z" style="fill-rule:nonzero;"/><path d="M107.707,139.376l-2.625,0l-0,-4.823l2.603,0l0,0.489l-2.019,0l-0,1.494l1.941,-0l-0,0.489l-1.941,-0l-0,1.862l2.041,0l-0,0.489Z" style="fill-rule:nonzero;"/></g><g><path d="M117.819,134.461l1.275,0c0.482,0 0.868,0.116 1.158,0.349c0.289,0.232 0.434,0.552 0.434,0.96c0,0.41 -0.144,0.738 -0.432,0.983c-0.289,0.245 -0.667,0.367 -1.135,0.367l-0.716,0l0,2.164l-0.584,-0l0,-4.823Zm0.584,2.171l0.634,-0c0.686,-0 1.03,-0.276 1.03,-0.828c-0,-0.255 -0.094,-0.461 -0.28,-0.618c-0.186,-0.157 -0.427,-0.236 -0.721,-0.236l-0.663,-0l0,1.682Z" style="fill-rule:nonzero;"/><path d="M123.464,134.369c0.563,-0 0.992,0.214 1.288,0.641c0.296,0.427 0.444,1.049 0.444,1.864c-0,0.811 -0.148,1.431 -0.442,1.86c-0.295,0.428 -0.724,0.642 -1.29,0.642c-0.56,0 -0.988,-0.213 -1.284,-0.641c-0.295,-0.427 -0.443,-1.047 -0.443,-1.861c0,-0.813 0.147,-1.434 0.442,-1.863c0.294,-0.428 0.723,-0.642 1.285,-0.642Zm0,4.515c0.741,0 1.112,-0.67 1.112,-2.01c-0,-1.342 -0.371,-2.013 -1.112,-2.013c-0.36,0 -0.635,0.174 -0.824,0.521c-0.189,0.348 -0.283,0.845 -0.283,1.492c-0,0.654 0.094,1.153 0.281,1.496c0.188,0.343 0.463,0.514 0.826,0.514Z" style="fill-rule:nonzero;"/><path d="M128.921,134.994c-0.299,-0.098 -0.583,-0.147 -0.851,-0.147c-0.304,0 -0.552,0.067 -0.743,0.2c-0.191,0.134 -0.286,0.323 -0.286,0.569c-0,0.292 0.25,0.548 0.751,0.769c0.371,0.165 0.616,0.278 0.736,0.342c0.12,0.064 0.241,0.152 0.365,0.263c0.123,0.112 0.222,0.244 0.297,0.395c0.075,0.152 0.112,0.322 0.112,0.511c0,0.47 -0.164,0.834 -0.493,1.092c-0.329,0.259 -0.717,0.388 -1.163,0.388c-0.432,0 -0.811,-0.082 -1.136,-0.246l0.121,-0.482c0.382,0.167 0.716,0.25 1.001,0.25c0.332,-0 0.599,-0.083 0.799,-0.248c0.201,-0.165 0.301,-0.393 0.301,-0.682c0,-0.214 -0.065,-0.396 -0.196,-0.545c-0.13,-0.149 -0.371,-0.302 -0.723,-0.456c-0.36,-0.16 -0.594,-0.269 -0.699,-0.327c-0.106,-0.058 -0.211,-0.138 -0.316,-0.241c-0.104,-0.102 -0.185,-0.217 -0.242,-0.345c-0.057,-0.128 -0.085,-0.267 -0.085,-0.417c-0,-0.399 0.149,-0.71 0.448,-0.933c0.3,-0.223 0.678,-0.335 1.137,-0.335c0.334,-0 0.667,0.049 0.997,0.147l-0.132,0.478Z" style="fill-rule:nonzero;"/></g><text x="121.57px" y="61.866px" style="font-family:'AndaleMono', 'Andale Mono', monospace;font-size:9.596px;">C<tspan x="127.571px 133.572px " y="61.866px 61.866px ">LR</tspan></text><g><path d="M83.889,61.866l-0.771,-0l-0,-5.67l-1.04,2.713l-0.757,-0l-1.04,-2.713l-0,5.67l-0.772,-0l0,-6.612l1.04,0l1.153,3.013l1.147,-3.013l1.04,0l0,6.612Z" style="fill-rule:nonzero;"/><path d="M87.659,55.128c0.771,-0 1.359,0.292 1.765,0.878c0.405,0.586 0.608,1.438 0.608,2.556c-0,1.112 -0.202,1.962 -0.606,2.549c-0.403,0.587 -0.993,0.881 -1.767,0.881c-0.769,0 -1.355,-0.293 -1.761,-0.878c-0.405,-0.586 -0.608,-1.437 -0.608,-2.552c0,-1.115 0.202,-1.966 0.606,-2.554c0.404,-0.587 0.991,-0.88 1.763,-0.88Zm-0,6.189c1.015,0 1.523,-0.918 1.523,-2.755c0,-1.84 -0.508,-2.76 -1.523,-2.76c-0.495,0 -0.872,0.239 -1.131,0.715c-0.259,0.476 -0.388,1.158 -0.388,2.045c0,0.897 0.129,1.58 0.386,2.05c0.257,0.47 0.635,0.705 1.133,0.705Z" style="fill-rule:nonzero;"/><path d="M96.389,55.254l-2.246,6.612l-0.962,-0l-2.251,-6.612l0.84,0l1.89,5.721l1.899,-5.721l0.83,0Z" style="fill-rule:nonzero;"/><path d="M101.521,61.866l-3.599,-0l0,-6.612l3.57,0l-0,0.67l-2.769,0l0,2.048l2.661,-0l0,0.67l-2.661,-0l0,2.554l2.798,-0l-0,0.67Z" style="fill-rule:nonzero;"/></g><g><path d="M24.035,186.109c-0.563,0.397 -1.187,0.595 -1.87,0.595c-0.896,0 -1.574,-0.291 -2.037,-0.874c-0.462,-0.582 -0.693,-1.434 -0.693,-2.556c0,-1.083 0.224,-1.927 0.672,-2.53c0.447,-0.603 1.133,-0.904 2.058,-0.904c0.332,-0 0.66,0.04 0.986,0.122c0.325,0.081 0.588,0.189 0.786,0.323l-0.264,0.604c-0.459,-0.249 -0.962,-0.374 -1.508,-0.374c-0.632,-0 -1.103,0.221 -1.414,0.665c-0.311,0.444 -0.466,1.142 -0.466,2.094c-0,1.837 0.626,2.756 1.88,2.756c0.472,-0 0.828,-0.096 1.069,-0.286l-0,-1.631l-1.24,0l-0,-0.665l2.041,-0l-0,2.661Z" style="fill-rule:nonzero;"/><path d="M29.808,186.578l-0.84,-0l-0.761,-2.315l-2.261,0l-0.772,2.315l-0.83,-0l2.251,-6.612l0.962,0l2.251,6.612Zm-1.831,-2.985l-0.903,-2.736l-0.899,2.736l1.802,0Z" style="fill-rule:nonzero;"/><path d="M34.849,180.59l-2.124,-0l0,5.988l-0.796,-0l0,-5.988l-2.134,-0l0,-0.624l5.054,0l0,0.624Z" style="fill-rule:nonzero;"/><path d="M39.417,186.578l-3.599,-0l-0,-6.612l3.569,0l0,0.67l-2.768,0l-0,2.048l2.661,0l-0,0.67l-2.661,0l-0,2.554l2.798,-0l-0,0.67Z" style="fill-rule:nonzero;"/><path d="M44.287,180.697c-0.41,-0.134 -0.799,-0.201 -1.167,-0.201c-0.417,-0 -0.756,0.091 -1.018,0.274c-0.262,0.183 -0.393,0.443 -0.393,0.78c-0,0.4 0.343,0.751 1.03,1.054c0.508,0.225 0.844,0.382 1.008,0.469c0.165,0.087 0.331,0.208 0.501,0.361c0.169,0.153 0.305,0.333 0.407,0.541c0.103,0.208 0.154,0.441 0.154,0.7c0,0.644 -0.225,1.143 -0.676,1.498c-0.451,0.354 -0.982,0.531 -1.594,0.531c-0.593,0 -1.112,-0.112 -1.558,-0.337l0.166,-0.661c0.524,0.228 0.981,0.342 1.372,0.342c0.456,0 0.821,-0.113 1.096,-0.339c0.275,-0.227 0.413,-0.538 0.413,-0.935c-0,-0.294 -0.09,-0.543 -0.269,-0.747c-0.179,-0.205 -0.509,-0.414 -0.991,-0.626c-0.495,-0.219 -0.814,-0.368 -0.959,-0.448c-0.145,-0.079 -0.289,-0.189 -0.432,-0.33c-0.144,-0.14 -0.254,-0.298 -0.333,-0.473c-0.078,-0.175 -0.117,-0.366 -0.117,-0.572c0,-0.546 0.205,-0.973 0.616,-1.279c0.41,-0.306 0.929,-0.459 1.557,-0.459c0.459,-0 0.915,0.067 1.367,0.201l-0.18,0.656Z" style="fill-rule:nonzero;"/></g><g><path d="M56.769,179.966l-2.246,6.612l-0.962,-0l-2.251,-6.612l0.84,0l1.889,5.722l1.9,-5.722l0.83,0Z" style="fill-rule:nonzero;"/><path d="M61.063,179.84l-2.993,6.864l-0.718,0l2.978,-6.864l0.733,-0Z" style="fill-rule:nonzero;"/><path d="M64.541,179.84c0.772,-0 1.36,0.293 1.765,0.878c0.406,0.586 0.608,1.438 0.608,2.556c0,1.113 -0.201,1.962 -0.605,2.549c-0.404,0.588 -0.993,0.881 -1.768,0.881c-0.768,0 -1.355,-0.292 -1.76,-0.878c-0.405,-0.586 -0.608,-1.436 -0.608,-2.552c0,-1.115 0.202,-1.966 0.606,-2.553c0.403,-0.587 0.991,-0.881 1.762,-0.881Zm0,6.19c1.016,-0 1.524,-0.919 1.524,-2.756c-0,-1.839 -0.508,-2.759 -1.524,-2.759c-0.494,-0 -0.871,0.238 -1.13,0.714c-0.259,0.477 -0.388,1.158 -0.388,2.045c-0,0.897 0.128,1.58 0.385,2.05c0.258,0.471 0.635,0.706 1.133,0.706Z" style="fill-rule:nonzero;"/><path d="M72.033,186.166c-0.54,0.359 -1.167,0.538 -1.879,0.538c-0.892,0 -1.57,-0.293 -2.034,-0.881c-0.464,-0.587 -0.696,-1.436 -0.696,-2.549c0,-1.074 0.225,-1.915 0.674,-2.523c0.449,-0.607 1.134,-0.911 2.056,-0.911c0.332,-0 0.66,0.04 0.986,0.122c0.325,0.081 0.587,0.189 0.786,0.323l-0.264,0.604c-0.459,-0.249 -0.962,-0.374 -1.508,-0.374c-0.635,-0 -1.107,0.221 -1.416,0.663c-0.31,0.442 -0.464,1.141 -0.464,2.096c-0,1.837 0.626,2.756 1.88,2.756c0.53,-0 1.074,-0.157 1.63,-0.469l0.249,0.605Z" style="fill-rule:nonzero;"/><path d="M77.587,180.59l-2.124,-0l0,5.988l-0.796,-0l0,-5.988l-2.134,-0l0,-0.624l5.054,0l0,0.624Z" style="fill-rule:nonzero;"/></g></g></g></svg>