<?xml version="1.0" encoding="UTF-8" standalone="no"?><!DOCTYPE svg PUBLIC "-//W3C//DTD SVG 1.1//EN" "http://www.w3.org/Graphics/SVG/1.1/DTD/svg11.dtd"><svg width="100%" height="100%" viewBox="0 0 495 380" version="1.1" xmlns="http://www.w3.org/2000/svg" xmlns:xlink="http://www.w3.org/1999/xlink" xml:space="preserve" xmlns:serif="http://www.serif.com/" style="fill-rule:evenodd;clip-rule:evenodd;stroke-linejoin:round;stroke-miterlimit:2;"><rect id="Nodes" x="0" y="0" width="495" height="379.559" style="fill:none;"/><clipPath id="_clip1"><rect x="0" y="0" width="495" height="379.559"/></clipPath><g clip-path="url(#_clip1)"><g id="Layer1"><rect id="background" x="-9.15" y="-7.016" width="513.301" height="393.592" style="fill:#e6e6e6;"/><path d="M504.15,-7.016l-513.3,-0l-0,393.591l513.3,0l0,-393.591Zm-512.3,1l-0,391.591l511.3,0l0,-391.591l-511.3,-0Z" style="fill:#646464;"/><rect id="rect" x="66.5" y="8.78" width="362" height="362" style="fill:#333;"/><g><path d="M11.403,22.559l-1.973,-0l-5.485,-10.879l0,10.879l-1.777,-0l-0,-13.779l1.983,-0l5.507,10.781l-0,-10.781l1.745,-0l0,13.779Z" style="fill-rule:nonzero;"/><path d="M20.107,12.139c1.554,-0 2.79,0.488 3.708,1.465c0.917,0.976 1.376,2.262 1.376,3.857c0,1.608 -0.459,2.904 -1.376,3.887c-0.918,0.983 -2.154,1.474 -3.708,1.474c-1.56,0 -2.798,-0.489 -3.712,-1.469c-0.914,-0.98 -1.371,-2.277 -1.371,-3.892c-0,-1.601 0.458,-2.889 1.376,-3.862c0.918,-0.973 2.154,-1.46 3.707,-1.46Zm0,9.355c1.027,0 1.836,-0.39 2.429,-1.172c0.592,-0.781 0.888,-1.728 0.888,-2.841c0,-1.172 -0.292,-2.136 -0.878,-2.891c-0.585,-0.755 -1.398,-1.133 -2.439,-1.133c-1.047,0 -1.86,0.373 -2.439,1.118c-0.578,0.746 -0.867,1.714 -0.867,2.906c0,1.133 0.293,2.085 0.878,2.856c0.586,0.772 1.395,1.157 2.428,1.157Z" style="fill-rule:nonzero;"/><path d="M37.766,22.559l-1.691,-0l-0,-1.465c-0.347,0.501 -0.844,0.915 -1.491,1.24c-0.647,0.326 -1.328,0.488 -2.043,0.488c-1.294,0 -2.316,-0.519 -3.068,-1.557c-0.751,-1.039 -1.127,-2.355 -1.127,-3.95c-0,-1.491 0.392,-2.727 1.176,-3.706c0.784,-0.98 1.823,-1.47 3.116,-1.47c1.424,-0 2.569,0.521 3.437,1.562l-0,-4.921l1.691,-0l-0,13.779Zm-1.691,-3.115l-0,-4.229c-0.81,-1.172 -1.785,-1.758 -2.927,-1.758c-0.932,0 -1.67,0.373 -2.212,1.118c-0.542,0.746 -0.813,1.688 -0.813,2.828c0,1.171 0.255,2.14 0.765,2.905c0.509,0.765 1.208,1.147 2.097,1.147c0.427,0 0.857,-0.104 1.29,-0.312c0.434,-0.209 0.842,-0.521 1.225,-0.938c0.383,-0.416 0.575,-0.67 0.575,-0.761Z" style="fill-rule:nonzero;"/><path d="M51.467,17.52l-7.75,-0c-0,1.152 0.37,2.103 1.111,2.851c0.74,0.749 1.649,1.123 2.726,1.123c1.026,0 2.085,-0.166 3.176,-0.498l0.293,1.221c-0.998,0.404 -2.161,0.605 -3.491,0.605c-1.676,0 -3.028,-0.485 -4.054,-1.455c-1.026,-0.97 -1.539,-2.278 -1.539,-3.925c-0,-1.615 0.461,-2.902 1.382,-3.863c0.921,-0.96 2.112,-1.44 3.572,-1.44c1.3,-0 2.388,0.446 3.263,1.338c0.874,0.892 1.311,2.08 1.311,3.564l0,0.479Zm-1.843,-1.24c0,-0.795 -0.274,-1.464 -0.823,-2.007c-0.55,-0.544 -1.164,-0.816 -1.843,-0.816c-0.875,0 -1.599,0.261 -2.174,0.782c-0.574,0.52 -0.894,1.201 -0.959,2.041l5.799,-0Z" style="fill-rule:nonzero;"/><path d="M63.272,13.838c-0.947,-0.28 -1.839,-0.42 -2.678,-0.42c-0.917,0 -1.644,0.139 -2.179,0.415c-0.534,0.277 -0.802,0.646 -0.802,1.109c0,0.293 0.123,0.548 0.369,0.766c0.246,0.218 0.737,0.422 1.474,0.611l1.615,0.42c0.745,0.188 1.352,0.415 1.821,0.678c0.47,0.264 0.822,0.583 1.057,0.957c0.235,0.375 0.353,0.809 0.353,1.304c-0,0.97 -0.452,1.737 -1.355,2.3c-0.904,0.563 -2.053,0.844 -3.448,0.844c-1.387,0 -2.532,-0.188 -3.436,-0.566l0.325,-1.318c0.947,0.403 1.962,0.605 3.046,0.605c0.94,0 1.704,-0.158 2.293,-0.473c0.589,-0.316 0.883,-0.734 0.883,-1.255c0,-0.352 -0.146,-0.666 -0.439,-0.943c-0.292,-0.276 -0.981,-0.564 -2.065,-0.864c-0.874,-0.241 -1.517,-0.422 -1.929,-0.542c-0.412,-0.12 -0.795,-0.298 -1.149,-0.532c-0.354,-0.235 -0.623,-0.514 -0.808,-0.84c-0.184,-0.326 -0.276,-0.69 -0.276,-1.094c-0,-0.879 0.426,-1.575 1.279,-2.09c0.853,-0.514 1.984,-0.771 3.393,-0.771c0.911,-0 1.922,0.14 3.035,0.42l-0.379,1.279Z" style="fill-rule:nonzero;"/></g><circle cx="20.107" cy="17.476" r="1.5"/></g><g id="components"></g></g></svg>