<?xml version="1.0" encoding="UTF-8" standalone="no"?>
<svg
   width="100%"
   height="100%"
   viewBox="0 0 540 380"
   version="1.1"
   xml:space="preserve"
   style="fill-rule:evenodd;clip-rule:evenodd;stroke-miterlimit:1.5;"
   id="svg88"
   sodipodi:docname="Orbitones-dark.svg"
   inkscape:version="1.3 (0e150ed6c4, 2023-07-21)"
   xmlns:inkscape="http://www.inkscape.org/namespaces/inkscape"
   xmlns:sodipodi="http://sodipodi.sourceforge.net/DTD/sodipodi-0.dtd"
   xmlns="http://www.w3.org/2000/svg"
   xmlns:svg="http://www.w3.org/2000/svg"
   xmlns:serif="http://www.serif.com/"><defs
     id="defs88" /><sodipodi:namedview
     id="namedview88"
     pagecolor="#ffffff"
     bordercolor="#999999"
     borderopacity="1"
     inkscape:showpageshadow="2"
     inkscape:pageopacity="0"
     inkscape:pagecheckerboard="0"
     inkscape:deskcolor="#d1d1d1"
     inkscape:zoom="1.780474"
     inkscape:cx="269.59113"
     inkscape:cy="189.55626"
     inkscape:window-width="1920"
     inkscape:window-height="1051"
     inkscape:window-x="-9"
     inkscape:window-y="-9"
     inkscape:window-maximized="1"
     inkscape:current-layer="svg88" /><rect
     id="Orbitones--revise-"
     serif:id="Orbitones (revise)"
     x="0"
     y="0"
     width="540"
     height="379.559"
     style="fill:none;" /><clipPath
     id="_clip1"><rect
       x="0"
       y="0"
       width="540"
       height="379.559"
       id="rect1" /></clipPath><g
     clip-path="url(#_clip1)"
     id="g88"><g
       id="Layer1"><rect
         id="background"
         x="-9.15"
         y="-7.016"
         width="557.155"
         height="393.592"
         style="fill:#080033;fill-opacity:1" /><path
         d="M548.005,-7.016l-557.155,-0l-0,393.591l557.155,0l-0,-393.591Zm-1,1l-0,391.591c-0,0 -555.155,0 -555.155,0c-0,-21.136 -0,-370.455 -0,-391.591l555.155,-0Z"
         style="fill:#646464;"
         id="path1" /><rect
         id="rect"
         x="55.927"
         y="0.78"
         width="427"
         height="378"
         style="fill:#1a1a1a;fill-opacity:1" /><g
         id="g3"
         style="fill:#ffffff"><path
           d="M25.102,210.263c0.772,-0 1.36,0.293 1.765,0.878c0.406,0.586 0.608,1.438 0.608,2.556c0,1.112 -0.201,1.962 -0.605,2.549c-0.404,0.588 -0.993,0.881 -1.768,0.881c-0.768,0 -1.355,-0.293 -1.76,-0.878c-0.405,-0.586 -0.608,-1.436 -0.608,-2.552c0,-1.115 0.202,-1.966 0.606,-2.553c0.403,-0.588 0.991,-0.881 1.762,-0.881Zm0,6.19c1.016,-0 1.524,-0.919 1.524,-2.756c-0,-1.839 -0.508,-2.759 -1.524,-2.759c-0.494,-0 -0.871,0.238 -1.13,0.714c-0.259,0.477 -0.388,1.158 -0.388,2.045c-0,0.897 0.128,1.58 0.385,2.05c0.258,0.471 0.635,0.706 1.133,0.706Z"
           style="fill-rule:nonzero;fill:#ffffff"
           id="path2" /><path
           d="M33.193,217.001l-0.889,-0l-2.47,-5.22l-0,5.22l-0.801,-0l-0,-6.612l0.894,0l2.48,5.173l-0,-5.173l0.786,0l0,6.612Z"
           style="fill-rule:nonzero;fill:#ffffff"
           id="path3" /></g><path
         d="M500.71,250.322l-0.888,-0l-1.748,-2.708l-1.734,2.708l-0.889,-0l2.203,-3.369l-2.193,-3.243l0.918,0l1.695,2.62l1.709,-2.62l0.878,0l-2.158,3.243l2.207,3.369Z"
         style="fill-rule:nonzero;fill:#ffffff"
         id="path4" /><path
         d="M501.745,173.838l-0.889,-0l-1.748,-2.709l-1.733,2.709l-0.889,-0l2.203,-3.369l-2.193,-3.243l0.918,0l1.694,2.619l1.709,-2.619l0.879,0l-2.158,3.243l2.207,3.369Z"
         style="fill-rule:nonzero;fill:#ffffff"
         id="path5" /><path
         d="M527.398,243.71l-2.154,3.782l0,2.83l-0.796,-0l0,-2.83l-2.153,-3.782l0.903,0l1.646,2.976l1.65,-2.976l0.904,0Z"
         style="fill-rule:nonzero;fill:#ffffff"
         id="path6" /><path
         d="M526.363,167.226l-2.154,3.781l0,2.831l-0.795,-0l-0,-2.831l-2.154,-3.781l0.904,0l1.645,2.975l1.65,-2.975l0.904,0Z"
         style="fill-rule:nonzero;fill:#ffffff"
         id="path7" /><g
         id="g10"
         style="fill:#ffffff"><path
           d="M38.006,82.606c-0.54,0.359 -1.167,0.539 -1.88,0.539c-0.892,0 -1.57,-0.294 -2.033,-0.881c-0.464,-0.587 -0.696,-1.437 -0.696,-2.549c-0,-1.074 0.224,-1.915 0.674,-2.523c0.449,-0.608 1.134,-0.911 2.055,-0.911c0.332,-0 0.661,0.04 0.987,0.121c0.325,0.082 0.587,0.189 0.786,0.324l-0.264,0.604c-0.459,-0.25 -0.962,-0.375 -1.509,-0.375c-0.634,0 -1.106,0.221 -1.416,0.663c-0.309,0.442 -0.464,1.141 -0.464,2.097c0,1.837 0.627,2.755 1.88,2.755c0.531,0 1.075,-0.156 1.631,-0.468l0.249,0.604Z"
           style="fill-rule:nonzero;fill:#ffffff"
           id="path8" /><path
           d="M43.778,83.019l-3.75,-0l-0,-6.612l0.8,0l0,5.942l2.95,-0l-0,0.67Z"
           style="fill-rule:nonzero;fill:#ffffff"
           id="path9" /><path
           d="M50.511,83.019l-1.001,-0l-2.021,-3.004l-0.889,0l-0,3.004l-0.801,-0l0,-6.612l1.948,0c0.655,0 1.171,0.152 1.551,0.457c0.379,0.305 0.569,0.729 0.569,1.272c-0,0.403 -0.139,0.762 -0.415,1.075c-0.277,0.314 -0.658,0.528 -1.143,0.64l2.202,3.168Zm-3.911,-3.674l1.011,0c0.423,0 0.766,-0.11 1.03,-0.33c0.264,-0.221 0.395,-0.498 0.395,-0.832c0,-0.737 -0.468,-1.106 -1.406,-1.106l-1.03,0l-0,2.268Z"
           style="fill-rule:nonzero;fill:#ffffff"
           id="path10" /></g><g
         id="logo"><g
           id="g12"><circle
             cx="21.668"
             cy="337.393"
             r="1.627"
             style="fill:#8000db;"
             id="circle10" /><path
             d="M21.668,337.393l5.554,0"
             style="fill:none;stroke:#8000db;stroke-width:1.35px;"
             id="path11" /><path
             d="M27.222,334.613c0,-1.533 -1.244,-2.777 -2.777,-2.777l-5.554,-0c-1.533,-0 -2.777,1.244 -2.777,2.777l0,5.561c0,1.532 1.244,2.777 2.777,2.777l5.554,-0c1.533,-0 2.777,-1.245 2.777,-2.777l0,-5.561Z"
             style="fill:none;stroke:#8000db;stroke-width:1.35px;stroke-linejoin:round;stroke-miterlimit:3;"
             id="path12" /></g><g
           id="g13"><circle
             cx="34.266"
             cy="349.51"
             r="1.627"
             style="fill:#f00;"
             id="circle12" /><path
             d="M37.043,343.953l-5.554,0c-1.533,0 -2.777,0.802 -2.777,1.79l-0,7.535c-0,0.988 1.244,1.79 2.777,1.79l5.554,-0c1.533,-0 2.777,-0.802 2.777,-1.79l-0,-3.768l-5.554,0"
             style="fill:none;stroke:#f00;stroke-width:1.35px;stroke-linecap:round;stroke-linejoin:round;stroke-miterlimit:3;"
             id="path13" /></g><g
           id="g14"><circle
             cx="34.266"
             cy="337.393"
             r="1.627"
             style="fill:#2600ff;"
             id="circle13" /><path
             d="M39.82,342.951l-0,-8.982c-0,-1.177 -1.244,-2.133 -2.777,-2.133l-5.554,-0c-1.533,-0 -2.777,0.956 -2.777,2.133l-0,8.982"
             style="fill:none;stroke:#2600ff;stroke-width:1.35px;stroke-linecap:round;stroke-linejoin:round;stroke-miterlimit:3;"
             id="path14" /></g><g
           id="g15"><circle
             cx="21.665"
             cy="349.51"
             r="1.627"
             style="fill:#0ef;"
             id="circle14" /><path
             d="M16.107,355.068l0,-11.115l11.115,11.115l0,-11.115"
             style="fill:none;stroke:#0ef;stroke-width:1.35px;stroke-linecap:round;stroke-linejoin:round;"
             id="path15" /></g></g><g
         id="g24"><path
           d="M11.04,19.359c2.07,0 3.649,0.786 4.737,2.358c1.087,1.571 1.631,3.858 1.631,6.859c0,2.984 -0.542,5.264 -1.625,6.84c-1.083,1.576 -2.664,2.364 -4.743,2.364c-2.061,-0 -3.636,-0.786 -4.723,-2.358c-1.088,-1.572 -1.632,-3.854 -1.632,-6.846c0,-2.993 0.542,-5.277 1.625,-6.853c1.083,-1.576 2.66,-2.364 4.73,-2.364Zm0,16.61c2.725,-0 4.088,-2.464 4.088,-7.393c0,-4.938 -1.363,-7.406 -4.088,-7.406c-1.328,-0 -2.339,0.639 -3.033,1.917c-0.695,1.279 -1.042,3.108 -1.042,5.489c0,2.405 0.345,4.239 1.035,5.501c0.69,1.261 1.704,1.892 3.04,1.892Z"
           style="fill:#2600ff;fill-rule:nonzero;"
           id="path16" /><path
           d="M16.569,43.69l-0.825,1.886c-0.9,-0.377 -1.677,-0.565 -2.332,-0.565c-0.603,-0 -1.193,0.165 -1.769,0.496c-0.577,0.331 -1.107,0.805 -1.592,1.421c-0.485,0.616 -0.727,0.962 -0.727,1.037l-0,8.475l-2.031,0l-0,-13.102l2.031,0l-0,2.653c1.092,-1.978 2.507,-2.967 4.245,-2.967c1.031,0 2.031,0.222 3,0.666Z"
           style="fill:#2600ff;fill-rule:nonzero;"
           id="path17" /><path
           d="M7.882,64.036c0.455,-0.604 1.068,-1.09 1.841,-1.459c0.773,-0.369 1.588,-0.553 2.444,-0.553c1.59,0 2.828,0.612 3.715,1.836c0.886,1.224 1.33,2.833 1.33,4.828c-0,2.02 -0.472,3.707 -1.416,5.061c-0.943,1.354 -2.205,2.031 -3.786,2.031c-0.848,-0 -1.64,-0.204 -2.378,-0.61c-0.739,-0.407 -1.322,-0.945 -1.75,-1.616l0,1.886l-2.044,0l0,-17.741l2.044,-0l0,6.337Zm0,1.949l0,5.444c0.385,0.738 0.904,1.354 1.56,1.848c0.655,0.495 1.332,0.742 2.031,0.742c1.1,0 1.976,-0.503 2.627,-1.509c0.65,-1.005 0.976,-2.242 0.976,-3.709c-0,-1.509 -0.31,-2.732 -0.931,-3.671c-0.62,-0.939 -1.484,-1.409 -2.594,-1.409c-1.441,0 -2.664,0.755 -3.669,2.264Z"
           style="fill:#2600ff;fill-rule:nonzero;"
           id="path18" /><path
           d="M11.957,76.384c0.385,0 0.712,0.132 0.983,0.396c0.271,0.264 0.406,0.581 0.406,0.95c0,0.385 -0.133,0.708 -0.399,0.968c-0.267,0.26 -0.597,0.39 -0.99,0.39c-0.358,-0 -0.674,-0.137 -0.95,-0.409c-0.275,-0.272 -0.412,-0.589 -0.412,-0.949c-0,-0.361 0.137,-0.675 0.412,-0.943c0.276,-0.269 0.592,-0.403 0.95,-0.403Zm0.996,18.056l-2.044,0l0,-11.404l-4.022,-0l-0,-1.698l6.066,0l0,13.102Z"
           style="fill:#2600ff;fill-rule:nonzero;"
           id="path19" /><path
           d="M16.491,112.849c-1.372,0.604 -2.721,0.905 -4.049,0.905c-2.437,0 -3.656,-1.236 -3.656,-3.709l0,-8.009l-2.62,-0l-0,-1.698l2.62,0l0,-3.583l1.992,-0l0,3.583l4.638,0l0,1.698l-4.638,-0l0,7.494c0,0.796 0.184,1.414 0.55,1.854c0.367,0.44 0.865,0.66 1.494,0.66c1.118,0 2.223,-0.239 3.315,-0.716l0.354,1.521Z"
           style="fill:#2600ff;fill-rule:nonzero;"
           id="path20" /><path
           d="M11.066,119.024c1.878,0 3.372,0.629 4.481,1.886c1.11,1.257 1.665,2.913 1.665,4.967c-0,2.07 -0.555,3.738 -1.665,5.004c-1.109,1.266 -2.603,1.899 -4.481,1.899c-1.886,-0 -3.382,-0.631 -4.487,-1.893c-1.105,-1.261 -1.658,-2.932 -1.658,-5.01c0,-2.062 0.555,-3.72 1.664,-4.973c1.11,-1.253 2.603,-1.88 4.481,-1.88Zm0,12.046c1.241,-0 2.219,-0.503 2.935,-1.509c0.717,-1.006 1.075,-2.226 1.075,-3.659c-0,-1.509 -0.354,-2.75 -1.062,-3.722c-0.707,-0.972 -1.69,-1.459 -2.948,-1.459c-1.266,0 -2.249,0.48 -2.948,1.44c-0.699,0.96 -1.048,2.207 -1.048,3.741c0,1.458 0.354,2.684 1.061,3.678c0.708,0.993 1.686,1.49 2.935,1.49Z"
           style="fill:#2600ff;fill-rule:nonzero;"
           id="path21" /><path
           d="M16.36,151.44l-2.044,0l-0,-8.399c-0,-1.165 -0.195,-2.01 -0.583,-2.534c-0.389,-0.524 -0.998,-0.786 -1.828,-0.786c-1.249,0 -2.59,0.746 -4.023,2.239l0,9.48l-2.044,0l0,-13.102l2.044,0l0,1.924c1.468,-1.492 3.014,-2.238 4.639,-2.238c2.559,0 3.839,1.484 3.839,4.451l-0,8.965Z"
           style="fill:#2600ff;fill-rule:nonzero;"
           id="path22" /><path
           d="M16.766,163.952l-9.368,0c-0,1.484 0.447,2.708 1.343,3.672c0.895,0.964 1.993,1.446 3.295,1.446c1.24,-0 2.52,-0.214 3.839,-0.642l0.354,1.572c-1.206,0.52 -2.612,0.78 -4.219,0.78c-2.027,-0 -3.66,-0.625 -4.901,-1.874c-1.24,-1.249 -1.86,-2.934 -1.86,-5.055c-0,-2.078 0.557,-3.736 1.67,-4.972c1.114,-1.237 2.553,-1.855 4.318,-1.855c1.572,0 2.887,0.574 3.944,1.723c1.057,1.148 1.585,2.678 1.585,4.589l0,0.616Zm-2.227,-1.597c-0,-1.022 -0.332,-1.884 -0.996,-2.584c-0.664,-0.7 -1.407,-1.05 -2.228,-1.05c-1.057,0 -1.932,0.336 -2.627,1.006c-0.694,0.671 -1.081,1.547 -1.159,2.628l7.01,0Z"
           style="fill:#2600ff;fill-rule:nonzero;"
           id="path23" /><path
           d="M14.932,178.212c-1.145,-0.361 -2.223,-0.541 -3.237,-0.541c-1.109,0 -1.987,0.178 -2.633,0.535c-0.647,0.356 -0.97,0.831 -0.97,1.427c0,0.377 0.149,0.706 0.446,0.987c0.297,0.28 0.891,0.542 1.781,0.786l1.953,0.54c0.9,0.243 1.633,0.535 2.201,0.874c0.568,0.34 0.994,0.75 1.278,1.232c0.283,0.482 0.425,1.042 0.425,1.679c0,1.249 -0.546,2.236 -1.637,2.961c-1.092,0.725 -2.481,1.088 -4.167,1.088c-1.677,-0 -3.062,-0.244 -4.154,-0.73l0.393,-1.697c1.145,0.52 2.372,0.779 3.682,0.779c1.136,0 2.06,-0.203 2.772,-0.609c0.711,-0.407 1.067,-0.946 1.067,-1.616c0,-0.453 -0.177,-0.857 -0.53,-1.213c-0.354,-0.357 -1.186,-0.728 -2.496,-1.113c-1.057,-0.31 -1.835,-0.543 -2.333,-0.698c-0.498,-0.155 -0.96,-0.384 -1.389,-0.685c-0.428,-0.302 -0.753,-0.663 -0.976,-1.082c-0.222,-0.419 -0.334,-0.888 -0.334,-1.408c0,-1.132 0.516,-2.028 1.546,-2.691c1.031,-0.662 2.398,-0.993 4.101,-0.993c1.101,0 2.324,0.18 3.669,0.541l-0.458,1.647Z"
           style="fill:#2600ff;fill-rule:nonzero;"
           id="path24" /></g><g
         id="g28"
         style="fill:#ffffff"><path
           d="M492.611,324.138l-1.929,4.882l-0.693,0l-1.919,-4.882l0.83,-0l1.44,3.884l1.441,-3.884l0.83,-0Z"
           style="fill-rule:nonzero;fill:#ffffff"
           id="path25" /><path
           d="M497.534,326.602l-3.492,0c0,0.553 0.167,1.009 0.501,1.369c0.333,0.359 0.743,0.538 1.228,0.538c0.462,0 0.939,-0.079 1.43,-0.239l0.132,0.586c-0.449,0.194 -0.973,0.291 -1.572,0.291c-0.755,-0 -1.364,-0.233 -1.826,-0.698c-0.462,-0.466 -0.693,-1.094 -0.693,-1.884c-0,-0.775 0.207,-1.392 0.622,-1.853c0.415,-0.461 0.951,-0.691 1.609,-0.691c0.586,-0 1.076,0.214 1.47,0.642c0.394,0.428 0.591,0.998 0.591,1.71l-0,0.229Zm-0.831,-0.595c0,-0.381 -0.123,-0.702 -0.371,-0.963c-0.247,-0.26 -0.524,-0.391 -0.83,-0.391c-0.394,0 -0.72,0.125 -0.979,0.375c-0.259,0.25 -0.403,0.576 -0.432,0.979l2.612,0Z"
           style="fill-rule:nonzero;fill:#ffffff"
           id="path26" /><path
           d="M502.012,329.02l-2.08,0l-0,-5.979l-1.328,0l-0,-0.632l2.09,-0l-0,5.979l1.318,-0l0,0.632Z"
           style="fill-rule:nonzero;fill:#ffffff"
           id="path27" /><path
           d="M508.092,329.02l-0.889,0l-1.748,-2.708l-1.733,2.708l-0.889,0l2.202,-3.369l-2.192,-3.242l0.918,-0l1.694,2.619l1.709,-2.619l0.879,-0l-2.158,3.242l2.207,3.369Z"
           style="fill-rule:nonzero;fill:#ffffff"
           id="path28" /></g><g
         id="g32"
         style="fill:#ffffff"><path
           d="M519.435,324.138l-1.929,4.882l-0.693,0l-1.919,-4.882l0.83,-0l1.44,3.884l1.441,-3.884l0.83,-0Z"
           style="fill-rule:nonzero;fill:#ffffff"
           id="path29" /><path
           d="M524.358,326.602l-3.492,0c0,0.553 0.167,1.009 0.501,1.369c0.334,0.359 0.743,0.538 1.228,0.538c0.462,0 0.939,-0.079 1.431,-0.239l0.131,0.586c-0.449,0.194 -0.973,0.291 -1.572,0.291c-0.755,-0 -1.364,-0.233 -1.826,-0.698c-0.462,-0.466 -0.693,-1.094 -0.693,-1.884c-0,-0.775 0.207,-1.392 0.622,-1.853c0.415,-0.461 0.952,-0.691 1.609,-0.691c0.586,-0 1.076,0.214 1.47,0.642c0.394,0.428 0.591,0.998 0.591,1.71l-0,0.229Zm-0.83,-0.595c-0,-0.381 -0.124,-0.702 -0.372,-0.963c-0.247,-0.26 -0.524,-0.391 -0.83,-0.391c-0.394,0 -0.72,0.125 -0.979,0.375c-0.258,0.25 -0.402,0.576 -0.432,0.979l2.613,0Z"
           style="fill-rule:nonzero;fill:#ffffff"
           id="path30" /><path
           d="M528.836,329.02l-2.08,0l0,-5.979l-1.328,0l-0,-0.632l2.09,-0l-0,5.979l1.318,-0l0,0.632Z"
           style="fill-rule:nonzero;fill:#ffffff"
           id="path31" /><path
           d="M534.799,322.409l-2.153,3.781l-0,2.83l-0.796,0l-0,-2.83l-2.154,-3.781l0.904,-0l1.645,2.975l1.651,-2.975l0.903,-0Z"
           style="fill-rule:nonzero;fill:#ffffff"
           id="path32" /></g><g
         id="g33"
         style="fill:#ffffff"><rect
           x="491.53"
           y="286.963"
           width="2.9"
           height="0.712"
           style="fill-rule:nonzero;fill:#ffffff"
           id="rect32" /><path
           d="M500.71,289.957l-0.888,0l-1.748,-2.708l-1.734,2.708l-0.889,0l2.203,-3.369l-2.193,-3.242l0.918,-0l1.695,2.619l1.709,-2.619l0.878,-0l-2.158,3.242l2.207,3.369Z"
           style="fill-rule:nonzero;fill:#ffffff"
           id="path33" /></g><g
         id="g34"
         style="fill:#ffffff"><rect
           x="518.334"
           y="286.963"
           width="2.9"
           height="0.712"
           style="fill-rule:nonzero;fill:#ffffff"
           id="rect33" /><path
           d="M527.398,283.346l-2.154,3.781l0,2.83l-0.796,0l0,-2.83l-2.153,-3.781l0.903,-0l1.646,2.975l1.65,-2.975l0.904,-0Z"
           style="fill-rule:nonzero;fill:#ffffff"
           id="path34" /></g><path
         d="M30.263,265.204c-0.563,0.397 -1.186,0.595 -1.87,0.595c-0.895,0 -1.574,-0.291 -2.036,-0.874c-0.462,-0.582 -0.693,-1.434 -0.693,-2.556c-0,-1.084 0.224,-1.927 0.671,-2.53c0.448,-0.603 1.134,-0.904 2.058,-0.904c0.332,-0 0.661,0.04 0.987,0.122c0.325,0.081 0.587,0.189 0.786,0.323l-0.264,0.604c-0.459,-0.25 -0.962,-0.375 -1.509,-0.375c-0.631,0 -1.102,0.222 -1.413,0.666c-0.311,0.443 -0.467,1.142 -0.467,2.094c0,1.837 0.627,2.755 1.88,2.755c0.472,0 0.829,-0.095 1.07,-0.285l-0,-1.631l-1.241,0l0,-0.665l2.041,-0l0,2.661Z"
         style="fill-rule:nonzero;fill:#ffffff"
         id="path35" /><path
         d="M18.295,292.238c-0.563,0.397 -1.186,0.595 -1.87,0.595c-0.895,0 -1.574,-0.291 -2.036,-0.874c-0.462,-0.582 -0.693,-1.434 -0.693,-2.556c-0,-1.084 0.224,-1.927 0.671,-2.53c0.448,-0.603 1.134,-0.904 2.058,-0.904c0.332,-0 0.661,0.04 0.987,0.122c0.325,0.081 0.587,0.189 0.786,0.323l-0.264,0.604c-0.459,-0.249 -0.962,-0.374 -1.509,-0.374c-0.631,-0 -1.102,0.221 -1.413,0.665c-0.311,0.444 -0.467,1.142 -0.467,2.094c0,1.837 0.627,2.756 1.88,2.756c0.472,-0 0.829,-0.096 1.07,-0.286l-0,-1.631l-1.241,0l0,-0.665l2.041,-0l0,2.661Z"
         style="fill-rule:nonzero;fill:#ffffff"
         id="path36" /><g
         id="g39"
         style="fill:#ffffff"><path
           d="M508.456,79.927l-0.84,-0l-0.762,-2.315l-2.26,0l-0.772,2.315l-0.83,-0l2.251,-6.612l0.962,0l2.251,6.612Zm-1.831,-2.985l-0.904,-2.736l-0.898,2.736l1.802,0Z"
           style="fill-rule:nonzero;fill:#ffffff"
           id="path37" /><path
           d="M514.432,73.315l-2.246,6.612l-0.962,-0l-2.251,-6.612l0.84,0l1.89,5.722l1.899,-5.722l0.83,0Z"
           style="fill-rule:nonzero;fill:#ffffff"
           id="path38" /><path
           d="M519.935,79.458c-0.563,0.397 -1.186,0.595 -1.87,0.595c-0.895,0 -1.574,-0.291 -2.036,-0.874c-0.462,-0.582 -0.693,-1.434 -0.693,-2.556c-0,-1.083 0.223,-1.927 0.671,-2.53c0.448,-0.603 1.134,-0.904 2.058,-0.904c0.332,-0 0.661,0.04 0.987,0.122c0.325,0.081 0.587,0.189 0.786,0.323l-0.264,0.604c-0.459,-0.249 -0.962,-0.374 -1.509,-0.374c-0.631,-0 -1.103,0.221 -1.413,0.665c-0.311,0.444 -0.467,1.142 -0.467,2.094c0,1.837 0.627,2.756 1.88,2.756c0.472,-0 0.829,-0.096 1.07,-0.286l-0,-1.631l-1.241,0l0,-0.665l2.041,-0l0,2.661Z"
           style="fill-rule:nonzero;fill:#ffffff"
           id="path39" /></g><g
         id="g42"
         style="fill:#ffffff"><path
           d="M38.316,45.717l-1.001,0l-2.021,-3.003l-0.889,-0l0,3.003l-0.801,0l0,-6.611l1.949,-0c0.654,-0 1.171,0.152 1.55,0.456c0.379,0.305 0.569,0.729 0.569,1.273c-0,0.403 -0.139,0.761 -0.415,1.075c-0.277,0.314 -0.658,0.527 -1.143,0.64l2.202,3.167Zm-3.911,-3.674l1.011,0c0.423,0 0.766,-0.11 1.03,-0.33c0.264,-0.22 0.396,-0.497 0.396,-0.832c-0,-0.737 -0.469,-1.105 -1.407,-1.105l-1.03,-0l0,2.267Z"
           style="fill-rule:nonzero;fill:#ffffff"
           id="path40" /><path
           d="M43.805,45.717l-0.772,0l0,-5.67l-1.04,2.713l-0.757,0l-1.04,-2.713l0,5.67l-0.771,0l-0,-6.611l1.04,-0l1.152,3.012l1.148,-3.012l1.04,-0l-0,6.611Z"
           style="fill-rule:nonzero;fill:#ffffff"
           id="path41" /><path
           d="M50.304,39.106l-2.247,6.611l-0.961,0l-2.251,-6.611l0.839,-0l1.89,5.721l1.899,-5.721l0.831,-0Z"
           style="fill-rule:nonzero;fill:#ffffff"
           id="path42" /></g><g
         id="g45"
         style="fill:#ffffff"><path
           d="M507.423,111.937l-0.771,-0l-0,-5.67l-1.04,2.713l-0.757,-0l-1.04,-2.713l-0,5.67l-0.772,-0l0,-6.612l1.04,0l1.153,3.013l1.147,-3.013l1.04,0l0,6.612Z"
           style="fill-rule:nonzero;fill:#ffffff"
           id="path43" /><path
           d="M513.947,111.937l-0.84,-0l-0.762,-2.315l-2.261,-0l-0.771,2.315l-0.83,-0l2.251,-6.612l0.962,0l2.251,6.612Zm-1.832,-2.985l-0.903,-2.737l-0.898,2.737l1.801,-0Z"
           style="fill-rule:nonzero;fill:#ffffff"
           id="path44" /><path
           d="M519.884,111.937l-0.889,-0l-1.748,-2.709l-1.733,2.709l-0.889,-0l2.202,-3.369l-2.192,-3.243l0.918,0l1.694,2.619l1.709,-2.619l0.879,0l-2.158,3.243l2.207,3.369Z"
           style="fill-rule:nonzero;fill:#ffffff"
           id="path45" /></g><g
         id="g48"
         style="fill:#ffffff"><path
           d="M507.723,143.946l-0.771,0l-0,-5.669l-1.04,2.713l-0.757,-0l-1.04,-2.713l0,5.669l-0.771,0l-0,-6.611l1.04,-0l1.152,3.013l1.147,-3.013l1.04,-0l0,6.611Z"
           style="fill-rule:nonzero;fill:#ffffff"
           id="path46" /><path
           d="M513.036,143.946l-3.13,0l0,-0.67l1.187,0l-0,-5.271l-1.187,-0l0,-0.67l3.13,-0l-0,0.67l-1.143,-0l0,5.271l1.143,0l-0,0.67Z"
           style="fill-rule:nonzero;fill:#ffffff"
           id="path47" /><path
           d="M519.584,143.946l-0.889,0l-2.471,-5.219l0,5.219l-0.8,0l-0,-6.611l0.893,-0l2.481,5.173l-0,-5.173l0.786,-0l-0,6.611Z"
           style="fill-rule:nonzero;fill:#ffffff"
           id="path48" /></g><g
         id="g56"
         style="fill:#ffffff"><path
           d="M504.691,52.439l-0.771,-0l-0,-5.67l-1.04,2.713l-0.757,0l-1.04,-2.713l-0,5.67l-0.772,-0l0,-6.612l1.04,0l1.153,3.013l1.147,-3.013l1.04,0l0,6.612Z"
           style="fill-rule:nonzero;fill:#ffffff"
           id="path49" /><path
           d="M508.461,45.701c0.771,-0 1.36,0.293 1.765,0.878c0.405,0.586 0.608,1.438 0.608,2.556c-0,1.112 -0.202,1.962 -0.606,2.549c-0.403,0.588 -0.993,0.881 -1.767,0.881c-0.769,0 -1.355,-0.293 -1.761,-0.878c-0.405,-0.586 -0.607,-1.436 -0.607,-2.552c-0,-1.115 0.201,-1.966 0.605,-2.553c0.404,-0.588 0.991,-0.881 1.763,-0.881Zm-0,6.19c1.015,-0 1.523,-0.919 1.523,-2.756c0,-1.84 -0.508,-2.759 -1.523,-2.759c-0.495,-0 -0.872,0.238 -1.131,0.714c-0.258,0.476 -0.388,1.158 -0.388,2.045c0,0.897 0.129,1.58 0.386,2.05c0.257,0.47 0.635,0.706 1.133,0.706Z"
           style="fill-rule:nonzero;fill:#ffffff"
           id="path50" /><path
           d="M516.552,52.439l-0.889,-0l-2.471,-5.22l0,5.22l-0.801,-0l0,-6.612l0.894,0l2.48,5.173l0,-5.173l0.787,0l-0,6.612Z"
           style="fill-rule:nonzero;fill:#ffffff"
           id="path51" /><path
           d="M520.463,45.701c0.771,-0 1.36,0.293 1.765,0.878c0.405,0.586 0.608,1.438 0.608,2.556c-0,1.112 -0.202,1.962 -0.606,2.549c-0.403,0.588 -0.993,0.881 -1.767,0.881c-0.769,0 -1.355,-0.293 -1.761,-0.878c-0.405,-0.586 -0.608,-1.436 -0.608,-2.552c0,-1.115 0.202,-1.966 0.606,-2.553c0.404,-0.588 0.991,-0.881 1.763,-0.881Zm-0,6.19c1.015,-0 1.523,-0.919 1.523,-2.756c0,-1.84 -0.508,-2.759 -1.523,-2.759c-0.495,-0 -0.872,0.238 -1.131,0.714c-0.259,0.476 -0.388,1.158 -0.388,2.045c0,0.897 0.129,1.58 0.386,2.05c0.257,0.47 0.635,0.706 1.133,0.706Z"
           style="fill-rule:nonzero;fill:#ffffff"
           id="path52" /><path
           d="M502.46,55.297c0.771,-0 1.36,0.293 1.765,0.879c0.405,0.585 0.608,1.437 0.608,2.556c-0,1.112 -0.202,1.961 -0.606,2.549c-0.403,0.587 -0.993,0.88 -1.767,0.88c-0.769,0 -1.355,-0.292 -1.761,-0.878c-0.405,-0.586 -0.607,-1.436 -0.607,-2.551c-0,-1.116 0.201,-1.967 0.605,-2.554c0.404,-0.587 0.991,-0.881 1.763,-0.881Zm-0,6.19c1.015,-0 1.523,-0.919 1.523,-2.755c0,-1.84 -0.508,-2.76 -1.523,-2.76c-0.495,-0 -0.872,0.238 -1.131,0.714c-0.258,0.477 -0.388,1.158 -0.388,2.046c0,0.896 0.129,1.579 0.386,2.05c0.257,0.47 0.635,0.705 1.133,0.705Z"
           style="fill-rule:nonzero;fill:#ffffff"
           id="path53" /><path
           d="M510.453,59.955c-0,0.765 -0.162,1.324 -0.486,1.677c-0.324,0.353 -0.816,0.529 -1.477,0.529c-1.331,0 -1.997,-0.729 -1.997,-2.188l-0,-4.55l0.801,0l-0,4.48c-0,1.056 0.398,1.584 1.196,1.584c0.4,-0 0.694,-0.125 0.881,-0.375c0.188,-0.25 0.281,-0.656 0.281,-1.218l0,-4.471l0.801,0l-0,4.532Z"
           style="fill-rule:nonzero;fill:#ffffff"
           id="path54" /><path
           d="M517.006,56.047l-2.124,-0l-0,5.988l-0.796,-0l-0,-5.988l-2.134,-0l-0,-0.624l5.054,0l-0,0.624Z"
           style="fill-rule:nonzero;fill:#ffffff"
           id="path55" /><path
           d="M521.942,56.154c-0.41,-0.134 -0.799,-0.201 -1.167,-0.201c-0.417,-0 -0.756,0.091 -1.018,0.274c-0.262,0.183 -0.393,0.443 -0.393,0.78c0,0.4 0.343,0.751 1.03,1.055c0.508,0.224 0.844,0.381 1.009,0.468c0.164,0.088 0.331,0.208 0.5,0.361c0.169,0.153 0.305,0.333 0.408,0.541c0.102,0.208 0.154,0.441 0.154,0.701c-0,0.643 -0.226,1.142 -0.677,1.497c-0.451,0.354 -0.982,0.531 -1.594,0.531c-0.592,0 -1.112,-0.112 -1.558,-0.337l0.167,-0.661c0.524,0.228 0.981,0.342 1.372,0.342c0.455,0 0.821,-0.113 1.096,-0.339c0.275,-0.227 0.412,-0.538 0.412,-0.935c0,-0.294 -0.089,-0.543 -0.268,-0.747c-0.179,-0.205 -0.51,-0.414 -0.991,-0.626c-0.495,-0.219 -0.815,-0.368 -0.96,-0.447c-0.145,-0.08 -0.289,-0.19 -0.432,-0.331c-0.143,-0.14 -0.254,-0.298 -0.332,-0.473c-0.078,-0.175 -0.117,-0.365 -0.117,-0.572c-0,-0.546 0.205,-0.973 0.615,-1.279c0.41,-0.306 0.929,-0.459 1.558,-0.459c0.459,-0 0.914,0.067 1.367,0.201l-0.181,0.656Z"
           style="fill-rule:nonzero;fill:#ffffff"
           id="path56" /></g><g
         id="g64"
         style="fill:#ffffff"><path
           d="M500.621,219.257l1.748,-0c0.661,-0 1.19,0.159 1.587,0.478c0.397,0.319 0.596,0.757 0.596,1.317c0,0.562 -0.198,1.011 -0.593,1.347c-0.396,0.336 -0.914,0.503 -1.555,0.503l-0.982,0l0,2.966l-0.801,0l0,-6.611Zm0.801,2.975l0.869,0c0.941,0 1.411,-0.378 1.411,-1.134c0,-0.349 -0.127,-0.632 -0.383,-0.848c-0.255,-0.215 -0.585,-0.323 -0.989,-0.323l-0.908,0l0,2.305Z"
           style="fill-rule:nonzero;fill:#ffffff"
           id="path57" /><path
           d="M508.361,219.13c0.771,0 1.359,0.293 1.765,0.879c0.405,0.586 0.608,1.438 0.608,2.556c-0,1.112 -0.202,1.962 -0.606,2.549c-0.403,0.587 -0.993,0.881 -1.767,0.881c-0.769,-0 -1.355,-0.293 -1.761,-0.879c-0.405,-0.585 -0.608,-1.436 -0.608,-2.551c0,-1.115 0.202,-1.966 0.606,-2.554c0.404,-0.587 0.991,-0.881 1.763,-0.881Zm-0,6.19c1.015,0 1.523,-0.918 1.523,-2.755c0,-1.84 -0.508,-2.76 -1.523,-2.76c-0.495,0 -0.872,0.238 -1.131,0.715c-0.259,0.476 -0.388,1.158 -0.388,2.045c0,0.897 0.129,1.58 0.386,2.05c0.257,0.47 0.635,0.705 1.133,0.705Z"
           style="fill-rule:nonzero;fill:#ffffff"
           id="path58" /><path
           d="M516.373,225.868l-3.75,0l0,-6.611l0.801,-0l0,5.941l2.949,0l0,0.67Z"
           style="fill-rule:nonzero;fill:#ffffff"
           id="path59" /><path
           d="M522.936,219.257l-2.154,3.781l0,2.83l-0.795,0l-0,-2.83l-2.154,-3.781l0.904,-0l1.645,2.975l1.65,-2.975l0.904,-0Z"
           style="fill-rule:nonzero;fill:#ffffff"
           id="path60" /><path
           d="M502.36,228.727c0.771,-0 1.359,0.293 1.765,0.878c0.405,0.586 0.608,1.438 0.608,2.556c-0,1.112 -0.202,1.962 -0.606,2.549c-0.403,0.587 -0.993,0.881 -1.767,0.881c-0.769,0 -1.355,-0.293 -1.761,-0.878c-0.405,-0.586 -0.608,-1.437 -0.608,-2.552c0,-1.115 0.202,-1.966 0.606,-2.553c0.404,-0.588 0.991,-0.881 1.763,-0.881Zm-0,6.189c1.015,0 1.523,-0.918 1.523,-2.755c0,-1.84 -0.508,-2.76 -1.523,-2.76c-0.495,0 -0.872,0.239 -1.131,0.715c-0.259,0.476 -0.388,1.158 -0.388,2.045c0,0.897 0.129,1.58 0.386,2.05c0.257,0.47 0.635,0.705 1.133,0.705Z"
           style="fill-rule:nonzero;fill:#ffffff"
           id="path61" /><path
           d="M510.353,233.384c-0,0.766 -0.162,1.325 -0.486,1.678c-0.324,0.353 -0.816,0.529 -1.477,0.529c-1.331,0 -1.997,-0.729 -1.997,-2.188l-0,-4.55l0.801,0l-0,4.48c-0,1.055 0.398,1.583 1.196,1.583c0.4,0 0.694,-0.125 0.881,-0.374c0.187,-0.25 0.281,-0.656 0.281,-1.219l0,-4.47l0.801,0l-0,4.531Z"
           style="fill-rule:nonzero;fill:#ffffff"
           id="path62" /><path
           d="M516.906,229.476l-2.124,0l-0,5.989l-0.796,-0l-0,-5.989l-2.134,0l-0,-0.623l5.054,0l-0,0.623Z"
           style="fill-rule:nonzero;fill:#ffffff"
           id="path63" /><path
           d="M521.842,229.584c-0.41,-0.134 -0.799,-0.201 -1.167,-0.201c-0.417,-0 -0.756,0.091 -1.018,0.274c-0.262,0.183 -0.393,0.443 -0.393,0.78c-0,0.4 0.343,0.751 1.03,1.054c0.508,0.225 0.844,0.381 1.009,0.469c0.164,0.087 0.331,0.207 0.5,0.361c0.169,0.153 0.305,0.333 0.408,0.541c0.102,0.207 0.154,0.441 0.154,0.7c-0,0.644 -0.226,1.143 -0.677,1.497c-0.451,0.355 -0.982,0.532 -1.594,0.532c-0.592,0 -1.112,-0.112 -1.558,-0.337l0.166,-0.661c0.524,0.228 0.982,0.342 1.372,0.342c0.456,0 0.822,-0.113 1.097,-0.34c0.275,-0.226 0.412,-0.538 0.412,-0.934c0,-0.294 -0.089,-0.543 -0.268,-0.748c-0.179,-0.204 -0.51,-0.413 -0.992,-0.625c-0.494,-0.219 -0.814,-0.368 -0.959,-0.448c-0.145,-0.079 -0.289,-0.189 -0.432,-0.33c-0.143,-0.141 -0.254,-0.298 -0.332,-0.473c-0.078,-0.175 -0.117,-0.366 -0.117,-0.572c-0,-0.547 0.205,-0.973 0.615,-1.279c0.41,-0.306 0.929,-0.459 1.558,-0.459c0.459,-0 0.914,0.067 1.367,0.201l-0.181,0.656Z"
           style="fill-rule:nonzero;fill:#ffffff"
           id="path64" /></g><g
         id="g68"
         style="fill:#ffffff"><path
           d="M35.328,120.447l-0.772,-0l0,-5.67l-1.04,2.713l-0.756,-0l-1.04,-2.713l-0,5.67l-0.772,-0l0,-6.612l1.04,0l1.152,3.013l1.148,-3.013l1.04,0l-0,6.612Z"
           style="fill-rule:nonzero;fill:#ffffff"
           id="path65" /><path
           d="M39.098,113.709c0.771,-0 1.359,0.293 1.765,0.878c0.405,0.586 0.608,1.438 0.608,2.556c-0,1.112 -0.202,1.962 -0.606,2.549c-0.404,0.588 -0.993,0.881 -1.767,0.881c-0.769,0 -1.355,-0.293 -1.761,-0.878c-0.405,-0.586 -0.608,-1.437 -0.608,-2.552c0,-1.115 0.202,-1.966 0.606,-2.553c0.403,-0.588 0.991,-0.881 1.763,-0.881Zm-0,6.189c1.015,0 1.523,-0.918 1.523,-2.755c-0,-1.84 -0.508,-2.76 -1.523,-2.76c-0.495,0 -0.872,0.239 -1.131,0.715c-0.259,0.476 -0.388,1.158 -0.388,2.045c-0,0.897 0.129,1.58 0.386,2.05c0.257,0.47 0.634,0.705 1.133,0.705Z"
           style="fill-rule:nonzero;fill:#ffffff"
           id="path66" /><path
           d="M47.828,113.835l-2.246,6.612l-0.962,-0l-2.251,-6.612l0.84,0l1.889,5.721l1.9,-5.721l0.83,0Z"
           style="fill-rule:nonzero;fill:#ffffff"
           id="path67" /><path
           d="M52.96,120.447l-3.599,-0l0,-6.612l3.57,0l-0,0.67l-2.769,0l-0,2.048l2.661,-0l0,0.67l-2.661,-0l-0,2.554l2.798,-0l-0,0.67Z"
           style="fill-rule:nonzero;fill:#ffffff"
           id="path68" /></g><path
         d="M41.954,130.946l-0,20.381"
         style="fill:none;stroke:#ffffff;stroke-opacity:0.5;stroke-width:1px;stroke-linecap:round;stroke-linejoin:round"
         id="path69" /><path
         d="M15.996,307.946l23.936,-0"
         style="fill:none;stroke:#ffffff;stroke-opacity:0.5;stroke-width:1px;stroke-linecap:round;stroke-linejoin:round"
         id="path70" /><path
         d="M499.116,154.545l-0,-64.019"
         style="fill:none;stroke:#ffffff;stroke-opacity:0.5;stroke-width:1px;stroke-linecap:round;stroke-linejoin:round"
         id="path71" /><path
         d="M523.811,154.545l0,-64.019"
         style="fill:none;stroke:#ffffff;stroke-opacity:0.5;stroke-width:1px;stroke-linecap:round;stroke-linejoin:round"
         id="path72" /><circle
         cx="27.964"
         cy="213.695"
         r="16.917"
         style="fill:none;stroke:#ffffff;stroke-opacity:0.5;stroke-width:1px;stroke-linecap:round;stroke-linejoin:round"
         id="circle72" /><circle
         cx="27.964"
         cy="262.367"
         r="16.597"
         style="fill:none;stroke:#ffffff;stroke-opacity:0.5;stroke-width:1px;stroke-linecap:round;stroke-linejoin:round"
         id="circle73" /><g
         id="TinyPurpleButton"><circle
           id="PurpleButton"
           cx="278.138"
           cy="160.479"
           r="15.456"
           style="fill:none;stroke:#8000db;stroke-width:2.21px;stroke-linecap:round;stroke-linejoin:round;" /><circle
           id="PurpleButton1"
           serif:id="PurpleButton"
           cx="278.138"
           cy="160.479"
           r="10.927"
           style="fill:#8000db;" /></g><g
         id="TinyBlueButton"><circle
           id="BlueButton"
           cx="317.799"
           cy="189.78"
           r="15.45"
           style="fill:none;stroke:#2600ff;stroke-width:2.21px;stroke-linecap:round;stroke-linejoin:round;" /><circle
           id="BlueButton1"
           serif:id="BlueButton"
           cx="317.799"
           cy="189.78"
           r="10.923"
           style="fill:#2600ff;" /></g><g
         id="TinyRedButton"><circle
           id="RedButton"
           cx="274.46"
           cy="220.68"
           r="15.45"
           style="fill:none;stroke:#f00;stroke-width:2.21px;stroke-linecap:round;stroke-linejoin:round;" /><circle
           id="RedButton1"
           serif:id="RedButton"
           cx="274.46"
           cy="220.68"
           r="10.923"
           style="fill:#f00;" /></g><g
         id="TinyAquaButton"><circle
           id="AquaButton"
           cx="235.799"
           cy="191.385"
           r="15.45"
           style="fill:none;stroke:#0ef;stroke-width:2.21px;stroke-linecap:round;stroke-linejoin:round;" /><circle
           id="AquaButton1"
           serif:id="AquaButton"
           cx="235.799"
           cy="191.385"
           r="10.923"
           style="fill:#0ef;" /></g><g
         id="g75"><circle
           cx="190.913"
           cy="214.652"
           r="8.217"
           style="fill:#fff;fill-opacity:0.35;"
           id="circle74" /><circle
           cx="190.913"
           cy="214.652"
           r="2.451"
           style="fill:#fff;"
           id="circle75" /></g><g
         id="g77"><circle
           cx="263.809"
           cy="251.167"
           r="5.764"
           style="fill:#fff;fill-opacity:0.35;"
           id="circle76" /><circle
           cx="263.809"
           cy="251.167"
           r="2.451"
           style="fill:#fff;"
           id="circle77" /></g><g
         id="g79"><circle
           cx="295.288"
           cy="233.293"
           r="12.139"
           style="fill:#fff;fill-opacity:0.35;"
           id="circle78" /><circle
           cx="295.288"
           cy="233.293"
           r="2.451"
           style="fill:#fff;"
           id="circle79" /></g><path
         d="M263.373,251.828c4.343,2.836 11.299,7.375 18.335,10.874c4.704,2.34 9.445,4.213 13.48,4.825c4.845,0.736 10.087,0.62 15.084,-0.435c5.057,-1.068 9.862,-3.098 13.753,-6.176c3.96,-3.131 7.882,-8.098 11.071,-13.663c3.013,-5.259 5.374,-11.049 6.501,-16.315c1.162,-5.425 1.264,-11.603 0.566,-17.72c-0.693,-6.066 -2.171,-12.071 -4.179,-17.217c-1.98,-5.081 -5.164,-10.076 -8.784,-14.645c-3.731,-4.708 -7.924,-8.965 -11.737,-12.394c-3.483,-3.134 -7.432,-5.741 -11.615,-7.955c-4.154,-2.198 -8.538,-4.008 -12.924,-5.56c-5.08,-1.798 -11.006,-3.568 -17.178,-4.95c-5.846,-1.309 -11.913,-2.27 -17.689,-2.572c-5.38,-0.284 -12.106,-0.051 -18.969,0.414c-10.592,0.717 -21.512,1.988 -28.307,2.779c-0.114,0.013 -0.196,0.117 -0.183,0.231c0.013,0.114 0.117,0.196 0.231,0.183c6.79,-0.788 17.703,-2.057 28.288,-2.766c6.844,-0.458 13.551,-0.681 18.916,-0.392c5.75,0.311 11.789,1.276 17.608,2.591c6.148,1.389 12.051,3.168 17.11,4.971c4.357,1.555 8.712,3.365 12.836,5.562c4.134,2.204 8.036,4.796 11.474,7.909c3.777,3.421 7.931,7.665 11.621,12.357c3.559,4.528 6.687,9.474 8.623,14.5c1.962,5.098 3.398,11.043 4.054,17.044c0.658,6.024 0.53,12.105 -0.641,17.439c-1.137,5.172 -3.492,10.854 -6.486,16.008c-3.148,5.419 -7.001,10.257 -10.889,13.293c-3.775,2.946 -8.428,4.869 -13.316,5.867c-4.855,0.991 -9.942,1.067 -14.638,0.32c-3.912,-0.624 -8.497,-2.49 -13.047,-4.796c-6.951,-3.525 -13.813,-8.087 -18.098,-10.933c-0.365,-0.241 -0.856,-0.14 -1.096,0.225c-0.241,0.365 -0.14,0.857 0.225,1.097Z"
         style="fill:#fff;"
         id="path79" /><path
         d="M191.448,215.267c3.513,-3.095 9.23,-8.135 15.344,-12.905c3.61,-2.815 7.357,-5.535 10.867,-7.705c5.642,-3.483 12.299,-7.246 19.305,-10.808c6.595,-3.353 13.499,-6.527 20.151,-9.137c5.619,-2.199 12.08,-4.355 18.627,-6.339c10.286,-3.118 20.781,-5.815 28.537,-7.64c5.491,-1.288 11.547,-2.495 17.286,-3.227c4.174,-0.533 8.18,-0.814 11.676,-0.696c4.058,0.139 8.758,0.884 12.88,2.084c3.163,0.922 5.984,2.111 7.908,3.501c1.537,1.111 2.653,2.86 3.482,4.789c1.32,3.07 1.912,6.595 2.28,8.782c0.017,0.101 0.113,0.17 0.215,0.153c0.101,-0.017 0.169,-0.113 0.152,-0.214c-0.371,-2.209 -0.97,-5.768 -2.302,-8.869c-0.856,-1.995 -2.016,-3.799 -3.604,-4.949c-1.951,-1.414 -4.813,-2.627 -8.021,-3.568c-4.152,-1.217 -8.887,-1.978 -12.975,-2.127c-3.517,-0.129 -7.547,0.144 -11.748,0.666c-5.757,0.715 -11.835,1.899 -17.346,3.168c-7.777,1.785 -18.297,4.438 -28.616,7.494c-6.579,1.949 -13.076,4.061 -18.727,6.227c-6.701,2.562 -13.657,5.695 -20.308,9c-7.069,3.512 -13.793,7.219 -19.494,10.66c-3.571,2.152 -7.387,4.86 -11.068,7.662c-6.197,4.717 -12.004,9.705 -15.57,12.769c-0.339,0.295 -0.375,0.81 -0.08,1.149c0.295,0.339 0.81,0.374 1.149,0.08Z"
         style="fill:#fff;"
         id="path80" /><path
         d="M296.085,233.298c-0.025,-6.378 -0.784,-12.751 -2.035,-19.433c-1.629,-8.701 -4.095,-17.927 -6.917,-28.358c-2.504,-9.35 -5.454,-20.673 -8.393,-31c-2.222,-7.804 -4.434,-15.04 -6.482,-20.417c-1.221,-3.219 -2.687,-7.261 -5.289,-9.806c-1.727,-1.69 -3.949,-2.73 -6.926,-2.458c-0.112,0.011 -0.194,0.11 -0.184,0.222c0.01,0.111 0.109,0.194 0.221,0.184c2.838,-0.258 4.956,0.734 6.6,2.346c2.556,2.508 3.976,6.496 5.171,9.666c2.019,5.376 4.209,12.605 6.371,20.409c2.867,10.343 5.69,21.696 8.108,31.065c2.666,10.438 5.014,19.666 6.498,28.366c1.128,6.611 1.753,12.914 1.664,19.205c-0.002,0.44 0.353,0.799 0.792,0.801c0.44,0.002 0.799,-0.353 0.801,-0.792Z"
         style="fill:#fff;"
         id="path81" /><g
         id="g87"
         style="fill:#ffffff"><path
           d="M500.179,185.01c0.659,-0 1.162,0.275 1.508,0.824c0.346,0.549 0.52,1.348 0.52,2.397c-0,1.043 -0.173,1.84 -0.518,2.391c-0.345,0.551 -0.848,0.826 -1.51,0.826c-0.657,-0 -1.158,-0.275 -1.504,-0.824c-0.347,-0.549 -0.52,-1.347 -0.52,-2.393c0,-1.046 0.173,-1.844 0.518,-2.395c0.345,-0.551 0.847,-0.826 1.506,-0.826Zm-0,5.805c0.868,0 1.302,-0.861 1.302,-2.584c-0,-1.725 -0.434,-2.588 -1.302,-2.588c-0.423,-0 -0.745,0.223 -0.966,0.67c-0.221,0.447 -0.332,1.086 -0.332,1.918c0,0.841 0.11,1.482 0.33,1.923c0.22,0.441 0.542,0.661 0.968,0.661Z"
           style="fill-rule:nonzero;fill:#ffffff"
           id="path82" /><path
           d="M506.301,185.757l-2.436,0l-0,2.026l2.219,-0l0,0.628l-2.219,0l-0,2.918l-0.685,0l0,-6.2l3.121,-0l0,0.628Z"
           style="fill-rule:nonzero;fill:#ffffff"
           id="path83" /><path
           d="M510.788,185.757l-2.437,0l0,2.026l2.22,-0l0,0.628l-2.22,0l0,2.918l-0.684,0l0,-6.2l3.121,-0l-0,0.628Z"
           style="fill-rule:nonzero;fill:#ffffff"
           id="path84" /><path
           d="M514.903,185.814c-0.35,-0.126 -0.682,-0.189 -0.997,-0.189c-0.356,0 -0.646,0.086 -0.87,0.257c-0.224,0.172 -0.335,0.416 -0.335,0.732c-0,0.375 0.293,0.705 0.88,0.989c0.434,0.211 0.721,0.357 0.861,0.439c0.141,0.082 0.283,0.195 0.428,0.339c0.145,0.143 0.261,0.312 0.348,0.507c0.088,0.195 0.132,0.414 0.132,0.657c-0,0.604 -0.193,1.072 -0.578,1.404c-0.385,0.333 -0.839,0.499 -1.362,0.499c-0.506,-0 -0.95,-0.105 -1.331,-0.316l0.142,-0.62c0.448,0.214 0.838,0.321 1.172,0.321c0.39,-0 0.702,-0.106 0.937,-0.319c0.235,-0.212 0.352,-0.504 0.352,-0.877c0,-0.275 -0.076,-0.509 -0.229,-0.7c-0.153,-0.192 -0.435,-0.388 -0.847,-0.587c-0.423,-0.205 -0.696,-0.345 -0.82,-0.42c-0.124,-0.075 -0.247,-0.178 -0.369,-0.31c-0.123,-0.131 -0.217,-0.279 -0.284,-0.443c-0.067,-0.165 -0.1,-0.343 -0.1,-0.537c-0,-0.512 0.175,-0.912 0.526,-1.199c0.35,-0.287 0.794,-0.431 1.331,-0.431c0.392,-0 0.781,0.063 1.168,0.189l-0.155,0.615Z"
           style="fill-rule:nonzero;fill:#ffffff"
           id="path85" /><path
           d="M519.716,191.329l-3.075,0l-0,-6.2l3.05,-0l-0,0.628l-2.366,0l0,1.92l2.274,0l-0,0.629l-2.274,-0l0,2.395l2.391,-0l-0,0.628Z"
           style="fill-rule:nonzero;fill:#ffffff"
           id="path86" /><path
           d="M524.787,185.713l-1.815,0l-0,5.616l-0.68,0l-0,-5.616l-1.824,0l0,-0.584l4.319,-0l-0,0.584Z"
           style="fill-rule:nonzero;fill:#ffffff"
           id="path87" /></g></g></g></svg>
