<?xml version="1.0" encoding="UTF-8" standalone="no"?><!DOCTYPE svg PUBLIC "-//W3C//DTD SVG 1.1//EN" "http://www.w3.org/Graphics/SVG/1.1/DTD/svg11.dtd"><svg width="100%" height="100%" viewBox="0 0 540 380" version="1.1" xmlns="http://www.w3.org/2000/svg" xmlns:xlink="http://www.w3.org/1999/xlink" xml:space="preserve" xmlns:serif="http://www.serif.com/" style="fill-rule:evenodd;clip-rule:evenodd;stroke-miterlimit:1.5;"><rect id="Orbitones--revise-" serif:id="Orbitones (revise)" x="0" y="0" width="540" height="379.559" style="fill:none;"/><clipPath id="_clip1"><rect x="0" y="0" width="540" height="379.559"/></clipPath><g clip-path="url(#_clip1)"><g id="Layer1"><rect id="background" x="-9.15" y="-7.016" width="557.155" height="393.592" style="fill:#e6e6e6;"/><path d="M548.005,-7.016l-557.155,-0l-0,393.591l557.155,0l-0,-393.591Zm-556.155,1l-0,391.591l555.155,0l-0,-391.591l-555.155,-0Z" style="fill:#646464;"/><rect id="rect" x="55.927" y="0.78" width="427" height="378" style="fill:#333;"/><g><path d="M25.102,210.263c0.772,-0 1.36,0.293 1.765,0.878c0.406,0.586 0.608,1.438 0.608,2.556c0,1.112 -0.201,1.962 -0.605,2.549c-0.404,0.588 -0.993,0.881 -1.768,0.881c-0.768,0 -1.355,-0.293 -1.76,-0.878c-0.405,-0.586 -0.608,-1.436 -0.608,-2.552c0,-1.115 0.202,-1.966 0.606,-2.553c0.403,-0.588 0.991,-0.881 1.762,-0.881Zm0,6.19c1.016,-0 1.524,-0.919 1.524,-2.756c-0,-1.839 -0.508,-2.759 -1.524,-2.759c-0.494,-0 -0.871,0.238 -1.13,0.714c-0.259,0.477 -0.388,1.158 -0.388,2.045c-0,0.897 0.128,1.58 0.385,2.05c0.258,0.471 0.635,0.706 1.133,0.706Z" style="fill-rule:nonzero;"/><path d="M33.193,217.001l-0.889,-0l-2.47,-5.22l-0,5.22l-0.801,-0l-0,-6.612l0.894,0l2.48,5.173l-0,-5.173l0.786,0l0,6.612Z" style="fill-rule:nonzero;"/></g><g><path d="M141.046,234.569l-2.246,6.611l-0.962,-0l-2.251,-6.611l0.84,-0l1.889,5.721l1.9,-5.721l0.83,-0Z" style="fill-rule:nonzero;"/><path d="M146.09,234.442l-2.993,6.864l-0.718,0l2.978,-6.864l0.733,0Z" style="fill-rule:nonzero;"/><path d="M150.318,234.442c0.772,0 1.36,0.293 1.765,0.879c0.406,0.585 0.608,1.437 0.608,2.556c0,1.112 -0.202,1.961 -0.605,2.549c-0.404,0.587 -0.993,0.88 -1.768,0.88c-0.768,0 -1.355,-0.292 -1.76,-0.878c-0.405,-0.586 -0.608,-1.436 -0.608,-2.551c0,-1.116 0.202,-1.967 0.606,-2.554c0.403,-0.587 0.991,-0.881 1.762,-0.881Zm0,6.19c1.016,-0 1.524,-0.919 1.524,-2.755c-0,-1.84 -0.508,-2.76 -1.524,-2.76c-0.495,-0 -0.871,0.238 -1.13,0.714c-0.259,0.477 -0.388,1.158 -0.388,2.046c-0,0.896 0.128,1.579 0.385,2.05c0.258,0.47 0.635,0.705 1.133,0.705Z" style="fill-rule:nonzero;"/><path d="M158.56,240.768c-0.54,0.359 -1.167,0.538 -1.879,0.538c-0.892,0 -1.57,-0.293 -2.034,-0.88c-0.464,-0.588 -0.696,-1.437 -0.696,-2.549c0,-1.075 0.225,-1.916 0.674,-2.524c0.449,-0.607 1.134,-0.911 2.056,-0.911c0.332,0 0.66,0.041 0.986,0.122c0.325,0.081 0.587,0.189 0.786,0.323l-0.264,0.605c-0.459,-0.25 -0.962,-0.375 -1.508,-0.375c-0.635,-0 -1.107,0.221 -1.417,0.663c-0.309,0.442 -0.463,1.141 -0.463,2.097c-0,1.836 0.626,2.755 1.88,2.755c0.53,-0 1.074,-0.156 1.63,-0.469l0.249,0.605Z" style="fill-rule:nonzero;"/><path d="M164.864,235.192l-2.124,-0l0,5.988l-0.796,-0l0,-5.988l-2.134,-0l0,-0.623l5.054,-0l0,0.623Z" style="fill-rule:nonzero;"/></g><path d="M500.71,250.322l-0.888,-0l-1.748,-2.708l-1.734,2.708l-0.889,-0l2.203,-3.369l-2.193,-3.243l0.918,0l1.695,2.62l1.709,-2.62l0.878,0l-2.158,3.243l2.207,3.369Z" style="fill-rule:nonzero;"/><path d="M501.745,173.838l-0.889,-0l-1.748,-2.709l-1.733,2.709l-0.889,-0l2.203,-3.369l-2.193,-3.243l0.918,0l1.694,2.619l1.709,-2.619l0.879,0l-2.158,3.243l2.207,3.369Z" style="fill-rule:nonzero;"/><g><rect x="294.785" y="209.435" width="2.9" height="0.712" style="fill-rule:nonzero;"/><path d="M304.966,212.429l-0.889,0l-1.748,-2.708l-1.733,2.708l-0.889,0l2.202,-3.369l-2.192,-3.242l0.918,-0l1.694,2.619l1.709,-2.619l0.879,-0l-2.158,3.242l2.207,3.369Z" style="fill-rule:nonzero;"/></g><path d="M527.398,243.71l-2.154,3.782l0,2.83l-0.796,-0l0,-2.83l-2.153,-3.782l0.903,0l1.646,2.976l1.65,-2.976l0.904,0Z" style="fill-rule:nonzero;"/><path d="M526.363,167.226l-2.154,3.781l0,2.831l-0.795,-0l-0,-2.831l-2.154,-3.781l0.904,0l1.645,2.975l1.65,-2.975l0.904,0Z" style="fill-rule:nonzero;"/><g><rect x="322.484" y="209.435" width="2.9" height="0.712" style="fill-rule:nonzero;"/><path d="M332.547,205.818l-2.153,3.781l-0,2.83l-0.796,0l-0,-2.83l-2.153,-3.781l0.903,-0l1.645,2.975l1.651,-2.975l0.903,-0Z" style="fill-rule:nonzero;"/></g><g><path d="M104.778,20.563c1.447,0 2.551,0.55 3.311,1.648c0.76,1.099 1.14,2.697 1.14,4.795c0,2.086 -0.378,3.679 -1.135,4.781c-0.757,1.101 -1.863,1.652 -3.316,1.652c-1.441,0 -2.541,-0.549 -3.302,-1.648c-0.76,-1.098 -1.14,-2.694 -1.14,-4.785c0,-2.092 0.379,-3.689 1.136,-4.79c0.757,-1.102 1.859,-1.653 3.306,-1.653Zm0,11.611c1.905,-0 2.858,-1.723 2.858,-5.168c-0,-3.452 -0.953,-5.177 -2.858,-5.177c-0.928,-0 -1.635,0.447 -2.12,1.34c-0.485,0.894 -0.728,2.173 -0.728,3.837c-0,1.681 0.241,2.963 0.723,3.845c0.483,0.882 1.191,1.323 2.125,1.323Z" style="fill:#2600ff;fill-rule:nonzero;"/><path d="M119.9,24.29l-0.577,1.318c-0.629,-0.264 -1.173,-0.395 -1.631,-0.395c-0.421,-0 -0.833,0.115 -1.236,0.347c-0.403,0.231 -0.774,0.562 -1.113,0.993c-0.339,0.431 -0.508,0.672 -0.508,0.725l-0,5.924l-1.42,-0l0,-9.158l1.42,-0l-0,1.854c0.763,-1.383 1.752,-2.074 2.967,-2.074c0.721,-0 1.42,0.155 2.098,0.466Z" style="fill:#2600ff;fill-rule:nonzero;"/><path d="M125.084,25.23c0.317,-0.422 0.746,-0.761 1.286,-1.019c0.541,-0.258 1.11,-0.387 1.708,-0.387c1.112,-0 1.977,0.428 2.597,1.283c0.62,0.856 0.93,1.981 0.93,3.375c-0,1.412 -0.33,2.592 -0.989,3.538c-0.66,0.946 -1.542,1.419 -2.647,1.419c-0.593,0 -1.147,-0.142 -1.663,-0.426c-0.516,-0.284 -0.923,-0.661 -1.222,-1.129l-0,1.318l-1.429,-0l-0,-12.401l1.429,-0l-0,4.429Zm-0,1.363l-0,3.805c0.268,0.516 0.632,0.946 1.089,1.292c0.458,0.346 0.932,0.519 1.42,0.519c0.769,-0 1.382,-0.352 1.836,-1.055c0.455,-0.703 0.683,-1.567 0.683,-2.593c-0,-1.054 -0.217,-1.91 -0.651,-2.566c-0.433,-0.656 -1.038,-0.984 -1.813,-0.984c-1.007,-0 -1.862,0.527 -2.564,1.582Z" style="fill:#2600ff;fill-rule:nonzero;"/><path d="M139.188,20.581c0.269,-0 0.498,0.092 0.687,0.277c0.189,0.184 0.284,0.405 0.284,0.663c0,0.27 -0.093,0.495 -0.279,0.677c-0.186,0.182 -0.417,0.272 -0.692,0.272c-0.25,0 -0.471,-0.095 -0.664,-0.285c-0.192,-0.191 -0.288,-0.412 -0.288,-0.664c-0,-0.252 0.096,-0.471 0.288,-0.659c0.193,-0.187 0.414,-0.281 0.664,-0.281Zm0.696,12.621l-1.428,-0l-0,-7.972l-2.812,0l-0,-1.186l4.24,-0l0,9.158Z" style="fill:#2600ff;fill-rule:nonzero;"/><path d="M153.614,32.789c-0.959,0.422 -1.902,0.633 -2.831,0.633c-1.703,-0 -2.555,-0.865 -2.555,-2.593l0,-5.599l-1.832,0l0,-1.186l1.832,-0l0,-2.505l1.392,-0l0,2.505l3.243,-0l-0,1.186l-3.243,0l0,5.239c0,0.556 0.128,0.988 0.385,1.296c0.256,0.308 0.604,0.461 1.044,0.461c0.782,0 1.554,-0.167 2.317,-0.501l0.248,1.064Z" style="fill:#2600ff;fill-rule:nonzero;"/><path d="M161.078,23.824c1.313,-0 2.357,0.439 3.132,1.318c0.776,0.879 1.164,2.036 1.164,3.472c-0,1.447 -0.388,2.613 -1.164,3.498c-0.775,0.885 -1.819,1.327 -3.132,1.327c-1.319,0 -2.364,-0.441 -3.137,-1.323c-0.772,-0.881 -1.158,-2.049 -1.158,-3.502c-0,-1.441 0.387,-2.6 1.163,-3.476c0.775,-0.876 1.819,-1.314 3.132,-1.314Zm0,8.42c0.867,-0 1.551,-0.352 2.052,-1.055c0.5,-0.703 0.751,-1.555 0.751,-2.557c-0,-1.055 -0.248,-1.922 -0.742,-2.602c-0.495,-0.68 -1.182,-1.019 -2.061,-1.019c-0.885,-0 -1.572,0.335 -2.061,1.006c-0.488,0.671 -0.732,1.542 -0.732,2.615c-0,1.019 0.247,1.876 0.741,2.57c0.495,0.695 1.179,1.042 2.052,1.042Z" style="fill:#2600ff;fill-rule:nonzero;"/><path d="M176.035,33.202l-1.429,-0l-0,-5.871c-0,-0.815 -0.136,-1.405 -0.408,-1.771c-0.272,-0.366 -0.697,-0.549 -1.277,-0.549c-0.874,-0 -1.811,0.521 -2.812,1.564l-0,6.627l-1.429,-0l-0,-9.158l1.429,-0l-0,1.344c1.026,-1.043 2.106,-1.564 3.242,-1.564c1.789,-0 2.684,1.037 2.684,3.111l-0,6.267Z" style="fill:#2600ff;fill-rule:nonzero;"/><path d="M187.575,28.667l-6.549,-0c0,1.037 0.313,1.892 0.939,2.566c0.626,0.674 1.394,1.011 2.303,1.011c0.867,-0 1.762,-0.15 2.684,-0.448l0.247,1.098c-0.842,0.364 -1.825,0.545 -2.949,0.545c-1.417,0 -2.558,-0.436 -3.425,-1.309c-0.867,-0.873 -1.301,-2.051 -1.301,-3.534c0,-1.453 0.389,-2.611 1.168,-3.476c0.778,-0.864 1.784,-1.296 3.018,-1.296c1.099,-0 2.018,0.401 2.757,1.204c0.738,0.803 1.108,1.872 1.108,3.208l-0,0.431Zm-1.557,-1.116c-0,-0.715 -0.232,-1.317 -0.696,-1.807c-0.464,-0.489 -0.983,-0.733 -1.557,-0.733c-0.739,-0 -1.351,0.234 -1.837,0.703c-0.485,0.468 -0.755,1.081 -0.81,1.837l4.9,-0Z" style="fill:#2600ff;fill-rule:nonzero;"/><path d="M197.549,25.353c-0.8,-0.252 -1.554,-0.378 -2.262,-0.378c-0.776,0 -1.39,0.125 -1.841,0.374c-0.452,0.249 -0.678,0.581 -0.678,0.997c-0,0.264 0.104,0.494 0.311,0.69c0.208,0.197 0.623,0.38 1.246,0.55l1.365,0.378c0.628,0.17 1.141,0.373 1.538,0.61c0.397,0.238 0.695,0.525 0.893,0.862c0.199,0.337 0.298,0.728 0.298,1.173c-0,0.873 -0.382,1.563 -1.145,2.07c-0.763,0.507 -1.734,0.76 -2.912,0.76c-1.173,0 -2.141,-0.17 -2.904,-0.51l0.275,-1.186c0.8,0.363 1.658,0.545 2.574,0.545c0.793,-0 1.439,-0.142 1.937,-0.426c0.497,-0.285 0.746,-0.661 0.746,-1.13c0,-0.316 -0.124,-0.599 -0.371,-0.848c-0.247,-0.249 -0.829,-0.508 -1.745,-0.778c-0.738,-0.217 -1.282,-0.379 -1.63,-0.488c-0.348,-0.108 -0.672,-0.268 -0.971,-0.479c-0.299,-0.211 -0.526,-0.462 -0.682,-0.755c-0.156,-0.293 -0.234,-0.622 -0.234,-0.985c0,-0.791 0.361,-1.418 1.081,-1.881c0.721,-0.463 1.676,-0.694 2.867,-0.694c0.769,-0 1.624,0.126 2.564,0.378l-0.32,1.151Z" style="fill:#2600ff;fill-rule:nonzero;"/></g><g><path d="M120.037,55.985c-0.41,-0.134 -0.799,-0.201 -1.167,-0.201c-0.417,-0 -0.756,0.091 -1.018,0.274c-0.262,0.182 -0.393,0.442 -0.393,0.78c-0,0.4 0.343,0.751 1.03,1.054c0.508,0.225 0.844,0.381 1.008,0.469c0.165,0.087 0.331,0.207 0.501,0.36c0.169,0.154 0.305,0.334 0.407,0.542c0.103,0.207 0.154,0.441 0.154,0.7c0,0.644 -0.225,1.143 -0.676,1.497c-0.451,0.355 -0.982,0.532 -1.594,0.532c-0.593,0 -1.112,-0.112 -1.558,-0.337l0.166,-0.661c0.524,0.228 0.982,0.342 1.372,0.342c0.456,0 0.821,-0.113 1.096,-0.34c0.275,-0.226 0.413,-0.538 0.413,-0.934c0,-0.294 -0.09,-0.543 -0.269,-0.748c-0.179,-0.204 -0.509,-0.413 -0.991,-0.625c-0.495,-0.219 -0.814,-0.368 -0.959,-0.448c-0.145,-0.079 -0.289,-0.19 -0.432,-0.33c-0.144,-0.141 -0.254,-0.298 -0.332,-0.473c-0.079,-0.175 -0.118,-0.366 -0.118,-0.572c0,-0.547 0.206,-0.973 0.616,-1.279c0.41,-0.306 0.929,-0.459 1.557,-0.459c0.459,-0 0.915,0.067 1.367,0.201l-0.18,0.656Z" style="fill-rule:nonzero;"/><path d="M122.82,55.254l1.748,0c0.661,0 1.19,0.159 1.587,0.478c0.397,0.319 0.596,0.758 0.596,1.317c-0,0.562 -0.198,1.011 -0.594,1.347c-0.395,0.336 -0.913,0.504 -1.555,0.504l-0.981,-0l-0,2.966l-0.801,-0l0,-6.612Zm0.801,2.975l0.869,0c0.941,0 1.411,-0.377 1.411,-1.133c0,-0.35 -0.128,-0.633 -0.383,-0.849c-0.256,-0.215 -0.585,-0.323 -0.989,-0.323l-0.908,0l-0,2.305Z" style="fill-rule:nonzero;"/><path d="M132.42,61.866l-3.599,-0l-0,-6.612l3.569,0l0,0.67l-2.768,0l-0,2.048l2.661,-0l-0,0.67l-2.661,-0l-0,2.554l2.798,-0l-0,0.67Z" style="fill-rule:nonzero;"/><path d="M138.421,61.866l-3.599,-0l-0,-6.612l3.569,0l0,0.67l-2.768,0l-0,2.048l2.661,-0l-0,0.67l-2.661,-0l-0,2.554l2.798,-0l-0,0.67Z" style="fill-rule:nonzero;"/><path d="M140.593,55.254l1.358,0c0.902,0 1.624,0.295 2.168,0.883c0.543,0.589 0.815,1.397 0.815,2.425c0,1.05 -0.276,1.863 -0.827,2.439c-0.552,0.576 -1.259,0.865 -2.122,0.865l-1.392,-0l0,-6.612Zm0.801,5.942l0.567,-0c0.654,-0 1.172,-0.233 1.552,-0.699c0.381,-0.465 0.572,-1.11 0.572,-1.935c-0,-0.818 -0.192,-1.463 -0.574,-1.933c-0.383,-0.47 -0.899,-0.705 -1.55,-0.705l-0.567,0l0,5.272Z" style="fill-rule:nonzero;"/></g><g><path d="M38.006,82.606c-0.54,0.359 -1.167,0.539 -1.88,0.539c-0.892,0 -1.57,-0.294 -2.033,-0.881c-0.464,-0.587 -0.696,-1.437 -0.696,-2.549c-0,-1.074 0.224,-1.915 0.674,-2.523c0.449,-0.608 1.134,-0.911 2.055,-0.911c0.332,-0 0.661,0.04 0.987,0.121c0.325,0.082 0.587,0.189 0.786,0.324l-0.264,0.604c-0.459,-0.25 -0.962,-0.375 -1.509,-0.375c-0.634,0 -1.106,0.221 -1.416,0.663c-0.309,0.442 -0.464,1.141 -0.464,2.097c0,1.837 0.627,2.755 1.88,2.755c0.531,0 1.075,-0.156 1.631,-0.468l0.249,0.604Z" style="fill-rule:nonzero;"/><path d="M43.778,83.019l-3.75,-0l-0,-6.612l0.8,0l0,5.942l2.95,-0l-0,0.67Z" style="fill-rule:nonzero;"/><path d="M50.511,83.019l-1.001,-0l-2.021,-3.004l-0.889,0l-0,3.004l-0.801,-0l0,-6.612l1.948,0c0.655,0 1.171,0.152 1.551,0.457c0.379,0.305 0.569,0.729 0.569,1.272c-0,0.403 -0.139,0.762 -0.415,1.075c-0.277,0.314 -0.658,0.528 -1.143,0.64l2.202,3.168Zm-3.911,-3.674l1.011,0c0.423,0 0.766,-0.11 1.03,-0.33c0.264,-0.221 0.395,-0.498 0.395,-0.832c0,-0.737 -0.468,-1.106 -1.406,-1.106l-1.03,0l-0,2.268Z" style="fill-rule:nonzero;"/></g><g id="logo"><g><circle cx="21.668" cy="337.393" r="1.627" style="fill:#8000db;"/><path d="M21.668,337.393l5.554,0" style="fill:none;stroke:#8000db;stroke-width:1.35px;"/><path d="M27.222,334.613c0,-1.533 -1.244,-2.777 -2.777,-2.777l-5.554,-0c-1.533,-0 -2.777,1.244 -2.777,2.777l0,5.561c0,1.532 1.244,2.777 2.777,2.777l5.554,-0c1.533,-0 2.777,-1.245 2.777,-2.777l0,-5.561Z" style="fill:none;stroke:#8000db;stroke-width:1.35px;stroke-linejoin:round;stroke-miterlimit:3;"/></g><g><circle cx="34.266" cy="349.51" r="1.627" style="fill:#f00;"/><path d="M37.043,343.953l-5.554,0c-1.533,0 -2.777,0.802 -2.777,1.79l-0,7.535c-0,0.988 1.244,1.79 2.777,1.79l5.554,-0c1.533,-0 2.777,-0.802 2.777,-1.79l-0,-3.768l-5.554,0" style="fill:none;stroke:#f00;stroke-width:1.35px;stroke-linecap:round;stroke-linejoin:round;stroke-miterlimit:3;"/></g><g><circle cx="34.266" cy="337.393" r="1.627" style="fill:#2600ff;"/><path d="M39.82,342.951l-0,-8.982c-0,-1.177 -1.244,-2.133 -2.777,-2.133l-5.554,-0c-1.533,-0 -2.777,0.956 -2.777,2.133l-0,8.982" style="fill:none;stroke:#2600ff;stroke-width:1.35px;stroke-linecap:round;stroke-linejoin:round;stroke-miterlimit:3;"/></g><g><circle cx="21.665" cy="349.51" r="1.627" style="fill:#0ef;"/><path d="M16.107,355.068l0,-11.115l11.115,11.115l0,-11.115" style="fill:none;stroke:#0ef;stroke-width:1.35px;stroke-linecap:round;stroke-linejoin:round;"/></g></g><text x="125.609px" y="189.78px" style="font-family:'AndaleMono', 'Andale Mono', monospace;font-size:9.596px;">i<tspan x="131.61px 137.611px 143.612px 149.613px 155.614px 161.615px 167.616px 173.617px 179.618px 185.619px 191.62px 197.621px 203.622px 209.623px 215.624px 221.625px 227.626px 233.627px 239.627px 245.628px 251.629px 257.63px 263.631px 269.632px 275.633px 281.634px 287.635px 293.636px 299.637px 305.638px 311.639px 317.64px 323.641px 329.642px 335.643px " y="189.78px 189.78px 189.78px 189.78px 189.78px 189.78px 189.78px 189.78px 189.78px 189.78px 189.78px 189.78px 189.78px 189.78px 189.78px 189.78px 189.78px 189.78px 189.78px 189.78px 189.78px 189.78px 189.78px 189.78px 189.78px 189.78px 189.78px 189.78px 189.78px 189.78px 189.78px 189.78px 189.78px 189.78px 189.78px ">ndividual gravity control of nodes?</tspan></text><g transform="matrix(6.16174e-17,-1,1,2.89235e-17,-2964.6,2470.44)"><text x="2298.23px" y="3290.07px" style="font-family:'AndaleMono', 'Andale Mono', monospace;font-size:25.751px;fill:#2600ff;">O<tspan x="2314.33px 2330.44px 2346.54px 2362.64px 2378.75px 2394.85px 2410.95px 2427.06px " y="3290.07px 3290.07px 3290.07px 3290.07px 3290.07px 3290.07px 3290.07px 3290.07px ">rbitones</tspan></text></g><g><path d="M11.04,19.359c2.07,0 3.649,0.786 4.737,2.358c1.087,1.571 1.631,3.858 1.631,6.859c0,2.984 -0.542,5.264 -1.625,6.84c-1.083,1.576 -2.664,2.364 -4.743,2.364c-2.061,-0 -3.636,-0.786 -4.723,-2.358c-1.088,-1.572 -1.632,-3.854 -1.632,-6.846c0,-2.993 0.542,-5.277 1.625,-6.853c1.083,-1.576 2.66,-2.364 4.73,-2.364Zm0,16.61c2.725,-0 4.088,-2.464 4.088,-7.393c0,-4.938 -1.363,-7.406 -4.088,-7.406c-1.328,-0 -2.339,0.639 -3.033,1.917c-0.695,1.279 -1.042,3.108 -1.042,5.489c0,2.405 0.345,4.239 1.035,5.501c0.69,1.261 1.704,1.892 3.04,1.892Z" style="fill:#2600ff;fill-rule:nonzero;"/><path d="M16.569,43.69l-0.825,1.886c-0.9,-0.377 -1.677,-0.565 -2.332,-0.565c-0.603,-0 -1.193,0.165 -1.769,0.496c-0.577,0.331 -1.107,0.805 -1.592,1.421c-0.485,0.616 -0.727,0.962 -0.727,1.037l-0,8.475l-2.031,0l-0,-13.102l2.031,0l-0,2.653c1.092,-1.978 2.507,-2.967 4.245,-2.967c1.031,0 2.031,0.222 3,0.666Z" style="fill:#2600ff;fill-rule:nonzero;"/><path d="M7.882,64.036c0.455,-0.604 1.068,-1.09 1.841,-1.459c0.773,-0.369 1.588,-0.553 2.444,-0.553c1.59,0 2.828,0.612 3.715,1.836c0.886,1.224 1.33,2.833 1.33,4.828c-0,2.02 -0.472,3.707 -1.416,5.061c-0.943,1.354 -2.205,2.031 -3.786,2.031c-0.848,-0 -1.64,-0.204 -2.378,-0.61c-0.739,-0.407 -1.322,-0.945 -1.75,-1.616l0,1.886l-2.044,0l0,-17.741l2.044,-0l0,6.337Zm0,1.949l0,5.444c0.385,0.738 0.904,1.354 1.56,1.848c0.655,0.495 1.332,0.742 2.031,0.742c1.1,0 1.976,-0.503 2.627,-1.509c0.65,-1.005 0.976,-2.242 0.976,-3.709c-0,-1.509 -0.31,-2.732 -0.931,-3.671c-0.62,-0.939 -1.484,-1.409 -2.594,-1.409c-1.441,0 -2.664,0.755 -3.669,2.264Z" style="fill:#2600ff;fill-rule:nonzero;"/><path d="M11.957,76.384c0.385,0 0.712,0.132 0.983,0.396c0.271,0.264 0.406,0.581 0.406,0.95c0,0.385 -0.133,0.708 -0.399,0.968c-0.267,0.26 -0.597,0.39 -0.99,0.39c-0.358,-0 -0.674,-0.137 -0.95,-0.409c-0.275,-0.272 -0.412,-0.589 -0.412,-0.949c-0,-0.361 0.137,-0.675 0.412,-0.943c0.276,-0.269 0.592,-0.403 0.95,-0.403Zm0.996,18.056l-2.044,0l0,-11.404l-4.022,-0l-0,-1.698l6.066,0l0,13.102Z" style="fill:#2600ff;fill-rule:nonzero;"/><path d="M16.491,112.849c-1.372,0.604 -2.721,0.905 -4.049,0.905c-2.437,0 -3.656,-1.236 -3.656,-3.709l0,-8.009l-2.62,-0l-0,-1.698l2.62,0l0,-3.583l1.992,-0l0,3.583l4.638,0l0,1.698l-4.638,-0l0,7.494c0,0.796 0.184,1.414 0.55,1.854c0.367,0.44 0.865,0.66 1.494,0.66c1.118,0 2.223,-0.239 3.315,-0.716l0.354,1.521Z" style="fill:#2600ff;fill-rule:nonzero;"/><path d="M11.066,119.024c1.878,0 3.372,0.629 4.481,1.886c1.11,1.257 1.665,2.913 1.665,4.967c-0,2.07 -0.555,3.738 -1.665,5.004c-1.109,1.266 -2.603,1.899 -4.481,1.899c-1.886,-0 -3.382,-0.631 -4.487,-1.893c-1.105,-1.261 -1.658,-2.932 -1.658,-5.01c0,-2.062 0.555,-3.72 1.664,-4.973c1.11,-1.253 2.603,-1.88 4.481,-1.88Zm0,12.046c1.241,-0 2.219,-0.503 2.935,-1.509c0.717,-1.006 1.075,-2.226 1.075,-3.659c-0,-1.509 -0.354,-2.75 -1.062,-3.722c-0.707,-0.972 -1.69,-1.459 -2.948,-1.459c-1.266,0 -2.249,0.48 -2.948,1.44c-0.699,0.96 -1.048,2.207 -1.048,3.741c0,1.458 0.354,2.684 1.061,3.678c0.708,0.993 1.686,1.49 2.935,1.49Z" style="fill:#2600ff;fill-rule:nonzero;"/><path d="M16.36,151.44l-2.044,0l-0,-8.399c-0,-1.165 -0.195,-2.01 -0.583,-2.534c-0.389,-0.524 -0.998,-0.786 -1.828,-0.786c-1.249,0 -2.59,0.746 -4.023,2.239l0,9.48l-2.044,0l0,-13.102l2.044,0l0,1.924c1.468,-1.492 3.014,-2.238 4.639,-2.238c2.559,0 3.839,1.484 3.839,4.451l-0,8.965Z" style="fill:#2600ff;fill-rule:nonzero;"/><path d="M16.766,163.952l-9.368,0c-0,1.484 0.447,2.708 1.343,3.672c0.895,0.964 1.993,1.446 3.295,1.446c1.24,-0 2.52,-0.214 3.839,-0.642l0.354,1.572c-1.206,0.52 -2.612,0.78 -4.219,0.78c-2.027,-0 -3.66,-0.625 -4.901,-1.874c-1.24,-1.249 -1.86,-2.934 -1.86,-5.055c-0,-2.078 0.557,-3.736 1.67,-4.972c1.114,-1.237 2.553,-1.855 4.318,-1.855c1.572,0 2.887,0.574 3.944,1.723c1.057,1.148 1.585,2.678 1.585,4.589l0,0.616Zm-2.227,-1.597c-0,-1.022 -0.332,-1.884 -0.996,-2.584c-0.664,-0.7 -1.407,-1.05 -2.228,-1.05c-1.057,0 -1.932,0.336 -2.627,1.006c-0.694,0.671 -1.081,1.547 -1.159,2.628l7.01,0Z" style="fill:#2600ff;fill-rule:nonzero;"/><path d="M14.932,178.212c-1.145,-0.361 -2.223,-0.541 -3.237,-0.541c-1.109,0 -1.987,0.178 -2.633,0.535c-0.647,0.356 -0.97,0.831 -0.97,1.427c0,0.377 0.149,0.706 0.446,0.987c0.297,0.28 0.891,0.542 1.781,0.786l1.953,0.54c0.9,0.243 1.633,0.535 2.201,0.874c0.568,0.34 0.994,0.75 1.278,1.232c0.283,0.482 0.425,1.042 0.425,1.679c0,1.249 -0.546,2.236 -1.637,2.961c-1.092,0.725 -2.481,1.088 -4.167,1.088c-1.677,-0 -3.062,-0.244 -4.154,-0.73l0.393,-1.697c1.145,0.52 2.372,0.779 3.682,0.779c1.136,0 2.06,-0.203 2.772,-0.609c0.711,-0.407 1.067,-0.946 1.067,-1.616c0,-0.453 -0.177,-0.857 -0.53,-1.213c-0.354,-0.357 -1.186,-0.728 -2.496,-1.113c-1.057,-0.31 -1.835,-0.543 -2.333,-0.698c-0.498,-0.155 -0.96,-0.384 -1.389,-0.685c-0.428,-0.302 -0.753,-0.663 -0.976,-1.082c-0.222,-0.419 -0.334,-0.888 -0.334,-1.408c0,-1.132 0.516,-2.028 1.546,-2.691c1.031,-0.662 2.398,-0.993 4.101,-0.993c1.101,0 2.324,0.18 3.669,0.541l-0.458,1.647Z" style="fill:#2600ff;fill-rule:nonzero;"/></g><text x="458.214px" y="103.577px" style="font-family:'AndaleMono', 'Andale Mono', monospace;font-size:9.596px;">N<tspan x="464.215px 470.216px " y="103.577px 103.577px ">EG</tspan></text><g><path d="M492.611,324.138l-1.929,4.882l-0.693,0l-1.919,-4.882l0.83,-0l1.44,3.884l1.441,-3.884l0.83,-0Z" style="fill-rule:nonzero;"/><path d="M497.534,326.602l-3.492,0c0,0.553 0.167,1.009 0.501,1.369c0.333,0.359 0.743,0.538 1.228,0.538c0.462,0 0.939,-0.079 1.43,-0.239l0.132,0.586c-0.449,0.194 -0.973,0.291 -1.572,0.291c-0.755,-0 -1.364,-0.233 -1.826,-0.698c-0.462,-0.466 -0.693,-1.094 -0.693,-1.884c-0,-0.775 0.207,-1.392 0.622,-1.853c0.415,-0.461 0.951,-0.691 1.609,-0.691c0.586,-0 1.076,0.214 1.47,0.642c0.394,0.428 0.591,0.998 0.591,1.71l-0,0.229Zm-0.831,-0.595c0,-0.381 -0.123,-0.702 -0.371,-0.963c-0.247,-0.26 -0.524,-0.391 -0.83,-0.391c-0.394,0 -0.72,0.125 -0.979,0.375c-0.259,0.25 -0.403,0.576 -0.432,0.979l2.612,0Z" style="fill-rule:nonzero;"/><path d="M502.012,329.02l-2.08,0l-0,-5.979l-1.328,0l-0,-0.632l2.09,-0l-0,5.979l1.318,-0l0,0.632Z" style="fill-rule:nonzero;"/><path d="M508.092,329.02l-0.889,0l-1.748,-2.708l-1.733,2.708l-0.889,0l2.202,-3.369l-2.192,-3.242l0.918,-0l1.694,2.619l1.709,-2.619l0.879,-0l-2.158,3.242l2.207,3.369Z" style="fill-rule:nonzero;"/></g><g><path d="M519.435,324.138l-1.929,4.882l-0.693,0l-1.919,-4.882l0.83,-0l1.44,3.884l1.441,-3.884l0.83,-0Z" style="fill-rule:nonzero;"/><path d="M524.358,326.602l-3.492,0c0,0.553 0.167,1.009 0.501,1.369c0.334,0.359 0.743,0.538 1.228,0.538c0.462,0 0.939,-0.079 1.431,-0.239l0.131,0.586c-0.449,0.194 -0.973,0.291 -1.572,0.291c-0.755,-0 -1.364,-0.233 -1.826,-0.698c-0.462,-0.466 -0.693,-1.094 -0.693,-1.884c-0,-0.775 0.207,-1.392 0.622,-1.853c0.415,-0.461 0.952,-0.691 1.609,-0.691c0.586,-0 1.076,0.214 1.47,0.642c0.394,0.428 0.591,0.998 0.591,1.71l-0,0.229Zm-0.83,-0.595c-0,-0.381 -0.124,-0.702 -0.372,-0.963c-0.247,-0.26 -0.524,-0.391 -0.83,-0.391c-0.394,0 -0.72,0.125 -0.979,0.375c-0.258,0.25 -0.402,0.576 -0.432,0.979l2.613,0Z" style="fill-rule:nonzero;"/><path d="M528.836,329.02l-2.08,0l0,-5.979l-1.328,0l-0,-0.632l2.09,-0l-0,5.979l1.318,-0l0,0.632Z" style="fill-rule:nonzero;"/><path d="M534.799,322.409l-2.153,3.781l-0,2.83l-0.796,0l-0,-2.83l-2.154,-3.781l0.904,-0l1.645,2.975l1.651,-2.975l0.903,-0Z" style="fill-rule:nonzero;"/></g><g><rect x="491.53" y="286.963" width="2.9" height="0.712" style="fill-rule:nonzero;"/><path d="M500.71,289.957l-0.888,0l-1.748,-2.708l-1.734,2.708l-0.889,0l2.203,-3.369l-2.193,-3.242l0.918,-0l1.695,2.619l1.709,-2.619l0.878,-0l-2.158,3.242l2.207,3.369Z" style="fill-rule:nonzero;"/></g><g><rect x="518.334" y="286.963" width="2.9" height="0.712" style="fill-rule:nonzero;"/><path d="M527.398,283.346l-2.154,3.781l0,2.83l-0.796,0l0,-2.83l-2.153,-3.781l0.903,-0l1.646,2.975l1.65,-2.975l0.904,-0Z" style="fill-rule:nonzero;"/></g><path d="M30.263,265.204c-0.563,0.397 -1.186,0.595 -1.87,0.595c-0.895,0 -1.574,-0.291 -2.036,-0.874c-0.462,-0.582 -0.693,-1.434 -0.693,-2.556c-0,-1.084 0.224,-1.927 0.671,-2.53c0.448,-0.603 1.134,-0.904 2.058,-0.904c0.332,-0 0.661,0.04 0.987,0.122c0.325,0.081 0.587,0.189 0.786,0.323l-0.264,0.604c-0.459,-0.25 -0.962,-0.375 -1.509,-0.375c-0.631,0 -1.102,0.222 -1.413,0.666c-0.311,0.443 -0.467,1.142 -0.467,2.094c0,1.837 0.627,2.755 1.88,2.755c0.472,0 0.829,-0.095 1.07,-0.285l-0,-1.631l-1.241,0l0,-0.665l2.041,-0l0,2.661Z" style="fill-rule:nonzero;"/><g><path d="M508.456,79.927l-0.84,-0l-0.762,-2.315l-2.26,0l-0.772,2.315l-0.83,-0l2.251,-6.612l0.962,0l2.251,6.612Zm-1.831,-2.985l-0.904,-2.736l-0.898,2.736l1.802,0Z" style="fill-rule:nonzero;"/><path d="M514.432,73.315l-2.246,6.612l-0.962,-0l-2.251,-6.612l0.84,0l1.89,5.722l1.899,-5.722l0.83,0Z" style="fill-rule:nonzero;"/><path d="M519.935,79.458c-0.563,0.397 -1.186,0.595 -1.87,0.595c-0.895,0 -1.574,-0.291 -2.036,-0.874c-0.462,-0.582 -0.693,-1.434 -0.693,-2.556c-0,-1.083 0.223,-1.927 0.671,-2.53c0.448,-0.603 1.134,-0.904 2.058,-0.904c0.332,-0 0.661,0.04 0.987,0.122c0.325,0.081 0.587,0.189 0.786,0.323l-0.264,0.604c-0.459,-0.249 -0.962,-0.374 -1.509,-0.374c-0.631,-0 -1.103,0.221 -1.413,0.665c-0.311,0.444 -0.467,1.142 -0.467,2.094c0,1.837 0.627,2.756 1.88,2.756c0.472,-0 0.829,-0.096 1.07,-0.286l-0,-1.631l-1.241,0l0,-0.665l2.041,-0l0,2.661Z" style="fill-rule:nonzero;"/></g><g><path d="M38.316,45.717l-1.001,0l-2.021,-3.003l-0.889,-0l0,3.003l-0.801,0l0,-6.611l1.949,-0c0.654,-0 1.171,0.152 1.55,0.456c0.379,0.305 0.569,0.729 0.569,1.273c-0,0.403 -0.139,0.761 -0.415,1.075c-0.277,0.314 -0.658,0.527 -1.143,0.64l2.202,3.167Zm-3.911,-3.674l1.011,0c0.423,0 0.766,-0.11 1.03,-0.33c0.264,-0.22 0.396,-0.497 0.396,-0.832c-0,-0.737 -0.469,-1.105 -1.407,-1.105l-1.03,-0l0,2.267Z" style="fill-rule:nonzero;"/><path d="M43.805,45.717l-0.772,0l0,-5.67l-1.04,2.713l-0.757,0l-1.04,-2.713l0,5.67l-0.771,0l-0,-6.611l1.04,-0l1.152,3.012l1.148,-3.012l1.04,-0l-0,6.611Z" style="fill-rule:nonzero;"/><path d="M50.304,39.106l-2.247,6.611l-0.961,0l-2.251,-6.611l0.839,-0l1.89,5.721l1.899,-5.721l0.831,-0Z" style="fill-rule:nonzero;"/></g><text x="172.511px" y="294.849px" style="font-family:'AndaleMono', 'Andale Mono', monospace;font-size:9.596px;">R<tspan x="178.512px 184.513px 190.514px " y="294.849px 294.849px 294.849px ">ND?</tspan></text><g><path d="M507.423,111.937l-0.771,-0l-0,-5.67l-1.04,2.713l-0.757,-0l-1.04,-2.713l-0,5.67l-0.772,-0l0,-6.612l1.04,0l1.153,3.013l1.147,-3.013l1.04,0l0,6.612Z" style="fill-rule:nonzero;"/><path d="M513.947,111.937l-0.84,-0l-0.762,-2.315l-2.261,-0l-0.771,2.315l-0.83,-0l2.251,-6.612l0.962,0l2.251,6.612Zm-1.832,-2.985l-0.903,-2.737l-0.898,2.737l1.801,-0Z" style="fill-rule:nonzero;"/><path d="M519.884,111.937l-0.889,-0l-1.748,-2.709l-1.733,2.709l-0.889,-0l2.202,-3.369l-2.192,-3.243l0.918,0l1.694,2.619l1.709,-2.619l0.879,0l-2.158,3.243l2.207,3.369Z" style="fill-rule:nonzero;"/></g><g><path d="M507.723,143.946l-0.771,0l-0,-5.669l-1.04,2.713l-0.757,-0l-1.04,-2.713l0,5.669l-0.771,0l-0,-6.611l1.04,-0l1.152,3.013l1.147,-3.013l1.04,-0l0,6.611Z" style="fill-rule:nonzero;"/><path d="M513.036,143.946l-3.13,0l0,-0.67l1.187,0l-0,-5.271l-1.187,-0l0,-0.67l3.13,-0l-0,0.67l-1.143,-0l0,5.271l1.143,0l-0,0.67Z" style="fill-rule:nonzero;"/><path d="M519.584,143.946l-0.889,0l-2.471,-5.219l0,5.219l-0.8,0l-0,-6.611l0.893,-0l2.481,5.173l-0,-5.173l0.786,-0l-0,6.611Z" style="fill-rule:nonzero;"/></g><g><path d="M504.691,52.439l-0.771,-0l-0,-5.67l-1.04,2.713l-0.757,0l-1.04,-2.713l-0,5.67l-0.772,-0l0,-6.612l1.04,0l1.153,3.013l1.147,-3.013l1.04,0l0,6.612Z" style="fill-rule:nonzero;"/><path d="M508.461,45.701c0.771,-0 1.36,0.293 1.765,0.878c0.405,0.586 0.608,1.438 0.608,2.556c-0,1.112 -0.202,1.962 -0.606,2.549c-0.403,0.588 -0.993,0.881 -1.767,0.881c-0.769,0 -1.355,-0.293 -1.761,-0.878c-0.405,-0.586 -0.607,-1.436 -0.607,-2.552c-0,-1.115 0.201,-1.966 0.605,-2.553c0.404,-0.588 0.991,-0.881 1.763,-0.881Zm-0,6.19c1.015,-0 1.523,-0.919 1.523,-2.756c0,-1.84 -0.508,-2.759 -1.523,-2.759c-0.495,-0 -0.872,0.238 -1.131,0.714c-0.258,0.476 -0.388,1.158 -0.388,2.045c0,0.897 0.129,1.58 0.386,2.05c0.257,0.47 0.635,0.706 1.133,0.706Z" style="fill-rule:nonzero;"/><path d="M516.552,52.439l-0.889,-0l-2.471,-5.22l0,5.22l-0.801,-0l0,-6.612l0.894,0l2.48,5.173l0,-5.173l0.787,0l-0,6.612Z" style="fill-rule:nonzero;"/><path d="M520.463,45.701c0.771,-0 1.36,0.293 1.765,0.878c0.405,0.586 0.608,1.438 0.608,2.556c-0,1.112 -0.202,1.962 -0.606,2.549c-0.403,0.588 -0.993,0.881 -1.767,0.881c-0.769,0 -1.355,-0.293 -1.761,-0.878c-0.405,-0.586 -0.608,-1.436 -0.608,-2.552c0,-1.115 0.202,-1.966 0.606,-2.553c0.404,-0.588 0.991,-0.881 1.763,-0.881Zm-0,6.19c1.015,-0 1.523,-0.919 1.523,-2.756c0,-1.84 -0.508,-2.759 -1.523,-2.759c-0.495,-0 -0.872,0.238 -1.131,0.714c-0.259,0.476 -0.388,1.158 -0.388,2.045c0,0.897 0.129,1.58 0.386,2.05c0.257,0.47 0.635,0.706 1.133,0.706Z" style="fill-rule:nonzero;"/><path d="M502.46,55.297c0.771,-0 1.36,0.293 1.765,0.879c0.405,0.585 0.608,1.437 0.608,2.556c-0,1.112 -0.202,1.961 -0.606,2.549c-0.403,0.587 -0.993,0.88 -1.767,0.88c-0.769,0 -1.355,-0.292 -1.761,-0.878c-0.405,-0.586 -0.607,-1.436 -0.607,-2.551c-0,-1.116 0.201,-1.967 0.605,-2.554c0.404,-0.587 0.991,-0.881 1.763,-0.881Zm-0,6.19c1.015,-0 1.523,-0.919 1.523,-2.755c0,-1.84 -0.508,-2.76 -1.523,-2.76c-0.495,-0 -0.872,0.238 -1.131,0.714c-0.258,0.477 -0.388,1.158 -0.388,2.046c0,0.896 0.129,1.579 0.386,2.05c0.257,0.47 0.635,0.705 1.133,0.705Z" style="fill-rule:nonzero;"/><path d="M510.453,59.955c-0,0.765 -0.162,1.324 -0.486,1.677c-0.324,0.353 -0.816,0.529 -1.477,0.529c-1.331,0 -1.997,-0.729 -1.997,-2.188l-0,-4.55l0.801,0l-0,4.48c-0,1.056 0.398,1.584 1.196,1.584c0.4,-0 0.694,-0.125 0.881,-0.375c0.188,-0.25 0.281,-0.656 0.281,-1.218l0,-4.471l0.801,0l-0,4.532Z" style="fill-rule:nonzero;"/><path d="M517.006,56.047l-2.124,-0l-0,5.988l-0.796,-0l-0,-5.988l-2.134,-0l-0,-0.624l5.054,0l-0,0.624Z" style="fill-rule:nonzero;"/><path d="M521.942,56.154c-0.41,-0.134 -0.799,-0.201 -1.167,-0.201c-0.417,-0 -0.756,0.091 -1.018,0.274c-0.262,0.183 -0.393,0.443 -0.393,0.78c0,0.4 0.343,0.751 1.03,1.055c0.508,0.224 0.844,0.381 1.009,0.468c0.164,0.088 0.331,0.208 0.5,0.361c0.169,0.153 0.305,0.333 0.408,0.541c0.102,0.208 0.154,0.441 0.154,0.701c-0,0.643 -0.226,1.142 -0.677,1.497c-0.451,0.354 -0.982,0.531 -1.594,0.531c-0.592,0 -1.112,-0.112 -1.558,-0.337l0.167,-0.661c0.524,0.228 0.981,0.342 1.372,0.342c0.455,0 0.821,-0.113 1.096,-0.339c0.275,-0.227 0.412,-0.538 0.412,-0.935c0,-0.294 -0.089,-0.543 -0.268,-0.747c-0.179,-0.205 -0.51,-0.414 -0.991,-0.626c-0.495,-0.219 -0.815,-0.368 -0.96,-0.447c-0.145,-0.08 -0.289,-0.19 -0.432,-0.331c-0.143,-0.14 -0.254,-0.298 -0.332,-0.473c-0.078,-0.175 -0.117,-0.365 -0.117,-0.572c-0,-0.546 0.205,-0.973 0.615,-1.279c0.41,-0.306 0.929,-0.459 1.558,-0.459c0.459,-0 0.914,0.067 1.367,0.201l-0.181,0.656Z" style="fill-rule:nonzero;"/></g><g><path d="M500.621,219.257l1.748,-0c0.661,-0 1.19,0.159 1.587,0.478c0.397,0.319 0.596,0.757 0.596,1.317c0,0.562 -0.198,1.011 -0.593,1.347c-0.396,0.336 -0.914,0.503 -1.555,0.503l-0.982,0l0,2.966l-0.801,0l0,-6.611Zm0.801,2.975l0.869,0c0.941,0 1.411,-0.378 1.411,-1.134c0,-0.349 -0.127,-0.632 -0.383,-0.848c-0.255,-0.215 -0.585,-0.323 -0.989,-0.323l-0.908,0l0,2.305Z" style="fill-rule:nonzero;"/><path d="M508.361,219.13c0.771,0 1.359,0.293 1.765,0.879c0.405,0.586 0.608,1.438 0.608,2.556c-0,1.112 -0.202,1.962 -0.606,2.549c-0.403,0.587 -0.993,0.881 -1.767,0.881c-0.769,-0 -1.355,-0.293 -1.761,-0.879c-0.405,-0.585 -0.608,-1.436 -0.608,-2.551c0,-1.115 0.202,-1.966 0.606,-2.554c0.404,-0.587 0.991,-0.881 1.763,-0.881Zm-0,6.19c1.015,0 1.523,-0.918 1.523,-2.755c0,-1.84 -0.508,-2.76 -1.523,-2.76c-0.495,0 -0.872,0.238 -1.131,0.715c-0.259,0.476 -0.388,1.158 -0.388,2.045c0,0.897 0.129,1.58 0.386,2.05c0.257,0.47 0.635,0.705 1.133,0.705Z" style="fill-rule:nonzero;"/><path d="M516.373,225.868l-3.75,0l0,-6.611l0.801,-0l0,5.941l2.949,0l0,0.67Z" style="fill-rule:nonzero;"/><path d="M522.936,219.257l-2.154,3.781l0,2.83l-0.795,0l-0,-2.83l-2.154,-3.781l0.904,-0l1.645,2.975l1.65,-2.975l0.904,-0Z" style="fill-rule:nonzero;"/><path d="M502.36,228.727c0.771,-0 1.359,0.293 1.765,0.878c0.405,0.586 0.608,1.438 0.608,2.556c-0,1.112 -0.202,1.962 -0.606,2.549c-0.403,0.587 -0.993,0.881 -1.767,0.881c-0.769,0 -1.355,-0.293 -1.761,-0.878c-0.405,-0.586 -0.608,-1.437 -0.608,-2.552c0,-1.115 0.202,-1.966 0.606,-2.553c0.404,-0.588 0.991,-0.881 1.763,-0.881Zm-0,6.189c1.015,0 1.523,-0.918 1.523,-2.755c0,-1.84 -0.508,-2.76 -1.523,-2.76c-0.495,0 -0.872,0.239 -1.131,0.715c-0.259,0.476 -0.388,1.158 -0.388,2.045c0,0.897 0.129,1.58 0.386,2.05c0.257,0.47 0.635,0.705 1.133,0.705Z" style="fill-rule:nonzero;"/><path d="M510.353,233.384c-0,0.766 -0.162,1.325 -0.486,1.678c-0.324,0.353 -0.816,0.529 -1.477,0.529c-1.331,0 -1.997,-0.729 -1.997,-2.188l-0,-4.55l0.801,0l-0,4.48c-0,1.055 0.398,1.583 1.196,1.583c0.4,0 0.694,-0.125 0.881,-0.374c0.187,-0.25 0.281,-0.656 0.281,-1.219l0,-4.47l0.801,0l-0,4.531Z" style="fill-rule:nonzero;"/><path d="M516.906,229.476l-2.124,0l-0,5.989l-0.796,-0l-0,-5.989l-2.134,0l-0,-0.623l5.054,0l-0,0.623Z" style="fill-rule:nonzero;"/><path d="M521.842,229.584c-0.41,-0.134 -0.799,-0.201 -1.167,-0.201c-0.417,-0 -0.756,0.091 -1.018,0.274c-0.262,0.183 -0.393,0.443 -0.393,0.78c-0,0.4 0.343,0.751 1.03,1.054c0.508,0.225 0.844,0.381 1.009,0.469c0.164,0.087 0.331,0.207 0.5,0.361c0.169,0.153 0.305,0.333 0.408,0.541c0.102,0.207 0.154,0.441 0.154,0.7c-0,0.644 -0.226,1.143 -0.677,1.497c-0.451,0.355 -0.982,0.532 -1.594,0.532c-0.592,0 -1.112,-0.112 -1.558,-0.337l0.166,-0.661c0.524,0.228 0.982,0.342 1.372,0.342c0.456,0 0.822,-0.113 1.097,-0.34c0.275,-0.226 0.412,-0.538 0.412,-0.934c0,-0.294 -0.089,-0.543 -0.268,-0.748c-0.179,-0.204 -0.51,-0.413 -0.992,-0.625c-0.494,-0.219 -0.814,-0.368 -0.959,-0.448c-0.145,-0.079 -0.289,-0.189 -0.432,-0.33c-0.143,-0.141 -0.254,-0.298 -0.332,-0.473c-0.078,-0.175 -0.117,-0.366 -0.117,-0.572c-0,-0.547 0.205,-0.973 0.615,-1.279c0.41,-0.306 0.929,-0.459 1.558,-0.459c0.459,-0 0.914,0.067 1.367,0.201l-0.181,0.656Z" style="fill-rule:nonzero;"/></g><text x="173.282px" y="53.639px" style="font-family:'AndaleMono', 'Andale Mono', monospace;font-size:9.596px;">G<tspan x="178.283px 183.284px 188.285px 193.286px 198.287px 203.288px " y="53.639px 53.639px 53.639px 53.639px 53.639px 53.639px ">RAVITY</tspan></text><g><path d="M84.249,49.017l-0.772,-0l0,-5.67l-1.04,2.713l-0.757,-0l-1.04,-2.713l0,5.67l-0.771,-0l-0,-6.612l1.04,0l1.152,3.013l1.147,-3.013l1.041,0l-0,6.612Z" style="fill-rule:nonzero;"/><path d="M88.018,42.279c0.772,-0 1.36,0.292 1.765,0.878c0.405,0.586 0.608,1.438 0.608,2.556c0,1.112 -0.202,1.962 -0.605,2.549c-0.404,0.587 -0.993,0.881 -1.768,0.881c-0.768,0 -1.355,-0.293 -1.76,-0.878c-0.405,-0.586 -0.608,-1.437 -0.608,-2.552c-0,-1.115 0.202,-1.966 0.605,-2.553c0.404,-0.588 0.992,-0.881 1.763,-0.881Zm0,6.189c1.016,0 1.523,-0.918 1.523,-2.755c0,-1.84 -0.507,-2.76 -1.523,-2.76c-0.495,0 -0.872,0.239 -1.13,0.715c-0.259,0.476 -0.389,1.158 -0.389,2.045c0,0.897 0.129,1.58 0.386,2.05c0.257,0.47 0.635,0.705 1.133,0.705Z" style="fill-rule:nonzero;"/><path d="M96.749,42.405l-2.247,6.612l-0.961,-0l-2.251,-6.612l0.839,0l1.89,5.721l1.899,-5.721l0.831,0Z" style="fill-rule:nonzero;"/><path d="M101.88,49.017l-3.598,-0l-0,-6.612l3.569,0l0,0.67l-2.769,0l0,2.048l2.662,-0l-0,0.67l-2.662,-0l0,2.554l2.798,-0l0,0.67Z" style="fill-rule:nonzero;"/></g><g><path d="M35.328,120.447l-0.772,-0l0,-5.67l-1.04,2.713l-0.756,-0l-1.04,-2.713l-0,5.67l-0.772,-0l0,-6.612l1.04,0l1.152,3.013l1.148,-3.013l1.04,0l-0,6.612Z" style="fill-rule:nonzero;"/><path d="M39.098,113.709c0.771,-0 1.359,0.293 1.765,0.878c0.405,0.586 0.608,1.438 0.608,2.556c-0,1.112 -0.202,1.962 -0.606,2.549c-0.404,0.588 -0.993,0.881 -1.767,0.881c-0.769,0 -1.355,-0.293 -1.761,-0.878c-0.405,-0.586 -0.608,-1.437 -0.608,-2.552c0,-1.115 0.202,-1.966 0.606,-2.553c0.403,-0.588 0.991,-0.881 1.763,-0.881Zm-0,6.189c1.015,0 1.523,-0.918 1.523,-2.755c-0,-1.84 -0.508,-2.76 -1.523,-2.76c-0.495,0 -0.872,0.239 -1.131,0.715c-0.259,0.476 -0.388,1.158 -0.388,2.045c-0,0.897 0.129,1.58 0.386,2.05c0.257,0.47 0.634,0.705 1.133,0.705Z" style="fill-rule:nonzero;"/><path d="M47.828,113.835l-2.246,6.612l-0.962,-0l-2.251,-6.612l0.84,0l1.889,5.721l1.9,-5.721l0.83,0Z" style="fill-rule:nonzero;"/><path d="M52.96,120.447l-3.599,-0l0,-6.612l3.57,0l-0,0.67l-2.769,0l-0,2.048l2.661,-0l0,0.67l-2.661,-0l-0,2.554l2.798,-0l-0,0.67Z" style="fill-rule:nonzero;"/></g><path d="M90.874,65.265l0,25.461" style="fill:none;stroke:#000;stroke-opacity:0.5;stroke-width:1px;stroke-linecap:round;stroke-linejoin:round;"/><path d="M41.954,130.946l-0,20.381" style="fill:none;stroke:#000;stroke-opacity:0.5;stroke-width:0.91px;stroke-linecap:round;stroke-linejoin:round;"/><path d="M499.116,154.545l-0,-64.019" style="fill:none;stroke:#000;stroke-opacity:0.5;stroke-width:1px;stroke-linecap:round;stroke-linejoin:round;"/><path d="M523.811,154.545l0,-64.019" style="fill:none;stroke:#000;stroke-opacity:0.5;stroke-width:1px;stroke-linecap:round;stroke-linejoin:round;"/><circle cx="27.964" cy="213.695" r="16.597" style="fill:none;stroke:#000;stroke-opacity:0.5;stroke-width:0.65px;stroke-linecap:round;stroke-linejoin:round;"/><circle cx="27.964" cy="262.367" r="16.597" style="fill:none;stroke:#000;stroke-opacity:0.5;stroke-width:0.65px;stroke-linecap:round;stroke-linejoin:round;"/></g></g></svg>