<?xml version="1.0" encoding="UTF-8" standalone="no"?><!DOCTYPE svg PUBLIC "-//W3C//DTD SVG 1.1//EN" "http://www.w3.org/Graphics/SVG/1.1/DTD/svg11.dtd"><svg width="100%" height="100%" viewBox="0 0 24 24" version="1.1" xmlns="http://www.w3.org/2000/svg" xmlns:xlink="http://www.w3.org/1999/xlink" xml:space="preserve" xmlns:serif="http://www.serif.com/" style="fill-rule:evenodd;clip-rule:evenodd;stroke-linejoin:round;stroke-miterlimit:2;"><g id="PauseButton"><g id="PurpleButton"><circle cx="12" cy="12" r="12" style="fill:#fff;"/><path d="M12,0c6.623,0 12,5.377 12,12c0,6.623 -5.377,12 -12,12c-6.623,0 -12,-5.377 -12,-12c0,-6.623 5.377,-12 12,-12Zm0,2.087c5.471,0 9.913,4.442 9.913,9.913c0,5.471 -4.442,9.913 -9.913,9.913c-5.471,0 -9.913,-4.442 -9.913,-9.913c0,-5.471 4.442,-9.913 9.913,-9.913Z" style="fill:#8000db;"/></g><path d="M16.484,12l-7.982,4.608l0,-9.216l7.982,4.608Z" style="fill:#8000db;"/></g></svg>