<?xml version="1.0" encoding="UTF-8" standalone="no"?><!DOCTYPE svg PUBLIC "-//W3C//DTD SVG 1.1//EN" "http://www.w3.org/Graphics/SVG/1.1/DTD/svg11.dtd"><svg width="100%" height="100%" viewBox="0 0 15 380" version="1.1" xmlns="http://www.w3.org/2000/svg" xmlns:xlink="http://www.w3.org/1999/xlink" xml:space="preserve" xmlns:serif="http://www.serif.com/" style="fill-rule:evenodd;clip-rule:evenodd;stroke-linejoin:round;stroke-miterlimit:2;"><rect id="PhotronStrip" x="0" y="0" width="15" height="379.559" style="fill:none;"/><clipPath id="_clip1"><rect x="0" y="0" width="15" height="379.559"/></clipPath><g clip-path="url(#_clip1)"><g><g><path d="M152.273,379.559l-0,-690l-380,0l-0,690l380,0Z" style="fill:#fff;"/></g><g><path d="M22.273,-0.441l-0,-10l-10,0l-0,10l10,0Z" style="fill:#b4d00b;"/><path d="M22.273,9.559l-0,-10l-10,0l-0,10l10,0Z" style="fill:#b2dc0b;"/><path d="M22.273,19.559l-0,-10l-10,0l-0,10l10,0Z" style="fill:#b4e70c;"/><path d="M22.273,29.559l-0,-10l-10,0l-0,10l10,0Z" style="fill:#b6f00d;"/><path d="M22.273,39.559l-0,-10l-10,0l-0,10l10,0Z" style="fill:#b8f60b;"/><path d="M22.273,49.559l-0,-10l-10,0l-0,10l10,0Z" style="fill:#b7fb0d;"/><path d="M22.273,59.559l-0,-10l-10,0l-0,10l10,0Z" style="fill:#b6f809;"/><path d="M22.273,69.559l-0,-10l-10,0l-0,10l10,0Z" style="fill:#b6f508;"/><path d="M22.273,79.559l-0,-10l-10,0l-0,10l10,0Z" style="fill:#b6ee05;"/><path d="M22.273,89.559l-0,-10l-10,0l-0,10l10,0Z" style="fill:#bcec02;"/><path d="M22.273,99.559l-0,-10l-10,0l-0,10l10,0Z" style="fill:#c0e705;"/><path d="M22.273,109.559l-0,-10l-10,0l-0,10l10,0Z" style="fill:#c4e307;"/><path d="M22.273,119.559l-0,-10l-10,0l-0,10l10,0Z" style="fill:#c8e00c;"/><path d="M22.273,129.559l-0,-10l-10,0l-0,10l10,0Z" style="fill:#cddd10;"/><path d="M22.273,139.559l-0,-10l-10,0l-0,10l10,0Z" style="fill:#d1da13;"/><path d="M22.273,149.559l-0,-10l-10,0l-0,10l10,0Z" style="fill:#d6d818;"/><path d="M22.273,159.559l-0,-10l-10,0l-0,10l10,0Z" style="fill:#dad61d;"/><path d="M22.273,169.559l-0,-10l-10,0l-0,10l10,0Z" style="fill:#ded322;"/><path d="M22.273,179.559l-0,-10l-10,0l-0,10l10,0Z" style="fill:#e1ce21;"/><path d="M22.273,189.559l-0,-10l-10,0l-0,10l10,0Z" style="fill:#e4cb23;"/><path d="M22.273,199.559l-0,-10l-10,0l-0,10l10,0Z" style="fill:#e7c824;"/><path d="M22.273,209.559l-0,-10l-10,0l-0,10l10,0Z" style="fill:#eac627;"/><path d="M22.273,219.559l-0,-10l-10,0l-0,10l10,0Z" style="fill:#ebc327;"/><path d="M22.273,229.559l-0,-10l-10,0l-0,10l10,0Z" style="fill:#edc028;"/><path d="M22.273,239.559l-0,-10l-10,0l-0,10l10,0Z" style="fill:#efbf28;"/><path d="M22.273,249.559l-0,-10l-10,0l-0,10l10,0Z" style="fill:#efbc2a;"/><path d="M22.273,259.559l-0,-10l-10,0l-0,10l10,0Z" style="fill:#f0bb2b;"/><path d="M22.273,269.559l-0,-10l-10,0l-0,10l10,0Z" style="fill:#efb82d;"/><path d="M22.273,279.559l-0,-10l-10,0l-0,10l10,0Z" style="fill:#f0b931;"/><path d="M22.273,289.559l-0,-10l-10,0l-0,10l10,0Z" style="fill:#eeb933;"/><path d="M22.273,299.559l-0,-10l-10,0l-0,10l10,0Z" style="fill:#efb731;"/><path d="M22.273,309.559l-0,-10l-10,0l-0,10l10,0Z" style="fill:#efb42f;"/><path d="M22.273,319.559l-0,-10l-10,0l-0,10l10,0Z" style="fill:#f1b432;"/><path d="M22.273,329.559l-0,-10l-10,0l-0,10l10,0Z" style="fill:#f3b12c;"/><path d="M22.273,339.559l-0,-10l-10,0l-0,10l10,0Z" style="fill:#f5b02b;"/><path d="M22.273,349.559l-0,-10l-10,0l-0,10l10,0Z" style="fill:#f6ae28;"/><path d="M22.273,359.559l-0,-10l-10,0l-0,10l10,0Z" style="fill:#f8ad26;"/><path d="M22.273,369.559l-0,-10l-10,0l-0,10l10,0Z" style="fill:#faac25;"/><path d="M22.273,379.559l-0,-10l-10,0l-0,10l10,0Z" style="fill:#feab23;"/><path d="M12.273,-0.441l-0,-10l-10,0l-0,10l10,0Z" style="fill:#b5d70a;"/><path d="M12.273,9.559l-0,-10l-10,0l-0,10l10,0Z" style="fill:#b5e10b;"/><path d="M12.273,19.559l-0,-10l-10,0l-0,10l10,0Z" style="fill:#b8ec0c;"/><path d="M12.273,29.559l-0,-10l-10,0l-0,10l10,0Z" style="fill:#bef50f;"/><path d="M12.273,39.559l-0,-10l-10,0l-0,10l10,0Z" style="fill:#b8f70d;"/><path d="M12.273,49.559l-0,-10l-10,0l-0,10l10,0Z" style="fill:#baf90a;"/><path d="M12.273,59.559l-0,-10l-10,0l-0,10l10,0Z" style="fill:#b8f809;"/><path d="M12.273,69.559l-0,-10l-10,0l-0,10l10,0Z" style="fill:#b7f207;"/><path d="M12.273,79.559l-0,-10l-10,0l-0,10l10,0Z" style="fill:#baec05;"/><path d="M12.273,89.559l-0,-10l-10,0l-0,10l10,0Z" style="fill:#bde801;"/><path d="M12.273,99.559l-0,-10l-10,0l-0,10l10,0Z" style="fill:#c1e505;"/><path d="M12.273,109.559l-0,-10l-10,0l-0,10l10,0Z" style="fill:#c5de06;"/><path d="M12.273,119.559l-0,-10l-10,0l-0,10l10,0Z" style="fill:#c9dc0b;"/><path d="M12.273,129.559l-0,-10l-10,0l-0,10l10,0Z" style="fill:#ced70d;"/><path d="M12.273,139.559l-0,-10l-10,0l-0,10l10,0Z" style="fill:#d3d410;"/><path d="M12.273,149.559l-0,-10l-10,0l-0,10l10,0Z" style="fill:#d7d114;"/><path d="M12.273,159.559l-0,-10l-10,0l-0,10l10,0Z" style="fill:#dccf19;"/><path d="M12.273,169.559l-0,-10l-10,0l-0,10l10,0Z" style="fill:#e0cb1c;"/><path d="M12.273,179.559l-0,-10l-10,0l-0,10l10,0Z" style="fill:#e4c820;"/><path d="M12.273,189.559l-0,-10l-10,0l-0,10l10,0Z" style="fill:#e8c521;"/><path d="M12.273,199.559l-0,-10l-10,0l-0,10l10,0Z" style="fill:#e9c123;"/><path d="M12.273,209.559l-0,-10l-10,0l-0,10l10,0Z" style="fill:#ebbf27;"/><path d="M12.273,219.559l-0,-10l-10,0l-0,10l10,0Z" style="fill:#edbc29;"/><path d="M12.273,229.559l-0,-10l-10,0l-0,10l10,0Z" style="fill:#eeb828;"/><path d="M12.273,239.559l-0,-10l-10,0l-0,10l10,0Z" style="fill:#eeb629;"/><path d="M12.273,249.559l-0,-10l-10,0l-0,10l10,0Z" style="fill:#efb42b;"/><path d="M12.273,259.559l-0,-10l-10,0l-0,10l10,0Z" style="fill:#f0b32f;"/><path d="M12.273,269.559l-0,-10l-10,0l-0,10l10,0Z" style="fill:#f0b130;"/><path d="M12.273,279.559l-0,-10l-10,0l-0,10l10,0Z" style="fill:#f0b234;"/><path d="M12.273,289.559l-0,-10l-10,0l-0,10l10,0Z" style="fill:#efb033;"/><path d="M12.273,299.559l-0,-10l-10,0l-0,10l10,0Z" style="fill:#f1af35;"/><path d="M12.273,309.559l-0,-10l-10,0l-0,10l10,0Z" style="fill:#f2ae34;"/><path d="M12.273,319.559l-0,-10l-10,0l-0,10l10,0Z" style="fill:#f3ac31;"/><path d="M12.273,329.559l-0,-10l-10,0l-0,10l10,0Z" style="fill:#f5ab31;"/><path d="M12.273,339.559l-0,-10l-10,0l-0,10l10,0Z" style="fill:#f7aa2f;"/><path d="M12.273,349.559l-0,-10l-10,0l-0,10l10,0Z" style="fill:#f8a92d;"/><path d="M12.273,359.559l-0,-10l-10,0l-0,10l10,0Z" style="fill:#f9a72b;"/><path d="M12.273,369.559l-0,-10l-10,0l-0,10l10,0Z" style="fill:#fba628;"/><path d="M12.273,379.559l-0,-10l-10,0l-0,10l10,0Z" style="fill:#fea427;"/><path d="M2.273,-0.441l-0,-10l-10,0l-0,10l10,0Z" style="fill:#b4dc0a;"/><path d="M2.273,9.559l-0,-10l-10,0l-0,10l10,0Z" style="fill:#b3ea0b;"/><path d="M2.273,19.559l-0,-10l-10,0l-0,10l10,0Z" style="fill:#baee0b;"/><path d="M2.273,29.559l-0,-10l-10,0l-0,10l10,0Z" style="fill:#bbf40d;"/><path d="M2.273,39.559l-0,-10l-10,0l-0,10l10,0Z" style="fill:#bff80b;"/><path d="M2.273,49.559l-0,-10l-10,0l-0,10l10,0Z" style="fill:#b6fe0a;"/><path d="M2.273,59.559l-0,-10l-10,0l-0,10l10,0Z" style="fill:#bdf708;"/><path d="M2.273,69.559l-0,-10l-10,0l-0,10l10,0Z" style="fill:#bbf007;"/><path d="M2.273,79.559l-0,-10l-10,0l-0,10l10,0Z" style="fill:#bce900;"/><path d="M2.273,89.559l-0,-10l-10,0l-0,10l10,0Z" style="fill:#bde202;"/><path d="M2.273,99.559l-0,-10l-10,0l-0,10l10,0Z" style="fill:#c2de02;"/><path d="M2.273,109.559l-0,-10l-10,0l-0,10l10,0Z" style="fill:#c4da03;"/><path d="M2.273,119.559l-0,-10l-10,0l-0,10l10,0Z" style="fill:#cad608;"/><path d="M2.273,129.559l-0,-10l-10,0l-0,10l10,0Z" style="fill:#cfd10a;"/><path d="M2.273,139.559l-0,-10l-10,0l-0,10l10,0Z" style="fill:#d4cd0e;"/><path d="M2.273,149.559l-0,-10l-10,0l-0,10l10,0Z" style="fill:#d9ca11;"/><path d="M2.273,159.559l-0,-10l-10,0l-0,10l10,0Z" style="fill:#dec715;"/><path d="M2.273,169.559l-0,-10l-10,0l-0,10l10,0Z" style="fill:#e2c41a;"/><path d="M2.273,179.559l-0,-10l-10,0l-0,10l10,0Z" style="fill:#e6c11d;"/><path d="M2.273,189.559l-0,-10l-10,0l-0,10l10,0Z" style="fill:#eabe21;"/><path d="M2.273,199.559l-0,-10l-10,0l-0,10l10,0Z" style="fill:#ecbb23;"/><path d="M2.273,209.559l-0,-10l-10,0l-0,10l10,0Z" style="fill:#edb725;"/><path d="M2.273,219.559l-0,-10l-10,0l-0,10l10,0Z" style="fill:#eeb226;"/><path d="M2.273,229.559l-0,-10l-10,0l-0,10l10,0Z" style="fill:#f1b029;"/><path d="M2.273,239.559l-0,-10l-10,0l-0,10l10,0Z" style="fill:#f0af2d;"/><path d="M2.273,249.559l-0,-10l-10,0l-0,10l10,0Z" style="fill:#f0ae2f;"/><path d="M2.273,259.559l-0,-10l-10,0l-0,10l10,0Z" style="fill:#f0ab31;"/><path d="M2.273,269.559l-0,-10l-10,0l-0,10l10,0Z" style="fill:#f1aa34;"/><path d="M2.273,279.559l-0,-10l-10,0l-0,10l10,0Z" style="fill:#f1a935;"/><path d="M2.273,289.559l-0,-10l-10,0l-0,10l10,0Z" style="fill:#f2a937;"/><path d="M2.273,299.559l-0,-10l-10,0l-0,10l10,0Z" style="fill:#f3a839;"/><path d="M2.273,309.559l-0,-10l-10,0l-0,10l10,0Z" style="fill:#f3a635;"/><path d="M2.273,319.559l-0,-10l-10,0l-0,10l10,0Z" style="fill:#f5a535;"/><path d="M2.273,329.559l-0,-10l-10,0l-0,10l10,0Z" style="fill:#f7a535;"/><path d="M2.273,339.559l-0,-10l-10,0l-0,10l10,0Z" style="fill:#faa536;"/><path d="M2.273,349.559l-0,-10l-10,0l-0,10l10,0Z" style="fill:#faa333;"/><path d="M2.273,359.559l-0,-10l-10,0l-0,10l10,0Z" style="fill:#faa230;"/><path d="M2.273,369.559l-0,-10l-10,0l-0,10l10,0Z" style="fill:#fba02e;"/><path d="M2.273,379.559l-0,-10l-10,0l-0,10l10,0Z" style="fill:#fda02c;"/></g></g></g></svg>