<?xml version="1.0" encoding="UTF-8" standalone="no"?><!DOCTYPE svg PUBLIC "-//W3C//DTD SVG 1.1//EN" "http://www.w3.org/Graphics/SVG/1.1/DTD/svg11.dtd"><svg width="100%" height="100%" viewBox="0 0 24 24" version="1.1" xmlns="http://www.w3.org/2000/svg" xmlns:xlink="http://www.w3.org/1999/xlink" xml:space="preserve" xmlns:serif="http://www.serif.com/" style="fill-rule:evenodd;clip-rule:evenodd;"><g id="PJ301MAqua"><path id="path7255" d="M12,23.488c-6.336,0 -11.488,-5.152 -11.488,-11.488c0,-6.336 5.152,-11.488 11.488,-11.488c6.336,0 11.488,5.152 11.488,11.488c0,6.336 -5.152,11.488 -11.488,11.488" style="fill:#e6e6e6;fill-rule:nonzero;stroke:#0ef;stroke-width:0.71px;"/><path id="path7261" d="M12,20.274c-4.562,0 -8.273,-3.711 -8.273,-8.274c0,-4.562 3.711,-8.273 8.273,-8.273c4.563,0 8.274,3.711 8.274,8.273c0,4.563 -3.711,8.274 -8.274,8.274" style="fill:#e6e6e6;fill-rule:nonzero;stroke:#0ef;stroke-width:0.71px;"/><path id="path7265" d="M17.102,12c0,2.816 -2.286,5.102 -5.102,5.102c-2.816,0 -5.101,-2.286 -5.101,-5.102c0,-2.816 2.285,-5.101 5.101,-5.101c2.816,0 5.102,2.285 5.102,5.101" style="fill-rule:nonzero;"/></g></svg>