<?xml version="1.0" encoding="UTF-8" standalone="no"?><!DOCTYPE svg PUBLIC "-//W3C//DTD SVG 1.1//EN" "http://www.w3.org/Graphics/SVG/1.1/DTD/svg11.dtd"><svg width="100%" height="100%" viewBox="0 0 90 380" version="1.1" xmlns="http://www.w3.org/2000/svg" xmlns:xlink="http://www.w3.org/1999/xlink" xml:space="preserve" xmlns:serif="http://www.serif.com/" style="fill-rule:evenodd;clip-rule:evenodd;stroke-linejoin:round;stroke-miterlimit:1.5;"><rect id="PolyClock" x="0" y="0" width="90" height="379.559" style="fill:none;"/><clipPath id="_clip1"><rect x="0" y="0" width="90" height="379.559"/></clipPath><g clip-path="url(#_clip1)"><g id="Layer1"><rect id="background" x="0" y="0" width="90" height="379.559" style="fill:#e6e6e6;"/><rect x="34.779" y="333.181" width="20.441" height="23.526" style="fill:#282828;fill-opacity:0.5;"/><rect x="34.779" y="260.05" width="20.441" height="23.526" style="fill:#282828;fill-opacity:0.5;"/><rect x="34.779" y="184.679" width="20.441" height="23.526" style="fill:#282828;fill-opacity:0.5;"/><g id="Logo"><path d="M43.856,368.495l0.718,-0c0.117,-0 0.217,-0.038 0.301,-0.113c0.083,-0.075 0.125,-0.166 0.125,-0.271c0,-0.842 -0.331,-1.56 -0.992,-2.156c-0.661,-0.595 -1.458,-0.893 -2.392,-0.893l-2.958,-0c-0.117,-0 -0.218,0.037 -0.301,0.113c-0.084,0.075 -0.125,0.165 -0.125,0.271l-0,5.335c-0,0.102 0.041,0.191 0.125,0.266c0.083,0.075 0.184,0.113 0.301,0.113l5.916,-0c0.117,-0 0.217,-0.038 0.301,-0.113c0.083,-0.075 0.125,-0.164 0.125,-0.266c0,-0.914 -0.381,-1.676 -1.144,-2.286Zm-0.447,-2c0.384,0.345 0.621,0.756 0.711,1.232l-1.32,-0c-0.09,-0.216 -0.243,-0.392 -0.46,-0.528c-0.217,-0.136 -0.458,-0.204 -0.724,-0.204c-0.352,-0 -0.651,0.112 -0.897,0.335c-0.246,0.224 -0.369,0.492 -0.369,0.805c0,0.317 0.123,0.588 0.369,0.811c0.246,0.224 0.545,0.335 0.897,0.335c0.483,0 0.848,-0.189 1.096,-0.567c0.257,0.114 0.49,0.263 0.697,0.446c0.384,0.345 0.621,0.758 0.711,1.237l-5.042,0l-0,-4.573l2.538,0c0.699,0 1.297,0.224 1.793,0.671Z" style="fill:#8000db;fill-rule:nonzero;"/><path d="M50.773,365.977c-0.658,-0.598 -1.455,-0.897 -2.389,-0.897c-0.934,0 -1.731,0.298 -2.392,0.893c-0.661,0.596 -0.992,1.315 -0.992,2.156l0,2.671c0,0.101 0.042,0.19 0.125,0.265c0.084,0.075 0.182,0.113 0.295,0.113c0.117,-0 0.217,-0.038 0.301,-0.113c0.083,-0.075 0.125,-0.164 0.125,-0.265l0,-2.671c0,-0.63 0.248,-1.169 0.745,-1.616c0.496,-0.447 1.094,-0.671 1.793,-0.671c0.7,0 1.297,0.224 1.794,0.671c0.496,0.447 0.744,0.986 0.744,1.616l0,1.75l-1.394,-1.256c0.081,-0.155 0.122,-0.319 0.122,-0.494c-0,-0.317 -0.123,-0.586 -0.369,-0.808c-0.246,-0.221 -0.545,-0.332 -0.897,-0.332c-0.352,-0 -0.652,0.111 -0.9,0.332c-0.248,0.222 -0.372,0.491 -0.372,0.808c-0,0.317 0.124,0.586 0.372,0.808c0.248,0.221 0.548,0.332 0.9,0.332c0.194,0 0.377,-0.036 0.548,-0.109l2.112,1.908c0.086,0.073 0.185,0.11 0.298,0.11c0.117,-0 0.218,-0.038 0.301,-0.113c0.084,-0.075 0.125,-0.164 0.125,-0.265l0,-2.671c0,-0.841 -0.331,-1.559 -0.995,-2.152Z" style="fill:#2600ff;fill-rule:nonzero;"/><path d="M44.005,372.056c-0.659,-0.598 -1.455,-0.896 -2.389,-0.896l-2.965,-0c-0.113,-0 -0.211,0.037 -0.294,0.112c-0.084,0.076 -0.125,0.166 -0.125,0.272l-0,5.329c-0,0.106 0.041,0.196 0.125,0.271c0.083,0.076 0.181,0.113 0.294,0.113c0.118,0 0.218,-0.037 0.301,-0.113c0.084,-0.075 0.126,-0.165 0.126,-0.271l-0,-4.951l2.538,-0c0.699,-0 1.297,0.223 1.793,0.67c0.497,0.448 0.745,0.986 0.745,1.616l-0,1.75l-1.394,-1.256c0.081,-0.154 0.121,-0.319 0.121,-0.494c0,-0.317 -0.122,-0.587 -0.368,-0.811c-0.246,-0.223 -0.545,-0.335 -0.897,-0.335c-0.352,0 -0.652,0.112 -0.9,0.335c-0.249,0.224 -0.373,0.494 -0.373,0.811c0,0.317 0.124,0.587 0.373,0.808c0.248,0.222 0.548,0.333 0.9,0.333c0.194,-0 0.377,-0.037 0.548,-0.11l2.112,1.908c0.086,0.074 0.185,0.11 0.298,0.11c0.117,0 0.217,-0.037 0.301,-0.113c0.083,-0.075 0.125,-0.165 0.125,-0.271l0,-2.665c0,-0.841 -0.332,-1.559 -0.995,-2.152Z" style="fill:#0ef;fill-rule:nonzero;"/><path d="M51.342,373.83l-1.739,0c-0.095,-0.219 -0.25,-0.396 -0.464,-0.53c-0.214,-0.134 -0.455,-0.201 -0.721,-0.201c-0.352,-0 -0.652,0.11 -0.9,0.332c-0.248,0.221 -0.372,0.491 -0.372,0.808c-0,0.317 0.124,0.587 0.372,0.811c0.248,0.223 0.548,0.335 0.9,0.335c0.28,0 0.53,-0.074 0.751,-0.222c0.221,-0.149 0.373,-0.341 0.454,-0.577l1.299,0l0,1.909l-2.538,-0c-0.699,-0 -1.297,-0.224 -1.793,-0.671c-0.497,-0.447 -0.745,-0.986 -0.745,-1.616c0,-0.63 0.248,-1.168 0.745,-1.616c0.496,-0.447 1.094,-0.67 1.793,-0.67l2.958,-0c0.117,-0 0.218,-0.038 0.301,-0.113c0.084,-0.075 0.125,-0.164 0.125,-0.265c0,-0.106 -0.041,-0.196 -0.125,-0.272c-0.083,-0.075 -0.184,-0.112 -0.301,-0.112l-2.958,-0c-0.934,-0 -1.731,0.297 -2.392,0.893c-0.661,0.595 -0.992,1.314 -0.992,2.155c0,0.842 0.331,1.56 0.992,2.156c0.661,0.595 1.458,0.893 2.392,0.893l2.958,0c0.117,0 0.218,-0.037 0.301,-0.113c0.084,-0.075 0.125,-0.165 0.125,-0.271l0,-2.665c0,-0.105 -0.041,-0.195 -0.125,-0.268c-0.083,-0.073 -0.184,-0.11 -0.301,-0.11Z" style="fill:#f00;fill-rule:nonzero;"/></g><g><path d="M26.194,288.009l-2.124,0l-0,6.24l-0.796,0l-0,-6.24l-2.134,0l0,-0.649l5.054,-0l-0,0.649Z" style="fill-rule:nonzero;"/><path d="M31.643,292.081c0,0.798 -0.162,1.381 -0.486,1.748c-0.324,0.368 -0.816,0.552 -1.477,0.552c-1.331,0 -1.997,-0.76 -1.997,-2.28l0,-4.741l0.801,-0l-0,4.668c-0,1.1 0.399,1.65 1.196,1.65c0.401,0 0.694,-0.13 0.882,-0.391c0.187,-0.26 0.28,-0.683 0.28,-1.269l0,-4.658l0.801,-0l0,4.721Z" style="fill-rule:nonzero;"/><path d="M33.914,287.36l1.748,-0c0.66,-0 1.189,0.166 1.587,0.498c0.397,0.332 0.595,0.789 0.595,1.372c0,0.586 -0.198,1.054 -0.593,1.404c-0.396,0.35 -0.914,0.525 -1.555,0.525l-0.982,-0l0,3.09l-0.8,0l-0,-6.889Zm0.8,3.1l0.869,0c0.941,0 1.412,-0.394 1.412,-1.181c-0,-0.365 -0.128,-0.66 -0.384,-0.884c-0.255,-0.225 -0.585,-0.337 -0.988,-0.337l-0.909,-0l0,2.402Z" style="fill-rule:nonzero;"/><path d="M43.665,294.249l-3.75,0l-0,-6.889l0.8,-0l0,6.191l2.95,0l-0,0.698Z" style="fill-rule:nonzero;"/><path d="M49.514,294.249l-3.598,0l-0,-6.889l3.569,-0l-0,0.698l-2.769,-0l0,2.134l2.661,-0l0,0.698l-2.661,-0l0,2.661l2.798,0l0,0.698Z" style="fill-rule:nonzero;"/><path d="M56.199,288.009l-2.124,0l-0,6.24l-0.796,0l-0,-6.24l-2.134,0l0,-0.649l5.054,-0l-0,0.649Z" style="fill-rule:nonzero;"/><path d="M66.096,290.548c0.42,0.117 0.757,0.331 1.011,0.642c0.254,0.311 0.381,0.66 0.381,1.048c-0,0.605 -0.236,1.114 -0.708,1.526c-0.472,0.411 -1.029,0.617 -1.67,0.617c-0.547,0 -1.037,-0.12 -1.47,-0.361l0.156,-0.659c0.453,0.211 0.9,0.317 1.343,0.317c0.417,0 0.772,-0.129 1.067,-0.388c0.295,-0.259 0.442,-0.592 0.442,-0.999c-0,-0.4 -0.158,-0.726 -0.474,-0.976c-0.315,-0.251 -0.734,-0.376 -1.255,-0.376l-0.21,-0l0,-0.659l0.059,-0c0.501,-0 0.915,-0.118 1.24,-0.354c0.326,-0.236 0.489,-0.555 0.489,-0.955c-0,-0.325 -0.118,-0.58 -0.352,-0.764c-0.234,-0.184 -0.557,-0.276 -0.967,-0.276c-0.355,0 -0.752,0.096 -1.191,0.288l-0.108,-0.688c0.443,-0.202 0.889,-0.303 1.338,-0.303c0.616,-0 1.123,0.162 1.521,0.486c0.399,0.324 0.598,0.739 0.598,1.247c0,0.352 -0.121,0.68 -0.363,0.984c-0.243,0.305 -0.535,0.496 -0.877,0.574l0,0.029Z" style="fill-rule:nonzero;"/></g><g><path d="M31.256,39.17c-0.756,0.524 -1.633,0.786 -2.631,0.786c-1.249,0 -2.198,-0.428 -2.848,-1.285c-0.649,-0.857 -0.974,-2.096 -0.974,-3.719c0,-1.568 0.315,-2.795 0.944,-3.681c0.628,-0.886 1.588,-1.33 2.878,-1.33c0.464,0 0.925,0.06 1.38,0.178c0.456,0.119 0.823,0.276 1.101,0.472l-0.369,0.882c-0.643,-0.365 -1.347,-0.547 -2.112,-0.547c-0.889,-0 -1.55,0.322 -1.983,0.967c-0.433,0.645 -0.649,1.665 -0.649,3.059c-0,2.68 0.877,4.02 2.632,4.02c0.742,-0 1.503,-0.228 2.283,-0.684l0.348,0.882Z" style="fill:#8000db;fill-rule:nonzero;"/><path d="M38.776,39.771l-2.912,0l-0,-8.722l-1.86,-0l0,-0.923l2.926,-0l0,8.723l1.846,-0l-0,0.922Z" style="fill:#8000db;fill-rule:nonzero;"/><path d="M44.935,32.478c0.98,-0 1.759,0.341 2.338,1.025c0.579,0.684 0.868,1.584 0.868,2.7c0,1.126 -0.289,2.033 -0.868,2.721c-0.579,0.688 -1.358,1.032 -2.338,1.032c-0.984,0 -1.765,-0.343 -2.341,-1.029c-0.577,-0.686 -0.865,-1.594 -0.865,-2.724c0,-1.121 0.289,-2.022 0.868,-2.703c0.579,-0.682 1.358,-1.022 2.338,-1.022Zm0,6.548c0.647,0 1.158,-0.273 1.531,-0.82c0.374,-0.547 0.561,-1.21 0.561,-1.989c-0,-0.821 -0.185,-1.495 -0.554,-2.024c-0.369,-0.528 -0.882,-0.793 -1.538,-0.793c-0.661,0 -1.173,0.261 -1.538,0.783c-0.365,0.522 -0.547,1.2 -0.547,2.034c0,0.793 0.185,1.459 0.554,1.999c0.369,0.54 0.879,0.81 1.531,0.81Z" style="fill:#8000db;fill-rule:nonzero;"/><path d="M56.071,39.532c-0.62,0.283 -1.301,0.424 -2.044,0.424c-1.121,0 -2.016,-0.341 -2.683,-1.022c-0.668,-0.681 -1.002,-1.587 -1.002,-2.717c0,-1.13 0.336,-2.036 1.009,-2.717c0.672,-0.682 1.555,-1.022 2.649,-1.022c0.715,-0 1.396,0.125 2.043,0.376l-0.28,0.881c-0.647,-0.223 -1.23,-0.335 -1.75,-0.335c-0.784,0 -1.405,0.253 -1.863,0.759c-0.458,0.506 -0.687,1.192 -0.687,2.058c0,0.793 0.237,1.459 0.711,1.999c0.474,0.54 1.092,0.81 1.853,0.81c0.601,0 1.221,-0.116 1.859,-0.348l0.185,0.854Z" style="fill:#8000db;fill-rule:nonzero;"/><path d="M65.197,39.771l-1.402,0l-3.021,-3.541l-0.697,0.602l-0,2.939l-1.067,0l0,-9.645l1.067,-0l-0,5.53l3.342,-3.008l1.361,0l-3.247,2.913l3.664,4.21Z" style="fill:#8000db;fill-rule:nonzero;"/></g><g><path d="M4.682,18.906l2.447,-0c0.925,-0 1.666,0.232 2.222,0.697c0.556,0.465 0.834,1.105 0.834,1.921c-0,0.82 -0.277,1.476 -0.831,1.965c-0.554,0.49 -1.279,0.735 -2.177,0.735l-1.374,0l-0,4.327l-1.121,0l-0,-9.645Zm1.121,4.341l1.217,-0c1.317,-0 1.975,-0.552 1.975,-1.655c0,-0.51 -0.179,-0.922 -0.537,-1.237c-0.357,-0.314 -0.819,-0.471 -1.384,-0.471l-1.271,-0l-0,3.363Z" style="fill:#8000db;fill-rule:nonzero;"/><path d="M15.53,21.258c0.98,-0 1.759,0.341 2.338,1.025c0.579,0.684 0.868,1.584 0.868,2.7c0,1.126 -0.289,2.033 -0.868,2.721c-0.579,0.688 -1.358,1.032 -2.338,1.032c-0.984,0 -1.765,-0.343 -2.341,-1.029c-0.577,-0.686 -0.865,-1.594 -0.865,-2.724c0,-1.121 0.29,-2.022 0.868,-2.703c0.579,-0.682 1.358,-1.022 2.338,-1.022Zm0,6.548c0.647,0 1.158,-0.273 1.532,-0.82c0.373,-0.547 0.56,-1.21 0.56,-1.989c0,-0.821 -0.184,-1.495 -0.554,-2.024c-0.369,-0.528 -0.881,-0.793 -1.538,-0.793c-0.661,0 -1.173,0.261 -1.538,0.783c-0.364,0.522 -0.547,1.2 -0.547,2.034c0,0.793 0.185,1.459 0.554,1.999c0.369,0.54 0.88,0.81 1.531,0.81Z" style="fill:#8000db;fill-rule:nonzero;"/><path d="M26.174,28.551l-2.912,0l-0,-8.722l-1.86,-0l0,-0.923l2.926,-0l0,8.723l1.846,-0l-0,0.922Z" style="fill:#8000db;fill-rule:nonzero;"/><path d="M35.416,21.428l-2.7,7.123c-0.392,1.049 -0.781,1.78 -1.166,2.195c-0.385,0.415 -0.823,0.622 -1.316,0.622c-0.437,-0 -0.87,-0.08 -1.298,-0.239l0.177,-0.855c0.347,0.11 0.657,0.164 0.93,0.164c0.383,0 0.697,-0.148 0.943,-0.444c0.246,-0.296 0.495,-0.782 0.745,-1.456l-2.672,-7.11l1.162,0l2.016,5.681l2.017,-5.681l1.162,0Z" style="fill:#8000db;fill-rule:nonzero;"/><path d="M43.605,21.62l-0.43,1.025c-0.47,-0.205 -0.875,-0.307 -1.217,-0.307c-0.314,-0 -0.622,0.09 -0.923,0.27c-0.301,0.18 -0.577,0.437 -0.83,0.772c-0.253,0.335 -0.38,0.523 -0.38,0.564l0,4.607l-1.059,0l-0,-7.123l1.059,0l0,1.443c0.57,-1.076 1.308,-1.613 2.215,-1.613c0.538,-0 1.06,0.12 1.565,0.362Z" style="fill:#8000db;fill-rule:nonzero;"/><path d="M51.897,28.551l-1.066,0l0,-4.566c0,-0.633 -0.101,-1.093 -0.304,-1.377c-0.203,-0.285 -0.521,-0.428 -0.954,-0.428c-0.651,0 -1.351,0.406 -2.098,1.217l-0,5.154l-1.067,0l0,-9.645l1.067,-0l-0,3.568c0.765,-0.811 1.572,-1.216 2.42,-1.216c1.335,-0 2.002,0.806 2.002,2.419l0,4.874Z" style="fill:#8000db;fill-rule:nonzero;"/><path d="M60.62,21.428l-2.7,7.123c-0.392,1.049 -0.781,1.78 -1.166,2.195c-0.385,0.415 -0.823,0.622 -1.316,0.622c-0.437,-0 -0.87,-0.08 -1.298,-0.239l0.177,-0.855c0.347,0.11 0.657,0.164 0.93,0.164c0.383,0 0.697,-0.148 0.943,-0.444c0.247,-0.296 0.495,-0.782 0.746,-1.456l-2.673,-7.11l1.162,0l2.016,5.681l2.017,-5.681l1.162,0Z" style="fill:#8000db;fill-rule:nonzero;"/><path d="M68.769,28.23c-0.716,0.328 -1.42,0.492 -2.113,0.492c-1.271,0 -1.907,-0.672 -1.907,-2.016l0,-4.355l-1.367,0l-0,-0.923l1.367,0l0,-1.948l1.039,0l0,1.948l2.42,0l0,0.923l-2.42,0l0,4.075c0,0.432 0.096,0.769 0.287,1.008c0.192,0.239 0.451,0.359 0.779,0.359c0.584,-0 1.16,-0.13 1.73,-0.39l0.185,0.827Z" style="fill:#8000db;fill-rule:nonzero;"/><path d="M77.102,28.551l-1.067,0l0,-4.566c0,-0.633 -0.101,-1.093 -0.304,-1.377c-0.203,-0.285 -0.521,-0.428 -0.954,-0.428c-0.651,0 -1.351,0.406 -2.098,1.217l-0,5.154l-1.067,0l0,-9.645l1.067,-0l-0,3.568c0.765,-0.811 1.572,-1.216 2.42,-1.216c1.335,-0 2.003,0.806 2.003,2.419l-0,4.874Z" style="fill:#8000db;fill-rule:nonzero;"/><path d="M86.063,28.551l-1.066,0l0,-4.675c0,-1.131 -0.21,-1.696 -0.629,-1.696c-0.214,0 -0.45,0.195 -0.707,0.585c-0.258,0.39 -0.387,0.605 -0.387,0.646l0,5.14l-1.059,0l-0,-4.675c-0,-1.131 -0.212,-1.696 -0.636,-1.696c-0.21,0 -0.443,0.195 -0.701,0.585c-0.257,0.39 -0.386,0.605 -0.386,0.646l0,5.14l-1.066,0l-0,-7.123l1.025,0l0,1.074c0.201,-0.379 0.439,-0.68 0.715,-0.906c0.275,-0.226 0.55,-0.338 0.823,-0.338c0.287,-0 0.545,0.112 0.773,0.338c0.228,0.226 0.385,0.527 0.471,0.906c0.201,-0.379 0.44,-0.68 0.718,-0.906c0.278,-0.226 0.552,-0.338 0.82,-0.338c0.862,-0 1.292,0.77 1.292,2.31l0,4.983Z" style="fill:#8000db;fill-rule:nonzero;"/></g><g><path d="M26.895,215.682l-2.124,0l-0,6.24l-0.796,0l-0,-6.24l-2.134,0l-0,-0.649l5.054,-0l-0,0.649Z" style="fill-rule:nonzero;"/><path d="M32.344,219.754c-0,0.798 -0.162,1.381 -0.486,1.748c-0.324,0.368 -0.816,0.552 -1.477,0.552c-1.332,0 -1.997,-0.76 -1.997,-2.28l-0,-4.741l0.801,-0l-0,4.668c-0,1.1 0.398,1.65 1.196,1.65c0.4,0 0.694,-0.13 0.881,-0.391c0.187,-0.26 0.281,-0.683 0.281,-1.269l-0,-4.658l0.801,-0l-0,4.721Z" style="fill-rule:nonzero;"/><path d="M34.614,215.033l1.748,-0c0.661,-0 1.19,0.166 1.587,0.498c0.397,0.332 0.596,0.789 0.596,1.372c-0,0.586 -0.198,1.054 -0.593,1.404c-0.396,0.35 -0.914,0.525 -1.556,0.525l-0.981,-0l0,3.09l-0.801,0l0,-6.889Zm0.801,3.1l0.869,0c0.941,0 1.411,-0.394 1.411,-1.181c0,-0.365 -0.127,-0.659 -0.383,-0.884c-0.256,-0.225 -0.585,-0.337 -0.989,-0.337l-0.908,-0l0,2.402Z" style="fill-rule:nonzero;"/><path d="M44.365,221.922l-3.75,0l0,-6.889l0.801,-0l0,6.191l2.949,0l0,0.698Z" style="fill-rule:nonzero;"/><path d="M50.215,221.922l-3.599,0l0,-6.889l3.57,-0l-0,0.698l-2.769,-0l-0,2.134l2.661,-0l0,0.698l-2.661,0l-0,2.661l2.798,0l-0,0.698Z" style="fill-rule:nonzero;"/><path d="M56.899,215.682l-2.124,0l0,6.24l-0.796,0l0,-6.24l-2.133,0l-0,-0.649l5.053,-0l0,0.649Z" style="fill-rule:nonzero;"/><path d="M68.159,221.922l-3.789,0l0,-0.581c0.96,-1.071 1.584,-1.788 1.87,-2.153c0.287,-0.365 0.519,-0.747 0.698,-1.147c0.18,-0.401 0.269,-0.8 0.269,-1.197c0,-0.384 -0.116,-0.687 -0.349,-0.908c-0.233,-0.221 -0.559,-0.332 -0.979,-0.332c-0.322,0 -0.755,0.099 -1.299,0.298l-0.112,-0.689c0.491,-0.208 1.006,-0.312 1.543,-0.312c0.615,-0 1.111,0.173 1.487,0.52c0.376,0.347 0.564,0.81 0.564,1.389c-0,0.413 -0.097,0.824 -0.291,1.231c-0.194,0.406 -0.442,0.797 -0.745,1.171c-0.302,0.375 -0.892,1.045 -1.767,2.012l2.9,0l0,0.698Z" style="fill-rule:nonzero;"/></g><g><path d="M26.223,138.012l-2.124,-0l0,6.24l-0.796,0l0,-6.24l-2.134,-0l0,-0.65l5.054,0l0,0.65Z" style="fill-rule:nonzero;"/><path d="M31.672,142.084c0,0.798 -0.162,1.38 -0.485,1.748c-0.324,0.368 -0.817,0.552 -1.478,0.552c-1.331,-0 -1.997,-0.76 -1.997,-2.28l0,-4.742l0.801,0l0,4.668c0,1.101 0.399,1.651 1.196,1.651c0.401,-0 0.695,-0.13 0.882,-0.391c0.187,-0.26 0.281,-0.683 0.281,-1.269l-0,-4.659l0.8,0l0,4.722Z" style="fill-rule:nonzero;"/><path d="M33.943,137.362l1.748,0c0.661,0 1.19,0.166 1.587,0.498c0.397,0.333 0.596,0.79 0.596,1.373c-0,0.586 -0.198,1.053 -0.594,1.403c-0.395,0.35 -0.914,0.525 -1.555,0.525l-0.981,0l-0,3.091l-0.801,0l-0,-6.89Zm0.801,3.101l0.869,0c0.941,0 1.411,-0.394 1.411,-1.182c-0,-0.364 -0.128,-0.659 -0.383,-0.883c-0.256,-0.225 -0.585,-0.337 -0.989,-0.337l-0.908,-0l-0,2.402Z" style="fill-rule:nonzero;"/><path d="M43.694,144.252l-3.75,0l-0,-6.89l0.801,0l-0,6.192l2.949,-0l-0,0.698Z" style="fill-rule:nonzero;"/><path d="M49.543,144.252l-3.598,0l-0,-6.89l3.569,0l0,0.699l-2.768,-0l-0,2.133l2.661,0l-0,0.699l-2.661,-0l-0,2.661l2.797,-0l0,0.698Z" style="fill-rule:nonzero;"/><path d="M56.228,138.012l-2.124,-0l0,6.24l-0.796,0l0,-6.24l-2.134,-0l0,-0.65l5.054,0l0,0.65Z" style="fill-rule:nonzero;"/><path d="M67.668,144.252l-3.623,0l0,-0.698l1.46,-0l0,-5.352l-1.377,0.689l0,-0.801l1.49,-0.767l0.688,0l0,6.231l1.362,-0l0,0.698Z" style="fill-rule:nonzero;"/></g><text x="29.619px" y="160.196px" style="font-family:'ArialMT', 'Arial', sans-serif;font-size:12px;">13:10</text><text x="29.619px" y="235.567px" style="font-family:'ArialMT', 'Arial', sans-serif;font-size:12px;">13:10</text><text x="29.619px" y="308.698px" style="font-family:'ArialMT', 'Arial', sans-serif;font-size:12px;">13:10</text><text x="13.312px" y="103.523px" style="font-family:'PTMono-Regular', 'PT Mono', monospace;font-size:15px;fill:#8000db;">120 BPM</text><g><path d="M65.512,65.206l-3.599,0l0,-6.889l3.569,-0l0,0.698l-2.768,-0l-0,2.134l2.661,-0l-0,0.698l-2.661,0l-0,2.661l2.798,0l-0,0.698Z" style="fill-rule:nonzero;"/><path d="M72.343,65.206l-0.889,0l-1.748,-2.822l-1.733,2.822l-0.889,0l2.202,-3.51l-2.192,-3.379l0.918,-0l1.694,2.729l1.709,-2.729l0.879,-0l-2.158,3.379l2.207,3.51Z" style="fill-rule:nonzero;"/><path d="M78.197,58.966l-2.124,0l0,6.24l-0.796,0l0,-6.24l-2.133,0l-0,-0.649l5.053,-0l0,0.649Z" style="fill-rule:nonzero;"/></g><g><path d="M16.4,65.075l-1.001,-0l-2.022,-3.13l-0.888,-0l-0,3.13l-0.801,-0l-0,-6.89l1.948,-0c0.655,-0 1.171,0.159 1.551,0.476c0.379,0.317 0.568,0.759 0.568,1.326c0,0.42 -0.138,0.793 -0.415,1.12c-0.276,0.327 -0.657,0.55 -1.142,0.667l2.202,3.301Zm-3.911,-3.829l1.011,0c0.423,0 0.766,-0.114 1.03,-0.344c0.263,-0.229 0.395,-0.518 0.395,-0.867c0,-0.768 -0.468,-1.152 -1.406,-1.152l-1.03,0l-0,2.363Z" style="fill-rule:nonzero;"/><path d="M21.136,58.947c-0.41,-0.14 -0.799,-0.21 -1.167,-0.21c-0.416,-0 -0.756,0.095 -1.018,0.285c-0.262,0.191 -0.393,0.462 -0.393,0.813c0,0.417 0.344,0.783 1.03,1.099c0.508,0.234 0.844,0.397 1.009,0.488c0.164,0.091 0.331,0.217 0.5,0.376c0.169,0.16 0.305,0.348 0.408,0.564c0.102,0.217 0.154,0.46 0.154,0.73c-0,0.671 -0.226,1.191 -0.677,1.56c-0.45,0.37 -0.982,0.554 -1.594,0.554c-0.592,0 -1.111,-0.117 -1.557,-0.351l0.166,-0.689c0.524,0.238 0.981,0.357 1.372,0.357c0.455,-0 0.821,-0.118 1.096,-0.354c0.275,-0.236 0.412,-0.561 0.412,-0.974c0,-0.306 -0.089,-0.566 -0.268,-0.779c-0.179,-0.213 -0.51,-0.431 -0.991,-0.652c-0.495,-0.228 -0.815,-0.383 -0.96,-0.466c-0.145,-0.083 -0.289,-0.198 -0.432,-0.345c-0.143,-0.146 -0.254,-0.31 -0.332,-0.493c-0.078,-0.182 -0.117,-0.381 -0.117,-0.595c-0,-0.57 0.205,-1.014 0.615,-1.333c0.41,-0.319 0.929,-0.479 1.558,-0.479c0.459,0 0.914,0.07 1.367,0.21l-0.181,0.684Z" style="fill-rule:nonzero;"/><path d="M28.202,58.834l-2.124,0l-0,6.241l-0.796,-0l-0,-6.241l-2.134,0l-0,-0.649l5.054,-0l-0,0.649Z" style="fill-rule:nonzero;"/></g><path d="M19.945,195.773l-0,-22.056" style="fill:none;stroke:#000;stroke-width:1px;"/><path d="M70.055,195.773l0,-22.056" style="fill:none;stroke:#000;stroke-width:1px;"/><path d="M19.945,271.145l-0,-22.056" style="fill:none;stroke:#000;stroke-width:1px;"/><path d="M70.055,271.145l0,-22.056" style="fill:none;stroke:#000;stroke-width:1px;"/><path d="M19.945,344.275l-0,-22.056" style="fill:none;stroke:#000;stroke-width:1px;"/><path d="M70.055,344.275l0,-22.056" style="fill:none;stroke:#000;stroke-width:1px;"/><path d="M88.228,155.945c-0,-11.929 -9.685,-21.614 -21.614,-21.614l-43.228,0c-11.929,0 -21.614,9.685 -21.614,21.614l0,205.232l86.456,-0l-0,-205.232Z" style="fill:none;stroke:#2600ff;stroke-width:1px;stroke-linejoin:miter;"/><path d="M85.66,228.58c-0,-11.245 -9.13,-20.376 -20.376,-20.376l-61.128,0l0,150.635l81.504,0l-0,-130.259Z" style="fill:none;stroke:#0ef;stroke-width:1px;stroke-linejoin:miter;"/><path d="M83.323,283.576l-58.363,-0c-10.091,-0 -18.283,8.192 -18.283,18.283l0,54.847l76.646,0l-0,-73.13Z" style="fill:none;stroke:#f00;stroke-width:1px;stroke-linejoin:miter;"/></g></g></svg>