<?xml version="1.0" encoding="UTF-8" standalone="no"?><!DOCTYPE svg PUBLIC "-//W3C//DTD SVG 1.1//EN" "http://www.w3.org/Graphics/SVG/1.1/DTD/svg11.dtd"><svg width="100%" height="100%" viewBox="0 0 90 380" version="1.1" xmlns="http://www.w3.org/2000/svg" xmlns:xlink="http://www.w3.org/1999/xlink" xml:space="preserve" xmlns:serif="http://www.serif.com/" style="fill-rule:evenodd;clip-rule:evenodd;stroke-linejoin:round;stroke-miterlimit:2;"><rect id="PolyClock" x="0" y="0" width="90" height="379.559" style="fill:none;"/><clipPath id="_clip1"><rect x="0" y="0" width="90" height="379.559"/></clipPath><g clip-path="url(#_clip1)"><g id="Layer1"><rect id="background" x="0" y="0" width="90" height="379.559" style="fill:#e6e6e6;"/><rect x="4.599" y="142.875" width="80.802" height="224.481" style="fill-opacity:0.15;"/><rect x="4.599" y="220.149" width="80.802" height="147.208" style="fill-opacity:0.15;"/><g><path d="M26.194,296.553l-2.124,0l-0,6.241l-0.796,-0l-0,-6.241l-2.134,0l0,-0.649l5.054,-0l-0,0.649Z" style="fill-rule:nonzero;"/><path d="M31.643,300.626c0,0.797 -0.162,1.38 -0.486,1.748c-0.324,0.368 -0.816,0.551 -1.477,0.551c-1.331,0 -1.997,-0.76 -1.997,-2.28l0,-4.741l0.801,-0l-0,4.668c-0,1.1 0.399,1.65 1.196,1.65c0.401,0 0.694,-0.13 0.882,-0.39c0.187,-0.261 0.28,-0.684 0.28,-1.27l0,-4.658l0.801,-0l0,4.722Z" style="fill-rule:nonzero;"/><path d="M33.914,295.904l1.748,-0c0.66,-0 1.189,0.166 1.587,0.498c0.397,0.332 0.595,0.789 0.595,1.372c0,0.586 -0.198,1.054 -0.593,1.404c-0.396,0.35 -0.914,0.525 -1.555,0.525l-0.982,-0l0,3.091l-0.8,-0l-0,-6.89Zm0.8,3.101l0.869,-0c0.941,-0 1.412,-0.394 1.412,-1.182c-0,-0.365 -0.128,-0.659 -0.384,-0.884c-0.255,-0.224 -0.585,-0.337 -0.988,-0.337l-0.909,0l0,2.403Z" style="fill-rule:nonzero;"/><path d="M43.665,302.794l-3.75,-0l-0,-6.89l0.8,-0l0,6.191l2.95,0l-0,0.699Z" style="fill-rule:nonzero;"/><path d="M49.514,302.794l-3.598,-0l-0,-6.89l3.569,-0l-0,0.698l-2.769,0l0,2.134l2.661,0l0,0.698l-2.661,0l0,2.661l2.798,0l0,0.699Z" style="fill-rule:nonzero;"/><path d="M56.199,296.553l-2.124,0l-0,6.241l-0.796,-0l-0,-6.241l-2.134,0l0,-0.649l5.054,-0l-0,0.649Z" style="fill-rule:nonzero;"/><path d="M66.096,299.092c0.42,0.118 0.757,0.332 1.011,0.643c0.254,0.31 0.381,0.66 0.381,1.047c-0,0.605 -0.236,1.114 -0.708,1.526c-0.472,0.412 -1.029,0.617 -1.67,0.617c-0.547,0 -1.037,-0.12 -1.47,-0.361l0.156,-0.659c0.453,0.212 0.9,0.317 1.343,0.317c0.417,0 0.772,-0.129 1.067,-0.388c0.295,-0.259 0.442,-0.591 0.442,-0.998c-0,-0.401 -0.158,-0.726 -0.474,-0.977c-0.315,-0.251 -0.734,-0.376 -1.255,-0.376l-0.21,0l0,-0.659l0.059,-0c0.501,-0 0.915,-0.118 1.24,-0.354c0.326,-0.236 0.489,-0.554 0.489,-0.955c-0,-0.325 -0.118,-0.58 -0.352,-0.764c-0.234,-0.184 -0.557,-0.276 -0.967,-0.276c-0.355,0 -0.752,0.096 -1.191,0.288l-0.108,-0.688c0.443,-0.202 0.889,-0.303 1.338,-0.303c0.616,0 1.123,0.162 1.521,0.486c0.399,0.324 0.598,0.74 0.598,1.248c0,0.351 -0.121,0.679 -0.363,0.983c-0.243,0.305 -0.535,0.496 -0.877,0.574l0,0.029Z" style="fill-rule:nonzero;"/></g><rect x="4.599" y="292.12" width="80.802" height="75.237" style="fill-opacity:0.15;"/><g><path d="M31.256,33.29c-0.756,0.524 -1.633,0.786 -2.631,0.786c-1.249,-0 -2.198,-0.429 -2.848,-1.285c-0.649,-0.857 -0.974,-2.097 -0.974,-3.719c0,-1.568 0.315,-2.795 0.944,-3.681c0.628,-0.887 1.588,-1.33 2.878,-1.33c0.464,0 0.925,0.059 1.38,0.178c0.456,0.118 0.823,0.276 1.101,0.472l-0.369,0.881c-0.643,-0.364 -1.347,-0.546 -2.112,-0.546c-0.889,-0 -1.55,0.322 -1.983,0.967c-0.433,0.645 -0.649,1.664 -0.649,3.059c-0,2.68 0.877,4.019 2.632,4.019c0.742,0 1.503,-0.227 2.283,-0.683l0.348,0.882Z" style="fill:#8000db;fill-rule:nonzero;"/><path d="M38.776,33.891l-2.912,0l-0,-8.722l-1.86,-0l0,-0.923l2.926,-0l0,8.722l1.846,0l-0,0.923Z" style="fill:#8000db;fill-rule:nonzero;"/><path d="M44.935,26.597c0.98,0 1.759,0.342 2.338,1.026c0.579,0.683 0.868,1.583 0.868,2.7c0,1.126 -0.289,2.032 -0.868,2.721c-0.579,0.688 -1.358,1.032 -2.338,1.032c-0.984,-0 -1.765,-0.343 -2.341,-1.029c-0.577,-0.686 -0.865,-1.594 -0.865,-2.724c0,-1.121 0.289,-2.022 0.868,-2.704c0.579,-0.681 1.358,-1.022 2.338,-1.022Zm0,6.549c0.647,0 1.158,-0.273 1.531,-0.82c0.374,-0.547 0.561,-1.21 0.561,-1.989c-0,-0.821 -0.185,-1.495 -0.554,-2.024c-0.369,-0.528 -0.882,-0.793 -1.538,-0.793c-0.661,0 -1.173,0.261 -1.538,0.783c-0.365,0.522 -0.547,1.2 -0.547,2.034c0,0.793 0.185,1.459 0.554,1.999c0.369,0.54 0.879,0.81 1.531,0.81Z" style="fill:#8000db;fill-rule:nonzero;"/><path d="M56.071,33.652c-0.62,0.283 -1.301,0.424 -2.044,0.424c-1.121,-0 -2.016,-0.341 -2.683,-1.022c-0.668,-0.681 -1.002,-1.587 -1.002,-2.717c0,-1.131 0.336,-2.036 1.009,-2.718c0.672,-0.681 1.555,-1.022 2.649,-1.022c0.715,0 1.396,0.126 2.043,0.376l-0.28,0.882c-0.647,-0.223 -1.23,-0.335 -1.75,-0.335c-0.784,0 -1.405,0.253 -1.863,0.759c-0.458,0.506 -0.687,1.192 -0.687,2.058c0,0.793 0.237,1.459 0.711,1.999c0.474,0.54 1.092,0.81 1.853,0.81c0.601,0 1.221,-0.116 1.859,-0.348l0.185,0.854Z" style="fill:#8000db;fill-rule:nonzero;"/><path d="M65.197,33.891l-1.402,0l-3.021,-3.541l-0.697,0.602l-0,2.939l-1.067,0l0,-9.645l1.067,-0l-0,5.53l3.342,-3.008l1.361,0l-3.247,2.912l3.664,4.211Z" style="fill:#8000db;fill-rule:nonzero;"/></g><g><path d="M4.682,13.026l2.447,-0c0.925,-0 1.666,0.232 2.222,0.697c0.556,0.465 0.834,1.105 0.834,1.921c-0,0.82 -0.277,1.475 -0.831,1.965c-0.554,0.49 -1.279,0.735 -2.177,0.735l-1.374,0l-0,4.327l-1.121,0l-0,-9.645Zm1.121,4.341l1.217,-0c1.317,-0 1.975,-0.552 1.975,-1.655c0,-0.51 -0.179,-0.923 -0.537,-1.237c-0.357,-0.314 -0.819,-0.472 -1.384,-0.472l-1.271,0l-0,3.364Z" style="fill:#8000db;fill-rule:nonzero;"/><path d="M15.53,15.377c0.98,0 1.759,0.342 2.338,1.026c0.579,0.683 0.868,1.583 0.868,2.7c0,1.126 -0.289,2.032 -0.868,2.721c-0.579,0.688 -1.358,1.032 -2.338,1.032c-0.984,-0 -1.765,-0.343 -2.341,-1.029c-0.577,-0.686 -0.865,-1.594 -0.865,-2.724c0,-1.121 0.29,-2.022 0.868,-2.704c0.579,-0.681 1.358,-1.022 2.338,-1.022Zm0,6.549c0.647,0 1.158,-0.273 1.532,-0.82c0.373,-0.547 0.56,-1.21 0.56,-1.989c0,-0.821 -0.184,-1.495 -0.554,-2.024c-0.369,-0.528 -0.881,-0.793 -1.538,-0.793c-0.661,0 -1.173,0.261 -1.538,0.783c-0.364,0.522 -0.547,1.2 -0.547,2.034c0,0.793 0.185,1.459 0.554,1.999c0.369,0.54 0.88,0.81 1.531,0.81Z" style="fill:#8000db;fill-rule:nonzero;"/><path d="M26.174,22.671l-2.912,0l-0,-8.722l-1.86,-0l0,-0.923l2.926,-0l0,8.722l1.846,0l-0,0.923Z" style="fill:#8000db;fill-rule:nonzero;"/><path d="M35.416,15.548l-2.7,7.123c-0.392,1.048 -0.781,1.78 -1.166,2.195c-0.385,0.414 -0.823,0.622 -1.316,0.622c-0.437,-0 -0.87,-0.08 -1.298,-0.24l0.177,-0.854c0.347,0.109 0.657,0.164 0.93,0.164c0.383,-0 0.697,-0.148 0.943,-0.444c0.246,-0.297 0.495,-0.782 0.745,-1.456l-2.672,-7.11l1.162,0l2.016,5.681l2.017,-5.681l1.162,0Z" style="fill:#8000db;fill-rule:nonzero;"/><path d="M43.605,15.74l-0.43,1.025c-0.47,-0.205 -0.875,-0.308 -1.217,-0.308c-0.314,0 -0.622,0.09 -0.923,0.27c-0.301,0.18 -0.577,0.438 -0.83,0.773c-0.253,0.335 -0.38,0.523 -0.38,0.564l0,4.607l-1.059,0l-0,-7.123l1.059,0l0,1.443c0.57,-1.076 1.308,-1.614 2.215,-1.614c0.538,0 1.06,0.121 1.565,0.363Z" style="fill:#8000db;fill-rule:nonzero;"/><path d="M51.897,22.671l-1.066,0l0,-4.566c0,-0.634 -0.101,-1.093 -0.304,-1.378c-0.203,-0.284 -0.521,-0.427 -0.954,-0.427c-0.651,0 -1.351,0.406 -2.098,1.217l-0,5.154l-1.067,0l0,-9.645l1.067,-0l-0,3.568c0.765,-0.811 1.572,-1.217 2.42,-1.217c1.335,0 2.002,0.807 2.002,2.42l0,4.874Z" style="fill:#8000db;fill-rule:nonzero;"/><path d="M60.62,15.548l-2.7,7.123c-0.392,1.048 -0.781,1.78 -1.166,2.195c-0.385,0.414 -0.823,0.622 -1.316,0.622c-0.437,-0 -0.87,-0.08 -1.298,-0.24l0.177,-0.854c0.347,0.109 0.657,0.164 0.93,0.164c0.383,-0 0.697,-0.148 0.943,-0.444c0.247,-0.297 0.495,-0.782 0.746,-1.456l-2.673,-7.11l1.162,0l2.016,5.681l2.017,-5.681l1.162,0Z" style="fill:#8000db;fill-rule:nonzero;"/><path d="M68.769,22.35c-0.716,0.328 -1.42,0.492 -2.113,0.492c-1.271,0 -1.907,-0.672 -1.907,-2.016l0,-4.355l-1.367,0l-0,-0.923l1.367,0l0,-1.948l1.039,-0l0,1.948l2.42,0l0,0.923l-2.42,0l0,4.074c0,0.433 0.096,0.769 0.287,1.009c0.192,0.239 0.451,0.358 0.779,0.358c0.584,0 1.16,-0.129 1.73,-0.389l0.185,0.827Z" style="fill:#8000db;fill-rule:nonzero;"/><path d="M77.102,22.671l-1.067,0l0,-4.566c0,-0.634 -0.101,-1.093 -0.304,-1.378c-0.203,-0.284 -0.521,-0.427 -0.954,-0.427c-0.651,0 -1.351,0.406 -2.098,1.217l-0,5.154l-1.067,0l0,-9.645l1.067,-0l-0,3.568c0.765,-0.811 1.572,-1.217 2.42,-1.217c1.335,0 2.003,0.807 2.003,2.42l-0,4.874Z" style="fill:#8000db;fill-rule:nonzero;"/><path d="M86.063,22.671l-1.066,0l0,-4.676c0,-1.13 -0.21,-1.695 -0.629,-1.695c-0.214,0 -0.45,0.195 -0.707,0.585c-0.258,0.389 -0.387,0.605 -0.387,0.646l0,5.14l-1.059,0l-0,-4.676c-0,-1.13 -0.212,-1.695 -0.636,-1.695c-0.21,0 -0.443,0.195 -0.701,0.585c-0.257,0.389 -0.386,0.605 -0.386,0.646l0,5.14l-1.066,0l-0,-7.123l1.025,0l0,1.073c0.201,-0.378 0.439,-0.68 0.715,-0.905c0.275,-0.226 0.55,-0.339 0.823,-0.339c0.287,0 0.545,0.113 0.773,0.339c0.228,0.225 0.385,0.527 0.471,0.905c0.201,-0.378 0.44,-0.68 0.718,-0.905c0.278,-0.226 0.552,-0.339 0.82,-0.339c0.862,0 1.292,0.771 1.292,2.311l0,4.983Z" style="fill:#8000db;fill-rule:nonzero;"/></g><g><path d="M26.223,223.555l-2.124,0l0,6.24l-0.796,0l0,-6.24l-2.134,0l0,-0.649l5.054,-0l0,0.649Z" style="fill-rule:nonzero;"/><path d="M31.672,227.627c0,0.798 -0.162,1.381 -0.485,1.748c-0.324,0.368 -0.817,0.552 -1.478,0.552c-1.331,0 -1.997,-0.76 -1.997,-2.28l0,-4.741l0.801,-0l0,4.668c0,1.1 0.399,1.65 1.196,1.65c0.401,-0 0.695,-0.13 0.882,-0.391c0.187,-0.26 0.281,-0.683 0.281,-1.269l-0,-4.658l0.8,-0l0,4.721Z" style="fill-rule:nonzero;"/><path d="M33.943,222.906l1.748,-0c0.661,-0 1.19,0.166 1.587,0.498c0.397,0.332 0.596,0.789 0.596,1.372c-0,0.586 -0.198,1.054 -0.594,1.404c-0.395,0.349 -0.914,0.524 -1.555,0.524l-0.981,0l-0,3.091l-0.801,0l-0,-6.889Zm0.801,3.1l0.869,0c0.941,0 1.411,-0.394 1.411,-1.181c-0,-0.365 -0.128,-0.66 -0.383,-0.884c-0.256,-0.225 -0.585,-0.337 -0.989,-0.337l-0.908,-0l-0,2.402Z" style="fill-rule:nonzero;"/><path d="M43.694,229.795l-3.75,0l-0,-6.889l0.801,-0l-0,6.191l2.949,0l-0,0.698Z" style="fill-rule:nonzero;"/><path d="M49.543,229.795l-3.598,0l-0,-6.889l3.569,-0l0,0.698l-2.768,-0l-0,2.134l2.661,-0l-0,0.698l-2.661,-0l-0,2.661l2.797,0l0,0.698Z" style="fill-rule:nonzero;"/><path d="M56.228,223.555l-2.124,0l0,6.24l-0.796,0l0,-6.24l-2.134,0l0,-0.649l5.054,-0l0,0.649Z" style="fill-rule:nonzero;"/><path d="M67.488,229.795l-3.789,0l-0,-0.581c0.96,-1.071 1.583,-1.789 1.87,-2.153c0.286,-0.365 0.519,-0.747 0.698,-1.148c0.179,-0.4 0.269,-0.799 0.269,-1.196c-0,-0.384 -0.117,-0.687 -0.349,-0.908c-0.233,-0.221 -0.56,-0.332 -0.979,-0.332c-0.323,-0 -0.756,0.099 -1.299,0.298l-0.113,-0.689c0.492,-0.208 1.006,-0.312 1.543,-0.312c0.616,-0 1.111,0.173 1.487,0.52c0.376,0.346 0.564,0.81 0.564,1.389c0,0.413 -0.097,0.824 -0.29,1.23c-0.194,0.407 -0.442,0.798 -0.745,1.172c-0.303,0.375 -0.892,1.045 -1.768,2.012l2.901,0l-0,0.698Z" style="fill-rule:nonzero;"/></g><g><path d="M26.223,148.184l-2.124,-0l0,6.24l-0.796,-0l0,-6.24l-2.134,-0l0,-0.65l5.054,0l0,0.65Z" style="fill-rule:nonzero;"/><path d="M31.672,152.256c0,0.797 -0.162,1.38 -0.485,1.748c-0.324,0.368 -0.817,0.552 -1.478,0.552c-1.331,-0 -1.997,-0.76 -1.997,-2.281l0,-4.741l0.801,0l0,4.668c0,1.1 0.399,1.65 1.196,1.65c0.401,0 0.695,-0.13 0.882,-0.39c0.187,-0.261 0.281,-0.684 0.281,-1.27l-0,-4.658l0.8,0l0,4.722Z" style="fill-rule:nonzero;"/><path d="M33.943,147.534l1.748,0c0.661,0 1.19,0.166 1.587,0.498c0.397,0.332 0.596,0.79 0.596,1.372c-0,0.586 -0.198,1.054 -0.594,1.404c-0.395,0.35 -0.914,0.525 -1.555,0.525l-0.981,-0l-0,3.091l-0.801,-0l-0,-6.89Zm0.801,3.101l0.869,-0c0.941,-0 1.411,-0.394 1.411,-1.182c-0,-0.365 -0.128,-0.659 -0.383,-0.884c-0.256,-0.224 -0.585,-0.337 -0.989,-0.337l-0.908,0l-0,2.403Z" style="fill-rule:nonzero;"/><path d="M43.694,154.424l-3.75,-0l-0,-6.89l0.801,0l-0,6.192l2.949,-0l-0,0.698Z" style="fill-rule:nonzero;"/><path d="M49.543,154.424l-3.598,-0l-0,-6.89l3.569,0l0,0.698l-2.768,0l-0,2.134l2.661,0l-0,0.698l-2.661,0l-0,2.662l2.797,-0l0,0.698Z" style="fill-rule:nonzero;"/><path d="M56.228,148.184l-2.124,-0l0,6.24l-0.796,-0l0,-6.24l-2.134,-0l0,-0.65l5.054,0l0,0.65Z" style="fill-rule:nonzero;"/><path d="M67.668,154.424l-3.623,-0l0,-0.698l1.46,-0l0,-5.352l-1.377,0.688l0,-0.8l1.49,-0.767l0.688,0l0,6.231l1.362,-0l0,0.698Z" style="fill-rule:nonzero;"/></g><text x="29.619px" y="168.74px" style="font-family:'ArialMT', 'Arial', sans-serif;font-size:12px;">13:10</text><text x="29.619px" y="244.112px" style="font-family:'ArialMT', 'Arial', sans-serif;font-size:12px;">13:10</text><text x="29.619px" y="317.242px" style="font-family:'ArialMT', 'Arial', sans-serif;font-size:12px;">13:10</text><g><path d="M16.4,108.635l-1.001,-0l-2.022,-3.13l-0.888,-0l-0,3.13l-0.801,-0l-0,-6.89l1.948,0c0.655,0 1.171,0.159 1.551,0.476c0.379,0.318 0.568,0.76 0.568,1.326c0,0.42 -0.138,0.793 -0.415,1.121c-0.276,0.327 -0.657,0.549 -1.142,0.666l2.202,3.301Zm-3.911,-3.828l1.011,-0c0.423,-0 0.766,-0.115 1.03,-0.345c0.263,-0.229 0.395,-0.518 0.395,-0.866c0,-0.768 -0.468,-1.153 -1.406,-1.153l-1.03,0l-0,2.364Z" style="fill-rule:nonzero;"/><path d="M21.136,102.507c-0.41,-0.14 -0.799,-0.21 -1.167,-0.21c-0.416,-0 -0.756,0.095 -1.018,0.286c-0.262,0.19 -0.393,0.461 -0.393,0.813c0,0.416 0.344,0.782 1.03,1.098c0.508,0.235 0.844,0.397 1.009,0.488c0.164,0.092 0.331,0.217 0.5,0.376c0.169,0.16 0.305,0.348 0.408,0.564c0.102,0.217 0.154,0.46 0.154,0.73c-0,0.671 -0.226,1.191 -0.677,1.56c-0.45,0.37 -0.982,0.555 -1.594,0.555c-0.592,-0 -1.111,-0.118 -1.557,-0.352l0.166,-0.688c0.524,0.237 0.981,0.356 1.372,0.356c0.455,0 0.821,-0.118 1.096,-0.354c0.275,-0.236 0.412,-0.561 0.412,-0.974c0,-0.306 -0.089,-0.566 -0.268,-0.779c-0.179,-0.213 -0.51,-0.43 -0.991,-0.652c-0.495,-0.228 -0.815,-0.383 -0.96,-0.466c-0.145,-0.083 -0.289,-0.198 -0.432,-0.344c-0.143,-0.147 -0.254,-0.311 -0.332,-0.493c-0.078,-0.183 -0.117,-0.381 -0.117,-0.596c-0,-0.57 0.205,-1.014 0.615,-1.333c0.41,-0.319 0.929,-0.479 1.558,-0.479c0.459,0 0.914,0.07 1.367,0.21l-0.181,0.684Z" style="fill-rule:nonzero;"/><path d="M28.202,102.395l-2.124,-0l-0,6.24l-0.796,-0l-0,-6.24l-2.134,-0l-0,-0.65l5.054,0l-0,0.65Z" style="fill-rule:nonzero;"/></g></g></g></svg>