<?xml version="1.0" encoding="UTF-8" standalone="no"?>
<svg
   width="100%"
   height="100%"
   viewBox="0 0 90 380"
   version="1.1"
   xml:space="preserve"
   style="fill-rule:evenodd;clip-rule:evenodd;stroke-linejoin:round;stroke-miterlimit:1.5;"
   id="svg62"
   sodipodi:docname="PolyrhythmClock-dark.svg"
   inkscape:version="1.3 (0e150ed6c4, 2023-07-21)"
   xmlns:inkscape="http://www.inkscape.org/namespaces/inkscape"
   xmlns:sodipodi="http://sodipodi.sourceforge.net/DTD/sodipodi-0.dtd"
   xmlns="http://www.w3.org/2000/svg"
   xmlns:svg="http://www.w3.org/2000/svg"><defs
     id="defs62" /><sodipodi:namedview
     id="namedview62"
     pagecolor="#ffffff"
     bordercolor="#999999"
     borderopacity="1"
     inkscape:showpageshadow="2"
     inkscape:pageopacity="0"
     inkscape:pagecheckerboard="0"
     inkscape:deskcolor="#d1d1d1"
     inkscape:zoom="3.2122775"
     inkscape:cx="44.672355"
     inkscape:cy="115.96134"
     inkscape:window-width="1920"
     inkscape:window-height="1051"
     inkscape:window-x="-9"
     inkscape:window-y="-9"
     inkscape:window-maximized="1"
     inkscape:current-layer="svg62" /><rect
     id="PolyClock"
     x="0"
     y="0"
     width="90"
     height="379.55899"
     style="display:inline;fill:none" /><clipPath
     id="_clip1"><rect
       x="0"
       y="0"
       width="90"
       height="379.559"
       id="rect1" /></clipPath><g
     clip-path="url(#_clip1)"
     id="g62"><g
       id="Layer1"
       style="display:inline"><rect
         id="background"
         x="0"
         y="0"
         width="90"
         height="379.55899"
         style="fill:#1e0033;fill-opacity:1" /><rect
         x="34.778999"
         y="333.181"
         width="20.441"
         height="23.525999"
         style="fill:#808080;fill-opacity:0.5"
         id="rect2" /><rect
         x="34.778999"
         y="260.04999"
         width="20.441"
         height="23.525999"
         style="fill:#808080;fill-opacity:0.5"
         id="rect3" /><rect
         x="34.778999"
         y="184.679"
         width="20.441"
         height="23.525999"
         style="fill:#808080;fill-opacity:0.5"
         id="rect4" /><g
         id="g10"
         style="fill:#ffffff"><path
           d="M 26.194,288.009 H 24.07 v 6.24 h -0.796 v -6.24 H 21.14 v -0.649 h 5.054 z"
           style="fill-rule:nonzero;fill:#ffffff"
           id="path4" /><path
           d="m 31.643,292.081 c 0,0.798 -0.162,1.381 -0.486,1.748 -0.324,0.368 -0.816,0.552 -1.477,0.552 -1.331,0 -1.997,-0.76 -1.997,-2.28 v -4.741 h 0.801 v 4.668 c 0,1.1 0.399,1.65 1.196,1.65 0.401,0 0.694,-0.13 0.882,-0.391 0.187,-0.26 0.28,-0.683 0.28,-1.269 v -4.658 h 0.801 z"
           style="fill-rule:nonzero;fill:#ffffff"
           id="path5" /><path
           d="m 33.914,287.36 h 1.748 c 0.66,0 1.189,0.166 1.587,0.498 0.397,0.332 0.595,0.789 0.595,1.372 0,0.586 -0.198,1.054 -0.593,1.404 -0.396,0.35 -0.914,0.525 -1.555,0.525 h -0.982 v 3.09 h -0.8 z m 0.8,3.1 h 0.869 c 0.941,0 1.412,-0.394 1.412,-1.181 0,-0.365 -0.128,-0.66 -0.384,-0.884 -0.255,-0.225 -0.585,-0.337 -0.988,-0.337 h -0.909 z"
           style="fill-rule:nonzero;fill:#ffffff"
           id="path6" /><path
           d="m 43.665,294.249 h -3.75 v -6.889 h 0.8 v 6.191 h 2.95 z"
           style="fill-rule:nonzero;fill:#ffffff"
           id="path7" /><path
           d="m 49.514,294.249 h -3.598 v -6.889 h 3.569 v 0.698 h -2.769 v 2.134 h 2.661 v 0.698 h -2.661 v 2.661 h 2.798 z"
           style="fill-rule:nonzero;fill:#ffffff"
           id="path8" /><path
           d="m 56.199,288.009 h -2.124 v 6.24 h -0.796 v -6.24 h -2.134 v -0.649 h 5.054 z"
           style="fill-rule:nonzero;fill:#ffffff"
           id="path9" /><path
           d="m 66.096,290.548 c 0.42,0.117 0.757,0.331 1.011,0.642 0.254,0.311 0.381,0.66 0.381,1.048 0,0.605 -0.236,1.114 -0.708,1.526 -0.472,0.411 -1.029,0.617 -1.67,0.617 -0.547,0 -1.037,-0.12 -1.47,-0.361 l 0.156,-0.659 c 0.453,0.211 0.9,0.317 1.343,0.317 0.417,0 0.772,-0.129 1.067,-0.388 0.295,-0.259 0.442,-0.592 0.442,-0.999 0,-0.4 -0.158,-0.726 -0.474,-0.976 -0.315,-0.251 -0.734,-0.376 -1.255,-0.376 h -0.21 v -0.659 h 0.059 c 0.501,0 0.915,-0.118 1.24,-0.354 0.326,-0.236 0.489,-0.555 0.489,-0.955 0,-0.325 -0.118,-0.58 -0.352,-0.764 -0.234,-0.184 -0.557,-0.276 -0.967,-0.276 -0.355,0 -0.752,0.096 -1.191,0.288 l -0.108,-0.688 c 0.443,-0.202 0.889,-0.303 1.338,-0.303 0.616,0 1.123,0.162 1.521,0.486 0.399,0.324 0.598,0.739 0.598,1.247 0,0.352 -0.121,0.68 -0.363,0.984 -0.243,0.305 -0.535,0.496 -0.877,0.574 z"
           style="fill-rule:nonzero;fill:#ffffff"
           id="path10" /></g><g
         id="g15"><path
           d="m 31.256,39.17 c -0.756,0.524 -1.633,0.786 -2.631,0.786 -1.249,0 -2.198,-0.428 -2.848,-1.285 -0.649,-0.857 -0.974,-2.096 -0.974,-3.719 0,-1.568 0.315,-2.795 0.944,-3.681 0.628,-0.886 1.588,-1.33 2.878,-1.33 0.464,0 0.925,0.06 1.38,0.178 0.456,0.119 0.823,0.276 1.101,0.472 l -0.369,0.882 c -0.643,-0.365 -1.347,-0.547 -2.112,-0.547 -0.889,0 -1.55,0.322 -1.983,0.967 -0.433,0.645 -0.649,1.665 -0.649,3.059 0,2.68 0.877,4.02 2.632,4.02 0.742,0 1.503,-0.228 2.283,-0.684 z"
           style="fill:#8000db;fill-rule:nonzero"
           id="path11" /><path
           d="m 38.776,39.771 h -2.912 v -8.722 h -1.86 v -0.923 h 2.926 v 8.723 h 1.846 z"
           style="fill:#8000db;fill-rule:nonzero"
           id="path12" /><path
           d="m 44.935,32.478 c 0.98,0 1.759,0.341 2.338,1.025 0.579,0.684 0.868,1.584 0.868,2.7 0,1.126 -0.289,2.033 -0.868,2.721 -0.579,0.688 -1.358,1.032 -2.338,1.032 -0.984,0 -1.765,-0.343 -2.341,-1.029 -0.577,-0.686 -0.865,-1.594 -0.865,-2.724 0,-1.121 0.289,-2.022 0.868,-2.703 0.579,-0.682 1.358,-1.022 2.338,-1.022 z m 0,6.548 c 0.647,0 1.158,-0.273 1.531,-0.82 0.374,-0.547 0.561,-1.21 0.561,-1.989 0,-0.821 -0.185,-1.495 -0.554,-2.024 -0.369,-0.528 -0.882,-0.793 -1.538,-0.793 -0.661,0 -1.173,0.261 -1.538,0.783 -0.365,0.522 -0.547,1.2 -0.547,2.034 0,0.793 0.185,1.459 0.554,1.999 0.369,0.54 0.879,0.81 1.531,0.81 z"
           style="fill:#8000db;fill-rule:nonzero"
           id="path13" /><path
           d="m 56.071,39.532 c -0.62,0.283 -1.301,0.424 -2.044,0.424 -1.121,0 -2.016,-0.341 -2.683,-1.022 -0.668,-0.681 -1.002,-1.587 -1.002,-2.717 0,-1.13 0.336,-2.036 1.009,-2.717 0.672,-0.682 1.555,-1.022 2.649,-1.022 0.715,0 1.396,0.125 2.043,0.376 l -0.28,0.881 c -0.647,-0.223 -1.23,-0.335 -1.75,-0.335 -0.784,0 -1.405,0.253 -1.863,0.759 -0.458,0.506 -0.687,1.192 -0.687,2.058 0,0.793 0.237,1.459 0.711,1.999 0.474,0.54 1.092,0.81 1.853,0.81 0.601,0 1.221,-0.116 1.859,-0.348 z"
           style="fill:#8000db;fill-rule:nonzero"
           id="path14" /><path
           d="m 65.197,39.771 h -1.402 l -3.021,-3.541 -0.697,0.602 v 2.939 H 59.01 v -9.645 h 1.067 v 5.53 l 3.342,-3.008 h 1.361 l -3.247,2.913 z"
           style="fill:#8000db;fill-rule:nonzero"
           id="path15" /></g><g
         id="g25"><path
           d="m 4.682,18.906 h 2.447 c 0.925,0 1.666,0.232 2.222,0.697 0.556,0.465 0.834,1.105 0.834,1.921 0,0.82 -0.277,1.476 -0.831,1.965 -0.554,0.49 -1.279,0.735 -2.177,0.735 H 5.803 v 4.327 H 4.682 Z m 1.121,4.341 H 7.02 c 1.317,0 1.975,-0.552 1.975,-1.655 0,-0.51 -0.179,-0.922 -0.537,-1.237 C 8.101,20.041 7.639,19.884 7.074,19.884 H 5.803 Z"
           style="fill:#8000db;fill-rule:nonzero"
           id="path16" /><path
           d="m 15.53,21.258 c 0.98,0 1.759,0.341 2.338,1.025 0.579,0.684 0.868,1.584 0.868,2.7 0,1.126 -0.289,2.033 -0.868,2.721 -0.579,0.688 -1.358,1.032 -2.338,1.032 -0.984,0 -1.765,-0.343 -2.341,-1.029 -0.577,-0.686 -0.865,-1.594 -0.865,-2.724 0,-1.121 0.29,-2.022 0.868,-2.703 0.579,-0.682 1.358,-1.022 2.338,-1.022 z m 0,6.548 c 0.647,0 1.158,-0.273 1.532,-0.82 0.373,-0.547 0.56,-1.21 0.56,-1.989 0,-0.821 -0.184,-1.495 -0.554,-2.024 -0.369,-0.528 -0.881,-0.793 -1.538,-0.793 -0.661,0 -1.173,0.261 -1.538,0.783 -0.364,0.522 -0.547,1.2 -0.547,2.034 0,0.793 0.185,1.459 0.554,1.999 0.369,0.54 0.88,0.81 1.531,0.81 z"
           style="fill:#8000db;fill-rule:nonzero"
           id="path17" /><path
           d="m 26.174,28.551 h -2.912 v -8.722 h -1.86 v -0.923 h 2.926 v 8.723 h 1.846 z"
           style="fill:#8000db;fill-rule:nonzero"
           id="path18" /><path
           d="m 35.416,21.428 -2.7,7.123 c -0.392,1.049 -0.781,1.78 -1.166,2.195 -0.385,0.415 -0.823,0.622 -1.316,0.622 -0.437,0 -0.87,-0.08 -1.298,-0.239 l 0.177,-0.855 c 0.347,0.11 0.657,0.164 0.93,0.164 0.383,0 0.697,-0.148 0.943,-0.444 0.246,-0.296 0.495,-0.782 0.745,-1.456 l -2.672,-7.11 h 1.162 l 2.016,5.681 2.017,-5.681 z"
           style="fill:#8000db;fill-rule:nonzero"
           id="path19" /><path
           d="m 43.605,21.62 -0.43,1.025 c -0.47,-0.205 -0.875,-0.307 -1.217,-0.307 -0.314,0 -0.622,0.09 -0.923,0.27 -0.301,0.18 -0.577,0.437 -0.83,0.772 -0.253,0.335 -0.38,0.523 -0.38,0.564 v 4.607 h -1.059 v -7.123 h 1.059 v 1.443 c 0.57,-1.076 1.308,-1.613 2.215,-1.613 0.538,0 1.06,0.12 1.565,0.362 z"
           style="fill:#8000db;fill-rule:nonzero"
           id="path20" /><path
           d="m 51.897,28.551 h -1.066 v -4.566 c 0,-0.633 -0.101,-1.093 -0.304,-1.377 -0.203,-0.285 -0.521,-0.428 -0.954,-0.428 -0.651,0 -1.351,0.406 -2.098,1.217 v 5.154 h -1.067 v -9.645 h 1.067 v 3.568 c 0.765,-0.811 1.572,-1.216 2.42,-1.216 1.335,0 2.002,0.806 2.002,2.419 z"
           style="fill:#8000db;fill-rule:nonzero"
           id="path21" /><path
           d="m 60.62,21.428 -2.7,7.123 c -0.392,1.049 -0.781,1.78 -1.166,2.195 -0.385,0.415 -0.823,0.622 -1.316,0.622 -0.437,0 -0.87,-0.08 -1.298,-0.239 l 0.177,-0.855 c 0.347,0.11 0.657,0.164 0.93,0.164 0.383,0 0.697,-0.148 0.943,-0.444 0.247,-0.296 0.495,-0.782 0.746,-1.456 l -2.673,-7.11 h 1.162 l 2.016,5.681 2.017,-5.681 z"
           style="fill:#8000db;fill-rule:nonzero"
           id="path22" /><path
           d="m 68.769,28.23 c -0.716,0.328 -1.42,0.492 -2.113,0.492 -1.271,0 -1.907,-0.672 -1.907,-2.016 v -4.355 h -1.367 v -0.923 h 1.367 V 19.48 h 1.039 v 1.948 h 2.42 v 0.923 h -2.42 v 4.075 c 0,0.432 0.096,0.769 0.287,1.008 0.192,0.239 0.451,0.359 0.779,0.359 0.584,0 1.16,-0.13 1.73,-0.39 z"
           style="fill:#8000db;fill-rule:nonzero"
           id="path23" /><path
           d="m 77.102,28.551 h -1.067 v -4.566 c 0,-0.633 -0.101,-1.093 -0.304,-1.377 -0.203,-0.285 -0.521,-0.428 -0.954,-0.428 -0.651,0 -1.351,0.406 -2.098,1.217 v 5.154 h -1.067 v -9.645 h 1.067 v 3.568 c 0.765,-0.811 1.572,-1.216 2.42,-1.216 1.335,0 2.003,0.806 2.003,2.419 z"
           style="fill:#8000db;fill-rule:nonzero"
           id="path24" /><path
           d="m 86.063,28.551 h -1.066 v -4.675 c 0,-1.131 -0.21,-1.696 -0.629,-1.696 -0.214,0 -0.45,0.195 -0.707,0.585 -0.258,0.39 -0.387,0.605 -0.387,0.646 v 5.14 h -1.059 v -4.675 c 0,-1.131 -0.212,-1.696 -0.636,-1.696 -0.21,0 -0.443,0.195 -0.701,0.585 -0.257,0.39 -0.386,0.605 -0.386,0.646 v 5.14 h -1.066 v -7.123 h 1.025 v 1.074 c 0.201,-0.379 0.439,-0.68 0.715,-0.906 0.275,-0.226 0.55,-0.338 0.823,-0.338 0.287,0 0.545,0.112 0.773,0.338 0.228,0.226 0.385,0.527 0.471,0.906 0.201,-0.379 0.44,-0.68 0.718,-0.906 0.278,-0.226 0.552,-0.338 0.82,-0.338 0.862,0 1.292,0.77 1.292,2.31 z"
           style="fill:#8000db;fill-rule:nonzero"
           id="path25" /></g><g
         id="g32"
         style="fill:#ffffff"><path
           d="m 26.895,215.682 h -2.124 v 6.24 h -0.796 v -6.24 h -2.134 v -0.649 h 5.054 z"
           style="fill-rule:nonzero;fill:#ffffff"
           id="path26" /><path
           d="m 32.344,219.754 c 0,0.798 -0.162,1.381 -0.486,1.748 -0.324,0.368 -0.816,0.552 -1.477,0.552 -1.332,0 -1.997,-0.76 -1.997,-2.28 v -4.741 h 0.801 v 4.668 c 0,1.1 0.398,1.65 1.196,1.65 0.4,0 0.694,-0.13 0.881,-0.391 0.187,-0.26 0.281,-0.683 0.281,-1.269 v -4.658 h 0.801 z"
           style="fill-rule:nonzero;fill:#ffffff"
           id="path27" /><path
           d="m 34.614,215.033 h 1.748 c 0.661,0 1.19,0.166 1.587,0.498 0.397,0.332 0.596,0.789 0.596,1.372 0,0.586 -0.198,1.054 -0.593,1.404 -0.396,0.35 -0.914,0.525 -1.556,0.525 h -0.981 v 3.09 h -0.801 z m 0.801,3.1 h 0.869 c 0.941,0 1.411,-0.394 1.411,-1.181 0,-0.365 -0.127,-0.659 -0.383,-0.884 -0.256,-0.225 -0.585,-0.337 -0.989,-0.337 h -0.908 z"
           style="fill-rule:nonzero;fill:#ffffff"
           id="path28" /><path
           d="m 44.365,221.922 h -3.75 v -6.889 h 0.801 v 6.191 h 2.949 z"
           style="fill-rule:nonzero;fill:#ffffff"
           id="path29" /><path
           d="m 50.215,221.922 h -3.599 v -6.889 h 3.57 v 0.698 h -2.769 v 2.134 h 2.661 v 0.698 h -2.661 v 2.661 h 2.798 z"
           style="fill-rule:nonzero;fill:#ffffff"
           id="path30" /><path
           d="m 56.899,215.682 h -2.124 v 6.24 h -0.796 v -6.24 h -2.133 v -0.649 h 5.053 z"
           style="fill-rule:nonzero;fill:#ffffff"
           id="path31" /><path
           d="M 68.159,221.922 H 64.37 v -0.581 c 0.96,-1.071 1.584,-1.788 1.87,-2.153 0.287,-0.365 0.519,-0.747 0.698,-1.147 0.18,-0.401 0.269,-0.8 0.269,-1.197 0,-0.384 -0.116,-0.687 -0.349,-0.908 -0.233,-0.221 -0.559,-0.332 -0.979,-0.332 -0.322,0 -0.755,0.099 -1.299,0.298 l -0.112,-0.689 c 0.491,-0.208 1.006,-0.312 1.543,-0.312 0.615,0 1.111,0.173 1.487,0.52 0.376,0.347 0.564,0.81 0.564,1.389 0,0.413 -0.097,0.824 -0.291,1.231 -0.194,0.406 -0.442,0.797 -0.745,1.171 -0.302,0.375 -0.892,1.045 -1.767,2.012 h 2.9 z"
           style="fill-rule:nonzero;fill:#ffffff"
           id="path32" /></g><g
         id="g39"><path
           d="m 26.223,138.012 h -2.124 v 6.24 h -0.796 v -6.24 h -2.134 v -0.65 h 5.054 z"
           style="fill-rule:nonzero;fill:#ffffff"
           id="path33" /><path
           d="m 31.672,142.084 c 0,0.798 -0.162,1.38 -0.485,1.748 -0.324,0.368 -0.817,0.552 -1.478,0.552 -1.331,0 -1.997,-0.76 -1.997,-2.28 v -4.742 h 0.801 v 4.668 c 0,1.101 0.399,1.651 1.196,1.651 0.401,0 0.695,-0.13 0.882,-0.391 0.187,-0.26 0.281,-0.683 0.281,-1.269 v -4.659 h 0.8 z"
           style="fill-rule:nonzero;fill:#ffffff"
           id="path34" /><path
           d="m 33.943,137.362 h 1.748 c 0.661,0 1.19,0.166 1.587,0.498 0.397,0.333 0.596,0.79 0.596,1.373 0,0.586 -0.198,1.053 -0.594,1.403 -0.395,0.35 -0.914,0.525 -1.555,0.525 h -0.981 v 3.091 h -0.801 z m 0.801,3.101 h 0.869 c 0.941,0 1.411,-0.394 1.411,-1.182 0,-0.364 -0.128,-0.659 -0.383,-0.883 -0.256,-0.225 -0.585,-0.337 -0.989,-0.337 h -0.908 z"
           style="fill-rule:nonzero;fill:#ffffff"
           id="path35" /><path
           d="m 43.694,144.252 h -3.75 v -6.89 h 0.801 v 6.192 h 2.949 z"
           style="fill-rule:nonzero;fill:#ffffff"
           id="path36" /><path
           d="m 49.543,144.252 h -3.598 v -6.89 h 3.569 v 0.699 h -2.768 v 2.133 h 2.661 v 0.699 h -2.661 v 2.661 h 2.797 z"
           style="fill-rule:nonzero;fill:#ffffff"
           id="path37" /><path
           d="m 56.228,138.012 h -2.124 v 6.24 h -0.796 v -6.24 h -2.134 v -0.65 h 5.054 z"
           style="fill-rule:nonzero;fill:#ffffff"
           id="path38" /><path
           d="m 67.668,144.252 h -3.623 v -0.698 h 1.46 v -5.352 l -1.377,0.689 v -0.801 l 1.49,-0.767 h 0.688 v 6.231 h 1.362 z"
           style="fill-rule:nonzero;fill:#ffffff"
           id="path39" /></g><text
         x="29.618999"
         y="160.196"
         style="font-size:12px;font-family:ArialMT, Arial, sans-serif"
         id="text39">13:10</text><text
         x="29.618999"
         y="235.567"
         style="font-size:12px;font-family:ArialMT, Arial, sans-serif"
         id="text40">13:10</text><text
         x="29.618999"
         y="308.698"
         style="font-size:12px;font-family:ArialMT, Arial, sans-serif"
         id="text41">13:10</text><text
         x="13.312"
         y="103.523"
         style="font-size:15px;font-family:PTMono-Regular, 'PT Mono', monospace;fill:#8000db"
         id="text42">120 BPM</text><g
         id="g44"
         style="fill:#ffffff"><path
           d="m 65.512,65.206 h -3.599 v -6.889 h 3.569 v 0.698 h -2.768 v 2.134 h 2.661 v 0.698 h -2.661 v 2.661 h 2.798 z"
           style="fill-rule:nonzero;fill:#ffffff"
           id="path42" /><path
           d="m 72.343,65.206 h -0.889 l -1.748,-2.822 -1.733,2.822 h -0.889 l 2.202,-3.51 -2.192,-3.379 h 0.918 l 1.694,2.729 1.709,-2.729 h 0.879 l -2.158,3.379 z"
           style="fill-rule:nonzero;fill:#ffffff"
           id="path43" /><path
           d="m 78.197,58.966 h -2.124 v 6.24 h -0.796 v -6.24 h -2.133 v -0.649 h 5.053 z"
           style="fill-rule:nonzero;fill:#ffffff"
           id="path44" /></g><g
         id="g47"><path
           d="m 16.4,65.075 h -1.001 l -2.022,-3.13 h -0.888 v 3.13 h -0.801 v -6.89 h 1.948 c 0.655,0 1.171,0.159 1.551,0.476 0.379,0.317 0.568,0.759 0.568,1.326 0,0.42 -0.138,0.793 -0.415,1.12 -0.276,0.327 -0.657,0.55 -1.142,0.667 z M 12.489,61.246 H 13.5 c 0.423,0 0.766,-0.114 1.03,-0.344 0.263,-0.229 0.395,-0.518 0.395,-0.867 0,-0.768 -0.468,-1.152 -1.406,-1.152 h -1.03 z"
           style="fill-rule:nonzero;fill:#ffffff"
           id="path45" /><path
           d="m 21.136,58.947 c -0.41,-0.14 -0.799,-0.21 -1.167,-0.21 -0.416,0 -0.756,0.095 -1.018,0.285 -0.262,0.191 -0.393,0.462 -0.393,0.813 0,0.417 0.344,0.783 1.03,1.099 0.508,0.234 0.844,0.397 1.009,0.488 0.164,0.091 0.331,0.217 0.5,0.376 0.169,0.16 0.305,0.348 0.408,0.564 0.102,0.217 0.154,0.46 0.154,0.73 0,0.671 -0.226,1.191 -0.677,1.56 -0.45,0.37 -0.982,0.554 -1.594,0.554 -0.592,0 -1.111,-0.117 -1.557,-0.351 l 0.166,-0.689 c 0.524,0.238 0.981,0.357 1.372,0.357 0.455,0 0.821,-0.118 1.096,-0.354 0.275,-0.236 0.412,-0.561 0.412,-0.974 0,-0.306 -0.089,-0.566 -0.268,-0.779 -0.179,-0.213 -0.51,-0.431 -0.991,-0.652 -0.495,-0.228 -0.815,-0.383 -0.96,-0.466 -0.145,-0.083 -0.289,-0.198 -0.432,-0.345 -0.143,-0.146 -0.254,-0.31 -0.332,-0.493 -0.078,-0.182 -0.117,-0.381 -0.117,-0.595 0,-0.57 0.205,-1.014 0.615,-1.333 0.41,-0.319 0.929,-0.479 1.558,-0.479 0.459,0 0.914,0.07 1.367,0.21 z"
           style="fill-rule:nonzero;fill:#ffffff"
           id="path46" /><path
           d="m 28.202,58.834 h -2.124 v 6.241 h -0.796 v -6.241 h -2.134 v -0.649 h 5.054 z"
           style="fill-rule:nonzero;fill:#ffffff"
           id="path47" /></g><path
         d="M 19.945,195.773 V 173.717"
         style="fill:none;stroke:#ffffff;stroke-width:1px"
         id="path48" /><path
         d="M 70.055,195.773 V 173.717"
         style="fill:none;stroke:#ffffff;stroke-width:1px"
         id="path49" /><path
         d="M 19.945,271.145 V 249.089"
         style="fill:none;stroke:#ffffff;stroke-width:1px"
         id="path50" /><path
         d="M 70.055,271.145 V 249.089"
         style="fill:none;stroke:#ffffff;stroke-width:1px"
         id="path51" /><path
         d="M 19.945,344.275 V 322.219"
         style="fill:none;stroke:#ffffff;stroke-width:1px"
         id="path52" /><path
         d="M 70.055,344.275 V 322.219"
         style="fill:none;stroke:#ffffff;stroke-width:1px"
         id="path53" /><path
         d="m 88.228,155.945 c 0,-11.929 -9.685,-21.614 -21.614,-21.614 H 23.386 c -11.929,0 -21.614,9.685 -21.614,21.614 v 205.232 h 86.456 z"
         style="fill:none;stroke:#2600ff;stroke-width:1px;stroke-linejoin:miter"
         id="path54" /><path
         d="m 85.66,228.58 c 0,-11.245 -9.13,-20.376 -20.376,-20.376 H 4.156 V 358.839 H 85.66 Z"
         style="fill:none;stroke:#00eeff;stroke-width:1px;stroke-linejoin:miter"
         id="path55" /><path
         d="M 83.323,283.576 H 24.96 c -10.091,0 -18.283,8.192 -18.283,18.283 v 54.847 h 76.646 z"
         style="fill:none;stroke:#ff0000;stroke-width:1px;stroke-linejoin:miter"
         id="path56" /><g
         id="logo"><g
           id="g58"><circle
             cx="41.695"
             cy="367.979"
             r="0.85399997"
             style="fill:#8000db"
             id="circle56" /><path
             d="m 41.695,367.979 h 2.916"
             style="fill:none;stroke:#8000db;stroke-width:0.71px;stroke-linejoin:miter"
             id="path57" /><path
             d="m 44.611,366.52 c 0,-0.805 -0.654,-1.458 -1.458,-1.458 h -2.916 c -0.804,0 -1.457,0.653 -1.457,1.458 v 2.919 c 0,0.804 0.653,1.457 1.457,1.457 h 2.916 c 0.804,0 1.458,-0.653 1.458,-1.457 z"
             style="fill:none;stroke:#8000db;stroke-width:0.71px;stroke-miterlimit:3"
             id="path58" /></g><g
           id="g59"><circle
             cx="48.307999"
             cy="374.34"
             r="0.85399997"
             style="fill:#ff0000"
             id="circle58" /><path
             d="m 49.766,371.423 h -2.915 c -0.805,0 -1.458,0.421 -1.458,0.939 v 3.956 c 0,0.518 0.653,0.939 1.458,0.939 h 2.915 c 0.805,0 1.458,-0.421 1.458,-0.939 v -1.978 h -2.916"
             style="fill:none;stroke:#ff0000;stroke-width:0.71px;stroke-linecap:round;stroke-miterlimit:3"
             id="path59" /></g><g
           id="g60"><circle
             cx="48.307999"
             cy="367.979"
             r="0.85399997"
             style="fill:#2600ff"
             id="circle59" /><path
             d="m 51.224,370.896 v -4.714 c 0,-0.618 -0.653,-1.12 -1.458,-1.12 h -2.915 c -0.805,0 -1.458,0.502 -1.458,1.12 v 4.714"
             style="fill:none;stroke:#2600ff;stroke-width:0.71px;stroke-linecap:round;stroke-miterlimit:3"
             id="path60" /></g><g
           id="g61"><circle
             cx="41.693001"
             cy="374.34"
             r="0.85399997"
             style="fill:#00eeff"
             id="circle60" /><path
             d="m 38.776,377.257 v -5.834 l 5.835,5.834 v -5.834"
             style="fill:none;stroke:#00eeff;stroke-width:0.71px;stroke-linecap:round"
             id="path61" /></g></g></g></g></svg>
