<?xml version="1.0" encoding="UTF-8" standalone="no"?><!DOCTYPE svg PUBLIC "-//W3C//DTD SVG 1.1//EN" "http://www.w3.org/Graphics/SVG/1.1/DTD/svg11.dtd"><svg width="100%" height="100%" viewBox="0 0 90 380" version="1.1" xmlns="http://www.w3.org/2000/svg" xmlns:xlink="http://www.w3.org/1999/xlink" xml:space="preserve" xmlns:serif="http://www.serif.com/" style="fill-rule:evenodd;clip-rule:evenodd;stroke-linecap:square;stroke-linejoin:round;stroke-miterlimit:1.5;"><rect id="PolyClock" x="0" y="0" width="90" height="379.559" style="fill:none;"/><clipPath id="_clip1"><rect x="0" y="0" width="90" height="379.559"/></clipPath><g clip-path="url(#_clip1)"><g id="Layer1"><rect id="background" x="0" y="0" width="90" height="379.559" style="fill:#e6e6e6;"/><g><path d="M31.256,31.045c-0.756,0.524 -1.633,0.786 -2.631,0.786c-1.249,0 -2.198,-0.428 -2.848,-1.285c-0.649,-0.857 -0.974,-2.096 -0.974,-3.719c0,-1.568 0.315,-2.795 0.944,-3.681c0.628,-0.886 1.588,-1.33 2.878,-1.33c0.464,0 0.925,0.06 1.38,0.178c0.456,0.119 0.823,0.276 1.101,0.472l-0.369,0.882c-0.643,-0.365 -1.347,-0.547 -2.112,-0.547c-0.889,-0 -1.55,0.322 -1.983,0.967c-0.433,0.645 -0.649,1.665 -0.649,3.059c-0,2.68 0.877,4.02 2.632,4.02c0.742,-0 1.503,-0.228 2.283,-0.684l0.348,0.882Z" style="fill-rule:nonzero;"/><path d="M38.776,31.646l-2.912,0l-0,-8.722l-1.86,-0l0,-0.923l2.926,-0l0,8.723l1.846,-0l-0,0.922Z" style="fill-rule:nonzero;"/><path d="M44.935,24.353c0.98,-0 1.759,0.341 2.338,1.025c0.579,0.684 0.868,1.584 0.868,2.7c0,1.126 -0.289,2.033 -0.868,2.721c-0.579,0.688 -1.358,1.032 -2.338,1.032c-0.984,0 -1.765,-0.343 -2.341,-1.029c-0.577,-0.686 -0.865,-1.594 -0.865,-2.724c0,-1.121 0.289,-2.022 0.868,-2.703c0.579,-0.682 1.358,-1.022 2.338,-1.022Zm0,6.548c0.647,0 1.158,-0.273 1.531,-0.82c0.374,-0.547 0.561,-1.21 0.561,-1.989c-0,-0.821 -0.185,-1.495 -0.554,-2.024c-0.369,-0.528 -0.882,-0.793 -1.538,-0.793c-0.661,0 -1.173,0.261 -1.538,0.783c-0.365,0.522 -0.547,1.2 -0.547,2.034c0,0.793 0.185,1.459 0.554,1.999c0.369,0.54 0.879,0.81 1.531,0.81Z" style="fill-rule:nonzero;"/><path d="M56.071,31.407c-0.62,0.283 -1.301,0.424 -2.044,0.424c-1.121,0 -2.016,-0.341 -2.683,-1.022c-0.668,-0.681 -1.002,-1.587 -1.002,-2.717c0,-1.13 0.336,-2.036 1.009,-2.717c0.672,-0.682 1.555,-1.022 2.649,-1.022c0.715,-0 1.396,0.125 2.043,0.376l-0.28,0.881c-0.647,-0.223 -1.23,-0.335 -1.75,-0.335c-0.784,0 -1.405,0.253 -1.863,0.759c-0.458,0.506 -0.687,1.192 -0.687,2.058c0,0.793 0.237,1.459 0.711,1.999c0.474,0.54 1.092,0.81 1.853,0.81c0.601,0 1.221,-0.116 1.859,-0.348l0.185,0.854Z" style="fill-rule:nonzero;"/><path d="M65.197,31.646l-1.402,0l-3.021,-3.541l-0.697,0.602l-0,2.939l-1.067,0l0,-9.645l1.067,-0l-0,5.53l3.342,-3.008l1.361,0l-3.247,2.913l3.664,4.21Z" style="fill-rule:nonzero;"/></g><g><path d="M4.682,13.026l2.447,-0c0.925,-0 1.666,0.232 2.222,0.697c0.556,0.465 0.834,1.105 0.834,1.921c-0,0.82 -0.277,1.475 -0.831,1.965c-0.554,0.49 -1.279,0.735 -2.177,0.735l-1.374,0l-0,4.327l-1.121,0l-0,-9.645Zm1.121,4.341l1.217,-0c1.317,-0 1.975,-0.552 1.975,-1.655c0,-0.51 -0.179,-0.923 -0.537,-1.237c-0.357,-0.314 -0.819,-0.472 -1.384,-0.472l-1.271,0l-0,3.364Z" style="fill-rule:nonzero;"/><path d="M15.53,15.377c0.98,0 1.759,0.342 2.338,1.026c0.579,0.683 0.868,1.583 0.868,2.7c0,1.126 -0.289,2.032 -0.868,2.721c-0.579,0.688 -1.358,1.032 -2.338,1.032c-0.984,-0 -1.765,-0.343 -2.341,-1.029c-0.577,-0.686 -0.865,-1.594 -0.865,-2.724c0,-1.121 0.29,-2.022 0.868,-2.704c0.579,-0.681 1.358,-1.022 2.338,-1.022Zm0,6.549c0.647,0 1.158,-0.273 1.532,-0.82c0.373,-0.547 0.56,-1.21 0.56,-1.989c0,-0.821 -0.184,-1.495 -0.554,-2.024c-0.369,-0.528 -0.881,-0.793 -1.538,-0.793c-0.661,0 -1.173,0.261 -1.538,0.783c-0.364,0.522 -0.547,1.2 -0.547,2.034c0,0.793 0.185,1.459 0.554,1.999c0.369,0.54 0.88,0.81 1.531,0.81Z" style="fill-rule:nonzero;"/><path d="M26.174,22.671l-2.912,0l-0,-8.722l-1.86,-0l0,-0.923l2.926,-0l0,8.722l1.846,0l-0,0.923Z" style="fill-rule:nonzero;"/><path d="M35.416,15.548l-2.7,7.123c-0.392,1.048 -0.781,1.78 -1.166,2.195c-0.385,0.414 -0.823,0.622 -1.316,0.622c-0.437,-0 -0.87,-0.08 -1.298,-0.24l0.177,-0.854c0.347,0.109 0.657,0.164 0.93,0.164c0.383,-0 0.697,-0.148 0.943,-0.444c0.246,-0.297 0.495,-0.782 0.745,-1.456l-2.672,-7.11l1.162,0l2.016,5.681l2.017,-5.681l1.162,0Z" style="fill-rule:nonzero;"/><path d="M43.605,15.74l-0.43,1.025c-0.47,-0.205 -0.875,-0.308 -1.217,-0.308c-0.314,0 -0.622,0.09 -0.923,0.27c-0.301,0.18 -0.577,0.438 -0.83,0.773c-0.253,0.335 -0.38,0.523 -0.38,0.564l0,4.607l-1.059,0l-0,-7.123l1.059,0l0,1.443c0.57,-1.076 1.308,-1.614 2.215,-1.614c0.538,0 1.06,0.121 1.565,0.363Z" style="fill-rule:nonzero;"/><path d="M51.897,22.671l-1.066,0l0,-4.566c0,-0.634 -0.101,-1.093 -0.304,-1.378c-0.203,-0.284 -0.521,-0.427 -0.954,-0.427c-0.651,0 -1.351,0.406 -2.098,1.217l-0,5.154l-1.067,0l0,-9.645l1.067,-0l-0,3.568c0.765,-0.811 1.572,-1.217 2.42,-1.217c1.335,0 2.002,0.807 2.002,2.42l0,4.874Z" style="fill-rule:nonzero;"/><path d="M60.62,15.548l-2.7,7.123c-0.392,1.048 -0.781,1.78 -1.166,2.195c-0.385,0.414 -0.823,0.622 -1.316,0.622c-0.437,-0 -0.87,-0.08 -1.298,-0.24l0.177,-0.854c0.347,0.109 0.657,0.164 0.93,0.164c0.383,-0 0.697,-0.148 0.943,-0.444c0.247,-0.297 0.495,-0.782 0.746,-1.456l-2.673,-7.11l1.162,0l2.016,5.681l2.017,-5.681l1.162,0Z" style="fill-rule:nonzero;"/><path d="M68.769,22.35c-0.716,0.328 -1.42,0.492 -2.113,0.492c-1.271,0 -1.907,-0.672 -1.907,-2.016l0,-4.355l-1.367,0l-0,-0.923l1.367,0l0,-1.948l1.039,-0l0,1.948l2.42,0l0,0.923l-2.42,0l0,4.074c0,0.433 0.096,0.769 0.287,1.009c0.192,0.239 0.451,0.358 0.779,0.358c0.584,0 1.16,-0.129 1.73,-0.389l0.185,0.827Z" style="fill-rule:nonzero;"/><path d="M77.102,22.671l-1.067,0l0,-4.566c0,-0.634 -0.101,-1.093 -0.304,-1.378c-0.203,-0.284 -0.521,-0.427 -0.954,-0.427c-0.651,0 -1.351,0.406 -2.098,1.217l-0,5.154l-1.067,0l0,-9.645l1.067,-0l-0,3.568c0.765,-0.811 1.572,-1.217 2.42,-1.217c1.335,0 2.003,0.807 2.003,2.42l-0,4.874Z" style="fill-rule:nonzero;"/><path d="M86.063,22.671l-1.066,0l0,-4.676c0,-1.13 -0.21,-1.695 -0.629,-1.695c-0.214,0 -0.45,0.195 -0.707,0.585c-0.258,0.389 -0.387,0.605 -0.387,0.646l0,5.14l-1.059,0l-0,-4.676c-0,-1.13 -0.212,-1.695 -0.636,-1.695c-0.21,0 -0.443,0.195 -0.701,0.585c-0.257,0.389 -0.386,0.605 -0.386,0.646l0,5.14l-1.066,0l-0,-7.123l1.025,0l0,1.073c0.201,-0.378 0.439,-0.68 0.715,-0.905c0.275,-0.226 0.55,-0.339 0.823,-0.339c0.287,0 0.545,0.113 0.773,0.339c0.228,0.225 0.385,0.527 0.471,0.905c0.201,-0.378 0.44,-0.68 0.718,-0.905c0.278,-0.226 0.552,-0.339 0.82,-0.339c0.862,0 1.292,0.771 1.292,2.311l0,4.983Z" style="fill-rule:nonzero;"/></g><path d="M45,80.943l0,228.183" style="fill:none;stroke:#000;stroke-width:1px;"/><g transform="matrix(1,0,0,1,-791.708,142.539)"><rect x="812.399" y="33.549" width="48.008" height="11.25" style="fill:#e6e6e6;"/><rect x="815.4" y="43.549" width="42.007" height="11.25" style="fill:#e6e6e6;"/><text x="812.399px" y="42.621px" style="font-family:'AndaleMono', 'Andale Mono', monospace;font-size:10px;">EMBEDDED</text><text x="815.4px" y="52.621px" style="font-family:'AndaleMono', 'Andale Mono', monospace;font-size:10px;">LAYER 1</text></g></g></g></svg>