<?xml version="1.0" encoding="UTF-8" standalone="no"?><!DOCTYPE svg PUBLIC "-//W3C//DTD SVG 1.1//EN" "http://www.w3.org/Graphics/SVG/1.1/DTD/svg11.dtd"><svg width="100%" height="100%" viewBox="0 0 45 380" version="1.1" xmlns="http://www.w3.org/2000/svg" xmlns:xlink="http://www.w3.org/1999/xlink" xml:space="preserve" xmlns:serif="http://www.serif.com/" style="fill-rule:evenodd;clip-rule:evenodd;stroke-miterlimit:1.5;"><rect id="QubitCrusher" x="0" y="0" width="45" height="379.559" style="fill:none;"/><clipPath id="_clip1"><rect x="0" y="0" width="45" height="379.559"/></clipPath><g clip-path="url(#_clip1)"><g id="Layer1"><rect id="background" x="0" y="0" width="45" height="379.559" style="fill:#e6e6e6;"/><g><path d="M19.182,59.319l-2.124,-0l0,6.24l-0.796,0l0,-6.24l-2.134,-0l0,-0.65l5.054,0l0,0.65Z" style="fill-rule:nonzero;"/><path d="M25.383,65.559l-1.001,0l-2.021,-3.13l-0.889,0l0,3.13l-0.801,0l0,-6.89l1.949,0c0.654,0 1.171,0.159 1.55,0.477c0.379,0.317 0.569,0.759 0.569,1.325c-0,0.42 -0.139,0.794 -0.415,1.121c-0.277,0.327 -0.658,0.549 -1.143,0.666l2.202,3.301Zm-3.911,-3.828l1.011,-0c0.423,-0 0.767,-0.115 1.03,-0.344c0.264,-0.23 0.396,-0.519 0.396,-0.867c-0,-0.768 -0.469,-1.152 -1.407,-1.152l-1.03,-0l0,2.363Z" style="fill-rule:nonzero;"/><path d="M30.872,65.071c-0.564,0.413 -1.187,0.62 -1.871,0.62c-0.895,-0 -1.573,-0.304 -2.036,-0.911c-0.462,-0.607 -0.693,-1.495 -0.693,-2.663c-0,-1.13 0.224,-2.009 0.671,-2.637c0.448,-0.628 1.134,-0.942 2.058,-0.942c0.332,-0 0.661,0.042 0.987,0.127c0.325,0.084 0.587,0.197 0.786,0.336l-0.264,0.63c-0.459,-0.26 -0.962,-0.39 -1.509,-0.39c-0.631,-0 -1.102,0.231 -1.413,0.693c-0.311,0.462 -0.466,1.19 -0.466,2.183c-0,1.914 0.626,2.871 1.879,2.871c0.472,-0 0.829,-0.099 1.07,-0.298l-0,-1.699l-1.24,-0l-0,-0.694l2.041,0l-0,2.774Z" style="fill-rule:nonzero;"/></g><g><path d="M16.638,258.639c0.772,-0 1.36,0.305 1.765,0.915c0.406,0.611 0.608,1.499 0.608,2.664c0,1.159 -0.202,2.044 -0.605,2.656c-0.404,0.612 -0.993,0.918 -1.768,0.918c-0.768,0 -1.355,-0.305 -1.76,-0.915c-0.405,-0.611 -0.608,-1.497 -0.608,-2.659c0,-1.162 0.202,-2.049 0.605,-2.661c0.404,-0.612 0.992,-0.918 1.763,-0.918Zm0,6.45c1.016,0 1.524,-0.957 1.524,-2.871c-0,-1.917 -0.508,-2.876 -1.524,-2.876c-0.495,-0 -0.871,0.248 -1.13,0.745c-0.259,0.496 -0.388,1.206 -0.388,2.131c-0,0.934 0.128,1.646 0.385,2.136c0.258,0.49 0.635,0.735 1.133,0.735Z" style="fill-rule:nonzero;"/><path d="M24.631,263.492c0,0.798 -0.162,1.381 -0.485,1.748c-0.324,0.368 -0.817,0.552 -1.478,0.552c-1.331,0 -1.997,-0.76 -1.997,-2.28l0,-4.741l0.801,-0l0,4.668c0,1.1 0.399,1.65 1.196,1.65c0.401,0 0.695,-0.13 0.882,-0.391c0.187,-0.26 0.281,-0.683 0.281,-1.269l-0,-4.658l0.8,-0l0,4.721Z" style="fill-rule:nonzero;"/><path d="M31.184,259.42l-2.124,0l0,6.24l-0.796,0l0,-6.24l-2.134,0l0,-0.649l5.054,-0l0,0.649Z" style="fill-rule:nonzero;"/></g><g><path d="M18.203,104.13l-3.434,0l-0,-0.698l1.302,-0l-0,-5.493l-1.302,-0l-0,-0.699l3.434,0l0,0.699l-1.253,-0l-0,5.493l1.253,-0l0,0.698Z" style="fill-rule:nonzero;"/><path d="M24.566,104.13l-0.976,0l-2.711,-5.439l0,5.439l-0.878,0l-0,-6.89l0.98,0l2.722,5.391l-0,-5.391l0.863,0l-0,6.89Z" style="fill-rule:nonzero;"/><path d="M29.658,98.002c-0.45,-0.14 -0.877,-0.21 -1.281,-0.21c-0.457,0 -0.829,0.095 -1.117,0.286c-0.288,0.19 -0.431,0.461 -0.431,0.813c-0,0.416 0.377,0.783 1.13,1.098c0.557,0.235 0.926,0.398 1.107,0.489c0.18,0.091 0.363,0.216 0.549,0.376c0.186,0.159 0.335,0.347 0.447,0.564c0.113,0.216 0.169,0.459 0.169,0.73c0,0.67 -0.247,1.19 -0.742,1.56c-0.495,0.369 -1.078,0.554 -1.749,0.554c-0.651,-0 -1.22,-0.117 -1.71,-0.352l0.183,-0.688c0.575,0.237 1.076,0.356 1.505,0.356c0.5,0 0.901,-0.118 1.203,-0.354c0.302,-0.236 0.453,-0.56 0.453,-0.974c-0,-0.306 -0.098,-0.565 -0.295,-0.779c-0.196,-0.213 -0.559,-0.43 -1.088,-0.652c-0.543,-0.227 -0.893,-0.383 -1.052,-0.466c-0.159,-0.083 -0.317,-0.198 -0.475,-0.344c-0.157,-0.147 -0.278,-0.311 -0.364,-0.493c-0.086,-0.183 -0.129,-0.381 -0.129,-0.596c0,-0.57 0.225,-1.014 0.676,-1.333c0.45,-0.319 1.019,-0.478 1.709,-0.478c0.503,-0 1.003,0.07 1.5,0.209l-0.198,0.684Z" style="fill-rule:nonzero;"/></g><g><g><path d="M9.361,32.152c-0.397,0.123 -0.789,0.184 -1.176,0.184c-1.003,0 -1.652,-0.546 -1.948,-1.64c-0.178,0.032 -0.328,0.048 -0.451,0.048c-1.076,-0 -1.897,-0.428 -2.465,-1.282c-0.567,-0.855 -0.851,-2.095 -0.851,-3.722c0,-1.627 0.283,-2.869 0.848,-3.726c0.565,-0.857 1.388,-1.285 2.468,-1.285c1.08,-0 1.903,0.427 2.471,1.282c0.567,0.854 0.851,2.097 0.851,3.729c-0,2.37 -0.593,3.91 -1.777,4.621c0.168,0.665 0.489,0.998 0.963,0.998c0.265,-0 0.554,-0.034 0.869,-0.103l0.198,0.896Zm-3.575,-2.393c1.422,0 2.132,-1.34 2.132,-4.019c0,-2.685 -0.71,-4.027 -2.132,-4.027c-0.693,0 -1.221,0.348 -1.583,1.043c-0.362,0.695 -0.543,1.689 -0.543,2.984c-0,1.308 0.18,2.305 0.54,2.99c0.36,0.686 0.888,1.029 1.586,1.029Z" style="fill-rule:nonzero;"/><path d="M16.949,30.559l-1.067,0l0,-1.053c-0.765,0.816 -1.572,1.224 -2.42,1.224c-1.335,-0 -2.003,-0.809 -2.003,-2.427l0,-4.867l1.067,0l-0,4.56c-0,0.606 0.096,1.058 0.287,1.357c0.191,0.298 0.515,0.447 0.971,0.447c0.651,0 1.351,-0.405 2.098,-1.217l0,-5.147l1.067,0l-0,7.123Z" style="fill-rule:nonzero;"/><path d="M20.941,24.359c0.237,-0.328 0.557,-0.593 0.96,-0.793c0.404,-0.201 0.829,-0.301 1.275,-0.301c0.83,0 1.476,0.333 1.938,0.998c0.463,0.666 0.694,1.541 0.694,2.625c0,1.098 -0.246,2.016 -0.738,2.752c-0.492,0.736 -1.151,1.104 -1.976,1.104c-0.442,-0 -0.855,-0.111 -1.24,-0.332c-0.386,-0.221 -0.69,-0.514 -0.913,-0.878l-0,1.025l-1.066,0l-0,-9.645l1.066,-0l-0,3.445Zm-0,1.059l-0,2.96c0.2,0.401 0.472,0.736 0.813,1.005c0.342,0.269 0.695,0.404 1.06,0.404c0.574,-0 1.031,-0.274 1.371,-0.821c0.339,-0.547 0.509,-1.219 0.509,-2.016c-0,-0.821 -0.162,-1.486 -0.486,-1.996c-0.323,-0.511 -0.774,-0.766 -1.353,-0.766c-0.752,-0 -1.39,0.41 -1.914,1.23Z" style="fill-rule:nonzero;"/><path d="M31.468,20.743c0.201,-0 0.372,0.071 0.513,0.215c0.141,0.144 0.212,0.316 0.212,0.516c-0,0.21 -0.07,0.385 -0.209,0.526c-0.139,0.142 -0.311,0.212 -0.516,0.212c-0.187,0 -0.352,-0.074 -0.495,-0.222c-0.144,-0.148 -0.216,-0.32 -0.216,-0.516c0,-0.196 0.072,-0.367 0.216,-0.513c0.143,-0.145 0.308,-0.218 0.495,-0.218Zm0.52,9.816l-1.067,0l0,-6.2l-2.098,-0l-0,-0.923l3.165,0l-0,7.123Z" style="fill-rule:nonzero;"/><path d="M42.235,30.238c-0.716,0.328 -1.42,0.492 -2.112,0.492c-1.272,-0 -1.908,-0.672 -1.908,-2.017l0,-4.354l-1.367,-0l0,-0.923l1.367,0l0,-1.948l1.039,-0l0,1.948l2.42,0l0,0.923l-2.42,-0l0,4.074c0,0.433 0.096,0.769 0.288,1.008c0.191,0.24 0.451,0.359 0.779,0.359c0.583,0 1.16,-0.13 1.729,-0.389l0.185,0.827Z" style="fill-rule:nonzero;"/></g><g><path d="M6.832,42.897c-0.541,0.375 -1.167,0.562 -1.88,0.562c-0.892,-0 -1.57,-0.306 -2.034,-0.918c-0.464,-0.612 -0.696,-1.497 -0.696,-2.656c0,-1.12 0.225,-1.997 0.674,-2.63c0.449,-0.633 1.134,-0.949 2.056,-0.949c0.332,-0 0.66,0.042 0.986,0.127c0.326,0.084 0.588,0.197 0.786,0.337l-0.264,0.629c-0.459,-0.26 -0.961,-0.39 -1.508,-0.39c-0.635,-0 -1.107,0.23 -1.416,0.691c-0.31,0.46 -0.464,1.189 -0.464,2.185c-0,1.914 0.626,2.871 1.88,2.871c0.53,-0 1.074,-0.163 1.631,-0.488l0.249,0.629Z" style="fill-rule:nonzero;"/><path d="M12.652,38.376l-0.308,0.732c-0.335,-0.146 -0.625,-0.219 -0.869,-0.219c-0.225,-0 -0.444,0.064 -0.659,0.193c-0.215,0.128 -0.413,0.312 -0.593,0.551c-0.181,0.24 -0.271,0.374 -0.271,0.403l-0,3.291l-0.757,0l-0,-5.088l0.757,0l-0,1.031c0.407,-0.769 0.934,-1.153 1.582,-1.153c0.384,0 0.757,0.086 1.118,0.259Z" style="fill-rule:nonzero;"/><path d="M18.565,43.327l-0.762,0l0,-0.752c-0.547,0.583 -1.123,0.874 -1.728,0.874c-0.954,0 -1.431,-0.578 -1.431,-1.733l0,-3.477l0.762,0l-0,3.257c-0,0.433 0.068,0.756 0.205,0.969c0.137,0.214 0.368,0.32 0.693,0.32c0.466,0 0.965,-0.29 1.499,-0.869l0,-3.677l0.762,0l-0,5.088Z" style="fill-rule:nonzero;"/><path d="M24.043,38.967c-0.426,-0.14 -0.828,-0.21 -1.206,-0.21c-0.413,-0 -0.74,0.069 -0.981,0.207c-0.241,0.139 -0.361,0.323 -0.361,0.555c-0,0.146 0.055,0.274 0.166,0.383c0.11,0.109 0.332,0.211 0.664,0.305l0.727,0.21c0.336,0.094 0.609,0.207 0.821,0.339c0.211,0.132 0.37,0.292 0.476,0.479c0.105,0.187 0.158,0.404 0.158,0.652c0,0.485 -0.203,0.868 -0.61,1.15c-0.407,0.281 -0.925,0.422 -1.553,0.422c-0.625,-0 -1.141,-0.094 -1.548,-0.283l0.147,-0.659c0.426,0.201 0.884,0.302 1.372,0.302c0.423,0 0.767,-0.079 1.033,-0.237c0.265,-0.157 0.398,-0.367 0.398,-0.627c-0,-0.176 -0.066,-0.333 -0.198,-0.471c-0.132,-0.138 -0.442,-0.283 -0.93,-0.432c-0.394,-0.121 -0.684,-0.211 -0.869,-0.271c-0.186,-0.06 -0.359,-0.149 -0.518,-0.266c-0.16,-0.118 -0.281,-0.258 -0.364,-0.42c-0.083,-0.163 -0.124,-0.345 -0.124,-0.547c-0,-0.44 0.192,-0.788 0.576,-1.045c0.384,-0.257 0.893,-0.386 1.528,-0.386c0.41,0 0.866,0.07 1.367,0.21l-0.171,0.64Z" style="fill-rule:nonzero;"/><path d="M30.577,43.327l-0.762,0l-0,-3.262c-0,-0.452 -0.072,-0.78 -0.217,-0.983c-0.145,-0.204 -0.372,-0.306 -0.681,-0.306c-0.466,0 -0.966,0.29 -1.5,0.869l0,3.682l-0.761,0l-0,-6.89l0.761,0l0,2.549c0.547,-0.579 1.124,-0.869 1.729,-0.869c0.954,0 1.431,0.576 1.431,1.729l-0,3.481Z" style="fill-rule:nonzero;"/><path d="M36.729,40.808l-3.491,-0c-0,0.576 0.167,1.051 0.5,1.425c0.334,0.375 0.743,0.562 1.228,0.562c0.463,-0 0.939,-0.083 1.431,-0.249l0.132,0.61c-0.449,0.202 -0.973,0.303 -1.572,0.303c-0.756,-0 -1.364,-0.243 -1.827,-0.728c-0.462,-0.485 -0.693,-1.139 -0.693,-1.962c0,-0.808 0.208,-1.451 0.623,-1.932c0.415,-0.48 0.951,-0.72 1.608,-0.72c0.586,0 1.076,0.223 1.47,0.669c0.394,0.446 0.591,1.04 0.591,1.782l0,0.24Zm-0.83,-0.621c-0,-0.397 -0.124,-0.731 -0.371,-1.003c-0.248,-0.272 -0.524,-0.408 -0.83,-0.408c-0.394,0 -0.72,0.131 -0.979,0.391c-0.259,0.26 -0.403,0.601 -0.432,1.02l2.612,0Z" style="fill-rule:nonzero;"/><path d="M42.657,38.376l-0.308,0.732c-0.335,-0.146 -0.625,-0.219 -0.869,-0.219c-0.225,-0 -0.444,0.064 -0.659,0.193c-0.215,0.128 -0.413,0.312 -0.593,0.551c-0.181,0.24 -0.271,0.374 -0.271,0.403l-0,3.291l-0.757,0l-0,-5.088l0.757,0l-0,1.031c0.406,-0.769 0.934,-1.153 1.582,-1.153c0.384,0 0.756,0.086 1.118,0.259Z" style="fill-rule:nonzero;"/></g></g><path d="M22.353,18.791c4.099,-3.06 8.161,-4.124 10.776,-2.378c4.323,2.885 3.07,12.363 -2.796,21.152c-5.867,8.789 -14.139,13.581 -18.462,10.695c-1.217,-0.812 -1.992,-2.146 -2.347,-3.84" style="fill:none;stroke:#0ef;stroke-width:1px;"/><circle cx="22.5" cy="34.321" r="1.985" style="fill:#0ef;"/></g></g></svg>