<?xml version="1.0" encoding="UTF-8" standalone="no"?><!DOCTYPE svg PUBLIC "-//W3C//DTD SVG 1.1//EN" "http://www.w3.org/Graphics/SVG/1.1/DTD/svg11.dtd"><svg width="100%" height="100%" viewBox="0 0 45 380" version="1.1" xmlns="http://www.w3.org/2000/svg" xmlns:xlink="http://www.w3.org/1999/xlink" xml:space="preserve" xmlns:serif="http://www.serif.com/" style="fill-rule:evenodd;clip-rule:evenodd;stroke-linejoin:round;stroke-miterlimit:2;"><rect id="QubitCrusher" x="0" y="0" width="45" height="379.559" style="fill:none;"/><clipPath id="_clip1"><rect x="0" y="0" width="45" height="379.559"/></clipPath><g clip-path="url(#_clip1)"><g id="Layer1"><rect id="background" x="0" y="0" width="45" height="379.559" style="fill:#e6e6e6;"/><g><path d="M19.182,59.319l-2.124,-0l0,6.24l-0.796,0l0,-6.24l-2.134,-0l0,-0.65l5.054,0l0,0.65Z" style="fill-rule:nonzero;"/><path d="M25.383,65.559l-1.001,0l-2.021,-3.13l-0.889,0l0,3.13l-0.801,0l0,-6.89l1.949,0c0.654,0 1.171,0.159 1.55,0.477c0.379,0.317 0.569,0.759 0.569,1.325c-0,0.42 -0.139,0.794 -0.415,1.121c-0.277,0.327 -0.658,0.549 -1.143,0.666l2.202,3.301Zm-3.911,-3.828l1.011,-0c0.423,-0 0.767,-0.115 1.03,-0.344c0.264,-0.23 0.396,-0.519 0.396,-0.867c-0,-0.768 -0.469,-1.152 -1.407,-1.152l-1.03,-0l0,2.363Z" style="fill-rule:nonzero;"/><path d="M30.872,65.071c-0.564,0.413 -1.187,0.62 -1.871,0.62c-0.895,-0 -1.573,-0.304 -2.036,-0.911c-0.462,-0.607 -0.693,-1.495 -0.693,-2.663c-0,-1.13 0.224,-2.009 0.671,-2.637c0.448,-0.628 1.134,-0.942 2.058,-0.942c0.332,-0 0.661,0.042 0.987,0.127c0.325,0.084 0.587,0.197 0.786,0.336l-0.264,0.63c-0.459,-0.26 -0.962,-0.39 -1.509,-0.39c-0.631,-0 -1.102,0.231 -1.413,0.693c-0.311,0.462 -0.466,1.19 -0.466,2.183c-0,1.914 0.626,2.871 1.879,2.871c0.472,-0 0.829,-0.099 1.07,-0.298l-0,-1.699l-1.24,-0l-0,-0.694l2.041,0l-0,2.774Z" style="fill-rule:nonzero;"/></g><g><path d="M16.638,301.973c0.772,-0 1.36,0.305 1.765,0.915c0.406,0.611 0.608,1.499 0.608,2.664c0,1.159 -0.202,2.044 -0.605,2.656c-0.404,0.612 -0.993,0.918 -1.768,0.918c-0.768,0 -1.355,-0.305 -1.76,-0.915c-0.405,-0.611 -0.608,-1.497 -0.608,-2.659c0,-1.162 0.202,-2.049 0.605,-2.661c0.404,-0.612 0.992,-0.918 1.763,-0.918Zm0,6.45c1.016,-0 1.524,-0.957 1.524,-2.871c-0,-1.917 -0.508,-2.876 -1.524,-2.876c-0.495,-0 -0.871,0.248 -1.13,0.745c-0.259,0.496 -0.388,1.206 -0.388,2.131c-0,0.934 0.128,1.646 0.385,2.136c0.258,0.49 0.635,0.735 1.133,0.735Z" style="fill-rule:nonzero;"/><path d="M24.631,306.826c0,0.798 -0.162,1.381 -0.485,1.748c-0.324,0.368 -0.817,0.552 -1.478,0.552c-1.331,0 -1.997,-0.76 -1.997,-2.28l0,-4.741l0.801,-0l0,4.668c0,1.1 0.399,1.65 1.196,1.65c0.401,-0 0.695,-0.13 0.882,-0.391c0.187,-0.26 0.281,-0.683 0.281,-1.269l-0,-4.658l0.8,-0l0,4.721Z" style="fill-rule:nonzero;"/><path d="M31.184,302.754l-2.124,0l0,6.24l-0.796,0l0,-6.24l-2.134,0l0,-0.649l5.054,-0l0,0.649Z" style="fill-rule:nonzero;"/></g><path d="M30.511,293.633c1.104,-0 2,0.896 2,2c0,1.104 -0.896,2 -2,2c-1.104,-0 -2,-0.896 -2,-2c0,-1.104 0.896,-2 2,-2Zm0,1c0.552,-0 1,0.448 1,1c0,0.552 -0.448,1 -1,1c-0.552,-0 -1,-0.448 -1,-1c0,-0.552 0.448,-1 1,-1Z"/><circle cx="14.489" cy="295.633" r="2" style="fill:#8000db;"/><circle cx="7.024" cy="277.61" r="2" style="fill:#2600ff;"/><circle cx="22.5" cy="265.735" r="2" style="fill:#0ef;"/><circle cx="37.976" cy="277.61" r="2" style="fill:#f00;"/><circle cx="22.488" cy="119.827" r="13.488" style="fill:#8000db;"/><g><path d="M18.203,104.13l-3.434,0l-0,-0.698l1.302,-0l-0,-5.493l-1.302,-0l-0,-0.699l3.434,0l0,0.699l-1.253,-0l-0,5.493l1.253,-0l0,0.698Z" style="fill-rule:nonzero;"/><path d="M24.566,104.13l-0.976,0l-2.711,-5.439l0,5.439l-0.878,0l-0,-6.89l0.98,0l2.722,5.391l-0,-5.391l0.863,0l-0,6.89Z" style="fill-rule:nonzero;"/><path d="M29.658,98.002c-0.45,-0.14 -0.877,-0.21 -1.281,-0.21c-0.457,0 -0.829,0.095 -1.117,0.286c-0.288,0.19 -0.431,0.461 -0.431,0.813c-0,0.416 0.377,0.783 1.13,1.098c0.557,0.235 0.926,0.398 1.107,0.489c0.18,0.091 0.363,0.216 0.549,0.376c0.186,0.159 0.335,0.347 0.447,0.564c0.113,0.216 0.169,0.459 0.169,0.73c0,0.67 -0.247,1.19 -0.742,1.56c-0.495,0.369 -1.078,0.554 -1.749,0.554c-0.651,-0 -1.22,-0.117 -1.71,-0.352l0.183,-0.688c0.575,0.237 1.076,0.356 1.505,0.356c0.5,0 0.901,-0.118 1.203,-0.354c0.302,-0.236 0.453,-0.56 0.453,-0.974c-0,-0.306 -0.098,-0.565 -0.295,-0.779c-0.196,-0.213 -0.559,-0.43 -1.088,-0.652c-0.543,-0.227 -0.893,-0.383 -1.052,-0.466c-0.159,-0.083 -0.317,-0.198 -0.475,-0.344c-0.157,-0.147 -0.278,-0.311 -0.364,-0.493c-0.086,-0.183 -0.129,-0.381 -0.129,-0.596c0,-0.57 0.225,-1.014 0.676,-1.333c0.45,-0.319 1.019,-0.478 1.709,-0.478c0.503,-0 1.003,0.07 1.5,0.209l-0.198,0.684Z" style="fill-rule:nonzero;"/></g><g><text x="1.602px" y="30.559px" style="font-family:'AndaleMono', 'Andale Mono', monospace;font-size:14px;">Qubit</text><text x="1.602px" y="43.327px" style="font-family:'AndaleMono', 'Andale Mono', monospace;font-size:10px;">Crusher</text></g></g></g></svg>