<?xml version="1.0" encoding="UTF-8" standalone="no"?><!DOCTYPE svg PUBLIC "-//W3C//DTD SVG 1.1//EN" "http://www.w3.org/Graphics/SVG/1.1/DTD/svg11.dtd"><svg width="100%" height="100%" viewBox="0 0 45 380" version="1.1" xmlns="http://www.w3.org/2000/svg" xmlns:xlink="http://www.w3.org/1999/xlink" xml:space="preserve" xmlns:serif="http://www.serif.com/" style="fill-rule:evenodd;clip-rule:evenodd;stroke-linecap:square;stroke-linejoin:round;stroke-miterlimit:1.5;"><rect id="RandGates" x="0" y="0" width="45" height="379.559" style="fill:none;"/><clipPath id="_clip1"><rect x="0" y="0" width="45" height="379.559"/></clipPath><g clip-path="url(#_clip1)"><g id="Layer1"><rect id="background" x="0" y="0" width="45" height="379.559" style="fill:#e6e6e6;"/><path d="M22.54,119.827l-0,121.348" style="fill:none;stroke:#000;stroke-width:1px;"/><g><path d="M19.182,59.319l-2.124,-0l0,6.24l-0.796,0l0,-6.24l-2.134,-0l0,-0.65l5.054,0l0,0.65Z" style="fill-rule:nonzero;"/><path d="M25.383,65.559l-1.001,0l-2.021,-3.13l-0.889,0l0,3.13l-0.801,0l0,-6.89l1.949,0c0.654,0 1.171,0.159 1.55,0.477c0.379,0.317 0.569,0.759 0.569,1.325c-0,0.42 -0.139,0.794 -0.415,1.121c-0.277,0.327 -0.658,0.549 -1.143,0.666l2.202,3.301Zm-3.911,-3.828l1.011,-0c0.423,-0 0.767,-0.115 1.03,-0.344c0.264,-0.23 0.396,-0.519 0.396,-0.867c-0,-0.768 -0.469,-1.152 -1.407,-1.152l-1.03,-0l0,2.363Z" style="fill-rule:nonzero;"/><path d="M30.872,65.071c-0.564,0.413 -1.187,0.62 -1.871,0.62c-0.895,-0 -1.573,-0.304 -2.036,-0.911c-0.462,-0.607 -0.693,-1.495 -0.693,-2.663c-0,-1.13 0.224,-2.009 0.671,-2.637c0.448,-0.628 1.134,-0.942 2.058,-0.942c0.332,-0 0.661,0.042 0.987,0.127c0.325,0.084 0.587,0.197 0.786,0.336l-0.264,0.63c-0.459,-0.26 -0.962,-0.39 -1.509,-0.39c-0.631,-0 -1.102,0.231 -1.413,0.693c-0.311,0.462 -0.466,1.19 -0.466,2.183c-0,1.914 0.626,2.871 1.879,2.871c0.472,-0 0.829,-0.099 1.07,-0.298l-0,-1.699l-1.24,-0l-0,-0.694l2.041,0l-0,2.774Z" style="fill-rule:nonzero;"/></g><g><path d="M16.638,301.973c0.772,-0 1.36,0.305 1.765,0.915c0.406,0.611 0.608,1.499 0.608,2.664c0,1.159 -0.202,2.044 -0.605,2.656c-0.404,0.612 -0.993,0.918 -1.768,0.918c-0.768,0 -1.355,-0.305 -1.76,-0.915c-0.405,-0.611 -0.608,-1.497 -0.608,-2.659c0,-1.162 0.202,-2.049 0.605,-2.661c0.404,-0.612 0.992,-0.918 1.763,-0.918Zm0,6.45c1.016,-0 1.524,-0.957 1.524,-2.871c-0,-1.917 -0.508,-2.876 -1.524,-2.876c-0.495,-0 -0.871,0.248 -1.13,0.745c-0.259,0.496 -0.388,1.206 -0.388,2.131c-0,0.934 0.128,1.646 0.385,2.136c0.258,0.49 0.635,0.735 1.133,0.735Z" style="fill-rule:nonzero;"/><path d="M24.631,306.826c0,0.798 -0.162,1.381 -0.485,1.748c-0.324,0.368 -0.817,0.552 -1.478,0.552c-1.331,0 -1.997,-0.76 -1.997,-2.28l0,-4.741l0.801,-0l0,4.668c0,1.1 0.399,1.65 1.196,1.65c0.401,-0 0.695,-0.13 0.882,-0.391c0.187,-0.26 0.281,-0.683 0.281,-1.269l-0,-4.658l0.8,-0l0,4.721Z" style="fill-rule:nonzero;"/><path d="M31.184,302.754l-2.124,0l0,6.24l-0.796,0l0,-6.24l-2.134,0l0,-0.649l5.054,-0l0,0.649Z" style="fill-rule:nonzero;"/></g><g><path d="M15.142,30.44l-1.501,0l-3.033,-4.695l-1.333,0l0,4.695l-1.201,0l0,-10.334l2.923,-0c0.981,-0 1.756,0.238 2.325,0.714c0.569,0.476 0.853,1.139 0.853,1.988c0,0.63 -0.207,1.191 -0.622,1.681c-0.415,0.491 -0.987,0.824 -1.714,1l3.303,4.951Zm-5.867,-5.742l1.517,-0c0.634,-0 1.149,-0.172 1.545,-0.516c0.395,-0.345 0.593,-0.778 0.593,-1.3c0,-1.153 -0.703,-1.729 -2.109,-1.729l-1.546,0l0,3.545Z" style="fill:#2600ff;fill-rule:nonzero;"/><path d="M22.066,30.44l-1.135,0c-0.093,-0.307 -0.139,-0.718 -0.139,-1.23c-0.649,0.952 -1.533,1.428 -2.651,1.428c-0.567,-0 -1.066,-0.202 -1.498,-0.604c-0.432,-0.403 -0.648,-0.922 -0.648,-1.557c-0,-0.376 0.075,-0.708 0.227,-0.996c0.151,-0.288 0.373,-0.531 0.666,-0.729c0.293,-0.197 0.65,-0.354 1.07,-0.468c0.419,-0.115 0.917,-0.194 1.494,-0.238l1.281,-0.103l0,-0.366c0,-1.309 -0.61,-1.963 -1.831,-1.963c-0.288,-0 -0.653,0.062 -1.095,0.187c-0.442,0.124 -0.821,0.272 -1.139,0.443l-0.3,-0.82c1.04,-0.533 2.007,-0.799 2.901,-0.799c1.738,0 2.607,0.921 2.607,2.761l-0,3.282c-0,0.664 0.063,1.255 0.19,1.772Zm-1.333,-2.263l0,-1.384c-1.03,0.092 -1.737,0.179 -2.12,0.26c-0.383,0.08 -0.715,0.23 -0.996,0.45c-0.281,0.22 -0.421,0.518 -0.421,0.894c-0,0.341 0.119,0.617 0.359,0.827c0.239,0.21 0.544,0.315 0.915,0.315c0.405,0 0.808,-0.121 1.209,-0.362c0.4,-0.242 0.752,-0.575 1.054,-1Z" style="fill:#2600ff;fill-rule:nonzero;"/><path d="M29.752,30.44l-1.142,0l-0,-4.892c-0,-0.679 -0.109,-1.171 -0.326,-1.476c-0.217,-0.305 -0.558,-0.458 -1.022,-0.458c-0.698,-0 -1.448,0.435 -2.248,1.304l-0,5.522l-1.143,0l0,-7.632l1.143,0l-0,1.121c0.82,-0.869 1.684,-1.304 2.592,-1.304c1.431,0 2.146,0.864 2.146,2.593l0,5.222Z" style="fill:#2600ff;fill-rule:nonzero;"/><path d="M37.6,30.44l-1.143,0l0,-1.098c-0.234,0.375 -0.57,0.686 -1.007,0.93c-0.437,0.244 -0.897,0.366 -1.381,0.366c-0.874,-0 -1.565,-0.389 -2.072,-1.168c-0.508,-0.779 -0.762,-1.767 -0.762,-2.963c-0,-1.118 0.265,-2.045 0.795,-2.779c0.529,-0.735 1.231,-1.103 2.105,-1.103c0.962,0 1.736,0.391 2.322,1.172l0,-3.691l1.143,-0l-0,10.334Zm-1.143,-2.336l0,-3.172c-0.547,-0.879 -1.206,-1.318 -1.978,-1.318c-0.629,-0 -1.127,0.28 -1.494,0.839c-0.366,0.559 -0.549,1.265 -0.549,2.12c0,0.879 0.172,1.605 0.516,2.179c0.345,0.574 0.817,0.861 1.418,0.861c0.288,-0 0.578,-0.079 0.871,-0.235c0.293,-0.156 0.569,-0.39 0.828,-0.703c0.259,-0.312 0.388,-0.503 0.388,-0.571Z" style="fill:#2600ff;fill-rule:nonzero;"/><path d="M10.435,44.708c-0.845,0.62 -1.78,0.93 -2.805,0.93c-1.343,-0 -2.361,-0.455 -3.055,-1.366c-0.693,-0.911 -1.04,-2.242 -1.04,-3.995c0,-1.695 0.336,-3.013 1.007,-3.955c0.672,-0.943 1.701,-1.414 3.088,-1.414c0.498,-0 0.991,0.063 1.479,0.19c0.488,0.127 0.881,0.296 1.179,0.506l-0.395,0.945c-0.689,-0.391 -1.443,-0.586 -2.263,-0.586c-0.948,-0 -1.654,0.346 -2.121,1.04c-0.466,0.693 -0.699,1.784 -0.699,3.274c-0,2.871 0.94,4.306 2.82,4.306c0.708,0 1.242,-0.149 1.604,-0.447l-0,-2.548l-1.861,-0l0,-1.04l3.062,-0l-0,4.16Z" style="fill:#2600ff;fill-rule:nonzero;"/><path d="M18.128,45.44l-1.135,0c-0.093,-0.307 -0.139,-0.718 -0.139,-1.23c-0.65,0.952 -1.533,1.428 -2.652,1.428c-0.566,-0 -1.065,-0.202 -1.497,-0.604c-0.433,-0.403 -0.649,-0.922 -0.649,-1.557c0,-0.376 0.076,-0.708 0.227,-0.996c0.152,-0.288 0.374,-0.531 0.667,-0.729c0.293,-0.197 0.649,-0.354 1.069,-0.468c0.42,-0.115 0.918,-0.194 1.494,-0.238l1.282,-0.103l0,-0.366c0,-1.309 -0.61,-1.963 -1.831,-1.963c-0.288,-0 -0.653,0.062 -1.095,0.187c-0.442,0.124 -0.821,0.272 -1.139,0.443l-0.3,-0.82c1.04,-0.533 2.007,-0.799 2.9,-0.799c1.739,0 2.608,0.921 2.608,2.761l-0,3.282c-0,0.664 0.063,1.255 0.19,1.772Zm-1.333,-2.263l0,-1.384c-1.03,0.092 -1.737,0.179 -2.12,0.26c-0.383,0.08 -0.716,0.23 -0.996,0.45c-0.281,0.22 -0.421,0.518 -0.421,0.894c-0,0.341 0.119,0.617 0.358,0.827c0.24,0.21 0.545,0.315 0.916,0.315c0.405,0 0.808,-0.121 1.208,-0.362c0.401,-0.242 0.752,-0.575 1.055,-1Z" style="fill:#2600ff;fill-rule:nonzero;"/><path d="M25.887,45.096c-0.766,0.351 -1.521,0.527 -2.263,0.527c-1.362,0 -2.043,-0.72 -2.043,-2.16l-0,-4.666l-1.465,0l-0,-0.989l1.465,0l-0,-2.087l1.113,-0l0,2.087l2.593,0l-0,0.989l-2.593,0l0,4.365c0,0.464 0.103,0.824 0.308,1.081c0.205,0.256 0.483,0.384 0.835,0.384c0.625,0 1.242,-0.139 1.853,-0.417l0.197,0.886Z" style="fill:#2600ff;fill-rule:nonzero;"/><path d="M33.918,41.661l-5.237,-0c-0,0.864 0.25,1.577 0.751,2.139c0.5,0.561 1.114,0.842 1.842,0.842c0.693,-0 1.408,-0.125 2.146,-0.374l0.197,0.916c-0.673,0.303 -1.46,0.454 -2.358,0.454c-1.133,-0 -2.046,-0.364 -2.739,-1.091c-0.694,-0.728 -1.04,-1.709 -1.04,-2.945c-0,-1.211 0.311,-2.176 0.934,-2.896c0.622,-0.721 1.427,-1.081 2.413,-1.081c0.879,0 1.614,0.335 2.204,1.004c0.591,0.669 0.887,1.56 0.887,2.673l-0,0.359Zm-1.245,-0.93c-0,-0.596 -0.186,-1.098 -0.557,-1.505c-0.371,-0.408 -0.786,-0.612 -1.245,-0.612c-0.591,-0 -1.08,0.195 -1.469,0.586c-0.388,0.391 -0.604,0.901 -0.648,1.531l3.919,-0Z" style="fill:#2600ff;fill-rule:nonzero;"/><path d="M40.769,38.9c-0.64,-0.21 -1.243,-0.315 -1.809,-0.315c-0.62,-0 -1.111,0.103 -1.472,0.311c-0.362,0.207 -0.542,0.485 -0.542,0.831c-0,0.22 0.083,0.412 0.249,0.575c0.166,0.164 0.498,0.316 0.996,0.458l1.091,0.315c0.503,0.142 0.913,0.311 1.23,0.509c0.318,0.198 0.556,0.437 0.715,0.718c0.158,0.28 0.238,0.606 0.238,0.978c-0,0.727 -0.306,1.302 -0.916,1.724c-0.61,0.423 -1.387,0.634 -2.329,0.634c-0.938,-0 -1.711,-0.142 -2.322,-0.425l0.22,-0.989c0.64,0.303 1.326,0.454 2.058,0.454c0.635,0 1.151,-0.118 1.549,-0.355c0.398,-0.237 0.597,-0.55 0.597,-0.941c0,-0.264 -0.099,-0.499 -0.297,-0.707c-0.197,-0.207 -0.662,-0.423 -1.395,-0.648c-0.591,-0.181 -1.025,-0.316 -1.304,-0.406c-0.278,-0.091 -0.537,-0.224 -0.776,-0.4c-0.239,-0.175 -0.421,-0.385 -0.546,-0.629c-0.124,-0.245 -0.186,-0.518 -0.186,-0.821c-0,-0.659 0.288,-1.181 0.864,-1.567c0.576,-0.386 1.34,-0.579 2.292,-0.579c0.616,0 1.299,0.105 2.051,0.315l-0.256,0.96Z" style="fill:#2600ff;fill-rule:nonzero;"/></g><path d="M30.511,293.633c1.104,-0 2,0.896 2,2c0,1.104 -0.896,2 -2,2c-1.104,-0 -2,-0.896 -2,-2c0,-1.104 0.896,-2 2,-2Zm0,1c0.552,-0 1,0.448 1,1c0,0.552 -0.448,1 -1,1c-0.552,-0 -1,-0.448 -1,-1c0,-0.552 0.448,-1 1,-1Z"/><circle cx="14.489" cy="295.633" r="2" style="fill:#8000db;"/><circle cx="7.024" cy="277.61" r="2" style="fill:#2600ff;"/><circle cx="22.5" cy="265.735" r="2" style="fill:#0ef;"/><circle cx="37.976" cy="277.61" r="2" style="fill:#f00;"/><circle cx="22.488" cy="119.827" r="13.488" style="fill:#8000db;"/><circle cx="22.5" cy="160.277" r="13.488" style="fill:#2600ff;"/><circle cx="22.512" cy="200.726" r="13.488" style="fill:#0ef;"/><circle cx="22.523" cy="241.175" r="13.488" style="fill:#f00;"/><g><path d="M18.203,104.13l-3.434,0l-0,-0.698l1.302,-0l-0,-5.493l-1.302,-0l-0,-0.699l3.434,0l0,0.699l-1.253,-0l-0,5.493l1.253,-0l0,0.698Z" style="fill-rule:nonzero;"/><path d="M24.566,104.13l-0.976,0l-2.711,-5.439l0,5.439l-0.878,0l-0,-6.89l0.98,0l2.722,5.391l-0,-5.391l0.863,0l-0,6.89Z" style="fill-rule:nonzero;"/><path d="M29.658,98.002c-0.45,-0.14 -0.877,-0.21 -1.281,-0.21c-0.457,0 -0.829,0.095 -1.117,0.286c-0.288,0.19 -0.431,0.461 -0.431,0.813c-0,0.416 0.377,0.783 1.13,1.098c0.557,0.235 0.926,0.398 1.107,0.489c0.18,0.091 0.363,0.216 0.549,0.376c0.186,0.159 0.335,0.347 0.447,0.564c0.113,0.216 0.169,0.459 0.169,0.73c0,0.67 -0.247,1.19 -0.742,1.56c-0.495,0.369 -1.078,0.554 -1.749,0.554c-0.651,-0 -1.22,-0.117 -1.71,-0.352l0.183,-0.688c0.575,0.237 1.076,0.356 1.505,0.356c0.5,0 0.901,-0.118 1.203,-0.354c0.302,-0.236 0.453,-0.56 0.453,-0.974c-0,-0.306 -0.098,-0.565 -0.295,-0.779c-0.196,-0.213 -0.559,-0.43 -1.088,-0.652c-0.543,-0.227 -0.893,-0.383 -1.052,-0.466c-0.159,-0.083 -0.317,-0.198 -0.475,-0.344c-0.157,-0.147 -0.278,-0.311 -0.364,-0.493c-0.086,-0.183 -0.129,-0.381 -0.129,-0.596c0,-0.57 0.225,-1.014 0.676,-1.333c0.45,-0.319 1.019,-0.478 1.709,-0.478c0.503,-0 1.003,0.07 1.5,0.209l-0.198,0.684Z" style="fill-rule:nonzero;"/></g><g id="Logo"><path d="M21.356,353.606l0.718,0c0.117,0 0.217,-0.037 0.301,-0.113c0.083,-0.075 0.125,-0.165 0.125,-0.271c-0,-0.841 -0.331,-1.56 -0.992,-2.155c-0.661,-0.596 -1.458,-0.894 -2.392,-0.894l-2.958,0c-0.117,0 -0.218,0.038 -0.301,0.113c-0.084,0.075 -0.125,0.166 -0.125,0.271l-0,5.336c-0,0.101 0.041,0.19 0.125,0.265c0.083,0.075 0.184,0.113 0.301,0.113l5.916,-0c0.117,-0 0.217,-0.038 0.301,-0.113c0.083,-0.075 0.125,-0.164 0.125,-0.265c-0,-0.915 -0.381,-1.677 -1.144,-2.287Zm-0.447,-2c0.384,0.346 0.621,0.756 0.711,1.232l-1.32,-0c-0.09,-0.216 -0.243,-0.391 -0.46,-0.528c-0.217,-0.136 -0.458,-0.204 -0.724,-0.204c-0.352,0 -0.651,0.112 -0.897,0.336c-0.246,0.223 -0.369,0.491 -0.369,0.804c0,0.318 0.123,0.588 0.369,0.811c0.246,0.224 0.545,0.336 0.897,0.336c0.483,-0 0.848,-0.189 1.096,-0.567c0.257,0.114 0.49,0.262 0.697,0.445c0.384,0.345 0.621,0.758 0.711,1.238l-5.042,-0l-0,-4.574l2.538,0c0.699,0 1.297,0.224 1.793,0.671Z" style="fill:#8000db;fill-rule:nonzero;"/><path d="M28.273,351.088c-0.658,-0.598 -1.455,-0.896 -2.389,-0.896c-0.934,-0 -1.731,0.297 -2.392,0.893c-0.661,0.595 -0.992,1.314 -0.992,2.155l0,2.671c0,0.102 0.042,0.19 0.125,0.265c0.084,0.076 0.182,0.113 0.295,0.113c0.117,0 0.217,-0.037 0.301,-0.113c0.083,-0.075 0.125,-0.163 0.125,-0.265l0,-2.671c0,-0.63 0.248,-1.168 0.745,-1.616c0.496,-0.447 1.094,-0.67 1.793,-0.67c0.7,-0 1.297,0.223 1.794,0.67c0.496,0.448 0.744,0.986 0.744,1.616l0,1.75l-1.394,-1.256c0.081,-0.154 0.122,-0.319 0.122,-0.494c-0,-0.317 -0.123,-0.586 -0.369,-0.808c-0.246,-0.221 -0.545,-0.332 -0.897,-0.332c-0.352,0 -0.652,0.111 -0.9,0.332c-0.248,0.222 -0.372,0.491 -0.372,0.808c-0,0.317 0.124,0.587 0.372,0.808c0.248,0.222 0.548,0.333 0.9,0.333c0.194,-0 0.377,-0.037 0.548,-0.11l2.112,1.908c0.086,0.074 0.185,0.11 0.298,0.11c0.117,0 0.218,-0.037 0.301,-0.113c0.084,-0.075 0.125,-0.163 0.125,-0.265l0,-2.671c0,-0.841 -0.331,-1.559 -0.995,-2.152Z" style="fill:#2600ff;fill-rule:nonzero;"/><path d="M21.505,357.167c-0.659,-0.597 -1.455,-0.896 -2.389,-0.896l-2.965,-0c-0.113,-0 -0.211,0.037 -0.294,0.113c-0.084,0.075 -0.125,0.165 -0.125,0.271l-0,5.329c-0,0.106 0.041,0.197 0.125,0.272c0.083,0.075 0.181,0.113 0.294,0.113c0.118,-0 0.218,-0.038 0.301,-0.113c0.084,-0.075 0.126,-0.166 0.126,-0.272l-0,-4.951l2.538,0c0.699,0 1.297,0.224 1.793,0.671c0.497,0.447 0.745,0.986 0.745,1.616l-0,1.75l-1.394,-1.256c0.081,-0.155 0.121,-0.32 0.121,-0.494c0,-0.317 -0.122,-0.588 -0.368,-0.811c-0.246,-0.224 -0.545,-0.336 -0.897,-0.336c-0.352,0 -0.652,0.112 -0.9,0.336c-0.249,0.223 -0.373,0.494 -0.373,0.811c0,0.317 0.124,0.586 0.373,0.808c0.248,0.221 0.548,0.332 0.9,0.332c0.194,-0 0.377,-0.037 0.548,-0.11l2.112,1.909c0.086,0.073 0.185,0.11 0.298,0.11c0.117,-0 0.217,-0.038 0.301,-0.113c0.083,-0.075 0.125,-0.166 0.125,-0.272l-0,-2.664c-0,-0.842 -0.332,-1.559 -0.995,-2.153Z" style="fill:#0ef;fill-rule:nonzero;"/><path d="M28.842,358.942l-1.739,-0c-0.095,-0.22 -0.25,-0.397 -0.464,-0.531c-0.214,-0.134 -0.455,-0.201 -0.721,-0.201c-0.352,-0 -0.652,0.111 -0.9,0.332c-0.248,0.222 -0.372,0.491 -0.372,0.808c-0,0.317 0.124,0.588 0.372,0.811c0.248,0.224 0.548,0.336 0.9,0.336c0.28,-0 0.53,-0.075 0.751,-0.223c0.221,-0.148 0.373,-0.34 0.454,-0.576l1.299,-0l0,1.908l-2.538,0c-0.699,0 -1.297,-0.223 -1.793,-0.67c-0.497,-0.448 -0.745,-0.986 -0.745,-1.616c0,-0.63 0.248,-1.169 0.745,-1.616c0.496,-0.447 1.094,-0.671 1.793,-0.671l2.958,0c0.117,0 0.218,-0.038 0.301,-0.113c0.084,-0.075 0.125,-0.163 0.125,-0.265c0,-0.106 -0.041,-0.196 -0.125,-0.271c-0.083,-0.076 -0.184,-0.113 -0.301,-0.113l-2.958,-0c-0.934,-0 -1.731,0.298 -2.392,0.893c-0.661,0.596 -0.992,1.314 -0.992,2.156c0,0.841 0.331,1.56 0.992,2.155c0.661,0.596 1.458,0.894 2.392,0.894l2.958,-0c0.117,-0 0.218,-0.038 0.301,-0.113c0.084,-0.075 0.125,-0.166 0.125,-0.272l0,-2.664c0,-0.106 -0.041,-0.195 -0.125,-0.269c-0.083,-0.073 -0.184,-0.109 -0.301,-0.109Z" style="fill:#f00;fill-rule:nonzero;"/></g></g></g></svg>