<?xml version="1.0" encoding="UTF-8" standalone="no"?><!DOCTYPE svg PUBLIC "-//W3C//DTD SVG 1.1//EN" "http://www.w3.org/Graphics/SVG/1.1/DTD/svg11.dtd"><svg width="100%" height="100%" viewBox="0 0 45 380" version="1.1" xmlns="http://www.w3.org/2000/svg" xmlns:xlink="http://www.w3.org/1999/xlink" xml:space="preserve" xmlns:serif="http://www.serif.com/" style="fill-rule:evenodd;clip-rule:evenodd;stroke-linecap:square;stroke-linejoin:round;stroke-miterlimit:1.5;"><rect id="RandRoute" x="0" y="0" width="45" height="379.559" style="fill:none;"/><clipPath id="_clip1"><rect x="0" y="0" width="45" height="379.559"/></clipPath><g clip-path="url(#_clip1)"><g id="Layer1"><rect id="background" x="0" y="0" width="45" height="379.559" style="fill:#e6e6e6;"/><rect x="5.355" y="175.066" width="34.291" height="171.71" style="fill:#282828;fill-opacity:0.2;"/><path d="M22.54,200.726l-0,121.347" style="fill:none;stroke:#000;stroke-width:1px;"/><g><path d="M19.182,59.319l-2.124,-0l0,6.24l-0.796,0l0,-6.24l-2.134,-0l0,-0.65l5.054,0l0,0.65Z" style="fill-rule:nonzero;"/><path d="M25.383,65.559l-1.001,0l-2.021,-3.13l-0.889,0l0,3.13l-0.801,0l0,-6.89l1.949,0c0.654,0 1.171,0.159 1.55,0.477c0.379,0.317 0.569,0.759 0.569,1.325c-0,0.42 -0.139,0.794 -0.415,1.121c-0.277,0.327 -0.658,0.549 -1.143,0.666l2.202,3.301Zm-3.911,-3.828l1.011,-0c0.423,-0 0.767,-0.115 1.03,-0.344c0.264,-0.23 0.396,-0.519 0.396,-0.867c-0,-0.768 -0.469,-1.152 -1.407,-1.152l-1.03,-0l0,2.363Z" style="fill-rule:nonzero;"/><path d="M30.872,65.071c-0.564,0.413 -1.187,0.62 -1.871,0.62c-0.895,-0 -1.573,-0.304 -2.036,-0.911c-0.462,-0.607 -0.693,-1.495 -0.693,-2.663c-0,-1.13 0.224,-2.009 0.671,-2.637c0.448,-0.628 1.134,-0.942 2.058,-0.942c0.332,-0 0.661,0.042 0.987,0.127c0.325,0.084 0.587,0.197 0.786,0.336l-0.264,0.63c-0.459,-0.26 -0.962,-0.39 -1.509,-0.39c-0.631,-0 -1.102,0.231 -1.413,0.693c-0.311,0.462 -0.466,1.19 -0.466,2.183c-0,1.914 0.626,2.871 1.879,2.871c0.472,-0 0.829,-0.099 1.07,-0.298l-0,-1.699l-1.24,-0l-0,-0.694l2.041,0l-0,2.774Z" style="fill-rule:nonzero;"/></g><circle cx="22.488" cy="200.726" r="13.488" style="fill:#8000db;"/><circle cx="22.5" cy="241.175" r="13.488" style="fill:#2600ff;"/><circle cx="22.512" cy="281.624" r="13.488" style="fill:#0ef;"/><circle cx="22.523" cy="322.073" r="13.488" style="fill:#f00;"/><g id="Logo"><path d="M21.356,353.606l0.718,0c0.117,0 0.217,-0.037 0.301,-0.113c0.083,-0.075 0.125,-0.165 0.125,-0.271c-0,-0.841 -0.331,-1.56 -0.992,-2.155c-0.661,-0.596 -1.458,-0.894 -2.392,-0.894l-2.958,0c-0.117,0 -0.218,0.038 -0.301,0.113c-0.084,0.075 -0.125,0.166 -0.125,0.271l-0,5.336c-0,0.101 0.041,0.19 0.125,0.265c0.083,0.075 0.184,0.113 0.301,0.113l5.916,-0c0.117,-0 0.217,-0.038 0.301,-0.113c0.083,-0.075 0.125,-0.164 0.125,-0.265c-0,-0.915 -0.381,-1.677 -1.144,-2.287Zm-0.447,-2c0.384,0.346 0.621,0.756 0.711,1.232l-1.32,-0c-0.09,-0.216 -0.243,-0.391 -0.46,-0.528c-0.217,-0.136 -0.458,-0.204 -0.724,-0.204c-0.352,0 -0.651,0.112 -0.897,0.336c-0.246,0.223 -0.369,0.491 -0.369,0.804c0,0.318 0.123,0.588 0.369,0.811c0.246,0.224 0.545,0.336 0.897,0.336c0.483,-0 0.848,-0.189 1.096,-0.567c0.257,0.114 0.49,0.262 0.697,0.445c0.384,0.345 0.621,0.758 0.711,1.238l-5.042,-0l-0,-4.574l2.538,0c0.699,0 1.297,0.224 1.793,0.671Z" style="fill:#8000db;fill-rule:nonzero;"/><path d="M28.273,351.088c-0.658,-0.598 -1.455,-0.896 -2.389,-0.896c-0.934,-0 -1.731,0.297 -2.392,0.893c-0.661,0.595 -0.992,1.314 -0.992,2.155l0,2.671c0,0.102 0.042,0.19 0.125,0.265c0.084,0.076 0.182,0.113 0.295,0.113c0.117,0 0.217,-0.037 0.301,-0.113c0.083,-0.075 0.125,-0.163 0.125,-0.265l0,-2.671c0,-0.63 0.248,-1.168 0.745,-1.616c0.496,-0.447 1.094,-0.67 1.793,-0.67c0.7,-0 1.297,0.223 1.794,0.67c0.496,0.448 0.744,0.986 0.744,1.616l0,1.75l-1.394,-1.256c0.081,-0.154 0.122,-0.319 0.122,-0.494c-0,-0.317 -0.123,-0.586 -0.369,-0.808c-0.246,-0.221 -0.545,-0.332 -0.897,-0.332c-0.352,0 -0.652,0.111 -0.9,0.332c-0.248,0.222 -0.372,0.491 -0.372,0.808c-0,0.317 0.124,0.587 0.372,0.808c0.248,0.222 0.548,0.333 0.9,0.333c0.194,-0 0.377,-0.037 0.548,-0.11l2.112,1.908c0.086,0.074 0.185,0.11 0.298,0.11c0.117,0 0.218,-0.037 0.301,-0.113c0.084,-0.075 0.125,-0.163 0.125,-0.265l0,-2.671c0,-0.841 -0.331,-1.559 -0.995,-2.152Z" style="fill:#2600ff;fill-rule:nonzero;"/><path d="M21.505,357.167c-0.659,-0.597 -1.455,-0.896 -2.389,-0.896l-2.965,-0c-0.113,-0 -0.211,0.037 -0.294,0.113c-0.084,0.075 -0.125,0.165 -0.125,0.271l-0,5.329c-0,0.106 0.041,0.197 0.125,0.272c0.083,0.075 0.181,0.113 0.294,0.113c0.118,-0 0.218,-0.038 0.301,-0.113c0.084,-0.075 0.126,-0.166 0.126,-0.272l-0,-4.951l2.538,0c0.699,0 1.297,0.224 1.793,0.671c0.497,0.447 0.745,0.986 0.745,1.616l-0,1.75l-1.394,-1.256c0.081,-0.155 0.121,-0.32 0.121,-0.494c0,-0.317 -0.122,-0.588 -0.368,-0.811c-0.246,-0.224 -0.545,-0.336 -0.897,-0.336c-0.352,0 -0.652,0.112 -0.9,0.336c-0.249,0.223 -0.373,0.494 -0.373,0.811c0,0.317 0.124,0.586 0.373,0.808c0.248,0.221 0.548,0.332 0.9,0.332c0.194,-0 0.377,-0.037 0.548,-0.11l2.112,1.909c0.086,0.073 0.185,0.11 0.298,0.11c0.117,-0 0.217,-0.038 0.301,-0.113c0.083,-0.075 0.125,-0.166 0.125,-0.272l-0,-2.664c-0,-0.842 -0.332,-1.559 -0.995,-2.153Z" style="fill:#0ef;fill-rule:nonzero;"/><path d="M28.842,358.942l-1.739,-0c-0.095,-0.22 -0.25,-0.397 -0.464,-0.531c-0.214,-0.134 -0.455,-0.201 -0.721,-0.201c-0.352,-0 -0.652,0.111 -0.9,0.332c-0.248,0.222 -0.372,0.491 -0.372,0.808c-0,0.317 0.124,0.588 0.372,0.811c0.248,0.224 0.548,0.336 0.9,0.336c0.28,-0 0.53,-0.075 0.751,-0.223c0.221,-0.148 0.373,-0.34 0.454,-0.576l1.299,-0l0,1.908l-2.538,0c-0.699,0 -1.297,-0.223 -1.793,-0.67c-0.497,-0.448 -0.745,-0.986 -0.745,-1.616c0,-0.63 0.248,-1.169 0.745,-1.616c0.496,-0.447 1.094,-0.671 1.793,-0.671l2.958,0c0.117,0 0.218,-0.038 0.301,-0.113c0.084,-0.075 0.125,-0.163 0.125,-0.265c0,-0.106 -0.041,-0.196 -0.125,-0.271c-0.083,-0.076 -0.184,-0.113 -0.301,-0.113l-2.958,-0c-0.934,-0 -1.731,0.298 -2.392,0.893c-0.661,0.596 -0.992,1.314 -0.992,2.156c-0,0.841 0.331,1.56 0.992,2.155c0.661,0.596 1.458,0.894 2.392,0.894l2.958,-0c0.117,-0 0.218,-0.038 0.301,-0.113c0.084,-0.075 0.125,-0.166 0.125,-0.272l0,-2.664c0,-0.106 -0.041,-0.195 -0.125,-0.269c-0.083,-0.073 -0.184,-0.109 -0.301,-0.109Z" style="fill:#f00;fill-rule:nonzero;"/></g><g><path d="M14.174,178.007c0.878,-0 1.547,0.305 2.008,0.916c0.461,0.61 0.692,1.498 0.692,2.663c-0,1.159 -0.23,2.044 -0.689,2.656c-0.459,0.612 -1.13,0.918 -2.011,0.918c-0.874,0 -1.542,-0.305 -2.003,-0.915c-0.461,-0.611 -0.691,-1.497 -0.691,-2.659c-0,-1.162 0.229,-2.049 0.689,-2.661c0.459,-0.612 1.127,-0.918 2.005,-0.918Zm0,6.45c1.155,0 1.733,-0.957 1.733,-2.871c0,-1.917 -0.578,-2.876 -1.733,-2.876c-0.563,0 -0.992,0.248 -1.286,0.745c-0.294,0.496 -0.442,1.207 -0.442,2.131c0,0.934 0.147,1.646 0.439,2.136c0.293,0.49 0.722,0.735 1.289,0.735Z" style="fill-rule:nonzero;"/><path d="M22.13,182.861c0,0.797 -0.184,1.38 -0.553,1.748c-0.368,0.367 -0.928,0.551 -1.68,0.551c-1.515,0 -2.272,-0.76 -2.272,-2.28l-0,-4.741l0.911,-0l-0,4.668c-0,1.1 0.454,1.65 1.361,1.65c0.455,0 0.79,-0.13 1.003,-0.39c0.213,-0.261 0.319,-0.684 0.319,-1.27l-0,-4.658l0.911,-0l0,4.722Z" style="fill-rule:nonzero;"/><path d="M28.447,178.788l-2.416,0l-0,6.24l-0.906,0l0,-6.24l-2.427,0l-0,-0.649l5.749,-0l0,0.649Z" style="fill-rule:nonzero;"/><path d="M32.926,178.901c-0.467,-0.14 -0.909,-0.21 -1.328,-0.21c-0.474,-0 -0.86,0.095 -1.158,0.285c-0.298,0.191 -0.447,0.462 -0.447,0.813c-0,0.417 0.39,0.783 1.172,1.099c0.578,0.234 0.96,0.397 1.147,0.488c0.187,0.091 0.377,0.217 0.569,0.376c0.193,0.16 0.348,0.348 0.464,0.564c0.117,0.217 0.175,0.46 0.175,0.73c0,0.671 -0.256,1.191 -0.769,1.56c-0.513,0.37 -1.118,0.554 -1.814,0.554c-0.674,0 -1.265,-0.117 -1.772,-0.351l0.189,-0.689c0.596,0.238 1.116,0.357 1.561,0.357c0.518,-0 0.934,-0.118 1.247,-0.354c0.313,-0.236 0.469,-0.561 0.469,-0.974c0,-0.306 -0.101,-0.566 -0.305,-0.779c-0.204,-0.213 -0.58,-0.431 -1.128,-0.652c-0.563,-0.228 -0.927,-0.383 -1.091,-0.466c-0.165,-0.083 -0.329,-0.198 -0.492,-0.345c-0.163,-0.146 -0.289,-0.31 -0.378,-0.493c-0.089,-0.182 -0.133,-0.381 -0.133,-0.595c-0,-0.57 0.233,-1.014 0.7,-1.333c0.466,-0.32 1.057,-0.479 1.772,-0.479c0.522,-0 1.041,0.07 1.555,0.21l-0.205,0.684Z" style="fill-rule:nonzero;"/></g><g><path d="M14.519,30.466l-1.429,0l-2.887,-4.706l-1.268,-0l-0,4.706l-1.144,0l0,-10.36l2.782,-0c0.934,-0 1.672,0.238 2.213,0.716c0.542,0.477 0.812,1.141 0.812,1.993c0,0.632 -0.197,1.193 -0.592,1.685c-0.395,0.492 -0.939,0.826 -1.631,1.003l3.144,4.963Zm-5.584,-5.756l1.443,-0c0.604,-0 1.094,-0.173 1.471,-0.518c0.376,-0.345 0.564,-0.78 0.564,-1.303c0,-1.156 -0.669,-1.733 -2.007,-1.733l-1.471,-0l-0,3.554Z" style="fill:#f00;fill-rule:nonzero;"/><path d="M21.466,30.466l-1.08,0c-0.089,-0.308 -0.133,-0.719 -0.133,-1.233c-0.618,0.954 -1.459,1.431 -2.523,1.431c-0.54,0 -1.015,-0.201 -1.426,-0.605c-0.411,-0.404 -0.617,-0.924 -0.617,-1.561c-0,-0.377 0.072,-0.709 0.216,-0.998c0.144,-0.289 0.356,-0.533 0.634,-0.731c0.279,-0.198 0.619,-0.355 1.018,-0.47c0.4,-0.115 0.874,-0.194 1.422,-0.238l1.22,-0.103l0,-0.367c0,-1.312 -0.581,-1.968 -1.742,-1.968c-0.275,-0 -0.622,0.062 -1.043,0.187c-0.42,0.125 -0.782,0.273 -1.084,0.444l-0.285,-0.822c0.989,-0.534 1.91,-0.8 2.76,-0.8c1.655,-0 2.482,0.922 2.482,2.768l-0,3.289c-0,0.666 0.06,1.258 0.181,1.777Zm-1.269,-2.269l0,-1.387c-0.98,0.093 -1.653,0.179 -2.018,0.26c-0.365,0.081 -0.681,0.232 -0.948,0.452c-0.267,0.22 -0.401,0.519 -0.401,0.896c0,0.342 0.114,0.619 0.342,0.829c0.228,0.211 0.518,0.316 0.871,0.316c0.386,0 0.769,-0.121 1.151,-0.363c0.381,-0.243 0.715,-0.577 1.003,-1.003Z" style="fill:#f00;fill-rule:nonzero;"/><path d="M29.139,30.466l-1.088,0l0,-4.905c0,-0.68 -0.103,-1.173 -0.31,-1.479c-0.207,-0.306 -0.531,-0.459 -0.973,-0.459c-0.664,-0 -1.377,0.435 -2.14,1.307l0,5.536l-1.087,0l-0,-7.651l1.087,0l0,1.124c0.781,-0.872 1.604,-1.307 2.468,-1.307c1.362,-0 2.043,0.866 2.043,2.599l-0,5.235Z" style="fill:#f00;fill-rule:nonzero;"/><path d="M36.965,30.466l-1.088,0l0,-1.101c-0.223,0.377 -0.542,0.688 -0.958,0.932c-0.416,0.245 -0.854,0.367 -1.314,0.367c-0.832,0 -1.49,-0.39 -1.973,-1.171c-0.484,-0.78 -0.725,-1.771 -0.725,-2.97c-0,-1.121 0.252,-2.05 0.756,-2.786c0.504,-0.737 1.172,-1.105 2.004,-1.105c0.916,-0 1.652,0.391 2.21,1.174l0,-3.7l1.088,-0l-0,10.36Zm-1.088,-2.342l0,-3.179c-0.52,-0.882 -1.148,-1.322 -1.882,-1.322c-0.6,-0 -1.074,0.28 -1.422,0.841c-0.349,0.56 -0.523,1.269 -0.523,2.125c-0,0.881 0.164,1.61 0.491,2.185c0.328,0.575 0.778,0.862 1.349,0.862c0.275,0 0.551,-0.078 0.83,-0.234c0.279,-0.157 0.541,-0.392 0.788,-0.705c0.246,-0.314 0.369,-0.505 0.369,-0.573Z" style="fill:#f00;fill-rule:nonzero;"/><path d="M10.592,45.504l-1.429,0l-2.886,-4.707l-1.269,0l-0,4.707l-1.144,0l0,-10.361l2.782,0c0.934,0 1.672,0.239 2.213,0.716c0.542,0.478 0.813,1.142 0.813,1.994c-0,0.631 -0.198,1.193 -0.593,1.685c-0.395,0.492 -0.939,0.826 -1.631,1.002l3.144,4.964Zm-5.584,-5.757l1.443,0c0.604,0 1.094,-0.172 1.471,-0.517c0.376,-0.345 0.564,-0.78 0.564,-1.304c0,-1.155 -0.669,-1.733 -2.007,-1.733l-1.471,0l-0,3.554Z" style="fill:#f00;fill-rule:nonzero;"/><path d="M14.542,37.669c0.999,0 1.794,0.368 2.384,1.102c0.59,0.734 0.885,1.701 0.885,2.9c0,1.209 -0.295,2.183 -0.885,2.923c-0.59,0.739 -1.385,1.108 -2.384,1.108c-1.004,0 -1.8,-0.368 -2.388,-1.105c-0.588,-0.737 -0.882,-1.712 -0.882,-2.926c0,-1.204 0.295,-2.172 0.885,-2.904c0.591,-0.732 1.385,-1.098 2.385,-1.098Zm-0,7.035c0.66,-0 1.18,-0.294 1.561,-0.881c0.381,-0.588 0.572,-1.3 0.572,-2.137c-0,-0.881 -0.188,-1.606 -0.565,-2.174c-0.376,-0.567 -0.899,-0.851 -1.568,-0.851c-0.674,-0 -1.197,0.28 -1.569,0.84c-0.372,0.561 -0.558,1.289 -0.558,2.185c0,0.852 0.189,1.567 0.565,2.148c0.377,0.58 0.897,0.87 1.562,0.87Z" style="fill:#f00;fill-rule:nonzero;"/><path d="M25.198,45.504l-1.088,0l0,-1.131c-0.78,0.876 -1.603,1.315 -2.467,1.315c-1.362,-0 -2.043,-0.869 -2.043,-2.607l-0,-5.228l1.087,-0l0,4.898c0,0.651 0.098,1.136 0.293,1.457c0.195,0.321 0.525,0.481 0.99,0.481c0.665,-0 1.378,-0.436 2.14,-1.307l0,-5.529l1.088,-0l-0,7.651Z" style="fill:#f00;fill-rule:nonzero;"/><path d="M33.135,45.159c-0.729,0.352 -1.447,0.529 -2.154,0.529c-1.296,-0 -1.945,-0.722 -1.945,-2.167l0,-4.677l-1.394,0l-0,-0.991l1.394,-0l0,-2.093l1.06,0l-0,2.093l2.468,-0l-0,0.991l-2.468,0l-0,4.376c-0,0.465 0.097,0.826 0.293,1.083c0.195,0.257 0.46,0.386 0.794,0.386c0.595,-0 1.183,-0.14 1.764,-0.419l0.188,0.889Z" style="fill:#f00;fill-rule:nonzero;"/><path d="M41.136,41.715l-4.985,0c0,0.867 0.238,1.581 0.715,2.144c0.476,0.563 1.06,0.845 1.753,0.845c0.66,-0 1.341,-0.125 2.043,-0.375l0.188,0.918c-0.642,0.304 -1.39,0.455 -2.245,0.455c-1.078,0 -1.947,-0.364 -2.607,-1.094c-0.66,-0.729 -0.99,-1.713 -0.99,-2.952c-0,-1.214 0.296,-2.182 0.889,-2.904c0.592,-0.722 1.358,-1.083 2.297,-1.083c0.836,0 1.536,0.336 2.098,1.006c0.562,0.671 0.844,1.564 0.844,2.68l-0,0.36Zm-1.186,-0.932c0,-0.598 -0.176,-1.101 -0.529,-1.509c-0.354,-0.409 -0.749,-0.613 -1.185,-0.613c-0.563,-0 -1.029,0.195 -1.398,0.587c-0.37,0.392 -0.575,0.903 -0.617,1.535l3.729,-0Z" style="fill:#f00;fill-rule:nonzero;"/></g><path d="M30.511,168.124c1.104,0 2,0.896 2,2c0,1.104 -0.896,2 -2,2c-1.104,0 -2,-0.896 -2,-2c0,-1.104 0.896,-2 2,-2Zm0,1c0.552,0 1,0.448 1,1c0,0.552 -0.448,1 -1,1c-0.552,0 -1,-0.448 -1,-1c0,-0.552 0.448,-1 1,-1Z"/><circle cx="14.489" cy="170.124" r="2" style="fill:#8000db;"/><circle cx="7.024" cy="152.101" r="2" style="fill:#2600ff;"/><circle cx="22.5" cy="140.226" r="2" style="fill:#0ef;"/><circle cx="37.976" cy="152.101" r="2" style="fill:#f00;"/><g><path d="M21.036,104.13l-3.434,0l-0,-0.698l1.302,-0l-0,-5.493l-1.302,-0l-0,-0.699l3.434,0l0,0.699l-1.254,-0l0,5.493l1.254,-0l0,0.698Z" style="fill-rule:nonzero;"/><path d="M27.398,104.13l-0.975,0l-2.711,-5.439l-0,5.439l-0.879,0l0,-6.89l0.981,0l2.722,5.391l-0,-5.391l0.862,0l0,6.89Z" style="fill-rule:nonzero;"/></g></g></g></svg>