<?xml version="1.0" encoding="UTF-8" standalone="no"?><!DOCTYPE svg PUBLIC "-//W3C//DTD SVG 1.1//EN" "http://www.w3.org/Graphics/SVG/1.1/DTD/svg11.dtd"><svg width="100%" height="100%" viewBox="0 0 12 12" version="1.1" xmlns="http://www.w3.org/2000/svg" xmlns:xlink="http://www.w3.org/1999/xlink" xml:space="preserve" xmlns:serif="http://www.serif.com/" style="fill-rule:evenodd;clip-rule:evenodd;stroke-linejoin:round;stroke-miterlimit:2;"><g id="screw"><path d="M6.314,4.996l2.97,0l-4.379,6.025l0.781,-4.017l-2.97,0l4.379,-6.025l-0.781,4.017Z" style="fill:#646464;"/><path d="M6,0c3.312,0 6,2.688 6,6c0,3.311 -2.688,6 -6,6c-3.311,0 -6,-2.689 -6,-6c0,-3.312 2.689,-6 6,-6Zm0,1c2.76,0 5,2.24 5,5c0,2.759 -2.24,5 -5,5c-2.759,0 -5,-2.241 -5,-5c0,-2.76 2.241,-5 5,-5Z" style="fill:#646464;"/></g></svg>