<?xml version="1.0" encoding="UTF-8" standalone="no"?><!DOCTYPE svg PUBLIC "-//W3C//DTD SVG 1.1//EN" "http://www.w3.org/Graphics/SVG/1.1/DTD/svg11.dtd"><svg width="100%" height="100%" viewBox="0 0 765 380" version="1.1" xmlns="http://www.w3.org/2000/svg" xmlns:xlink="http://www.w3.org/1999/xlink" xml:space="preserve" xmlns:serif="http://www.serif.com/" style="fill-rule:evenodd;clip-rule:evenodd;stroke-linecap:square;stroke-linejoin:round;stroke-miterlimit:1.5;"><rect id="StochSeq4--revised-2021-" serif:id="StochSeq4 (revised 2021)" x="-0" y="0" width="765" height="379.559" style="fill:none;"/><clipPath id="_clip1"><rect x="-0" y="0" width="765" height="379.559"/></clipPath><g clip-path="url(#_clip1)"><g id="Layer1"><rect id="background" x="0" y="0" width="765" height="379.559" style="fill:#e6e6e6;"/><rect x="209.676" y="52.301" width="41.895" height="256.885" style="fill:#282828;fill-opacity:0.5;"/><rect x="209.676" y="313.699" width="61.94" height="47.619" style="fill:#282828;fill-opacity:0.5;"/><g><path d="M237.66,141.605l-2.971,-0l-0,-0.699l1.126,0l0,-5.493l-1.126,0l-0,-0.698l2.971,-0l0,0.698l-1.084,0l-0,5.493l1.084,0l0,0.699Z" style="fill:#fff;fill-rule:nonzero;"/><path d="M244.162,141.605l-0.844,-0l-2.346,-5.44l0,5.44l-0.76,-0l0,-6.89l0.848,-0l2.355,5.391l0,-5.391l0.747,-0l-0,6.89Z" style="fill:#fff;fill-rule:nonzero;"/><path d="M250.751,134.715l-2.132,6.89l-0.913,-0l-2.137,-6.89l0.797,-0l1.794,5.962l1.803,-5.962l0.788,-0Z" style="fill:#fff;fill-rule:nonzero;"/></g><g><path d="M222.254,86.391c0.413,0.564 0.62,1.187 0.62,1.87c-0,0.896 -0.304,1.574 -0.911,2.037c-0.607,0.462 -1.495,0.693 -2.664,0.693c-1.129,-0 -2.008,-0.224 -2.636,-0.671c-0.629,-0.448 -0.943,-1.134 -0.943,-2.059c0,-0.332 0.043,-0.66 0.127,-0.986c0.085,-0.325 0.197,-0.587 0.337,-0.786l0.63,0.264c-0.26,0.459 -0.391,0.962 -0.391,1.508c0,0.632 0.232,1.103 0.694,1.414c0.462,0.311 1.19,0.466 2.182,0.466c1.914,0 2.872,-0.626 2.872,-1.88c-0,-0.472 -0.1,-0.828 -0.298,-1.069l-1.7,0l0,1.24l-0.693,0l0,-2.041l2.774,0Z" style="fill:#fff;fill-rule:nonzero;"/><path d="M222.742,79.868l-0,0.84l-2.412,0.761l-0,2.261l2.412,0.772l-0,0.83l-6.89,-2.251l0,-0.962l6.89,-2.251Zm-3.111,1.831l-2.851,0.903l2.851,0.899l0,-1.802Z" style="fill:#fff;fill-rule:nonzero;"/><path d="M216.502,74.077l-0,2.124l6.24,-0l-0,0.796l-6.24,-0l-0,2.134l-0.65,-0l0,-5.054l0.65,-0Z" style="fill:#fff;fill-rule:nonzero;"/><path d="M222.742,68.76l-0,3.598l-6.89,0l0,-3.569l0.698,-0l0,2.768l2.134,0l0,-2.661l0.698,0l0,2.661l2.662,0l-0,-2.797l0.698,-0Z" style="fill:#fff;fill-rule:nonzero;"/><path d="M216.614,63.139c-0.14,0.411 -0.21,0.8 -0.21,1.167c-0,0.417 0.095,0.756 0.286,1.018c0.19,0.263 0.461,0.394 0.813,0.394c0.416,-0 0.782,-0.344 1.098,-1.031c0.235,-0.508 0.397,-0.844 0.488,-1.008c0.092,-0.164 0.217,-0.331 0.376,-0.501c0.16,-0.169 0.348,-0.305 0.564,-0.407c0.217,-0.103 0.46,-0.154 0.73,-0.154c0.671,-0 1.191,0.225 1.56,0.676c0.37,0.451 0.555,0.982 0.555,1.594c-0,0.593 -0.118,1.112 -0.352,1.558l-0.688,-0.166c0.237,-0.524 0.356,-0.981 0.356,-1.372c0,-0.456 -0.118,-0.821 -0.354,-1.096c-0.236,-0.275 -0.561,-0.413 -0.974,-0.413c-0.306,0 -0.566,0.09 -0.779,0.269c-0.213,0.179 -0.43,0.509 -0.652,0.991c-0.228,0.495 -0.383,0.815 -0.466,0.959c-0.083,0.145 -0.198,0.289 -0.344,0.433c-0.147,0.143 -0.311,0.253 -0.493,0.332c-0.183,0.078 -0.381,0.117 -0.596,0.117c-0.57,-0 -1.014,-0.205 -1.333,-0.615c-0.319,-0.411 -0.479,-0.93 -0.479,-1.558c0,-0.459 0.07,-0.915 0.21,-1.367l0.684,0.18Z" style="fill:#fff;fill-rule:nonzero;"/></g><g><path d="M231.016,323.196c-0.563,0.414 -1.186,0.62 -1.87,0.62c-0.895,0 -1.574,-0.303 -2.036,-0.91c-0.462,-0.607 -0.693,-1.495 -0.693,-2.664c-0,-1.129 0.224,-2.008 0.671,-2.637c0.448,-0.628 1.134,-0.942 2.058,-0.942c0.332,0 0.661,0.042 0.987,0.127c0.325,0.085 0.587,0.197 0.786,0.337l-0.264,0.63c-0.459,-0.261 -0.962,-0.391 -1.509,-0.391c-0.631,0 -1.102,0.231 -1.413,0.694c-0.311,0.462 -0.467,1.189 -0.467,2.182c0,1.914 0.627,2.871 1.88,2.871c0.472,0 0.829,-0.099 1.07,-0.298l-0,-1.699l-1.241,0l0,-0.693l2.041,-0l0,2.773Z" style="fill:#fff;fill-rule:nonzero;"/><path d="M237.54,323.685l-0.84,-0l-0.762,-2.413l-2.26,0l-0.772,2.413l-0.83,-0l2.251,-6.89l0.962,-0l2.251,6.89Zm-1.831,-3.111l-0.904,-2.851l-0.898,2.851l1.802,0Z" style="fill:#fff;fill-rule:nonzero;"/><path d="M243.331,317.444l-2.124,0l-0,6.241l-0.796,-0l-0,-6.241l-2.134,0l0,-0.649l5.054,-0l-0,0.649Z" style="fill:#fff;fill-rule:nonzero;"/><path d="M248.648,323.685l-3.598,-0l-0,-6.89l3.569,-0l-0,0.698l-2.769,0l0,2.134l2.662,-0l-0,0.698l-2.662,0l0,2.661l2.798,0l0,0.699Z" style="fill:#fff;fill-rule:nonzero;"/><path d="M254.268,317.557c-0.41,-0.14 -0.799,-0.21 -1.167,-0.21c-0.416,-0 -0.756,0.095 -1.018,0.285c-0.262,0.191 -0.393,0.462 -0.393,0.813c0,0.417 0.344,0.783 1.031,1.099c0.507,0.234 0.843,0.397 1.008,0.488c0.164,0.091 0.331,0.217 0.5,0.376c0.17,0.16 0.305,0.348 0.408,0.564c0.103,0.217 0.154,0.46 0.154,0.73c-0,0.671 -0.226,1.191 -0.676,1.56c-0.451,0.37 -0.983,0.554 -1.595,0.554c-0.592,0 -1.111,-0.117 -1.557,-0.351l0.166,-0.689c0.524,0.238 0.981,0.357 1.372,0.357c0.456,-0 0.821,-0.118 1.096,-0.354c0.275,-0.236 0.413,-0.561 0.413,-0.974c-0,-0.306 -0.09,-0.566 -0.269,-0.779c-0.179,-0.213 -0.509,-0.431 -0.991,-0.652c-0.495,-0.228 -0.815,-0.383 -0.96,-0.466c-0.144,-0.083 -0.289,-0.198 -0.432,-0.345c-0.143,-0.146 -0.254,-0.31 -0.332,-0.493c-0.078,-0.182 -0.117,-0.381 -0.117,-0.595c0,-0.57 0.205,-1.014 0.615,-1.333c0.41,-0.319 0.93,-0.479 1.558,-0.479c0.459,0 0.915,0.07 1.367,0.21l-0.181,0.684Z" style="fill:#fff;fill-rule:nonzero;"/></g><g><path d="M239.096,85.532l6.89,2.246l-0,0.962l-6.89,2.251l0,-0.84l5.962,-1.89l-5.962,-1.899l0,-0.83Z" style="fill:#fff;fill-rule:nonzero;"/><path d="M238.964,80.488l7.154,2.993l-0,0.718l-7.154,-2.979l0,-0.732Z" style="fill:#fff;fill-rule:nonzero;"/><path d="M238.964,76.26c0,-0.772 0.305,-1.36 0.916,-1.766c0.61,-0.405 1.498,-0.608 2.663,-0.608c1.159,0 2.045,0.202 2.657,0.606c0.612,0.404 0.918,0.993 0.918,1.768c-0,0.768 -0.306,1.354 -0.916,1.76c-0.61,0.405 -1.497,0.608 -2.659,0.608c-1.162,-0 -2.049,-0.202 -2.661,-0.606c-0.612,-0.403 -0.918,-0.991 -0.918,-1.762Zm6.45,-0c0,-1.016 -0.957,-1.524 -2.871,-1.524c-1.917,0 -2.876,0.508 -2.876,1.524c0,0.494 0.249,0.871 0.745,1.13c0.496,0.259 1.207,0.388 2.131,0.388c0.935,0 1.647,-0.129 2.137,-0.386c0.489,-0.257 0.734,-0.634 0.734,-1.132Z" style="fill:#fff;fill-rule:nonzero;"/><path d="M245.556,68.017c0.374,0.541 0.562,1.167 0.562,1.88c-0,0.892 -0.306,1.57 -0.918,2.034c-0.612,0.464 -1.498,0.696 -2.657,0.696c-1.119,-0 -1.996,-0.225 -2.629,-0.674c-0.633,-0.449 -0.95,-1.135 -0.95,-2.056c0,-0.332 0.043,-0.661 0.127,-0.986c0.085,-0.326 0.197,-0.588 0.337,-0.786l0.63,0.263c-0.26,0.459 -0.391,0.962 -0.391,1.509c0,0.635 0.231,1.107 0.691,1.416c0.461,0.309 1.189,0.464 2.185,0.464c1.914,0 2.871,-0.627 2.871,-1.88c0,-0.53 -0.162,-1.074 -0.488,-1.631l0.63,-0.249Z" style="fill:#fff;fill-rule:nonzero;"/><path d="M239.745,61.714l0,2.124l6.241,-0l-0,0.796l-6.241,-0l0,2.133l-0.649,0l0,-5.053l0.649,-0Z" style="fill:#fff;fill-rule:nonzero;"/></g><rect id="rect" x="277.63" y="18.241" width="480" height="80.687" style="fill:#333;"/><g><path d="M215.074,141.605l-0.844,-0l-2.345,-5.44l-0,5.44l-0.761,-0l0,-6.89l0.849,-0l2.355,5.391l-0,-5.391l0.746,-0l0,6.89Z" style="fill:#fff;fill-rule:nonzero;"/><path d="M219.072,134.583c0.733,0 1.291,0.305 1.676,0.916c0.385,0.61 0.577,1.498 0.577,2.663c0,1.159 -0.191,2.045 -0.575,2.657c-0.383,0.611 -0.942,0.917 -1.678,0.917c-0.729,0 -1.286,-0.305 -1.671,-0.915c-0.385,-0.61 -0.577,-1.497 -0.577,-2.659c-0,-1.162 0.191,-2.049 0.575,-2.661c0.383,-0.612 0.941,-0.918 1.673,-0.918Zm0,6.45c0.964,0 1.447,-0.957 1.447,-2.871c-0,-1.917 -0.483,-2.876 -1.447,-2.876c-0.47,0 -0.827,0.248 -1.073,0.745c-0.246,0.496 -0.369,1.207 -0.369,2.131c0,0.935 0.122,1.647 0.367,2.136c0.244,0.49 0.602,0.735 1.075,0.735Z" style="fill:#fff;fill-rule:nonzero;"/><path d="M227.47,135.364l-2.017,0l0,6.241l-0.756,-0l0,-6.241l-2.025,0l-0,-0.649l4.798,-0l-0,0.649Z" style="fill:#fff;fill-rule:nonzero;"/></g><rect id="rect1" serif:id="rect" x="277.63" y="105.704" width="480" height="80.687" style="fill:#333;"/><rect id="rect2" serif:id="rect" x="277.63" y="193.168" width="480" height="80.687" style="fill:#333;"/><rect id="rect3" serif:id="rect" x="277.63" y="280.631" width="480" height="80.687" style="fill:#333;"/><g><path d="M22.288,90.429c-0.54,0.375 -1.167,0.562 -1.88,0.562c-0.892,-0 -1.57,-0.306 -2.034,-0.918c-0.463,-0.612 -0.695,-1.497 -0.695,-2.656c-0,-1.12 0.224,-1.997 0.674,-2.63c0.449,-0.633 1.134,-0.949 2.055,-0.949c0.332,-0 0.661,0.042 0.987,0.127c0.325,0.084 0.587,0.197 0.786,0.337l-0.264,0.629c-0.459,-0.26 -0.962,-0.39 -1.509,-0.39c-0.635,-0 -1.107,0.23 -1.416,0.691c-0.309,0.46 -0.464,1.189 -0.464,2.185c0,1.914 0.627,2.871 1.88,2.871c0.531,-0 1.074,-0.163 1.631,-0.488l0.249,0.629Z" style="fill-rule:nonzero;"/><path d="M28.06,90.859l-3.75,0l-0,-6.89l0.8,0l0,6.192l2.95,-0l-0,0.698Z" style="fill-rule:nonzero;"/><path d="M34.949,90.859l-1.011,0l-2.329,-3.379l-0.727,0.791l-0,2.588l-0.801,0l0,-6.89l0.801,0l-0,3.301l3.056,-3.301l0.923,0l-2.69,2.911l2.778,3.979Z" style="fill-rule:nonzero;"/></g><g><path d="M180.433,48.322l-1.001,-0l-2.021,-3.13l-0.889,-0l0,3.13l-0.801,-0l0,-6.89l1.949,-0c0.654,-0 1.171,0.159 1.55,0.476c0.379,0.317 0.569,0.759 0.569,1.326c-0,0.42 -0.139,0.793 -0.415,1.12c-0.277,0.328 -0.658,0.55 -1.143,0.667l2.202,3.301Zm-3.911,-3.828l1.011,-0c0.423,-0 0.767,-0.115 1.03,-0.345c0.264,-0.229 0.396,-0.518 0.396,-0.866c-0,-0.769 -0.469,-1.153 -1.406,-1.153l-1.031,0l0,2.364Z" style="fill-rule:nonzero;"/><path d="M185.17,42.194c-0.41,-0.14 -0.799,-0.21 -1.167,-0.21c-0.417,-0 -0.756,0.095 -1.018,0.285c-0.262,0.191 -0.393,0.462 -0.393,0.813c-0,0.417 0.343,0.783 1.03,1.099c0.508,0.234 0.844,0.397 1.008,0.488c0.165,0.091 0.331,0.217 0.501,0.376c0.169,0.16 0.305,0.348 0.407,0.564c0.103,0.217 0.154,0.46 0.154,0.73c0,0.671 -0.225,1.191 -0.676,1.56c-0.451,0.37 -0.982,0.554 -1.594,0.554c-0.593,0 -1.112,-0.117 -1.558,-0.351l0.166,-0.689c0.524,0.238 0.981,0.357 1.372,0.357c0.456,-0 0.821,-0.118 1.096,-0.354c0.275,-0.236 0.413,-0.561 0.413,-0.974c-0,-0.306 -0.09,-0.566 -0.269,-0.779c-0.179,-0.213 -0.509,-0.431 -0.991,-0.652c-0.495,-0.228 -0.814,-0.383 -0.959,-0.466c-0.145,-0.083 -0.289,-0.198 -0.432,-0.344c-0.144,-0.147 -0.254,-0.311 -0.332,-0.494c-0.079,-0.182 -0.118,-0.38 -0.118,-0.595c0,-0.57 0.205,-1.014 0.616,-1.333c0.41,-0.319 0.929,-0.479 1.557,-0.479c0.459,0 0.915,0.07 1.367,0.21l-0.18,0.684Z" style="fill-rule:nonzero;"/><path d="M192.235,42.081l-2.124,0l0,6.241l-0.796,-0l0,-6.241l-2.134,0l0,-0.649l5.054,-0l0,0.649Z" style="fill-rule:nonzero;"/></g><g><path d="M50.602,90.991l-3.75,-0l0,-6.89l0.801,0l0,6.192l2.949,-0l0,0.698Z" style="fill-rule:nonzero;"/><path d="M56.452,90.991l-3.599,-0l0,-6.89l3.57,0l-0,0.699l-2.769,-0l0,2.133l2.661,0l0,0.699l-2.661,-0l0,2.661l2.798,-0l-0,0.698Z" style="fill-rule:nonzero;"/><path d="M62.682,90.991l-0.888,-0l-2.471,-5.439l0,5.439l-0.801,-0l0,-6.89l0.894,0l2.48,5.391l0,-5.391l0.786,0l0,6.89Z" style="fill-rule:nonzero;"/></g><g><path d="M75.815,84.101l1.748,0c0.661,0 1.19,0.166 1.587,0.498c0.397,0.332 0.596,0.79 0.596,1.372c-0,0.586 -0.198,1.054 -0.593,1.404c-0.396,0.35 -0.914,0.525 -1.556,0.525l-0.981,0l-0,3.091l-0.801,-0l0,-6.89Zm0.801,3.101l0.869,-0c0.941,-0 1.411,-0.394 1.411,-1.182c0,-0.364 -0.128,-0.659 -0.383,-0.884c-0.256,-0.224 -0.585,-0.336 -0.989,-0.336l-0.908,-0l-0,2.402Z" style="fill-rule:nonzero;"/><path d="M86.308,90.991l-0.84,-0l-0.761,-2.412l-2.261,-0l-0.772,2.412l-0.83,-0l2.251,-6.89l0.962,0l2.251,6.89Zm-1.831,-3.11l-0.903,-2.852l-0.899,2.852l1.802,-0Z" style="fill-rule:nonzero;"/><path d="M92.099,84.751l-2.124,-0l0,6.24l-0.796,-0l0,-6.24l-2.133,-0l-0,-0.65l5.053,0l0,0.65Z" style="fill-rule:nonzero;"/><path d="M98.1,84.751l-2.124,-0l0,6.24l-0.796,-0l0,-6.24l-2.133,-0l-0,-0.65l5.053,0l0,0.65Z" style="fill-rule:nonzero;"/></g><g><path d="M115.688,90.991l-1.001,-0l-2.021,-3.13l-0.889,0l0,3.13l-0.8,-0l-0,-6.89l1.948,0c0.654,0 1.171,0.159 1.55,0.476c0.379,0.318 0.569,0.76 0.569,1.326c-0,0.42 -0.138,0.794 -0.415,1.121c-0.277,0.327 -0.658,0.549 -1.143,0.666l2.202,3.301Zm-3.911,-3.828l1.011,-0c0.423,-0 0.767,-0.115 1.03,-0.344c0.264,-0.23 0.396,-0.519 0.396,-0.867c-0,-0.768 -0.469,-1.152 -1.406,-1.152l-1.031,-0l0,2.363Z" style="fill-rule:nonzero;"/><path d="M121.035,90.991l-0.889,-0l-2.47,-5.439l-0,5.439l-0.801,-0l-0,-6.89l0.894,0l2.48,5.391l0,-5.391l0.786,0l0,6.89Z" style="fill-rule:nonzero;"/><path d="M122.979,84.101l1.357,0c0.902,0 1.624,0.307 2.168,0.921c0.544,0.613 0.815,1.456 0.815,2.527c0,1.093 -0.276,1.94 -0.827,2.541c-0.552,0.601 -1.259,0.901 -2.122,0.901l-1.391,-0l-0,-6.89Zm0.8,6.192l0.567,-0c0.654,-0 1.172,-0.243 1.552,-0.728c0.381,-0.485 0.572,-1.157 0.572,-2.016c-0,-0.853 -0.192,-1.525 -0.574,-2.015c-0.382,-0.489 -0.899,-0.734 -1.55,-0.734l-0.567,-0l0,5.493Z" style="fill-rule:nonzero;"/></g><g><path d="M146.309,90.991l-3.13,-0l0,-0.698l1.187,-0l-0,-5.493l-1.187,-0l0,-0.699l3.13,0l-0,0.699l-1.143,-0l0,5.493l1.143,-0l-0,0.698Z" style="fill-rule:nonzero;"/><path d="M152.857,90.991l-0.889,-0l-2.471,-5.439l0,5.439l-0.8,-0l-0,-6.89l0.893,0l2.481,5.391l-0,-5.391l0.786,0l-0,6.89Z" style="fill-rule:nonzero;"/><path d="M159.497,84.101l-2.246,6.89l-0.962,-0l-2.251,-6.89l0.84,0l1.89,5.962l1.899,-5.962l0.83,0Z" style="fill-rule:nonzero;"/></g><g><path d="M175.428,84.101l1.357,0c0.902,0 1.625,0.307 2.168,0.921c0.544,0.613 0.816,1.456 0.816,2.527c-0,1.093 -0.276,1.94 -0.828,2.541c-0.552,0.601 -1.259,0.901 -2.122,0.901l-1.391,-0l-0,-6.89Zm0.801,6.192l0.566,-0c0.654,-0 1.172,-0.243 1.553,-0.728c0.381,-0.485 0.571,-1.157 0.571,-2.016c0,-0.853 -0.191,-1.525 -0.574,-2.015c-0.382,-0.489 -0.899,-0.734 -1.55,-0.734l-0.566,-0l-0,5.493Z" style="fill-rule:nonzero;"/><path d="M184.94,90.991l-3.13,-0l-0,-0.698l1.186,-0l0,-5.493l-1.186,-0l-0,-0.699l3.13,0l-0,0.699l-1.143,-0l0,5.493l1.143,-0l-0,0.698Z" style="fill-rule:nonzero;"/><path d="M191.629,90.991l-0.771,-0l-0,-5.908l-1.04,2.827l-0.757,-0l-1.04,-2.827l-0,5.908l-0.772,-0l0,-6.89l1.04,0l1.153,3.14l1.147,-3.14l1.04,0l0,6.89Z" style="fill-rule:nonzero;"/></g><path d="M119.373,104.814l-0,192.054" style="fill:none;stroke:#000;stroke-opacity:0.5;stroke-width:1px;"/><path d="M151.676,104.814l-0,192.054" style="fill:none;stroke:#000;stroke-opacity:0.5;stroke-width:1px;"/><path d="M183.978,104.814l0,192.054" style="fill:none;stroke:#000;stroke-opacity:0.5;stroke-width:1px;"/><path d="M54.767,104.814l0,172.242" style="fill:none;stroke:#000;stroke-opacity:0.5;stroke-width:1px;"/><path d="M26.314,104.814l-0,173.154" style="fill:none;stroke:#000;stroke-opacity:0.5;stroke-width:1px;"/><path d="M87.07,104.947l0,172.109" style="fill:none;stroke:#000;stroke-opacity:0.5;stroke-width:1px;"/><g><path d="M261.933,88.12c-0.14,0.351 -0.21,0.683 -0.21,0.997c-0,0.356 0.095,0.646 0.285,0.87c0.191,0.224 0.462,0.336 0.813,0.336c0.417,0 0.783,-0.293 1.099,-0.88c0.234,-0.434 0.397,-0.721 0.488,-0.862c0.091,-0.14 0.217,-0.283 0.376,-0.428c0.16,-0.144 0.348,-0.26 0.564,-0.348c0.217,-0.088 0.46,-0.132 0.73,-0.132c0.671,0 1.191,0.193 1.56,0.578c0.37,0.386 0.554,0.84 0.554,1.363c0,0.506 -0.117,0.95 -0.351,1.331l-0.689,-0.142c0.238,-0.448 0.357,-0.839 0.357,-1.172c-0,-0.39 -0.118,-0.702 -0.354,-0.937c-0.236,-0.235 -0.561,-0.353 -0.974,-0.353c-0.306,0 -0.566,0.077 -0.779,0.23c-0.213,0.153 -0.431,0.435 -0.652,0.847c-0.228,0.423 -0.383,0.696 -0.466,0.82c-0.083,0.124 -0.198,0.247 -0.345,0.369c-0.146,0.122 -0.31,0.217 -0.493,0.284c-0.182,0.067 -0.381,0.1 -0.595,0.1c-0.57,-0 -1.014,-0.175 -1.333,-0.526c-0.319,-0.35 -0.479,-0.794 -0.479,-1.331c0,-0.392 0.07,-0.782 0.21,-1.168l0.684,0.154Z" style="fill-rule:nonzero;"/><path d="M261.171,85.741l-0,-1.494c-0,-0.564 0.166,-1.016 0.498,-1.356c0.332,-0.339 0.789,-0.509 1.372,-0.509c0.586,0 1.054,0.169 1.404,0.507c0.35,0.338 0.525,0.781 0.525,1.329l-0,0.839l3.091,0l-0,0.684l-6.89,0Zm3.1,-0.684l0,-0.743c0,-0.804 -0.393,-1.206 -1.181,-1.206c-0.365,0 -0.659,0.109 -0.884,0.328c-0.225,0.218 -0.337,0.5 -0.337,0.845l0,0.776l2.402,0Z" style="fill-rule:nonzero;"/><path d="M268.061,76.782l-0,0.856l-3.13,1.727l-0,0.76l3.13,-0l-0,0.684l-6.89,-0l-0,-1.665c-0,-0.559 0.159,-1.001 0.476,-1.325c0.317,-0.324 0.759,-0.486 1.326,-0.486c0.42,-0 0.793,0.118 1.12,0.355c0.327,0.236 0.55,0.562 0.667,0.976l3.301,-1.882Zm-3.829,3.343l0,-0.864c0,-0.362 -0.114,-0.655 -0.344,-0.881c-0.229,-0.225 -0.518,-0.338 -0.867,-0.338c-0.768,0 -1.152,0.401 -1.152,1.202l0,0.881l2.363,-0Z" style="fill-rule:nonzero;"/><path d="M268.061,72.409l-0,3.075l-6.89,0l-0,-3.05l0.698,-0l0,2.366l2.134,-0l-0,-2.274l0.698,-0l0,2.274l2.661,-0l0,-2.391l0.699,-0Z" style="fill-rule:nonzero;"/><path d="M268.061,66.517l-0,0.717l-2.413,0.651l0,1.932l2.413,0.66l-0,0.709l-6.89,-1.924l-0,-0.822l6.89,-1.923Zm-3.111,1.565l-2.851,0.772l2.851,0.767l0,-1.539Z" style="fill-rule:nonzero;"/><path d="M261.171,65.423l-0,-1.16c-0,-0.77 0.307,-1.388 0.92,-1.853c0.614,-0.464 1.456,-0.696 2.527,-0.696c1.094,-0 1.941,0.235 2.542,0.707c0.6,0.471 0.901,1.076 0.901,1.813l-0,1.189l-6.89,0Zm6.191,-0.684l0,-0.484c0,-0.559 -0.242,-1.002 -0.727,-1.327c-0.485,-0.326 -1.157,-0.488 -2.017,-0.488c-0.853,-0 -1.524,0.163 -2.014,0.49c-0.49,0.327 -0.735,0.769 -0.735,1.325l0,0.484l5.493,-0Z" style="fill-rule:nonzero;"/></g><path d="M242.72,124.759l13.031,-5.906c1.556,3.505 5.03,5.764 8.865,5.764c5.352,0 9.698,-4.345 9.698,-9.698c-0,-5.352 -4.346,-9.697 -9.698,-9.697c-3.835,-0 -7.309,2.259 -8.865,5.764l-13.031,-6.172" style="fill:none;stroke:#000;stroke-opacity:0.5;stroke-width:1px;stroke-linejoin:miter;"/><path d="M242.72,182.129l13.031,-5.906c1.556,3.504 5.03,5.764 8.865,5.764c5.352,-0 9.698,-4.346 9.698,-9.698c-0,-5.352 -4.346,-9.698 -9.698,-9.698c-3.835,0 -7.309,2.259 -8.865,5.764l-13.031,-6.172" style="fill:none;stroke:#000;stroke-opacity:0.5;stroke-width:1px;stroke-linejoin:miter;"/><path d="M242.72,239.498l13.031,-5.906c1.556,3.505 5.03,5.764 8.865,5.764c5.352,0 9.698,-4.345 9.698,-9.697c-0,-5.353 -4.346,-9.698 -9.698,-9.698c-3.835,-0 -7.309,2.259 -8.865,5.764l-13.031,-6.172" style="fill:none;stroke:#000;stroke-opacity:0.5;stroke-width:1px;stroke-linejoin:miter;"/><path d="M242.72,296.868l13.031,-5.906c1.556,3.505 5.03,5.764 8.865,5.764c5.352,0 9.698,-4.345 9.698,-9.698c-0,-5.352 -4.346,-9.698 -9.698,-9.698c-3.835,0 -7.309,2.26 -8.865,5.765l-13.031,-6.172" style="fill:none;stroke:#000;stroke-opacity:0.5;stroke-width:1px;stroke-linejoin:miter;"/><g><path d="M27.757,13.094c-1.231,-0.42 -2.398,-0.63 -3.501,-0.63c-1.25,-0 -2.268,0.285 -3.054,0.857c-0.786,0.571 -1.18,1.384 -1.18,2.439c0,1.25 1.031,2.348 3.091,3.296c1.524,0.703 2.532,1.191 3.025,1.464c0.493,0.274 0.994,0.65 1.502,1.128c0.507,0.479 0.915,1.043 1.223,1.692c0.307,0.65 0.461,1.38 0.461,2.19c0,2.012 -0.676,3.572 -2.029,4.68c-1.352,1.109 -2.946,1.663 -4.782,1.663c-1.778,0 -3.335,-0.352 -4.673,-1.055l0.498,-2.065c1.572,0.713 2.944,1.069 4.116,1.069c1.367,0 2.463,-0.354 3.289,-1.062c0.825,-0.708 1.237,-1.682 1.237,-2.922c0,-0.918 -0.268,-1.697 -0.805,-2.337c-0.537,-0.639 -1.529,-1.291 -2.974,-1.955c-1.484,-0.684 -2.444,-1.15 -2.878,-1.399c-0.435,-0.249 -0.867,-0.593 -1.297,-1.033c-0.429,-0.439 -0.761,-0.932 -0.996,-1.479c-0.234,-0.547 -0.351,-1.143 -0.351,-1.787c-0,-1.709 0.615,-3.042 1.845,-3.999c1.231,-0.957 2.788,-1.436 4.673,-1.436c1.377,0 2.744,0.21 4.102,0.63l-0.542,2.051Z" style="fill-rule:nonzero;"/><path d="M47.415,30.789c-1.533,0.703 -3.042,1.055 -4.526,1.055c-2.725,-0 -4.087,-1.441 -4.087,-4.322l-0,-9.331l-2.93,0l0,-1.977l2.93,-0l-0,-4.175l2.226,0l0,4.175l5.186,-0l-0,1.977l-5.186,0l0,8.731c0,0.928 0.205,1.648 0.616,2.16c0.41,0.513 0.966,0.77 1.669,0.77c1.25,-0 2.486,-0.279 3.707,-0.835l0.395,1.772Z" style="fill-rule:nonzero;"/><path d="M59.353,15.848c2.1,-0 3.77,0.732 5.01,2.197c1.24,1.465 1.861,3.393 1.861,5.786c-0,2.412 -0.621,4.355 -1.861,5.83c-1.24,1.475 -2.91,2.212 -5.01,2.212c-2.109,0 -3.781,-0.735 -5.017,-2.205c-1.235,-1.469 -1.853,-3.415 -1.853,-5.837c0,-2.402 0.62,-4.333 1.861,-5.793c1.24,-1.46 2.91,-2.19 5.009,-2.19Zm0,14.033c1.387,-0 2.481,-0.586 3.282,-1.758c0.801,-1.172 1.201,-2.593 1.201,-4.263c-0,-1.757 -0.396,-3.203 -1.187,-4.336c-0.791,-1.132 -1.889,-1.699 -3.296,-1.699c-1.416,0 -2.514,0.559 -3.295,1.677c-0.782,1.119 -1.172,2.571 -1.172,4.358c-0,1.7 0.395,3.128 1.186,4.285c0.791,1.157 1.885,1.736 3.281,1.736Z" style="fill-rule:nonzero;"/><path d="M83.216,30.965c-1.328,0.605 -2.788,0.908 -4.38,0.908c-2.402,0 -4.319,-0.73 -5.75,-2.19c-1.43,-1.46 -2.146,-3.401 -2.146,-5.823c0,-2.422 0.721,-4.362 2.161,-5.822c1.44,-1.46 3.333,-2.19 5.676,-2.19c1.534,-0 2.993,0.268 4.38,0.805l-0.6,1.89c-1.387,-0.479 -2.637,-0.718 -3.75,-0.718c-1.68,0 -3.011,0.542 -3.992,1.626c-0.982,1.084 -1.472,2.554 -1.472,4.409c-0,1.7 0.508,3.128 1.523,4.285c1.016,1.157 2.339,1.736 3.97,1.736c1.289,-0 2.617,-0.249 3.984,-0.747l0.396,1.831Z" style="fill-rule:nonzero;"/><path d="M101.277,31.478l-2.285,-0l0,-9.786c0,-1.357 -0.217,-2.341 -0.652,-2.951c-0.434,-0.611 -1.115,-0.916 -2.043,-0.916c-1.397,0 -2.896,0.869 -4.497,2.608l-0,11.045l-2.285,-0l-0,-20.669l2.285,-0l-0,7.646c1.64,-1.738 3.369,-2.607 5.185,-2.607c2.862,-0 4.292,1.728 4.292,5.185l0,10.445Z" style="fill-rule:nonzero;"/><path d="M27.757,43.094c-1.231,-0.42 -2.398,-0.63 -3.501,-0.63c-1.25,-0 -2.268,0.285 -3.054,0.857c-0.786,0.571 -1.18,1.384 -1.18,2.439c0,1.25 1.031,2.348 3.091,3.296c1.524,0.703 2.532,1.191 3.025,1.464c0.493,0.274 0.994,0.65 1.502,1.128c0.507,0.479 0.915,1.043 1.223,1.692c0.307,0.65 0.461,1.38 0.461,2.19c0,2.012 -0.676,3.572 -2.029,4.68c-1.352,1.109 -2.946,1.663 -4.782,1.663c-1.778,0 -3.335,-0.352 -4.673,-1.055l0.498,-2.065c1.572,0.713 2.944,1.069 4.116,1.069c1.367,0 2.463,-0.354 3.289,-1.062c0.825,-0.708 1.237,-1.682 1.237,-2.922c0,-0.918 -0.268,-1.697 -0.805,-2.337c-0.537,-0.639 -1.529,-1.291 -2.974,-1.955c-1.484,-0.684 -2.444,-1.15 -2.878,-1.399c-0.435,-0.249 -0.867,-0.593 -1.297,-1.033c-0.429,-0.439 -0.761,-0.932 -0.996,-1.479c-0.234,-0.547 -0.351,-1.143 -0.351,-1.787c-0,-1.709 0.615,-3.042 1.845,-3.999c1.231,-0.957 2.788,-1.436 4.673,-1.436c1.377,0 2.744,0.21 4.102,0.63l-0.542,2.051Z" style="fill-rule:nonzero;"/><path d="M47.723,53.919l-10.474,-0c-0,1.728 0.5,3.154 1.501,4.277c1.001,1.123 2.229,1.685 3.685,1.685c1.386,-0 2.817,-0.249 4.292,-0.747l0.395,1.831c-1.348,0.605 -2.92,0.908 -4.717,0.908c-2.265,0 -4.092,-0.728 -5.478,-2.183c-1.387,-1.455 -2.08,-3.418 -2.08,-5.888c-0,-2.422 0.622,-4.353 1.867,-5.794c1.245,-1.44 2.854,-2.16 4.827,-2.16c1.758,-0 3.228,0.669 4.409,2.006c1.182,1.338 1.773,3.121 1.773,5.347l-0,0.718Zm-2.491,-1.86c0,-1.192 -0.371,-2.195 -1.113,-3.011c-0.742,-0.815 -1.572,-1.223 -2.49,-1.223c-1.182,0 -2.161,0.391 -2.937,1.172c-0.776,0.781 -1.209,1.802 -1.297,3.062l7.837,-0Z" style="fill-rule:nonzero;"/><path d="M65.213,67.513l-2.285,-0l-0,-8.233c-0.469,0.752 -1.14,1.372 -2.014,1.861c-0.874,0.488 -1.795,0.732 -2.762,0.732c-1.748,0 -3.13,-0.767 -4.145,-2.3c-1.016,-1.533 -1.524,-3.486 -1.524,-5.859c0,-2.276 0.528,-4.155 1.582,-5.64c1.055,-1.484 2.461,-2.226 4.219,-2.226c1.924,-0 3.472,0.781 4.644,2.343l-0,-1.977l2.285,-0l-0,21.299Zm-2.285,-10.708l-0,-6.343c-1.094,-1.758 -2.412,-2.637 -3.955,-2.637c-1.26,0 -2.256,0.571 -2.989,1.714c-0.732,1.143 -1.098,2.573 -1.098,4.292c-0,1.748 0.344,3.184 1.032,4.307c0.689,1.123 1.634,1.684 2.835,1.684c0.576,0 1.157,-0.156 1.743,-0.469c0.586,-0.312 1.138,-0.781 1.655,-1.406c0.518,-0.625 0.777,-1.006 0.777,-1.142Z" style="fill-rule:nonzero;"/><path d="M84.08,56.702l-2.549,0l0,4.776l-2.402,-0l-0,-4.776l-8.994,0l-0,-1.831l8.159,-14.062l3.237,-0l0,13.798l2.549,0l0,2.095Zm-4.951,-2.095l-0,-11.425l-6.563,11.425l6.563,0Z" style="fill-rule:nonzero;"/></g><path d="M59.668,22.849l2.97,-0l-4.379,6.025l0.78,-4.017l-2.97,0l4.379,-6.025l-0.78,4.017Z"/><g><path d="M277.965,23.399l1.254,-0l-0,-4.2l-1.278,0.894l-0.311,-0.455l1.757,-1.253l0.447,-0l-0,5.014l1.229,-0l0,0.575l-3.098,-0l0,-0.575Z" style="fill:#fff;fill-rule:nonzero;"/><path d="M282.181,21.179c0,-0.452 0.04,-0.858 0.12,-1.217c0.08,-0.36 0.199,-0.663 0.359,-0.911c0.16,-0.247 0.362,-0.436 0.607,-0.567c0.245,-0.13 0.535,-0.195 0.87,-0.195c0.357,-0 0.659,0.064 0.906,0.191c0.248,0.128 0.449,0.315 0.603,0.559c0.155,0.245 0.266,0.547 0.336,0.907c0.069,0.359 0.103,0.77 0.103,1.233c0,0.453 -0.04,0.858 -0.119,1.218c-0.08,0.359 -0.2,0.662 -0.36,0.91c-0.159,0.247 -0.362,0.436 -0.607,0.567c-0.244,0.13 -0.534,0.195 -0.87,0.195c-0.351,0 -0.651,-0.07 -0.898,-0.211c-0.248,-0.141 -0.45,-0.339 -0.607,-0.595c-0.157,-0.255 -0.27,-0.56 -0.339,-0.914c-0.069,-0.354 -0.104,-0.744 -0.104,-1.17Zm3.25,0c-0,-0.282 -0.016,-0.551 -0.048,-0.806l-2.372,2.163c0.091,0.304 0.227,0.546 0.408,0.727c0.181,0.181 0.417,0.271 0.71,0.271c0.469,0 0.803,-0.194 1.002,-0.582c0.2,-0.389 0.3,-0.98 0.3,-1.773Zm-2.587,0c-0,0.133 0.004,0.261 0.012,0.383c0.008,0.123 0.017,0.243 0.028,0.36l2.379,-2.156c-0.091,-0.287 -0.225,-0.516 -0.403,-0.687c-0.179,-0.17 -0.419,-0.255 -0.723,-0.255c-0.474,-0 -0.808,0.195 -1.002,0.587c-0.194,0.391 -0.291,0.98 -0.291,1.768Z" style="fill:#fff;fill-rule:nonzero;"/><path d="M286.972,21.179c-0,-0.452 0.039,-0.858 0.119,-1.217c0.08,-0.36 0.2,-0.663 0.36,-0.911c0.159,-0.247 0.362,-0.436 0.606,-0.567c0.245,-0.13 0.535,-0.195 0.871,-0.195c0.356,-0 0.658,0.064 0.906,0.191c0.247,0.128 0.448,0.315 0.603,0.559c0.154,0.245 0.266,0.547 0.335,0.907c0.069,0.359 0.104,0.77 0.104,1.233c-0,0.453 -0.04,0.858 -0.12,1.218c-0.08,0.359 -0.2,0.662 -0.359,0.91c-0.16,0.247 -0.362,0.436 -0.607,0.567c-0.245,0.13 -0.535,0.195 -0.87,0.195c-0.352,0 -0.651,-0.07 -0.899,-0.211c-0.247,-0.141 -0.449,-0.339 -0.606,-0.595c-0.157,-0.255 -0.27,-0.56 -0.34,-0.914c-0.069,-0.354 -0.103,-0.744 -0.103,-1.17Zm3.249,0c0,-0.282 -0.016,-0.551 -0.048,-0.806l-2.371,2.163c0.09,0.304 0.226,0.546 0.407,0.727c0.181,0.181 0.418,0.271 0.711,0.271c0.468,0 0.802,-0.194 1.002,-0.582c0.199,-0.389 0.299,-0.98 0.299,-1.773Zm-2.587,0c0,0.133 0.004,0.261 0.012,0.383c0.008,0.123 0.018,0.243 0.028,0.36l2.379,-2.156c-0.09,-0.287 -0.224,-0.516 -0.403,-0.687c-0.178,-0.17 -0.419,-0.255 -0.722,-0.255c-0.474,-0 -0.808,0.195 -1.002,0.587c-0.195,0.391 -0.292,0.98 -0.292,1.768Z" style="fill:#fff;fill-rule:nonzero;"/><path d="M291.546,19.646c0,-0.25 0.031,-0.462 0.092,-0.635c0.062,-0.173 0.14,-0.312 0.236,-0.419c0.096,-0.106 0.205,-0.183 0.327,-0.231c0.123,-0.048 0.245,-0.072 0.367,-0.072c0.123,-0 0.245,0.021 0.368,0.064c0.122,0.042 0.231,0.116 0.327,0.219c0.096,0.104 0.174,0.243 0.236,0.415c0.061,0.173 0.091,0.393 0.091,0.659c0,0.261 -0.03,0.478 -0.091,0.651c-0.062,0.173 -0.14,0.311 -0.236,0.415c-0.096,0.104 -0.205,0.177 -0.327,0.22c-0.123,0.042 -0.245,0.064 -0.368,0.064c-0.122,-0 -0.244,-0.022 -0.367,-0.064c-0.122,-0.043 -0.231,-0.116 -0.327,-0.22c-0.096,-0.104 -0.174,-0.242 -0.236,-0.415c-0.061,-0.173 -0.092,-0.39 -0.092,-0.651Zm0.559,0c0,0.314 0.05,0.534 0.148,0.659c0.099,0.125 0.204,0.188 0.315,0.188c0.059,-0 0.116,-0.012 0.172,-0.036c0.056,-0.024 0.105,-0.068 0.148,-0.132c0.042,-0.064 0.077,-0.151 0.104,-0.26c0.026,-0.109 0.04,-0.248 0.04,-0.419c-0,-0.165 -0.014,-0.302 -0.04,-0.411c-0.027,-0.109 -0.062,-0.197 -0.104,-0.263c-0.043,-0.067 -0.092,-0.114 -0.148,-0.14c-0.056,-0.027 -0.113,-0.04 -0.172,-0.04c-0.122,-0 -0.23,0.062 -0.323,0.188c-0.093,0.125 -0.14,0.347 -0.14,0.666Zm1.733,2.978c-0,-0.25 0.031,-0.461 0.092,-0.634c0.061,-0.173 0.139,-0.313 0.235,-0.42c0.096,-0.106 0.205,-0.183 0.328,-0.231c0.122,-0.048 0.245,-0.072 0.367,-0.072c0.122,-0 0.245,0.021 0.367,0.064c0.123,0.042 0.232,0.116 0.328,0.219c0.095,0.104 0.174,0.243 0.235,0.416c0.061,0.173 0.092,0.392 0.092,0.658c-0,0.261 -0.031,0.478 -0.092,0.651c-0.061,0.173 -0.14,0.311 -0.235,0.415c-0.096,0.104 -0.205,0.177 -0.328,0.22c-0.122,0.042 -0.245,0.064 -0.367,0.064c-0.122,-0 -0.245,-0.022 -0.367,-0.064c-0.123,-0.043 -0.232,-0.116 -0.328,-0.22c-0.096,-0.104 -0.174,-0.242 -0.235,-0.415c-0.061,-0.173 -0.092,-0.39 -0.092,-0.651Zm0.559,0c-0,0.314 0.049,0.534 0.148,0.659c0.098,0.125 0.203,0.188 0.315,0.188c0.058,-0 0.116,-0.011 0.172,-0.032c0.055,-0.022 0.105,-0.063 0.147,-0.124c0.043,-0.061 0.077,-0.148 0.104,-0.26c0.027,-0.111 0.04,-0.255 0.04,-0.431c0,-0.165 -0.013,-0.302 -0.04,-0.411c-0.027,-0.109 -0.061,-0.197 -0.104,-0.263c-0.042,-0.067 -0.092,-0.113 -0.147,-0.14c-0.056,-0.027 -0.114,-0.04 -0.172,-0.04c-0.059,-0 -0.116,0.013 -0.172,0.04c-0.056,0.027 -0.105,0.072 -0.147,0.136c-0.043,0.064 -0.078,0.15 -0.104,0.259c-0.027,0.109 -0.04,0.249 -0.04,0.419Zm0.455,-4.383l0.455,0.232l-2.778,5.612l-0.456,-0.207l2.779,-5.637Z" style="fill:#fff;fill-rule:nonzero;"/></g><g><path d="M277.965,110.862l1.254,0l-0,-4.2l-1.278,0.895l-0.311,-0.456l1.757,-1.253l0.447,-0l-0,5.014l1.229,0l0,0.575l-3.098,-0l0,-0.575Z" style="fill:#fff;fill-rule:nonzero;"/><path d="M282.181,108.642c0,-0.452 0.04,-0.858 0.12,-1.217c0.08,-0.359 0.199,-0.663 0.359,-0.91c0.16,-0.248 0.362,-0.437 0.607,-0.567c0.245,-0.131 0.535,-0.196 0.87,-0.196c0.357,0 0.659,0.064 0.906,0.192c0.248,0.128 0.449,0.314 0.603,0.559c0.155,0.245 0.266,0.547 0.336,0.906c0.069,0.359 0.103,0.77 0.103,1.233c0,0.453 -0.04,0.859 -0.119,1.218c-0.08,0.359 -0.2,0.663 -0.36,0.91c-0.159,0.248 -0.362,0.437 -0.607,0.567c-0.244,0.131 -0.534,0.196 -0.87,0.196c-0.351,-0 -0.651,-0.071 -0.898,-0.212c-0.248,-0.141 -0.45,-0.339 -0.607,-0.595c-0.157,-0.255 -0.27,-0.56 -0.339,-0.914c-0.069,-0.354 -0.104,-0.744 -0.104,-1.17Zm3.25,0c-0,-0.282 -0.016,-0.55 -0.048,-0.806l-2.372,2.164c0.091,0.303 0.227,0.545 0.408,0.726c0.181,0.181 0.417,0.272 0.71,0.272c0.469,-0 0.803,-0.195 1.002,-0.583c0.2,-0.389 0.3,-0.979 0.3,-1.773Zm-2.587,0c-0,0.133 0.004,0.261 0.012,0.384c0.008,0.122 0.017,0.242 0.028,0.359l2.379,-2.156c-0.091,-0.287 -0.225,-0.516 -0.403,-0.686c-0.179,-0.171 -0.419,-0.256 -0.723,-0.256c-0.474,0 -0.808,0.196 -1.002,0.587c-0.194,0.391 -0.291,0.981 -0.291,1.768Z" style="fill:#fff;fill-rule:nonzero;"/><path d="M286.972,108.642c-0,-0.452 0.039,-0.858 0.119,-1.217c0.08,-0.359 0.2,-0.663 0.36,-0.91c0.159,-0.248 0.362,-0.437 0.606,-0.567c0.245,-0.131 0.535,-0.196 0.871,-0.196c0.356,0 0.658,0.064 0.906,0.192c0.247,0.128 0.448,0.314 0.603,0.559c0.154,0.245 0.266,0.547 0.335,0.906c0.069,0.359 0.104,0.77 0.104,1.233c-0,0.453 -0.04,0.859 -0.12,1.218c-0.08,0.359 -0.2,0.663 -0.359,0.91c-0.16,0.248 -0.362,0.437 -0.607,0.567c-0.245,0.131 -0.535,0.196 -0.87,0.196c-0.352,-0 -0.651,-0.071 -0.899,-0.212c-0.247,-0.141 -0.449,-0.339 -0.606,-0.595c-0.157,-0.255 -0.27,-0.56 -0.34,-0.914c-0.069,-0.354 -0.103,-0.744 -0.103,-1.17Zm3.249,0c0,-0.282 -0.016,-0.55 -0.048,-0.806l-2.371,2.164c0.09,0.303 0.226,0.545 0.407,0.726c0.181,0.181 0.418,0.272 0.711,0.272c0.468,-0 0.802,-0.195 1.002,-0.583c0.199,-0.389 0.299,-0.979 0.299,-1.773Zm-2.587,0c0,0.133 0.004,0.261 0.012,0.384c0.008,0.122 0.018,0.242 0.028,0.359l2.379,-2.156c-0.09,-0.287 -0.224,-0.516 -0.403,-0.686c-0.178,-0.171 -0.419,-0.256 -0.722,-0.256c-0.474,0 -0.808,0.196 -1.002,0.587c-0.195,0.391 -0.292,0.981 -0.292,1.768Z" style="fill:#fff;fill-rule:nonzero;"/><path d="M291.546,107.109c0,-0.25 0.031,-0.461 0.092,-0.634c0.062,-0.173 0.14,-0.313 0.236,-0.419c0.096,-0.107 0.205,-0.184 0.327,-0.232c0.123,-0.048 0.245,-0.072 0.367,-0.072c0.123,0 0.245,0.021 0.368,0.064c0.122,0.043 0.231,0.116 0.327,0.22c0.096,0.103 0.174,0.242 0.236,0.415c0.061,0.173 0.091,0.392 0.091,0.658c0,0.261 -0.03,0.478 -0.091,0.651c-0.062,0.173 -0.14,0.312 -0.236,0.415c-0.096,0.104 -0.205,0.177 -0.327,0.22c-0.123,0.043 -0.245,0.064 -0.368,0.064c-0.122,-0 -0.244,-0.021 -0.367,-0.064c-0.122,-0.043 -0.231,-0.116 -0.327,-0.22c-0.096,-0.103 -0.174,-0.242 -0.236,-0.415c-0.061,-0.173 -0.092,-0.39 -0.092,-0.651Zm0.559,0c0,0.315 0.05,0.534 0.148,0.659c0.099,0.125 0.204,0.188 0.315,0.188c0.059,-0 0.116,-0.012 0.172,-0.036c0.056,-0.024 0.105,-0.068 0.148,-0.132c0.042,-0.064 0.077,-0.15 0.104,-0.259c0.026,-0.109 0.04,-0.249 0.04,-0.42c-0,-0.165 -0.014,-0.302 -0.04,-0.411c-0.027,-0.109 -0.062,-0.197 -0.104,-0.263c-0.043,-0.067 -0.092,-0.113 -0.148,-0.14c-0.056,-0.027 -0.113,-0.04 -0.172,-0.04c-0.122,0 -0.23,0.063 -0.323,0.188c-0.093,0.125 -0.14,0.347 -0.14,0.666Zm1.733,2.979c-0,-0.251 0.031,-0.462 0.092,-0.635c0.061,-0.173 0.139,-0.313 0.235,-0.419c0.096,-0.107 0.205,-0.184 0.328,-0.232c0.122,-0.048 0.245,-0.072 0.367,-0.072c0.122,0 0.245,0.022 0.367,0.064c0.123,0.043 0.232,0.116 0.328,0.22c0.095,0.103 0.174,0.242 0.235,0.415c0.061,0.173 0.092,0.392 0.092,0.659c-0,0.26 -0.031,0.477 -0.092,0.65c-0.061,0.173 -0.14,0.312 -0.235,0.415c-0.096,0.104 -0.205,0.177 -0.328,0.22c-0.122,0.043 -0.245,0.064 -0.367,0.064c-0.122,-0 -0.245,-0.021 -0.367,-0.064c-0.123,-0.043 -0.232,-0.116 -0.328,-0.22c-0.096,-0.103 -0.174,-0.242 -0.235,-0.415c-0.061,-0.173 -0.092,-0.39 -0.092,-0.65Zm0.559,-0c-0,0.314 0.049,0.533 0.148,0.658c0.098,0.125 0.203,0.188 0.315,0.188c0.058,-0 0.116,-0.011 0.172,-0.032c0.055,-0.021 0.105,-0.063 0.147,-0.124c0.043,-0.061 0.077,-0.148 0.104,-0.259c0.027,-0.112 0.04,-0.256 0.04,-0.431c0,-0.165 -0.013,-0.303 -0.04,-0.412c-0.027,-0.109 -0.061,-0.197 -0.104,-0.263c-0.042,-0.067 -0.092,-0.113 -0.147,-0.14c-0.056,-0.026 -0.114,-0.04 -0.172,-0.04c-0.059,0 -0.116,0.014 -0.172,0.04c-0.056,0.027 -0.105,0.072 -0.147,0.136c-0.043,0.064 -0.078,0.15 -0.104,0.259c-0.027,0.11 -0.04,0.249 -0.04,0.42Zm0.455,-4.384l0.455,0.232l-2.778,5.613l-0.456,-0.208l2.779,-5.637Z" style="fill:#fff;fill-rule:nonzero;"/></g><g><path d="M277.965,198.325l1.254,0l-0,-4.199l-1.278,0.894l-0.311,-0.455l1.757,-1.254l0.447,0l-0,5.014l1.229,0l0,0.575l-3.098,0l0,-0.575Z" style="fill:#fff;fill-rule:nonzero;"/><path d="M282.181,196.106c0,-0.453 0.04,-0.859 0.12,-1.218c0.08,-0.359 0.199,-0.663 0.359,-0.91c0.16,-0.248 0.362,-0.437 0.607,-0.567c0.245,-0.13 0.535,-0.196 0.87,-0.196c0.357,0 0.659,0.064 0.906,0.192c0.248,0.128 0.449,0.314 0.603,0.559c0.155,0.245 0.266,0.547 0.336,0.906c0.069,0.359 0.103,0.771 0.103,1.234c0,0.452 -0.04,0.858 -0.119,1.217c-0.08,0.36 -0.2,0.663 -0.36,0.91c-0.159,0.248 -0.362,0.437 -0.607,0.567c-0.244,0.131 -0.534,0.196 -0.87,0.196c-0.351,-0 -0.651,-0.071 -0.898,-0.212c-0.248,-0.141 -0.45,-0.339 -0.607,-0.594c-0.157,-0.256 -0.27,-0.561 -0.339,-0.915c-0.069,-0.354 -0.104,-0.743 -0.104,-1.169Zm3.25,-0c-0,-0.282 -0.016,-0.551 -0.048,-0.807l-2.372,2.164c0.091,0.303 0.227,0.546 0.408,0.727c0.181,0.181 0.417,0.271 0.71,0.271c0.469,0 0.803,-0.194 1.002,-0.583c0.2,-0.388 0.3,-0.979 0.3,-1.772Zm-2.587,-0c-0,0.133 0.004,0.261 0.012,0.383c0.008,0.122 0.017,0.242 0.028,0.359l2.379,-2.155c-0.091,-0.288 -0.225,-0.517 -0.403,-0.687c-0.179,-0.17 -0.419,-0.256 -0.723,-0.256c-0.474,0 -0.808,0.196 -1.002,0.587c-0.194,0.391 -0.291,0.981 -0.291,1.769Z" style="fill:#fff;fill-rule:nonzero;"/><path d="M286.972,196.106c-0,-0.453 0.039,-0.859 0.119,-1.218c0.08,-0.359 0.2,-0.663 0.36,-0.91c0.159,-0.248 0.362,-0.437 0.606,-0.567c0.245,-0.13 0.535,-0.196 0.871,-0.196c0.356,0 0.658,0.064 0.906,0.192c0.247,0.128 0.448,0.314 0.603,0.559c0.154,0.245 0.266,0.547 0.335,0.906c0.069,0.359 0.104,0.771 0.104,1.234c-0,0.452 -0.04,0.858 -0.12,1.217c-0.08,0.36 -0.2,0.663 -0.359,0.91c-0.16,0.248 -0.362,0.437 -0.607,0.567c-0.245,0.131 -0.535,0.196 -0.87,0.196c-0.352,-0 -0.651,-0.071 -0.899,-0.212c-0.247,-0.141 -0.449,-0.339 -0.606,-0.594c-0.157,-0.256 -0.27,-0.561 -0.34,-0.915c-0.069,-0.354 -0.103,-0.743 -0.103,-1.169Zm3.249,-0c0,-0.282 -0.016,-0.551 -0.048,-0.807l-2.371,2.164c0.09,0.303 0.226,0.546 0.407,0.727c0.181,0.181 0.418,0.271 0.711,0.271c0.468,0 0.802,-0.194 1.002,-0.583c0.199,-0.388 0.299,-0.979 0.299,-1.772Zm-2.587,-0c0,0.133 0.004,0.261 0.012,0.383c0.008,0.122 0.018,0.242 0.028,0.359l2.379,-2.155c-0.09,-0.288 -0.224,-0.517 -0.403,-0.687c-0.178,-0.17 -0.419,-0.256 -0.722,-0.256c-0.474,0 -0.808,0.196 -1.002,0.587c-0.195,0.391 -0.292,0.981 -0.292,1.769Z" style="fill:#fff;fill-rule:nonzero;"/><path d="M291.546,194.573c0,-0.25 0.031,-0.462 0.092,-0.635c0.062,-0.173 0.14,-0.313 0.236,-0.419c0.096,-0.107 0.205,-0.184 0.327,-0.232c0.123,-0.048 0.245,-0.072 0.367,-0.072c0.123,0 0.245,0.022 0.368,0.064c0.122,0.043 0.231,0.116 0.327,0.22c0.096,0.104 0.174,0.242 0.236,0.415c0.061,0.173 0.091,0.393 0.091,0.659c0,0.261 -0.03,0.477 -0.091,0.65c-0.062,0.173 -0.14,0.312 -0.236,0.416c-0.096,0.103 -0.205,0.177 -0.327,0.219c-0.123,0.043 -0.245,0.064 -0.368,0.064c-0.122,0 -0.244,-0.021 -0.367,-0.064c-0.122,-0.042 -0.231,-0.116 -0.327,-0.219c-0.096,-0.104 -0.174,-0.243 -0.236,-0.416c-0.061,-0.173 -0.092,-0.389 -0.092,-0.65Zm0.559,-0c0,0.314 0.05,0.533 0.148,0.658c0.099,0.126 0.204,0.188 0.315,0.188c0.059,0 0.116,-0.012 0.172,-0.036c0.056,-0.024 0.105,-0.068 0.148,-0.132c0.042,-0.063 0.077,-0.15 0.104,-0.259c0.026,-0.109 0.04,-0.249 0.04,-0.419c-0,-0.165 -0.014,-0.302 -0.04,-0.411c-0.027,-0.11 -0.062,-0.197 -0.104,-0.264c-0.043,-0.066 -0.092,-0.113 -0.148,-0.14c-0.056,-0.026 -0.113,-0.04 -0.172,-0.04c-0.122,0 -0.23,0.063 -0.323,0.188c-0.093,0.125 -0.14,0.347 -0.14,0.667Zm1.733,2.978c-0,-0.25 0.031,-0.462 0.092,-0.635c0.061,-0.173 0.139,-0.313 0.235,-0.419c0.096,-0.107 0.205,-0.184 0.328,-0.232c0.122,-0.048 0.245,-0.071 0.367,-0.071c0.122,-0 0.245,0.021 0.367,0.063c0.123,0.043 0.232,0.116 0.328,0.22c0.095,0.104 0.174,0.242 0.235,0.415c0.061,0.173 0.092,0.393 0.092,0.659c-0,0.261 -0.031,0.478 -0.092,0.651c-0.061,0.173 -0.14,0.311 -0.235,0.415c-0.096,0.104 -0.205,0.177 -0.328,0.219c-0.122,0.043 -0.245,0.064 -0.367,0.064c-0.122,0 -0.245,-0.021 -0.367,-0.064c-0.123,-0.042 -0.232,-0.115 -0.328,-0.219c-0.096,-0.104 -0.174,-0.242 -0.235,-0.415c-0.061,-0.173 -0.092,-0.39 -0.092,-0.651Zm0.559,-0c-0,0.314 0.049,0.533 0.148,0.659c0.098,0.125 0.203,0.187 0.315,0.187c0.058,0 0.116,-0.01 0.172,-0.032c0.055,-0.021 0.105,-0.062 0.147,-0.124c0.043,-0.061 0.077,-0.147 0.104,-0.259c0.027,-0.112 0.04,-0.256 0.04,-0.431c0,-0.165 -0.013,-0.302 -0.04,-0.411c-0.027,-0.109 -0.061,-0.197 -0.104,-0.264c-0.042,-0.066 -0.092,-0.113 -0.147,-0.14c-0.056,-0.026 -0.114,-0.039 -0.172,-0.039c-0.059,-0 -0.116,0.013 -0.172,0.039c-0.056,0.027 -0.105,0.072 -0.147,0.136c-0.043,0.064 -0.078,0.151 -0.104,0.26c-0.027,0.109 -0.04,0.249 -0.04,0.419Zm0.455,-4.383l0.455,0.231l-2.778,5.613l-0.456,-0.208l2.779,-5.636Z" style="fill:#fff;fill-rule:nonzero;"/></g><g><path d="M277.965,285.789l1.254,-0l-0,-4.2l-1.278,0.894l-0.311,-0.455l1.757,-1.253l0.447,-0l-0,5.014l1.229,-0l0,0.574l-3.098,0l0,-0.574Z" style="fill:#fff;fill-rule:nonzero;"/><path d="M282.181,283.569c0,-0.452 0.04,-0.858 0.12,-1.218c0.08,-0.359 0.199,-0.662 0.359,-0.91c0.16,-0.247 0.362,-0.436 0.607,-0.567c0.245,-0.13 0.535,-0.195 0.87,-0.195c0.357,-0 0.659,0.064 0.906,0.191c0.248,0.128 0.449,0.314 0.603,0.559c0.155,0.245 0.266,0.547 0.336,0.906c0.069,0.36 0.103,0.771 0.103,1.234c0,0.452 -0.04,0.858 -0.119,1.218c-0.08,0.359 -0.2,0.662 -0.36,0.91c-0.159,0.247 -0.362,0.436 -0.607,0.567c-0.244,0.13 -0.534,0.195 -0.87,0.195c-0.351,0 -0.651,-0.07 -0.898,-0.211c-0.248,-0.141 -0.45,-0.34 -0.607,-0.595c-0.157,-0.256 -0.27,-0.56 -0.339,-0.914c-0.069,-0.354 -0.104,-0.744 -0.104,-1.17Zm3.25,-0c-0,-0.282 -0.016,-0.551 -0.048,-0.806l-2.372,2.163c0.091,0.304 0.227,0.546 0.408,0.727c0.181,0.181 0.417,0.271 0.71,0.271c0.469,0 0.803,-0.194 1.002,-0.583c0.2,-0.388 0.3,-0.979 0.3,-1.772Zm-2.587,-0c-0,0.133 0.004,0.261 0.012,0.383c0.008,0.123 0.017,0.242 0.028,0.36l2.379,-2.156c-0.091,-0.288 -0.225,-0.517 -0.403,-0.687c-0.179,-0.17 -0.419,-0.255 -0.723,-0.255c-0.474,-0 -0.808,0.195 -1.002,0.586c-0.194,0.392 -0.291,0.981 -0.291,1.769Z" style="fill:#fff;fill-rule:nonzero;"/><path d="M286.972,283.569c-0,-0.452 0.039,-0.858 0.119,-1.218c0.08,-0.359 0.2,-0.662 0.36,-0.91c0.159,-0.247 0.362,-0.436 0.606,-0.567c0.245,-0.13 0.535,-0.195 0.871,-0.195c0.356,-0 0.658,0.064 0.906,0.191c0.247,0.128 0.448,0.314 0.603,0.559c0.154,0.245 0.266,0.547 0.335,0.906c0.069,0.36 0.104,0.771 0.104,1.234c-0,0.452 -0.04,0.858 -0.12,1.218c-0.08,0.359 -0.2,0.662 -0.359,0.91c-0.16,0.247 -0.362,0.436 -0.607,0.567c-0.245,0.13 -0.535,0.195 -0.87,0.195c-0.352,0 -0.651,-0.07 -0.899,-0.211c-0.247,-0.141 -0.449,-0.34 -0.606,-0.595c-0.157,-0.256 -0.27,-0.56 -0.34,-0.914c-0.069,-0.354 -0.103,-0.744 -0.103,-1.17Zm3.249,-0c0,-0.282 -0.016,-0.551 -0.048,-0.806l-2.371,2.163c0.09,0.304 0.226,0.546 0.407,0.727c0.181,0.181 0.418,0.271 0.711,0.271c0.468,0 0.802,-0.194 1.002,-0.583c0.199,-0.388 0.299,-0.979 0.299,-1.772Zm-2.587,-0c0,0.133 0.004,0.261 0.012,0.383c0.008,0.123 0.018,0.242 0.028,0.36l2.379,-2.156c-0.09,-0.288 -0.224,-0.517 -0.403,-0.687c-0.178,-0.17 -0.419,-0.255 -0.722,-0.255c-0.474,-0 -0.808,0.195 -1.002,0.586c-0.195,0.392 -0.292,0.981 -0.292,1.769Z" style="fill:#fff;fill-rule:nonzero;"/><path d="M291.546,282.036c0,-0.25 0.031,-0.462 0.092,-0.635c0.062,-0.173 0.14,-0.312 0.236,-0.419c0.096,-0.106 0.205,-0.184 0.327,-0.231c0.123,-0.048 0.245,-0.072 0.367,-0.072c0.123,-0 0.245,0.021 0.368,0.064c0.122,0.042 0.231,0.115 0.327,0.219c0.096,0.104 0.174,0.242 0.236,0.415c0.061,0.173 0.091,0.393 0.091,0.659c0,0.261 -0.03,0.478 -0.091,0.651c-0.062,0.173 -0.14,0.311 -0.236,0.415c-0.096,0.104 -0.205,0.177 -0.327,0.219c-0.123,0.043 -0.245,0.064 -0.368,0.064c-0.122,0 -0.244,-0.021 -0.367,-0.064c-0.122,-0.042 -0.231,-0.115 -0.327,-0.219c-0.096,-0.104 -0.174,-0.242 -0.236,-0.415c-0.061,-0.173 -0.092,-0.39 -0.092,-0.651Zm0.559,0c0,0.314 0.05,0.534 0.148,0.659c0.099,0.125 0.204,0.187 0.315,0.187c0.059,0 0.116,-0.012 0.172,-0.036c0.056,-0.024 0.105,-0.067 0.148,-0.131c0.042,-0.064 0.077,-0.151 0.104,-0.26c0.026,-0.109 0.04,-0.249 0.04,-0.419c-0,-0.165 -0.014,-0.302 -0.04,-0.411c-0.027,-0.109 -0.062,-0.197 -0.104,-0.264c-0.043,-0.066 -0.092,-0.113 -0.148,-0.139c-0.056,-0.027 -0.113,-0.04 -0.172,-0.04c-0.122,-0 -0.23,0.062 -0.323,0.187c-0.093,0.125 -0.14,0.348 -0.14,0.667Zm1.733,2.978c-0,-0.25 0.031,-0.462 0.092,-0.635c0.061,-0.173 0.139,-0.312 0.235,-0.419c0.096,-0.106 0.205,-0.183 0.328,-0.231c0.122,-0.048 0.245,-0.072 0.367,-0.072c0.122,-0 0.245,0.021 0.367,0.064c0.123,0.042 0.232,0.115 0.328,0.219c0.095,0.104 0.174,0.242 0.235,0.415c0.061,0.173 0.092,0.393 0.092,0.659c-0,0.261 -0.031,0.478 -0.092,0.651c-0.061,0.173 -0.14,0.311 -0.235,0.415c-0.096,0.104 -0.205,0.177 -0.328,0.22c-0.122,0.042 -0.245,0.063 -0.367,0.063c-0.122,0 -0.245,-0.021 -0.367,-0.063c-0.123,-0.043 -0.232,-0.116 -0.328,-0.22c-0.096,-0.104 -0.174,-0.242 -0.235,-0.415c-0.061,-0.173 -0.092,-0.39 -0.092,-0.651Zm0.559,0c-0,0.314 0.049,0.534 0.148,0.659c0.098,0.125 0.203,0.187 0.315,0.187c0.058,0 0.116,-0.01 0.172,-0.031c0.055,-0.022 0.105,-0.063 0.147,-0.124c0.043,-0.061 0.077,-0.148 0.104,-0.26c0.027,-0.112 0.04,-0.255 0.04,-0.431c0,-0.165 -0.013,-0.302 -0.04,-0.411c-0.027,-0.109 -0.061,-0.197 -0.104,-0.264c-0.042,-0.066 -0.092,-0.113 -0.147,-0.139c-0.056,-0.027 -0.114,-0.04 -0.172,-0.04c-0.059,-0 -0.116,0.013 -0.172,0.04c-0.056,0.026 -0.105,0.072 -0.147,0.135c-0.043,0.064 -0.078,0.151 -0.104,0.26c-0.027,0.109 -0.04,0.249 -0.04,0.419Zm0.455,-4.383l0.455,0.231l-2.778,5.613l-0.456,-0.207l2.779,-5.637Z" style="fill:#fff;fill-rule:nonzero;"/></g><text x="276.951px" y="18.129px" style="font-family:'PTMono-Regular', 'PT Mono', monospace;font-size:7.984px;">100%</text><g><path d="M144.53,47.938l-0.772,0l0,-5.908l-1.04,2.827l-0.757,0l-1.04,-2.827l0,5.908l-0.771,0l-0,-6.889l1.04,-0l1.152,3.139l1.148,-3.139l1.04,-0l-0,6.889Z" style="fill-rule:nonzero;"/><path d="M150.54,47.509c-0.54,0.374 -1.167,0.561 -1.88,0.561c-0.891,0 -1.569,-0.306 -2.033,-0.918c-0.464,-0.612 -0.696,-1.497 -0.696,-2.656c-0,-1.12 0.225,-1.996 0.674,-2.629c0.449,-0.634 1.134,-0.95 2.055,-0.95c0.332,-0 0.661,0.042 0.987,0.127c0.325,0.084 0.587,0.197 0.786,0.337l-0.264,0.63c-0.459,-0.261 -0.962,-0.391 -1.509,-0.391c-0.634,-0 -1.106,0.23 -1.416,0.691c-0.309,0.461 -0.463,1.189 -0.463,2.185c-0,1.914 0.626,2.871 1.879,2.871c0.531,0 1.075,-0.163 1.631,-0.488l0.249,0.63Z" style="fill-rule:nonzero;"/><path d="M156.312,47.938l-3.75,0l-0,-6.889l0.801,-0l-0,6.191l2.949,0l-0,0.698Z" style="fill-rule:nonzero;"/><path d="M163.201,47.938l-1.01,0l-2.329,-3.379l-0.728,0.791l0,2.588l-0.801,0l0,-6.889l0.801,-0l0,3.3l3.057,-3.3l0.923,-0l-2.691,2.91l2.778,3.979Z" style="fill-rule:nonzero;"/></g><path d="M26.314,321.107l-0,28.506" style="fill:none;stroke:#000;stroke-opacity:0.5;stroke-width:1px;stroke-linecap:round;"/><g id="logo"><g><circle cx="177.683" cy="343.439" r="1.627" style="fill:#8000db;"/><path d="M177.683,343.439l5.554,-0" style="fill:none;stroke:#8000db;stroke-width:1.35px;stroke-linecap:butt;stroke-linejoin:miter;"/><path d="M183.237,340.658c-0,-1.532 -1.245,-2.777 -2.777,-2.777l-5.554,0c-1.533,0 -2.777,1.245 -2.777,2.777l-0,5.561c-0,1.533 1.244,2.777 2.777,2.777l5.554,-0c1.532,-0 2.777,-1.244 2.777,-2.777l-0,-5.561Z" style="fill:none;stroke:#8000db;stroke-width:1.35px;stroke-linecap:butt;stroke-miterlimit:3;"/></g><g><circle cx="190.281" cy="355.556" r="1.627" style="fill:#f00;"/><path d="M193.058,349.998l-5.554,0c-1.533,0 -2.777,0.802 -2.777,1.79l-0,7.535c-0,0.988 1.244,1.79 2.777,1.79l5.554,-0c1.532,-0 2.777,-0.802 2.777,-1.79l-0,-3.767l-5.554,-0" style="fill:none;stroke:#f00;stroke-width:1.35px;stroke-linecap:round;stroke-miterlimit:3;"/></g><g><circle cx="190.281" cy="343.439" r="1.627" style="fill:#2600ff;"/><path d="M195.835,348.996l-0,-8.982c-0,-1.177 -1.245,-2.133 -2.777,-2.133l-5.554,0c-1.533,0 -2.777,0.956 -2.777,2.133l-0,8.982" style="fill:none;stroke:#2600ff;stroke-width:1.35px;stroke-linecap:round;stroke-miterlimit:3;"/></g><g><circle cx="177.679" cy="355.556" r="1.627" style="fill:#0ef;"/><path d="M172.122,361.113l0,-11.115l11.115,11.115l-0,-11.115" style="fill:none;stroke:#0ef;stroke-width:1.35px;stroke-linecap:round;"/></g></g><g><path d="M12.447,296.814l1.748,0c0.661,0 1.19,0.166 1.587,0.499c0.397,0.332 0.595,0.789 0.595,1.372c0,0.586 -0.197,1.053 -0.593,1.403c-0.395,0.35 -0.914,0.525 -1.555,0.525l-0.981,0l-0,3.091l-0.801,0l-0,-6.89Zm0.801,3.101l0.869,0c0.94,0 1.411,-0.394 1.411,-1.182c-0,-0.364 -0.128,-0.659 -0.383,-0.883c-0.256,-0.225 -0.586,-0.337 -0.989,-0.337l-0.908,-0l-0,2.402Z" style="fill-rule:nonzero;"/><path d="M21.729,303.704l-3.13,0l0,-0.698l1.187,-0l-0,-5.493l-1.187,-0l0,-0.699l3.13,0l-0,0.699l-1.143,-0l0,5.493l1.143,-0l-0,0.698Z" style="fill-rule:nonzero;"/><path d="M28.731,297.464l-2.124,-0l-0,6.24l-0.796,0l0,-6.24l-2.134,-0l0,-0.65l5.054,0l-0,0.65Z" style="fill-rule:nonzero;"/><path d="M34.429,303.274c-0.54,0.375 -1.167,0.562 -1.88,0.562c-0.892,-0 -1.57,-0.306 -2.033,-0.918c-0.464,-0.612 -0.696,-1.497 -0.696,-2.656c-0,-1.12 0.224,-1.997 0.674,-2.63c0.449,-0.633 1.134,-0.949 2.055,-0.949c0.332,-0 0.661,0.042 0.987,0.127c0.325,0.084 0.587,0.197 0.786,0.336l-0.264,0.63c-0.459,-0.26 -0.962,-0.39 -1.509,-0.39c-0.634,-0 -1.106,0.23 -1.416,0.691c-0.309,0.46 -0.464,1.189 -0.464,2.185c0,1.914 0.627,2.871 1.88,2.871c0.531,-0 1.075,-0.163 1.631,-0.488l0.249,0.629Z" style="fill-rule:nonzero;"/><path d="M40.181,303.704l-0.801,0l0,-3.418l-2.358,0l-0,3.418l-0.801,0l0,-6.89l0.801,0l-0,2.769l2.358,0l0,-2.769l0.801,0l0,6.89Z" style="fill-rule:nonzero;"/></g><g><path d="M224.126,328.02c0.514,-0 0.906,0.214 1.176,0.642c0.27,0.428 0.405,1.051 0.405,1.869c0,0.813 -0.134,1.435 -0.403,1.864c-0.269,0.429 -0.662,0.644 -1.178,0.644c-0.512,0 -0.903,-0.214 -1.173,-0.642c-0.27,-0.429 -0.405,-1.05 -0.405,-1.866c0,-0.815 0.135,-1.438 0.404,-1.867c0.269,-0.43 0.66,-0.644 1.174,-0.644Zm0,4.526c0.677,-0 1.015,-0.672 1.015,-2.015c0,-1.345 -0.338,-2.018 -1.015,-2.018c-0.33,0 -0.581,0.174 -0.753,0.523c-0.172,0.348 -0.259,0.846 -0.259,1.495c0,0.656 0.086,1.155 0.257,1.499c0.172,0.344 0.423,0.516 0.755,0.516Z" style="fill:#fff;fill-rule:nonzero;"/><path d="M230.285,332.947l-0.667,-0l-1.346,-2.197l-0.592,0l-0,2.197l-0.534,-0l0,-4.835l1.298,0c0.436,0 0.78,0.112 1.033,0.334c0.253,0.223 0.379,0.533 0.379,0.93c-0,0.295 -0.092,0.557 -0.277,0.787c-0.184,0.229 -0.438,0.385 -0.761,0.468l1.467,2.316Zm-2.605,-2.687l0.673,0c0.282,0 0.511,-0.08 0.686,-0.241c0.176,-0.161 0.264,-0.364 0.264,-0.608c-0,-0.539 -0.312,-0.809 -0.937,-0.809l-0.686,0l-0,1.658Z" style="fill:#fff;fill-rule:nonzero;"/></g><g><path d="M252.284,332.935l-0.591,-0l-1.161,-1.976l-1.152,1.976l-0.591,-0l1.464,-2.458l-1.457,-2.365l0.61,-0l1.126,1.911l1.136,-1.911l0.584,-0l-1.435,2.365l1.467,2.458Z" style="fill:#fff;fill-rule:nonzero;"/><path d="M254.817,328.02c0.512,-0 0.903,0.213 1.173,0.641c0.269,0.427 0.404,1.048 0.404,1.864c-0,0.811 -0.135,1.431 -0.403,1.859c-0.268,0.429 -0.66,0.643 -1.174,0.643c-0.511,0 -0.901,-0.214 -1.17,-0.641c-0.27,-0.427 -0.404,-1.047 -0.404,-1.861c-0,-0.813 0.134,-1.434 0.402,-1.863c0.268,-0.428 0.659,-0.642 1.172,-0.642Zm-0,4.515c0.674,-0 1.012,-0.67 1.012,-2.01c-0,-1.342 -0.338,-2.013 -1.012,-2.013c-0.329,-0 -0.58,0.174 -0.752,0.521c-0.172,0.348 -0.258,0.845 -0.258,1.492c0,0.654 0.086,1.152 0.257,1.495c0.171,0.343 0.422,0.515 0.753,0.515Z" style="fill:#fff;fill-rule:nonzero;"/><path d="M260.961,332.935l-0.666,-0l-1.343,-2.191l-0.591,-0l0,2.191l-0.532,-0l0,-4.823l1.295,-0c0.435,-0 0.778,0.111 1.03,0.333c0.252,0.222 0.378,0.532 0.378,0.928c0,0.294 -0.092,0.556 -0.275,0.785c-0.184,0.229 -0.437,0.384 -0.76,0.466l1.464,2.311Zm-2.6,-2.68l0.672,0c0.281,0 0.51,-0.08 0.685,-0.241c0.175,-0.161 0.263,-0.363 0.263,-0.607c-0,-0.537 -0.312,-0.806 -0.935,-0.806l-0.685,-0l0,1.654Z" style="fill:#fff;fill-rule:nonzero;"/></g></g></g></svg>