<?xml version="1.0" encoding="UTF-8" standalone="no"?><!DOCTYPE svg PUBLIC "-//W3C//DTD SVG 1.1//EN" "http://www.w3.org/Graphics/SVG/1.1/DTD/svg11.dtd"><svg width="100%" height="100%" viewBox="0 0 495 380" version="1.1" xmlns="http://www.w3.org/2000/svg" xmlns:xlink="http://www.w3.org/1999/xlink" xml:space="preserve" xmlns:serif="http://www.serif.com/" style="fill-rule:evenodd;clip-rule:evenodd;stroke-linecap:square;stroke-linejoin:round;stroke-miterlimit:1.5;"><rect id="StochSeq" x="0" y="0" width="495" height="379.559" style="fill:none;"/><clipPath id="_clip1"><rect x="0" y="0" width="495" height="379.559"/></clipPath><g clip-path="url(#_clip1)"><g id="Layer1"><rect id="rect" x="-0.145" y="0" width="495" height="379.559" style="fill:#e6e6e6;"/><path d="M399.508,237.337l37.667,0" style="fill:none;stroke:#000;stroke-width:0.5px;"/><rect id="rect1" serif:id="rect" x="7.355" y="86.725" width="480" height="102.941" style="fill:#282828;"/><rect x="326.013" y="217.837" width="92.329" height="39" style="fill:#282828;fill-opacity:0.5;"/><path d="M40.768,307.222l411.763,-0" style="fill:none;stroke:#7f7f7f;stroke-width:1px;stroke-linecap:butt;"/><path d="M138.658,295.222l-0,24" style="fill:none;stroke:#7f7f7f;stroke-width:1px;stroke-linecap:butt;"/><path d="M246.65,295.222l-0,24" style="fill:none;stroke:#7f7f7f;stroke-width:1px;stroke-linecap:butt;"/><path d="M354.641,295.222l0,24" style="fill:none;stroke:#7f7f7f;stroke-width:1px;stroke-linecap:butt;"/><g><path d="M13.24,297.977l-2.899,0l0,-0.558l1.168,-0l0,-4.281l-1.101,0.55l-0,-0.64l1.191,-0.614l0.551,0l-0,4.985l1.09,-0l-0,0.558Z" style="fill-rule:nonzero;"/><rect x="15.263" y="295.481" width="2.32" height="0.594" style="fill-rule:nonzero;"/><path d="M22.841,297.977l-2.898,0l-0,-0.558l1.168,-0l-0,-4.281l-1.102,0.55l0,-0.64l1.192,-0.614l0.55,0l0,4.985l1.09,-0l0,0.558Z" style="fill-rule:nonzero;"/><path d="M25.079,295.106c0.344,-0.278 0.718,-0.418 1.122,-0.418c0.466,0 0.854,0.149 1.166,0.448c0.311,0.298 0.466,0.683 0.466,1.154c0,0.518 -0.138,0.947 -0.414,1.285c-0.276,0.339 -0.644,0.508 -1.105,0.508c-0.589,-0 -1.055,-0.27 -1.399,-0.811c-0.343,-0.54 -0.515,-1.201 -0.515,-1.982c-0,-0.833 0.179,-1.53 0.537,-2.09c0.358,-0.56 0.848,-0.84 1.471,-0.84c0.429,0 0.8,0.064 1.113,0.192l-0.102,0.57c-0.362,-0.133 -0.692,-0.199 -0.992,-0.199c-0.424,-0 -0.755,0.203 -0.992,0.609c-0.237,0.406 -0.356,0.931 -0.356,1.574Zm0.02,0.551c-0,0.471 0.111,0.9 0.332,1.285c0.221,0.386 0.5,0.578 0.836,0.578c0.284,0 0.503,-0.104 0.656,-0.312c0.154,-0.208 0.231,-0.496 0.231,-0.863c-0,-0.339 -0.085,-0.606 -0.254,-0.801c-0.17,-0.195 -0.408,-0.293 -0.715,-0.293c-0.399,-0 -0.761,0.135 -1.086,0.406Z" style="fill-rule:nonzero;"/></g><g><path d="M8.775,321.977l-2.899,0l0,-0.558l1.168,-0l0,-4.281l-1.101,0.55l-0,-0.64l1.191,-0.614l0.551,0l-0,4.985l1.09,-0l-0,0.558Z" style="fill-rule:nonzero;"/><path d="M13.646,316.923l-2.184,5.054l-0.656,0l2.152,-4.953l-2.582,0l0,-0.558l3.27,-0l-0,0.457Z" style="fill-rule:nonzero;"/><rect x="15.599" y="319.481" width="2.32" height="0.594" style="fill-rule:nonzero;"/><path d="M21.943,319.017c0.336,0.093 0.605,0.264 0.808,0.513c0.203,0.249 0.305,0.528 0.305,0.838c-0,0.484 -0.189,0.891 -0.566,1.221c-0.378,0.329 -0.823,0.494 -1.336,0.494c-0.438,-0 -0.83,-0.096 -1.176,-0.289l0.125,-0.527c0.362,0.169 0.72,0.253 1.074,0.253c0.333,0 0.618,-0.103 0.854,-0.31c0.235,-0.207 0.353,-0.473 0.353,-0.799c0,-0.32 -0.126,-0.581 -0.379,-0.781c-0.252,-0.201 -0.587,-0.301 -1.004,-0.301l-0.168,0l0,-0.527l0.047,-0c0.401,-0 0.732,-0.095 0.992,-0.284c0.261,-0.188 0.391,-0.443 0.391,-0.763c0,-0.261 -0.094,-0.464 -0.281,-0.612c-0.188,-0.147 -0.446,-0.22 -0.774,-0.22c-0.284,-0 -0.601,0.077 -0.953,0.23l-0.086,-0.551c0.354,-0.161 0.711,-0.242 1.071,-0.242c0.492,0 0.897,0.13 1.216,0.389c0.319,0.259 0.479,0.592 0.479,0.998c-0,0.281 -0.097,0.544 -0.291,0.787c-0.194,0.244 -0.428,0.397 -0.701,0.459l-0,0.024Z" style="fill-rule:nonzero;"/><path d="M27.833,321.977l-3.031,0l0,-0.464c0.768,-0.857 1.267,-1.431 1.496,-1.723c0.229,-0.292 0.416,-0.598 0.559,-0.918c0.143,-0.32 0.215,-0.639 0.215,-0.957c-0,-0.307 -0.093,-0.55 -0.28,-0.727c-0.186,-0.177 -0.447,-0.265 -0.783,-0.265c-0.258,-0 -0.604,0.079 -1.039,0.238l-0.09,-0.551c0.393,-0.166 0.805,-0.25 1.235,-0.25c0.492,0 0.888,0.139 1.189,0.416c0.301,0.278 0.451,0.648 0.451,1.112c0,0.33 -0.077,0.658 -0.232,0.984c-0.155,0.325 -0.354,0.638 -0.596,0.937c-0.242,0.3 -0.713,0.836 -1.414,1.61l2.32,-0l0,0.558Z" style="fill-rule:nonzero;"/></g><path d="M225.5,280.959l-186.845,-0" style="fill:none;stroke:#000;stroke-width:1px;stroke-linecap:butt;"/><path d="M267.799,280.959l186.845,-0" style="fill:none;stroke:#000;stroke-width:1px;stroke-linecap:butt;"/><g><path d="M7.691,84.037l1.256,-0l0,-4.208l-1.28,0.896l-0.312,-0.456l1.76,-1.256l0.448,-0l0,5.024l1.232,-0l0,0.576l-3.104,-0l0,-0.576Z" style="fill-rule:nonzero;"/><path d="M11.915,81.813c0,-0.453 0.04,-0.86 0.12,-1.22c0.08,-0.36 0.2,-0.664 0.36,-0.912c0.16,-0.248 0.363,-0.437 0.608,-0.568c0.246,-0.131 0.536,-0.196 0.872,-0.196c0.358,-0 0.66,0.064 0.908,0.192c0.248,0.128 0.45,0.315 0.604,0.56c0.155,0.245 0.267,0.548 0.336,0.908c0.07,0.36 0.104,0.772 0.104,1.236c0,0.453 -0.04,0.86 -0.12,1.22c-0.08,0.36 -0.2,0.664 -0.36,0.912c-0.16,0.248 -0.362,0.437 -0.608,0.568c-0.245,0.131 -0.536,0.196 -0.872,0.196c-0.352,-0 -0.652,-0.071 -0.9,-0.212c-0.248,-0.141 -0.45,-0.34 -0.608,-0.596c-0.157,-0.256 -0.27,-0.561 -0.34,-0.916c-0.069,-0.355 -0.104,-0.745 -0.104,-1.172Zm3.256,-0c0,-0.283 -0.016,-0.552 -0.048,-0.808l-2.376,2.168c0.091,0.304 0.227,0.547 0.408,0.728c0.182,0.181 0.419,0.272 0.712,0.272c0.47,-0 0.804,-0.195 1.004,-0.584c0.2,-0.389 0.3,-0.981 0.3,-1.776Zm-2.592,-0c0,0.133 0.004,0.261 0.012,0.384c0.008,0.123 0.018,0.243 0.028,0.36l2.384,-2.16c-0.09,-0.288 -0.225,-0.517 -0.404,-0.688c-0.178,-0.171 -0.42,-0.256 -0.724,-0.256c-0.474,-0 -0.809,0.196 -1.004,0.588c-0.194,0.392 -0.292,0.983 -0.292,1.772Z" style="fill-rule:nonzero;"/><path d="M16.715,81.813c0,-0.453 0.04,-0.86 0.12,-1.22c0.08,-0.36 0.2,-0.664 0.36,-0.912c0.16,-0.248 0.363,-0.437 0.608,-0.568c0.246,-0.131 0.536,-0.196 0.872,-0.196c0.358,-0 0.66,0.064 0.908,0.192c0.248,0.128 0.45,0.315 0.604,0.56c0.155,0.245 0.267,0.548 0.336,0.908c0.07,0.36 0.104,0.772 0.104,1.236c0,0.453 -0.04,0.86 -0.12,1.22c-0.08,0.36 -0.2,0.664 -0.36,0.912c-0.16,0.248 -0.362,0.437 -0.608,0.568c-0.245,0.131 -0.536,0.196 -0.872,0.196c-0.352,-0 -0.652,-0.071 -0.9,-0.212c-0.248,-0.141 -0.45,-0.34 -0.608,-0.596c-0.157,-0.256 -0.27,-0.561 -0.34,-0.916c-0.069,-0.355 -0.104,-0.745 -0.104,-1.172Zm3.256,-0c0,-0.283 -0.016,-0.552 -0.048,-0.808l-2.376,2.168c0.091,0.304 0.227,0.547 0.408,0.728c0.182,0.181 0.419,0.272 0.712,0.272c0.47,-0 0.804,-0.195 1.004,-0.584c0.2,-0.389 0.3,-0.981 0.3,-1.776Zm-2.592,-0c0,0.133 0.004,0.261 0.012,0.384c0.008,0.123 0.018,0.243 0.028,0.36l2.384,-2.16c-0.09,-0.288 -0.225,-0.517 -0.404,-0.688c-0.178,-0.171 -0.42,-0.256 -0.724,-0.256c-0.474,-0 -0.809,0.196 -1.004,0.588c-0.194,0.392 -0.292,0.983 -0.292,1.772Z" style="fill-rule:nonzero;"/><path d="M21.299,80.277c0,-0.251 0.031,-0.463 0.092,-0.636c0.062,-0.173 0.14,-0.313 0.236,-0.42c0.096,-0.107 0.206,-0.184 0.328,-0.232c0.123,-0.048 0.246,-0.072 0.368,-0.072c0.123,-0 0.246,0.021 0.368,0.064c0.123,0.043 0.232,0.116 0.328,0.22c0.096,0.104 0.175,0.243 0.236,0.416c0.062,0.173 0.092,0.393 0.092,0.66c0,0.261 -0.03,0.479 -0.092,0.652c-0.061,0.173 -0.14,0.312 -0.236,0.416c-0.096,0.104 -0.205,0.177 -0.328,0.22c-0.122,0.043 -0.245,0.064 -0.368,0.064c-0.122,-0 -0.245,-0.021 -0.368,-0.064c-0.122,-0.043 -0.232,-0.116 -0.328,-0.22c-0.096,-0.104 -0.174,-0.243 -0.236,-0.416c-0.061,-0.173 -0.092,-0.391 -0.092,-0.652Zm0.56,-0c0,0.315 0.05,0.535 0.148,0.66c0.099,0.125 0.204,0.188 0.316,0.188c0.059,-0 0.116,-0.012 0.172,-0.036c0.056,-0.024 0.106,-0.068 0.148,-0.132c0.043,-0.064 0.078,-0.151 0.104,-0.26c0.027,-0.109 0.04,-0.249 0.04,-0.42c0,-0.165 -0.013,-0.303 -0.04,-0.412c-0.026,-0.109 -0.061,-0.197 -0.104,-0.264c-0.042,-0.067 -0.092,-0.113 -0.148,-0.14c-0.056,-0.027 -0.113,-0.04 -0.172,-0.04c-0.122,-0 -0.23,0.063 -0.324,0.188c-0.093,0.125 -0.14,0.348 -0.14,0.668Zm1.736,2.984c0,-0.251 0.031,-0.463 0.092,-0.636c0.062,-0.173 0.14,-0.313 0.236,-0.42c0.096,-0.107 0.206,-0.184 0.328,-0.232c0.123,-0.048 0.246,-0.072 0.368,-0.072c0.123,-0 0.246,0.021 0.368,0.064c0.123,0.043 0.232,0.116 0.328,0.22c0.096,0.104 0.175,0.243 0.236,0.416c0.062,0.173 0.092,0.393 0.092,0.66c0,0.261 -0.03,0.479 -0.092,0.652c-0.061,0.173 -0.14,0.312 -0.236,0.416c-0.096,0.104 -0.205,0.177 -0.328,0.22c-0.122,0.043 -0.245,0.064 -0.368,0.064c-0.122,-0 -0.245,-0.021 -0.368,-0.064c-0.122,-0.043 -0.232,-0.116 -0.328,-0.22c-0.096,-0.104 -0.174,-0.243 -0.236,-0.416c-0.061,-0.173 -0.092,-0.391 -0.092,-0.652Zm0.56,-0c0,0.315 0.05,0.535 0.148,0.66c0.099,0.125 0.204,0.188 0.316,0.188c0.059,-0 0.116,-0.011 0.172,-0.032c0.056,-0.021 0.106,-0.063 0.148,-0.124c0.043,-0.061 0.078,-0.148 0.104,-0.26c0.027,-0.112 0.04,-0.256 0.04,-0.432c0,-0.165 -0.013,-0.303 -0.04,-0.412c-0.026,-0.109 -0.061,-0.197 -0.104,-0.264c-0.042,-0.067 -0.092,-0.113 -0.148,-0.14c-0.056,-0.027 -0.113,-0.04 -0.172,-0.04c-0.058,-0 -0.116,0.013 -0.172,0.04c-0.056,0.027 -0.105,0.072 -0.148,0.136c-0.042,0.064 -0.077,0.151 -0.104,0.26c-0.026,0.109 -0.04,0.249 -0.04,0.42Zm0.456,-4.392l0.456,0.232l-2.784,5.624l-0.456,-0.208l2.784,-5.648Z" style="fill-rule:nonzero;"/></g><g><path d="M7.571,194.61c0,-0.453 0.04,-0.86 0.12,-1.22c0.08,-0.36 0.2,-0.664 0.36,-0.912c0.16,-0.248 0.363,-0.437 0.608,-0.568c0.246,-0.13 0.536,-0.196 0.872,-0.196c0.358,0 0.66,0.064 0.908,0.192c0.248,0.128 0.45,0.315 0.604,0.56c0.155,0.246 0.267,0.548 0.336,0.908c0.07,0.36 0.104,0.772 0.104,1.236c0,0.454 -0.04,0.86 -0.12,1.22c-0.08,0.36 -0.2,0.664 -0.36,0.912c-0.16,0.248 -0.362,0.438 -0.608,0.568c-0.245,0.131 -0.536,0.196 -0.872,0.196c-0.352,0 -0.652,-0.07 -0.9,-0.212c-0.248,-0.141 -0.45,-0.34 -0.608,-0.596c-0.157,-0.256 -0.27,-0.561 -0.34,-0.916c-0.069,-0.354 -0.104,-0.745 -0.104,-1.172Zm3.256,0c0,-0.282 -0.016,-0.552 -0.048,-0.808l-2.376,2.168c0.091,0.304 0.227,0.547 0.408,0.728c0.182,0.182 0.419,0.272 0.712,0.272c0.47,0 0.804,-0.194 1.004,-0.584c0.2,-0.389 0.3,-0.981 0.3,-1.776Zm-2.592,0c0,0.134 0.004,0.262 0.012,0.384c0.008,0.123 0.018,0.243 0.028,0.36l2.384,-2.16c-0.09,-0.288 -0.225,-0.517 -0.404,-0.688c-0.178,-0.17 -0.42,-0.256 -0.724,-0.256c-0.474,0 -0.809,0.196 -1.004,0.588c-0.194,0.392 -0.292,0.983 -0.292,1.772Z" style="fill-rule:nonzero;"/><path d="M12.155,193.074c0,-0.25 0.031,-0.462 0.092,-0.636c0.062,-0.173 0.14,-0.313 0.236,-0.42c0.096,-0.106 0.206,-0.184 0.328,-0.232c0.123,-0.048 0.246,-0.072 0.368,-0.072c0.123,0 0.246,0.022 0.368,0.064c0.123,0.043 0.232,0.116 0.328,0.22c0.096,0.104 0.175,0.243 0.236,0.416c0.062,0.174 0.092,0.394 0.092,0.66c0,0.262 -0.03,0.479 -0.092,0.652c-0.061,0.174 -0.14,0.312 -0.236,0.416c-0.096,0.104 -0.205,0.178 -0.328,0.22c-0.122,0.043 -0.245,0.064 -0.368,0.064c-0.122,0 -0.245,-0.021 -0.368,-0.064c-0.122,-0.042 -0.232,-0.116 -0.328,-0.22c-0.096,-0.104 -0.174,-0.242 -0.236,-0.416c-0.061,-0.173 -0.092,-0.39 -0.092,-0.652Zm0.56,0c0,0.315 0.05,0.535 0.148,0.66c0.099,0.126 0.204,0.188 0.316,0.188c0.059,0 0.116,-0.012 0.172,-0.036c0.056,-0.024 0.106,-0.068 0.148,-0.132c0.043,-0.064 0.078,-0.15 0.104,-0.26c0.027,-0.109 0.04,-0.249 0.04,-0.42c0,-0.165 -0.013,-0.302 -0.04,-0.412c-0.026,-0.109 -0.061,-0.197 -0.104,-0.264c-0.042,-0.066 -0.092,-0.113 -0.148,-0.14c-0.056,-0.026 -0.113,-0.04 -0.172,-0.04c-0.122,0 -0.23,0.063 -0.324,0.188c-0.093,0.126 -0.14,0.348 -0.14,0.668Zm1.736,2.984c0,-0.25 0.031,-0.462 0.092,-0.636c0.062,-0.173 0.14,-0.313 0.236,-0.42c0.096,-0.106 0.206,-0.184 0.328,-0.232c0.123,-0.048 0.246,-0.072 0.368,-0.072c0.123,0 0.246,0.022 0.368,0.064c0.123,0.043 0.232,0.116 0.328,0.22c0.096,0.104 0.175,0.243 0.236,0.416c0.062,0.174 0.092,0.394 0.092,0.66c0,0.262 -0.03,0.479 -0.092,0.652c-0.061,0.174 -0.14,0.312 -0.236,0.416c-0.096,0.104 -0.205,0.178 -0.328,0.22c-0.122,0.043 -0.245,0.064 -0.368,0.064c-0.122,0 -0.245,-0.021 -0.368,-0.064c-0.122,-0.042 -0.232,-0.116 -0.328,-0.22c-0.096,-0.104 -0.174,-0.242 -0.236,-0.416c-0.061,-0.173 -0.092,-0.39 -0.092,-0.652Zm0.56,0c0,0.315 0.05,0.535 0.148,0.66c0.099,0.126 0.204,0.188 0.316,0.188c0.059,0 0.116,-0.01 0.172,-0.032c0.056,-0.021 0.106,-0.062 0.148,-0.124c0.043,-0.061 0.078,-0.148 0.104,-0.26c0.027,-0.112 0.04,-0.256 0.04,-0.432c0,-0.165 -0.013,-0.302 -0.04,-0.412c-0.026,-0.109 -0.061,-0.197 -0.104,-0.264c-0.042,-0.066 -0.092,-0.113 -0.148,-0.14c-0.056,-0.026 -0.113,-0.04 -0.172,-0.04c-0.058,0 -0.116,0.014 -0.172,0.04c-0.056,0.027 -0.105,0.072 -0.148,0.136c-0.042,0.064 -0.077,0.151 -0.104,0.26c-0.026,0.11 -0.04,0.25 -0.04,0.42Zm0.456,-4.392l0.456,0.232l-2.784,5.624l-0.456,-0.208l2.784,-5.648Z" style="fill-rule:nonzero;"/></g><g><path d="M279.401,18.242c-1.288,-0.44 -2.51,-0.66 -3.665,-0.66c-1.308,0 -2.374,0.299 -3.197,0.897c-0.823,0.598 -1.235,1.449 -1.235,2.554c0,1.308 1.079,2.458 3.236,3.45c1.595,0.736 2.65,1.247 3.167,1.534c0.516,0.286 1.04,0.679 1.572,1.18c0.531,0.501 0.958,1.092 1.28,1.772c0.322,0.679 0.483,1.444 0.483,2.292c0,2.106 -0.708,3.739 -2.124,4.9c-1.416,1.16 -3.085,1.74 -5.007,1.74c-1.86,0 -3.491,-0.368 -4.892,-1.104l0.522,-2.162c1.646,0.746 3.082,1.119 4.309,1.119c1.431,0 2.579,-0.37 3.443,-1.111c0.864,-0.742 1.295,-1.761 1.295,-3.06c0,-0.961 -0.281,-1.776 -0.843,-2.446c-0.562,-0.669 -1.6,-1.352 -3.113,-2.047c-1.554,-0.716 -2.558,-1.204 -3.013,-1.464c-0.455,-0.261 -0.908,-0.622 -1.358,-1.082c-0.449,-0.46 -0.797,-0.976 -1.042,-1.548c-0.246,-0.573 -0.368,-1.197 -0.368,-1.871c-0,-1.789 0.644,-3.185 1.932,-4.187c1.288,-1.002 2.919,-1.503 4.892,-1.503c1.441,0 2.873,0.22 4.294,0.66l-0.568,2.147Z" style="fill-rule:nonzero;"/><path d="M299.981,36.767c-1.605,0.736 -3.184,1.104 -4.738,1.104c-2.853,-0 -4.279,-1.508 -4.279,-4.524l0,-9.769l-3.067,0l-0,-2.07l3.067,0l0,-4.371l2.331,0l-0,4.371l5.429,0l-0,2.07l-5.429,0l-0,9.14c-0,0.971 0.215,1.725 0.644,2.262c0.429,0.537 1.012,0.805 1.748,0.805c1.309,0 2.602,-0.291 3.88,-0.874l0.414,1.856Z" style="fill-rule:nonzero;"/><path d="M312.479,21.125c2.198,-0 3.947,0.766 5.245,2.3c1.298,1.533 1.948,3.553 1.948,6.057c-0,2.526 -0.65,4.56 -1.948,6.104c-1.298,1.544 -3.047,2.315 -5.245,2.315c-2.208,0 -3.959,-0.769 -5.252,-2.308c-1.293,-1.538 -1.94,-3.575 -1.94,-6.111c0,-2.515 0.649,-4.536 1.948,-6.065c1.298,-1.528 3.046,-2.292 5.244,-2.292Zm0,14.691c1.452,-0 2.597,-0.614 3.435,-1.84c0.839,-1.227 1.258,-2.715 1.258,-4.463c-0,-1.84 -0.414,-3.353 -1.242,-4.539c-0.828,-1.186 -1.978,-1.779 -3.451,-1.779c-1.482,-0 -2.632,0.585 -3.45,1.756c-0.818,1.17 -1.227,2.691 -1.227,4.562c0,1.779 0.414,3.274 1.242,4.486c0.828,1.211 1.973,1.817 3.435,1.817Z" style="fill-rule:nonzero;"/><path d="M337.46,36.951c-1.39,0.633 -2.918,0.95 -4.585,0.95c-2.515,0 -4.521,-0.764 -6.019,-2.292c-1.498,-1.529 -2.246,-3.561 -2.246,-6.096c-0,-2.535 0.754,-4.567 2.261,-6.096c1.508,-1.528 3.489,-2.292 5.943,-2.292c1.605,-0 3.133,0.281 4.585,0.843l-0.629,1.978c-1.451,-0.501 -2.76,-0.751 -3.925,-0.751c-1.759,-0 -3.152,0.567 -4.179,1.702c-1.028,1.135 -1.541,2.674 -1.541,4.616c-0,1.779 0.531,3.274 1.594,4.486c1.064,1.211 2.449,1.817 4.156,1.817c1.35,-0 2.74,-0.261 4.171,-0.782l0.414,1.917Z" style="fill-rule:nonzero;"/><path d="M356.369,37.487l-2.392,0l-0,-10.244c-0,-1.421 -0.228,-2.451 -0.683,-3.09c-0.455,-0.639 -1.168,-0.958 -2.139,-0.958c-1.462,-0 -3.031,0.91 -4.708,2.73l-0,11.562l-2.392,0l-0,-21.638l2.392,0l-0,8.005c1.717,-1.819 3.527,-2.729 5.429,-2.729c2.995,-0 4.493,1.809 4.493,5.428l-0,10.934Z" style="fill-rule:nonzero;"/><path d="M375.615,37.487l-2.377,0c-0.195,-0.644 -0.292,-1.503 -0.292,-2.576c-1.36,1.994 -3.21,2.99 -5.551,2.99c-1.186,0 -2.231,-0.421 -3.136,-1.265c-0.905,-0.843 -1.357,-1.929 -1.357,-3.259c-0,-0.787 0.158,-1.482 0.475,-2.085c0.317,-0.603 0.782,-1.112 1.396,-1.526c0.613,-0.414 1.359,-0.741 2.238,-0.981c0.88,-0.241 1.923,-0.407 3.129,-0.499l2.684,-0.215l-0,-0.766c-0,-2.74 -1.278,-4.11 -3.834,-4.11c-0.603,-0 -1.368,0.13 -2.293,0.391c-0.925,0.261 -1.72,0.57 -2.385,0.928l-0.628,-1.718c2.177,-1.114 4.202,-1.671 6.072,-1.671c3.64,-0 5.46,1.927 5.46,5.781l-0,6.87c-0,1.391 0.133,2.628 0.399,3.711Zm-2.791,-4.738l-0,-2.899c-2.158,0.195 -3.637,0.376 -4.44,0.545c-0.803,0.168 -1.498,0.483 -2.086,0.943c-0.587,0.46 -0.881,1.084 -0.881,1.871c-0,0.715 0.25,1.293 0.751,1.733c0.501,0.439 1.14,0.659 1.917,0.659c0.849,0 1.692,-0.253 2.53,-0.759c0.839,-0.506 1.575,-1.204 2.209,-2.093Z" style="fill-rule:nonzero;"/><path d="M392.391,23.793c-1.339,-0.44 -2.602,-0.659 -3.787,-0.659c-1.299,-0 -2.326,0.217 -3.083,0.651c-0.756,0.435 -1.135,1.015 -1.135,1.741c0,0.46 0.174,0.861 0.522,1.204c0.347,0.342 1.043,0.662 2.085,0.958l2.285,0.66c1.053,0.296 1.912,0.651 2.577,1.065c0.664,0.414 1.162,0.915 1.495,1.503c0.332,0.588 0.498,1.27 0.498,2.047c0,1.524 -0.639,2.728 -1.917,3.612c-1.278,0.884 -2.903,1.326 -4.876,1.326c-1.963,0 -3.584,-0.296 -4.862,-0.889l0.46,-2.07c1.34,0.634 2.776,0.95 4.31,0.95c1.329,0 2.41,-0.247 3.243,-0.743c0.833,-0.496 1.25,-1.153 1.25,-1.971c-0,-0.552 -0.207,-1.045 -0.621,-1.48c-0.414,-0.434 -1.388,-0.887 -2.922,-1.357c-1.237,-0.378 -2.147,-0.662 -2.729,-0.851c-0.583,-0.189 -1.125,-0.468 -1.626,-0.836c-0.501,-0.368 -0.882,-0.807 -1.142,-1.319c-0.261,-0.511 -0.391,-1.083 -0.391,-1.717c-0,-1.38 0.603,-2.474 1.809,-3.282c1.207,-0.808 2.807,-1.211 4.8,-1.211c1.288,-0 2.72,0.219 4.294,0.659l-0.537,2.009Z" style="fill-rule:nonzero;"/><path d="M413.063,36.767c-1.605,0.736 -3.184,1.104 -4.738,1.104c-2.853,-0 -4.279,-1.508 -4.279,-4.524l0,-9.769l-3.067,0l0,-2.07l3.067,0l0,-4.371l2.331,0l0,4.371l5.429,0l-0,2.07l-5.429,0l0,9.14c0,0.971 0.215,1.725 0.644,2.262c0.43,0.537 1.012,0.805 1.748,0.805c1.309,0 2.602,-0.291 3.88,-0.874l0.414,1.856Z" style="fill-rule:nonzero;"/><path d="M426.604,15.466c0.45,-0 0.833,0.161 1.15,0.483c0.317,0.322 0.476,0.708 0.476,1.158c-0,0.47 -0.156,0.864 -0.468,1.181c-0.312,0.317 -0.698,0.475 -1.158,0.475c-0.419,0 -0.79,-0.166 -1.112,-0.498c-0.322,-0.333 -0.483,-0.719 -0.483,-1.158c0,-0.44 0.161,-0.823 0.483,-1.15c0.322,-0.327 0.693,-0.491 1.112,-0.491Zm1.166,22.021l-2.393,0l0,-13.909l-4.708,0l0,-2.07l7.101,0l-0,15.979Z" style="fill-rule:nonzero;"/><path d="M450.543,36.951c-1.391,0.633 -2.919,0.95 -4.586,0.95c-2.515,0 -4.521,-0.764 -6.019,-2.292c-1.498,-1.529 -2.246,-3.561 -2.246,-6.096c-0,-2.535 0.754,-4.567 2.262,-6.096c1.508,-1.528 3.488,-2.292 5.942,-2.292c1.605,-0 3.133,0.281 4.585,0.843l-0.629,1.978c-1.451,-0.501 -2.76,-0.751 -3.925,-0.751c-1.759,-0 -3.152,0.567 -4.179,1.702c-1.028,1.135 -1.541,2.674 -1.541,4.616c-0,1.779 0.531,3.274 1.594,4.486c1.064,1.211 2.449,1.817 4.156,1.817c1.35,-0 2.74,-0.261 4.171,-0.782l0.415,1.917Z" style="fill-rule:nonzero;"/><path d="M279.401,49.648c-1.288,-0.439 -2.51,-0.659 -3.665,-0.659c-1.308,-0 -2.374,0.299 -3.197,0.897c-0.823,0.598 -1.235,1.449 -1.235,2.553c0,1.309 1.079,2.459 3.236,3.451c1.595,0.736 2.65,1.247 3.167,1.533c0.516,0.286 1.04,0.68 1.572,1.181c0.531,0.501 0.958,1.091 1.28,1.771c0.322,0.68 0.483,1.444 0.483,2.293c0,2.106 -0.708,3.739 -2.124,4.899c-1.416,1.161 -3.085,1.741 -5.007,1.741c-1.86,-0 -3.491,-0.368 -4.892,-1.104l0.522,-2.162c1.646,0.746 3.082,1.119 4.309,1.119c1.431,0 2.579,-0.371 3.443,-1.112c0.864,-0.741 1.295,-1.761 1.295,-3.059c0,-0.961 -0.281,-1.777 -0.843,-2.446c-0.562,-0.67 -1.6,-1.352 -3.113,-2.047c-1.554,-0.716 -2.558,-1.204 -3.013,-1.465c-0.455,-0.261 -0.908,-0.621 -1.358,-1.081c-0.449,-0.46 -0.797,-0.976 -1.042,-1.549c-0.246,-0.572 -0.368,-1.196 -0.368,-1.871c-0,-1.789 0.644,-3.184 1.932,-4.186c1.288,-1.002 2.919,-1.503 4.892,-1.503c1.441,-0 2.873,0.22 4.294,0.659l-0.568,2.147Z" style="fill-rule:nonzero;"/><path d="M300.303,60.981l-10.964,-0c-0,1.809 0.523,3.302 1.571,4.478c1.048,1.176 2.334,1.763 3.857,1.763c1.452,0 2.95,-0.26 4.493,-0.782l0.414,1.917c-1.41,0.634 -3.056,0.951 -4.937,0.951c-2.372,-0 -4.284,-0.762 -5.736,-2.285c-1.452,-1.523 -2.177,-3.578 -2.177,-6.165c-0,-2.535 0.651,-4.557 1.955,-6.065c1.303,-1.508 2.988,-2.262 5.053,-2.262c1.84,0 3.379,0.701 4.616,2.101c1.237,1.401 1.855,3.267 1.855,5.597l0,0.752Zm-2.607,-1.948c0,-1.247 -0.388,-2.297 -1.165,-3.151c-0.777,-0.854 -1.646,-1.281 -2.607,-1.281c-1.237,0 -2.262,0.409 -3.075,1.227c-0.813,0.818 -1.265,1.887 -1.357,3.205l8.204,0Z" style="fill-rule:nonzero;"/><path d="M318.613,75.212l-2.392,0l0,-8.618c-0.491,0.787 -1.193,1.436 -2.108,1.947c-0.915,0.511 -1.879,0.767 -2.891,0.767c-1.83,-0 -3.277,-0.803 -4.34,-2.408c-1.063,-1.605 -1.595,-3.649 -1.595,-6.134c0,-2.382 0.552,-4.35 1.656,-5.904c1.104,-1.554 2.577,-2.331 4.417,-2.331c2.014,0 3.634,0.818 4.861,2.454l0,-2.07l2.392,-0l0,22.297Zm-2.392,-11.21l0,-6.64c-1.145,-1.84 -2.525,-2.761 -4.14,-2.761c-1.319,0 -2.362,0.599 -3.129,1.795c-0.766,1.196 -1.15,2.694 -1.15,4.493c0,1.83 0.361,3.333 1.081,4.508c0.721,1.176 1.71,1.764 2.968,1.764c0.603,0 1.211,-0.164 1.825,-0.491c0.613,-0.327 1.191,-0.818 1.732,-1.472c0.542,-0.654 0.813,-1.053 0.813,-1.196Z" style="fill-rule:nonzero;"/><path d="M337.491,68.894l-2.392,-0l-0,-2.362c-1.718,1.83 -3.527,2.745 -5.429,2.745c-2.995,0 -4.493,-1.814 -4.493,-5.444l-0,-10.918l2.392,-0l0,10.228c0,1.36 0.215,2.375 0.644,3.044c0.43,0.67 1.156,1.005 2.178,1.005c1.462,-0 3.031,-0.91 4.708,-2.73l-0,-11.547l2.392,-0l0,15.979Z" style="fill-rule:nonzero;"/><path d="M356.844,60.981l-10.964,-0c-0,1.809 0.523,3.302 1.571,4.478c1.048,1.176 2.334,1.763 3.857,1.763c1.452,0 2.95,-0.26 4.493,-0.782l0.414,1.917c-1.41,0.634 -3.056,0.951 -4.937,0.951c-2.372,-0 -4.284,-0.762 -5.736,-2.285c-1.452,-1.523 -2.177,-3.578 -2.177,-6.165c-0,-2.535 0.651,-4.557 1.955,-6.065c1.303,-1.508 2.988,-2.262 5.053,-2.262c1.84,0 3.379,0.701 4.616,2.101c1.237,1.401 1.855,3.267 1.855,5.597l0,0.752Zm-2.607,-1.948c0,-1.247 -0.388,-2.297 -1.165,-3.151c-0.777,-0.854 -1.646,-1.281 -2.607,-1.281c-1.237,0 -2.262,0.409 -3.075,1.227c-0.813,0.818 -1.265,1.887 -1.357,3.205l8.204,0Z" style="fill-rule:nonzero;"/><path d="M375.216,68.894l-2.392,-0l-0,-10.244c-0,-1.421 -0.228,-2.451 -0.683,-3.09c-0.455,-0.639 -1.168,-0.959 -2.139,-0.959c-1.462,0 -3.031,0.91 -4.708,2.73l-0,11.563l-2.392,-0l-0,-15.979l2.392,-0l-0,2.346c1.717,-1.82 3.527,-2.73 5.429,-2.73c2.995,0 4.493,1.81 4.493,5.429l-0,10.934Z" style="fill-rule:nonzero;"/><path d="M394.002,68.357c-1.391,0.634 -2.919,0.951 -4.586,0.951c-2.515,-0 -4.521,-0.764 -6.019,-2.293c-1.498,-1.528 -2.246,-3.56 -2.246,-6.095c-0,-2.536 0.754,-4.568 2.262,-6.096c1.507,-1.529 3.488,-2.293 5.942,-2.293c1.605,0 3.133,0.281 4.585,0.844l-0.629,1.978c-1.451,-0.501 -2.76,-0.752 -3.925,-0.752c-1.759,0 -3.152,0.568 -4.179,1.703c-1.028,1.134 -1.541,2.673 -1.541,4.616c-0,1.778 0.531,3.274 1.594,4.485c1.064,1.212 2.449,1.817 4.156,1.817c1.35,0 2.74,-0.26 4.171,-0.782l0.415,1.917Z" style="fill-rule:nonzero;"/><path d="M413.385,60.981l-10.964,-0c-0,1.809 0.524,3.302 1.571,4.478c1.048,1.176 2.334,1.763 3.857,1.763c1.452,0 2.95,-0.26 4.493,-0.782l0.415,1.917c-1.411,0.634 -3.057,0.951 -4.938,0.951c-2.372,-0 -4.284,-0.762 -5.736,-2.285c-1.452,-1.523 -2.177,-3.578 -2.177,-6.165c-0,-2.535 0.651,-4.557 1.955,-6.065c1.303,-1.508 2.988,-2.262 5.053,-2.262c1.84,0 3.379,0.701 4.616,2.101c1.237,1.401 1.855,3.267 1.855,5.597l0,0.752Zm-2.607,-1.948c0,-1.247 -0.388,-2.297 -1.165,-3.151c-0.777,-0.854 -1.646,-1.281 -2.607,-1.281c-1.237,0 -2.262,0.409 -3.075,1.227c-0.813,0.818 -1.265,1.887 -1.357,3.205l8.204,0Z" style="fill-rule:nonzero;"/><path d="M432.002,53.344l-0.966,2.3c-1.053,-0.46 -1.963,-0.69 -2.73,-0.69c-0.705,0 -1.395,0.202 -2.07,0.606c-0.675,0.404 -1.296,0.981 -1.863,1.733c-0.567,0.751 -0.851,1.173 -0.851,1.265l-0,10.336l-2.377,-0l-0,-15.979l2.377,-0l-0,3.235c1.278,-2.412 2.934,-3.619 4.968,-3.619c1.207,0 2.377,0.271 3.512,0.813Z" style="fill-rule:nonzero;"/></g><path d="M312.801,28.509l2.97,-0l-4.379,6.025l0.781,-4.017l-2.97,0l4.379,-6.025l-0.781,4.017Z"/><g><path d="M32.858,221.44c-0.541,0.374 -1.167,0.561 -1.88,0.561c-0.892,0 -1.57,-0.306 -2.034,-0.918c-0.464,-0.612 -0.696,-1.497 -0.696,-2.656c0,-1.12 0.225,-1.996 0.674,-2.63c0.449,-0.633 1.134,-0.949 2.056,-0.949c0.332,-0 0.661,0.042 0.986,0.127c0.326,0.084 0.588,0.197 0.786,0.337l-0.264,0.63c-0.458,-0.261 -0.961,-0.391 -1.508,-0.391c-0.635,-0 -1.107,0.23 -1.416,0.691c-0.31,0.46 -0.464,1.189 -0.464,2.185c-0,1.914 0.626,2.871 1.88,2.871c0.53,-0 1.074,-0.163 1.631,-0.488l0.249,0.63Z" style="fill-rule:nonzero;"/><path d="M38.629,221.869l-3.75,0l0,-6.889l0.801,-0l-0,6.191l2.949,-0l0,0.698Z" style="fill-rule:nonzero;"/><path d="M45.519,221.869l-1.011,0l-2.329,-3.379l-0.728,0.791l0,2.588l-0.8,0l-0,-6.889l0.8,-0l0,3.3l3.057,-3.3l0.923,-0l-2.691,2.91l2.779,3.979Z" style="fill-rule:nonzero;"/></g><g><path d="M338.997,212.756c-0.564,0.413 -1.187,0.62 -1.871,0.62c-0.895,0 -1.573,-0.303 -2.036,-0.911c-0.462,-0.607 -0.693,-1.495 -0.693,-2.663c-0,-1.13 0.224,-2.009 0.671,-2.637c0.448,-0.628 1.134,-0.942 2.058,-0.942c0.332,-0 0.661,0.042 0.987,0.127c0.325,0.084 0.587,0.197 0.786,0.337l-0.264,0.63c-0.459,-0.261 -0.962,-0.391 -1.509,-0.391c-0.631,-0 -1.102,0.231 -1.413,0.693c-0.311,0.462 -0.466,1.19 -0.466,2.183c-0,1.914 0.626,2.871 1.879,2.871c0.472,-0 0.829,-0.099 1.07,-0.298l-0,-1.699l-1.241,-0l0,-0.693l2.042,-0l-0,2.773Z" style="fill-rule:nonzero;"/><path d="M345.52,213.244l-0.84,0l-0.762,-2.412l-2.26,0l-0.772,2.412l-0.83,0l2.251,-6.889l0.962,-0l2.251,6.889Zm-1.831,-3.11l-0.903,-2.852l-0.899,2.852l1.802,-0Z" style="fill-rule:nonzero;"/><path d="M351.311,207.004l-2.124,0l-0,6.24l-0.796,0l0,-6.24l-2.134,0l0,-0.649l5.054,-0l-0,0.649Z" style="fill-rule:nonzero;"/><path d="M356.628,213.244l-3.598,0l-0,-6.889l3.569,-0l0,0.698l-2.769,-0l0,2.134l2.662,-0l-0,0.698l-2.662,-0l0,2.661l2.798,-0l0,0.698Z" style="fill-rule:nonzero;"/></g><g><path d="M237.062,283.915c-0.563,0.414 -1.186,0.62 -1.87,0.62c-0.895,0 -1.574,-0.303 -2.036,-0.91c-0.462,-0.607 -0.694,-1.495 -0.694,-2.664c0,-1.129 0.224,-2.008 0.672,-2.636c0.447,-0.629 1.134,-0.943 2.058,-0.943c0.332,0 0.661,0.042 0.986,0.127c0.326,0.085 0.588,0.197 0.786,0.337l-0.263,0.63c-0.459,-0.26 -0.962,-0.391 -1.509,-0.391c-0.632,0 -1.103,0.231 -1.414,0.694c-0.31,0.462 -0.466,1.189 -0.466,2.182c0,1.914 0.627,2.871 1.88,2.871c0.472,0 0.828,-0.099 1.069,-0.297l0,-1.7l-1.24,0l0,-0.693l2.041,-0l0,2.773Z" style="fill-rule:nonzero;"/><path d="M243.586,284.404l-0.84,-0l-0.762,-2.412l-2.261,-0l-0.771,2.412l-0.83,-0l2.251,-6.89l0.962,0l2.251,6.89Zm-1.832,-3.111l-0.903,-2.851l-0.898,2.851l1.801,0Z" style="fill-rule:nonzero;"/><path d="M249.377,278.163l-2.124,0l-0,6.241l-0.796,-0l-0,-6.241l-2.134,0l-0,-0.649l5.054,0l-0,0.649Z" style="fill-rule:nonzero;"/><path d="M254.694,284.404l-3.599,-0l0,-6.89l3.57,0l-0,0.698l-2.769,0l0,2.134l2.661,0l0,0.698l-2.661,0l0,2.661l2.798,0l-0,0.699Z" style="fill-rule:nonzero;"/><path d="M260.314,278.276c-0.41,-0.14 -0.799,-0.21 -1.167,-0.21c-0.417,-0 -0.756,0.095 -1.018,0.285c-0.262,0.191 -0.393,0.462 -0.393,0.813c-0,0.417 0.343,0.783 1.03,1.099c0.508,0.234 0.844,0.397 1.009,0.488c0.164,0.091 0.331,0.217 0.5,0.376c0.169,0.16 0.305,0.348 0.408,0.564c0.102,0.217 0.154,0.46 0.154,0.73c-0,0.671 -0.226,1.191 -0.677,1.56c-0.451,0.37 -0.982,0.554 -1.594,0.554c-0.592,0 -1.112,-0.117 -1.558,-0.351l0.166,-0.689c0.524,0.238 0.982,0.357 1.372,0.357c0.456,-0 0.822,-0.118 1.097,-0.354c0.275,-0.236 0.412,-0.561 0.412,-0.974c0,-0.306 -0.089,-0.566 -0.268,-0.779c-0.179,-0.213 -0.51,-0.431 -0.991,-0.652c-0.495,-0.228 -0.815,-0.383 -0.96,-0.466c-0.145,-0.083 -0.289,-0.198 -0.432,-0.344c-0.143,-0.147 -0.254,-0.311 -0.332,-0.494c-0.078,-0.182 -0.117,-0.38 -0.117,-0.595c-0,-0.57 0.205,-1.014 0.615,-1.333c0.41,-0.319 0.929,-0.479 1.558,-0.479c0.459,0 0.914,0.07 1.367,0.21l-0.181,0.684Z" style="fill-rule:nonzero;"/></g><g><path d="M390.329,206.355l-2.246,6.889l-0.962,0l-2.251,-6.889l0.84,-0l1.889,5.962l1.9,-5.962l0.83,-0Z" style="fill-rule:nonzero;"/><path d="M395.373,206.223l-2.993,7.153l-0.718,0l2.978,-7.153l0.733,-0Z" style="fill-rule:nonzero;"/><path d="M399.601,206.223c0.772,-0 1.36,0.305 1.765,0.915c0.406,0.611 0.608,1.498 0.608,2.664c0,1.159 -0.202,2.044 -0.605,2.656c-0.404,0.612 -0.993,0.918 -1.768,0.918c-0.768,0 -1.355,-0.305 -1.76,-0.915c-0.405,-0.611 -0.608,-1.497 -0.608,-2.659c0,-1.162 0.202,-2.049 0.606,-2.661c0.403,-0.612 0.991,-0.918 1.762,-0.918Zm0,6.45c1.016,-0 1.524,-0.957 1.524,-2.871c-0,-1.917 -0.508,-2.876 -1.524,-2.876c-0.495,-0 -0.871,0.248 -1.13,0.745c-0.259,0.496 -0.388,1.206 -0.388,2.131c-0,0.934 0.128,1.646 0.385,2.136c0.258,0.49 0.635,0.735 1.133,0.735Z" style="fill-rule:nonzero;"/><path d="M407.843,212.815c-0.54,0.374 -1.167,0.561 -1.879,0.561c-0.892,0 -1.57,-0.306 -2.034,-0.918c-0.464,-0.612 -0.696,-1.497 -0.696,-2.656c0,-1.12 0.225,-1.996 0.674,-2.63c0.449,-0.633 1.134,-0.949 2.056,-0.949c0.332,-0 0.66,0.042 0.986,0.127c0.325,0.084 0.587,0.197 0.786,0.337l-0.264,0.63c-0.459,-0.261 -0.962,-0.391 -1.508,-0.391c-0.635,-0 -1.107,0.23 -1.416,0.691c-0.31,0.46 -0.464,1.189 -0.464,2.185c-0,1.914 0.626,2.871 1.88,2.871c0.53,-0 1.074,-0.163 1.63,-0.488l0.249,0.63Z" style="fill-rule:nonzero;"/><path d="M414.147,207.004l-2.124,0l0,6.24l-0.796,0l0,-6.24l-2.134,0l0,-0.649l5.054,-0l0,0.649Z" style="fill-rule:nonzero;"/></g><g><path d="M423.745,207.116c-0.41,-0.14 -0.799,-0.21 -1.167,-0.21c-0.416,0 -0.756,0.096 -1.018,0.286c-0.262,0.19 -0.393,0.461 -0.393,0.813c0,0.417 0.344,0.783 1.03,1.099c0.508,0.234 0.844,0.397 1.009,0.488c0.164,0.091 0.331,0.216 0.5,0.376c0.169,0.159 0.305,0.347 0.408,0.564c0.102,0.216 0.154,0.46 0.154,0.73c-0,0.67 -0.226,1.19 -0.677,1.56c-0.45,0.369 -0.982,0.554 -1.594,0.554c-0.592,0 -1.111,-0.117 -1.557,-0.351l0.166,-0.689c0.524,0.238 0.981,0.356 1.372,0.356c0.455,0 0.821,-0.118 1.096,-0.354c0.275,-0.236 0.412,-0.56 0.412,-0.974c0,-0.306 -0.089,-0.565 -0.268,-0.778c-0.179,-0.214 -0.51,-0.431 -0.991,-0.652c-0.495,-0.228 -0.815,-0.384 -0.96,-0.467c-0.145,-0.083 -0.289,-0.197 -0.432,-0.344c-0.143,-0.146 -0.254,-0.311 -0.332,-0.493c-0.078,-0.182 -0.117,-0.381 -0.117,-0.596c-0,-0.569 0.205,-1.014 0.615,-1.333c0.41,-0.319 0.929,-0.478 1.558,-0.478c0.459,-0 0.914,0.07 1.367,0.21l-0.181,0.683Z" style="fill-rule:nonzero;"/><path d="M426.528,206.355l1.748,-0c0.661,-0 1.19,0.166 1.587,0.498c0.398,0.332 0.596,0.789 0.596,1.372c0,0.586 -0.198,1.054 -0.593,1.404c-0.396,0.349 -0.914,0.524 -1.555,0.524l-0.982,0l0,3.091l-0.801,0l0,-6.889Zm0.801,3.1l0.869,0c0.941,0 1.411,-0.394 1.411,-1.181c0,-0.365 -0.127,-0.66 -0.383,-0.884c-0.255,-0.225 -0.585,-0.337 -0.989,-0.337l-0.908,-0l0,2.402Z" style="fill-rule:nonzero;"/><path d="M437.012,213.244l-1.001,0l-2.022,-3.13l-0.888,0l-0,3.13l-0.801,0l-0,-6.889l1.948,-0c0.654,-0 1.171,0.158 1.55,0.476c0.38,0.317 0.569,0.759 0.569,1.325c0,0.42 -0.138,0.794 -0.415,1.121c-0.276,0.327 -0.657,0.549 -1.142,0.666l2.202,3.301Zm-3.911,-3.828l1.01,0c0.424,0 0.767,-0.115 1.031,-0.344c0.263,-0.23 0.395,-0.519 0.395,-0.867c0,-0.768 -0.469,-1.152 -1.406,-1.152l-1.03,-0l-0,2.363Z" style="fill-rule:nonzero;"/><path d="M442.129,213.244l-3.599,0l0,-6.889l3.57,-0l-0,0.698l-2.769,-0l0,2.134l2.661,-0l0,0.698l-2.661,-0l0,2.661l2.798,-0l0,0.698Z" style="fill-rule:nonzero;"/><path d="M449.024,213.244l-0.84,0l-0.762,-2.412l-2.261,0l-0.771,2.412l-0.83,0l2.251,-6.889l0.962,-0l2.251,6.889Zm-1.831,-3.11l-0.904,-2.852l-0.898,2.852l1.802,-0Z" style="fill-rule:nonzero;"/><path d="M450.303,206.355l1.357,-0c0.902,-0 1.625,0.306 2.168,0.92c0.544,0.614 0.816,1.456 0.816,2.527c-0,1.094 -0.276,1.941 -0.828,2.541c-0.552,0.601 -1.259,0.901 -2.122,0.901l-1.391,0l-0,-6.889Zm0.801,6.191l0.566,-0c0.654,-0 1.172,-0.243 1.553,-0.728c0.381,-0.485 0.571,-1.157 0.571,-2.016c0,-0.853 -0.191,-1.524 -0.574,-2.014c-0.382,-0.49 -0.899,-0.735 -1.55,-0.735l-0.566,-0l-0,5.493Z" style="fill-rule:nonzero;"/></g><g><path d="M67.869,221.869l-1.001,0l-2.022,-3.13l-0.889,0l0,3.13l-0.8,0l-0,-6.889l1.948,-0c0.654,-0 1.171,0.158 1.55,0.476c0.379,0.317 0.569,0.759 0.569,1.325c-0,0.42 -0.138,0.794 -0.415,1.121c-0.277,0.327 -0.658,0.549 -1.143,0.666l2.203,3.301Zm-3.912,-3.828l1.011,0c0.423,0 0.767,-0.115 1.03,-0.344c0.264,-0.23 0.396,-0.519 0.396,-0.867c-0,-0.768 -0.469,-1.152 -1.406,-1.152l-1.031,-0l0,2.363Z" style="fill-rule:nonzero;"/><path d="M72.605,215.741c-0.41,-0.14 -0.799,-0.21 -1.167,-0.21c-0.417,0 -0.756,0.096 -1.018,0.286c-0.262,0.19 -0.393,0.461 -0.393,0.813c-0,0.417 0.343,0.783 1.03,1.099c0.508,0.234 0.844,0.397 1.008,0.488c0.165,0.091 0.332,0.216 0.501,0.376c0.169,0.159 0.305,0.347 0.408,0.564c0.102,0.216 0.153,0.46 0.153,0.73c0,0.67 -0.225,1.19 -0.676,1.56c-0.451,0.369 -0.982,0.554 -1.594,0.554c-0.593,0 -1.112,-0.117 -1.558,-0.351l0.166,-0.689c0.524,0.238 0.982,0.356 1.372,0.356c0.456,0 0.821,-0.118 1.096,-0.354c0.276,-0.236 0.413,-0.56 0.413,-0.974c0,-0.306 -0.089,-0.565 -0.268,-0.778c-0.18,-0.214 -0.51,-0.431 -0.992,-0.652c-0.494,-0.228 -0.814,-0.384 -0.959,-0.467c-0.145,-0.083 -0.289,-0.197 -0.432,-0.344c-0.144,-0.146 -0.254,-0.311 -0.332,-0.493c-0.078,-0.182 -0.118,-0.381 -0.118,-0.596c0,-0.569 0.206,-1.014 0.616,-1.333c0.41,-0.319 0.929,-0.478 1.557,-0.478c0.459,-0 0.915,0.07 1.368,0.21l-0.181,0.683Z" style="fill-rule:nonzero;"/><path d="M79.67,215.629l-2.124,0l0,6.24l-0.796,0l0,-6.24l-2.133,0l-0,-0.649l5.053,-0l0,0.649Z" style="fill-rule:nonzero;"/></g><g><path d="M101.778,222.001l-3.75,0l0,-6.89l0.801,0l0,6.192l2.949,-0l0,0.698Z" style="fill-rule:nonzero;"/><path d="M107.628,222.001l-3.599,0l0,-6.89l3.57,0l-0,0.699l-2.769,-0l0,2.133l2.661,0l0,0.699l-2.661,-0l0,2.661l2.798,-0l0,0.698Z" style="fill-rule:nonzero;"/><path d="M113.858,222.001l-0.888,0l-2.471,-5.439l0,5.439l-0.801,0l0,-6.89l0.894,0l2.48,5.391l0,-5.391l0.786,0l0,6.89Z" style="fill-rule:nonzero;"/></g><g><path d="M129.331,215.111l1.748,0c0.661,0 1.19,0.166 1.587,0.498c0.397,0.333 0.596,0.79 0.596,1.373c-0,0.585 -0.198,1.053 -0.594,1.403c-0.395,0.35 -0.914,0.525 -1.555,0.525l-0.981,0l-0,3.091l-0.801,0l-0,-6.89Zm0.801,3.101l0.869,0c0.941,0 1.411,-0.394 1.411,-1.182c-0,-0.364 -0.128,-0.659 -0.383,-0.883c-0.256,-0.225 -0.586,-0.337 -0.989,-0.337l-0.908,-0l-0,2.402Z" style="fill-rule:nonzero;"/><path d="M139.824,222.001l-0.84,0l-0.762,-2.412l-2.26,-0l-0.772,2.412l-0.83,0l2.251,-6.89l0.962,0l2.251,6.89Zm-1.831,-3.11l-0.903,-2.852l-0.899,2.852l1.802,-0Z" style="fill-rule:nonzero;"/><path d="M145.615,215.761l-2.124,-0l-0,6.24l-0.796,0l0,-6.24l-2.134,-0l0,-0.65l5.054,0l0,0.65Z" style="fill-rule:nonzero;"/><path d="M151.616,215.761l-2.124,-0l-0,6.24l-0.796,0l0,-6.24l-2.134,-0l0,-0.65l5.054,0l-0,0.65Z" style="fill-rule:nonzero;"/></g><g><path d="M171.544,222.001l-1.001,0l-2.022,-3.13l-0.888,0l-0,3.13l-0.801,0l0,-6.89l1.948,0c0.655,0 1.171,0.159 1.551,0.477c0.379,0.317 0.568,0.759 0.568,1.325c0,0.42 -0.138,0.794 -0.415,1.121c-0.276,0.327 -0.657,0.549 -1.142,0.666l2.202,3.301Zm-3.911,-3.828l1.011,-0c0.423,-0 0.766,-0.115 1.03,-0.344c0.263,-0.23 0.395,-0.519 0.395,-0.867c0,-0.768 -0.468,-1.152 -1.406,-1.152l-1.03,-0l-0,2.363Z" style="fill-rule:nonzero;"/><path d="M176.891,222.001l-0.889,0l-2.471,-5.439l0,5.439l-0.801,0l0,-6.89l0.894,0l2.48,5.391l0,-5.391l0.787,0l-0,6.89Z" style="fill-rule:nonzero;"/><path d="M178.834,215.111l1.357,0c0.902,0 1.625,0.307 2.168,0.921c0.544,0.613 0.816,1.456 0.816,2.527c-0,1.093 -0.276,1.941 -0.828,2.541c-0.552,0.601 -1.259,0.901 -2.121,0.901l-1.392,0l-0,-6.89Zm0.801,6.192l0.566,-0c0.654,-0 1.172,-0.243 1.553,-0.728c0.381,-0.485 0.571,-1.157 0.571,-2.016c0,-0.853 -0.191,-1.525 -0.574,-2.014c-0.382,-0.49 -0.899,-0.735 -1.55,-0.735l-0.566,-0l-0,5.493Z" style="fill-rule:nonzero;"/></g><g><path d="M204.504,222.001l-3.13,0l0,-0.698l1.187,-0l-0,-5.493l-1.187,-0l0,-0.699l3.13,0l0,0.699l-1.142,-0l-0,5.493l1.142,-0l0,0.698Z" style="fill-rule:nonzero;"/><path d="M211.052,222.001l-0.889,0l-2.47,-5.439l-0,5.439l-0.801,0l-0,-6.89l0.893,0l2.481,5.391l-0,-5.391l0.786,0l-0,6.89Z" style="fill-rule:nonzero;"/><path d="M217.693,215.111l-2.247,6.89l-0.961,0l-2.251,-6.89l0.839,0l1.89,5.962l1.899,-5.962l0.831,0Z" style="fill-rule:nonzero;"/></g><g><path d="M235.963,215.111l1.357,0c0.902,0 1.625,0.307 2.168,0.921c0.544,0.613 0.816,1.456 0.816,2.527c-0,1.093 -0.276,1.941 -0.828,2.541c-0.552,0.601 -1.259,0.901 -2.122,0.901l-1.391,0l-0,-6.89Zm0.801,6.192l0.566,-0c0.654,-0 1.172,-0.243 1.553,-0.728c0.381,-0.485 0.571,-1.157 0.571,-2.016c-0,-0.853 -0.191,-1.525 -0.574,-2.014c-0.382,-0.49 -0.899,-0.735 -1.55,-0.735l-0.566,-0l-0,5.493Z" style="fill-rule:nonzero;"/><path d="M245.474,222.001l-3.129,0l-0,-0.698l1.186,-0l0,-5.493l-1.186,-0l-0,-0.699l3.129,0l0,0.699l-1.142,-0l-0,5.493l1.142,-0l0,0.698Z" style="fill-rule:nonzero;"/><path d="M252.164,222.001l-0.772,0l0,-5.908l-1.04,2.827l-0.756,0l-1.04,-2.827l-0,5.908l-0.772,0l0,-6.89l1.04,0l1.152,3.14l1.148,-3.14l1.04,0l-0,6.89Z" style="fill-rule:nonzero;"/></g></g></g></svg>