<?xml version="1.0" encoding="UTF-8" standalone="no"?><!DOCTYPE svg PUBLIC "-//W3C//DTD SVG 1.1//EN" "http://www.w3.org/Graphics/SVG/1.1/DTD/svg11.dtd"><svg width="100%" height="100%" viewBox="0 0 765 380" version="1.1" xmlns="http://www.w3.org/2000/svg" xmlns:xlink="http://www.w3.org/1999/xlink" xml:space="preserve" xmlns:serif="http://www.serif.com/" style="fill-rule:evenodd;clip-rule:evenodd;stroke-linecap:square;stroke-linejoin:round;stroke-miterlimit:1.5;"><rect id="StochSeq4--revised-" serif:id="StochSeq4 (revised)" x="-0" y="0" width="765" height="379.559" style="fill:none;"/><clipPath id="_clip1"><rect x="-0" y="0" width="765" height="379.559"/></clipPath><g clip-path="url(#_clip1)"><g id="Layer1"><rect id="background" x="0" y="-0" width="765" height="379.559" style="fill:#e6e6e6;"/><rect x="719.498" y="18.241" width="18.472" height="343.077" style="fill:#282828;fill-opacity:0.5;"/><rect x="696.075" y="18.241" width="18.472" height="343.077" style="fill:#282828;fill-opacity:0.5;"/><g><path d="M708.268,46.702c0.413,0.563 0.62,1.186 0.62,1.87c-0,0.895 -0.304,1.574 -0.911,2.036c-0.607,0.462 -1.495,0.694 -2.663,0.694c-1.13,-0 -2.009,-0.224 -2.637,-0.672c-0.628,-0.447 -0.942,-1.133 -0.942,-2.058c-0,-0.332 0.042,-0.661 0.127,-0.986c0.084,-0.326 0.197,-0.588 0.337,-0.786l0.629,0.263c-0.26,0.459 -0.39,0.962 -0.39,1.509c-0,0.632 0.231,1.103 0.693,1.414c0.462,0.31 1.19,0.466 2.183,0.466c1.914,-0 2.871,-0.627 2.871,-1.88c-0,-0.472 -0.099,-0.828 -0.298,-1.069l-1.699,-0l-0,1.24l-0.694,-0l0,-2.041l2.774,-0Z" style="fill:#fff;fill-rule:nonzero;"/><path d="M708.756,40.178l0,0.84l-2.412,0.762l0,2.261l2.412,0.771l0,0.83l-6.89,-2.251l0,-0.962l6.89,-2.251Zm-3.11,1.832l-2.852,0.903l2.852,0.898l-0,-1.801Z" style="fill:#fff;fill-rule:nonzero;"/><path d="M702.516,34.387l-0,2.124l6.24,0l0,0.796l-6.24,0l-0,2.134l-0.65,0l0,-5.054l0.65,0Z" style="fill:#fff;fill-rule:nonzero;"/><path d="M708.756,29.07l0,3.599l-6.89,-0l0,-3.57l0.699,0l-0,2.769l2.134,-0l-0,-2.661l0.698,-0l-0,2.661l2.661,-0l-0,-2.798l0.698,0Z" style="fill:#fff;fill-rule:nonzero;"/><path d="M702.628,23.45c-0.14,0.41 -0.21,0.799 -0.21,1.167c0,0.417 0.095,0.756 0.286,1.018c0.19,0.262 0.461,0.393 0.813,0.393c0.417,0 0.783,-0.343 1.099,-1.03c0.234,-0.508 0.397,-0.844 0.488,-1.008c0.091,-0.165 0.216,-0.332 0.376,-0.501c0.159,-0.169 0.347,-0.305 0.564,-0.408c0.216,-0.102 0.46,-0.154 0.73,-0.154c0.67,0 1.19,0.226 1.56,0.677c0.369,0.451 0.554,0.982 0.554,1.594c-0,0.592 -0.117,1.112 -0.352,1.558l-0.688,-0.166c0.238,-0.524 0.356,-0.982 0.356,-1.372c0,-0.456 -0.118,-0.822 -0.354,-1.097c-0.236,-0.275 -0.56,-0.412 -0.974,-0.412c-0.306,-0 -0.565,0.089 -0.779,0.268c-0.213,0.179 -0.43,0.51 -0.651,0.992c-0.228,0.494 -0.384,0.814 -0.467,0.959c-0.083,0.145 -0.197,0.289 -0.344,0.432c-0.146,0.143 -0.311,0.254 -0.493,0.332c-0.182,0.078 -0.381,0.117 -0.596,0.117c-0.569,0 -1.014,-0.205 -1.333,-0.615c-0.319,-0.41 -0.478,-0.929 -0.478,-1.558c-0,-0.459 0.07,-0.914 0.21,-1.367l0.683,0.181Z" style="fill:#fff;fill-rule:nonzero;"/></g><g><path d="M725.29,45.843l6.889,2.246l0,0.962l-6.889,2.251l-0,-0.84l5.962,-1.89l-5.962,-1.899l-0,-0.83Z" style="fill:#fff;fill-rule:nonzero;"/><path d="M725.158,40.799l7.153,2.993l0,0.718l-7.153,-2.979l-0,-0.732Z" style="fill:#fff;fill-rule:nonzero;"/><path d="M725.158,36.57c-0,-0.771 0.305,-1.36 0.915,-1.765c0.611,-0.405 1.499,-0.608 2.664,-0.608c1.159,0 2.044,0.202 2.656,0.605c0.612,0.404 0.918,0.993 0.918,1.768c0,0.768 -0.305,1.355 -0.915,1.76c-0.611,0.406 -1.497,0.608 -2.659,0.608c-1.162,0 -2.049,-0.202 -2.661,-0.605c-0.612,-0.404 -0.918,-0.991 -0.918,-1.763Zm6.45,0c0,-1.016 -0.957,-1.523 -2.871,-1.523c-1.917,-0 -2.876,0.507 -2.876,1.523c-0,0.495 0.248,0.872 0.745,1.13c0.496,0.259 1.206,0.389 2.131,0.389c0.934,-0 1.646,-0.129 2.136,-0.386c0.49,-0.257 0.735,-0.635 0.735,-1.133Z" style="fill:#fff;fill-rule:nonzero;"/><path d="M731.75,28.328c0.374,0.54 0.561,1.167 0.561,1.88c0,0.892 -0.306,1.57 -0.918,2.033c-0.612,0.464 -1.497,0.696 -2.656,0.696c-1.12,0 -1.996,-0.224 -2.629,-0.674c-0.634,-0.449 -0.95,-1.134 -0.95,-2.055c-0,-0.332 0.042,-0.661 0.127,-0.987c0.084,-0.325 0.197,-0.587 0.337,-0.786l0.63,0.264c-0.261,0.459 -0.391,0.962 -0.391,1.509c-0,0.635 0.23,1.107 0.691,1.416c0.46,0.309 1.189,0.464 2.185,0.464c1.914,-0 2.871,-0.627 2.871,-1.88c0,-0.531 -0.163,-1.074 -0.488,-1.631l0.63,-0.249Z" style="fill:#fff;fill-rule:nonzero;"/><path d="M725.939,22.024l0,2.124l6.24,0l0,0.796l-6.24,0l0,2.134l-0.649,-0l-0,-5.054l0.649,0Z" style="fill:#fff;fill-rule:nonzero;"/></g><rect id="rect" x="211.124" y="18.241" width="480" height="80.687" style="fill:#333;"/><rect id="rect1" serif:id="rect" x="211.124" y="105.704" width="480" height="80.687" style="fill:#333;"/><rect id="rect2" serif:id="rect" x="211.124" y="193.168" width="480" height="80.687" style="fill:#333;"/><rect id="rect3" serif:id="rect" x="211.124" y="280.631" width="480" height="80.687" style="fill:#333;"/><g><path d="M22.288,90.429c-0.54,0.375 -1.167,0.562 -1.88,0.562c-0.892,-0 -1.57,-0.306 -2.034,-0.918c-0.463,-0.612 -0.695,-1.497 -0.695,-2.656c-0,-1.12 0.224,-1.997 0.674,-2.63c0.449,-0.633 1.134,-0.949 2.055,-0.949c0.332,-0 0.661,0.042 0.987,0.127c0.325,0.084 0.587,0.197 0.786,0.337l-0.264,0.629c-0.459,-0.26 -0.962,-0.39 -1.509,-0.39c-0.635,-0 -1.107,0.23 -1.416,0.691c-0.309,0.46 -0.464,1.189 -0.464,2.185c0,1.914 0.627,2.871 1.88,2.871c0.531,-0 1.074,-0.163 1.631,-0.488l0.249,0.629Z" style="fill-rule:nonzero;"/><path d="M28.06,90.859l-3.75,0l-0,-6.89l0.8,0l0,6.192l2.95,-0l-0,0.698Z" style="fill-rule:nonzero;"/><path d="M34.949,90.859l-1.011,0l-2.329,-3.379l-0.727,0.791l-0,2.588l-0.801,0l0,-6.89l0.801,0l-0,3.301l3.056,-3.301l0.923,0l-2.69,2.911l2.778,3.979Z" style="fill-rule:nonzero;"/></g><g><path d="M176.596,48.322l-1.001,-0l-2.022,-3.13l-0.888,-0l-0,3.13l-0.801,-0l-0,-6.89l1.948,-0c0.654,-0 1.171,0.159 1.55,0.476c0.38,0.317 0.569,0.759 0.569,1.326c0,0.42 -0.138,0.793 -0.415,1.12c-0.276,0.328 -0.657,0.55 -1.142,0.667l2.202,3.301Zm-3.911,-3.828l1.01,-0c0.424,-0 0.767,-0.115 1.031,-0.345c0.263,-0.229 0.395,-0.518 0.395,-0.866c0,-0.769 -0.469,-1.153 -1.406,-1.153l-1.03,0l-0,2.364Z" style="fill-rule:nonzero;"/><path d="M181.332,42.194c-0.41,-0.14 -0.799,-0.21 -1.167,-0.21c-0.416,-0 -0.756,0.095 -1.018,0.285c-0.262,0.191 -0.393,0.462 -0.393,0.813c0,0.417 0.343,0.783 1.03,1.099c0.508,0.234 0.844,0.397 1.009,0.488c0.164,0.091 0.331,0.217 0.5,0.376c0.169,0.16 0.305,0.348 0.408,0.564c0.102,0.217 0.154,0.46 0.154,0.73c-0,0.671 -0.226,1.191 -0.677,1.56c-0.45,0.37 -0.982,0.554 -1.594,0.554c-0.592,0 -1.112,-0.117 -1.557,-0.351l0.166,-0.689c0.524,0.238 0.981,0.357 1.372,0.357c0.455,-0 0.821,-0.118 1.096,-0.354c0.275,-0.236 0.412,-0.561 0.412,-0.974c0,-0.306 -0.089,-0.566 -0.268,-0.779c-0.179,-0.213 -0.51,-0.431 -0.991,-0.652c-0.495,-0.228 -0.815,-0.383 -0.96,-0.466c-0.145,-0.083 -0.289,-0.198 -0.432,-0.344c-0.143,-0.147 -0.254,-0.311 -0.332,-0.494c-0.078,-0.182 -0.117,-0.38 -0.117,-0.595c-0,-0.57 0.205,-1.014 0.615,-1.333c0.41,-0.319 0.929,-0.479 1.558,-0.479c0.459,0 0.914,0.07 1.367,0.21l-0.181,0.684Z" style="fill-rule:nonzero;"/><path d="M188.398,42.081l-2.124,0l-0,6.241l-0.796,-0l-0,-6.241l-2.134,0l-0,-0.649l5.054,-0l-0,0.649Z" style="fill-rule:nonzero;"/></g><g><path d="M50.602,90.991l-3.75,-0l0,-6.89l0.801,0l0,6.192l2.949,-0l0,0.698Z" style="fill-rule:nonzero;"/><path d="M56.452,90.991l-3.599,-0l0,-6.89l3.57,0l-0,0.699l-2.769,-0l0,2.133l2.661,0l0,0.699l-2.661,-0l0,2.661l2.798,-0l-0,0.698Z" style="fill-rule:nonzero;"/><path d="M62.682,90.991l-0.888,-0l-2.471,-5.439l0,5.439l-0.801,-0l0,-6.89l0.894,0l2.48,5.391l0,-5.391l0.786,0l0,6.89Z" style="fill-rule:nonzero;"/></g><g><path d="M75.815,84.101l1.748,0c0.661,0 1.19,0.166 1.587,0.498c0.397,0.332 0.596,0.79 0.596,1.372c-0,0.586 -0.198,1.054 -0.593,1.404c-0.396,0.35 -0.914,0.525 -1.556,0.525l-0.981,0l-0,3.091l-0.801,-0l0,-6.89Zm0.801,3.101l0.869,-0c0.941,-0 1.411,-0.394 1.411,-1.182c0,-0.364 -0.128,-0.659 -0.383,-0.884c-0.256,-0.224 -0.585,-0.336 -0.989,-0.336l-0.908,-0l-0,2.402Z" style="fill-rule:nonzero;"/><path d="M86.308,90.991l-0.84,-0l-0.761,-2.412l-2.261,-0l-0.772,2.412l-0.83,-0l2.251,-6.89l0.962,0l2.251,6.89Zm-1.831,-3.11l-0.903,-2.852l-0.899,2.852l1.802,-0Z" style="fill-rule:nonzero;"/><path d="M92.099,84.751l-2.124,-0l0,6.24l-0.796,-0l0,-6.24l-2.133,-0l-0,-0.65l5.053,0l0,0.65Z" style="fill-rule:nonzero;"/><path d="M98.1,84.751l-2.124,-0l0,6.24l-0.796,-0l0,-6.24l-2.133,-0l-0,-0.65l5.053,0l0,0.65Z" style="fill-rule:nonzero;"/></g><g><path d="M115.688,90.991l-1.001,-0l-2.021,-3.13l-0.889,0l0,3.13l-0.8,-0l-0,-6.89l1.948,0c0.654,0 1.171,0.159 1.55,0.476c0.379,0.318 0.569,0.76 0.569,1.326c-0,0.42 -0.138,0.794 -0.415,1.121c-0.277,0.327 -0.658,0.549 -1.143,0.666l2.202,3.301Zm-3.911,-3.828l1.011,-0c0.423,-0 0.767,-0.115 1.03,-0.344c0.264,-0.23 0.396,-0.519 0.396,-0.867c-0,-0.768 -0.469,-1.152 -1.406,-1.152l-1.031,-0l0,2.363Z" style="fill-rule:nonzero;"/><path d="M121.035,90.991l-0.889,-0l-2.47,-5.439l-0,5.439l-0.801,-0l-0,-6.89l0.894,0l2.48,5.391l0,-5.391l0.786,0l0,6.89Z" style="fill-rule:nonzero;"/><path d="M122.979,84.101l1.357,0c0.902,0 1.624,0.307 2.168,0.921c0.544,0.613 0.815,1.456 0.815,2.527c0,1.093 -0.276,1.94 -0.827,2.541c-0.552,0.601 -1.259,0.901 -2.122,0.901l-1.391,-0l-0,-6.89Zm0.8,6.192l0.567,-0c0.654,-0 1.172,-0.243 1.552,-0.728c0.381,-0.485 0.572,-1.157 0.572,-2.016c-0,-0.853 -0.192,-1.525 -0.574,-2.015c-0.382,-0.489 -0.899,-0.734 -1.55,-0.734l-0.567,-0l0,5.493Z" style="fill-rule:nonzero;"/></g><g><path d="M146.309,90.991l-3.13,-0l0,-0.698l1.187,-0l-0,-5.493l-1.187,-0l0,-0.699l3.13,0l-0,0.699l-1.143,-0l0,5.493l1.143,-0l-0,0.698Z" style="fill-rule:nonzero;"/><path d="M152.857,90.991l-0.889,-0l-2.471,-5.439l0,5.439l-0.8,-0l-0,-6.89l0.893,0l2.481,5.391l-0,-5.391l0.786,0l-0,6.89Z" style="fill-rule:nonzero;"/><path d="M159.497,84.101l-2.246,6.89l-0.962,-0l-2.251,-6.89l0.84,0l1.89,5.962l1.899,-5.962l0.83,0Z" style="fill-rule:nonzero;"/></g><g><path d="M175.428,84.101l1.357,0c0.902,0 1.625,0.307 2.168,0.921c0.544,0.613 0.816,1.456 0.816,2.527c-0,1.093 -0.276,1.94 -0.828,2.541c-0.552,0.601 -1.259,0.901 -2.122,0.901l-1.391,-0l-0,-6.89Zm0.801,6.192l0.566,-0c0.654,-0 1.172,-0.243 1.553,-0.728c0.381,-0.485 0.571,-1.157 0.571,-2.016c0,-0.853 -0.191,-1.525 -0.574,-2.015c-0.382,-0.489 -0.899,-0.734 -1.55,-0.734l-0.566,-0l-0,5.493Z" style="fill-rule:nonzero;"/><path d="M184.94,90.991l-3.13,-0l-0,-0.698l1.186,-0l0,-5.493l-1.186,-0l-0,-0.699l3.13,0l-0,0.699l-1.143,-0l0,5.493l1.143,-0l-0,0.698Z" style="fill-rule:nonzero;"/><path d="M191.629,90.991l-0.771,-0l-0,-5.908l-1.04,2.827l-0.757,-0l-1.04,-2.827l-0,5.908l-0.772,-0l0,-6.89l1.04,0l1.153,3.14l1.147,-3.14l1.04,0l0,6.89Z" style="fill-rule:nonzero;"/></g><path d="M119.373,104.814l-0,192.054" style="fill:none;stroke:#000;stroke-width:1px;"/><path d="M151.676,104.814l-0,192.054" style="fill:none;stroke:#000;stroke-width:1px;"/><path d="M183.978,104.814l0,192.054" style="fill:none;stroke:#000;stroke-width:1px;"/><path d="M54.767,104.814l0,172.242" style="fill:none;stroke:#000;stroke-width:1px;"/><path d="M26.314,104.814l-0,173.154" style="fill:none;stroke:#000;stroke-width:1px;"/><path d="M87.07,104.947l0,172.109" style="fill:none;stroke:#000;stroke-width:1px;"/><g><path d="M747.947,48.431c-0.14,0.35 -0.21,0.683 -0.21,0.997c-0,0.356 0.095,0.646 0.286,0.87c0.19,0.224 0.461,0.336 0.813,0.336c0.416,-0 0.783,-0.294 1.098,-0.881c0.235,-0.434 0.397,-0.721 0.489,-0.861c0.091,-0.141 0.216,-0.283 0.376,-0.428c0.159,-0.145 0.347,-0.261 0.563,-0.349c0.217,-0.087 0.46,-0.131 0.73,-0.131c0.671,0 1.191,0.193 1.561,0.578c0.369,0.385 0.554,0.839 0.554,1.362c-0,0.507 -0.117,0.95 -0.352,1.332l-0.688,-0.142c0.237,-0.448 0.356,-0.839 0.356,-1.173c0,-0.389 -0.118,-0.702 -0.354,-0.937c-0.236,-0.235 -0.561,-0.352 -0.974,-0.352c-0.306,-0 -0.566,0.076 -0.779,0.229c-0.213,0.153 -0.43,0.436 -0.652,0.847c-0.228,0.423 -0.383,0.697 -0.466,0.82c-0.083,0.124 -0.198,0.247 -0.344,0.37c-0.147,0.122 -0.311,0.217 -0.493,0.283c-0.183,0.067 -0.381,0.101 -0.596,0.101c-0.57,-0 -1.014,-0.176 -1.333,-0.526c-0.319,-0.351 -0.479,-0.795 -0.479,-1.331c0,-0.393 0.07,-0.782 0.21,-1.169l0.684,0.155Z" style="fill-rule:nonzero;"/><path d="M747.185,46.052l0,-1.494c0,-0.565 0.166,-1.017 0.498,-1.356c0.332,-0.34 0.79,-0.509 1.372,-0.509c0.586,-0 1.054,0.169 1.404,0.507c0.35,0.338 0.525,0.781 0.525,1.329l0,0.839l3.091,-0l-0,0.684l-6.89,-0Zm3.101,-0.684l-0,-0.743c-0,-0.804 -0.394,-1.206 -1.182,-1.206c-0.364,-0 -0.659,0.109 -0.884,0.327c-0.224,0.219 -0.337,0.5 -0.337,0.845l0,0.777l2.403,-0Z" style="fill-rule:nonzero;"/><path d="M754.075,37.093l-0,0.855l-3.13,1.728l-0,0.759l3.13,0l-0,0.685l-6.89,-0l0,-1.665c0,-0.56 0.159,-1.001 0.476,-1.325c0.318,-0.324 0.76,-0.487 1.326,-0.487c0.42,0 0.793,0.119 1.121,0.355c0.327,0.237 0.549,0.562 0.666,0.977l3.301,-1.882Zm-3.828,3.342l-0,-0.864c-0,-0.361 -0.115,-0.655 -0.344,-0.88c-0.23,-0.225 -0.519,-0.338 -0.867,-0.338c-0.768,-0 -1.153,0.4 -1.153,1.202l0,0.88l2.364,0Z" style="fill-rule:nonzero;"/><path d="M754.075,32.719l-0,3.076l-6.89,-0l0,-3.051l0.698,0l0,2.367l2.134,-0l0,-2.275l0.699,0l-0,2.275l2.661,-0l-0,-2.392l0.698,0Z" style="fill-rule:nonzero;"/><path d="M754.075,26.827l-0,0.718l-2.412,0.651l-0,1.932l2.412,0.659l-0,0.71l-6.89,-1.924l0,-0.822l6.89,-1.924Zm-3.11,1.565l-2.852,0.772l2.852,0.768l-0,-1.54Z" style="fill-rule:nonzero;"/><path d="M747.185,25.734l0,-1.16c0,-0.771 0.307,-1.388 0.921,-1.853c0.613,-0.465 1.456,-0.697 2.526,-0.697c1.094,0 1.941,0.236 2.542,0.707c0.601,0.472 0.901,1.076 0.901,1.814l-0,1.189l-6.89,-0Zm6.192,-0.684l-0,-0.485c-0,-0.559 -0.243,-1.001 -0.728,-1.327c-0.485,-0.325 -1.157,-0.488 -2.017,-0.488c-0.852,0 -1.524,0.164 -2.014,0.491c-0.49,0.326 -0.735,0.768 -0.735,1.324l0,0.485l5.494,-0Z" style="fill-rule:nonzero;"/></g><path d="M750.63,66.235l-21.541,0" style="fill:none;stroke:#000;stroke-width:1px;stroke-linejoin:miter;"/><path d="M750.63,153.832l-21.896,-0.133" style="fill:none;stroke:#000;stroke-width:1px;stroke-linejoin:miter;"/><path d="M750.63,241.295l-21.896,-0.133" style="fill:none;stroke:#000;stroke-width:1px;stroke-linejoin:miter;"/><path d="M750.63,328.625l-21.896,0" style="fill:none;stroke:#000;stroke-width:1px;stroke-linejoin:miter;"/><g><path d="M27.757,13.094c-1.231,-0.42 -2.398,-0.63 -3.501,-0.63c-1.25,-0 -2.268,0.285 -3.054,0.857c-0.786,0.571 -1.18,1.384 -1.18,2.439c0,1.25 1.031,2.348 3.091,3.296c1.524,0.703 2.532,1.191 3.025,1.464c0.493,0.274 0.994,0.65 1.502,1.128c0.507,0.479 0.915,1.043 1.223,1.692c0.307,0.65 0.461,1.38 0.461,2.19c0,2.012 -0.676,3.572 -2.029,4.68c-1.352,1.109 -2.946,1.663 -4.782,1.663c-1.778,0 -3.335,-0.352 -4.673,-1.055l0.498,-2.065c1.572,0.713 2.944,1.069 4.116,1.069c1.367,0 2.463,-0.354 3.289,-1.062c0.825,-0.708 1.237,-1.682 1.237,-2.922c0,-0.918 -0.268,-1.697 -0.805,-2.337c-0.537,-0.639 -1.529,-1.291 -2.974,-1.955c-1.484,-0.684 -2.444,-1.15 -2.878,-1.399c-0.435,-0.249 -0.867,-0.593 -1.297,-1.033c-0.429,-0.439 -0.761,-0.932 -0.996,-1.479c-0.234,-0.547 -0.351,-1.143 -0.351,-1.787c-0,-1.709 0.615,-3.042 1.845,-3.999c1.231,-0.957 2.788,-1.436 4.673,-1.436c1.377,0 2.744,0.21 4.102,0.63l-0.542,2.051Z" style="fill-rule:nonzero;"/><path d="M47.415,30.789c-1.533,0.703 -3.042,1.055 -4.526,1.055c-2.725,-0 -4.087,-1.441 -4.087,-4.322l-0,-9.331l-2.93,0l0,-1.977l2.93,-0l-0,-4.175l2.226,0l0,4.175l5.186,-0l-0,1.977l-5.186,0l0,8.731c0,0.928 0.205,1.648 0.616,2.16c0.41,0.513 0.966,0.77 1.669,0.77c1.25,-0 2.486,-0.279 3.707,-0.835l0.395,1.772Z" style="fill-rule:nonzero;"/><path d="M59.353,15.848c2.1,-0 3.77,0.732 5.01,2.197c1.24,1.465 1.861,3.393 1.861,5.786c-0,2.412 -0.621,4.355 -1.861,5.83c-1.24,1.475 -2.91,2.212 -5.01,2.212c-2.109,0 -3.781,-0.735 -5.017,-2.205c-1.235,-1.469 -1.853,-3.415 -1.853,-5.837c0,-2.402 0.62,-4.333 1.861,-5.793c1.24,-1.46 2.91,-2.19 5.009,-2.19Zm0,14.033c1.387,-0 2.481,-0.586 3.282,-1.758c0.801,-1.172 1.201,-2.593 1.201,-4.263c-0,-1.757 -0.396,-3.203 -1.187,-4.336c-0.791,-1.132 -1.889,-1.699 -3.296,-1.699c-1.416,0 -2.514,0.559 -3.295,1.677c-0.782,1.119 -1.172,2.571 -1.172,4.358c-0,1.7 0.395,3.128 1.186,4.285c0.791,1.157 1.885,1.736 3.281,1.736Z" style="fill-rule:nonzero;"/><path d="M83.216,30.965c-1.328,0.605 -2.788,0.908 -4.38,0.908c-2.402,0 -4.319,-0.73 -5.75,-2.19c-1.43,-1.46 -2.146,-3.401 -2.146,-5.823c0,-2.422 0.721,-4.362 2.161,-5.822c1.44,-1.46 3.333,-2.19 5.676,-2.19c1.534,-0 2.993,0.268 4.38,0.805l-0.6,1.89c-1.387,-0.479 -2.637,-0.718 -3.75,-0.718c-1.68,0 -3.011,0.542 -3.992,1.626c-0.982,1.084 -1.472,2.554 -1.472,4.409c-0,1.7 0.508,3.128 1.523,4.285c1.016,1.157 2.339,1.736 3.97,1.736c1.289,-0 2.617,-0.249 3.984,-0.747l0.396,1.831Z" style="fill-rule:nonzero;"/><path d="M101.277,31.478l-2.285,-0l0,-9.786c0,-1.357 -0.217,-2.341 -0.652,-2.951c-0.434,-0.611 -1.115,-0.916 -2.043,-0.916c-1.397,0 -2.896,0.869 -4.497,2.608l-0,11.045l-2.285,-0l-0,-20.669l2.285,-0l-0,7.646c1.64,-1.738 3.369,-2.607 5.185,-2.607c2.862,-0 4.292,1.728 4.292,5.185l0,10.445Z" style="fill-rule:nonzero;"/><path d="M27.757,43.094c-1.231,-0.42 -2.398,-0.63 -3.501,-0.63c-1.25,-0 -2.268,0.285 -3.054,0.857c-0.786,0.571 -1.18,1.384 -1.18,2.439c0,1.25 1.031,2.348 3.091,3.296c1.524,0.703 2.532,1.191 3.025,1.464c0.493,0.274 0.994,0.65 1.502,1.128c0.507,0.479 0.915,1.043 1.223,1.692c0.307,0.65 0.461,1.38 0.461,2.19c0,2.012 -0.676,3.572 -2.029,4.68c-1.352,1.109 -2.946,1.663 -4.782,1.663c-1.778,0 -3.335,-0.352 -4.673,-1.055l0.498,-2.065c1.572,0.713 2.944,1.069 4.116,1.069c1.367,0 2.463,-0.354 3.289,-1.062c0.825,-0.708 1.237,-1.682 1.237,-2.922c0,-0.918 -0.268,-1.697 -0.805,-2.337c-0.537,-0.639 -1.529,-1.291 -2.974,-1.955c-1.484,-0.684 -2.444,-1.15 -2.878,-1.399c-0.435,-0.249 -0.867,-0.593 -1.297,-1.033c-0.429,-0.439 -0.761,-0.932 -0.996,-1.479c-0.234,-0.547 -0.351,-1.143 -0.351,-1.787c-0,-1.709 0.615,-3.042 1.845,-3.999c1.231,-0.957 2.788,-1.436 4.673,-1.436c1.377,0 2.744,0.21 4.102,0.63l-0.542,2.051Z" style="fill-rule:nonzero;"/><path d="M47.723,53.919l-10.474,-0c-0,1.728 0.5,3.154 1.501,4.277c1.001,1.123 2.229,1.685 3.685,1.685c1.386,-0 2.817,-0.249 4.292,-0.747l0.395,1.831c-1.348,0.605 -2.92,0.908 -4.717,0.908c-2.265,0 -4.092,-0.728 -5.478,-2.183c-1.387,-1.455 -2.08,-3.418 -2.08,-5.888c-0,-2.422 0.622,-4.353 1.867,-5.794c1.245,-1.44 2.854,-2.16 4.827,-2.16c1.758,-0 3.228,0.669 4.409,2.006c1.182,1.338 1.773,3.121 1.773,5.347l-0,0.718Zm-2.491,-1.86c0,-1.192 -0.371,-2.195 -1.113,-3.011c-0.742,-0.815 -1.572,-1.223 -2.49,-1.223c-1.182,0 -2.161,0.391 -2.937,1.172c-0.776,0.781 -1.209,1.802 -1.297,3.062l7.837,-0Z" style="fill-rule:nonzero;"/><path d="M65.213,67.513l-2.285,-0l-0,-8.233c-0.469,0.752 -1.14,1.372 -2.014,1.861c-0.874,0.488 -1.795,0.732 -2.762,0.732c-1.748,0 -3.13,-0.767 -4.145,-2.3c-1.016,-1.533 -1.524,-3.486 -1.524,-5.859c0,-2.276 0.528,-4.155 1.582,-5.64c1.055,-1.484 2.461,-2.226 4.219,-2.226c1.924,-0 3.472,0.781 4.644,2.343l-0,-1.977l2.285,-0l-0,21.299Zm-2.285,-10.708l-0,-6.343c-1.094,-1.758 -2.412,-2.637 -3.955,-2.637c-1.26,0 -2.256,0.571 -2.989,1.714c-0.732,1.143 -1.098,2.573 -1.098,4.292c-0,1.748 0.344,3.184 1.032,4.307c0.689,1.123 1.634,1.684 2.835,1.684c0.576,0 1.157,-0.156 1.743,-0.469c0.586,-0.312 1.138,-0.781 1.655,-1.406c0.518,-0.625 0.777,-1.006 0.777,-1.142Z" style="fill-rule:nonzero;"/><path d="M84.08,56.702l-2.549,0l0,4.776l-2.402,-0l-0,-4.776l-8.994,0l-0,-1.831l8.159,-14.062l3.237,-0l0,13.798l2.549,0l0,2.095Zm-4.951,-2.095l-0,-11.425l-6.563,11.425l6.563,0Z" style="fill-rule:nonzero;"/></g><path d="M59.668,22.849l2.97,-0l-4.379,6.025l0.78,-4.017l-2.97,0l4.379,-6.025l-0.78,4.017Z"/><g><path d="M211.46,23.399l1.253,-0l0,-4.2l-1.277,0.894l-0.312,-0.455l1.757,-1.253l0.447,-0l-0,5.014l1.23,-0l-0,0.575l-3.098,-0l-0,-0.575Z" style="fill:#fff;fill-rule:nonzero;"/><path d="M215.675,21.179c0,-0.452 0.04,-0.858 0.12,-1.217c0.08,-0.36 0.2,-0.663 0.359,-0.911c0.16,-0.247 0.362,-0.436 0.607,-0.567c0.245,-0.13 0.535,-0.195 0.87,-0.195c0.357,-0 0.659,0.064 0.907,0.191c0.247,0.128 0.448,0.315 0.602,0.559c0.155,0.245 0.267,0.547 0.336,0.907c0.069,0.359 0.104,0.77 0.104,1.233c-0,0.453 -0.04,0.858 -0.12,1.218c-0.08,0.359 -0.2,0.662 -0.359,0.91c-0.16,0.247 -0.362,0.436 -0.607,0.567c-0.245,0.13 -0.535,0.195 -0.871,0.195c-0.351,0 -0.65,-0.07 -0.898,-0.211c-0.247,-0.141 -0.45,-0.339 -0.607,-0.595c-0.157,-0.255 -0.27,-0.56 -0.339,-0.914c-0.069,-0.354 -0.104,-0.744 -0.104,-1.17Zm3.25,0c-0,-0.282 -0.016,-0.551 -0.048,-0.806l-2.371,2.163c0.09,0.304 0.226,0.546 0.407,0.727c0.181,0.181 0.418,0.271 0.71,0.271c0.469,0 0.803,-0.194 1.002,-0.582c0.2,-0.389 0.3,-0.98 0.3,-1.773Zm-2.587,0c-0,0.133 0.004,0.261 0.012,0.383c0.008,0.123 0.017,0.243 0.028,0.36l2.379,-2.156c-0.09,-0.287 -0.225,-0.516 -0.403,-0.687c-0.178,-0.17 -0.419,-0.255 -0.723,-0.255c-0.473,-0 -0.807,0.195 -1.002,0.587c-0.194,0.391 -0.291,0.98 -0.291,1.768Z" style="fill:#fff;fill-rule:nonzero;"/><path d="M220.466,21.179c-0,-0.452 0.04,-0.858 0.12,-1.217c0.079,-0.36 0.199,-0.663 0.359,-0.911c0.16,-0.247 0.362,-0.436 0.607,-0.567c0.244,-0.13 0.535,-0.195 0.87,-0.195c0.357,-0 0.659,0.064 0.906,0.191c0.248,0.128 0.449,0.315 0.603,0.559c0.154,0.245 0.266,0.547 0.335,0.907c0.069,0.359 0.104,0.77 0.104,1.233c0,0.453 -0.04,0.858 -0.12,1.218c-0.08,0.359 -0.199,0.662 -0.359,0.91c-0.16,0.247 -0.362,0.436 -0.607,0.567c-0.245,0.13 -0.535,0.195 -0.87,0.195c-0.351,0 -0.651,-0.07 -0.898,-0.211c-0.248,-0.141 -0.45,-0.339 -0.607,-0.595c-0.157,-0.255 -0.27,-0.56 -0.339,-0.914c-0.07,-0.354 -0.104,-0.744 -0.104,-1.17Zm3.249,0c0,-0.282 -0.016,-0.551 -0.048,-0.806l-2.371,2.163c0.091,0.304 0.226,0.546 0.407,0.727c0.181,0.181 0.418,0.271 0.711,0.271c0.468,0 0.802,-0.194 1.002,-0.582c0.2,-0.389 0.299,-0.98 0.299,-1.773Zm-2.587,0c0,0.133 0.004,0.261 0.012,0.383c0.008,0.123 0.018,0.243 0.028,0.36l2.38,-2.156c-0.091,-0.287 -0.225,-0.516 -0.404,-0.687c-0.178,-0.17 -0.419,-0.255 -0.722,-0.255c-0.474,-0 -0.808,0.195 -1.002,0.587c-0.194,0.391 -0.292,0.98 -0.292,1.768Z" style="fill:#fff;fill-rule:nonzero;"/><path d="M225.041,19.646c-0,-0.25 0.03,-0.462 0.092,-0.635c0.061,-0.173 0.139,-0.312 0.235,-0.419c0.096,-0.106 0.205,-0.183 0.327,-0.231c0.123,-0.048 0.245,-0.072 0.368,-0.072c0.122,-0 0.245,0.021 0.367,0.064c0.122,0.042 0.232,0.116 0.327,0.219c0.096,0.104 0.175,0.243 0.236,0.415c0.061,0.173 0.092,0.393 0.092,0.659c-0,0.261 -0.031,0.478 -0.092,0.651c-0.061,0.173 -0.14,0.311 -0.236,0.415c-0.095,0.104 -0.205,0.177 -0.327,0.22c-0.122,0.042 -0.245,0.064 -0.367,0.064c-0.123,-0 -0.245,-0.022 -0.368,-0.064c-0.122,-0.043 -0.231,-0.116 -0.327,-0.22c-0.096,-0.104 -0.174,-0.242 -0.235,-0.415c-0.062,-0.173 -0.092,-0.39 -0.092,-0.651Zm0.559,0c-0,0.314 0.049,0.534 0.147,0.659c0.099,0.125 0.204,0.188 0.316,0.188c0.058,-0 0.115,-0.012 0.171,-0.036c0.056,-0.024 0.105,-0.068 0.148,-0.132c0.043,-0.064 0.077,-0.151 0.104,-0.26c0.026,-0.109 0.04,-0.248 0.04,-0.419c-0,-0.165 -0.014,-0.302 -0.04,-0.411c-0.027,-0.109 -0.061,-0.197 -0.104,-0.263c-0.043,-0.067 -0.092,-0.114 -0.148,-0.14c-0.056,-0.027 -0.113,-0.04 -0.171,-0.04c-0.123,-0 -0.23,0.062 -0.324,0.188c-0.093,0.125 -0.139,0.347 -0.139,0.666Zm1.732,2.978c0,-0.25 0.031,-0.461 0.092,-0.634c0.061,-0.173 0.14,-0.313 0.236,-0.42c0.095,-0.106 0.204,-0.183 0.327,-0.231c0.122,-0.048 0.245,-0.072 0.367,-0.072c0.123,-0 0.245,0.021 0.367,0.064c0.123,0.042 0.232,0.116 0.328,0.219c0.096,0.104 0.174,0.243 0.235,0.416c0.062,0.173 0.092,0.392 0.092,0.658c0,0.261 -0.03,0.478 -0.092,0.651c-0.061,0.173 -0.139,0.311 -0.235,0.415c-0.096,0.104 -0.205,0.177 -0.328,0.22c-0.122,0.042 -0.244,0.064 -0.367,0.064c-0.122,-0 -0.245,-0.022 -0.367,-0.064c-0.123,-0.043 -0.232,-0.116 -0.327,-0.22c-0.096,-0.104 -0.175,-0.242 -0.236,-0.415c-0.061,-0.173 -0.092,-0.39 -0.092,-0.651Zm0.559,0c0,0.314 0.049,0.534 0.148,0.659c0.098,0.125 0.203,0.188 0.315,0.188c0.059,-0 0.116,-0.011 0.172,-0.032c0.056,-0.022 0.105,-0.063 0.148,-0.124c0.042,-0.061 0.077,-0.148 0.103,-0.26c0.027,-0.111 0.04,-0.255 0.04,-0.431c0,-0.165 -0.013,-0.302 -0.04,-0.411c-0.026,-0.109 -0.061,-0.197 -0.103,-0.263c-0.043,-0.067 -0.092,-0.113 -0.148,-0.14c-0.056,-0.027 -0.113,-0.04 -0.172,-0.04c-0.058,-0 -0.116,0.013 -0.171,0.04c-0.056,0.027 -0.106,0.072 -0.148,0.136c-0.043,0.064 -0.077,0.15 -0.104,0.259c-0.027,0.109 -0.04,0.249 -0.04,0.419Zm0.455,-4.383l0.455,0.232l-2.778,5.612l-0.455,-0.207l2.778,-5.637Z" style="fill:#fff;fill-rule:nonzero;"/></g><g><path d="M211.46,110.862l1.253,0l0,-4.2l-1.277,0.895l-0.312,-0.456l1.757,-1.253l0.447,-0l-0,5.014l1.23,0l-0,0.575l-3.098,-0l-0,-0.575Z" style="fill:#fff;fill-rule:nonzero;"/><path d="M215.675,108.642c0,-0.452 0.04,-0.858 0.12,-1.217c0.08,-0.359 0.2,-0.663 0.359,-0.91c0.16,-0.248 0.362,-0.437 0.607,-0.567c0.245,-0.131 0.535,-0.196 0.87,-0.196c0.357,0 0.659,0.064 0.907,0.192c0.247,0.128 0.448,0.314 0.602,0.559c0.155,0.245 0.267,0.547 0.336,0.906c0.069,0.359 0.104,0.77 0.104,1.233c-0,0.453 -0.04,0.859 -0.12,1.218c-0.08,0.359 -0.2,0.663 -0.359,0.91c-0.16,0.248 -0.362,0.437 -0.607,0.567c-0.245,0.131 -0.535,0.196 -0.871,0.196c-0.351,-0 -0.65,-0.071 -0.898,-0.212c-0.247,-0.141 -0.45,-0.339 -0.607,-0.595c-0.157,-0.255 -0.27,-0.56 -0.339,-0.914c-0.069,-0.354 -0.104,-0.744 -0.104,-1.17Zm3.25,0c-0,-0.282 -0.016,-0.55 -0.048,-0.806l-2.371,2.164c0.09,0.303 0.226,0.545 0.407,0.726c0.181,0.181 0.418,0.272 0.71,0.272c0.469,-0 0.803,-0.195 1.002,-0.583c0.2,-0.389 0.3,-0.979 0.3,-1.773Zm-2.587,0c-0,0.133 0.004,0.261 0.012,0.384c0.008,0.122 0.017,0.242 0.028,0.359l2.379,-2.156c-0.09,-0.287 -0.225,-0.516 -0.403,-0.686c-0.178,-0.171 -0.419,-0.256 -0.723,-0.256c-0.473,0 -0.807,0.196 -1.002,0.587c-0.194,0.391 -0.291,0.981 -0.291,1.768Z" style="fill:#fff;fill-rule:nonzero;"/><path d="M220.466,108.642c-0,-0.452 0.04,-0.858 0.12,-1.217c0.079,-0.359 0.199,-0.663 0.359,-0.91c0.16,-0.248 0.362,-0.437 0.607,-0.567c0.244,-0.131 0.535,-0.196 0.87,-0.196c0.357,0 0.659,0.064 0.906,0.192c0.248,0.128 0.449,0.314 0.603,0.559c0.154,0.245 0.266,0.547 0.335,0.906c0.069,0.359 0.104,0.77 0.104,1.233c0,0.453 -0.04,0.859 -0.12,1.218c-0.08,0.359 -0.199,0.663 -0.359,0.91c-0.16,0.248 -0.362,0.437 -0.607,0.567c-0.245,0.131 -0.535,0.196 -0.87,0.196c-0.351,-0 -0.651,-0.071 -0.898,-0.212c-0.248,-0.141 -0.45,-0.339 -0.607,-0.595c-0.157,-0.255 -0.27,-0.56 -0.339,-0.914c-0.07,-0.354 -0.104,-0.744 -0.104,-1.17Zm3.249,0c0,-0.282 -0.016,-0.55 -0.048,-0.806l-2.371,2.164c0.091,0.303 0.226,0.545 0.407,0.726c0.181,0.181 0.418,0.272 0.711,0.272c0.468,-0 0.802,-0.195 1.002,-0.583c0.2,-0.389 0.299,-0.979 0.299,-1.773Zm-2.587,0c0,0.133 0.004,0.261 0.012,0.384c0.008,0.122 0.018,0.242 0.028,0.359l2.38,-2.156c-0.091,-0.287 -0.225,-0.516 -0.404,-0.686c-0.178,-0.171 -0.419,-0.256 -0.722,-0.256c-0.474,0 -0.808,0.196 -1.002,0.587c-0.194,0.391 -0.292,0.981 -0.292,1.768Z" style="fill:#fff;fill-rule:nonzero;"/><path d="M225.041,107.109c-0,-0.25 0.03,-0.461 0.092,-0.634c0.061,-0.173 0.139,-0.313 0.235,-0.419c0.096,-0.107 0.205,-0.184 0.327,-0.232c0.123,-0.048 0.245,-0.072 0.368,-0.072c0.122,0 0.245,0.021 0.367,0.064c0.122,0.043 0.232,0.116 0.327,0.22c0.096,0.103 0.175,0.242 0.236,0.415c0.061,0.173 0.092,0.392 0.092,0.658c-0,0.261 -0.031,0.478 -0.092,0.651c-0.061,0.173 -0.14,0.312 -0.236,0.415c-0.095,0.104 -0.205,0.177 -0.327,0.22c-0.122,0.043 -0.245,0.064 -0.367,0.064c-0.123,-0 -0.245,-0.021 -0.368,-0.064c-0.122,-0.043 -0.231,-0.116 -0.327,-0.22c-0.096,-0.103 -0.174,-0.242 -0.235,-0.415c-0.062,-0.173 -0.092,-0.39 -0.092,-0.651Zm0.559,0c-0,0.315 0.049,0.534 0.147,0.659c0.099,0.125 0.204,0.188 0.316,0.188c0.058,-0 0.115,-0.012 0.171,-0.036c0.056,-0.024 0.105,-0.068 0.148,-0.132c0.043,-0.064 0.077,-0.15 0.104,-0.259c0.026,-0.109 0.04,-0.249 0.04,-0.42c-0,-0.165 -0.014,-0.302 -0.04,-0.411c-0.027,-0.109 -0.061,-0.197 -0.104,-0.263c-0.043,-0.067 -0.092,-0.113 -0.148,-0.14c-0.056,-0.027 -0.113,-0.04 -0.171,-0.04c-0.123,0 -0.23,0.063 -0.324,0.188c-0.093,0.125 -0.139,0.347 -0.139,0.666Zm1.732,2.979c0,-0.251 0.031,-0.462 0.092,-0.635c0.061,-0.173 0.14,-0.313 0.236,-0.419c0.095,-0.107 0.204,-0.184 0.327,-0.232c0.122,-0.048 0.245,-0.072 0.367,-0.072c0.123,0 0.245,0.022 0.367,0.064c0.123,0.043 0.232,0.116 0.328,0.22c0.096,0.103 0.174,0.242 0.235,0.415c0.062,0.173 0.092,0.392 0.092,0.659c0,0.26 -0.03,0.477 -0.092,0.65c-0.061,0.173 -0.139,0.312 -0.235,0.415c-0.096,0.104 -0.205,0.177 -0.328,0.22c-0.122,0.043 -0.244,0.064 -0.367,0.064c-0.122,-0 -0.245,-0.021 -0.367,-0.064c-0.123,-0.043 -0.232,-0.116 -0.327,-0.22c-0.096,-0.103 -0.175,-0.242 -0.236,-0.415c-0.061,-0.173 -0.092,-0.39 -0.092,-0.65Zm0.559,-0c0,0.314 0.049,0.533 0.148,0.658c0.098,0.125 0.203,0.188 0.315,0.188c0.059,-0 0.116,-0.011 0.172,-0.032c0.056,-0.021 0.105,-0.063 0.148,-0.124c0.042,-0.061 0.077,-0.148 0.103,-0.259c0.027,-0.112 0.04,-0.256 0.04,-0.431c0,-0.165 -0.013,-0.303 -0.04,-0.412c-0.026,-0.109 -0.061,-0.197 -0.103,-0.263c-0.043,-0.067 -0.092,-0.113 -0.148,-0.14c-0.056,-0.026 -0.113,-0.04 -0.172,-0.04c-0.058,0 -0.116,0.014 -0.171,0.04c-0.056,0.027 -0.106,0.072 -0.148,0.136c-0.043,0.064 -0.077,0.15 -0.104,0.259c-0.027,0.11 -0.04,0.249 -0.04,0.42Zm0.455,-4.384l0.455,0.232l-2.778,5.613l-0.455,-0.208l2.778,-5.637Z" style="fill:#fff;fill-rule:nonzero;"/></g><g><path d="M211.46,198.325l1.253,0l0,-4.199l-1.277,0.894l-0.312,-0.455l1.757,-1.254l0.447,0l-0,5.014l1.23,0l-0,0.575l-3.098,0l-0,-0.575Z" style="fill:#fff;fill-rule:nonzero;"/><path d="M215.675,196.106c0,-0.453 0.04,-0.859 0.12,-1.218c0.08,-0.359 0.2,-0.663 0.359,-0.91c0.16,-0.248 0.362,-0.437 0.607,-0.567c0.245,-0.13 0.535,-0.196 0.87,-0.196c0.357,0 0.659,0.064 0.907,0.192c0.247,0.128 0.448,0.314 0.602,0.559c0.155,0.245 0.267,0.547 0.336,0.906c0.069,0.359 0.104,0.771 0.104,1.234c-0,0.452 -0.04,0.858 -0.12,1.217c-0.08,0.36 -0.2,0.663 -0.359,0.91c-0.16,0.248 -0.362,0.437 -0.607,0.567c-0.245,0.131 -0.535,0.196 -0.871,0.196c-0.351,-0 -0.65,-0.071 -0.898,-0.212c-0.247,-0.141 -0.45,-0.339 -0.607,-0.594c-0.157,-0.256 -0.27,-0.561 -0.339,-0.915c-0.069,-0.354 -0.104,-0.743 -0.104,-1.169Zm3.25,-0c-0,-0.282 -0.016,-0.551 -0.048,-0.807l-2.371,2.164c0.09,0.303 0.226,0.546 0.407,0.727c0.181,0.181 0.418,0.271 0.71,0.271c0.469,0 0.803,-0.194 1.002,-0.583c0.2,-0.388 0.3,-0.979 0.3,-1.772Zm-2.587,-0c-0,0.133 0.004,0.261 0.012,0.383c0.008,0.122 0.017,0.242 0.028,0.359l2.379,-2.155c-0.09,-0.288 -0.225,-0.517 -0.403,-0.687c-0.178,-0.17 -0.419,-0.256 -0.723,-0.256c-0.473,0 -0.807,0.196 -1.002,0.587c-0.194,0.391 -0.291,0.981 -0.291,1.769Z" style="fill:#fff;fill-rule:nonzero;"/><path d="M220.466,196.106c-0,-0.453 0.04,-0.859 0.12,-1.218c0.079,-0.359 0.199,-0.663 0.359,-0.91c0.16,-0.248 0.362,-0.437 0.607,-0.567c0.244,-0.13 0.535,-0.196 0.87,-0.196c0.357,0 0.659,0.064 0.906,0.192c0.248,0.128 0.449,0.314 0.603,0.559c0.154,0.245 0.266,0.547 0.335,0.906c0.069,0.359 0.104,0.771 0.104,1.234c0,0.452 -0.04,0.858 -0.12,1.217c-0.08,0.36 -0.199,0.663 -0.359,0.91c-0.16,0.248 -0.362,0.437 -0.607,0.567c-0.245,0.131 -0.535,0.196 -0.87,0.196c-0.351,-0 -0.651,-0.071 -0.898,-0.212c-0.248,-0.141 -0.45,-0.339 -0.607,-0.594c-0.157,-0.256 -0.27,-0.561 -0.339,-0.915c-0.07,-0.354 -0.104,-0.743 -0.104,-1.169Zm3.249,-0c0,-0.282 -0.016,-0.551 -0.048,-0.807l-2.371,2.164c0.091,0.303 0.226,0.546 0.407,0.727c0.181,0.181 0.418,0.271 0.711,0.271c0.468,0 0.802,-0.194 1.002,-0.583c0.2,-0.388 0.299,-0.979 0.299,-1.772Zm-2.587,-0c0,0.133 0.004,0.261 0.012,0.383c0.008,0.122 0.018,0.242 0.028,0.359l2.38,-2.155c-0.091,-0.288 -0.225,-0.517 -0.404,-0.687c-0.178,-0.17 -0.419,-0.256 -0.722,-0.256c-0.474,0 -0.808,0.196 -1.002,0.587c-0.194,0.391 -0.292,0.981 -0.292,1.769Z" style="fill:#fff;fill-rule:nonzero;"/><path d="M225.041,194.573c-0,-0.25 0.03,-0.462 0.092,-0.635c0.061,-0.173 0.139,-0.313 0.235,-0.419c0.096,-0.107 0.205,-0.184 0.327,-0.232c0.123,-0.048 0.245,-0.072 0.368,-0.072c0.122,0 0.245,0.022 0.367,0.064c0.122,0.043 0.232,0.116 0.327,0.22c0.096,0.104 0.175,0.242 0.236,0.415c0.061,0.173 0.092,0.393 0.092,0.659c-0,0.261 -0.031,0.477 -0.092,0.65c-0.061,0.173 -0.14,0.312 -0.236,0.416c-0.095,0.103 -0.205,0.177 -0.327,0.219c-0.122,0.043 -0.245,0.064 -0.367,0.064c-0.123,0 -0.245,-0.021 -0.368,-0.064c-0.122,-0.042 -0.231,-0.116 -0.327,-0.219c-0.096,-0.104 -0.174,-0.243 -0.235,-0.416c-0.062,-0.173 -0.092,-0.389 -0.092,-0.65Zm0.559,-0c-0,0.314 0.049,0.533 0.147,0.658c0.099,0.126 0.204,0.188 0.316,0.188c0.058,0 0.115,-0.012 0.171,-0.036c0.056,-0.024 0.105,-0.068 0.148,-0.132c0.043,-0.063 0.077,-0.15 0.104,-0.259c0.026,-0.109 0.04,-0.249 0.04,-0.419c-0,-0.165 -0.014,-0.302 -0.04,-0.411c-0.027,-0.11 -0.061,-0.197 -0.104,-0.264c-0.043,-0.066 -0.092,-0.113 -0.148,-0.14c-0.056,-0.026 -0.113,-0.04 -0.171,-0.04c-0.123,0 -0.23,0.063 -0.324,0.188c-0.093,0.125 -0.139,0.347 -0.139,0.667Zm1.732,2.978c0,-0.25 0.031,-0.462 0.092,-0.635c0.061,-0.173 0.14,-0.313 0.236,-0.419c0.095,-0.107 0.204,-0.184 0.327,-0.232c0.122,-0.048 0.245,-0.071 0.367,-0.071c0.123,-0 0.245,0.021 0.367,0.063c0.123,0.043 0.232,0.116 0.328,0.22c0.096,0.104 0.174,0.242 0.235,0.415c0.062,0.173 0.092,0.393 0.092,0.659c0,0.261 -0.03,0.478 -0.092,0.651c-0.061,0.173 -0.139,0.311 -0.235,0.415c-0.096,0.104 -0.205,0.177 -0.328,0.219c-0.122,0.043 -0.244,0.064 -0.367,0.064c-0.122,0 -0.245,-0.021 -0.367,-0.064c-0.123,-0.042 -0.232,-0.115 -0.327,-0.219c-0.096,-0.104 -0.175,-0.242 -0.236,-0.415c-0.061,-0.173 -0.092,-0.39 -0.092,-0.651Zm0.559,-0c0,0.314 0.049,0.533 0.148,0.659c0.098,0.125 0.203,0.187 0.315,0.187c0.059,0 0.116,-0.01 0.172,-0.032c0.056,-0.021 0.105,-0.062 0.148,-0.124c0.042,-0.061 0.077,-0.147 0.103,-0.259c0.027,-0.112 0.04,-0.256 0.04,-0.431c0,-0.165 -0.013,-0.302 -0.04,-0.411c-0.026,-0.109 -0.061,-0.197 -0.103,-0.264c-0.043,-0.066 -0.092,-0.113 -0.148,-0.14c-0.056,-0.026 -0.113,-0.039 -0.172,-0.039c-0.058,-0 -0.116,0.013 -0.171,0.039c-0.056,0.027 -0.106,0.072 -0.148,0.136c-0.043,0.064 -0.077,0.151 -0.104,0.26c-0.027,0.109 -0.04,0.249 -0.04,0.419Zm0.455,-4.383l0.455,0.231l-2.778,5.613l-0.455,-0.208l2.778,-5.636Z" style="fill:#fff;fill-rule:nonzero;"/></g><g><path d="M211.46,285.789l1.253,-0l0,-4.2l-1.277,0.894l-0.312,-0.455l1.757,-1.253l0.447,-0l-0,5.014l1.23,-0l-0,0.574l-3.098,0l-0,-0.574Z" style="fill:#fff;fill-rule:nonzero;"/><path d="M215.675,283.569c0,-0.452 0.04,-0.858 0.12,-1.218c0.08,-0.359 0.2,-0.662 0.359,-0.91c0.16,-0.247 0.362,-0.436 0.607,-0.567c0.245,-0.13 0.535,-0.195 0.87,-0.195c0.357,-0 0.659,0.064 0.907,0.191c0.247,0.128 0.448,0.314 0.602,0.559c0.155,0.245 0.267,0.547 0.336,0.906c0.069,0.36 0.104,0.771 0.104,1.234c-0,0.452 -0.04,0.858 -0.12,1.218c-0.08,0.359 -0.2,0.662 -0.359,0.91c-0.16,0.247 -0.362,0.436 -0.607,0.567c-0.245,0.13 -0.535,0.195 -0.871,0.195c-0.351,0 -0.65,-0.07 -0.898,-0.211c-0.247,-0.141 -0.45,-0.34 -0.607,-0.595c-0.157,-0.256 -0.27,-0.56 -0.339,-0.914c-0.069,-0.354 -0.104,-0.744 -0.104,-1.17Zm3.25,-0c-0,-0.282 -0.016,-0.551 -0.048,-0.806l-2.371,2.163c0.09,0.304 0.226,0.546 0.407,0.727c0.181,0.181 0.418,0.271 0.71,0.271c0.469,0 0.803,-0.194 1.002,-0.583c0.2,-0.388 0.3,-0.979 0.3,-1.772Zm-2.587,-0c-0,0.133 0.004,0.261 0.012,0.383c0.008,0.123 0.017,0.242 0.028,0.36l2.379,-2.156c-0.09,-0.288 -0.225,-0.517 -0.403,-0.687c-0.178,-0.17 -0.419,-0.255 -0.723,-0.255c-0.473,-0 -0.807,0.195 -1.002,0.586c-0.194,0.392 -0.291,0.981 -0.291,1.769Z" style="fill:#fff;fill-rule:nonzero;"/><path d="M220.466,283.569c-0,-0.452 0.04,-0.858 0.12,-1.218c0.079,-0.359 0.199,-0.662 0.359,-0.91c0.16,-0.247 0.362,-0.436 0.607,-0.567c0.244,-0.13 0.535,-0.195 0.87,-0.195c0.357,-0 0.659,0.064 0.906,0.191c0.248,0.128 0.449,0.314 0.603,0.559c0.154,0.245 0.266,0.547 0.335,0.906c0.069,0.36 0.104,0.771 0.104,1.234c0,0.452 -0.04,0.858 -0.12,1.218c-0.08,0.359 -0.199,0.662 -0.359,0.91c-0.16,0.247 -0.362,0.436 -0.607,0.567c-0.245,0.13 -0.535,0.195 -0.87,0.195c-0.351,0 -0.651,-0.07 -0.898,-0.211c-0.248,-0.141 -0.45,-0.34 -0.607,-0.595c-0.157,-0.256 -0.27,-0.56 -0.339,-0.914c-0.07,-0.354 -0.104,-0.744 -0.104,-1.17Zm3.249,-0c0,-0.282 -0.016,-0.551 -0.048,-0.806l-2.371,2.163c0.091,0.304 0.226,0.546 0.407,0.727c0.181,0.181 0.418,0.271 0.711,0.271c0.468,0 0.802,-0.194 1.002,-0.583c0.2,-0.388 0.299,-0.979 0.299,-1.772Zm-2.587,-0c0,0.133 0.004,0.261 0.012,0.383c0.008,0.123 0.018,0.242 0.028,0.36l2.38,-2.156c-0.091,-0.288 -0.225,-0.517 -0.404,-0.687c-0.178,-0.17 -0.419,-0.255 -0.722,-0.255c-0.474,-0 -0.808,0.195 -1.002,0.586c-0.194,0.392 -0.292,0.981 -0.292,1.769Z" style="fill:#fff;fill-rule:nonzero;"/><path d="M225.041,282.036c-0,-0.25 0.03,-0.462 0.092,-0.635c0.061,-0.173 0.139,-0.312 0.235,-0.419c0.096,-0.106 0.205,-0.184 0.327,-0.231c0.123,-0.048 0.245,-0.072 0.368,-0.072c0.122,-0 0.245,0.021 0.367,0.064c0.122,0.042 0.232,0.115 0.327,0.219c0.096,0.104 0.175,0.242 0.236,0.415c0.061,0.173 0.092,0.393 0.092,0.659c-0,0.261 -0.031,0.478 -0.092,0.651c-0.061,0.173 -0.14,0.311 -0.236,0.415c-0.095,0.104 -0.205,0.177 -0.327,0.219c-0.122,0.043 -0.245,0.064 -0.367,0.064c-0.123,0 -0.245,-0.021 -0.368,-0.064c-0.122,-0.042 -0.231,-0.115 -0.327,-0.219c-0.096,-0.104 -0.174,-0.242 -0.235,-0.415c-0.062,-0.173 -0.092,-0.39 -0.092,-0.651Zm0.559,0c-0,0.314 0.049,0.534 0.147,0.659c0.099,0.125 0.204,0.187 0.316,0.187c0.058,0 0.115,-0.012 0.171,-0.036c0.056,-0.024 0.105,-0.067 0.148,-0.131c0.043,-0.064 0.077,-0.151 0.104,-0.26c0.026,-0.109 0.04,-0.249 0.04,-0.419c-0,-0.165 -0.014,-0.302 -0.04,-0.411c-0.027,-0.109 -0.061,-0.197 -0.104,-0.264c-0.043,-0.066 -0.092,-0.113 -0.148,-0.139c-0.056,-0.027 -0.113,-0.04 -0.171,-0.04c-0.123,-0 -0.23,0.062 -0.324,0.187c-0.093,0.125 -0.139,0.348 -0.139,0.667Zm1.732,2.978c0,-0.25 0.031,-0.462 0.092,-0.635c0.061,-0.173 0.14,-0.312 0.236,-0.419c0.095,-0.106 0.204,-0.183 0.327,-0.231c0.122,-0.048 0.245,-0.072 0.367,-0.072c0.123,-0 0.245,0.021 0.367,0.064c0.123,0.042 0.232,0.115 0.328,0.219c0.096,0.104 0.174,0.242 0.235,0.415c0.062,0.173 0.092,0.393 0.092,0.659c0,0.261 -0.03,0.478 -0.092,0.651c-0.061,0.173 -0.139,0.311 -0.235,0.415c-0.096,0.104 -0.205,0.177 -0.328,0.22c-0.122,0.042 -0.244,0.063 -0.367,0.063c-0.122,0 -0.245,-0.021 -0.367,-0.063c-0.123,-0.043 -0.232,-0.116 -0.327,-0.22c-0.096,-0.104 -0.175,-0.242 -0.236,-0.415c-0.061,-0.173 -0.092,-0.39 -0.092,-0.651Zm0.559,0c0,0.314 0.049,0.534 0.148,0.659c0.098,0.125 0.203,0.187 0.315,0.187c0.059,0 0.116,-0.01 0.172,-0.031c0.056,-0.022 0.105,-0.063 0.148,-0.124c0.042,-0.061 0.077,-0.148 0.103,-0.26c0.027,-0.112 0.04,-0.255 0.04,-0.431c0,-0.165 -0.013,-0.302 -0.04,-0.411c-0.026,-0.109 -0.061,-0.197 -0.103,-0.264c-0.043,-0.066 -0.092,-0.113 -0.148,-0.139c-0.056,-0.027 -0.113,-0.04 -0.172,-0.04c-0.058,-0 -0.116,0.013 -0.171,0.04c-0.056,0.026 -0.106,0.072 -0.148,0.135c-0.043,0.064 -0.077,0.151 -0.104,0.26c-0.027,0.109 -0.04,0.249 -0.04,0.419Zm0.455,-4.383l0.455,0.231l-2.778,5.613l-0.455,-0.207l2.778,-5.637Z" style="fill:#fff;fill-rule:nonzero;"/></g><text x="210.446px" y="18.129px" style="font-family:'PTMono-Regular', 'PT Mono', monospace;font-size:7.984px;">100%</text><g><path d="M141.615,47.938l-0.771,0l-0,-5.908l-1.04,2.827l-0.757,0l-1.04,-2.827l-0,5.908l-0.772,0l0,-6.889l1.04,-0l1.153,3.139l1.147,-3.139l1.04,-0l0,6.889Z" style="fill-rule:nonzero;"/><path d="M147.626,47.509c-0.54,0.374 -1.167,0.561 -1.88,0.561c-0.892,0 -1.57,-0.306 -2.034,-0.918c-0.464,-0.612 -0.695,-1.497 -0.695,-2.656c-0,-1.12 0.224,-1.996 0.673,-2.629c0.45,-0.634 1.135,-0.95 2.056,-0.95c0.332,-0 0.661,0.042 0.986,0.127c0.326,0.084 0.588,0.197 0.787,0.337l-0.264,0.63c-0.459,-0.261 -0.962,-0.391 -1.509,-0.391c-0.635,-0 -1.107,0.23 -1.416,0.691c-0.309,0.461 -0.464,1.189 -0.464,2.185c0,1.914 0.627,2.871 1.88,2.871c0.531,0 1.074,-0.163 1.631,-0.488l0.249,0.63Z" style="fill-rule:nonzero;"/><path d="M153.397,47.938l-3.75,0l0,-6.889l0.801,-0l0,6.191l2.949,0l0,0.698Z" style="fill-rule:nonzero;"/><path d="M160.287,47.938l-1.011,0l-2.329,-3.379l-0.727,0.791l-0,2.588l-0.801,0l-0,-6.889l0.801,-0l-0,3.3l3.056,-3.3l0.923,-0l-2.69,2.91l2.778,3.979Z" style="fill-rule:nonzero;"/></g><path d="M26.314,321.107l-0,28.506" style="fill:none;stroke:#000;stroke-width:1px;stroke-linecap:round;"/><g id="logo"><g><circle cx="177.683" cy="343.439" r="1.627" style="fill:#8000db;"/><path d="M177.683,343.439l5.554,-0" style="fill:none;stroke:#8000db;stroke-width:1.35px;stroke-linecap:butt;stroke-linejoin:miter;"/><path d="M183.237,340.658c-0,-1.532 -1.245,-2.777 -2.777,-2.777l-5.554,0c-1.533,0 -2.777,1.245 -2.777,2.777l-0,5.561c-0,1.533 1.244,2.777 2.777,2.777l5.554,-0c1.532,-0 2.777,-1.244 2.777,-2.777l-0,-5.561Z" style="fill:none;stroke:#8000db;stroke-width:1.35px;stroke-linecap:butt;stroke-miterlimit:3;"/></g><g><circle cx="190.281" cy="355.556" r="1.627" style="fill:#f00;"/><path d="M193.058,349.998l-5.554,0c-1.533,0 -2.777,0.802 -2.777,1.79l-0,7.535c-0,0.988 1.244,1.79 2.777,1.79l5.554,-0c1.532,-0 2.777,-0.802 2.777,-1.79l-0,-3.767l-5.554,-0" style="fill:none;stroke:#f00;stroke-width:1.35px;stroke-linecap:round;stroke-miterlimit:3;"/></g><g><circle cx="190.281" cy="343.439" r="1.627" style="fill:#2600ff;"/><path d="M195.835,348.996l-0,-8.982c-0,-1.177 -1.245,-2.133 -2.777,-2.133l-5.554,0c-1.533,0 -2.777,0.956 -2.777,2.133l-0,8.982" style="fill:none;stroke:#2600ff;stroke-width:1.35px;stroke-linecap:round;stroke-miterlimit:3;"/></g><g><circle cx="177.679" cy="355.556" r="1.627" style="fill:#0ef;"/><path d="M172.122,361.113l0,-11.115l11.115,11.115l-0,-11.115" style="fill:none;stroke:#0ef;stroke-width:1.35px;stroke-linecap:round;"/></g></g><g><path d="M12.447,296.814l1.748,0c0.661,0 1.19,0.166 1.587,0.499c0.397,0.332 0.595,0.789 0.595,1.372c0,0.586 -0.197,1.053 -0.593,1.403c-0.395,0.35 -0.914,0.525 -1.555,0.525l-0.981,0l-0,3.091l-0.801,0l-0,-6.89Zm0.801,3.101l0.869,0c0.94,0 1.411,-0.394 1.411,-1.182c-0,-0.364 -0.128,-0.659 -0.383,-0.883c-0.256,-0.225 -0.586,-0.337 -0.989,-0.337l-0.908,-0l-0,2.402Z" style="fill-rule:nonzero;"/><path d="M21.729,303.704l-3.13,0l0,-0.698l1.187,-0l-0,-5.493l-1.187,-0l0,-0.699l3.13,0l-0,0.699l-1.143,-0l0,5.493l1.143,-0l-0,0.698Z" style="fill-rule:nonzero;"/><path d="M28.731,297.464l-2.124,-0l-0,6.24l-0.796,0l0,-6.24l-2.134,-0l0,-0.65l5.054,0l-0,0.65Z" style="fill-rule:nonzero;"/><path d="M34.429,303.274c-0.54,0.375 -1.167,0.562 -1.88,0.562c-0.892,-0 -1.57,-0.306 -2.033,-0.918c-0.464,-0.612 -0.696,-1.497 -0.696,-2.656c-0,-1.12 0.224,-1.997 0.674,-2.63c0.449,-0.633 1.134,-0.949 2.055,-0.949c0.332,-0 0.661,0.042 0.987,0.127c0.325,0.084 0.587,0.197 0.786,0.336l-0.264,0.63c-0.459,-0.26 -0.962,-0.39 -1.509,-0.39c-0.634,-0 -1.106,0.23 -1.416,0.691c-0.309,0.46 -0.464,1.189 -0.464,2.185c0,1.914 0.627,2.871 1.88,2.871c0.531,-0 1.075,-0.163 1.631,-0.488l0.249,0.629Z" style="fill-rule:nonzero;"/><path d="M40.181,303.704l-0.801,0l0,-3.418l-2.358,0l-0,3.418l-0.801,0l0,-6.89l0.801,0l-0,2.769l2.358,0l0,-2.769l0.801,0l0,6.89Z" style="fill-rule:nonzero;"/></g></g></g></svg>