<?xml version="1.0" encoding="UTF-8" standalone="no"?><!DOCTYPE svg PUBLIC "-//W3C//DTD SVG 1.1//EN" "http://www.w3.org/Graphics/SVG/1.1/DTD/svg11.dtd"><svg width="100%" height="100%" viewBox="0 0 360 380" version="1.1" xmlns="http://www.w3.org/2000/svg" xmlns:xlink="http://www.w3.org/1999/xlink" xml:space="preserve" xmlns:serif="http://www.serif.com/" style="fill-rule:evenodd;clip-rule:evenodd;stroke-linejoin:round;stroke-miterlimit:3;"><rect id="StochSeqGrid" x="0" y="0" width="360" height="379.6" style="fill:none;"/><clipPath id="_clip1"><rect x="0" y="0" width="360" height="379.6"/></clipPath><g clip-path="url(#_clip1)"><g id="Layer1"><rect id="background" x="0" y="0" width="360" height="380.662" style="fill:#e6e6e6;"/><rect id="rect" x="82.5" y="54.78" width="270" height="270" style="fill:#333;"/><rect x="222.641" y="329.303" width="129.859" height="40.619" style="fill:#282828;fill-opacity:0.5;"/><rect x="73.831" y="329.689" width="62.94" height="40.619" style="fill:#282828;fill-opacity:0.5;"/><g id="grid"><g><circle cx="50.35" cy="66.311" r="2.932"/><path d="M60.357,61.301c0,-2.761 -2.242,-5.003 -5.003,-5.003l-15.012,-0l0,20.026l15.012,0c2.761,0 5.003,-2.242 5.003,-5.003l0,-10.02Z" style="fill:none;stroke:#000;stroke-width:2.43px;"/></g><g><circle cx="50.35" cy="43.248" r="2.932"/><path d="M50.303,43.248l10.007,10.014" style="fill:none;stroke:#000;stroke-width:2.43px;stroke-linecap:round;stroke-linejoin:miter;stroke-miterlimit:1.5;"/><path d="M50.303,43.248l7.551,0c1.382,0 2.503,-1.122 2.503,-2.503l0,-5.007c0,-1.382 -1.121,-2.503 -2.503,-2.503l-15.008,-0c-1.382,-0 -2.384,1.623 -2.384,3.004l-0.12,17.023" style="fill:none;stroke:#000;stroke-width:2.43px;stroke-linecap:round;"/></g><g><circle cx="27.65" cy="43.248" r="2.932"/><path d="M32.654,33.235l-10.008,-0c-2.761,-0 -5.003,1.445 -5.003,3.224l-0,13.578c-0,1.78 2.242,3.225 5.003,3.225l10.008,-0c2.762,-0 5.004,-1.445 5.004,-3.225l-0,-6.789l-10.008,0" style="fill:none;stroke:#000;stroke-width:2.43px;stroke-linecap:round;"/></g><path d="M28.273,64.308l5.89,0l-8.684,12.016l1.548,-8.01l-5.89,-0l8.684,-12.016l-1.548,8.01Z"/></g><g id="logo"><g><circle cx="173.704" cy="343.439" r="1.627" style="fill:#8000db;"/><path d="M173.704,343.439l5.554,-0" style="fill:none;stroke:#8000db;stroke-width:1.35px;stroke-linejoin:miter;stroke-miterlimit:1.5;"/><path d="M179.258,340.658c0,-1.532 -1.244,-2.777 -2.777,-2.777l-5.554,0c-1.532,0 -2.777,1.245 -2.777,2.777l0,5.561c0,1.533 1.245,2.777 2.777,2.777l5.554,-0c1.533,-0 2.777,-1.244 2.777,-2.777l0,-5.561Z" style="fill:none;stroke:#8000db;stroke-width:1.35px;"/></g><g><circle cx="186.302" cy="355.556" r="1.627" style="fill:#f00;"/><path d="M189.079,349.998l-5.554,0c-1.532,0 -2.777,0.802 -2.777,1.79l0,7.535c0,0.988 1.245,1.79 2.777,1.79l5.554,-0c1.533,-0 2.777,-0.802 2.777,-1.79l0,-3.767l-5.554,-0" style="fill:none;stroke:#f00;stroke-width:1.35px;stroke-linecap:round;"/></g><g><circle cx="186.302" cy="343.439" r="1.627" style="fill:#2600ff;"/><path d="M191.856,348.996l0,-8.982c0,-1.177 -1.244,-2.133 -2.777,-2.133l-5.554,0c-1.532,0 -2.777,0.956 -2.777,2.133l0,8.982" style="fill:none;stroke:#2600ff;stroke-width:1.35px;stroke-linecap:round;"/></g><g><circle cx="173.701" cy="355.556" r="1.627" style="fill:#0ef;"/><path d="M168.144,361.113l-0,-11.115l11.114,11.115l0,-11.115" style="fill:none;stroke:#0ef;stroke-width:1.35px;stroke-linecap:round;stroke-miterlimit:1.5;"/></g></g><g><path d="M103.622,332.952l-2.247,6.612l-0.961,-0l-2.251,-6.612l0.839,0l1.89,5.722l1.899,-5.722l0.831,0Z" style="fill:#fff;fill-rule:nonzero;"/><path d="M107.915,332.826l-2.993,6.864l-0.717,0l2.978,-6.864l0.732,-0Z" style="fill:#fff;fill-rule:nonzero;"/><path d="M111.394,332.826c0.771,-0 1.36,0.293 1.765,0.878c0.405,0.586 0.608,1.438 0.608,2.556c0,1.113 -0.202,1.962 -0.605,2.549c-0.404,0.588 -0.993,0.881 -1.768,0.881c-0.768,0 -1.355,-0.293 -1.76,-0.878c-0.406,-0.586 -0.608,-1.436 -0.608,-2.552c-0,-1.115 0.202,-1.966 0.605,-2.553c0.404,-0.587 0.992,-0.881 1.763,-0.881Zm-0,6.19c1.016,-0 1.523,-0.919 1.523,-2.756c0,-1.839 -0.507,-2.759 -1.523,-2.759c-0.495,-0 -0.872,0.238 -1.13,0.714c-0.259,0.477 -0.389,1.158 -0.389,2.045c0,0.897 0.129,1.58 0.386,2.05c0.257,0.471 0.635,0.706 1.133,0.706Z" style="fill:#fff;fill-rule:nonzero;"/><path d="M118.886,339.151c-0.54,0.36 -1.167,0.539 -1.88,0.539c-0.892,0 -1.57,-0.293 -2.033,-0.881c-0.464,-0.587 -0.696,-1.436 -0.696,-2.549c-0,-1.074 0.224,-1.915 0.674,-2.523c0.449,-0.607 1.134,-0.911 2.055,-0.911c0.332,-0 0.661,0.04 0.987,0.122c0.325,0.081 0.587,0.189 0.786,0.323l-0.264,0.604c-0.459,-0.249 -0.962,-0.374 -1.509,-0.374c-0.634,-0 -1.106,0.221 -1.416,0.663c-0.309,0.442 -0.464,1.141 -0.464,2.096c0,1.837 0.627,2.756 1.88,2.756c0.531,-0 1.075,-0.157 1.631,-0.469l0.249,0.604Z" style="fill:#fff;fill-rule:nonzero;"/><path d="M124.44,333.576l-2.124,-0l-0,5.988l-0.796,-0l-0,-5.988l-2.134,-0l0,-0.624l5.054,0l-0,0.624Z" style="fill:#fff;fill-rule:nonzero;"/></g><g><path d="M45.806,134.564l-3.598,0l-0,-6.89l3.569,0l0,0.699l-2.769,-0l0,2.133l2.662,0l-0,0.699l-2.662,-0l0,2.661l2.798,-0l0,0.698Z" style="fill-rule:nonzero;"/><path d="M52.637,134.564l-0.888,0l-1.748,-2.822l-1.734,2.822l-0.888,0l2.202,-3.511l-2.193,-3.379l0.918,0l1.695,2.73l1.709,-2.73l0.879,0l-2.159,3.379l2.207,3.511Z" style="fill-rule:nonzero;"/><path d="M58.492,128.324l-2.124,-0l-0,6.24l-0.796,0l-0,-6.24l-2.134,-0l0,-0.65l5.054,0l-0,0.65Z" style="fill-rule:nonzero;"/></g><g><path d="M22.769,134.564l-1.001,0l-2.021,-3.13l-0.889,0l-0,3.13l-0.801,0l0,-6.89l1.948,0c0.655,0 1.171,0.159 1.551,0.477c0.379,0.317 0.568,0.759 0.568,1.325c0,0.42 -0.138,0.794 -0.415,1.121c-0.276,0.327 -0.657,0.549 -1.142,0.666l2.202,3.301Zm-3.911,-3.828l1.011,-0c0.423,-0 0.766,-0.115 1.03,-0.344c0.264,-0.23 0.395,-0.519 0.395,-0.867c0,-0.768 -0.468,-1.152 -1.406,-1.152l-1.03,-0l-0,2.363Z" style="fill-rule:nonzero;"/><path d="M27.505,128.436c-0.41,-0.14 -0.799,-0.21 -1.167,-0.21c-0.416,0 -0.756,0.095 -1.018,0.286c-0.262,0.19 -0.393,0.461 -0.393,0.813c0,0.416 0.344,0.783 1.03,1.098c0.508,0.235 0.844,0.398 1.009,0.489c0.164,0.091 0.331,0.216 0.5,0.376c0.17,0.159 0.305,0.347 0.408,0.564c0.103,0.216 0.154,0.459 0.154,0.73c-0,0.67 -0.226,1.19 -0.676,1.56c-0.451,0.369 -0.983,0.554 -1.595,0.554c-0.592,-0 -1.111,-0.117 -1.557,-0.352l0.166,-0.688c0.524,0.238 0.981,0.356 1.372,0.356c0.455,0 0.821,-0.118 1.096,-0.354c0.275,-0.236 0.413,-0.56 0.413,-0.974c-0,-0.306 -0.09,-0.565 -0.269,-0.779c-0.179,-0.213 -0.509,-0.43 -0.991,-0.651c-0.495,-0.228 -0.815,-0.384 -0.96,-0.467c-0.145,-0.083 -0.289,-0.198 -0.432,-0.344c-0.143,-0.146 -0.254,-0.311 -0.332,-0.493c-0.078,-0.182 -0.117,-0.381 -0.117,-0.596c-0,-0.57 0.205,-1.014 0.615,-1.333c0.41,-0.319 0.93,-0.478 1.558,-0.478c0.459,-0 0.915,0.07 1.367,0.21l-0.181,0.683Z" style="fill-rule:nonzero;"/><path d="M34.571,128.324l-2.124,-0l-0,6.24l-0.796,0l-0,-6.24l-2.134,-0l0,-0.65l5.054,0l-0,0.65Z" style="fill-rule:nonzero;"/></g><g><path d="M277.983,339.359c-0.563,0.413 -1.187,0.62 -1.87,0.62c-0.895,0 -1.574,-0.303 -2.036,-0.91c-0.463,-0.608 -0.694,-1.495 -0.694,-2.664c0,-1.13 0.224,-2.008 0.672,-2.637c0.447,-0.628 1.133,-0.942 2.058,-0.942c0.332,-0 0.661,0.042 0.986,0.127c0.326,0.084 0.588,0.197 0.786,0.337l-0.263,0.63c-0.459,-0.261 -0.962,-0.391 -1.509,-0.391c-0.632,-0 -1.103,0.231 -1.414,0.693c-0.311,0.463 -0.466,1.19 -0.466,2.183c-0,1.914 0.627,2.871 1.88,2.871c0.472,0 0.828,-0.099 1.069,-0.298l0,-1.699l-1.24,-0l-0,-0.693l2.041,-0l-0,2.773Z" style="fill:#fff;fill-rule:nonzero;"/><path d="M284.506,339.847l-0.84,0l-0.761,-2.412l-2.261,0l-0.771,2.412l-0.831,0l2.251,-6.889l0.962,-0l2.251,6.889Zm-1.831,-3.11l-0.903,-2.852l-0.898,2.852l1.801,0Z" style="fill:#fff;fill-rule:nonzero;"/><path d="M290.297,333.607l-2.124,0l0,6.24l-0.796,0l0,-6.24l-2.133,0l-0,-0.649l5.053,-0l0,0.649Z" style="fill:#fff;fill-rule:nonzero;"/><path d="M295.615,339.847l-3.599,0l0,-6.889l3.569,-0l0,0.698l-2.768,-0l-0,2.134l2.661,-0l0,0.698l-2.661,-0l-0,2.661l2.798,0l-0,0.698Z" style="fill:#fff;fill-rule:nonzero;"/><path d="M301.235,333.719c-0.41,-0.14 -0.799,-0.21 -1.167,-0.21c-0.417,0 -0.756,0.096 -1.018,0.286c-0.262,0.191 -0.393,0.462 -0.393,0.813c-0,0.417 0.343,0.783 1.03,1.099c0.508,0.234 0.844,0.397 1.008,0.488c0.165,0.091 0.332,0.216 0.501,0.376c0.169,0.159 0.305,0.347 0.407,0.564c0.103,0.216 0.154,0.46 0.154,0.73c0,0.671 -0.225,1.191 -0.676,1.56c-0.451,0.369 -0.982,0.554 -1.594,0.554c-0.593,0 -1.112,-0.117 -1.558,-0.351l0.166,-0.689c0.524,0.238 0.982,0.357 1.372,0.357c0.456,-0 0.821,-0.118 1.096,-0.354c0.276,-0.236 0.413,-0.561 0.413,-0.975c0,-0.306 -0.089,-0.565 -0.268,-0.778c-0.18,-0.214 -0.51,-0.431 -0.992,-0.652c-0.495,-0.228 -0.814,-0.383 -0.959,-0.467c-0.145,-0.083 -0.289,-0.197 -0.432,-0.344c-0.144,-0.146 -0.254,-0.311 -0.332,-0.493c-0.078,-0.182 -0.118,-0.381 -0.118,-0.596c0,-0.569 0.206,-1.014 0.616,-1.333c0.41,-0.319 0.929,-0.478 1.557,-0.478c0.459,-0 0.915,0.07 1.368,0.21l-0.181,0.683Z" style="fill:#fff;fill-rule:nonzero;"/></g></g></g></svg>