<?xml version="1.0" encoding="UTF-8" standalone="no"?><!DOCTYPE svg PUBLIC "-//W3C//DTD SVG 1.1//EN" "http://www.w3.org/Graphics/SVG/1.1/DTD/svg11.dtd"><svg width="100%" height="100%" viewBox="0 0 360 380" version="1.1" xmlns="http://www.w3.org/2000/svg" xmlns:xlink="http://www.w3.org/1999/xlink" xml:space="preserve" xmlns:serif="http://www.serif.com/" style="fill-rule:evenodd;clip-rule:evenodd;stroke-miterlimit:36.5;"><rect id="StochSeqGrid" x="0" y="0" width="360" height="379.6" style="fill:none;"/><clipPath id="_clip1"><rect x="0" y="0" width="360" height="379.6"/></clipPath><g clip-path="url(#_clip1)"><g id="Layer1"><rect id="background" x="0" y="0" width="360" height="380.662" style="fill:#e6e6e6;"/><rect id="rect" x="82.5" y="54.78" width="270" height="270" style="fill:#333;"/><path d="M28.324,97.257l0,18.887" style="fill:none;stroke:#282828;stroke-opacity:0.5;stroke-width:1.05px;"/><rect x="82.5" y="48.587" width="4" height="4" style="fill:#8000db;"/><path d="M75.619,320.78l0,4l4,-0l0,-4l-4,-0Z" style="fill:#0ef;"/><path d="M358.381,58.78l-0,-4l-4,-0l-0,4l4,-0Z" style="fill:#2600ff;"/><rect x="348.5" y="327.303" width="4" height="4" style="fill:#f00;"/><path d="M97.738,48.337l3,2.25l-3,2.25l0,-4.5Z"/><path d="M88.738,50.587l9.6,-0" style="fill:none;stroke:#000;stroke-width:1px;"/><path d="M75.369,309.541l2.25,-3l2.25,3l-4.5,0Z"/><path d="M77.619,318.541l0,-9.6" style="fill:none;stroke:#000;stroke-width:1px;"/><path d="M358.631,70.018l-2.25,3l-2.25,-3l4.5,-0Z"/><path d="M356.381,61.018l-0,9.6" style="fill:none;stroke:#000;stroke-width:1px;"/><path d="M337.262,331.553l-3,-2.25l3,-2.25l-0,4.5Z"/><path d="M346.262,329.303l-9.6,0" style="fill:none;stroke:#000;stroke-width:1px;"/><rect x="213.429" y="332.149" width="122.637" height="30.895" style="fill:#282828;fill-opacity:0.5;"/><rect x="82.5" y="332.149" width="121.005" height="30.895" style="fill:#282828;fill-opacity:0.5;"/><rect x="11.078" y="151.258" width="59.94" height="203.895" style="fill:none;stroke:#282828;stroke-opacity:0.5;stroke-width:1px;stroke-miterlimit:1.5;"/><rect x="82.5" y="12.587" width="174.207" height="32.854" style="fill:none;stroke:#282828;stroke-opacity:0.5;stroke-width:1px;stroke-miterlimit:1.5;"/><g id="grid"><g><circle cx="52.6" cy="50.663" r="2.932"/><path d="M62.607,45.653c0,-2.761 -2.242,-5.003 -5.003,-5.003l-15.012,-0l0,20.027l15.012,-0c2.761,-0 5.003,-2.242 5.003,-5.004l0,-10.02Z" style="fill:none;stroke:#000;stroke-width:2.43px;stroke-linejoin:round;stroke-miterlimit:3;"/></g><g><circle cx="52.6" cy="27.6" r="2.932"/><path d="M52.553,27.6l10.007,10.014" style="fill:none;stroke:#000;stroke-width:2.43px;stroke-linecap:round;stroke-miterlimit:1.5;"/><path d="M52.553,27.6l7.551,0c1.382,0 2.503,-1.121 2.503,-2.503l0,-5.007c0,-1.381 -1.121,-2.503 -2.503,-2.503l-15.008,-0c-1.382,-0 -2.384,1.623 -2.384,3.005l-0.12,17.022" style="fill:none;stroke:#000;stroke-width:2.43px;stroke-linecap:round;stroke-linejoin:round;stroke-miterlimit:3;"/></g><g><circle cx="29.9" cy="27.6" r="2.932"/><path d="M34.904,17.587l-10.008,-0c-2.761,-0 -5.003,1.445 -5.003,3.225l-0,13.577c-0,1.78 2.242,3.225 5.003,3.225l10.008,-0c2.762,-0 5.004,-1.445 5.004,-3.225l-0,-6.789l-10.008,0" style="fill:none;stroke:#000;stroke-width:2.43px;stroke-linecap:round;stroke-linejoin:round;stroke-miterlimit:3;"/></g><path d="M30.523,48.661l5.89,-0l-8.684,12.016l1.548,-8.011l-5.89,-0l8.684,-12.016l-1.548,8.011Z"/></g><g id="logo"><g><circle cx="314.704" cy="23.755" r="1.627" style="fill:#8000db;"/><path d="M314.704,23.755l5.554,0" style="fill:none;stroke:#8000db;stroke-width:1.35px;stroke-miterlimit:1.5;"/><path d="M320.258,20.975c0,-1.533 -1.244,-2.777 -2.777,-2.777l-5.554,-0c-1.532,-0 -2.777,1.244 -2.777,2.777l0,5.561c0,1.532 1.245,2.776 2.777,2.776l5.554,0c1.533,0 2.777,-1.244 2.777,-2.776l0,-5.561Z" style="fill:none;stroke:#8000db;stroke-width:1.35px;stroke-linejoin:round;stroke-miterlimit:3;"/></g><g><circle cx="327.302" cy="35.872" r="1.627" style="fill:#f00;"/><path d="M330.079,30.315l-5.554,0c-1.532,0 -2.777,0.802 -2.777,1.79l0,7.535c0,0.988 1.245,1.79 2.777,1.79l5.554,-0c1.533,-0 2.777,-0.802 2.777,-1.79l0,-3.768l-5.554,0" style="fill:none;stroke:#f00;stroke-width:1.35px;stroke-linecap:round;stroke-linejoin:round;stroke-miterlimit:3;"/></g><g><circle cx="327.302" cy="23.755" r="1.627" style="fill:#2600ff;"/><path d="M332.856,29.312l0,-8.981c0,-1.177 -1.244,-2.133 -2.777,-2.133l-5.554,-0c-1.532,-0 -2.777,0.956 -2.777,2.133l0,8.981" style="fill:none;stroke:#2600ff;stroke-width:1.35px;stroke-linecap:round;stroke-linejoin:round;stroke-miterlimit:3;"/></g><g><circle cx="314.701" cy="35.872" r="1.627" style="fill:#0ef;"/><path d="M309.144,41.43l-0,-11.115l11.114,11.115l0,-11.115" style="fill:none;stroke:#0ef;stroke-width:1.35px;stroke-linecap:round;stroke-linejoin:round;stroke-miterlimit:1.5;"/></g></g><g><path d="M194.652,355.276l6.611,2.246l0,0.962l-6.611,2.251l-0,-0.84l5.721,-1.889l-5.721,-1.9l-0,-0.83Z" style="fill:#fff;fill-rule:nonzero;"/><path d="M194.525,350.982l6.865,2.993l-0,0.718l-6.865,-2.978l0,-0.733Z" style="fill:#fff;fill-rule:nonzero;"/><path d="M194.525,347.504c0,-0.772 0.293,-1.36 0.879,-1.766c0.585,-0.405 1.437,-0.607 2.556,-0.607c1.112,-0 1.961,0.201 2.549,0.605c0.587,0.404 0.881,0.993 0.881,1.768c-0,0.768 -0.293,1.355 -0.879,1.76c-0.586,0.405 -1.436,0.608 -2.551,0.608c-1.115,-0 -1.967,-0.202 -2.554,-0.606c-0.587,-0.403 -0.881,-0.991 -0.881,-1.762Zm6.19,-0c-0,-1.016 -0.919,-1.524 -2.755,-1.524c-1.84,0 -2.76,0.508 -2.76,1.524c-0,0.494 0.238,0.871 0.714,1.13c0.477,0.259 1.159,0.388 2.046,0.388c0.896,0 1.58,-0.128 2.05,-0.386c0.47,-0.257 0.705,-0.634 0.705,-1.132Z" style="fill:#fff;fill-rule:nonzero;"/><path d="M200.851,340.011c0.359,0.541 0.539,1.167 0.539,1.88c-0,0.892 -0.294,1.57 -0.881,2.034c-0.588,0.464 -1.437,0.696 -2.549,0.696c-1.075,-0 -1.916,-0.225 -2.524,-0.674c-0.607,-0.449 -0.911,-1.134 -0.911,-2.056c0,-0.332 0.041,-0.66 0.122,-0.986c0.081,-0.326 0.189,-0.588 0.323,-0.786l0.605,0.264c-0.25,0.459 -0.375,0.961 -0.375,1.508c-0,0.635 0.221,1.107 0.663,1.416c0.442,0.31 1.141,0.464 2.097,0.464c1.836,0 2.755,-0.626 2.755,-1.88c-0,-0.53 -0.156,-1.074 -0.469,-1.631l0.605,-0.249Z" style="fill:#fff;fill-rule:nonzero;"/><path d="M195.275,334.458l-0,2.124l5.988,-0l0,0.796l-5.988,-0l-0,2.133l-0.623,0l-0,-5.053l0.623,-0Z" style="fill:#fff;fill-rule:nonzero;"/></g><g><path d="M47.817,134.564l-3.599,0l0,-6.89l3.57,0l-0,0.699l-2.769,-0l-0,2.133l2.661,0l0,0.699l-2.661,-0l-0,2.661l2.798,-0l-0,0.698Z" style="fill-rule:nonzero;"/><path d="M54.648,134.564l-0.889,0l-1.748,-2.822l-1.733,2.822l-0.889,0l2.202,-3.511l-2.192,-3.379l0.918,0l1.694,2.73l1.709,-2.73l0.879,0l-2.158,3.379l2.207,3.511Z" style="fill-rule:nonzero;"/><path d="M60.502,128.324l-2.124,-0l0,6.24l-0.796,0l0,-6.24l-2.133,-0l-0,-0.65l5.053,0l0,0.65Z" style="fill-rule:nonzero;"/></g><g><path d="M24.78,134.564l-1.001,0l-2.022,-3.13l-0.889,0l0,3.13l-0.8,0l-0,-6.89l1.948,0c0.654,0 1.171,0.159 1.55,0.477c0.379,0.317 0.569,0.759 0.569,1.325c-0,0.42 -0.138,0.794 -0.415,1.121c-0.277,0.327 -0.658,0.549 -1.143,0.666l2.203,3.301Zm-3.912,-3.828l1.011,-0c0.423,-0 0.767,-0.115 1.03,-0.344c0.264,-0.23 0.396,-0.519 0.396,-0.867c-0,-0.768 -0.469,-1.152 -1.406,-1.152l-1.031,-0l0,2.363Z" style="fill-rule:nonzero;"/><path d="M29.516,128.436c-0.41,-0.14 -0.799,-0.21 -1.167,-0.21c-0.417,0 -0.756,0.095 -1.018,0.286c-0.262,0.19 -0.393,0.461 -0.393,0.813c-0,0.416 0.343,0.783 1.03,1.098c0.508,0.235 0.844,0.398 1.008,0.489c0.165,0.091 0.332,0.216 0.501,0.376c0.169,0.159 0.305,0.347 0.407,0.564c0.103,0.216 0.154,0.459 0.154,0.73c0,0.67 -0.225,1.19 -0.676,1.56c-0.451,0.369 -0.982,0.554 -1.594,0.554c-0.593,-0 -1.112,-0.117 -1.558,-0.352l0.166,-0.688c0.524,0.238 0.982,0.356 1.372,0.356c0.456,0 0.821,-0.118 1.096,-0.354c0.276,-0.236 0.413,-0.56 0.413,-0.974c0,-0.306 -0.089,-0.565 -0.269,-0.779c-0.179,-0.213 -0.509,-0.43 -0.991,-0.651c-0.495,-0.228 -0.814,-0.384 -0.959,-0.467c-0.145,-0.083 -0.289,-0.198 -0.432,-0.344c-0.144,-0.146 -0.254,-0.311 -0.332,-0.493c-0.078,-0.182 -0.118,-0.381 -0.118,-0.596c0,-0.57 0.206,-1.014 0.616,-1.333c0.41,-0.319 0.929,-0.478 1.557,-0.478c0.459,-0 0.915,0.07 1.368,0.21l-0.181,0.683Z" style="fill-rule:nonzero;"/><path d="M36.581,128.324l-2.124,-0l0,6.24l-0.796,0l0,-6.24l-2.133,-0l-0,-0.65l5.053,0l0,0.65Z" style="fill-rule:nonzero;"/></g><g><path d="M332.578,357.184c0.414,0.563 0.62,1.186 0.62,1.87c0,0.895 -0.303,1.574 -0.91,2.036c-0.608,0.462 -1.495,0.693 -2.664,0.693c-1.13,0 -2.008,-0.223 -2.637,-0.671c-0.628,-0.448 -0.942,-1.134 -0.942,-2.058c-0,-0.332 0.042,-0.661 0.127,-0.986c0.084,-0.326 0.197,-0.588 0.337,-0.787l0.63,0.264c-0.261,0.459 -0.391,0.962 -0.391,1.509c0,0.631 0.231,1.103 0.693,1.413c0.463,0.311 1.19,0.467 2.183,0.467c1.914,-0 2.871,-0.627 2.871,-1.88c0,-0.472 -0.099,-0.829 -0.298,-1.069l-1.699,-0l0,1.24l-0.693,-0l-0,-2.041l2.773,-0Z" style="fill:#fff;fill-rule:nonzero;"/><path d="M333.066,350.66l0,0.84l-2.412,0.762l0,2.261l2.412,0.771l0,0.83l-6.889,-2.251l-0,-0.962l6.889,-2.251Zm-3.11,1.831l-2.852,0.904l2.852,0.898l0,-1.802Z" style="fill:#fff;fill-rule:nonzero;"/><path d="M326.826,344.869l0,2.124l6.24,0l0,0.796l-6.24,0l0,2.134l-0.649,0l-0,-5.054l0.649,0Z" style="fill:#fff;fill-rule:nonzero;"/><path d="M333.066,339.552l0,3.599l-6.889,-0l-0,-3.57l0.698,0l-0,2.769l2.134,-0l-0,-2.661l0.698,-0l0,2.661l2.661,-0l0,-2.798l0.698,-0Z" style="fill:#fff;fill-rule:nonzero;"/><path d="M326.938,333.932c-0.14,0.41 -0.209,0.799 -0.209,1.167c-0,0.417 0.095,0.756 0.285,1.018c0.191,0.262 0.462,0.393 0.813,0.393c0.417,-0 0.783,-0.343 1.099,-1.03c0.234,-0.508 0.397,-0.844 0.488,-1.009c0.091,-0.164 0.217,-0.331 0.376,-0.5c0.16,-0.169 0.348,-0.305 0.564,-0.408c0.216,-0.102 0.46,-0.154 0.73,-0.154c0.671,0 1.191,0.226 1.56,0.677c0.369,0.45 0.554,0.982 0.554,1.594c0,0.592 -0.117,1.112 -0.351,1.558l-0.689,-0.167c0.238,-0.524 0.357,-0.981 0.357,-1.372c-0,-0.455 -0.118,-0.821 -0.354,-1.096c-0.236,-0.275 -0.561,-0.412 -0.974,-0.412c-0.306,-0 -0.566,0.089 -0.779,0.268c-0.214,0.179 -0.431,0.51 -0.652,0.991c-0.228,0.495 -0.383,0.815 -0.466,0.96c-0.083,0.145 -0.198,0.289 -0.345,0.432c-0.146,0.143 -0.311,0.254 -0.493,0.332c-0.182,0.078 -0.381,0.117 -0.596,0.117c-0.569,0 -1.014,-0.205 -1.333,-0.615c-0.319,-0.41 -0.478,-0.929 -0.478,-1.558c-0,-0.459 0.07,-0.914 0.21,-1.367l0.683,0.181Z" style="fill:#fff;fill-rule:nonzero;"/></g><g><path d="M5.658,267.66l0,-28.899l10.835,0l0,28.899l-10.835,-0Z" style="fill:#e6e6e6;fill-rule:nonzero;"/><path d="M14.396,262.139l-0,0.964l-3.015,1.947l0,0.856l3.015,-0l-0,0.771l-6.636,0l0,-1.876c0,-0.631 0.153,-1.128 0.459,-1.494c0.305,-0.365 0.731,-0.547 1.277,-0.547c0.404,-0 0.764,0.133 1.079,0.399c0.315,0.267 0.529,0.634 0.642,1.101l3.179,-2.121Zm-3.687,3.767l-0,-0.974c-0,-0.407 -0.111,-0.738 -0.332,-0.992c-0.221,-0.254 -0.499,-0.381 -0.834,-0.381c-0.74,0 -1.11,0.452 -1.11,1.354l-0,0.993l2.276,-0Z" style="fill-rule:nonzero;"/><path d="M14.396,256.35l-0,0.808l-2.323,0.734l-0,2.178l2.323,0.743l-0,0.799l-6.636,-2.168l0,-0.926l6.636,-2.168Zm-2.996,1.763l-2.746,0.87l2.746,0.866l0,-1.736Z" style="fill-rule:nonzero;"/><path d="M8.386,250.772l-0,2.046l6.01,-0l-0,0.766l-6.01,0l-0,2.055l-0.626,0l0,-4.867l0.626,0Z" style="fill-rule:nonzero;"/><path d="M14.396,245.651l-0,3.466l-6.636,-0l0,-3.438l0.673,-0l-0,2.666l2.055,0l-0,-2.563l0.672,0l0,2.563l2.563,0l0,-2.694l0.673,-0Z" style="fill-rule:nonzero;"/><path d="M8.494,240.238c-0.135,0.395 -0.202,0.769 -0.202,1.124c-0,0.401 0.091,0.728 0.275,0.98c0.183,0.253 0.444,0.379 0.783,0.379c0.401,-0 0.754,-0.331 1.058,-0.992c0.226,-0.49 0.382,-0.813 0.47,-0.972c0.088,-0.158 0.209,-0.319 0.362,-0.482c0.154,-0.163 0.335,-0.294 0.544,-0.392c0.208,-0.099 0.442,-0.148 0.703,-0.148c0.645,-0 1.146,0.217 1.502,0.651c0.356,0.434 0.534,0.946 0.534,1.535c-0,0.571 -0.113,1.071 -0.339,1.501l-0.663,-0.16c0.229,-0.505 0.344,-0.946 0.344,-1.322c-0,-0.439 -0.114,-0.791 -0.341,-1.056c-0.228,-0.265 -0.54,-0.397 -0.939,-0.397c-0.294,-0 -0.544,0.086 -0.75,0.259c-0.205,0.172 -0.414,0.49 -0.628,0.954c-0.219,0.477 -0.369,0.785 -0.449,0.924c-0.08,0.14 -0.19,0.279 -0.331,0.417c-0.141,0.138 -0.3,0.244 -0.475,0.319c-0.176,0.076 -0.367,0.113 -0.574,0.113c-0.549,0 -0.977,-0.197 -1.284,-0.592c-0.307,-0.395 -0.461,-0.895 -0.461,-1.501c0,-0.442 0.068,-0.88 0.203,-1.316l0.658,0.174Z" style="fill-rule:nonzero;"/></g><g><rect x="154.837" y="7.048" width="29.532" height="11.073" style="fill:#e6e6e6;fill-rule:nonzero;"/><path d="M156.068,9.196l1.72,0c0.651,0 1.171,0.164 1.562,0.49c0.391,0.327 0.586,0.777 0.586,1.351c0,0.577 -0.194,1.037 -0.583,1.382c-0.39,0.344 -0.9,0.516 -1.531,0.516l-0.966,0l-0,3.042l-0.788,0l-0,-6.781Zm0.788,3.052l0.855,0c0.926,0 1.389,-0.388 1.389,-1.163c0,-0.359 -0.125,-0.649 -0.377,-0.87c-0.251,-0.221 -0.576,-0.331 -0.973,-0.331l-0.894,-0l-0,2.364Z" style="fill-rule:nonzero;"/><path d="M166.396,15.977l-0.827,0l-0.75,-2.374l-2.225,0l-0.759,2.374l-0.817,0l2.215,-6.781l0.947,0l2.216,6.781Zm-1.803,-3.061l-0.889,-2.807l-0.884,2.807l1.773,0Z" style="fill-rule:nonzero;"/><path d="M172.095,9.835l-2.09,0l-0,6.142l-0.784,0l0,-6.142l-2.1,0l0,-0.639l4.974,0l0,0.639Z" style="fill-rule:nonzero;"/><path d="M177.459,15.977l-0.789,0l0,-3.364l-2.321,0l0,3.364l-0.788,0l0,-6.781l0.788,0l0,2.725l2.321,0l0,-2.725l0.789,0l-0,6.781Z" style="fill-rule:nonzero;"/><path d="M182.86,9.946c-0.403,-0.138 -0.786,-0.207 -1.148,-0.207c-0.41,0 -0.744,0.094 -1.002,0.281c-0.258,0.188 -0.387,0.455 -0.387,0.801c-0,0.41 0.338,0.77 1.014,1.081c0.5,0.231 0.83,0.391 0.992,0.481c0.162,0.089 0.326,0.213 0.493,0.37c0.166,0.157 0.3,0.342 0.401,0.555c0.101,0.213 0.152,0.452 0.152,0.718c-0,0.66 -0.222,1.172 -0.666,1.536c-0.444,0.363 -0.967,0.545 -1.569,0.545c-0.583,0 -1.094,-0.115 -1.533,-0.346l0.163,-0.678c0.516,0.234 0.966,0.351 1.351,0.351c0.448,0 0.808,-0.116 1.079,-0.348c0.27,-0.232 0.406,-0.552 0.406,-0.959c-0,-0.301 -0.088,-0.557 -0.265,-0.766c-0.176,-0.21 -0.501,-0.424 -0.975,-0.642c-0.487,-0.224 -0.802,-0.377 -0.945,-0.459c-0.142,-0.082 -0.284,-0.195 -0.425,-0.339c-0.141,-0.144 -0.25,-0.306 -0.327,-0.485c-0.077,-0.18 -0.115,-0.375 -0.115,-0.586c-0,-0.561 0.202,-0.999 0.605,-1.312c0.404,-0.314 0.915,-0.471 1.534,-0.471c0.451,-0 0.9,0.068 1.345,0.206l-0.178,0.673Z" style="fill-rule:nonzero;"/></g></g></g></svg>