<?xml version="1.0" encoding="UTF-8" standalone="no"?><!DOCTYPE svg PUBLIC "-//W3C//DTD SVG 1.1//EN" "http://www.w3.org/Graphics/SVG/1.1/DTD/svg11.dtd"><svg width="100%" height="100%" viewBox="0 0 360 380" version="1.1" xmlns="http://www.w3.org/2000/svg" xmlns:xlink="http://www.w3.org/1999/xlink" xml:space="preserve" xmlns:serif="http://www.serif.com/" style="fill-rule:evenodd;clip-rule:evenodd;stroke-miterlimit:36.5;"><rect id="StochSeqGrid" x="0" y="0" width="360" height="379.6" style="fill:none;"/><clipPath id="_clip1"><rect x="0" y="0" width="360" height="379.6"/></clipPath><g clip-path="url(#_clip1)"><g id="Layer1"><rect id="background" x="0" y="0" width="360" height="380.662" style="fill:#e6e6e6;"/><rect id="rect" x="82.5" y="54.78" width="270" height="270" style="fill:#333;"/><rect x="82.5" y="48.587" width="4" height="4" style="fill:#8000db;"/><path d="M75.619,320.78l0,4l4,-0l0,-4l-4,-0Z" style="fill:#0ef;"/><path d="M358.381,58.78l-0,-4l-4,-0l-0,4l4,-0Z" style="fill:#2600ff;"/><rect x="348.5" y="327.303" width="4" height="4" style="fill:#f00;"/><path d="M97.738,48.337l3,2.25l-3,2.25l0,-4.5Z"/><path d="M88.738,50.587l9.6,-0" style="fill:none;stroke:#000;stroke-width:1px;"/><path d="M75.369,309.541l2.25,-3l2.25,3l-4.5,0Z"/><path d="M77.619,318.541l0,-9.6" style="fill:none;stroke:#000;stroke-width:1px;"/><path d="M358.631,70.018l-2.25,3l-2.25,-3l4.5,-0Z"/><path d="M356.381,61.018l-0,9.6" style="fill:none;stroke:#000;stroke-width:1px;"/><path d="M337.262,331.553l-3,-2.25l3,-2.25l-0,4.5Z"/><path d="M346.262,329.303l-9.6,0" style="fill:none;stroke:#000;stroke-width:1px;"/><rect x="201.069" y="328.149" width="112.005" height="38.895" style="fill:#282828;fill-opacity:0.5;"/><rect x="82.5" y="328.149" width="62.94" height="38.895" style="fill:#282828;fill-opacity:0.5;"/><rect x="11.078" y="151.258" width="59.94" height="203.895" style="fill:none;stroke:#282828;stroke-opacity:0.5;stroke-width:1px;stroke-miterlimit:1.5;"/><g id="grid"><g><circle cx="52.6" cy="66.311" r="2.932"/><path d="M62.607,61.301c0,-2.761 -2.242,-5.003 -5.003,-5.003l-15.012,-0l0,20.026l15.012,0c2.761,0 5.003,-2.242 5.003,-5.003l0,-10.02Z" style="fill:none;stroke:#000;stroke-width:2.43px;stroke-linejoin:round;stroke-miterlimit:3;"/></g><g><circle cx="52.6" cy="43.248" r="2.932"/><path d="M52.553,43.248l10.007,10.014" style="fill:none;stroke:#000;stroke-width:2.43px;stroke-linecap:round;stroke-miterlimit:1.5;"/><path d="M52.553,43.248l7.551,0c1.382,0 2.503,-1.122 2.503,-2.503l0,-5.007c0,-1.382 -1.121,-2.503 -2.503,-2.503l-15.008,-0c-1.382,-0 -2.384,1.623 -2.384,3.004l-0.12,17.023" style="fill:none;stroke:#000;stroke-width:2.43px;stroke-linecap:round;stroke-linejoin:round;stroke-miterlimit:3;"/></g><g><circle cx="29.9" cy="43.248" r="2.932"/><path d="M34.904,33.235l-10.008,-0c-2.761,-0 -5.003,1.445 -5.003,3.224l-0,13.578c-0,1.78 2.242,3.225 5.003,3.225l10.008,-0c2.762,-0 5.004,-1.445 5.004,-3.225l-0,-6.789l-10.008,0" style="fill:none;stroke:#000;stroke-width:2.43px;stroke-linecap:round;stroke-linejoin:round;stroke-miterlimit:3;"/></g><path d="M30.523,64.308l5.89,0l-8.684,12.016l1.548,-8.01l-5.89,-0l8.684,-12.016l-1.548,8.01Z"/></g><g id="logo"><g><circle cx="173.704" cy="343.439" r="1.627" style="fill:#8000db;"/><path d="M173.704,343.439l5.554,-0" style="fill:none;stroke:#8000db;stroke-width:1.35px;stroke-miterlimit:1.5;"/><path d="M179.258,340.658c0,-1.532 -1.244,-2.777 -2.777,-2.777l-5.554,0c-1.532,0 -2.777,1.245 -2.777,2.777l0,5.561c0,1.533 1.245,2.777 2.777,2.777l5.554,-0c1.533,-0 2.777,-1.244 2.777,-2.777l0,-5.561Z" style="fill:none;stroke:#8000db;stroke-width:1.35px;stroke-linejoin:round;stroke-miterlimit:3;"/></g><g><circle cx="186.302" cy="355.556" r="1.627" style="fill:#f00;"/><path d="M189.079,349.998l-5.554,0c-1.532,0 -2.777,0.802 -2.777,1.79l0,7.535c0,0.988 1.245,1.79 2.777,1.79l5.554,-0c1.533,-0 2.777,-0.802 2.777,-1.79l0,-3.767l-5.554,-0" style="fill:none;stroke:#f00;stroke-width:1.35px;stroke-linecap:round;stroke-linejoin:round;stroke-miterlimit:3;"/></g><g><circle cx="186.302" cy="343.439" r="1.627" style="fill:#2600ff;"/><path d="M191.856,348.996l0,-8.982c0,-1.177 -1.244,-2.133 -2.777,-2.133l-5.554,0c-1.532,0 -2.777,0.956 -2.777,2.133l0,8.982" style="fill:none;stroke:#2600ff;stroke-width:1.35px;stroke-linecap:round;stroke-linejoin:round;stroke-miterlimit:3;"/></g><g><circle cx="173.701" cy="355.556" r="1.627" style="fill:#0ef;"/><path d="M168.144,361.113l-0,-11.115l11.114,11.115l0,-11.115" style="fill:none;stroke:#0ef;stroke-width:1.35px;stroke-linecap:round;stroke-linejoin:round;stroke-miterlimit:1.5;"/></g></g><g><path d="M106.29,332.952l-2.246,6.612l-0.962,-0l-2.251,-6.612l0.84,0l1.89,5.722l1.899,-5.722l0.83,0Z" style="fill:#fff;fill-rule:nonzero;"/><path d="M110.584,332.826l-2.993,6.864l-0.718,0l2.979,-6.864l0.732,-0Z" style="fill:#fff;fill-rule:nonzero;"/><path d="M114.063,332.826c0.771,-0 1.359,0.293 1.765,0.878c0.405,0.586 0.608,1.438 0.608,2.556c-0,1.113 -0.202,1.962 -0.606,2.549c-0.403,0.588 -0.993,0.881 -1.767,0.881c-0.769,0 -1.355,-0.293 -1.761,-0.878c-0.405,-0.586 -0.608,-1.436 -0.608,-2.552c0,-1.115 0.202,-1.966 0.606,-2.553c0.404,-0.587 0.991,-0.881 1.763,-0.881Zm-0,6.19c1.015,-0 1.523,-0.919 1.523,-2.756c0,-1.839 -0.508,-2.759 -1.523,-2.759c-0.495,-0 -0.872,0.238 -1.131,0.714c-0.259,0.477 -0.388,1.158 -0.388,2.045c0,0.897 0.129,1.58 0.386,2.05c0.257,0.471 0.635,0.706 1.133,0.706Z" style="fill:#fff;fill-rule:nonzero;"/><path d="M121.555,339.151c-0.541,0.36 -1.167,0.539 -1.88,0.539c-0.892,0 -1.57,-0.293 -2.034,-0.881c-0.464,-0.587 -0.696,-1.436 -0.696,-2.549c0,-1.074 0.225,-1.915 0.674,-2.523c0.449,-0.607 1.135,-0.911 2.056,-0.911c0.332,-0 0.661,0.04 0.986,0.122c0.326,0.081 0.588,0.189 0.786,0.323l-0.263,0.604c-0.459,-0.249 -0.962,-0.374 -1.509,-0.374c-0.635,-0 -1.107,0.221 -1.416,0.663c-0.309,0.442 -0.464,1.141 -0.464,2.096c0,1.837 0.627,2.756 1.88,2.756c0.531,-0 1.074,-0.157 1.631,-0.469l0.249,0.604Z" style="fill:#fff;fill-rule:nonzero;"/><path d="M127.108,333.576l-2.124,-0l0,5.988l-0.795,-0l-0,-5.988l-2.134,-0l-0,-0.624l5.053,0l0,0.624Z" style="fill:#fff;fill-rule:nonzero;"/></g><g><path d="M47.817,134.564l-3.599,0l0,-6.89l3.57,0l-0,0.699l-2.769,-0l-0,2.133l2.661,0l0,0.699l-2.661,-0l-0,2.661l2.798,-0l-0,0.698Z" style="fill-rule:nonzero;"/><path d="M54.648,134.564l-0.889,0l-1.748,-2.822l-1.733,2.822l-0.889,0l2.202,-3.511l-2.192,-3.379l0.918,0l1.694,2.73l1.709,-2.73l0.879,0l-2.158,3.379l2.207,3.511Z" style="fill-rule:nonzero;"/><path d="M60.502,128.324l-2.124,-0l0,6.24l-0.796,0l0,-6.24l-2.133,-0l-0,-0.65l5.053,0l0,0.65Z" style="fill-rule:nonzero;"/></g><g><path d="M24.78,134.564l-1.001,0l-2.022,-3.13l-0.889,0l0,3.13l-0.8,0l-0,-6.89l1.948,0c0.654,0 1.171,0.159 1.55,0.477c0.379,0.317 0.569,0.759 0.569,1.325c-0,0.42 -0.138,0.794 -0.415,1.121c-0.277,0.327 -0.658,0.549 -1.143,0.666l2.203,3.301Zm-3.912,-3.828l1.011,-0c0.423,-0 0.767,-0.115 1.03,-0.344c0.264,-0.23 0.396,-0.519 0.396,-0.867c-0,-0.768 -0.469,-1.152 -1.406,-1.152l-1.031,-0l0,2.363Z" style="fill-rule:nonzero;"/><path d="M29.516,128.436c-0.41,-0.14 -0.799,-0.21 -1.167,-0.21c-0.417,0 -0.756,0.095 -1.018,0.286c-0.262,0.19 -0.393,0.461 -0.393,0.813c-0,0.416 0.343,0.783 1.03,1.098c0.508,0.235 0.844,0.398 1.008,0.489c0.165,0.091 0.332,0.216 0.501,0.376c0.169,0.159 0.305,0.347 0.407,0.564c0.103,0.216 0.154,0.459 0.154,0.73c0,0.67 -0.225,1.19 -0.676,1.56c-0.451,0.369 -0.982,0.554 -1.594,0.554c-0.593,-0 -1.112,-0.117 -1.558,-0.352l0.166,-0.688c0.524,0.238 0.982,0.356 1.372,0.356c0.456,0 0.821,-0.118 1.096,-0.354c0.276,-0.236 0.413,-0.56 0.413,-0.974c0,-0.306 -0.089,-0.565 -0.269,-0.779c-0.179,-0.213 -0.509,-0.43 -0.991,-0.651c-0.495,-0.228 -0.814,-0.384 -0.959,-0.467c-0.145,-0.083 -0.289,-0.198 -0.432,-0.344c-0.144,-0.146 -0.254,-0.311 -0.332,-0.493c-0.078,-0.182 -0.118,-0.381 -0.118,-0.596c0,-0.57 0.206,-1.014 0.616,-1.333c0.41,-0.319 0.929,-0.478 1.557,-0.478c0.459,-0 0.915,0.07 1.368,0.21l-0.181,0.683Z" style="fill-rule:nonzero;"/><path d="M36.581,128.324l-2.124,-0l0,6.24l-0.796,0l0,-6.24l-2.133,-0l-0,-0.65l5.053,0l0,0.65Z" style="fill-rule:nonzero;"/></g><g><path d="M247.485,338.682c-0.564,0.413 -1.187,0.62 -1.871,0.62c-0.895,0 -1.573,-0.303 -2.036,-0.91c-0.462,-0.608 -0.693,-1.495 -0.693,-2.664c-0,-1.13 0.224,-2.009 0.671,-2.637c0.448,-0.628 1.134,-0.942 2.058,-0.942c0.333,-0 0.661,0.042 0.987,0.127c0.325,0.084 0.587,0.197 0.786,0.337l-0.264,0.63c-0.459,-0.261 -0.962,-0.391 -1.509,-0.391c-0.631,-0 -1.102,0.231 -1.413,0.693c-0.311,0.463 -0.466,1.19 -0.466,2.183c-0,1.914 0.626,2.871 1.879,2.871c0.472,0 0.829,-0.099 1.07,-0.298l-0,-1.699l-1.24,-0l-0,-0.693l2.041,-0l-0,2.773Z" style="fill:#fff;fill-rule:nonzero;"/><path d="M254.008,339.17l-0.84,0l-0.762,-2.412l-2.26,0l-0.772,2.412l-0.83,0l2.251,-6.889l0.962,-0l2.251,6.889Zm-1.831,-3.11l-0.903,-2.852l-0.899,2.852l1.802,-0Z" style="fill:#fff;fill-rule:nonzero;"/><path d="M259.799,332.93l-2.124,0l0,6.24l-0.796,0l0,-6.24l-2.134,0l0,-0.649l5.054,-0l0,0.649Z" style="fill:#fff;fill-rule:nonzero;"/><path d="M265.116,339.17l-3.598,0l-0,-6.889l3.569,-0l0,0.698l-2.768,-0l-0,2.134l2.661,-0l-0,0.698l-2.661,-0l-0,2.661l2.797,0l0,0.698Z" style="fill:#fff;fill-rule:nonzero;"/><path d="M270.737,333.042c-0.411,-0.14 -0.8,-0.21 -1.167,-0.21c-0.417,0 -0.756,0.096 -1.019,0.286c-0.262,0.191 -0.393,0.461 -0.393,0.813c0,0.417 0.344,0.783 1.031,1.099c0.508,0.234 0.844,0.397 1.008,0.488c0.164,0.091 0.331,0.216 0.5,0.376c0.17,0.159 0.306,0.347 0.408,0.564c0.103,0.216 0.154,0.46 0.154,0.73c0,0.67 -0.225,1.19 -0.676,1.56c-0.451,0.369 -0.983,0.554 -1.595,0.554c-0.592,0 -1.111,-0.117 -1.557,-0.351l0.166,-0.689c0.524,0.238 0.981,0.357 1.372,0.357c0.456,-0 0.821,-0.118 1.096,-0.354c0.275,-0.236 0.413,-0.561 0.413,-0.975c-0,-0.306 -0.09,-0.565 -0.269,-0.778c-0.179,-0.214 -0.509,-0.431 -0.991,-0.652c-0.495,-0.228 -0.815,-0.384 -0.959,-0.467c-0.145,-0.083 -0.289,-0.197 -0.433,-0.344c-0.143,-0.146 -0.254,-0.311 -0.332,-0.493c-0.078,-0.182 -0.117,-0.381 -0.117,-0.596c0,-0.569 0.205,-1.014 0.615,-1.333c0.411,-0.319 0.93,-0.478 1.558,-0.478c0.459,-0 0.915,0.07 1.367,0.21l-0.18,0.683Z" style="fill:#fff;fill-rule:nonzero;"/></g></g><text x="103.611px" y="13.187px" style="font-family:'AndaleMono', 'Andale Mono', monospace;font-size:9.631px;">LENGTHS</text><g><path d="M5.658,267.66l0,-28.899l10.835,0l0,28.899l-10.835,-0Z" style="fill:#e6e6e6;fill-rule:nonzero;"/><path d="M14.396,262.139l-0,0.964l-3.015,1.947l0,0.856l3.015,-0l-0,0.771l-6.636,0l0,-1.876c0,-0.631 0.153,-1.128 0.459,-1.494c0.305,-0.365 0.731,-0.547 1.277,-0.547c0.404,-0 0.764,0.133 1.079,0.399c0.315,0.267 0.529,0.634 0.642,1.101l3.179,-2.121Zm-3.687,3.767l-0,-0.974c-0,-0.407 -0.111,-0.738 -0.332,-0.992c-0.221,-0.254 -0.499,-0.381 -0.834,-0.381c-0.74,0 -1.11,0.452 -1.11,1.354l-0,0.993l2.276,-0Z" style="fill-rule:nonzero;"/><path d="M14.396,256.35l-0,0.808l-2.323,0.734l-0,2.178l2.323,0.743l-0,0.799l-6.636,-2.168l0,-0.926l6.636,-2.168Zm-2.996,1.763l-2.746,0.87l2.746,0.866l0,-1.736Z" style="fill-rule:nonzero;"/><path d="M8.386,250.772l-0,2.046l6.01,-0l-0,0.766l-6.01,0l-0,2.055l-0.626,0l0,-4.867l0.626,0Z" style="fill-rule:nonzero;"/><path d="M14.396,245.651l-0,3.466l-6.636,-0l0,-3.438l0.673,-0l-0,2.666l2.055,0l-0,-2.563l0.672,0l0,2.563l2.563,0l0,-2.694l0.673,-0Z" style="fill-rule:nonzero;"/><path d="M8.494,240.238c-0.135,0.395 -0.202,0.769 -0.202,1.124c-0,0.401 0.091,0.728 0.275,0.98c0.183,0.253 0.444,0.379 0.783,0.379c0.401,-0 0.754,-0.331 1.058,-0.992c0.226,-0.49 0.382,-0.813 0.47,-0.972c0.088,-0.158 0.209,-0.319 0.362,-0.482c0.154,-0.163 0.335,-0.294 0.544,-0.392c0.208,-0.099 0.442,-0.148 0.703,-0.148c0.645,-0 1.146,0.217 1.502,0.651c0.356,0.434 0.534,0.946 0.534,1.535c-0,0.571 -0.113,1.071 -0.339,1.501l-0.663,-0.16c0.229,-0.505 0.344,-0.946 0.344,-1.322c-0,-0.439 -0.114,-0.791 -0.341,-1.056c-0.228,-0.265 -0.54,-0.397 -0.939,-0.397c-0.294,-0 -0.544,0.086 -0.75,0.259c-0.205,0.172 -0.414,0.49 -0.628,0.954c-0.219,0.477 -0.369,0.785 -0.449,0.924c-0.08,0.14 -0.19,0.279 -0.331,0.417c-0.141,0.138 -0.3,0.244 -0.475,0.319c-0.176,0.076 -0.367,0.113 -0.574,0.113c-0.549,0 -0.977,-0.197 -1.284,-0.592c-0.307,-0.395 -0.461,-0.895 -0.461,-1.501c0,-0.442 0.068,-0.88 0.203,-1.316l0.658,0.174Z" style="fill-rule:nonzero;"/></g></g></svg>