<?xml version="1.0" encoding="UTF-8" standalone="no"?><!DOCTYPE svg PUBLIC "-//W3C//DTD SVG 1.1//EN" "http://www.w3.org/Graphics/SVG/1.1/DTD/svg11.dtd"><svg width="100%" height="100%" viewBox="0 0 720 380" version="1.1" xmlns="http://www.w3.org/2000/svg" xmlns:xlink="http://www.w3.org/1999/xlink" xml:space="preserve" xmlns:serif="http://www.serif.com/" style="fill-rule:evenodd;clip-rule:evenodd;stroke-linecap:square;stroke-linejoin:round;stroke-miterlimit:1.5;"><rect id="StochSeq4" x="0" y="0" width="720" height="379.559" style="fill:none;"/><clipPath id="_clip1"><rect x="0" y="0" width="720" height="379.559"/></clipPath><g clip-path="url(#_clip1)"><g id="Layer1"><rect id="background" x="0" y="-0" width="720" height="379.559" style="fill:#e6e6e6;"/><rect x="674.498" y="18.241" width="18.472" height="343.077" style="fill:#282828;fill-opacity:0.5;"/><rect x="696.394" y="18.241" width="18.472" height="343.077" style="fill:#282828;fill-opacity:0.5;"/><g><path d="M23.406,13.665c-1.293,-0.441 -2.52,-0.662 -3.68,-0.662c-1.314,-0 -2.384,0.3 -3.211,0.901c-0.826,0.6 -1.239,1.455 -1.239,2.564c-0,1.314 1.083,2.469 3.249,3.464c1.601,0.74 2.661,1.253 3.18,1.54c0.518,0.288 1.044,0.683 1.578,1.186c0.534,0.503 0.963,1.096 1.286,1.779c0.323,0.682 0.485,1.45 0.485,2.302c-0,2.115 -0.711,3.755 -2.133,4.92c-1.422,1.165 -3.098,1.747 -5.028,1.747c-1.868,0 -3.505,-0.369 -4.912,-1.108l0.524,-2.171c1.653,0.749 3.095,1.124 4.327,1.124c1.437,-0 2.589,-0.373 3.457,-1.117c0.867,-0.744 1.301,-1.768 1.301,-3.072c0,-0.965 -0.282,-1.784 -0.847,-2.456c-0.564,-0.672 -1.606,-1.358 -3.126,-2.056c-1.56,-0.718 -2.569,-1.209 -3.026,-1.47c-0.457,-0.262 -0.911,-0.624 -1.363,-1.086c-0.451,-0.462 -0.8,-0.98 -1.047,-1.555c-0.246,-0.575 -0.369,-1.201 -0.369,-1.879c-0,-1.797 0.647,-3.198 1.94,-4.204c1.294,-1.006 2.931,-1.509 4.912,-1.509c1.448,0 2.885,0.221 4.312,0.662l-0.57,2.156Z" style="fill-rule:nonzero;"/><path d="M44.072,32.267c-1.612,0.739 -3.198,1.109 -4.759,1.109c-2.864,-0 -4.296,-1.515 -4.296,-4.543l0,-9.809l-3.08,-0l0,-2.079l3.08,0l0,-4.389l2.341,0l-0,4.389l5.451,0l-0,2.079l-5.451,-0l-0,9.178c-0,0.975 0.215,1.732 0.646,2.271c0.432,0.539 1.017,0.808 1.756,0.808c1.314,0 2.613,-0.292 3.896,-0.877l0.416,1.863Z" style="fill-rule:nonzero;"/><path d="M56.622,16.56c2.207,0 3.962,0.77 5.266,2.31c1.304,1.54 1.956,3.567 1.956,6.082c-0,2.536 -0.652,4.579 -1.956,6.129c-1.304,1.55 -3.059,2.325 -5.266,2.325c-2.218,0 -3.976,-0.772 -5.274,-2.317c-1.299,-1.545 -1.948,-3.591 -1.948,-6.137c-0,-2.525 0.652,-4.555 1.955,-6.09c1.304,-1.535 3.06,-2.302 5.267,-2.302Zm-0,14.752c1.458,0 2.607,-0.616 3.449,-1.848c0.842,-1.232 1.263,-2.725 1.263,-4.481c-0,-1.848 -0.416,-3.367 -1.247,-4.558c-0.832,-1.191 -1.987,-1.786 -3.465,-1.786c-1.489,-0 -2.644,0.588 -3.465,1.763c-0.821,1.176 -1.232,2.703 -1.232,4.581c0,1.787 0.416,3.288 1.247,4.504c0.832,1.217 1.982,1.825 3.45,1.825Z" style="fill-rule:nonzero;"/><path d="M81.707,32.452c-1.397,0.636 -2.931,0.954 -4.605,0.954c-2.525,0 -4.54,-0.767 -6.044,-2.302c-1.504,-1.534 -2.256,-3.575 -2.256,-6.121c0,-2.546 0.757,-4.586 2.272,-6.121c1.514,-1.535 3.503,-2.302 5.967,-2.302c1.612,0 3.146,0.282 4.604,0.847l-0.631,1.986c-1.458,-0.503 -2.772,-0.754 -3.942,-0.754c-1.766,-0 -3.165,0.57 -4.197,1.709c-1.031,1.14 -1.547,2.685 -1.547,4.635c-0,1.787 0.534,3.288 1.601,4.504c1.068,1.217 2.459,1.825 4.173,1.825c1.355,0 2.752,-0.262 4.189,-0.785l0.416,1.925Z" style="fill-rule:nonzero;"/><path d="M100.694,32.991l-2.403,-0l0,-10.287c0,-1.427 -0.228,-2.461 -0.685,-3.103c-0.457,-0.641 -1.173,-0.962 -2.148,-0.962c-1.468,-0 -3.044,0.914 -4.728,2.741l0,11.611l-2.402,-0l0,-21.728l2.402,-0l0,8.038c1.725,-1.827 3.542,-2.741 5.452,-2.741c3.008,0 4.512,1.817 4.512,5.451l-0,10.98Z" style="fill-rule:nonzero;"/><path d="M32.869,45.202c-1.294,-0.441 -2.52,-0.662 -3.68,-0.662c-1.314,-0 -2.385,0.3 -3.211,0.901c-0.827,0.6 -1.24,1.455 -1.24,2.564c0,1.314 1.083,2.469 3.249,3.464c1.602,0.74 2.662,1.253 3.18,1.54c0.519,0.288 1.045,0.683 1.579,1.186c0.534,0.503 0.962,1.096 1.286,1.779c0.323,0.682 0.485,1.45 0.485,2.302c-0,2.115 -0.711,3.755 -2.133,4.92c-1.422,1.165 -3.098,1.748 -5.028,1.748c-1.868,-0 -3.506,-0.37 -4.912,-1.109l0.523,-2.171c1.653,0.749 3.096,1.124 4.327,1.124c1.438,-0 2.59,-0.372 3.458,-1.117c0.867,-0.744 1.301,-1.768 1.301,-3.072c-0,-0.965 -0.283,-1.784 -0.847,-2.456c-0.565,-0.672 -1.607,-1.358 -3.126,-2.056c-1.561,-0.718 -2.569,-1.209 -3.026,-1.47c-0.457,-0.262 -0.911,-0.624 -1.363,-1.086c-0.452,-0.462 -0.801,-0.98 -1.047,-1.555c-0.246,-0.575 -0.37,-1.201 -0.37,-1.879c0,-1.796 0.647,-3.198 1.941,-4.204c1.293,-1.006 2.931,-1.509 4.912,-1.509c1.447,0 2.885,0.221 4.312,0.662l-0.57,2.156Z" style="fill-rule:nonzero;"/><path d="M53.858,56.582l-11.011,-0c0,1.817 0.527,3.316 1.579,4.496c1.052,1.181 2.343,1.771 3.873,1.771c1.457,0 2.961,-0.262 4.512,-0.785l0.415,1.925c-1.416,0.636 -3.069,0.955 -4.958,0.955c-2.382,-0 -4.302,-0.765 -5.759,-2.295c-1.458,-1.53 -2.187,-3.593 -2.187,-6.19c-0,-2.546 0.654,-4.576 1.963,-6.091c1.309,-1.514 3.001,-2.271 5.074,-2.271c1.848,0 3.393,0.703 4.635,2.11c1.243,1.406 1.864,3.28 1.864,5.62l-0,0.755Zm-2.618,-1.956c-0,-1.252 -0.39,-2.307 -1.17,-3.164c-0.781,-0.857 -1.653,-1.286 -2.618,-1.286c-1.242,-0 -2.272,0.411 -3.088,1.232c-0.816,0.821 -1.27,1.894 -1.363,3.218l8.239,0Z" style="fill-rule:nonzero;"/><path d="M72.244,70.872l-2.402,0l-0,-8.654c-0.493,0.79 -1.199,1.442 -2.118,1.956c-0.918,0.513 -1.886,0.77 -2.902,0.77c-1.838,-0 -3.291,-0.806 -4.358,-2.418c-1.068,-1.612 -1.602,-3.665 -1.602,-6.16c0,-2.392 0.555,-4.368 1.663,-5.928c1.109,-1.561 2.587,-2.341 4.435,-2.341c2.023,0 3.65,0.821 4.882,2.464l-0,-2.079l2.402,0l-0,22.39Zm-2.402,-11.257l-0,-6.667c-1.15,-1.848 -2.536,-2.772 -4.158,-2.772c-1.324,-0 -2.371,0.6 -3.141,1.802c-0.77,1.201 -1.155,2.705 -1.155,4.511c-0,1.838 0.362,3.347 1.085,4.528c0.724,1.18 1.717,1.771 2.98,1.771c0.606,-0 1.217,-0.165 1.833,-0.493c0.615,-0.329 1.196,-0.821 1.74,-1.478c0.544,-0.657 0.816,-1.058 0.816,-1.202Z" style="fill-rule:nonzero;"/><path d="M92.078,59.508l-2.68,-0l0,5.02l-2.525,-0l-0,-5.02l-9.455,-0l0,-1.925l8.577,-14.783l3.403,-0l0,14.506l2.68,-0l-0,2.202Zm-5.205,-2.202l-0,-12.012l-6.899,12.012l6.899,-0Z" style="fill-rule:nonzero;"/></g><g><path d="M686.691,46.702c0.413,0.563 0.62,1.186 0.62,1.87c0,0.895 -0.303,1.574 -0.911,2.036c-0.607,0.462 -1.494,0.694 -2.663,0.694c-1.13,-0 -2.009,-0.224 -2.637,-0.672c-0.628,-0.447 -0.942,-1.133 -0.942,-2.058c-0,-0.332 0.042,-0.661 0.127,-0.986c0.084,-0.326 0.197,-0.588 0.337,-0.786l0.63,0.263c-0.261,0.459 -0.391,0.962 -0.391,1.509c-0,0.632 0.231,1.103 0.693,1.414c0.463,0.31 1.19,0.466 2.183,0.466c1.914,-0 2.871,-0.627 2.871,-1.88c0,-0.472 -0.099,-0.828 -0.298,-1.069l-1.699,-0l-0,1.24l-0.693,-0l-0,-2.041l2.773,-0Z" style="fill:#fff;fill-rule:nonzero;"/><path d="M687.179,40.178l0,0.84l-2.412,0.762l0,2.261l2.412,0.771l0,0.83l-6.889,-2.251l-0,-0.962l6.889,-2.251Zm-3.11,1.832l-2.852,0.903l2.852,0.898l-0,-1.801Z" style="fill:#fff;fill-rule:nonzero;"/><path d="M680.939,34.387l0,2.124l6.24,0l0,0.796l-6.24,0l0,2.134l-0.649,0l-0,-5.054l0.649,0Z" style="fill:#fff;fill-rule:nonzero;"/><path d="M687.179,29.07l0,3.599l-6.889,-0l-0,-3.57l0.698,0l-0,2.769l2.134,-0l-0,-2.661l0.698,-0l-0,2.661l2.661,-0l0,-2.798l0.698,0Z" style="fill:#fff;fill-rule:nonzero;"/><path d="M681.051,23.45c-0.14,0.41 -0.21,0.799 -0.21,1.167c0,0.417 0.096,0.756 0.286,1.018c0.19,0.262 0.461,0.393 0.813,0.393c0.417,0 0.783,-0.343 1.099,-1.03c0.234,-0.508 0.397,-0.844 0.488,-1.008c0.091,-0.165 0.216,-0.332 0.376,-0.501c0.159,-0.169 0.347,-0.305 0.564,-0.408c0.216,-0.102 0.46,-0.154 0.73,-0.154c0.67,0 1.19,0.226 1.56,0.677c0.369,0.451 0.554,0.982 0.554,1.594c0,0.592 -0.117,1.112 -0.351,1.558l-0.689,-0.166c0.238,-0.524 0.357,-0.982 0.357,-1.372c-0,-0.456 -0.118,-0.822 -0.354,-1.097c-0.236,-0.275 -0.561,-0.412 -0.975,-0.412c-0.306,-0 -0.565,0.089 -0.778,0.268c-0.214,0.179 -0.431,0.51 -0.652,0.992c-0.228,0.494 -0.384,0.814 -0.467,0.959c-0.083,0.145 -0.197,0.289 -0.344,0.432c-0.146,0.143 -0.311,0.254 -0.493,0.332c-0.182,0.078 -0.381,0.117 -0.596,0.117c-0.569,0 -1.014,-0.205 -1.333,-0.615c-0.319,-0.41 -0.478,-0.929 -0.478,-1.558c-0,-0.459 0.07,-0.914 0.21,-1.367l0.683,0.181Z" style="fill:#fff;fill-rule:nonzero;"/></g><g><path d="M702.185,45.843l6.89,2.246l-0,0.962l-6.89,2.251l0,-0.84l5.962,-1.89l-5.962,-1.899l0,-0.83Z" style="fill:#fff;fill-rule:nonzero;"/><path d="M702.053,40.799l7.154,2.993l-0,0.718l-7.154,-2.979l0,-0.732Z" style="fill:#fff;fill-rule:nonzero;"/><path d="M702.053,36.57c0,-0.771 0.306,-1.36 0.916,-1.765c0.61,-0.405 1.498,-0.608 2.664,-0.608c1.158,0 2.044,0.202 2.656,0.605c0.612,0.404 0.918,0.993 0.918,1.768c-0,0.768 -0.305,1.355 -0.916,1.76c-0.61,0.406 -1.496,0.608 -2.658,0.608c-1.163,0 -2.05,-0.202 -2.662,-0.605c-0.612,-0.404 -0.918,-0.991 -0.918,-1.763Zm6.451,0c-0,-1.016 -0.957,-1.523 -2.871,-1.523c-1.918,-0 -2.876,0.507 -2.876,1.523c-0,0.495 0.248,0.872 0.744,1.13c0.497,0.259 1.207,0.389 2.132,0.389c0.934,-0 1.646,-0.129 2.136,-0.386c0.49,-0.257 0.735,-0.635 0.735,-1.133Z" style="fill:#fff;fill-rule:nonzero;"/><path d="M708.645,28.328c0.375,0.54 0.562,1.167 0.562,1.88c-0,0.892 -0.306,1.57 -0.918,2.033c-0.612,0.464 -1.498,0.696 -2.656,0.696c-1.12,0 -1.997,-0.224 -2.63,-0.674c-0.633,-0.449 -0.95,-1.134 -0.95,-2.055c0,-0.332 0.043,-0.661 0.127,-0.987c0.085,-0.325 0.197,-0.587 0.337,-0.786l0.63,0.264c-0.26,0.459 -0.39,0.962 -0.39,1.509c-0,0.635 0.23,1.107 0.69,1.416c0.461,0.309 1.189,0.464 2.186,0.464c1.914,-0 2.871,-0.627 2.871,-1.88c-0,-0.531 -0.163,-1.074 -0.489,-1.631l0.63,-0.249Z" style="fill:#fff;fill-rule:nonzero;"/><path d="M702.835,22.024l-0,2.124l6.24,0l-0,0.796l-6.24,0l-0,2.134l-0.65,-0l0,-5.054l0.65,0Z" style="fill:#fff;fill-rule:nonzero;"/></g><rect id="rect" x="189.547" y="18.241" width="480" height="80.687" style="fill:#333;"/><rect id="rect1" serif:id="rect" x="189.547" y="105.704" width="480" height="80.687" style="fill:#333;"/><rect id="rect2" serif:id="rect" x="189.547" y="193.168" width="480" height="80.687" style="fill:#333;"/><rect id="rect3" serif:id="rect" x="189.547" y="280.631" width="480" height="80.687" style="fill:#333;"/><g><path d="M122.899,47.892c-0.54,0.374 -1.167,0.561 -1.88,0.561c-0.892,0 -1.57,-0.306 -2.033,-0.917c-0.464,-0.612 -0.696,-1.498 -0.696,-2.657c-0,-1.12 0.224,-1.996 0.674,-2.629c0.449,-0.633 1.134,-0.95 2.055,-0.95c0.332,0 0.661,0.042 0.987,0.127c0.325,0.085 0.587,0.197 0.786,0.337l-0.264,0.63c-0.459,-0.261 -0.962,-0.391 -1.509,-0.391c-0.634,0 -1.106,0.231 -1.416,0.691c-0.309,0.461 -0.464,1.189 -0.464,2.185c0,1.914 0.627,2.871 1.88,2.871c0.531,0 1.075,-0.162 1.631,-0.488l0.249,0.63Z" style="fill-rule:nonzero;"/><path d="M128.671,48.322l-3.75,-0l-0,-6.89l0.8,-0l0,6.191l2.95,0l-0,0.699Z" style="fill-rule:nonzero;"/><path d="M135.56,48.322l-1.01,-0l-2.33,-3.379l-0.727,0.791l-0,2.588l-0.801,-0l0,-6.89l0.801,-0l-0,3.301l3.057,-3.301l0.922,-0l-2.69,2.91l2.778,3.98Z" style="fill-rule:nonzero;"/></g><g><path d="M157.91,48.322l-1.001,-0l-2.021,-3.13l-0.889,-0l-0,3.13l-0.801,-0l0,-6.89l1.948,-0c0.655,-0 1.172,0.159 1.551,0.476c0.379,0.317 0.569,0.759 0.569,1.326c-0,0.42 -0.139,0.793 -0.415,1.12c-0.277,0.328 -0.658,0.55 -1.143,0.667l2.202,3.301Zm-3.911,-3.828l1.011,-0c0.423,-0 0.766,-0.115 1.03,-0.345c0.264,-0.229 0.396,-0.518 0.396,-0.866c-0,-0.769 -0.469,-1.153 -1.407,-1.153l-1.03,0l-0,2.364Z" style="fill-rule:nonzero;"/><path d="M162.646,42.194c-0.41,-0.14 -0.799,-0.21 -1.167,-0.21c-0.416,-0 -0.756,0.095 -1.018,0.285c-0.262,0.191 -0.393,0.462 -0.393,0.813c0,0.417 0.344,0.783 1.031,1.099c0.507,0.234 0.844,0.397 1.008,0.488c0.164,0.091 0.331,0.217 0.5,0.376c0.17,0.16 0.306,0.348 0.408,0.564c0.103,0.217 0.154,0.46 0.154,0.73c-0,0.671 -0.226,1.191 -0.676,1.56c-0.451,0.37 -0.983,0.554 -1.595,0.554c-0.592,0 -1.111,-0.117 -1.557,-0.351l0.166,-0.689c0.524,0.238 0.981,0.357 1.372,0.357c0.456,-0 0.821,-0.118 1.096,-0.354c0.275,-0.236 0.413,-0.561 0.413,-0.974c-0,-0.306 -0.09,-0.566 -0.269,-0.779c-0.179,-0.213 -0.509,-0.431 -0.991,-0.652c-0.495,-0.228 -0.815,-0.383 -0.96,-0.466c-0.144,-0.083 -0.288,-0.198 -0.432,-0.344c-0.143,-0.147 -0.254,-0.311 -0.332,-0.494c-0.078,-0.182 -0.117,-0.38 -0.117,-0.595c0,-0.57 0.205,-1.014 0.615,-1.333c0.41,-0.319 0.93,-0.479 1.558,-0.479c0.459,0 0.915,0.07 1.367,0.21l-0.181,0.684Z" style="fill-rule:nonzero;"/><path d="M169.712,42.081l-2.124,0l-0,6.241l-0.796,-0l-0,-6.241l-2.134,0l0,-0.649l5.054,-0l-0,0.649Z" style="fill-rule:nonzero;"/></g><g><path d="M20.147,90.991l-3.75,-0l-0,-6.89l0.801,0l-0,6.192l2.949,-0l-0,0.698Z" style="fill-rule:nonzero;"/><path d="M25.996,90.991l-3.598,-0l-0,-6.89l3.569,0l0,0.699l-2.768,-0l-0,2.133l2.661,0l-0,0.699l-2.661,-0l-0,2.661l2.797,-0l0,0.698Z" style="fill-rule:nonzero;"/><path d="M32.227,90.991l-0.889,-0l-2.471,-5.439l0,5.439l-0.8,-0l-0,-6.89l0.893,0l2.481,5.391l-0,-5.391l0.786,0l-0,6.89Z" style="fill-rule:nonzero;"/></g><g><path d="M47.699,84.101l1.748,0c0.661,0 1.19,0.166 1.587,0.498c0.397,0.332 0.596,0.79 0.596,1.372c-0,0.586 -0.198,1.054 -0.593,1.404c-0.396,0.35 -0.914,0.525 -1.556,0.525l-0.981,0l-0,3.091l-0.801,-0l0,-6.89Zm0.801,3.101l0.869,-0c0.941,-0 1.411,-0.394 1.411,-1.182c0,-0.364 -0.128,-0.659 -0.383,-0.884c-0.256,-0.224 -0.585,-0.336 -0.989,-0.336l-0.908,-0l-0,2.402Z" style="fill-rule:nonzero;"/><path d="M58.192,90.991l-0.839,-0l-0.762,-2.412l-2.261,-0l-0.771,2.412l-0.831,-0l2.251,-6.89l0.962,0l2.251,6.89Zm-1.831,-3.11l-0.903,-2.852l-0.898,2.852l1.801,-0Z" style="fill-rule:nonzero;"/><path d="M63.983,84.751l-2.124,-0l0,6.24l-0.796,-0l0,-6.24l-2.133,-0l-0,-0.65l5.053,0l0,0.65Z" style="fill-rule:nonzero;"/><path d="M69.984,84.751l-2.124,-0l0,6.24l-0.796,-0l0,-6.24l-2.133,-0l-0,-0.65l5.053,0l0,0.65Z" style="fill-rule:nonzero;"/></g><g><path d="M89.912,90.991l-1.001,-0l-2.021,-3.13l-0.889,0l0,3.13l-0.801,-0l0,-6.89l1.949,0c0.654,0 1.171,0.159 1.55,0.476c0.379,0.318 0.569,0.76 0.569,1.326c-0,0.42 -0.139,0.794 -0.415,1.121c-0.277,0.327 -0.658,0.549 -1.143,0.666l2.202,3.301Zm-3.911,-3.828l1.011,-0c0.423,-0 0.766,-0.115 1.03,-0.344c0.264,-0.23 0.396,-0.519 0.396,-0.867c-0,-0.768 -0.469,-1.152 -1.407,-1.152l-1.03,-0l0,2.363Z" style="fill-rule:nonzero;"/><path d="M95.259,90.991l-0.889,-0l-2.47,-5.439l-0,5.439l-0.801,-0l-0,-6.89l0.893,0l2.481,5.391l-0,-5.391l0.786,0l-0,6.89Z" style="fill-rule:nonzero;"/><path d="M97.202,84.101l1.358,0c0.901,0 1.624,0.307 2.168,0.921c0.543,0.613 0.815,1.456 0.815,2.527c0,1.093 -0.276,1.94 -0.827,2.541c-0.552,0.601 -1.259,0.901 -2.122,0.901l-1.392,-0l0,-6.89Zm0.801,6.192l0.567,-0c0.654,-0 1.171,-0.243 1.552,-0.728c0.381,-0.485 0.572,-1.157 0.572,-2.016c-0,-0.853 -0.192,-1.525 -0.574,-2.015c-0.383,-0.489 -0.899,-0.734 -1.55,-0.734l-0.567,-0l0,5.493Z" style="fill-rule:nonzero;"/></g><g><path d="M122.843,90.991l-3.129,-0l-0,-0.698l1.186,-0l0,-5.493l-1.186,-0l-0,-0.699l3.129,0l0,0.699l-1.142,-0l-0,5.493l1.142,-0l0,0.698Z" style="fill-rule:nonzero;"/><path d="M129.391,90.991l-0.888,-0l-2.471,-5.439l-0,5.439l-0.801,-0l0,-6.89l0.894,0l2.48,5.391l0,-5.391l0.786,0l0,6.89Z" style="fill-rule:nonzero;"/><path d="M136.032,84.101l-2.246,6.89l-0.962,-0l-2.251,-6.89l0.84,0l1.889,5.962l1.9,-5.962l0.83,0Z" style="fill-rule:nonzero;"/></g><g><path d="M154.331,84.101l1.358,0c0.901,0 1.624,0.307 2.168,0.921c0.543,0.613 0.815,1.456 0.815,2.527c-0,1.093 -0.276,1.94 -0.828,2.541c-0.551,0.601 -1.259,0.901 -2.121,0.901l-1.392,-0l0,-6.89Zm0.801,6.192l0.566,-0c0.655,-0 1.172,-0.243 1.553,-0.728c0.381,-0.485 0.571,-1.157 0.571,-2.016c0,-0.853 -0.191,-1.525 -0.573,-2.015c-0.383,-0.489 -0.9,-0.734 -1.551,-0.734l-0.566,-0l-0,5.493Z" style="fill-rule:nonzero;"/><path d="M163.843,90.991l-3.13,-0l-0,-0.698l1.186,-0l0,-5.493l-1.186,-0l-0,-0.699l3.13,0l-0,0.699l-1.143,-0l0,5.493l1.143,-0l-0,0.698Z" style="fill-rule:nonzero;"/><path d="M170.532,90.991l-0.771,-0l-0,-5.908l-1.04,2.827l-0.757,-0l-1.04,-2.827l-0,5.908l-0.772,-0l0,-6.89l1.04,0l1.153,3.14l1.147,-3.14l1.04,0l0,6.89Z" style="fill-rule:nonzero;"/></g><path d="M93.372,104.814l-0,233.067" style="fill:none;stroke:#000;stroke-width:1px;"/><path d="M127.902,104.814l-0,233.067" style="fill:none;stroke:#000;stroke-width:1px;"/><path d="M162.432,104.814l-0,233.067" style="fill:none;stroke:#000;stroke-width:1px;"/><path d="M24.312,104.814l-0,213.255" style="fill:none;stroke:#000;stroke-width:1px;"/><path d="M58.842,104.947l-0,213.255" style="fill:none;stroke:#000;stroke-width:1px;"/></g></g></svg>