<?xml version="1.0" encoding="UTF-8" standalone="no"?><!DOCTYPE svg PUBLIC "-//W3C//DTD SVG 1.1//EN" "http://www.w3.org/Graphics/SVG/1.1/DTD/svg11.dtd"><svg width="100%" height="100%" viewBox="0 0 495 380" version="1.1" xmlns="http://www.w3.org/2000/svg" xmlns:xlink="http://www.w3.org/1999/xlink" xml:space="preserve" xmlns:serif="http://www.serif.com/" style="fill-rule:evenodd;clip-rule:evenodd;stroke-linecap:square;stroke-linejoin:round;stroke-miterlimit:1.5;"><rect id="StochSeq" x="0" y="0" width="495" height="379.559" style="fill:none;"/><clipPath id="_clip1"><rect x="0" y="0" width="495" height="379.559"/></clipPath><g clip-path="url(#_clip1)"><g id="Layer1"><rect id="rect" x="-0.145" y="0" width="495" height="379.559" style="fill:#e6e6e6;"/><path d="M399.508,237.337l37.667,0" style="fill:none;stroke:#000;stroke-width:0.5px;"/><rect id="rect1" serif:id="rect" x="7.355" y="86.725" width="480" height="102.941" style="fill:#282828;"/><rect x="326.013" y="217.837" width="92.329" height="39" style="fill:#282828;fill-opacity:0.5;"/><path d="M40.768,307.222l411.763,-0" style="fill:none;stroke:#7f7f7f;stroke-width:1px;stroke-linecap:butt;"/><path d="M138.658,295.222l-0,24" style="fill:none;stroke:#7f7f7f;stroke-width:1px;stroke-linecap:butt;"/><path d="M246.65,295.222l-0,24" style="fill:none;stroke:#7f7f7f;stroke-width:1px;stroke-linecap:butt;"/><path d="M354.641,295.222l0,24" style="fill:none;stroke:#7f7f7f;stroke-width:1px;stroke-linecap:butt;"/><g><path d="M344.728,24.662c-1.088,0 -1.917,-0.336 -2.488,-1.008c-0.571,-0.672 -0.888,-1.594 -0.952,-2.768l1.6,-0.432c0.053,0.832 0.216,1.504 0.488,2.016c0.272,0.512 0.723,0.768 1.352,0.768c0.469,0 0.824,-0.13 1.064,-0.392c0.24,-0.261 0.36,-0.637 0.36,-1.128c-0,-0.533 -0.112,-0.976 -0.336,-1.328c-0.224,-0.352 -0.581,-0.741 -1.072,-1.168l-2.176,-1.92c-0.437,-0.384 -0.755,-0.797 -0.952,-1.24c-0.197,-0.442 -0.296,-0.984 -0.296,-1.624c-0,-0.949 0.272,-1.685 0.816,-2.208c0.544,-0.522 1.285,-0.784 2.224,-0.784c1.024,0 1.797,0.272 2.32,0.816c0.523,0.544 0.837,1.387 0.944,2.528l-1.536,0.416c-0.053,-0.757 -0.2,-1.341 -0.44,-1.752c-0.24,-0.41 -0.669,-0.616 -1.288,-0.616c-0.459,0 -0.811,0.12 -1.056,0.36c-0.245,0.24 -0.368,0.595 -0.368,1.064c-0,0.384 0.064,0.707 0.192,0.968c0.128,0.262 0.347,0.526 0.656,0.792l2.192,1.92c0.565,0.502 1.016,1.046 1.352,1.632c0.336,0.587 0.504,1.254 0.504,2c-0,0.95 -0.288,1.702 -0.864,2.256c-0.576,0.555 -1.323,0.832 -2.24,0.832Z" style="fill:#231f20;fill-rule:nonzero;"/><path d="M351.56,24.646c-1.333,0 -2,-0.736 -2,-2.208l-0,-6.032l-0.976,0l-0,-1.136l0.976,0l-0,-2.704l1.712,0l-0,2.704l1.488,0l-0,1.136l-1.488,0l-0,5.92c-0,0.374 0.059,0.635 0.176,0.784c0.117,0.15 0.341,0.224 0.672,0.224c0.213,0 0.421,-0.016 0.624,-0.048l-0,1.264c-0.427,0.064 -0.821,0.096 -1.184,0.096Z" style="fill:#231f20;fill-rule:nonzero;"/><path d="M356.568,24.646c-0.981,0 -1.677,-0.29 -2.088,-0.872c-0.411,-0.581 -0.616,-1.426 -0.616,-2.536l-0,-2.688c-0,-1.109 0.205,-1.954 0.616,-2.536c0.411,-0.581 1.107,-0.872 2.088,-0.872c0.971,0 1.661,0.291 2.072,0.872c0.411,0.582 0.616,1.427 0.616,2.536l-0,2.688c-0,1.11 -0.205,1.955 -0.616,2.536c-0.411,0.582 -1.101,0.872 -2.072,0.872Zm-0,-1.264c0.309,0 0.533,-0.09 0.672,-0.272c0.139,-0.181 0.224,-0.405 0.256,-0.672c0.032,-0.266 0.048,-0.629 0.048,-1.088l-0,-2.896c-0,-0.458 -0.016,-0.824 -0.048,-1.096c-0.032,-0.272 -0.117,-0.498 -0.256,-0.68c-0.139,-0.181 -0.363,-0.272 -0.672,-0.272c-0.309,0 -0.536,0.091 -0.68,0.272c-0.144,0.182 -0.232,0.408 -0.264,0.68c-0.032,0.272 -0.048,0.638 -0.048,1.096l-0,2.896c-0,0.459 0.016,0.822 0.048,1.088c0.032,0.267 0.12,0.491 0.264,0.672c0.144,0.182 0.371,0.272 0.68,0.272Z" style="fill:#231f20;fill-rule:nonzero;"/><path d="M363.352,24.646c-0.725,0 -1.285,-0.146 -1.68,-0.44c-0.395,-0.293 -0.664,-0.704 -0.808,-1.232c-0.144,-0.528 -0.216,-1.197 -0.216,-2.008l-0,-2.128c-0,-0.832 0.072,-1.514 0.216,-2.048c0.144,-0.533 0.413,-0.941 0.808,-1.224c0.395,-0.282 0.955,-0.424 1.68,-0.424c0.661,0 1.176,0.107 1.544,0.32c0.368,0.214 0.624,0.531 0.768,0.952c0.144,0.422 0.216,0.968 0.216,1.64l-0,0.544l-1.552,0l-0,-0.56c-0,-0.608 -0.067,-1.032 -0.2,-1.272c-0.133,-0.24 -0.387,-0.36 -0.76,-0.36c-0.288,0 -0.501,0.064 -0.64,0.192c-0.139,0.128 -0.235,0.336 -0.288,0.624c-0.053,0.288 -0.08,0.71 -0.08,1.264l-0,2.912c-0,0.534 0.032,0.942 0.096,1.224c0.064,0.283 0.168,0.48 0.312,0.592c0.144,0.112 0.349,0.168 0.616,0.168c0.395,0 0.651,-0.13 0.768,-0.392c0.117,-0.261 0.176,-0.664 0.176,-1.208l-0,-0.752l1.552,0l-0,0.64c-0,1.003 -0.184,1.75 -0.552,2.24c-0.368,0.491 -1.027,0.736 -1.976,0.736Z" style="fill:#231f20;fill-rule:nonzero;"/><path d="M367.448,11.558l1.712,0l-0,4.672c0.768,-0.725 1.541,-1.088 2.32,-1.088c0.501,0 0.856,0.182 1.064,0.544c0.208,0.363 0.312,0.811 0.312,1.344l-0,7.488l-1.712,0l-0,-6.992c-0,-0.352 -0.053,-0.613 -0.16,-0.784c-0.107,-0.17 -0.299,-0.256 -0.576,-0.256c-0.373,0 -0.789,0.203 -1.248,0.608l-0,7.424l-1.712,0l-0,-12.96Z" style="fill:#231f20;fill-rule:nonzero;"/><path d="M376.184,24.646c-0.352,0 -0.669,-0.101 -0.952,-0.304c-0.283,-0.202 -0.504,-0.469 -0.664,-0.8c-0.16,-0.33 -0.24,-0.677 -0.24,-1.04c-0,-0.725 0.155,-1.314 0.464,-1.768c0.309,-0.453 0.704,-0.813 1.184,-1.08c0.48,-0.266 1.147,-0.57 2,-0.912l-0,-0.656c-0,-0.608 -0.061,-1.037 -0.184,-1.288c-0.123,-0.25 -0.371,-0.376 -0.744,-0.376c-0.651,0 -0.976,0.438 -0.976,1.312l-0,0.464l-1.696,-0.064c0.021,-1.024 0.256,-1.778 0.704,-2.264c0.448,-0.485 1.141,-0.728 2.08,-0.728c0.885,0 1.528,0.243 1.928,0.728c0.4,0.486 0.6,1.219 0.6,2.2l-0,4.224c-0,0.694 0.053,1.435 0.16,2.224l-1.568,0c-0.117,-0.608 -0.192,-1.061 -0.224,-1.36c-0.128,0.416 -0.349,0.768 -0.664,1.056c-0.315,0.288 -0.717,0.432 -1.208,0.432Zm0.672,-1.472c0.224,0 0.443,-0.088 0.656,-0.264c0.213,-0.176 0.368,-0.344 0.464,-0.504l-0,-2.624c-0.459,0.256 -0.813,0.478 -1.064,0.664c-0.251,0.187 -0.459,0.403 -0.624,0.648c-0.165,0.246 -0.248,0.539 -0.248,0.88c-0,0.384 0.069,0.68 0.208,0.888c0.139,0.208 0.341,0.312 0.608,0.312Z" style="fill:#231f20;fill-rule:nonzero;"/><path d="M383.48,24.646c-0.747,0 -1.352,-0.234 -1.816,-0.704c-0.464,-0.469 -0.728,-1.098 -0.792,-1.888l1.424,-0.432c0.085,0.598 0.232,1.04 0.44,1.328c0.208,0.288 0.504,0.432 0.888,0.432c0.299,0 0.531,-0.088 0.696,-0.264c0.165,-0.176 0.248,-0.413 0.248,-0.712c-0,-0.266 -0.059,-0.506 -0.176,-0.72c-0.117,-0.213 -0.309,-0.432 -0.576,-0.656l-1.584,-1.36c-0.363,-0.309 -0.643,-0.637 -0.84,-0.984c-0.197,-0.346 -0.296,-0.77 -0.296,-1.272c-0,-0.714 0.213,-1.272 0.64,-1.672c0.427,-0.4 1.008,-0.6 1.744,-0.6c0.704,0 1.256,0.227 1.656,0.68c0.4,0.454 0.632,1.038 0.696,1.752l-1.152,0.432c-0.075,-0.522 -0.197,-0.92 -0.368,-1.192c-0.171,-0.272 -0.427,-0.408 -0.768,-0.408c-0.277,0 -0.499,0.091 -0.664,0.272c-0.165,0.182 -0.248,0.406 -0.248,0.672c-0,0.342 0.155,0.651 0.464,0.928l1.632,1.504c0.416,0.384 0.739,0.763 0.968,1.136c0.229,0.374 0.344,0.827 0.344,1.36c-0,0.768 -0.229,1.355 -0.688,1.76c-0.459,0.406 -1.083,0.608 -1.872,0.608Z" style="fill:#231f20;fill-rule:nonzero;"/><path d="M389.784,24.646c-1.333,0 -2,-0.736 -2,-2.208l-0,-6.032l-0.976,0l-0,-1.136l0.976,0l-0,-2.704l1.712,0l-0,2.704l1.488,0l-0,1.136l-1.488,0l-0,5.92c-0,0.374 0.059,0.635 0.176,0.784c0.117,0.15 0.341,0.224 0.672,0.224c0.213,0 0.421,-0.016 0.624,-0.048l-0,1.264c-0.427,0.064 -0.821,0.096 -1.184,0.096Z" style="fill:#231f20;fill-rule:nonzero;"/><path d="M392.36,12.102l1.712,0l-0,1.792l-1.712,0l-0,-1.792Zm-0,3.168l1.712,0l-0,9.248l-1.712,0l-0,-9.248Z" style="fill:#231f20;fill-rule:nonzero;"/><path d="M398.44,24.646c-0.725,0 -1.285,-0.146 -1.68,-0.44c-0.395,-0.293 -0.664,-0.704 -0.808,-1.232c-0.144,-0.528 -0.216,-1.197 -0.216,-2.008l-0,-2.128c-0,-0.832 0.072,-1.514 0.216,-2.048c0.144,-0.533 0.413,-0.941 0.808,-1.224c0.395,-0.282 0.955,-0.424 1.68,-0.424c0.661,0 1.176,0.107 1.544,0.32c0.368,0.214 0.624,0.531 0.768,0.952c0.144,0.422 0.216,0.968 0.216,1.64l-0,0.544l-1.552,0l-0,-0.56c-0,-0.608 -0.067,-1.032 -0.2,-1.272c-0.133,-0.24 -0.387,-0.36 -0.76,-0.36c-0.288,0 -0.501,0.064 -0.64,0.192c-0.139,0.128 -0.235,0.336 -0.288,0.624c-0.053,0.288 -0.08,0.71 -0.08,1.264l-0,2.912c-0,0.534 0.032,0.942 0.096,1.224c0.064,0.283 0.168,0.48 0.312,0.592c0.144,0.112 0.349,0.168 0.616,0.168c0.395,0 0.651,-0.13 0.768,-0.392c0.117,-0.261 0.176,-0.664 0.176,-1.208l-0,-0.752l1.552,0l-0,0.64c-0,1.003 -0.184,1.75 -0.552,2.24c-0.368,0.491 -1.027,0.736 -1.976,0.736Z" style="fill:#231f20;fill-rule:nonzero;"/><path d="M409.352,24.662c-1.088,0 -1.917,-0.336 -2.488,-1.008c-0.571,-0.672 -0.888,-1.594 -0.952,-2.768l1.6,-0.432c0.053,0.832 0.216,1.504 0.488,2.016c0.272,0.512 0.723,0.768 1.352,0.768c0.469,0 0.824,-0.13 1.064,-0.392c0.24,-0.261 0.36,-0.637 0.36,-1.128c-0,-0.533 -0.112,-0.976 -0.336,-1.328c-0.224,-0.352 -0.581,-0.741 -1.072,-1.168l-2.176,-1.92c-0.437,-0.384 -0.755,-0.797 -0.952,-1.24c-0.197,-0.442 -0.296,-0.984 -0.296,-1.624c-0,-0.949 0.272,-1.685 0.816,-2.208c0.544,-0.522 1.285,-0.784 2.224,-0.784c1.024,0 1.797,0.272 2.32,0.816c0.523,0.544 0.837,1.387 0.944,2.528l-1.536,0.416c-0.053,-0.757 -0.2,-1.341 -0.44,-1.752c-0.24,-0.41 -0.669,-0.616 -1.288,-0.616c-0.459,0 -0.811,0.12 -1.056,0.36c-0.245,0.24 -0.368,0.595 -0.368,1.064c-0,0.384 0.064,0.707 0.192,0.968c0.128,0.262 0.347,0.526 0.656,0.792l2.192,1.92c0.565,0.502 1.016,1.046 1.352,1.632c0.336,0.587 0.504,1.254 0.504,2c-0,0.95 -0.288,1.702 -0.864,2.256c-0.576,0.555 -1.323,0.832 -2.24,0.832Z" style="fill:#231f20;fill-rule:nonzero;"/><path d="M416.28,24.646c-0.715,0 -1.269,-0.136 -1.664,-0.408c-0.395,-0.272 -0.672,-0.674 -0.832,-1.208c-0.16,-0.533 -0.24,-1.226 -0.24,-2.08l-0,-2.112c-0,-1.28 0.2,-2.216 0.6,-2.808c0.4,-0.592 1.112,-0.888 2.136,-0.888c0.747,0 1.309,0.155 1.688,0.464c0.379,0.31 0.629,0.744 0.752,1.304c0.123,0.56 0.184,1.315 0.184,2.264l-0,0.752l-3.648,0l-0,1.856c-0,0.566 0.083,0.974 0.248,1.224c0.165,0.251 0.429,0.376 0.792,0.376c0.363,0 0.608,-0.125 0.736,-0.376c0.128,-0.25 0.192,-0.632 0.192,-1.144l-0,-0.56l1.664,0l-0,0.352c-0,0.971 -0.208,1.712 -0.624,2.224c-0.416,0.512 -1.077,0.768 -1.984,0.768Zm0.944,-5.648l-0,-0.832c-0,-0.629 -0.061,-1.08 -0.184,-1.352c-0.123,-0.272 -0.381,-0.408 -0.776,-0.408c-0.277,0 -0.488,0.064 -0.632,0.192c-0.144,0.128 -0.243,0.339 -0.296,0.632c-0.053,0.294 -0.08,0.718 -0.08,1.272l-0,0.496l1.968,0Z" style="fill:#231f20;fill-rule:nonzero;"/><path d="M424.104,23.926c-0.448,0.48 -0.944,0.72 -1.488,0.72c-0.8,0 -1.387,-0.29 -1.76,-0.872c-0.373,-0.581 -0.56,-1.544 -0.56,-2.888l-0,-1.792c-0,-1.226 0.163,-2.192 0.488,-2.896c0.325,-0.704 0.92,-1.056 1.784,-1.056c0.544,0 1.056,0.24 1.536,0.72l-0,-0.592l1.712,0l-0,12.288l-1.712,0l-0,-3.632Zm-1.056,-0.624c0.363,0 0.715,-0.117 1.056,-0.352l-0,-6.064c-0.395,-0.266 -0.757,-0.4 -1.088,-0.4c-0.672,0 -1.008,0.646 -1.008,1.936l-0,2.608c-0,0.747 0.069,1.312 0.208,1.696c0.139,0.384 0.416,0.576 0.832,0.576Z" style="fill:#231f20;fill-rule:nonzero;"/><path d="M428.872,24.646c-0.501,0 -0.859,-0.181 -1.072,-0.544c-0.213,-0.362 -0.32,-0.81 -0.32,-1.344l-0,-7.488l1.712,0l-0,6.976c-0,0.352 0.053,0.616 0.16,0.792c0.107,0.176 0.299,0.264 0.576,0.264c0.341,0 0.741,-0.192 1.2,-0.576l-0,-7.456l1.712,0l-0,9.248l-1.712,0l-0,-0.912c-0.736,0.694 -1.488,1.04 -2.256,1.04Z" style="fill:#231f20;fill-rule:nonzero;"/><path d="M437.144,24.646c-0.715,0 -1.269,-0.136 -1.664,-0.408c-0.395,-0.272 -0.672,-0.674 -0.832,-1.208c-0.16,-0.533 -0.24,-1.226 -0.24,-2.08l-0,-2.112c-0,-1.28 0.2,-2.216 0.6,-2.808c0.4,-0.592 1.112,-0.888 2.136,-0.888c0.747,0 1.309,0.155 1.688,0.464c0.379,0.31 0.629,0.744 0.752,1.304c0.123,0.56 0.184,1.315 0.184,2.264l-0,0.752l-3.648,0l-0,1.856c-0,0.566 0.083,0.974 0.248,1.224c0.165,0.251 0.429,0.376 0.792,0.376c0.363,0 0.608,-0.125 0.736,-0.376c0.128,-0.25 0.192,-0.632 0.192,-1.144l-0,-0.56l1.664,0l-0,0.352c-0,0.971 -0.208,1.712 -0.624,2.224c-0.416,0.512 -1.077,0.768 -1.984,0.768Zm0.944,-5.648l-0,-0.832c-0,-0.629 -0.061,-1.08 -0.184,-1.352c-0.123,-0.272 -0.381,-0.408 -0.776,-0.408c-0.277,0 -0.488,0.064 -0.632,0.192c-0.144,0.128 -0.243,0.339 -0.296,0.632c-0.053,0.294 -0.08,0.718 -0.08,1.272l-0,0.496l1.968,0Z" style="fill:#231f20;fill-rule:nonzero;"/><path d="M441.32,15.27l1.712,0l-0,0.912c0.736,-0.693 1.488,-1.04 2.256,-1.04c0.501,0 0.859,0.182 1.072,0.544c0.213,0.363 0.32,0.811 0.32,1.344l-0,7.488l-1.712,0l-0,-6.992c-0,-0.352 -0.053,-0.613 -0.16,-0.784c-0.107,-0.17 -0.299,-0.256 -0.576,-0.256c-0.341,0 -0.741,0.192 -1.2,0.576l-0,7.456l-1.712,0l-0,-9.248Z" style="fill:#231f20;fill-rule:nonzero;"/><path d="M450.872,24.646c-0.725,0 -1.285,-0.146 -1.68,-0.44c-0.395,-0.293 -0.664,-0.704 -0.808,-1.232c-0.144,-0.528 -0.216,-1.197 -0.216,-2.008l-0,-2.128c-0,-0.832 0.072,-1.514 0.216,-2.048c0.144,-0.533 0.413,-0.941 0.808,-1.224c0.395,-0.282 0.955,-0.424 1.68,-0.424c0.661,0 1.176,0.107 1.544,0.32c0.368,0.214 0.624,0.531 0.768,0.952c0.144,0.422 0.216,0.968 0.216,1.64l-0,0.544l-1.552,0l-0,-0.56c-0,-0.608 -0.067,-1.032 -0.2,-1.272c-0.133,-0.24 -0.387,-0.36 -0.76,-0.36c-0.288,0 -0.501,0.064 -0.64,0.192c-0.139,0.128 -0.235,0.336 -0.288,0.624c-0.053,0.288 -0.08,0.71 -0.08,1.264l-0,2.912c-0,0.534 0.032,0.942 0.096,1.224c0.064,0.283 0.168,0.48 0.312,0.592c0.144,0.112 0.349,0.168 0.616,0.168c0.395,0 0.651,-0.13 0.768,-0.392c0.117,-0.261 0.176,-0.664 0.176,-1.208l-0,-0.752l1.552,0l-0,0.64c-0,1.003 -0.184,1.75 -0.552,2.24c-0.368,0.491 -1.027,0.736 -1.976,0.736Z" style="fill:#231f20;fill-rule:nonzero;"/><path d="M457.48,24.646c-0.715,0 -1.269,-0.136 -1.664,-0.408c-0.395,-0.272 -0.672,-0.674 -0.832,-1.208c-0.16,-0.533 -0.24,-1.226 -0.24,-2.08l-0,-2.112c-0,-1.28 0.2,-2.216 0.6,-2.808c0.4,-0.592 1.112,-0.888 2.136,-0.888c0.747,0 1.309,0.155 1.688,0.464c0.379,0.31 0.629,0.744 0.752,1.304c0.123,0.56 0.184,1.315 0.184,2.264l-0,0.752l-3.648,0l-0,1.856c-0,0.566 0.083,0.974 0.248,1.224c0.165,0.251 0.429,0.376 0.792,0.376c0.363,0 0.608,-0.125 0.736,-0.376c0.128,-0.25 0.192,-0.632 0.192,-1.144l-0,-0.56l1.664,0l-0,0.352c-0,0.971 -0.208,1.712 -0.624,2.224c-0.416,0.512 -1.077,0.768 -1.984,0.768Zm0.944,-5.648l-0,-0.832c-0,-0.629 -0.061,-1.08 -0.184,-1.352c-0.123,-0.272 -0.381,-0.408 -0.776,-0.408c-0.277,0 -0.488,0.064 -0.632,0.192c-0.144,0.128 -0.243,0.339 -0.296,0.632c-0.053,0.294 -0.08,0.718 -0.08,1.272l-0,0.496l1.968,0Z" style="fill:#231f20;fill-rule:nonzero;"/><path d="M461.704,15.27l1.712,0l-0,1.312c0.32,-0.522 0.648,-0.89 0.984,-1.104c0.336,-0.213 0.691,-0.32 1.064,-0.32c0.096,0 0.187,0.006 0.272,0.016l-0,1.888c-0.341,-0.128 -0.656,-0.192 -0.944,-0.192c-0.277,0 -0.525,0.067 -0.744,0.2c-0.219,0.134 -0.429,0.366 -0.632,0.696l-0,6.752l-1.712,0l-0,-9.248Z" style="fill:#231f20;fill-rule:nonzero;"/></g><g><path d="M19.327,297.977l-2.899,0l0,-0.558l1.168,-0l0,-4.281l-1.101,0.55l-0,-0.64l1.191,-0.614l0.551,0l-0,4.985l1.09,-0l-0,0.558Z" style="fill-rule:nonzero;"/><rect x="21.35" y="295.481" width="2.32" height="0.594" style="fill-rule:nonzero;"/><path d="M28.928,297.977l-2.898,0l-0,-0.558l1.168,-0l-0,-4.281l-1.102,0.55l0,-0.64l1.192,-0.614l0.551,0l-0,4.985l1.089,-0l0,0.558Z" style="fill-rule:nonzero;"/><path d="M31.167,295.106c0.343,-0.278 0.717,-0.418 1.121,-0.418c0.466,0 0.855,0.149 1.166,0.448c0.311,0.298 0.467,0.683 0.467,1.154c-0,0.518 -0.138,0.947 -0.414,1.285c-0.277,0.339 -0.645,0.508 -1.106,0.508c-0.588,-0 -1.055,-0.27 -1.398,-0.811c-0.344,-0.54 -0.516,-1.201 -0.516,-1.982c-0,-0.833 0.179,-1.53 0.537,-2.09c0.358,-0.56 0.848,-0.84 1.471,-0.84c0.429,0 0.801,0.064 1.113,0.192l-0.101,0.57c-0.362,-0.133 -0.693,-0.199 -0.993,-0.199c-0.424,-0 -0.755,0.203 -0.992,0.609c-0.237,0.406 -0.355,0.931 -0.355,1.574Zm0.019,0.551c0,0.471 0.111,0.9 0.332,1.285c0.222,0.386 0.5,0.578 0.836,0.578c0.284,0 0.503,-0.104 0.656,-0.312c0.154,-0.208 0.231,-0.496 0.231,-0.863c-0,-0.339 -0.085,-0.606 -0.254,-0.801c-0.169,-0.195 -0.408,-0.293 -0.715,-0.293c-0.398,-0 -0.76,0.135 -1.086,0.406Z" style="fill-rule:nonzero;"/></g><g><path d="M14.862,321.977l-2.898,0l-0,-0.558l1.168,-0l-0,-4.281l-1.102,0.55l-0,-0.64l1.191,-0.614l0.551,0l0,4.985l1.09,-0l-0,0.558Z" style="fill-rule:nonzero;"/><path d="M19.733,316.923l-2.184,5.054l-0.656,0l2.153,-4.953l-2.582,0l-0,-0.558l3.269,-0l0,0.457Z" style="fill-rule:nonzero;"/><rect x="21.686" y="319.481" width="2.32" height="0.594" style="fill-rule:nonzero;"/><path d="M28.03,319.017c0.336,0.093 0.605,0.264 0.809,0.513c0.203,0.249 0.304,0.528 0.304,0.838c0,0.484 -0.189,0.891 -0.566,1.221c-0.378,0.329 -0.823,0.494 -1.336,0.494c-0.438,-0 -0.83,-0.096 -1.176,-0.289l0.125,-0.527c0.362,0.169 0.72,0.253 1.074,0.253c0.334,0 0.618,-0.103 0.854,-0.31c0.236,-0.207 0.353,-0.473 0.353,-0.799c0,-0.32 -0.126,-0.581 -0.379,-0.781c-0.252,-0.201 -0.587,-0.301 -1.003,-0.301l-0.168,0l-0,-0.527l0.046,-0c0.401,-0 0.732,-0.095 0.993,-0.284c0.26,-0.188 0.39,-0.443 0.39,-0.763c0,-0.261 -0.093,-0.464 -0.281,-0.612c-0.187,-0.147 -0.445,-0.22 -0.773,-0.22c-0.284,-0 -0.602,0.077 -0.954,0.23l-0.085,-0.551c0.354,-0.161 0.71,-0.242 1.07,-0.242c0.492,0 0.898,0.13 1.217,0.389c0.319,0.259 0.478,0.592 0.478,0.998c0,0.281 -0.097,0.544 -0.291,0.787c-0.194,0.244 -0.428,0.397 -0.701,0.459l-0,0.024Z" style="fill-rule:nonzero;"/><path d="M33.921,321.977l-3.032,0l0,-0.464c0.769,-0.857 1.267,-1.431 1.496,-1.723c0.23,-0.292 0.416,-0.598 0.559,-0.918c0.143,-0.32 0.215,-0.639 0.215,-0.957c-0,-0.307 -0.093,-0.55 -0.279,-0.727c-0.187,-0.177 -0.448,-0.265 -0.784,-0.265c-0.257,-0 -0.604,0.079 -1.039,0.238l-0.09,-0.551c0.394,-0.166 0.805,-0.25 1.235,-0.25c0.492,0 0.889,0.139 1.189,0.416c0.301,0.278 0.451,0.648 0.451,1.112c0,0.33 -0.077,0.658 -0.232,0.984c-0.155,0.325 -0.353,0.638 -0.596,0.937c-0.242,0.3 -0.713,0.836 -1.414,1.61l2.321,-0l-0,0.558Z" style="fill-rule:nonzero;"/></g><path d="M225.5,280.959l-186.845,-0" style="fill:none;stroke:#000;stroke-width:1px;stroke-linecap:butt;"/><path d="M267.799,280.959l186.845,-0" style="fill:none;stroke:#000;stroke-width:1px;stroke-linecap:butt;"/><g><circle cx="149.258" cy="21.25" r="0.948"/><circle cx="167.957" cy="18.682" r="2.722"/><circle cx="161.661" cy="21.383" r="2.202"/><circle cx="150.099" cy="14.476" r="1.215"/><circle cx="164.068" cy="12.705" r="0.863"/><circle cx="157.239" cy="16.393" r="1.196"/><circle cx="175.207" cy="19.757" r="2.786"/><circle cx="177.272" cy="14.649" r="1.609"/><circle cx="144.591" cy="17.34" r="3.307"/><circle cx="139.357" cy="17.819" r="3.078"/><circle cx="142.577" cy="12.005" r="2.224"/><circle cx="133.189" cy="11.807" r="1.5"/><circle cx="133.647" cy="16.845" r="2.604"/><circle cx="185.125" cy="15.894" r="2.163"/><circle cx="181.492" cy="21.692" r="0.992"/><circle cx="171.52" cy="11.783" r="1.19"/><circle cx="183.13" cy="11.982" r="0.876"/><circle cx="129.344" cy="21.495" r="2.243"/><circle cx="124.322" cy="15.559" r="2.002"/><circle cx="124.164" cy="21.525" r="1.731"/><circle cx="118.07" cy="18.609" r="0.959"/><circle cx="109.312" cy="14.288" r="3.069"/><circle cx="107.135" cy="19.82" r="2.041"/><circle cx="116.8" cy="12.465" r="1.691"/><circle cx="100.067" cy="20.483" r="1.014"/><circle cx="97.63" cy="13.23" r="1.018"/><circle cx="113.26" cy="20.667" r="3.22"/><circle cx="191.224" cy="17.332" r="2.026"/><circle cx="190.154" cy="11.792" r="2.168"/><circle cx="195.652" cy="15.085" r="2.515"/><circle cx="93.846" cy="13.397" r="1.652"/><circle cx="103.727" cy="12.525" r="3.064"/><circle cx="90.696" cy="18.978" r="2.501"/><circle cx="86.189" cy="14.003" r="1.182"/><circle cx="85.349" cy="20.71" r="1.529"/><circle cx="75.024" cy="21.436" r="3.211"/><circle cx="78.048" cy="13.048" r="3.075"/><circle cx="71.812" cy="13.946" r="3.087"/><circle cx="66.499" cy="14.235" r="2.858"/><circle cx="80.557" cy="18.82" r="1.374"/><circle cx="68.066" cy="21.083" r="0.958"/><circle cx="197.133" cy="20.085" r="1.159"/><circle cx="202.059" cy="13.195" r="2.518"/><circle cx="207.753" cy="19.024" r="1.862"/><circle cx="213.554" cy="13.65" r="1.542"/><circle cx="202.275" cy="21.649" r="2.184"/><circle cx="222.414" cy="15.246" r="2.823"/><circle cx="213.305" cy="21.482" r="1.767"/><circle cx="219.408" cy="19.651" r="1.632"/><circle cx="60.395" cy="19.32" r="2.514"/><circle cx="59.852" cy="14.132" r="1.133"/><circle cx="50.399" cy="15.367" r="0.968"/><circle cx="53.915" cy="14.228" r="1.501"/><circle cx="49.956" cy="19.196" r="1.909"/><circle cx="41.337" cy="13.764" r="1.663"/><circle cx="40.397" cy="19.673" r="0.932"/><circle cx="31.628" cy="14.766" r="1.329"/><circle cx="32.648" cy="21.214" r="2.304"/><circle cx="233.211" cy="14.29" r="1.588"/><circle cx="228.638" cy="18.751" r="2.348"/><circle cx="235.426" cy="21.364" r="2.432"/><circle cx="242.262" cy="20.641" r="3.313"/><circle cx="239.354" cy="13.627" r="2.41"/><circle cx="227.866" cy="12.252" r="0.867"/><circle cx="24.457" cy="13.904" r="2.899"/><circle cx="25.262" cy="19.89" r="0.979"/><circle cx="13.83" cy="12.059" r="1.71"/><circle cx="17.564" cy="17.251" r="2.609"/><circle cx="246.55" cy="15.247" r="2.803"/><circle cx="250.745" cy="21.229" r="1.392"/><circle cx="252.67" cy="13.112" r="1.657"/><circle cx="255.581" cy="18.59" r="2.157"/><circle cx="8.756" cy="18.743" r="1.062"/><circle cx="8.041" cy="12.335" r="3.092"/><circle cx="53.981" cy="19.426" r="2.278"/><circle cx="262.425" cy="19.165" r="1.266"/><circle cx="258.894" cy="13.3" r="2.583"/><circle cx="267.269" cy="13.575" r="2.808"/><circle cx="2.807" cy="12.53" r="2.807"/><circle cx="271.443" cy="20.995" r="2.872"/><circle cx="276.313" cy="14.379" r="2.777"/><circle cx="278.059" cy="19.889" r="2.025"/><circle cx="288.719" cy="15.26" r="2.997"/><circle cx="282.017" cy="13.555" r="3.118"/><circle cx="285.548" cy="19.775" r="2.207"/><circle cx="292.795" cy="20.136" r="3.156"/><circle cx="293.573" cy="11.728" r="2.523"/><circle cx="299.762" cy="19.056" r="1.897"/><circle cx="301.888" cy="12.026" r="3.336"/><circle cx="310.011" cy="17.001" r="2.702"/><circle cx="318.313" cy="13.703" r="1.85"/><circle cx="314.696" cy="21.364" r="2.203"/><circle cx="320.044" cy="19.832" r="1.356"/><circle cx="305.805" cy="21.207" r="1.492"/><circle cx="323.441" cy="15.209" r="2.649"/><circle cx="327.039" cy="19.723" r="1.173"/><circle cx="311.245" cy="12.051" r="1.606"/><circle cx="329.397" cy="14.025" r="1.397"/><circle cx="334.264" cy="18.56" r="2.518"/></g><g><path d="M7.691,84.037l1.256,-0l0,-4.208l-1.28,0.896l-0.312,-0.456l1.76,-1.256l0.448,-0l0,5.024l1.232,-0l0,0.576l-3.104,-0l0,-0.576Z" style="fill-rule:nonzero;"/><path d="M11.915,81.813c0,-0.453 0.04,-0.86 0.12,-1.22c0.08,-0.36 0.2,-0.664 0.36,-0.912c0.16,-0.248 0.363,-0.437 0.608,-0.568c0.246,-0.131 0.536,-0.196 0.872,-0.196c0.358,-0 0.66,0.064 0.908,0.192c0.248,0.128 0.45,0.315 0.604,0.56c0.155,0.245 0.267,0.548 0.336,0.908c0.07,0.36 0.104,0.772 0.104,1.236c0,0.453 -0.04,0.86 -0.12,1.22c-0.08,0.36 -0.2,0.664 -0.36,0.912c-0.16,0.248 -0.362,0.437 -0.608,0.568c-0.245,0.131 -0.536,0.196 -0.872,0.196c-0.352,-0 -0.652,-0.071 -0.9,-0.212c-0.248,-0.141 -0.45,-0.34 -0.608,-0.596c-0.157,-0.256 -0.27,-0.561 -0.34,-0.916c-0.069,-0.355 -0.104,-0.745 -0.104,-1.172Zm3.256,-0c0,-0.283 -0.016,-0.552 -0.048,-0.808l-2.376,2.168c0.091,0.304 0.227,0.547 0.408,0.728c0.182,0.181 0.419,0.272 0.712,0.272c0.47,-0 0.804,-0.195 1.004,-0.584c0.2,-0.389 0.3,-0.981 0.3,-1.776Zm-2.592,-0c0,0.133 0.004,0.261 0.012,0.384c0.008,0.123 0.018,0.243 0.028,0.36l2.384,-2.16c-0.09,-0.288 -0.225,-0.517 -0.404,-0.688c-0.178,-0.171 -0.42,-0.256 -0.724,-0.256c-0.474,-0 -0.809,0.196 -1.004,0.588c-0.194,0.392 -0.292,0.983 -0.292,1.772Z" style="fill-rule:nonzero;"/><path d="M16.715,81.813c0,-0.453 0.04,-0.86 0.12,-1.22c0.08,-0.36 0.2,-0.664 0.36,-0.912c0.16,-0.248 0.363,-0.437 0.608,-0.568c0.246,-0.131 0.536,-0.196 0.872,-0.196c0.358,-0 0.66,0.064 0.908,0.192c0.248,0.128 0.45,0.315 0.604,0.56c0.155,0.245 0.267,0.548 0.336,0.908c0.07,0.36 0.104,0.772 0.104,1.236c0,0.453 -0.04,0.86 -0.12,1.22c-0.08,0.36 -0.2,0.664 -0.36,0.912c-0.16,0.248 -0.362,0.437 -0.608,0.568c-0.245,0.131 -0.536,0.196 -0.872,0.196c-0.352,-0 -0.652,-0.071 -0.9,-0.212c-0.248,-0.141 -0.45,-0.34 -0.608,-0.596c-0.157,-0.256 -0.27,-0.561 -0.34,-0.916c-0.069,-0.355 -0.104,-0.745 -0.104,-1.172Zm3.256,-0c0,-0.283 -0.016,-0.552 -0.048,-0.808l-2.376,2.168c0.091,0.304 0.227,0.547 0.408,0.728c0.182,0.181 0.419,0.272 0.712,0.272c0.47,-0 0.804,-0.195 1.004,-0.584c0.2,-0.389 0.3,-0.981 0.3,-1.776Zm-2.592,-0c0,0.133 0.004,0.261 0.012,0.384c0.008,0.123 0.018,0.243 0.028,0.36l2.384,-2.16c-0.09,-0.288 -0.225,-0.517 -0.404,-0.688c-0.178,-0.171 -0.42,-0.256 -0.724,-0.256c-0.474,-0 -0.809,0.196 -1.004,0.588c-0.194,0.392 -0.292,0.983 -0.292,1.772Z" style="fill-rule:nonzero;"/><path d="M21.299,80.277c0,-0.251 0.031,-0.463 0.092,-0.636c0.062,-0.173 0.14,-0.313 0.236,-0.42c0.096,-0.107 0.206,-0.184 0.328,-0.232c0.123,-0.048 0.246,-0.072 0.368,-0.072c0.123,-0 0.246,0.021 0.368,0.064c0.123,0.043 0.232,0.116 0.328,0.22c0.096,0.104 0.175,0.243 0.236,0.416c0.062,0.173 0.092,0.393 0.092,0.66c0,0.261 -0.03,0.479 -0.092,0.652c-0.061,0.173 -0.14,0.312 -0.236,0.416c-0.096,0.104 -0.205,0.177 -0.328,0.22c-0.122,0.043 -0.245,0.064 -0.368,0.064c-0.122,-0 -0.245,-0.021 -0.368,-0.064c-0.122,-0.043 -0.232,-0.116 -0.328,-0.22c-0.096,-0.104 -0.174,-0.243 -0.236,-0.416c-0.061,-0.173 -0.092,-0.391 -0.092,-0.652Zm0.56,-0c0,0.315 0.05,0.535 0.148,0.66c0.099,0.125 0.204,0.188 0.316,0.188c0.059,-0 0.116,-0.012 0.172,-0.036c0.056,-0.024 0.106,-0.068 0.148,-0.132c0.043,-0.064 0.078,-0.151 0.104,-0.26c0.027,-0.109 0.04,-0.249 0.04,-0.42c0,-0.165 -0.013,-0.303 -0.04,-0.412c-0.026,-0.109 -0.061,-0.197 -0.104,-0.264c-0.042,-0.067 -0.092,-0.113 -0.148,-0.14c-0.056,-0.027 -0.113,-0.04 -0.172,-0.04c-0.122,-0 -0.23,0.063 -0.324,0.188c-0.093,0.125 -0.14,0.348 -0.14,0.668Zm1.736,2.984c0,-0.251 0.031,-0.463 0.092,-0.636c0.062,-0.173 0.14,-0.313 0.236,-0.42c0.096,-0.107 0.206,-0.184 0.328,-0.232c0.123,-0.048 0.246,-0.072 0.368,-0.072c0.123,-0 0.246,0.021 0.368,0.064c0.123,0.043 0.232,0.116 0.328,0.22c0.096,0.104 0.175,0.243 0.236,0.416c0.062,0.173 0.092,0.393 0.092,0.66c0,0.261 -0.03,0.479 -0.092,0.652c-0.061,0.173 -0.14,0.312 -0.236,0.416c-0.096,0.104 -0.205,0.177 -0.328,0.22c-0.122,0.043 -0.245,0.064 -0.368,0.064c-0.122,-0 -0.245,-0.021 -0.368,-0.064c-0.122,-0.043 -0.232,-0.116 -0.328,-0.22c-0.096,-0.104 -0.174,-0.243 -0.236,-0.416c-0.061,-0.173 -0.092,-0.391 -0.092,-0.652Zm0.56,-0c0,0.315 0.05,0.535 0.148,0.66c0.099,0.125 0.204,0.188 0.316,0.188c0.059,-0 0.116,-0.011 0.172,-0.032c0.056,-0.021 0.106,-0.063 0.148,-0.124c0.043,-0.061 0.078,-0.148 0.104,-0.26c0.027,-0.112 0.04,-0.256 0.04,-0.432c0,-0.165 -0.013,-0.303 -0.04,-0.412c-0.026,-0.109 -0.061,-0.197 -0.104,-0.264c-0.042,-0.067 -0.092,-0.113 -0.148,-0.14c-0.056,-0.027 -0.113,-0.04 -0.172,-0.04c-0.058,-0 -0.116,0.013 -0.172,0.04c-0.056,0.027 -0.105,0.072 -0.148,0.136c-0.042,0.064 -0.077,0.151 -0.104,0.26c-0.026,0.109 -0.04,0.249 -0.04,0.42Zm0.456,-4.392l0.456,0.232l-2.784,5.624l-0.456,-0.208l2.784,-5.648Z" style="fill-rule:nonzero;"/></g><g><path d="M7.571,194.61c0,-0.453 0.04,-0.86 0.12,-1.22c0.08,-0.36 0.2,-0.664 0.36,-0.912c0.16,-0.248 0.363,-0.437 0.608,-0.568c0.246,-0.13 0.536,-0.196 0.872,-0.196c0.358,0 0.66,0.064 0.908,0.192c0.248,0.128 0.45,0.315 0.604,0.56c0.155,0.246 0.267,0.548 0.336,0.908c0.07,0.36 0.104,0.772 0.104,1.236c0,0.454 -0.04,0.86 -0.12,1.22c-0.08,0.36 -0.2,0.664 -0.36,0.912c-0.16,0.248 -0.362,0.438 -0.608,0.568c-0.245,0.131 -0.536,0.196 -0.872,0.196c-0.352,0 -0.652,-0.07 -0.9,-0.212c-0.248,-0.141 -0.45,-0.34 -0.608,-0.596c-0.157,-0.256 -0.27,-0.561 -0.34,-0.916c-0.069,-0.354 -0.104,-0.745 -0.104,-1.172Zm3.256,0c0,-0.282 -0.016,-0.552 -0.048,-0.808l-2.376,2.168c0.091,0.304 0.227,0.547 0.408,0.728c0.182,0.182 0.419,0.272 0.712,0.272c0.47,0 0.804,-0.194 1.004,-0.584c0.2,-0.389 0.3,-0.981 0.3,-1.776Zm-2.592,0c0,0.134 0.004,0.262 0.012,0.384c0.008,0.123 0.018,0.243 0.028,0.36l2.384,-2.16c-0.09,-0.288 -0.225,-0.517 -0.404,-0.688c-0.178,-0.17 -0.42,-0.256 -0.724,-0.256c-0.474,0 -0.809,0.196 -1.004,0.588c-0.194,0.392 -0.292,0.983 -0.292,1.772Z" style="fill-rule:nonzero;"/><path d="M12.155,193.074c0,-0.25 0.031,-0.462 0.092,-0.636c0.062,-0.173 0.14,-0.313 0.236,-0.42c0.096,-0.106 0.206,-0.184 0.328,-0.232c0.123,-0.048 0.246,-0.072 0.368,-0.072c0.123,0 0.246,0.022 0.368,0.064c0.123,0.043 0.232,0.116 0.328,0.22c0.096,0.104 0.175,0.243 0.236,0.416c0.062,0.174 0.092,0.394 0.092,0.66c0,0.262 -0.03,0.479 -0.092,0.652c-0.061,0.174 -0.14,0.312 -0.236,0.416c-0.096,0.104 -0.205,0.178 -0.328,0.22c-0.122,0.043 -0.245,0.064 -0.368,0.064c-0.122,0 -0.245,-0.021 -0.368,-0.064c-0.122,-0.042 -0.232,-0.116 -0.328,-0.22c-0.096,-0.104 -0.174,-0.242 -0.236,-0.416c-0.061,-0.173 -0.092,-0.39 -0.092,-0.652Zm0.56,0c0,0.315 0.05,0.535 0.148,0.66c0.099,0.126 0.204,0.188 0.316,0.188c0.059,0 0.116,-0.012 0.172,-0.036c0.056,-0.024 0.106,-0.068 0.148,-0.132c0.043,-0.064 0.078,-0.15 0.104,-0.26c0.027,-0.109 0.04,-0.249 0.04,-0.42c0,-0.165 -0.013,-0.302 -0.04,-0.412c-0.026,-0.109 -0.061,-0.197 -0.104,-0.264c-0.042,-0.066 -0.092,-0.113 -0.148,-0.14c-0.056,-0.026 -0.113,-0.04 -0.172,-0.04c-0.122,0 -0.23,0.063 -0.324,0.188c-0.093,0.126 -0.14,0.348 -0.14,0.668Zm1.736,2.984c0,-0.25 0.031,-0.462 0.092,-0.636c0.062,-0.173 0.14,-0.313 0.236,-0.42c0.096,-0.106 0.206,-0.184 0.328,-0.232c0.123,-0.048 0.246,-0.072 0.368,-0.072c0.123,0 0.246,0.022 0.368,0.064c0.123,0.043 0.232,0.116 0.328,0.22c0.096,0.104 0.175,0.243 0.236,0.416c0.062,0.174 0.092,0.394 0.092,0.66c0,0.262 -0.03,0.479 -0.092,0.652c-0.061,0.174 -0.14,0.312 -0.236,0.416c-0.096,0.104 -0.205,0.178 -0.328,0.22c-0.122,0.043 -0.245,0.064 -0.368,0.064c-0.122,0 -0.245,-0.021 -0.368,-0.064c-0.122,-0.042 -0.232,-0.116 -0.328,-0.22c-0.096,-0.104 -0.174,-0.242 -0.236,-0.416c-0.061,-0.173 -0.092,-0.39 -0.092,-0.652Zm0.56,0c0,0.315 0.05,0.535 0.148,0.66c0.099,0.126 0.204,0.188 0.316,0.188c0.059,0 0.116,-0.01 0.172,-0.032c0.056,-0.021 0.106,-0.062 0.148,-0.124c0.043,-0.061 0.078,-0.148 0.104,-0.26c0.027,-0.112 0.04,-0.256 0.04,-0.432c0,-0.165 -0.013,-0.302 -0.04,-0.412c-0.026,-0.109 -0.061,-0.197 -0.104,-0.264c-0.042,-0.066 -0.092,-0.113 -0.148,-0.14c-0.056,-0.026 -0.113,-0.04 -0.172,-0.04c-0.058,0 -0.116,0.014 -0.172,0.04c-0.056,0.027 -0.105,0.072 -0.148,0.136c-0.042,0.064 -0.077,0.151 -0.104,0.26c-0.026,0.11 -0.04,0.25 -0.04,0.42Zm0.456,-4.392l0.456,0.232l-2.784,5.624l-0.456,-0.208l2.784,-5.648Z" style="fill-rule:nonzero;"/></g><text x="275.228px" y="41.876px" style="font-family:'AndaleMono', 'Andale Mono', monospace;font-size:16px;">Stochastic Sequencer</text><g><path d="M32.858,221.44c-0.541,0.374 -1.167,0.561 -1.88,0.561c-0.892,0 -1.57,-0.306 -2.034,-0.918c-0.464,-0.612 -0.696,-1.497 -0.696,-2.656c0,-1.12 0.225,-1.996 0.674,-2.63c0.449,-0.633 1.134,-0.949 2.056,-0.949c0.332,-0 0.661,0.042 0.986,0.127c0.326,0.084 0.588,0.197 0.786,0.337l-0.264,0.63c-0.458,-0.261 -0.961,-0.391 -1.508,-0.391c-0.635,-0 -1.107,0.23 -1.416,0.691c-0.31,0.46 -0.464,1.189 -0.464,2.185c-0,1.914 0.626,2.871 1.88,2.871c0.53,-0 1.074,-0.163 1.631,-0.488l0.249,0.63Z" style="fill-rule:nonzero;"/><path d="M38.629,221.869l-3.75,0l0,-6.889l0.801,-0l-0,6.191l2.949,-0l0,0.698Z" style="fill-rule:nonzero;"/><path d="M45.519,221.869l-1.011,0l-2.329,-3.379l-0.728,0.791l0,2.588l-0.8,0l-0,-6.889l0.8,-0l0,3.3l3.057,-3.3l0.923,-0l-2.691,2.91l2.779,3.979Z" style="fill-rule:nonzero;"/></g><g><path d="M338.997,212.756c-0.564,0.413 -1.187,0.62 -1.871,0.62c-0.895,0 -1.573,-0.303 -2.036,-0.911c-0.462,-0.607 -0.693,-1.495 -0.693,-2.663c-0,-1.13 0.224,-2.009 0.671,-2.637c0.448,-0.628 1.134,-0.942 2.058,-0.942c0.332,-0 0.661,0.042 0.987,0.127c0.325,0.084 0.587,0.197 0.786,0.337l-0.264,0.63c-0.459,-0.261 -0.962,-0.391 -1.509,-0.391c-0.631,-0 -1.102,0.231 -1.413,0.693c-0.311,0.462 -0.466,1.19 -0.466,2.183c-0,1.914 0.626,2.871 1.879,2.871c0.472,-0 0.829,-0.099 1.07,-0.298l-0,-1.699l-1.241,-0l0,-0.693l2.042,-0l-0,2.773Z" style="fill-rule:nonzero;"/><path d="M345.52,213.244l-0.84,0l-0.762,-2.412l-2.26,0l-0.772,2.412l-0.83,0l2.251,-6.889l0.962,-0l2.251,6.889Zm-1.831,-3.11l-0.903,-2.852l-0.899,2.852l1.802,-0Z" style="fill-rule:nonzero;"/><path d="M351.311,207.004l-2.124,0l-0,6.24l-0.796,0l0,-6.24l-2.134,0l0,-0.649l5.054,-0l-0,0.649Z" style="fill-rule:nonzero;"/><path d="M356.628,213.244l-3.598,0l-0,-6.889l3.569,-0l0,0.698l-2.769,-0l0,2.134l2.662,-0l-0,0.698l-2.662,-0l0,2.661l2.798,-0l0,0.698Z" style="fill-rule:nonzero;"/></g><g><path d="M237.062,283.915c-0.563,0.414 -1.186,0.62 -1.87,0.62c-0.895,0 -1.574,-0.303 -2.036,-0.91c-0.462,-0.607 -0.694,-1.495 -0.694,-2.664c0,-1.129 0.224,-2.008 0.672,-2.636c0.447,-0.629 1.134,-0.943 2.058,-0.943c0.332,0 0.661,0.042 0.986,0.127c0.326,0.085 0.588,0.197 0.786,0.337l-0.263,0.63c-0.459,-0.26 -0.962,-0.391 -1.509,-0.391c-0.632,0 -1.103,0.231 -1.414,0.694c-0.31,0.462 -0.466,1.189 -0.466,2.182c0,1.914 0.627,2.871 1.88,2.871c0.472,0 0.828,-0.099 1.069,-0.297l0,-1.7l-1.24,0l0,-0.693l2.041,-0l0,2.773Z" style="fill-rule:nonzero;"/><path d="M243.586,284.404l-0.84,-0l-0.762,-2.412l-2.261,-0l-0.771,2.412l-0.83,-0l2.251,-6.89l0.962,0l2.251,6.89Zm-1.832,-3.111l-0.903,-2.851l-0.898,2.851l1.801,0Z" style="fill-rule:nonzero;"/><path d="M249.377,278.163l-2.124,0l-0,6.241l-0.796,-0l-0,-6.241l-2.134,0l-0,-0.649l5.054,0l-0,0.649Z" style="fill-rule:nonzero;"/><path d="M254.694,284.404l-3.599,-0l0,-6.89l3.57,0l-0,0.698l-2.769,0l0,2.134l2.661,0l0,0.698l-2.661,0l0,2.661l2.798,0l-0,0.699Z" style="fill-rule:nonzero;"/><path d="M260.314,278.276c-0.41,-0.14 -0.799,-0.21 -1.167,-0.21c-0.417,-0 -0.756,0.095 -1.018,0.285c-0.262,0.191 -0.393,0.462 -0.393,0.813c-0,0.417 0.343,0.783 1.03,1.099c0.508,0.234 0.844,0.397 1.009,0.488c0.164,0.091 0.331,0.217 0.5,0.376c0.169,0.16 0.305,0.348 0.408,0.564c0.102,0.217 0.154,0.46 0.154,0.73c-0,0.671 -0.226,1.191 -0.677,1.56c-0.451,0.37 -0.982,0.554 -1.594,0.554c-0.592,0 -1.112,-0.117 -1.558,-0.351l0.166,-0.689c0.524,0.238 0.982,0.357 1.372,0.357c0.456,-0 0.822,-0.118 1.097,-0.354c0.275,-0.236 0.412,-0.561 0.412,-0.974c0,-0.306 -0.089,-0.566 -0.268,-0.779c-0.179,-0.213 -0.51,-0.431 -0.991,-0.652c-0.495,-0.228 -0.815,-0.383 -0.96,-0.466c-0.145,-0.083 -0.289,-0.198 -0.432,-0.344c-0.143,-0.147 -0.254,-0.311 -0.332,-0.494c-0.078,-0.182 -0.117,-0.38 -0.117,-0.595c-0,-0.57 0.205,-1.014 0.615,-1.333c0.41,-0.319 0.929,-0.479 1.558,-0.479c0.459,0 0.914,0.07 1.367,0.21l-0.181,0.684Z" style="fill-rule:nonzero;"/></g><g><path d="M390.329,206.355l-2.246,6.889l-0.962,0l-2.251,-6.889l0.84,-0l1.889,5.962l1.9,-5.962l0.83,-0Z" style="fill-rule:nonzero;"/><path d="M395.373,206.223l-2.993,7.153l-0.718,0l2.978,-7.153l0.733,-0Z" style="fill-rule:nonzero;"/><path d="M399.601,206.223c0.772,-0 1.36,0.305 1.765,0.915c0.406,0.611 0.608,1.498 0.608,2.664c0,1.159 -0.202,2.044 -0.605,2.656c-0.404,0.612 -0.993,0.918 -1.768,0.918c-0.768,0 -1.355,-0.305 -1.76,-0.915c-0.405,-0.611 -0.608,-1.497 -0.608,-2.659c0,-1.162 0.202,-2.049 0.606,-2.661c0.403,-0.612 0.991,-0.918 1.762,-0.918Zm0,6.45c1.016,-0 1.524,-0.957 1.524,-2.871c-0,-1.917 -0.508,-2.876 -1.524,-2.876c-0.495,-0 -0.871,0.248 -1.13,0.745c-0.259,0.496 -0.388,1.206 -0.388,2.131c-0,0.934 0.128,1.646 0.385,2.136c0.258,0.49 0.635,0.735 1.133,0.735Z" style="fill-rule:nonzero;"/><path d="M407.843,212.815c-0.54,0.374 -1.167,0.561 -1.879,0.561c-0.892,0 -1.57,-0.306 -2.034,-0.918c-0.464,-0.612 -0.696,-1.497 -0.696,-2.656c0,-1.12 0.225,-1.996 0.674,-2.63c0.449,-0.633 1.134,-0.949 2.056,-0.949c0.332,-0 0.66,0.042 0.986,0.127c0.325,0.084 0.587,0.197 0.786,0.337l-0.264,0.63c-0.459,-0.261 -0.962,-0.391 -1.508,-0.391c-0.635,-0 -1.107,0.23 -1.416,0.691c-0.31,0.46 -0.464,1.189 -0.464,2.185c-0,1.914 0.626,2.871 1.88,2.871c0.53,-0 1.074,-0.163 1.63,-0.488l0.249,0.63Z" style="fill-rule:nonzero;"/><path d="M414.147,207.004l-2.124,0l0,6.24l-0.796,0l0,-6.24l-2.134,0l0,-0.649l5.054,-0l0,0.649Z" style="fill-rule:nonzero;"/></g><g><path d="M423.745,207.116c-0.41,-0.14 -0.799,-0.21 -1.167,-0.21c-0.416,0 -0.756,0.096 -1.018,0.286c-0.262,0.19 -0.393,0.461 -0.393,0.813c0,0.417 0.344,0.783 1.03,1.099c0.508,0.234 0.844,0.397 1.009,0.488c0.164,0.091 0.331,0.216 0.5,0.376c0.169,0.159 0.305,0.347 0.408,0.564c0.102,0.216 0.154,0.46 0.154,0.73c-0,0.67 -0.226,1.19 -0.677,1.56c-0.45,0.369 -0.982,0.554 -1.594,0.554c-0.592,0 -1.111,-0.117 -1.557,-0.351l0.166,-0.689c0.524,0.238 0.981,0.356 1.372,0.356c0.455,0 0.821,-0.118 1.096,-0.354c0.275,-0.236 0.412,-0.56 0.412,-0.974c0,-0.306 -0.089,-0.565 -0.268,-0.778c-0.179,-0.214 -0.51,-0.431 -0.991,-0.652c-0.495,-0.228 -0.815,-0.384 -0.96,-0.467c-0.145,-0.083 -0.289,-0.197 -0.432,-0.344c-0.143,-0.146 -0.254,-0.311 -0.332,-0.493c-0.078,-0.182 -0.117,-0.381 -0.117,-0.596c-0,-0.569 0.205,-1.014 0.615,-1.333c0.41,-0.319 0.929,-0.478 1.558,-0.478c0.459,-0 0.914,0.07 1.367,0.21l-0.181,0.683Z" style="fill-rule:nonzero;"/><path d="M426.528,206.355l1.748,-0c0.661,-0 1.19,0.166 1.587,0.498c0.398,0.332 0.596,0.789 0.596,1.372c0,0.586 -0.198,1.054 -0.593,1.404c-0.396,0.349 -0.914,0.524 -1.555,0.524l-0.982,0l0,3.091l-0.801,0l0,-6.889Zm0.801,3.1l0.869,0c0.941,0 1.411,-0.394 1.411,-1.181c0,-0.365 -0.127,-0.66 -0.383,-0.884c-0.255,-0.225 -0.585,-0.337 -0.989,-0.337l-0.908,-0l0,2.402Z" style="fill-rule:nonzero;"/><path d="M437.012,213.244l-1.001,0l-2.022,-3.13l-0.888,0l-0,3.13l-0.801,0l-0,-6.889l1.948,-0c0.654,-0 1.171,0.158 1.55,0.476c0.38,0.317 0.569,0.759 0.569,1.325c0,0.42 -0.138,0.794 -0.415,1.121c-0.276,0.327 -0.657,0.549 -1.142,0.666l2.202,3.301Zm-3.911,-3.828l1.01,0c0.424,0 0.767,-0.115 1.031,-0.344c0.263,-0.23 0.395,-0.519 0.395,-0.867c0,-0.768 -0.469,-1.152 -1.406,-1.152l-1.03,-0l-0,2.363Z" style="fill-rule:nonzero;"/><path d="M442.129,213.244l-3.599,0l0,-6.889l3.57,-0l-0,0.698l-2.769,-0l0,2.134l2.661,-0l0,0.698l-2.661,-0l0,2.661l2.798,-0l0,0.698Z" style="fill-rule:nonzero;"/><path d="M449.024,213.244l-0.84,0l-0.762,-2.412l-2.261,0l-0.771,2.412l-0.83,0l2.251,-6.889l0.962,-0l2.251,6.889Zm-1.831,-3.11l-0.904,-2.852l-0.898,2.852l1.802,-0Z" style="fill-rule:nonzero;"/><path d="M450.303,206.355l1.357,-0c0.902,-0 1.625,0.306 2.168,0.92c0.544,0.614 0.816,1.456 0.816,2.527c-0,1.094 -0.276,1.941 -0.828,2.541c-0.552,0.601 -1.259,0.901 -2.122,0.901l-1.391,0l-0,-6.889Zm0.801,6.191l0.566,-0c0.654,-0 1.172,-0.243 1.553,-0.728c0.381,-0.485 0.571,-1.157 0.571,-2.016c0,-0.853 -0.191,-1.524 -0.574,-2.014c-0.382,-0.49 -0.899,-0.735 -1.55,-0.735l-0.566,-0l-0,5.493Z" style="fill-rule:nonzero;"/></g><g><path d="M67.869,221.869l-1.001,0l-2.022,-3.13l-0.889,0l0,3.13l-0.8,0l-0,-6.889l1.948,-0c0.654,-0 1.171,0.158 1.55,0.476c0.379,0.317 0.569,0.759 0.569,1.325c-0,0.42 -0.138,0.794 -0.415,1.121c-0.277,0.327 -0.658,0.549 -1.143,0.666l2.203,3.301Zm-3.912,-3.828l1.011,0c0.423,0 0.767,-0.115 1.03,-0.344c0.264,-0.23 0.396,-0.519 0.396,-0.867c-0,-0.768 -0.469,-1.152 -1.406,-1.152l-1.031,-0l0,2.363Z" style="fill-rule:nonzero;"/><path d="M72.605,215.741c-0.41,-0.14 -0.799,-0.21 -1.167,-0.21c-0.417,0 -0.756,0.096 -1.018,0.286c-0.262,0.19 -0.393,0.461 -0.393,0.813c-0,0.417 0.343,0.783 1.03,1.099c0.508,0.234 0.844,0.397 1.008,0.488c0.165,0.091 0.332,0.216 0.501,0.376c0.169,0.159 0.305,0.347 0.408,0.564c0.102,0.216 0.153,0.46 0.153,0.73c0,0.67 -0.225,1.19 -0.676,1.56c-0.451,0.369 -0.982,0.554 -1.594,0.554c-0.593,0 -1.112,-0.117 -1.558,-0.351l0.166,-0.689c0.524,0.238 0.982,0.356 1.372,0.356c0.456,0 0.821,-0.118 1.096,-0.354c0.276,-0.236 0.413,-0.56 0.413,-0.974c0,-0.306 -0.089,-0.565 -0.268,-0.778c-0.18,-0.214 -0.51,-0.431 -0.992,-0.652c-0.494,-0.228 -0.814,-0.384 -0.959,-0.467c-0.145,-0.083 -0.289,-0.197 -0.432,-0.344c-0.144,-0.146 -0.254,-0.311 -0.332,-0.493c-0.078,-0.182 -0.118,-0.381 -0.118,-0.596c0,-0.569 0.206,-1.014 0.616,-1.333c0.41,-0.319 0.929,-0.478 1.557,-0.478c0.459,-0 0.915,0.07 1.368,0.21l-0.181,0.683Z" style="fill-rule:nonzero;"/><path d="M79.67,215.629l-2.124,0l0,6.24l-0.796,0l0,-6.24l-2.133,0l-0,-0.649l5.053,-0l0,0.649Z" style="fill-rule:nonzero;"/></g><g><path d="M101.778,222.001l-3.75,0l0,-6.89l0.801,0l0,6.192l2.949,-0l0,0.698Z" style="fill-rule:nonzero;"/><path d="M107.628,222.001l-3.599,0l0,-6.89l3.57,0l-0,0.699l-2.769,-0l0,2.133l2.661,0l0,0.699l-2.661,-0l0,2.661l2.798,-0l0,0.698Z" style="fill-rule:nonzero;"/><path d="M113.858,222.001l-0.888,0l-2.471,-5.439l0,5.439l-0.801,0l0,-6.89l0.894,0l2.48,5.391l0,-5.391l0.786,0l0,6.89Z" style="fill-rule:nonzero;"/></g><g><path d="M129.331,215.111l1.748,0c0.661,0 1.19,0.166 1.587,0.498c0.397,0.333 0.596,0.79 0.596,1.373c-0,0.585 -0.198,1.053 -0.594,1.403c-0.395,0.35 -0.914,0.525 -1.555,0.525l-0.981,0l-0,3.091l-0.801,0l-0,-6.89Zm0.801,3.101l0.869,0c0.941,0 1.411,-0.394 1.411,-1.182c-0,-0.364 -0.128,-0.659 -0.383,-0.883c-0.256,-0.225 -0.586,-0.337 -0.989,-0.337l-0.908,-0l-0,2.402Z" style="fill-rule:nonzero;"/><path d="M139.824,222.001l-0.84,0l-0.762,-2.412l-2.26,-0l-0.772,2.412l-0.83,0l2.251,-6.89l0.962,0l2.251,6.89Zm-1.831,-3.11l-0.903,-2.852l-0.899,2.852l1.802,-0Z" style="fill-rule:nonzero;"/><path d="M145.615,215.761l-2.124,-0l-0,6.24l-0.796,0l0,-6.24l-2.134,-0l0,-0.65l5.054,0l0,0.65Z" style="fill-rule:nonzero;"/><path d="M151.616,215.761l-2.124,-0l-0,6.24l-0.796,0l0,-6.24l-2.134,-0l0,-0.65l5.054,0l-0,0.65Z" style="fill-rule:nonzero;"/></g><g><path d="M171.544,222.001l-1.001,0l-2.022,-3.13l-0.888,0l-0,3.13l-0.801,0l0,-6.89l1.948,0c0.655,0 1.171,0.159 1.551,0.477c0.379,0.317 0.568,0.759 0.568,1.325c0,0.42 -0.138,0.794 -0.415,1.121c-0.276,0.327 -0.657,0.549 -1.142,0.666l2.202,3.301Zm-3.911,-3.828l1.011,-0c0.423,-0 0.766,-0.115 1.03,-0.344c0.263,-0.23 0.395,-0.519 0.395,-0.867c0,-0.768 -0.468,-1.152 -1.406,-1.152l-1.03,-0l-0,2.363Z" style="fill-rule:nonzero;"/><path d="M176.891,222.001l-0.889,0l-2.471,-5.439l0,5.439l-0.801,0l0,-6.89l0.894,0l2.48,5.391l0,-5.391l0.787,0l-0,6.89Z" style="fill-rule:nonzero;"/><path d="M178.834,215.111l1.357,0c0.902,0 1.625,0.307 2.168,0.921c0.544,0.613 0.816,1.456 0.816,2.527c-0,1.093 -0.276,1.941 -0.828,2.541c-0.552,0.601 -1.259,0.901 -2.121,0.901l-1.392,0l-0,-6.89Zm0.801,6.192l0.566,-0c0.654,-0 1.172,-0.243 1.553,-0.728c0.381,-0.485 0.571,-1.157 0.571,-2.016c0,-0.853 -0.191,-1.525 -0.574,-2.014c-0.382,-0.49 -0.899,-0.735 -1.55,-0.735l-0.566,-0l-0,5.493Z" style="fill-rule:nonzero;"/></g><g><path d="M204.504,222.001l-3.13,0l0,-0.698l1.187,-0l-0,-5.493l-1.187,-0l0,-0.699l3.13,0l0,0.699l-1.142,-0l-0,5.493l1.142,-0l0,0.698Z" style="fill-rule:nonzero;"/><path d="M211.052,222.001l-0.889,0l-2.47,-5.439l-0,5.439l-0.801,0l-0,-6.89l0.893,0l2.481,5.391l-0,-5.391l0.786,0l-0,6.89Z" style="fill-rule:nonzero;"/><path d="M217.693,215.111l-2.247,6.89l-0.961,0l-2.251,-6.89l0.839,0l1.89,5.962l1.899,-5.962l0.831,0Z" style="fill-rule:nonzero;"/></g><g><path d="M235.963,215.111l1.357,0c0.902,0 1.625,0.307 2.168,0.921c0.544,0.613 0.816,1.456 0.816,2.527c-0,1.093 -0.276,1.941 -0.828,2.541c-0.552,0.601 -1.259,0.901 -2.122,0.901l-1.391,0l-0,-6.89Zm0.801,6.192l0.566,-0c0.654,-0 1.172,-0.243 1.553,-0.728c0.381,-0.485 0.571,-1.157 0.571,-2.016c-0,-0.853 -0.191,-1.525 -0.574,-2.014c-0.382,-0.49 -0.899,-0.735 -1.55,-0.735l-0.566,-0l-0,5.493Z" style="fill-rule:nonzero;"/><path d="M245.474,222.001l-3.129,0l-0,-0.698l1.186,-0l0,-5.493l-1.186,-0l-0,-0.699l3.129,0l0,0.699l-1.142,-0l-0,5.493l1.142,-0l0,0.698Z" style="fill-rule:nonzero;"/><path d="M252.164,222.001l-0.772,0l0,-5.908l-1.04,2.827l-0.756,0l-1.04,-2.827l-0,5.908l-0.772,0l0,-6.89l1.04,0l1.152,3.14l1.148,-3.14l1.04,0l-0,6.89Z" style="fill-rule:nonzero;"/></g></g></g></svg>