<?xml version="1.0" encoding="UTF-8" standalone="no"?><!DOCTYPE svg PUBLIC "-//W3C//DTD SVG 1.1//EN" "http://www.w3.org/Graphics/SVG/1.1/DTD/svg11.dtd"><svg width="100%" height="100%" viewBox="0 0 120 380" version="1.1" xmlns="http://www.w3.org/2000/svg" xmlns:xlink="http://www.w3.org/1999/xlink" xml:space="preserve" xmlns:serif="http://www.serif.com/" style="fill-rule:evenodd;clip-rule:evenodd;stroke-miterlimit:1.5;"><rect id="StochSeq4X" x="0" y="0" width="120" height="379.559" style="fill:none;"/><clipPath id="_clip1"><rect x="0" y="0" width="120" height="379.559"/></clipPath><g clip-path="url(#_clip1)"><g id="Layer1"><rect id="background" x="-0" y="0" width="120" height="379.559" style="fill:#e6e6e6;"/><rect x="6.717" y="104.301" width="25.493" height="218.885" style="fill:#282828;fill-opacity:0.5;"/><rect x="33.741" y="104.301" width="25.493" height="218.885" style="fill:#282828;fill-opacity:0.5;"/><rect x="60.765" y="104.301" width="25.493" height="218.885" style="fill:#282828;fill-opacity:0.5;"/><rect x="87.79" y="104.301" width="25.493" height="218.885" style="fill:#282828;fill-opacity:0.5;"/><g><path d="M35.838,18.492c-0.906,-0.309 -1.766,-0.464 -2.58,-0.464c-0.921,-0 -1.671,0.21 -2.251,0.632c-0.579,0.421 -0.869,1.02 -0.869,1.797c0,0.921 0.759,1.731 2.278,2.429c1.123,0.518 1.866,0.878 2.229,1.08c0.364,0.201 0.733,0.478 1.107,0.831c0.374,0.353 0.675,0.768 0.902,1.247c0.226,0.479 0.34,1.017 0.34,1.614c-0,1.483 -0.499,2.632 -1.496,3.449c-0.996,0.817 -2.171,1.226 -3.525,1.226c-1.309,-0 -2.457,-0.259 -3.443,-0.778l0.367,-1.522c1.158,0.526 2.17,0.788 3.033,0.788c1.008,0 1.816,-0.261 2.424,-0.782c0.608,-0.522 0.912,-1.24 0.912,-2.154c0,-0.677 -0.198,-1.251 -0.594,-1.722c-0.395,-0.472 -1.126,-0.952 -2.191,-1.442c-1.094,-0.503 -1.801,-0.847 -2.122,-1.031c-0.32,-0.183 -0.638,-0.437 -0.955,-0.761c-0.317,-0.324 -0.561,-0.687 -0.734,-1.09c-0.173,-0.403 -0.259,-0.842 -0.259,-1.317c-0,-1.26 0.453,-2.242 1.36,-2.947c0.907,-0.706 2.055,-1.058 3.444,-1.058c1.015,-0 2.022,0.154 3.023,0.464l-0.4,1.511Z" style="fill-rule:nonzero;"/><path d="M50.327,31.534c-1.13,0.518 -2.242,0.777 -3.336,0.777c-2.008,0 -3.012,-1.061 -3.012,-3.185l-0,-6.877l-2.16,0l0,-1.457l2.16,-0l-0,-3.077l1.641,-0l-0,3.077l3.821,-0l0,1.457l-3.821,0l-0,6.435c-0,0.683 0.151,1.214 0.453,1.592c0.302,0.378 0.713,0.567 1.231,0.567c0.921,-0 1.832,-0.205 2.731,-0.616l0.292,1.307Z" style="fill-rule:nonzero;"/><path d="M59.126,20.522c1.547,-0 2.778,0.54 3.692,1.619c0.914,1.08 1.371,2.501 1.371,4.265c-0,1.777 -0.457,3.21 -1.371,4.297c-0.914,1.086 -2.145,1.63 -3.692,1.63c-1.555,-0 -2.788,-0.542 -3.698,-1.625c-0.911,-1.083 -1.366,-2.517 -1.366,-4.302c0,-1.771 0.457,-3.194 1.371,-4.27c0.914,-1.076 2.145,-1.614 3.693,-1.614Zm-0,10.342c1.022,0 1.828,-0.431 2.418,-1.295c0.59,-0.864 0.885,-1.911 0.885,-3.142c0,-1.295 -0.291,-2.36 -0.874,-3.195c-0.583,-0.835 -1.393,-1.253 -2.429,-1.253c-1.044,0 -1.854,0.412 -2.43,1.236c-0.575,0.825 -0.863,1.895 -0.863,3.212c-0,1.253 0.291,2.305 0.874,3.158c0.583,0.853 1.389,1.279 2.419,1.279Z" style="fill-rule:nonzero;"/><path d="M76.712,31.663c-0.979,0.447 -2.055,0.67 -3.228,0.67c-1.77,-0 -3.183,-0.538 -4.237,-1.614c-1.055,-1.076 -1.582,-2.507 -1.582,-4.292c0,-1.785 0.531,-3.215 1.593,-4.291c1.061,-1.076 2.456,-1.614 4.183,-1.614c1.13,-0 2.206,0.198 3.228,0.594l-0.443,1.392c-1.022,-0.352 -1.943,-0.529 -2.763,-0.529c-1.238,0 -2.219,0.4 -2.942,1.199c-0.724,0.799 -1.085,1.882 -1.085,3.249c-0,1.253 0.374,2.305 1.123,3.158c0.748,0.853 1.723,1.279 2.925,1.279c0.95,0 1.929,-0.183 2.937,-0.55l0.291,1.349Z" style="fill-rule:nonzero;"/><path d="M90.024,32.041l-1.684,0l-0,-7.212c-0,-1 -0.161,-1.725 -0.481,-2.175c-0.32,-0.45 -0.822,-0.675 -1.506,-0.675c-1.029,0 -2.134,0.641 -3.314,1.922l-0,8.14l-1.684,0l-0,-15.233l1.684,-0l-0,5.636c1.209,-1.282 2.483,-1.922 3.822,-1.922c2.108,-0 3.163,1.274 3.163,3.822l-0,7.697Z" style="fill-rule:nonzero;"/><path d="M35.838,40.602c-0.906,-0.309 -1.766,-0.464 -2.58,-0.464c-0.921,0 -1.671,0.211 -2.251,0.632c-0.579,0.421 -0.869,1.02 -0.869,1.797c0,0.922 0.759,1.731 2.278,2.429c1.123,0.519 1.866,0.879 2.229,1.08c0.364,0.202 0.733,0.479 1.107,0.831c0.374,0.353 0.675,0.769 0.902,1.247c0.226,0.479 0.34,1.017 0.34,1.614c-0,1.483 -0.499,2.633 -1.496,3.45c-0.996,0.817 -2.171,1.225 -3.525,1.225c-1.309,-0 -2.457,-0.259 -3.443,-0.777l0.367,-1.523c1.158,0.526 2.17,0.789 3.033,0.789c1.008,-0 1.816,-0.261 2.424,-0.783c0.608,-0.522 0.912,-1.24 0.912,-2.154c0,-0.677 -0.198,-1.251 -0.594,-1.722c-0.395,-0.471 -1.126,-0.952 -2.191,-1.441c-1.094,-0.504 -1.801,-0.848 -2.122,-1.031c-0.32,-0.184 -0.638,-0.437 -0.955,-0.761c-0.317,-0.324 -0.561,-0.688 -0.734,-1.091c-0.173,-0.403 -0.259,-0.842 -0.259,-1.317c-0,-1.259 0.453,-2.242 1.36,-2.947c0.907,-0.706 2.055,-1.058 3.444,-1.058c1.015,-0 2.022,0.155 3.023,0.464l-0.4,1.511Z" style="fill-rule:nonzero;"/><path d="M50.553,48.581l-7.719,-0c0,1.274 0.369,2.324 1.107,3.152c0.738,0.828 1.643,1.242 2.715,1.242c1.022,-0 2.077,-0.184 3.163,-0.551l0.292,1.35c-0.993,0.446 -2.152,0.669 -3.476,0.669c-1.67,-0 -3.016,-0.536 -4.038,-1.609c-1.022,-1.072 -1.533,-2.519 -1.533,-4.34c-0,-1.785 0.459,-3.208 1.376,-4.269c0.918,-1.062 2.104,-1.593 3.558,-1.593c1.295,0 2.378,0.493 3.249,1.479c0.871,0.986 1.306,2.3 1.306,3.941l0,0.529Zm-1.835,-1.371c0,-0.878 -0.273,-1.618 -0.82,-2.219c-0.547,-0.601 -1.159,-0.901 -1.836,-0.901c-0.871,-0 -1.592,0.287 -2.164,0.863c-0.572,0.576 -0.891,1.328 -0.956,2.257l5.776,-0Z" style="fill-rule:nonzero;"/><path d="M63.444,58.599l-1.684,0l-0,-6.067c-0.346,0.554 -0.841,1.011 -1.485,1.371c-0.644,0.36 -1.322,0.54 -2.035,0.54c-1.288,-0 -2.307,-0.565 -3.055,-1.695c-0.749,-1.13 -1.123,-2.569 -1.123,-4.318c0,-1.677 0.389,-3.063 1.166,-4.157c0.777,-1.094 1.814,-1.641 3.109,-1.641c1.418,0 2.559,0.576 3.423,1.727l-0,-1.457l1.684,0l-0,15.697Zm-1.684,-7.891l-0,-4.675c-0.806,-1.296 -1.778,-1.943 -2.915,-1.943c-0.929,-0 -1.663,0.421 -2.203,1.263c-0.539,0.842 -0.809,1.896 -0.809,3.163c-0,1.288 0.253,2.346 0.761,3.174c0.507,0.828 1.204,1.242 2.089,1.242c0.425,-0 0.853,-0.116 1.285,-0.346c0.431,-0.23 0.838,-0.576 1.22,-1.036c0.381,-0.461 0.572,-0.742 0.572,-0.842Z" style="fill-rule:nonzero;"/><path d="M77.349,50.632l-1.878,-0l-0,3.52l-1.771,-0l0,-3.52l-6.629,-0l0,-1.35l6.014,-10.364l2.386,0l-0,10.17l1.878,0l0,1.544Zm-3.649,-1.544l0,-8.421l-4.836,8.421l4.836,0Z" style="fill-rule:nonzero;"/></g><g id="logo"><g><circle cx="53.704" cy="354.439" r="1.627" style="fill:#8000db;"/><path d="M53.704,354.439l5.554,-0" style="fill:none;stroke:#8000db;stroke-width:1.35px;"/><path d="M59.258,351.658c0,-1.532 -1.244,-2.777 -2.777,-2.777l-5.554,0c-1.532,0 -2.777,1.245 -2.777,2.777l0,5.561c0,1.533 1.245,2.777 2.777,2.777l5.554,-0c1.533,-0 2.777,-1.244 2.777,-2.777l0,-5.561Z" style="fill:none;stroke:#8000db;stroke-width:1.35px;stroke-linejoin:round;stroke-miterlimit:3;"/></g><g><circle cx="66.302" cy="366.556" r="1.627" style="fill:#f00;"/><path d="M69.079,360.998l-5.554,0c-1.532,0 -2.777,0.802 -2.777,1.79l0,7.535c0,0.988 1.245,1.79 2.777,1.79l5.554,-0c1.533,-0 2.777,-0.802 2.777,-1.79l0,-3.767l-5.554,-0" style="fill:none;stroke:#f00;stroke-width:1.35px;stroke-linecap:round;stroke-linejoin:round;stroke-miterlimit:3;"/></g><g><circle cx="66.302" cy="354.439" r="1.627" style="fill:#2600ff;"/><path d="M71.856,359.996l0,-8.982c0,-1.177 -1.244,-2.133 -2.777,-2.133l-5.554,0c-1.532,0 -2.777,0.956 -2.777,2.133l0,8.982" style="fill:none;stroke:#2600ff;stroke-width:1.35px;stroke-linecap:round;stroke-linejoin:round;stroke-miterlimit:3;"/></g><g><circle cx="53.701" cy="366.556" r="1.627" style="fill:#0ef;"/><path d="M48.144,372.113l-0,-11.115l11.114,11.115l0,-11.115" style="fill:none;stroke:#0ef;stroke-width:1.35px;stroke-linecap:round;stroke-linejoin:round;"/></g></g><g><path d="M16.363,110.034l0,-3.261l0.628,0l0,1.314l4.817,0l-0.62,-1.239l0.721,0l0.69,1.34l-0,0.62l-5.608,-0l0,1.226l-0.628,0Z" style="fill:#fff;fill-rule:nonzero;"/><path d="M18.503,114.921l0,-2.611l0.668,0l0,2.611l-0.668,-0Z" style="fill:#fff;fill-rule:nonzero;"/><path d="M19.764,119.684c-0.123,0.422 -0.332,0.75 -0.628,0.983c-0.296,0.233 -0.642,0.349 -1.037,0.349c-0.568,-0 -1.02,-0.188 -1.354,-0.565c-0.334,-0.376 -0.501,-0.84 -0.501,-1.391c0,-0.577 0.169,-1.051 0.506,-1.421c0.337,-0.371 0.783,-0.556 1.34,-0.556c0.393,-0 0.738,0.12 1.037,0.36c0.299,0.24 0.511,0.576 0.637,1.007c0.088,-0.343 0.257,-0.618 0.508,-0.824c0.25,-0.207 0.531,-0.31 0.842,-0.31c0.398,-0 0.759,0.158 1.083,0.474c0.324,0.317 0.485,0.734 0.485,1.253c0,0.513 -0.161,0.937 -0.483,1.272c-0.322,0.336 -0.684,0.503 -1.085,0.503c-0.302,0 -0.58,-0.105 -0.833,-0.316c-0.254,-0.211 -0.426,-0.484 -0.517,-0.818Zm0.299,-0.641c0,0.014 0.018,0.085 0.053,0.211c0.035,0.126 0.078,0.233 0.13,0.323c0.051,0.089 0.116,0.172 0.195,0.248c0.079,0.076 0.172,0.138 0.279,0.185c0.107,0.047 0.227,0.07 0.358,0.07c0.282,-0 0.515,-0.101 0.701,-0.303c0.186,-0.202 0.279,-0.447 0.279,-0.734c0,-0.278 -0.095,-0.517 -0.285,-0.716c-0.191,-0.2 -0.422,-0.299 -0.695,-0.299c-0.172,-0 -0.323,0.036 -0.452,0.107c-0.129,0.072 -0.233,0.162 -0.312,0.268c-0.079,0.107 -0.141,0.23 -0.185,0.37c-0.044,0.139 -0.066,0.229 -0.066,0.27Zm-0.615,-0c-0.234,-0.803 -0.675,-1.204 -1.323,-1.204c-0.378,-0 -0.68,0.121 -0.907,0.364c-0.227,0.244 -0.341,0.529 -0.341,0.857c0,0.34 0.112,0.627 0.336,0.86c0.225,0.232 0.528,0.349 0.912,0.349c0.29,-0 0.55,-0.081 0.78,-0.242c0.23,-0.161 0.411,-0.489 0.543,-0.984Z" style="fill:#fff;fill-rule:nonzero;"/></g><g><path d="M46.165,109.871c-0.314,-0.357 -0.47,-0.777 -0.47,-1.261c-0,-0.524 0.167,-0.961 0.503,-1.312c0.335,-0.35 0.768,-0.525 1.298,-0.525c0.569,0 1.047,0.168 1.435,0.503c0.388,0.336 0.582,0.769 0.582,1.299c0,0.648 -0.295,1.153 -0.887,1.516c-0.592,0.363 -1.344,0.545 -2.255,0.545c-0.911,0 -1.688,-0.213 -2.331,-0.639c-0.643,-0.427 -0.965,-0.997 -0.965,-1.712c0,-0.48 0.074,-0.896 0.22,-1.248l0.637,0.114c-0.149,0.405 -0.224,0.777 -0.224,1.116c0,0.487 0.236,0.876 0.708,1.167c0.471,0.292 1.054,0.437 1.749,0.437Zm0.619,-0.017c0.557,-0 1.046,-0.113 1.466,-0.338c0.42,-0.226 0.631,-0.522 0.631,-0.888c-0,-0.331 -0.123,-0.596 -0.367,-0.793c-0.245,-0.198 -0.564,-0.297 -0.956,-0.297c-0.36,-0 -0.656,0.1 -0.886,0.301c-0.23,0.201 -0.345,0.464 -0.345,0.789c0,0.448 0.138,0.838 0.413,1.169l0.044,0.057Z" style="fill:#fff;fill-rule:nonzero;"/><path d="M45.325,115.351l0,-2.61l0.668,0l0,2.61l-0.668,0Z" style="fill:#fff;fill-rule:nonzero;"/><path d="M43.185,121.266l0,-3.26l0.629,-0l-0,1.314l4.816,-0l-0.619,-1.24l0.72,0l0.69,1.341l0,0.619l-5.607,0l-0,1.226l-0.629,0Z" style="fill:#fff;fill-rule:nonzero;"/><path d="M46.415,123.785c0.314,0.386 0.471,0.807 0.471,1.261c-0,0.524 -0.168,0.961 -0.504,1.312c-0.335,0.35 -0.768,0.525 -1.298,0.525c-0.583,-0 -1.065,-0.156 -1.446,-0.466c-0.381,-0.311 -0.571,-0.725 -0.571,-1.244c-0,-0.662 0.304,-1.186 0.912,-1.573c0.607,-0.387 1.351,-0.58 2.23,-0.58c0.937,-0 1.721,0.201 2.351,0.604c0.63,0.403 0.945,0.954 0.945,1.655c-0,0.483 -0.072,0.901 -0.216,1.252l-0.641,-0.114c0.149,-0.407 0.224,-0.779 0.224,-1.116c-0,-0.478 -0.229,-0.85 -0.686,-1.117c-0.457,-0.266 -1.047,-0.399 -1.771,-0.399Zm-0.619,0.022c-0.531,-0 -1.013,0.124 -1.446,0.373c-0.434,0.249 -0.651,0.563 -0.651,0.94c0,0.32 0.118,0.566 0.352,0.739c0.234,0.173 0.558,0.259 0.971,0.259c0.381,0 0.681,-0.095 0.901,-0.286c0.22,-0.19 0.33,-0.458 0.33,-0.804c-0,-0.448 -0.153,-0.855 -0.457,-1.221Z" style="fill:#fff;fill-rule:nonzero;"/></g><g><path d="M70.383,110.034l0,-3.261l0.629,0l-0,1.314l4.816,0l-0.62,-1.239l0.721,0l0.69,1.34l0,0.62l-5.607,-0l-0,1.226l-0.629,0Z" style="fill:#fff;fill-rule:nonzero;"/><path d="M76.07,115.514l-5.687,-2.457l0,-0.738l5.573,2.422l-0,-2.905l0.628,-0l-0,3.678l-0.514,0Z" style="fill:#fff;fill-rule:nonzero;"/><path d="M72.523,120.322l0,-2.611l0.668,0l0,2.611l-0.668,-0Z" style="fill:#fff;fill-rule:nonzero;"/><path d="M70.383,126.074l0,-3.41l0.523,-0c0.964,0.864 1.61,1.425 1.938,1.683c0.328,0.258 0.673,0.467 1.033,0.628c0.36,0.162 0.719,0.242 1.077,0.242c0.345,0 0.618,-0.105 0.817,-0.314c0.199,-0.21 0.299,-0.503 0.299,-0.881c-0,-0.29 -0.09,-0.68 -0.268,-1.169l0.619,-0.101c0.188,0.442 0.282,0.905 0.282,1.389c-0,0.553 -0.156,0.999 -0.468,1.338c-0.312,0.338 -0.729,0.507 -1.251,0.507c-0.372,0 -0.741,-0.087 -1.107,-0.261c-0.366,-0.175 -0.718,-0.398 -1.055,-0.67c-0.337,-0.273 -0.94,-0.803 -1.81,-1.591l-0,2.61l-0.629,0Z" style="fill:#fff;fill-rule:nonzero;"/><path d="M71.816,131.879l-0,-0.764l-1.433,-0l0,-0.721l1.433,-0l-0,-2.698l0.549,-0l4.219,2.447l-0,0.972l-4.14,-0l0,0.764l-0.628,0Zm0.628,-1.485l3.428,-0l-3.428,-1.969l0,1.969Z" style="fill:#fff;fill-rule:nonzero;"/></g><g><path d="M97.107,110.183l0,-3.41l0.523,0c0.964,0.865 1.61,1.426 1.938,1.683c0.328,0.258 0.673,0.468 1.033,0.629c0.36,0.161 0.719,0.242 1.077,0.242c0.345,-0 0.618,-0.105 0.817,-0.315c0.199,-0.209 0.299,-0.503 0.299,-0.881c-0,-0.29 -0.089,-0.679 -0.268,-1.169l0.619,-0.101c0.188,0.443 0.282,0.905 0.282,1.389c-0,0.554 -0.156,1 -0.468,1.338c-0.312,0.338 -0.729,0.508 -1.251,0.508c-0.372,-0 -0.741,-0.088 -1.107,-0.262c-0.366,-0.174 -0.718,-0.398 -1.055,-0.67c-0.337,-0.273 -0.94,-0.803 -1.81,-1.591l-0,2.61l-0.629,0Z" style="fill:#fff;fill-rule:nonzero;"/><path d="M100.808,113.181c0.052,0.199 0.079,0.394 0.079,0.584c-0,0.586 -0.18,1.049 -0.539,1.389c-0.359,0.34 -0.806,0.509 -1.342,0.509c-0.563,0 -1.039,-0.197 -1.431,-0.593c-0.391,-0.395 -0.586,-0.877 -0.586,-1.446c-0,-0.542 0.091,-0.996 0.272,-1.362l0.611,0.145c-0.167,0.399 -0.25,0.81 -0.25,1.235c-0,0.378 0.121,0.683 0.364,0.916c0.243,0.233 0.583,0.35 1.02,0.35c0.413,-0 0.731,-0.11 0.953,-0.33c0.223,-0.22 0.334,-0.502 0.334,-0.848c0,-0.252 -0.048,-0.501 -0.145,-0.747l0.198,-0.431l2.962,0l0,2.835l-0.628,-0l-0,-2.206l-1.872,-0Z" style="fill:#fff;fill-rule:nonzero;"/><path d="M99.248,120.634l-0,-2.611l0.668,0l-0,2.611l-0.668,-0Z" style="fill:#fff;fill-rule:nonzero;"/><path d="M100.438,125.16c-0.105,0.378 -0.298,0.681 -0.577,0.91c-0.28,0.228 -0.594,0.342 -0.943,0.342c-0.545,0 -1.003,-0.212 -1.373,-0.637c-0.371,-0.425 -0.556,-0.926 -0.556,-1.503c-0,-0.492 0.108,-0.933 0.325,-1.322l0.593,0.14c-0.19,0.407 -0.285,0.81 -0.285,1.209c-0,0.375 0.116,0.695 0.349,0.96c0.233,0.265 0.532,0.398 0.899,0.398c0.36,-0 0.653,-0.142 0.879,-0.427c0.225,-0.284 0.338,-0.66 0.338,-1.129l-0,-0.189l0.593,-0l0,0.053c0,0.451 0.106,0.823 0.319,1.116c0.212,0.293 0.499,0.439 0.859,0.439c0.293,0 0.522,-0.105 0.688,-0.316c0.165,-0.211 0.248,-0.501 0.248,-0.87c-0,-0.319 -0.086,-0.677 -0.259,-1.072l0.619,-0.097c0.182,0.398 0.273,0.8 0.273,1.204c-0,0.554 -0.146,1.01 -0.438,1.369c-0.291,0.359 -0.665,0.538 -1.122,0.538c-0.317,0 -0.612,-0.109 -0.886,-0.327c-0.274,-0.218 -0.446,-0.481 -0.516,-0.789l-0.027,0Z" style="fill:#fff;fill-rule:nonzero;"/><path d="M97.107,131.787l0,-3.41l0.523,-0c0.964,0.864 1.61,1.425 1.938,1.683c0.328,0.258 0.673,0.467 1.033,0.628c0.36,0.161 0.719,0.242 1.077,0.242c0.345,0 0.618,-0.105 0.817,-0.314c0.199,-0.21 0.299,-0.503 0.299,-0.881c-0,-0.29 -0.089,-0.68 -0.268,-1.169l0.619,-0.101c0.188,0.442 0.282,0.905 0.282,1.388c-0,0.554 -0.156,1 -0.468,1.339c-0.312,0.338 -0.729,0.507 -1.251,0.507c-0.372,0 -0.741,-0.087 -1.107,-0.261c-0.366,-0.175 -0.718,-0.398 -1.055,-0.671c-0.337,-0.272 -0.94,-0.802 -1.81,-1.59l-0,2.61l-0.629,-0Z" style="fill:#fff;fill-rule:nonzero;"/></g><path d="M68.011,95.124c1.104,0 2,0.896 2,2c0,1.104 -0.896,2 -2,2c-1.104,0 -2,-0.896 -2,-2c0,-1.104 0.896,-2 2,-2Zm0,1c0.552,0 1,0.448 1,1c0,0.552 -0.448,1 -1,1c-0.552,0 -1,-0.448 -1,-1c0,-0.552 0.448,-1 1,-1Z"/><circle cx="51.989" cy="97.124" r="2" style="fill:#8000db;"/><circle cx="44.524" cy="79.101" r="2" style="fill:#2600ff;"/><circle cx="60" cy="67.226" r="2" style="fill:#0ef;"/><circle cx="75.476" cy="79.101" r="2" style="fill:#f00;"/><path d="M92.404,43.931l7.703,-0l-11.357,15.625l2.025,-10.417l-7.703,0l11.356,-15.625l-2.024,10.417Z"/></g></g></svg>