<?xml version="1.0" encoding="UTF-8" standalone="no"?>
<svg
   width="100%"
   height="100%"
   viewBox="0 0 360 380"
   version="1.1"
   xml:space="preserve"
   style="fill-rule:evenodd;clip-rule:evenodd;stroke-miterlimit:36.5;"
   id="svg56"
   sodipodi:docname="StochSeqGrid-dark.svg"
   inkscape:version="1.3 (0e150ed6c4, 2023-07-21)"
   xmlns:inkscape="http://www.inkscape.org/namespaces/inkscape"
   xmlns:sodipodi="http://sodipodi.sourceforge.net/DTD/sodipodi-0.dtd"
   xmlns="http://www.w3.org/2000/svg"
   xmlns:svg="http://www.w3.org/2000/svg"><defs
     id="defs56" /><sodipodi:namedview
     id="namedview56"
     pagecolor="#ffffff"
     bordercolor="#999999"
     borderopacity="1"
     inkscape:showpageshadow="2"
     inkscape:pageopacity="0"
     inkscape:pagecheckerboard="0"
     inkscape:deskcolor="#d1d1d1"
     inkscape:zoom="8.956686"
     inkscape:cx="36.732336"
     inkscape:cy="243.00283"
     inkscape:window-width="1920"
     inkscape:window-height="1051"
     inkscape:window-x="-9"
     inkscape:window-y="-9"
     inkscape:window-maximized="1"
     inkscape:current-layer="Layer1" /><rect
     id="StochSeqGrid"
     x="0"
     y="0"
     width="360"
     height="379.6"
     style="fill:none;" /><clipPath
     id="_clip1"><rect
       x="0"
       y="0"
       width="360"
       height="379.6"
       id="rect1" /></clipPath><g
     clip-path="url(#_clip1)"
     id="g56"><g
       id="Layer1"><rect
         id="background"
         x="0"
         y="0"
         width="360"
         height="380.662"
         style="fill:#330000;fill-opacity:1" /><rect
         id="rect"
         x="82.5"
         y="54.78"
         width="270"
         height="270"
         style="fill:#1a1a1a;fill-opacity:1" /><path
         d="M28.324,97.257l0,18.887"
         style="fill:#ffffff;stroke:#ffffff;stroke-opacity:0.5;stroke-width:1.05px"
         id="path1" /><rect
         x="82.5"
         y="48.587"
         width="4"
         height="4"
         style="fill:#8000db;"
         id="rect2" /><path
         d="M75.619,320.78l0,4l4,-0l0,-4l-4,-0Z"
         style="fill:#0ef;"
         id="path2" /><path
         d="M358.381,58.78l-0,-4l-4,-0l-0,4l4,-0Z"
         style="fill:#2600ff;"
         id="path3" /><rect
         x="348.5"
         y="327.303"
         width="4"
         height="4"
         style="fill:#f00;"
         id="rect3" /><path
         d="M97.738,48.337l3,2.25l-3,2.25l0,-4.5Z"
         id="path4"
         style="fill:#ffffff" /><path
         d="M88.738,50.587l9.6,-0"
         style="fill:none;stroke:#ffffff;stroke-width:1px"
         id="path5" /><path
         d="M75.369,309.541l2.25,-3l2.25,3l-4.5,0Z"
         id="path6"
         style="fill:#ffffff" /><path
         d="M77.619,318.541l0,-9.6"
         style="fill:none;stroke:#ffffff;stroke-width:1px"
         id="path7" /><path
         d="M358.631,70.018l-2.25,3l-2.25,-3l4.5,-0Z"
         id="path8"
         style="fill:#ffffff" /><path
         d="M356.381,61.018l-0,9.6"
         style="fill:none;stroke:#ffffff;stroke-width:1px"
         id="path9" /><path
         d="M337.262,331.553l-3,-2.25l3,-2.25l-0,4.5Z"
         id="path10"
         style="fill:#ffffff" /><path
         d="M346.262,329.303l-9.6,0"
         style="fill:none;stroke:#ffffff;stroke-width:1px"
         id="path11" /><rect
         x="213.429"
         y="332.149"
         width="122.637"
         height="30.895"
         style="fill:#ffffff;fill-opacity:0.25"
         id="rect11" /><rect
         x="82.5"
         y="332.149"
         width="121.005"
         height="30.895"
         style="fill:#ffffff;fill-opacity:0.25"
         id="rect12" /><rect
         x="11.078"
         y="151.258"
         width="59.94"
         height="203.895"
         style="fill:none;stroke:#ffffff;stroke-opacity:0.5;stroke-width:1px;stroke-miterlimit:1.5"
         id="rect13" /><rect
         x="82.5"
         y="12.587"
         width="174.207"
         height="32.854"
         style="fill:none;stroke:#ffffff;stroke-opacity:0.5;stroke-width:1px;stroke-miterlimit:1.5"
         id="rect14" /><g
         id="grid"><g
           id="g14"><circle
             cx="52.6"
             cy="50.663"
             r="2.932"
             id="circle14"
             style="fill:#ffffff" /><path
             d="M62.607,45.653c0,-2.761 -2.242,-5.003 -5.003,-5.003l-15.012,-0l0,20.027l15.012,-0c2.761,-0 5.003,-2.242 5.003,-5.004l0,-10.02Z"
             style="fill:none;stroke:#ffffff;stroke-width:2.43px;stroke-linejoin:round;stroke-miterlimit:3"
             id="path14" /></g><g
           id="g16"><circle
             cx="52.6"
             cy="27.6"
             r="2.932"
             id="circle15"
             style="fill:#ffffff" /><path
             d="M52.553,27.6l10.007,10.014"
             style="fill:none;stroke:#ffffff;stroke-width:2.43px;stroke-linecap:round;stroke-miterlimit:1.5"
             id="path15" /><path
             d="M52.553,27.6l7.551,0c1.382,0 2.503,-1.121 2.503,-2.503l0,-5.007c0,-1.381 -1.121,-2.503 -2.503,-2.503l-15.008,-0c-1.382,-0 -2.384,1.623 -2.384,3.005l-0.12,17.022"
             style="fill:none;stroke:#ffffff;stroke-width:2.43px;stroke-linecap:round;stroke-linejoin:round;stroke-miterlimit:3"
             id="path16" /></g><g
           id="g17"><circle
             cx="29.9"
             cy="27.6"
             r="2.932"
             id="circle16"
             style="fill:#ffffff" /><path
             d="M34.904,17.587l-10.008,-0c-2.761,-0 -5.003,1.445 -5.003,3.225l-0,13.577c-0,1.78 2.242,3.225 5.003,3.225l10.008,-0c2.762,-0 5.004,-1.445 5.004,-3.225l-0,-6.789l-10.008,0"
             style="fill:none;stroke:#ffffff;stroke-width:2.43px;stroke-linecap:round;stroke-linejoin:round;stroke-miterlimit:3"
             id="path17" /></g><path
           d="M30.523,48.661l5.89,-0l-8.684,12.016l1.548,-8.011l-5.89,-0l8.684,-12.016l-1.548,8.011Z"
           id="path18"
           style="fill:#ffffff" /></g><g
         id="logo"><g
           id="g20"><circle
             cx="13.95"
             cy="360.3"
             r="0.841"
             style="fill:#8000db;"
             id="circle18" /><path
             d="M13.95,360.3l2.869,0"
             style="fill:none;stroke:#8000db;stroke-width:0.7px;stroke-miterlimit:1.5;"
             id="path19" /><path
             d="M16.819,358.864c0,-0.792 -0.643,-1.434 -1.434,-1.434l-2.869,-0c-0.792,-0 -1.434,0.642 -1.434,1.434l-0,2.872c-0,0.792 0.642,1.435 1.434,1.435l2.869,-0c0.791,-0 1.434,-0.643 1.434,-1.435l0,-2.872Z"
             style="fill:none;stroke:#8000db;stroke-width:0.7px;stroke-linejoin:round;stroke-miterlimit:3;"
             id="path20" /></g><g
           id="g21"><circle
             cx="20.458"
             cy="366.559"
             r="0.841"
             style="fill:#f00;"
             id="circle20" /><path
             d="M21.892,363.689l-2.869,-0c-0.791,-0 -1.434,0.414 -1.434,0.924l-0,3.892c-0,0.51 0.643,0.925 1.434,0.925l2.869,-0c0.792,-0 1.434,-0.415 1.434,-0.925l0,-1.946l-2.868,0"
             style="fill:none;stroke:#f00;stroke-width:0.7px;stroke-linecap:round;stroke-linejoin:round;stroke-miterlimit:3;"
             id="path21" /></g><g
           id="g22"><circle
             cx="20.458"
             cy="360.3"
             r="0.841"
             style="fill:#2600ff;"
             id="circle21" /><path
             d="M23.326,363.171l0,-4.64c0,-0.608 -0.642,-1.101 -1.434,-1.101l-2.869,-0c-0.791,-0 -1.434,0.493 -1.434,1.101l-0,4.64"
             style="fill:none;stroke:#2600ff;stroke-width:0.7px;stroke-linecap:round;stroke-linejoin:round;stroke-miterlimit:3;"
             id="path22" /></g><g
           id="g23"><circle
             cx="13.949"
             cy="366.559"
             r="0.841"
             style="fill:#0ef;"
             id="circle22" /><path
             d="M11.078,369.43l0,-5.741l5.741,5.741l0,-5.741"
             style="fill:none;stroke:#0ef;stroke-width:0.7px;stroke-linecap:round;stroke-linejoin:round;stroke-miterlimit:1.5;"
             id="path23" /></g></g><g
         id="g26"
         style="fill:#ffffff"><path
           d="M47.817,134.564l-3.599,0l0,-6.89l3.57,0l-0,0.699l-2.769,-0l-0,2.133l2.661,0l0,0.699l-2.661,-0l-0,2.661l2.798,-0l-0,0.698Z"
           style="fill-rule:nonzero;fill:#ffffff"
           id="path24" /><path
           d="M54.648,134.564l-0.889,0l-1.748,-2.822l-1.733,2.822l-0.889,0l2.202,-3.511l-2.192,-3.379l0.918,0l1.694,2.73l1.709,-2.73l0.879,0l-2.158,3.379l2.207,3.511Z"
           style="fill-rule:nonzero;fill:#ffffff"
           id="path25" /><path
           d="M60.502,128.324l-2.124,-0l0,6.24l-0.796,0l0,-6.24l-2.133,-0l-0,-0.65l5.053,0l0,0.65Z"
           style="fill-rule:nonzero;fill:#ffffff"
           id="path26" /></g><g
         id="g29"
         style="fill:#ffffff"><path
           d="M24.78,134.564l-1.001,0l-2.022,-3.13l-0.889,0l0,3.13l-0.8,0l-0,-6.89l1.948,0c0.654,0 1.171,0.159 1.55,0.477c0.379,0.317 0.569,0.759 0.569,1.325c-0,0.42 -0.138,0.794 -0.415,1.121c-0.277,0.327 -0.658,0.549 -1.143,0.666l2.203,3.301Zm-3.912,-3.828l1.011,-0c0.423,-0 0.767,-0.115 1.03,-0.344c0.264,-0.23 0.396,-0.519 0.396,-0.867c-0,-0.768 -0.469,-1.152 -1.406,-1.152l-1.031,-0l0,2.363Z"
           style="fill-rule:nonzero;fill:#ffffff"
           id="path27" /><path
           d="M29.516,128.436c-0.41,-0.14 -0.799,-0.21 -1.167,-0.21c-0.417,0 -0.756,0.095 -1.018,0.286c-0.262,0.19 -0.393,0.461 -0.393,0.813c-0,0.416 0.343,0.783 1.03,1.098c0.508,0.235 0.844,0.398 1.008,0.489c0.165,0.091 0.332,0.216 0.501,0.376c0.169,0.159 0.305,0.347 0.407,0.564c0.103,0.216 0.154,0.459 0.154,0.73c0,0.67 -0.225,1.19 -0.676,1.56c-0.451,0.369 -0.982,0.554 -1.594,0.554c-0.593,-0 -1.112,-0.117 -1.558,-0.352l0.166,-0.688c0.524,0.238 0.982,0.356 1.372,0.356c0.456,0 0.821,-0.118 1.096,-0.354c0.276,-0.236 0.413,-0.56 0.413,-0.974c0,-0.306 -0.089,-0.565 -0.269,-0.779c-0.179,-0.213 -0.509,-0.43 -0.991,-0.651c-0.495,-0.228 -0.814,-0.384 -0.959,-0.467c-0.145,-0.083 -0.289,-0.198 -0.432,-0.344c-0.144,-0.146 -0.254,-0.311 -0.332,-0.493c-0.078,-0.182 -0.118,-0.381 -0.118,-0.596c0,-0.57 0.206,-1.014 0.616,-1.333c0.41,-0.319 0.929,-0.478 1.557,-0.478c0.459,-0 0.915,0.07 1.368,0.21l-0.181,0.683Z"
           style="fill-rule:nonzero;fill:#ffffff"
           id="path28" /><path
           d="M36.581,128.324l-2.124,-0l0,6.24l-0.796,0l0,-6.24l-2.133,-0l-0,-0.65l5.053,0l0,0.65Z"
           style="fill-rule:nonzero;fill:#ffffff"
           id="path29" /></g><g
         id="g34"><path
           d="M332.578,357.184c0.414,0.563 0.62,1.186 0.62,1.87c0,0.895 -0.303,1.574 -0.91,2.036c-0.608,0.462 -1.495,0.693 -2.664,0.693c-1.13,0 -2.008,-0.223 -2.637,-0.671c-0.628,-0.448 -0.942,-1.134 -0.942,-2.058c-0,-0.332 0.042,-0.661 0.127,-0.986c0.084,-0.326 0.197,-0.588 0.337,-0.787l0.63,0.264c-0.261,0.459 -0.391,0.962 -0.391,1.509c0,0.631 0.231,1.103 0.693,1.413c0.463,0.311 1.19,0.467 2.183,0.467c1.914,-0 2.871,-0.627 2.871,-1.88c0,-0.472 -0.099,-0.829 -0.298,-1.069l-1.699,-0l0,1.24l-0.693,-0l-0,-2.041l2.773,-0Z"
           style="fill:#fff;fill-rule:nonzero;"
           id="path30" /><path
           d="M333.066,350.66l0,0.84l-2.412,0.762l0,2.261l2.412,0.771l0,0.83l-6.889,-2.251l-0,-0.962l6.889,-2.251Zm-3.11,1.831l-2.852,0.904l2.852,0.898l0,-1.802Z"
           style="fill:#fff;fill-rule:nonzero;"
           id="path31" /><path
           d="M326.826,344.869l0,2.124l6.24,0l0,0.796l-6.24,0l0,2.134l-0.649,0l-0,-5.054l0.649,0Z"
           style="fill:#fff;fill-rule:nonzero;"
           id="path32" /><path
           d="M333.066,339.552l0,3.599l-6.889,-0l-0,-3.57l0.698,0l-0,2.769l2.134,-0l-0,-2.661l0.698,-0l0,2.661l2.661,-0l0,-2.798l0.698,-0Z"
           style="fill:#fff;fill-rule:nonzero;"
           id="path33" /><path
           d="M326.938,333.932c-0.14,0.41 -0.209,0.799 -0.209,1.167c-0,0.417 0.095,0.756 0.285,1.018c0.191,0.262 0.462,0.393 0.813,0.393c0.417,-0 0.783,-0.343 1.099,-1.03c0.234,-0.508 0.397,-0.844 0.488,-1.009c0.091,-0.164 0.217,-0.331 0.376,-0.5c0.16,-0.169 0.348,-0.305 0.564,-0.408c0.216,-0.102 0.46,-0.154 0.73,-0.154c0.671,0 1.191,0.226 1.56,0.677c0.369,0.45 0.554,0.982 0.554,1.594c0,0.592 -0.117,1.112 -0.351,1.558l-0.689,-0.167c0.238,-0.524 0.357,-0.981 0.357,-1.372c-0,-0.455 -0.118,-0.821 -0.354,-1.096c-0.236,-0.275 -0.561,-0.412 -0.974,-0.412c-0.306,-0 -0.566,0.089 -0.779,0.268c-0.214,0.179 -0.431,0.51 -0.652,0.991c-0.228,0.495 -0.383,0.815 -0.466,0.96c-0.083,0.145 -0.198,0.289 -0.345,0.432c-0.146,0.143 -0.311,0.254 -0.493,0.332c-0.182,0.078 -0.381,0.117 -0.596,0.117c-0.569,0 -1.014,-0.205 -1.333,-0.615c-0.319,-0.41 -0.478,-0.929 -0.478,-1.558c-0,-0.459 0.07,-0.914 0.21,-1.367l0.683,0.181Z"
           style="fill:#fff;fill-rule:nonzero;"
           id="path34" /></g><g
         id="g40"><path
           d="M5.658,267.66l0,-28.899l10.835,0l0,28.899l-10.835,-0Z"
           style="fill:#330000;fill-rule:nonzero;fill-opacity:1"
           id="path35" /><path
           d="M14.396,262.139l-0,0.964l-3.015,1.947l0,0.856l3.015,-0l-0,0.771l-6.636,0l0,-1.876c0,-0.631 0.153,-1.128 0.459,-1.494c0.305,-0.365 0.731,-0.547 1.277,-0.547c0.404,-0 0.764,0.133 1.079,0.399c0.315,0.267 0.529,0.634 0.642,1.101l3.179,-2.121Zm-3.687,3.767l-0,-0.974c-0,-0.407 -0.111,-0.738 -0.332,-0.992c-0.221,-0.254 -0.499,-0.381 -0.834,-0.381c-0.74,0 -1.11,0.452 -1.11,1.354l-0,0.993l2.276,-0Z"
           style="fill-rule:nonzero;fill:#ffffff"
           id="path36" /><path
           d="M14.396,256.35l-0,0.808l-2.323,0.734l-0,2.178l2.323,0.743l-0,0.799l-6.636,-2.168l0,-0.926l6.636,-2.168Zm-2.996,1.763l-2.746,0.87l2.746,0.866l0,-1.736Z"
           style="fill-rule:nonzero;fill:#ffffff"
           id="path37" /><path
           d="M8.386,250.772l-0,2.046l6.01,-0l-0,0.766l-6.01,0l-0,2.055l-0.626,0l0,-4.867l0.626,0Z"
           style="fill-rule:nonzero;fill:#ffffff"
           id="path38" /><path
           d="M14.396,245.651l-0,3.466l-6.636,-0l0,-3.438l0.673,-0l-0,2.666l2.055,0l-0,-2.563l0.672,0l0,2.563l2.563,0l0,-2.694l0.673,-0Z"
           style="fill-rule:nonzero;fill:#ffffff"
           id="path39" /><path
           d="M8.494,240.238c-0.135,0.395 -0.202,0.769 -0.202,1.124c-0,0.401 0.091,0.728 0.275,0.98c0.183,0.253 0.444,0.379 0.783,0.379c0.401,-0 0.754,-0.331 1.058,-0.992c0.226,-0.49 0.382,-0.813 0.47,-0.972c0.088,-0.158 0.209,-0.319 0.362,-0.482c0.154,-0.163 0.335,-0.294 0.544,-0.392c0.208,-0.099 0.442,-0.148 0.703,-0.148c0.645,-0 1.146,0.217 1.502,0.651c0.356,0.434 0.534,0.946 0.534,1.535c-0,0.571 -0.113,1.071 -0.339,1.501l-0.663,-0.16c0.229,-0.505 0.344,-0.946 0.344,-1.322c-0,-0.439 -0.114,-0.791 -0.341,-1.056c-0.228,-0.265 -0.54,-0.397 -0.939,-0.397c-0.294,-0 -0.544,0.086 -0.75,0.259c-0.205,0.172 -0.414,0.49 -0.628,0.954c-0.219,0.477 -0.369,0.785 -0.449,0.924c-0.08,0.14 -0.19,0.279 -0.331,0.417c-0.141,0.138 -0.3,0.244 -0.475,0.319c-0.176,0.076 -0.367,0.113 -0.574,0.113c-0.549,0 -0.977,-0.197 -1.284,-0.592c-0.307,-0.395 -0.461,-0.895 -0.461,-1.501c0,-0.442 0.068,-0.88 0.203,-1.316l0.658,0.174Z"
           style="fill-rule:nonzero;fill:#ffffff"
           id="path40" /></g><g
         id="g45"><rect
           x="154.837"
           y="7.048"
           width="29.532"
           height="11.073"
           style="fill:#330000;fill-rule:nonzero;fill-opacity:1"
           id="rect40" /><path
           d="M156.068,9.196l1.72,0c0.651,0 1.171,0.164 1.562,0.49c0.391,0.327 0.586,0.777 0.586,1.351c0,0.577 -0.194,1.037 -0.583,1.382c-0.39,0.344 -0.9,0.516 -1.531,0.516l-0.966,0l-0,3.042l-0.788,0l-0,-6.781Zm0.788,3.052l0.855,0c0.926,0 1.389,-0.388 1.389,-1.163c0,-0.359 -0.125,-0.649 -0.377,-0.87c-0.251,-0.221 -0.576,-0.331 -0.973,-0.331l-0.894,-0l-0,2.364Z"
           style="fill-rule:nonzero;fill:#ffffff"
           id="path41" /><path
           d="M166.396,15.977l-0.827,0l-0.75,-2.374l-2.225,0l-0.759,2.374l-0.817,0l2.215,-6.781l0.947,0l2.216,6.781Zm-1.803,-3.061l-0.889,-2.807l-0.884,2.807l1.773,0Z"
           style="fill-rule:nonzero;fill:#ffffff"
           id="path42" /><path
           d="M172.095,9.835l-2.09,0l-0,6.142l-0.784,0l0,-6.142l-2.1,0l0,-0.639l4.974,0l0,0.639Z"
           style="fill-rule:nonzero;fill:#ffffff"
           id="path43" /><path
           d="M177.459,15.977l-0.789,0l0,-3.364l-2.321,0l0,3.364l-0.788,0l0,-6.781l0.788,0l0,2.725l2.321,0l0,-2.725l0.789,0l-0,6.781Z"
           style="fill-rule:nonzero;fill:#ffffff"
           id="path44" /><path
           d="M182.86,9.946c-0.403,-0.138 -0.786,-0.207 -1.148,-0.207c-0.41,0 -0.744,0.094 -1.002,0.281c-0.258,0.188 -0.387,0.455 -0.387,0.801c-0,0.41 0.338,0.77 1.014,1.081c0.5,0.231 0.83,0.391 0.992,0.481c0.162,0.089 0.326,0.213 0.493,0.37c0.166,0.157 0.3,0.342 0.401,0.555c0.101,0.213 0.152,0.452 0.152,0.718c-0,0.66 -0.222,1.172 -0.666,1.536c-0.444,0.363 -0.967,0.545 -1.569,0.545c-0.583,0 -1.094,-0.115 -1.533,-0.346l0.163,-0.678c0.516,0.234 0.966,0.351 1.351,0.351c0.448,0 0.808,-0.116 1.079,-0.348c0.27,-0.232 0.406,-0.552 0.406,-0.959c-0,-0.301 -0.088,-0.557 -0.265,-0.766c-0.176,-0.21 -0.501,-0.424 -0.975,-0.642c-0.487,-0.224 -0.802,-0.377 -0.945,-0.459c-0.142,-0.082 -0.284,-0.195 -0.425,-0.339c-0.141,-0.144 -0.25,-0.306 -0.327,-0.485c-0.077,-0.18 -0.115,-0.375 -0.115,-0.586c-0,-0.561 0.202,-0.999 0.605,-1.312c0.404,-0.314 0.915,-0.471 1.534,-0.471c0.451,-0 0.9,0.068 1.345,0.206l-0.178,0.673Z"
           style="fill-rule:nonzero;fill:#ffffff"
           id="path45" /></g><path
         d="M276.287,41.369c1.014,0.585 1.362,1.884 0.777,2.897c-0.586,1.014 -1.884,1.362 -2.898,0.777c-1.013,-0.586 -1.361,-1.884 -0.776,-2.898c0.585,-1.013 1.884,-1.361 2.897,-0.776Z"
         style="fill:#8000db;"
         id="path46" /><path
         d="M270.447,25.323c-0.4,1.1 -1.618,1.668 -2.718,1.268c-1.1,-0.401 -1.669,-1.619 -1.268,-2.719c0.4,-1.1 1.618,-1.668 2.718,-1.268c1.1,0.401 1.668,1.619 1.268,2.719Z"
         style="fill:#2600ff;"
         id="path47" /><path
         d="M285.235,16.785c-1.153,-0.203 -1.924,-1.304 -1.72,-2.457c0.203,-1.153 1.304,-1.924 2.457,-1.72c1.153,0.203 1.924,1.304 1.72,2.457c-0.203,1.152 -1.304,1.923 -2.457,1.72Z"
         style="fill:#0ef;"
         id="path48" /><path
         d="M296.211,29.866c0,-1.171 0.951,-2.121 2.121,-2.121c1.171,-0 2.121,0.95 2.121,2.121c0,1.171 -0.95,2.121 -2.121,2.121c-1.17,-0 -2.121,-0.95 -2.121,-2.121Z"
         style="fill:#f00;"
         id="path49" /><path
         d="M267.525,29.866c0,5.514 2.947,10.607 7.727,13.355c-4.78,-2.748 -7.727,-7.841 -7.727,-13.355Z"
         style="fill:none;stroke:#8000db;stroke-width:0.98px;"
         id="path50" /><path
         d="M280.138,14.717c-5.422,0.999 -9.897,4.82 -11.734,10.019c1.837,-5.199 6.312,-9.02 11.734,-10.019Z"
         style="fill:none;stroke:#2600ff;stroke-width:0.98px;"
         id="path51" /><path
         d="M297.328,24.396c-1.958,-5.154 -6.521,-8.869 -11.966,-9.74c5.445,0.871 10.008,4.586 11.966,9.74Z"
         style="fill:none;stroke:#0ef;stroke-width:0.98px;"
         id="path52" /><path
         d="M290.9,43.047c4.718,-2.854 7.551,-8.011 7.429,-13.523c0.122,5.512 -2.711,10.669 -7.429,13.523Z"
         style="fill:none;stroke:#f00;stroke-width:0.98px;"
         id="path53" /><rect
         x="309"
         y="17.587"
         width="24"
         height="24"
         style="fill:#1a1a1a;fill-opacity:1"
         id="rect53" /><g
         id="g55"><path
           d="M200.273,348.416c0.327,0.471 0.49,1.018 0.49,1.639c-0,0.778 -0.267,1.369 -0.801,1.774c-0.533,0.404 -1.305,0.607 -2.316,0.607c-0.976,-0 -1.741,-0.196 -2.293,-0.588c-0.552,-0.392 -0.828,-0.989 -0.828,-1.793c0,-0.289 0.037,-0.576 0.111,-0.86c0.074,-0.284 0.172,-0.512 0.294,-0.685l0.549,0.23c-0.227,0.4 -0.341,0.839 -0.341,1.315c0,0.554 0.201,0.966 0.603,1.235c0.401,0.27 1.037,0.405 1.905,0.405c1.669,-0 2.504,-0.547 2.504,-1.64c-0,-0.462 -0.142,-0.936 -0.426,-1.422l0.549,-0.217Z"
           style="fill:#fff;fill-rule:nonzero;"
           id="path54" /><path
           d="M194.64,342.757l6.008,1.959l-0,0.839l-6.008,1.963l0,-0.733l5.199,-1.647l-5.199,-1.657l0,-0.724Z"
           style="fill:#fff;fill-rule:nonzero;"
           id="path55" /></g></g></g></svg>
