<?xml version="1.0" encoding="UTF-8" standalone="no"?><!DOCTYPE svg PUBLIC "-//W3C//DTD SVG 1.1//EN" "http://www.w3.org/Graphics/SVG/1.1/DTD/svg11.dtd"><svg width="100%" height="100%" viewBox="0 0 45 380" version="1.1" xmlns="http://www.w3.org/2000/svg" xmlns:xlink="http://www.w3.org/1999/xlink" xml:space="preserve" xmlns:serif="http://www.serif.com/" style="fill-rule:evenodd;clip-rule:evenodd;stroke-linejoin:round;stroke-miterlimit:1.5;"><rect id="Talea" x="0" y="0" width="45" height="379.559" style="fill:none;"/><clipPath id="_clip1"><rect x="0" y="0" width="45" height="379.559"/></clipPath><g clip-path="url(#_clip1)"><g id="Layer1"><rect id="background" x="0" y="0" width="45" height="379.559" style="fill:#e6e6e6;"/><rect x="5.355" y="267.498" width="34.291" height="78.602" style="fill:#282828;fill-opacity:0.2;"/><rect x="5.355" y="186.72" width="34.291" height="78.602" style="fill:none;stroke:#282828;stroke-opacity:0.25;stroke-width:1px;"/><g><path d="M9.539,14.666l-2.974,-0l0,8.736l-1.114,0l0,-8.736l-2.987,-0l-0,-0.909l7.075,-0l0,0.909Z" style="fill:#2600ff;fill-rule:nonzero;"/><path d="M17.332,25.787l-1.06,-0c-0.086,-0.287 -0.129,-0.67 -0.129,-1.149c-0.607,0.889 -1.431,1.333 -2.475,1.333c-0.529,0 -0.995,-0.188 -1.398,-0.564c-0.403,-0.376 -0.605,-0.86 -0.605,-1.452c0,-0.351 0.071,-0.661 0.212,-0.93c0.141,-0.269 0.349,-0.496 0.622,-0.68c0.273,-0.185 0.606,-0.331 0.998,-0.438c0.392,-0.107 0.857,-0.181 1.395,-0.222l1.196,-0.095l-0,-0.342c-0,-1.222 -0.57,-1.832 -1.709,-1.832c-0.269,-0 -0.61,0.058 -1.022,0.174c-0.413,0.116 -0.767,0.254 -1.063,0.414l-0.28,-0.766c0.97,-0.497 1.873,-0.745 2.707,-0.745c1.622,-0 2.433,0.859 2.433,2.577l0,3.062c0,0.62 0.06,1.172 0.178,1.655Zm-1.244,-2.113l-0,-1.292c-0.962,0.087 -1.621,0.168 -1.979,0.243c-0.358,0.075 -0.668,0.215 -0.93,0.421c-0.262,0.205 -0.393,0.483 -0.393,0.834c0,0.319 0.112,0.576 0.335,0.772c0.223,0.196 0.508,0.294 0.855,0.294c0.378,-0 0.754,-0.113 1.128,-0.338c0.373,-0.226 0.701,-0.537 0.984,-0.934Z" style="fill:#2600ff;fill-rule:nonzero;"/><path d="M25.036,29.676l-2.912,0l0,-8.722l-1.859,-0l-0,-0.923l2.925,-0l0,8.723l1.846,-0l0,0.922Z" style="fill:#2600ff;fill-rule:nonzero;"/><path d="M34.169,29.738l-4.888,-0c0,0.807 0.234,1.472 0.701,1.996c0.467,0.524 1.04,0.786 1.719,0.786c0.647,0 1.315,-0.116 2.003,-0.348l0.185,0.854c-0.629,0.283 -1.363,0.424 -2.201,0.424c-1.058,-0 -1.91,-0.34 -2.557,-1.019c-0.647,-0.679 -0.971,-1.595 -0.971,-2.748c0,-1.13 0.291,-2.031 0.872,-2.703c0.581,-0.673 1.332,-1.009 2.252,-1.009c0.82,0 1.506,0.313 2.058,0.937c0.551,0.624 0.827,1.456 0.827,2.495l-0,0.335Zm-1.162,-0.868c-0,-0.556 -0.173,-1.024 -0.52,-1.405c-0.346,-0.381 -0.733,-0.571 -1.162,-0.571c-0.551,0 -1.008,0.182 -1.37,0.547c-0.363,0.365 -0.564,0.841 -0.605,1.429l3.657,-0Z" style="fill:#2600ff;fill-rule:nonzero;"/><path d="M42.536,36.164l-1.059,-0c-0.087,-0.287 -0.13,-0.67 -0.13,-1.149c-0.606,0.889 -1.431,1.333 -2.475,1.333c-0.529,0 -0.995,-0.188 -1.398,-0.564c-0.403,-0.376 -0.605,-0.86 -0.605,-1.452c0,-0.351 0.071,-0.661 0.212,-0.93c0.141,-0.269 0.349,-0.496 0.622,-0.68c0.274,-0.185 0.606,-0.331 0.998,-0.438c0.392,-0.107 0.857,-0.181 1.395,-0.222l1.196,-0.096l-0,-0.341c-0,-1.222 -0.57,-1.832 -1.709,-1.832c-0.269,-0 -0.61,0.058 -1.022,0.174c-0.412,0.116 -0.767,0.254 -1.063,0.414l-0.28,-0.766c0.97,-0.497 1.873,-0.745 2.707,-0.745c1.622,-0 2.433,0.859 2.433,2.577l0,3.062c0,0.62 0.06,1.172 0.178,1.655Zm-1.244,-2.113l-0,-1.292c-0.962,0.087 -1.621,0.168 -1.979,0.243c-0.358,0.075 -0.668,0.215 -0.93,0.421c-0.262,0.205 -0.393,0.483 -0.393,0.834c0,0.319 0.112,0.576 0.335,0.772c0.224,0.196 0.508,0.294 0.855,0.294c0.378,-0 0.754,-0.113 1.128,-0.338c0.373,-0.226 0.701,-0.537 0.984,-0.934Z" style="fill:#2600ff;fill-rule:nonzero;"/></g><text x="18.597px" y="182.476px" style="font-family:'AndaleMono', 'Andale Mono', monospace;font-size:14px;fill:#2600ff;">!</text><g><path d="M28.23,113.284l-0.64,0l-0,-2.734l-1.887,-0l0,2.734l-0.64,0l-0,-5.512l0.64,0l0,2.215l1.887,0l-0,-2.215l0.64,0l0,5.512Z" style="fill-rule:nonzero;"/><path d="M31.438,107.667c0.617,-0 1.087,0.244 1.412,0.732c0.324,0.489 0.486,1.199 0.486,2.131c-0,0.927 -0.162,1.636 -0.484,2.125c-0.323,0.49 -0.795,0.735 -1.414,0.735c-0.615,-0 -1.084,-0.244 -1.409,-0.733c-0.324,-0.488 -0.486,-1.197 -0.486,-2.127c-0,-0.929 0.161,-1.639 0.484,-2.129c0.323,-0.489 0.793,-0.734 1.411,-0.734Zm-0,5.16c0.812,0 1.218,-0.765 1.218,-2.297c0,-1.534 -0.406,-2.301 -1.218,-2.301c-0.396,0 -0.698,0.199 -0.905,0.596c-0.207,0.397 -0.31,0.966 -0.31,1.705c-0,0.748 0.103,1.317 0.308,1.709c0.206,0.392 0.508,0.588 0.907,0.588Z" style="fill-rule:nonzero;"/><path d="M37.848,113.284l-3,0l-0,-5.512l0.64,0l0,4.954l2.36,-0l-0,0.558Z" style="fill-rule:nonzero;"/><path d="M39.465,107.772l1.086,0c0.721,0 1.299,0.246 1.734,0.737c0.435,0.491 0.652,1.165 0.652,2.021c0,0.875 -0.22,1.553 -0.662,2.033c-0.441,0.481 -1.007,0.721 -1.697,0.721l-1.113,0l-0,-5.512Zm0.64,4.954l0.454,-0c0.523,-0 0.937,-0.194 1.242,-0.582c0.304,-0.388 0.457,-0.926 0.457,-1.614c-0,-0.682 -0.153,-1.219 -0.459,-1.611c-0.306,-0.392 -0.72,-0.588 -1.24,-0.588l-0.454,0l0,4.395Z" style="fill-rule:nonzero;"/></g><g><path d="M20.695,132.036l1.049,-0c0.396,-0 0.714,0.099 0.952,0.299c0.238,0.199 0.357,0.473 0.357,0.823c0,0.351 -0.118,0.632 -0.356,0.842c-0.237,0.21 -0.548,0.315 -0.933,0.315l-0.589,0l0,1.854l-0.48,0l-0,-4.133Zm0.48,1.86l0.522,0c0.564,0 0.847,-0.236 0.847,-0.709c-0,-0.219 -0.077,-0.395 -0.23,-0.53c-0.154,-0.135 -0.352,-0.202 -0.594,-0.202l-0.545,-0l0,1.441Z" style="fill-rule:nonzero;"/><path d="M25.338,131.957c0.463,-0 0.816,0.183 1.06,0.549c0.243,0.366 0.364,0.899 0.364,1.598c0,0.695 -0.121,1.227 -0.363,1.594c-0.242,0.367 -0.596,0.551 -1.061,0.551c-0.46,-0 -0.813,-0.184 -1.056,-0.55c-0.243,-0.366 -0.364,-0.898 -0.364,-1.595c-0,-0.697 0.121,-1.229 0.363,-1.597c0.242,-0.367 0.595,-0.55 1.057,-0.55Zm0,3.87c0.61,-0 0.915,-0.574 0.915,-1.723c-0,-1.15 -0.305,-1.726 -0.915,-1.726c-0.296,0 -0.522,0.149 -0.678,0.447c-0.155,0.298 -0.233,0.724 -0.233,1.279c0,0.561 0.077,0.988 0.232,1.282c0.154,0.294 0.381,0.441 0.679,0.441Z" style="fill-rule:nonzero;"/><path d="M30.146,136.169l-2.25,0l0,-4.133l0.481,-0l-0,3.715l1.769,-0l0,0.418Z" style="fill-rule:nonzero;"/><path d="M34.084,132.036l-1.292,2.364l-0,1.769l-0.478,0l0,-1.769l-1.292,-2.364l0.542,-0l0.987,1.86l0.991,-1.86l0.542,-0Z" style="fill-rule:nonzero;"/><path d="M23.384,142.169l-0.6,0l-1.213,-1.877l-0.533,-0l-0,1.877l-0.481,0l0,-4.133l1.169,-0c0.393,-0 0.703,0.095 0.93,0.285c0.228,0.191 0.342,0.456 0.342,0.796c-0,0.252 -0.083,0.476 -0.249,0.672c-0.166,0.196 -0.395,0.33 -0.686,0.4l1.321,1.98Zm-2.346,-2.296l0.606,-0c0.254,-0 0.46,-0.069 0.618,-0.207c0.159,-0.138 0.238,-0.311 0.238,-0.52c-0,-0.461 -0.282,-0.691 -0.844,-0.691l-0.618,-0l-0,1.418Z" style="fill-rule:nonzero;"/><path d="M26.534,142.169l-0.481,0l0,-2.05l-1.415,-0l0,2.05l-0.48,0l-0,-4.133l0.48,-0l0,1.661l1.415,-0l0,-1.661l0.481,-0l-0,4.133Z" style="fill-rule:nonzero;"/><path d="M30.483,138.036l-1.292,2.364l0,1.769l-0.478,0l0,-1.769l-1.292,-2.364l0.542,-0l0.988,1.86l0.99,-1.86l0.542,-0Z" style="fill-rule:nonzero;"/><path d="M34.066,138.425l-1.274,0l-0,3.744l-0.478,0l0,-3.744l-1.28,0l-0,-0.389l3.032,-0l0,0.389Z" style="fill-rule:nonzero;"/><path d="M37.336,142.169l-0.481,0l0,-2.05l-1.415,-0l0,2.05l-0.48,0l-0,-4.133l0.48,-0l0,1.661l1.415,-0l0,-1.661l0.481,-0l-0,4.133Z" style="fill-rule:nonzero;"/><path d="M41.08,142.169l-0.463,0l-0,-3.544l-0.624,1.696l-0.454,-0l-0.624,-1.696l-0,3.544l-0.463,0l-0,-4.133l0.624,-0l0.691,1.883l0.689,-1.883l0.624,-0l-0,4.133Z" style="fill-rule:nonzero;"/></g><g><path d="M13.32,271.801l-2.246,6.89l-0.962,-0l-2.251,-6.89l0.84,-0l1.89,5.962l1.899,-5.962l0.83,-0Z" style="fill-rule:nonzero;"/><path d="M18.364,271.669l-2.993,7.153l-0.718,0l2.979,-7.153l0.732,0Z" style="fill-rule:nonzero;"/><path d="M22.593,271.669c0.771,0 1.36,0.305 1.765,0.916c0.405,0.61 0.608,1.498 0.608,2.663c-0,1.159 -0.202,2.044 -0.606,2.656c-0.403,0.612 -0.992,0.918 -1.767,0.918c-0.768,0 -1.355,-0.305 -1.76,-0.915c-0.406,-0.61 -0.608,-1.497 -0.608,-2.659c-0,-1.162 0.201,-2.049 0.605,-2.661c0.404,-0.612 0.991,-0.918 1.763,-0.918Zm-0,6.45c1.015,0 1.523,-0.957 1.523,-2.871c0,-1.917 -0.508,-2.876 -1.523,-2.876c-0.495,0 -0.872,0.248 -1.131,0.745c-0.258,0.496 -0.388,1.207 -0.388,2.131c0,0.934 0.129,1.647 0.386,2.136c0.257,0.49 0.635,0.735 1.133,0.735Z" style="fill-rule:nonzero;"/><path d="M30.835,278.261c-0.54,0.374 -1.167,0.561 -1.88,0.561c-0.892,0 -1.57,-0.306 -2.034,-0.918c-0.463,-0.612 -0.695,-1.497 -0.695,-2.656c-0,-1.12 0.224,-1.996 0.673,-2.629c0.45,-0.633 1.135,-0.95 2.056,-0.95c0.332,0 0.661,0.042 0.986,0.127c0.326,0.085 0.588,0.197 0.787,0.337l-0.264,0.63c-0.459,-0.261 -0.962,-0.391 -1.509,-0.391c-0.635,0 -1.107,0.231 -1.416,0.691c-0.309,0.461 -0.464,1.189 -0.464,2.185c0,1.914 0.627,2.871 1.88,2.871c0.531,0 1.074,-0.162 1.631,-0.488l0.249,0.63Z" style="fill-rule:nonzero;"/><path d="M37.139,272.45l-2.124,0l-0,6.241l-0.796,-0l-0,-6.241l-2.134,0l-0,-0.649l5.054,-0l-0,0.649Z" style="fill-rule:nonzero;"/></g><g><path d="M13.32,191.022l-2.246,6.89l-0.962,-0l-2.251,-6.89l0.84,0l1.89,5.962l1.899,-5.962l0.83,0Z" style="fill-rule:nonzero;"/><path d="M18.364,190.89l-2.993,7.154l-0.718,-0l2.979,-7.154l0.732,0Z" style="fill-rule:nonzero;"/><path d="M22.593,190.89c0.771,0 1.36,0.306 1.765,0.916c0.405,0.61 0.608,1.498 0.608,2.664c-0,1.158 -0.202,2.044 -0.606,2.656c-0.403,0.612 -0.992,0.918 -1.767,0.918c-0.768,-0 -1.355,-0.305 -1.76,-0.916c-0.406,-0.61 -0.608,-1.496 -0.608,-2.658c-0,-1.163 0.201,-2.05 0.605,-2.662c0.404,-0.612 0.991,-0.918 1.763,-0.918Zm-0,6.451c1.015,-0 1.523,-0.957 1.523,-2.871c0,-1.918 -0.508,-2.876 -1.523,-2.876c-0.495,-0 -0.872,0.248 -1.131,0.744c-0.258,0.497 -0.388,1.207 -0.388,2.132c0,0.934 0.129,1.646 0.386,2.136c0.257,0.49 0.635,0.735 1.133,0.735Z" style="fill-rule:nonzero;"/><path d="M30.835,197.482c-0.54,0.375 -1.167,0.562 -1.88,0.562c-0.892,-0 -1.57,-0.306 -2.034,-0.918c-0.463,-0.612 -0.695,-1.498 -0.695,-2.656c-0,-1.12 0.224,-1.997 0.673,-2.63c0.45,-0.633 1.135,-0.95 2.056,-0.95c0.332,0 0.661,0.043 0.986,0.127c0.326,0.085 0.588,0.197 0.787,0.337l-0.264,0.63c-0.459,-0.26 -0.962,-0.39 -1.509,-0.39c-0.635,-0 -1.107,0.23 -1.416,0.691c-0.309,0.46 -0.464,1.188 -0.464,2.185c0,1.914 0.627,2.871 1.88,2.871c0.531,-0 1.074,-0.163 1.631,-0.489l0.249,0.63Z" style="fill-rule:nonzero;"/><path d="M37.139,191.672l-2.124,-0l-0,6.24l-0.796,-0l-0,-6.24l-2.134,-0l-0,-0.65l5.054,0l-0,0.65Z" style="fill-rule:nonzero;"/></g><g><path d="M15.823,317.455c-0.563,0.414 -1.187,0.62 -1.87,0.62c-0.896,0 -1.574,-0.303 -2.036,-0.91c-0.463,-0.607 -0.694,-1.495 -0.694,-2.664c0,-1.129 0.224,-2.008 0.672,-2.637c0.447,-0.628 1.133,-0.942 2.058,-0.942c0.332,0 0.66,0.042 0.986,0.127c0.325,0.085 0.588,0.197 0.786,0.337l-0.264,0.63c-0.459,-0.261 -0.961,-0.391 -1.508,-0.391c-0.632,0 -1.103,0.231 -1.414,0.693c-0.311,0.463 -0.466,1.19 -0.466,2.183c-0,1.914 0.626,2.871 1.88,2.871c0.472,0 0.828,-0.099 1.069,-0.298l-0,-1.699l-1.24,0l-0,-0.693l2.041,-0l-0,2.773Z" style="fill-rule:nonzero;"/><path d="M22.346,317.943l-0.84,0l-0.761,-2.412l-2.261,0l-0.772,2.412l-0.83,0l2.251,-6.889l0.962,-0l2.251,6.889Zm-1.831,-3.11l-0.903,-2.851l-0.899,2.851l1.802,0Z" style="fill-rule:nonzero;"/><path d="M28.137,311.703l-2.124,0l0,6.24l-0.796,0l0,-6.24l-2.134,0l0,-0.649l5.054,-0l0,0.649Z" style="fill-rule:nonzero;"/><path d="M33.455,317.943l-3.599,0l-0,-6.889l3.569,-0l0,0.698l-2.768,0l-0,2.134l2.661,-0l-0,0.698l-2.661,0l-0,2.661l2.798,0l-0,0.698Z" style="fill-rule:nonzero;"/></g><g><path d="M15.823,236.677c-0.563,0.413 -1.187,0.62 -1.87,0.62c-0.896,-0 -1.574,-0.304 -2.036,-0.911c-0.463,-0.607 -0.694,-1.495 -0.694,-2.664c0,-1.129 0.224,-2.008 0.672,-2.636c0.447,-0.629 1.133,-0.943 2.058,-0.943c0.332,0 0.66,0.043 0.986,0.127c0.325,0.085 0.588,0.197 0.786,0.337l-0.264,0.63c-0.459,-0.26 -0.961,-0.391 -1.508,-0.391c-0.632,0 -1.103,0.232 -1.414,0.694c-0.311,0.462 -0.466,1.19 -0.466,2.182c-0,1.915 0.626,2.872 1.88,2.872c0.472,-0 0.828,-0.1 1.069,-0.298l-0,-1.7l-1.24,0l-0,-0.693l2.041,0l-0,2.774Z" style="fill-rule:nonzero;"/><path d="M22.346,237.165l-0.84,-0l-0.761,-2.412l-2.261,-0l-0.772,2.412l-0.83,-0l2.251,-6.89l0.962,0l2.251,6.89Zm-1.831,-3.111l-0.903,-2.851l-0.899,2.851l1.802,0Z" style="fill-rule:nonzero;"/><path d="M28.137,230.925l-2.124,-0l0,6.24l-0.796,-0l0,-6.24l-2.134,-0l0,-0.65l5.054,0l0,0.65Z" style="fill-rule:nonzero;"/><path d="M33.455,237.165l-3.599,-0l-0,-6.89l3.569,0l0,0.698l-2.768,0l-0,2.134l2.661,0l-0,0.698l-2.661,0l-0,2.662l2.798,-0l-0,0.698Z" style="fill-rule:nonzero;"/></g><g id="Logo"><path d="M21.356,353.606l0.718,0c0.117,0 0.217,-0.037 0.301,-0.113c0.083,-0.075 0.125,-0.165 0.125,-0.271c-0,-0.841 -0.331,-1.56 -0.992,-2.155c-0.661,-0.596 -1.458,-0.894 -2.392,-0.894l-2.958,0c-0.117,0 -0.218,0.038 -0.301,0.113c-0.084,0.075 -0.125,0.166 -0.125,0.271l-0,5.336c-0,0.101 0.041,0.19 0.125,0.265c0.083,0.075 0.184,0.113 0.301,0.113l5.916,-0c0.117,-0 0.217,-0.038 0.301,-0.113c0.083,-0.075 0.125,-0.164 0.125,-0.265c-0,-0.915 -0.381,-1.677 -1.144,-2.287Zm-0.447,-2c0.384,0.346 0.621,0.756 0.711,1.232l-1.32,-0c-0.09,-0.216 -0.243,-0.391 -0.46,-0.528c-0.217,-0.136 -0.458,-0.204 -0.724,-0.204c-0.352,0 -0.651,0.112 -0.897,0.336c-0.246,0.223 -0.369,0.491 -0.369,0.804c0,0.318 0.123,0.588 0.369,0.811c0.246,0.224 0.545,0.336 0.897,0.336c0.483,-0 0.848,-0.189 1.096,-0.567c0.257,0.114 0.49,0.262 0.697,0.445c0.384,0.345 0.621,0.758 0.711,1.238l-5.042,-0l-0,-4.574l2.538,0c0.699,0 1.297,0.224 1.793,0.671Z" style="fill:#8000db;fill-rule:nonzero;"/><path d="M28.273,351.088c-0.658,-0.598 -1.455,-0.896 -2.389,-0.896c-0.934,-0 -1.731,0.297 -2.392,0.893c-0.661,0.595 -0.992,1.314 -0.992,2.155l0,2.671c0,0.102 0.042,0.19 0.125,0.265c0.084,0.076 0.182,0.113 0.295,0.113c0.117,0 0.217,-0.037 0.301,-0.113c0.083,-0.075 0.125,-0.163 0.125,-0.265l0,-2.671c0,-0.63 0.248,-1.168 0.745,-1.616c0.496,-0.447 1.094,-0.67 1.793,-0.67c0.7,-0 1.297,0.223 1.794,0.67c0.496,0.448 0.744,0.986 0.744,1.616l0,1.75l-1.394,-1.256c0.081,-0.154 0.122,-0.319 0.122,-0.494c-0,-0.317 -0.123,-0.586 -0.369,-0.808c-0.246,-0.221 -0.545,-0.332 -0.897,-0.332c-0.352,0 -0.652,0.111 -0.9,0.332c-0.248,0.222 -0.372,0.491 -0.372,0.808c-0,0.317 0.124,0.587 0.372,0.808c0.248,0.222 0.548,0.333 0.9,0.333c0.194,-0 0.377,-0.037 0.548,-0.11l2.112,1.908c0.086,0.074 0.185,0.11 0.298,0.11c0.117,0 0.218,-0.037 0.301,-0.113c0.084,-0.075 0.125,-0.163 0.125,-0.265l0,-2.671c0,-0.841 -0.331,-1.559 -0.995,-2.152Z" style="fill:#2600ff;fill-rule:nonzero;"/><path d="M21.505,357.167c-0.659,-0.597 -1.455,-0.896 -2.389,-0.896l-2.965,-0c-0.113,-0 -0.211,0.037 -0.294,0.113c-0.084,0.075 -0.125,0.165 -0.125,0.271l-0,5.329c-0,0.106 0.041,0.197 0.125,0.272c0.083,0.075 0.181,0.113 0.294,0.113c0.118,-0 0.218,-0.038 0.301,-0.113c0.084,-0.075 0.126,-0.166 0.126,-0.272l-0,-4.951l2.538,0c0.699,0 1.297,0.224 1.793,0.671c0.497,0.447 0.745,0.986 0.745,1.616l-0,1.75l-1.394,-1.256c0.081,-0.155 0.121,-0.32 0.121,-0.494c0,-0.317 -0.122,-0.588 -0.368,-0.811c-0.246,-0.224 -0.545,-0.336 -0.897,-0.336c-0.352,0 -0.652,0.112 -0.9,0.336c-0.249,0.223 -0.373,0.494 -0.373,0.811c0,0.317 0.124,0.586 0.373,0.808c0.248,0.221 0.548,0.332 0.9,0.332c0.194,-0 0.377,-0.037 0.548,-0.11l2.112,1.909c0.086,0.073 0.185,0.11 0.298,0.11c0.117,-0 0.217,-0.038 0.301,-0.113c0.083,-0.075 0.125,-0.166 0.125,-0.272l-0,-2.664c-0,-0.842 -0.332,-1.559 -0.995,-2.153Z" style="fill:#0ef;fill-rule:nonzero;"/><path d="M28.842,358.942l-1.739,-0c-0.095,-0.22 -0.25,-0.397 -0.464,-0.531c-0.214,-0.134 -0.455,-0.201 -0.721,-0.201c-0.352,-0 -0.652,0.111 -0.9,0.332c-0.248,0.222 -0.372,0.491 -0.372,0.808c-0,0.317 0.124,0.588 0.372,0.811c0.248,0.224 0.548,0.336 0.9,0.336c0.28,-0 0.53,-0.075 0.751,-0.223c0.221,-0.148 0.373,-0.34 0.454,-0.576l1.299,-0l0,1.908l-2.538,0c-0.699,0 -1.297,-0.223 -1.793,-0.67c-0.497,-0.448 -0.745,-0.986 -0.745,-1.616c0,-0.63 0.248,-1.169 0.745,-1.616c0.496,-0.447 1.094,-0.671 1.793,-0.671l2.958,0c0.117,0 0.218,-0.038 0.301,-0.113c0.084,-0.075 0.125,-0.163 0.125,-0.265c0,-0.106 -0.041,-0.196 -0.125,-0.271c-0.083,-0.076 -0.184,-0.113 -0.301,-0.113l-2.958,-0c-0.934,-0 -1.731,0.298 -2.392,0.893c-0.661,0.596 -0.992,1.314 -0.992,2.156c0,0.841 0.331,1.56 0.992,2.155c0.661,0.596 1.458,0.894 2.392,0.894l2.958,-0c0.117,-0 0.218,-0.038 0.301,-0.113c0.084,-0.075 0.125,-0.166 0.125,-0.272l0,-2.664c0,-0.106 -0.041,-0.195 -0.125,-0.269c-0.083,-0.073 -0.184,-0.109 -0.301,-0.109Z" style="fill:#f00;fill-rule:nonzero;"/></g><g><path d="M7.226,43.556l-2.989,-0l0,-5.723l2.965,0l-0,0.58l-2.3,-0l0,1.772l2.211,0l-0,0.58l-2.211,0l0,2.211l2.324,-0l0,0.58Z" style="fill-rule:nonzero;"/><path d="M12.9,43.556l-0.738,-0l-1.452,-2.345l-1.44,2.345l-0.738,-0l1.829,-2.916l-1.821,-2.807l0.763,0l1.407,2.267l1.42,-2.267l0.73,0l-1.793,2.807l1.833,2.916Z" style="fill-rule:nonzero;"/><path d="M17.763,38.372l-1.764,0l-0,5.184l-0.661,-0l-0,-5.184l-1.773,0l0,-0.539l4.198,0l-0,0.539Z" style="fill-rule:nonzero;"/></g><path d="M22.5,77.02l-11.5,-23" style="fill:none;stroke:#000;stroke-width:1.01px;stroke-linecap:round;"/><g><path d="M5.787,112.788c-0.45,0.331 -0.949,0.496 -1.496,0.496c-0.716,0 -1.259,-0.243 -1.629,-0.728c-0.37,-0.486 -0.555,-1.196 -0.555,-2.131c0,-0.904 0.179,-1.607 0.538,-2.11c0.358,-0.502 0.906,-0.753 1.646,-0.753c0.266,-0 0.529,0.033 0.789,0.101c0.26,0.068 0.47,0.158 0.629,0.27l-0.211,0.504c-0.367,-0.209 -0.769,-0.313 -1.207,-0.313c-0.505,0 -0.882,0.185 -1.131,0.555c-0.249,0.37 -0.373,0.952 -0.373,1.746c0,1.531 0.501,2.297 1.504,2.297c0.378,-0 0.663,-0.08 0.855,-0.239l0,-1.359l-0.992,0l0,-0.555l1.633,0l0,2.219Z" style="fill-rule:nonzero;"/><path d="M11.006,113.179l-0.672,-0l-0.609,-1.93l-1.809,0l-0.617,1.93l-0.664,-0l1.801,-5.512l0.769,-0l1.801,5.512Zm-1.465,-2.489l-0.723,-2.281l-0.718,2.281l1.441,0Z" style="fill-rule:nonzero;"/><path d="M15.639,108.187l-1.7,-0l0,4.992l-0.636,-0l-0,-4.992l-1.707,-0l-0,-0.52l4.043,-0l-0,0.52Z" style="fill-rule:nonzero;"/><path d="M19.893,113.179l-2.879,-0l-0,-5.512l2.855,-0l0,0.559l-2.215,-0l0,1.707l2.129,-0l0,0.558l-2.129,0l0,2.129l2.239,0l-0,0.559Z" style="fill-rule:nonzero;"/></g><g><path d="M22.375,121.923c0.592,-0 1.043,0.234 1.354,0.703c0.311,0.468 0.467,1.149 0.467,2.044c-0,0.889 -0.155,1.569 -0.465,2.038c-0.31,0.47 -0.762,0.705 -1.356,0.705c-0.59,-0 -1.04,-0.235 -1.351,-0.703c-0.311,-0.468 -0.467,-1.148 -0.467,-2.04c0,-0.892 0.155,-1.573 0.465,-2.043c0.31,-0.469 0.761,-0.704 1.353,-0.704Zm-0,4.95c0.779,0 1.169,-0.734 1.169,-2.203c-0,-1.472 -0.39,-2.207 -1.169,-2.207c-0.38,-0 -0.669,0.19 -0.868,0.571c-0.198,0.381 -0.298,0.926 -0.298,1.636c0,0.717 0.099,1.263 0.296,1.639c0.198,0.376 0.487,0.564 0.87,0.564Z" style="fill-rule:nonzero;"/><path d="M28.7,126.982c-0.415,0.287 -0.896,0.431 -1.443,0.431c-0.684,-0 -1.204,-0.235 -1.56,-0.705c-0.356,-0.469 -0.534,-1.149 -0.534,-2.038c-0,-0.86 0.172,-1.532 0.517,-2.018c0.344,-0.486 0.87,-0.729 1.577,-0.729c0.255,-0 0.507,0.032 0.757,0.097c0.25,0.065 0.451,0.152 0.604,0.259l-0.203,0.483c-0.352,-0.2 -0.738,-0.299 -1.158,-0.299c-0.487,-0 -0.849,0.176 -1.086,0.53c-0.238,0.353 -0.356,0.912 -0.356,1.677c-0,1.469 0.481,2.203 1.442,2.203c0.408,0 0.825,-0.125 1.252,-0.375l0.191,0.484Z" style="fill-rule:nonzero;"/><path d="M33.538,122.523l-1.63,-0l-0,4.788l-0.611,0l-0,-4.788l-1.638,-0l0,-0.499l3.879,0l-0,0.499Z" style="fill-rule:nonzero;"/></g></g></g></svg>