<?xml version="1.0" encoding="UTF-8" standalone="no"?><!DOCTYPE svg PUBLIC "-//W3C//DTD SVG 1.1//EN" "http://www.w3.org/Graphics/SVG/1.1/DTD/svg11.dtd"><svg width="100%" height="100%" viewBox="0 0 16 16" version="1.1" xmlns="http://www.w3.org/2000/svg" xmlns:xlink="http://www.w3.org/1999/xlink" xml:space="preserve" xmlns:serif="http://www.serif.com/" style="fill-rule:evenodd;clip-rule:evenodd;"><g id="TinyPJ301M"><path id="path7255" d="M8,15.651c-4.219,-0 -7.651,-3.431 -7.651,-7.651c0,-4.219 3.432,-7.651 7.651,-7.651c4.219,0 7.651,3.432 7.651,7.651c-0,4.22 -3.432,7.651 -7.651,7.651" style="fill:#e6e6e6;fill-rule:nonzero;stroke:#000;stroke-width:0.47px;"/><path id="path7261" d="M8,13.51c-3.038,-0 -5.51,-2.472 -5.51,-5.51c0,-3.038 2.472,-5.51 5.51,-5.51c3.038,0 5.51,2.472 5.51,5.51c-0,3.038 -2.472,5.51 -5.51,5.51" style="fill:#e6e6e6;fill-rule:nonzero;stroke:#000;stroke-width:0.47px;"/><path id="path7265" d="M11.397,8c0,1.876 -1.521,3.397 -3.397,3.397c-1.876,0 -3.397,-1.521 -3.397,-3.397c-0,-1.876 1.521,-3.397 3.397,-3.397c1.876,-0 3.397,1.521 3.397,3.397" style="fill-rule:nonzero;"/></g></svg>