<?xml version="1.0" encoding="UTF-8" standalone="no"?><!DOCTYPE svg PUBLIC "-//W3C//DTD SVG 1.1//EN" "http://www.w3.org/Graphics/SVG/1.1/DTD/svg11.dtd"><svg width="100%" height="100%" viewBox="0 0 25 25" version="1.1" xmlns="http://www.w3.org/2000/svg" xmlns:xlink="http://www.w3.org/1999/xlink" xml:space="preserve" xmlns:serif="http://www.serif.com/" style="fill-rule:evenodd;clip-rule:evenodd;stroke-linecap:round;stroke-linejoin:round;stroke-miterlimit:1.5;"><g id="ToggleButton"><circle id="BlueButton" cx="12.5" cy="12.5" r="11.5" style="fill:#fff;stroke:#2600ff;stroke-width:1px;"/><circle cx="12.5" cy="12.5" r="2.416" style="fill:#2600ff;"/><path d="M12.5,7.084c-2.989,-0 -5.416,2.427 -5.416,5.416c0,2.99 2.427,5.417 5.416,5.417c2.989,0 5.416,-2.427 5.416,-5.417c0,-2.989 -2.427,-5.416 -5.416,-5.416Zm0,3c1.333,-0 2.416,1.083 2.416,2.416c0,1.334 -1.083,2.417 -2.416,2.417c-1.333,-0 -2.416,-1.083 -2.416,-2.417c0,-1.333 1.083,-2.416 2.416,-2.416Z" style="fill:#0ef;"/></g></svg>